<?xml version="1.0" encoding="UTF-8" standalone="no"?>
<svg
   width="272.41998"
   height="50"
   viewBox="0 0 272.41998 50"
   version="2.0"
   id="svg13"
   xmlns="http://www.w3.org/2000/svg"
   xmlns:svg="http://www.w3.org/2000/svg"
   xmlns:rdf="http://www.w3.org/1999/02/22-rdf-syntax-ns#"
   xmlns:cc="http://creativecommons.org/ns#"
   xmlns:dc="http://purl.org/dc/elements/1.1/">
  <title
     id="title1">logo.svg</title>
  <desc
     id="desc1">Created using Figma 0.90</desc>
  <defs
     id="defs13">
    <path
       id="path0_fill"
       d="m 5.62592,17.9276 c 0,5.1461 -0.3925,6.8263 -1.43919,8.0666 C 3.04416,27.0501 1.54971,27.6341 0,27.6304 l 0.392506,3.0612 C 2.79452,30.7249 5.12302,29.8564 6.92556,28.255 8.80086,26.3021 9.45504,23.6015 9.45504,19.4583 V 0 H 5.6172 v 17.954 z" />
    <path
       id="path1_fill"
       d="m 17.7413,15.6229 c 0,2.2168 0,4.1696 0.1744,5.8498 h -3.3581 l -0.218,-3.5187 h -0.0873 c -0.7069,1.2298 -1.7261,2.2473 -2.9526,2.9477 -1.2265,0.7005 -2.61593,1.0585 -4.02525,1.0372 C 3.95995,21.9389 0,20.074 0,12.5441 V 0 h 3.83784 v 11.9019 c 0,4.0817 1.22113,6.8262 4.70135,6.8262 1.09173,-0.0201 2.15331,-0.3647 3.05161,-0.9907 0.8984,-0.6259 1.5936,-1.5053 1.9986,-2.5279 0.2328,-0.6395 0.351,-1.3157 0.3489,-1.9969 V 0.0175934 h 3.8379 V 15.6229 Z" />
    <path
       id="path2_fill"
       d="M 0.174447,7.53632 C 0.174447,4.79175 0.0872236,2.57499 0,0.498968 H 3.44533 L 3.61978,4.17598 H 3.707 C 4.46074,2.85853 5.55705,1.77379 6.87754,1.03893 8.19802,0.304077 9.69248,-0.0529711 11.1995,0.0063534 c 5.0939,0 8.9317,4.3983466 8.9317,10.9078466 0,7.7147 -4.6141,11.5237 -9.5946,11.5237 C 9.25812,22.492 7.98766,22.2098 6.84994,21.6192 5.71222,21.0285 4.74636,20.1496 4.04718,19.0688 H 3.95995 V 30.7244 H 0.165725 V 7.50113 Z M 3.96868,13.2542 c 0.01001,0.5349 0.0684,1.0679 0.17444,1.5922 0.31262,1.3003 1.0491,2.4571 2.09137,3.2849 1.04228,0.8279 2.32997,1.2788 3.65667,1.2805 4.05594,0 6.40224,-3.3691 6.40224,-8.2864 0,-4.30162 -2.2242,-7.97863 -6.2714,-7.97863 C 8.66089,3.18518 7.35158,3.68134 6.30219,4.55638 5.25279,5.43143 4.52354,6.63513 4.23035,7.97615 4.07662,8.49357 3.98869,9.02858 3.96868,9.56835 v 3.67705 z" />
    <path
       id="path3_fill"
       d="M 4.16057,0 8.7747,12.676 c 0.47973,1.4163 1.00307,3.1053 1.352,4.3984 h 0.0872 c 0.3925,-1.2843 0.8286,-2.9293 1.352,-4.4775 L 15.7526,0.00879669 h 4.0559 L 14.0604,15.3062 C 11.3129,22.6603 9.44632,26.434 6.82961,28.7388 5.50738,29.9791 3.88672,30.8494 2.12826,31.2634 L 1.1688,27.9823 C 2.39912,27.5689 3.53918,26.9208 4.52691,26.0734 5.92259,24.8972 7.02752,23.4094 7.75418,21.7278 7.90932,21.4374 8.01266,21.1218 8.05946,20.7954 8.02501,20.4436 7.93674,20.0994 7.79779,19.7749 L 0,0.00879669 h 4.18673 z" />
    <path
       id="path4_fill"
       d="m 7.0215,0 v 6.15768 h 5.4864 V 9.13096 H 7.0215 V 20.6898 c 0,2.639 0.7414,4.1696 2.87838,4.1696 0.74972,0.0118 1.49762,-0.077 2.22422,-0.2639 l 0.1744,2.9293 C 11.207,27.9125 10.0534,28.0915 8.89681,28.0526 8.1298,28.1 7.36177,27.9782 6.64622,27.6956 5.93068,27.413 5.28484,26.9765 4.75369,26.4164 3.66339,25.2641 3.27089,23.3552 3.27089,20.8306 V 9.13096 H 0 V 6.15768 H 3.27089 V 1.01162 Z" />
    <path
       id="path5_fill"
       d="m 3.6285,11.9283 c 0.08723,5.278 3.40172,7.4508 7.2308,7.4508 2.0019,0.0634 3.9934,-0.3149 5.8353,-1.1084 l 0.6542,2.7886 c -2.2069,0.9347 -4.585,1.3874 -6.9779,1.3283 C 3.88145,22.3876 0,18.042 0,11.5676 0,5.09328 3.75062,0 9.89116,0 16.7731,0 18.6135,6.15768 18.6135,10.1074 18.607,10.7165 18.5634,11.3246 18.4827,11.9283 H 3.65467 Z M 14.8716,9.13976 c 0.0436,-2.48067 -1.003,-6.34241 -5.31189,-6.34241 -3.88145,0 -5.57359,3.63303 -5.87887,6.34241 H 14.8803 Z" />
    <path
       id="path6_fill"
       d="M 0.174447,7.17854 C 0.174447,4.65389 0.130835,2.48111 0,0.484261 H 3.35811 L 3.48894,4.69787 H 3.66339 C 4.62285,1.81256 6.93428,4.4283e-4 9.49865,4.4283e-4 9.8663,-0.0049786 10.233,0.0394012 10.5889,0.132393 V 3.80941 C 10.1593,3.71494 9.72029,3.67067 9.28059,3.67746 6.57666,3.67746 4.66646,5.76227 4.14312,8.68277 4.03516,9.28384 3.97681,9.89289 3.96867,10.5037 V 21.9394 H 0.174447 Z" />
    <path
       id="path7_fill"
       d="M 5.89353,2.844 C 5.91889,3.43165 5.77085,4.01367 5.46815,4.51645 5.16545,5.01922 4.72168,5.42015 4.19299,5.66851 3.6643,5.91688 3.07444,6.00151 2.49805,5.91171 1.92166,5.8219 1.38463,5.5617 0.954898,5.16401 0.52517,4.76633 0.222056,4.24903 0.0839037,3.67757 -0.0542483,3.10611 -0.02123,2.50617 0.178781,1.95364 0.378793,1.4011 0.736809,0.920817 1.20754,0.573538 1.67826,0.226259 2.24055,0.0275919 2.82326,0.00267229 3.60389,-0.0307115 4.36573,0.249789 4.94142,0.782551 5.51711,1.31531 5.85956,2.05676 5.89353,2.844 Z" />
    <path
       id="path8_fill"
       d="M 18.2646,7.13411 C 10.4145,7.13411 3.55872,4.2576 0,0 c 1.32539,3.8204 3.79556,7.13081 7.0686,9.47303 3.2731,2.34217 7.1871,3.60037 11.2004,3.60037 4.0133,0 7.9273,-1.2582 11.2004,-3.60037 C 32.7424,7.13081 35.2126,3.8204 36.538,0 32.9705,4.2576 26.1148,7.13411 18.2646,7.13411 Z" />
    <path
       id="path9_fill"
       d="m 18.2733,5.93931 c 7.8502,0 14.706,2.87652 18.2647,7.13409 C 35.2126,9.25303 32.7424,5.94262 29.4694,3.6004 26.1963,1.25818 22.2823,0 18.269,0 14.2557,0 10.3417,1.25818 7.0686,3.6004 3.79556,5.94262 1.32539,9.25303 0,13.0734 3.56745,8.82463 10.4232,5.93931 18.2733,5.93931 Z" />
    <path
       id="path10_fill"
       d="M 7.42789,3.58338 C 7.46008,4.3243 7.27355,5.05819 6.89193,5.69213 6.51031,6.32607 5.95075,6.83156 5.28411,7.1446 4.61747,7.45763 3.87371,7.56414 3.14702,7.45063 2.42032,7.33712 1.74336,7.0087 1.20184,6.50695 0.660328,6.0052 0.27861,5.35268 0.105017,4.63202 -0.0685757,3.91135 -0.0262361,3.15494 0.226675,2.45856 0.479587,1.76217 0.931697,1.15713 1.52576,0.720033 2.11983,0.282935 2.82914,0.0334395 3.56389,0.00313344 4.54667,-0.0374033 5.50529,0.316706 6.22961,0.987835 6.95393,1.65896 7.38484,2.59235 7.42789,3.58338 Z" />
    <path
       id="path11_fill"
       d="M 2.27471,4.39629 C 1.84363,4.41508 1.41671,4.30445 1.04799,4.07843 0.679268,3.8524 0.385328,3.52114 0.203371,3.12656 0.0214136,2.73198 -0.0403798,2.29183 0.0258116,1.86181 0.0920031,1.4318 0.283204,1.03126 0.575213,0.710883 0.867222,0.39051 1.24691,0.164708 1.66622,0.0620592 2.08553,-0.0405897 2.52561,-0.0154714 2.93076,0.134235 3.33591,0.283941 3.68792,0.551505 3.94222,0.90306 4.19652,1.25462 4.34169,1.67436 4.35935,2.10916 4.38299,2.69107 4.17678,3.25869 3.78597,3.68746 3.39516,4.11624 2.85166,4.37116 2.27471,4.39629 Z" />
  </defs>
  <metadata
     id="metadata13">
    <rdf:RDF>
      <cc:Work
         rdf:about="">
        <dc:title>logo.svg</dc:title>
      </cc:Work>
    </rdf:RDF>
  </metadata>
  <path
     style="font-size:40px;font-family:'Myriad Pro';-inkscape-font-specification:'Myriad Pro';fill:#4e4e4e"
     d="m 63.660067,34.989994 h 3.52 v -10.32 c 0,-0.56 0.04,-1.16 0.12,-1.64 0.48,-2.64 2.24,-4.48 4.72,-4.48 0.48,0 0.84,0 1.2,0.08 v -3.32 c -0.32,-0.04 -0.6,-0.08 -0.96,-0.08 -2.36,0 -4.52,1.64 -5.4,4.24 h -0.12 l -0.16,-3.84 h -3.08 c 0.12,1.8 0.16,3.76 0.16,6.04 z m 28.239977,-9.04 c 0.08,-0.4 0.12,-0.92 0.12,-1.64 0,-3.56 -1.64,-9.08 -8,-9.08 -5.64,0 -9.08,4.56 -9.08,10.4 0,5.84 3.56,9.8 9.52,9.8 3.08,0 5.24,-0.68 6.48,-1.24 l -0.64,-2.52 c -1.28,0.56 -2.84,1 -5.36,1 -3.56,0 -6.56,-1.96 -6.64,-6.72 z m -13.56,-2.52 c 0.28,-2.44 1.8,-5.68 5.4,-5.68 3.96,0 4.92,3.48 4.88,5.68 z m 18.039978,19.48 h 3.48 v -10.52 h 0.08 c 1.159998,1.92 3.399998,3.04 5.959998,3.04 4.56,0 8.84,-3.44 8.84,-10.4 0,-5.84 -3.52,-9.8 -8.24,-9.8 -3.16,0 -5.48,1.36 -6.879998,3.72 h -0.08 l -0.2,-3.32 h -3.12 c 0.08,1.84 0.16,3.84 0.16,6.32 z m 3.48,-19.16 c 0,-0.44 0.12,-0.96 0.239998,-1.4 0.64,-2.64 2.92,-4.32 5.32,-4.32 3.72,0 5.76,3.32 5.76,7.16 0,4.44 -2.16,7.48 -5.88,7.48 -2.52,0 -4.64,-1.68 -5.28,-4.12 -0.119998,-0.44 -0.159998,-0.92 -0.159998,-1.44 z m 27.480008,-8.52 c -5.32,0 -9.6,3.8 -9.6,10.24 0,6.12 4.08,9.96 9.28,9.96 4.64,0 9.64,-3.12 9.64,-10.28 0,-5.88 -3.76,-9.92 -9.32,-9.92 z m -0.08,2.64 c 4.16,0 5.8,4.12 5.8,7.4 0,4.36 -2.52,7.52 -5.88,7.52 -3.44,0 -5.84,-3.2 -5.84,-7.44 0,-3.64 1.8,-7.48 5.92,-7.48 z m 29.31999,17.12 v -2.92 h -11.64 v -0.08 l 2.04,-1.92 c 5.48,-5.28 8.96,-9.16 8.96,-13.96 0,-3.72 -2.36,-7.56 -7.96,-7.56 -2.96,0 -5.56,1.16 -7.32,2.64 l 1.12,2.48 c 1.2,-1 3.16,-2.2 5.52,-2.2 3.88,0 5.12,2.44 5.12,5.08 0,3.92 -3.04,7.28 -9.68,13.6 l -2.76,2.68 v 2.16 z m 18.24002,-28.4 v 11.56 h -0.08 c -0.88,-1.52 -2.84,-2.92 -5.84,-2.92 -4.68,0 -8.72,3.92 -8.68,10.36 0,5.88 3.64,9.84 8.32,9.84 3.16,0 5.48,-1.64 6.52,-3.8 h 0.12 l 0.16,3.36 h 3.12 c -0.08,-1.32 -0.16,-3.28 -0.16,-5 v -23.4 z m 0,20.28 c 0,0.56 -0.04,1.04 -0.16,1.52 -0.64,2.6 -2.8,4.2 -5.16,4.2 -3.76,0 -5.72,-3.24 -5.72,-7.16 0,-4.24 2.16,-7.44 5.8,-7.44 2.64,0 4.56,1.84 5.08,4.04 0.12,0.44 0.16,1.04 0.16,1.48 z m 17.55997,-11.64 c -5.32,0 -9.6,3.8 -9.6,10.24 0,6.12 4.08,9.96 9.28,9.96 4.64,0 9.64,-3.12 9.64,-10.28 0,-5.88 -3.76,-9.92 -9.32,-9.92 z m -0.08,2.64 c 4.16,0 5.8,4.12 5.8,7.4 0,4.36 -2.52,7.52 -5.88,7.52 -3.44,0 -5.84,-3.2 -5.84,-7.44 0,-3.64 1.8,-7.48 5.92,-7.48 z m 27.03999,13.8 c -1,0.44 -2.32,0.92 -4.32,0.92 -3.84,0 -6.72,-2.76 -6.72,-7.24 0,-4 2.4,-7.32 6.84,-7.32 1.92,0 3.24,0.48 4.08,0.92 l 0.8,-2.68 c -0.96,-0.52 -2.8,-1.04 -4.88,-1.04 -6.32,0 -10.4,4.36 -10.4,10.32 0,5.92 3.8,9.88 9.64,9.88 2.6,0 4.64,-0.68 5.56,-1.12 z m 8.2,-25.08 h -3.48 v 28.4 h 3.48 v -7.28 l 1.8,-2 6.64,9.28 h 4.32 l -8.52,-11.4 7.44,-7.96 h -4.2 l -5.72,6.68 c -0.56,0.68 -1.2,1.52 -1.68,2.2 h -0.08 z m 30.83999,19.36 c 0.08,-0.4 0.12,-0.92 0.12,-1.64 0,-3.56 -1.64,-9.08 -8,-9.08 -5.64,0 -9.08,4.56 -9.08,10.4 0,5.84 3.56,9.8 9.52,9.8 3.08,0 5.24,-0.68 6.48,-1.24 l -0.64,-2.52 c -1.28,0.56 -2.84,1 -5.36,1 -3.56,0 -6.56,-1.96 -6.64,-6.72 z m -13.56,-2.52 c 0.28,-2.44 1.8,-5.68 5.4,-5.68 3.96,0 4.92,3.48 4.88,5.68 z m 18.03998,11.56 h 3.52 v -10.32 c 0,-0.56 0.04,-1.16 0.12,-1.64 0.48,-2.64 2.24,-4.48 4.72,-4.48 0.48,0 0.84,0 1.2,0.08 v -3.32 c -0.32,-0.04 -0.6,-0.08 -0.96,-0.08 -2.36,0 -4.52,1.64 -5.4,4.24 h -0.12 l -0.16,-3.84 h -3.08 c 0.12,1.8 0.16,3.76 0.16,6.04 z"
     id="text1"
     aria-label="repo2docker" />
  <g
     id="Page-1"
     stroke="none"
     stroke-width="1"
     fill="none"
     fill-rule="evenodd"
     transform="matrix(0.34358746,0,0,0.34358746,-7.5954137e-5,-8.3610041e-6)">
    <g
       id="Artboard"
       transform="translate(-17,-29)">
      <g
         id="Group-4"
         transform="translate(19,30)">
        <g
           id="Group-3">
          <polygon
             id="polygon12"
             stroke="#394d54"
             stroke-width="4"
             stroke-linejoin="round"
             fill="#bff2ff"
             fill-rule="nonzero"
             points="91.906411,116.5786 45.953206,92.914634 0,116.5786 45.953206,142.52341 " />
          <polygon
             id="polygon1"
             stroke="#394d54"
             stroke-width="4"
             stroke-linejoin="round"
             fill="#bff2ff"
             fill-rule="nonzero"
             points="94.906411,103.5786 48.953206,79.914634 3,103.5786 48.953206,129.52341 " />
          <polygon
             id="polygon2"
             stroke="#394d54"
             stroke-width="4"
             stroke-linejoin="round"
             fill="#bff2ff"
             fill-rule="nonzero"
             points="98.906411,91.578604 52.953206,67.914634 7,91.578604 52.953206,117.52341 " />
          <polygon
             id="polygon3"
             stroke="#394d54"
             stroke-width="4"
             stroke-linejoin="round"
             fill="#bff2ff"
             fill-rule="nonzero"
             points="101.90641,78.578604 55.953206,54.914634 10,78.578604 55.953206,104.52341 " />
          <polygon
             id="polygon4"
             stroke="#394d54"
             stroke-width="4"
             stroke-linejoin="round"
             fill="#bff2ff"
             fill-rule="nonzero"
             points="105.90641,65.578604 59.953206,41.914634 14,65.578604 59.953206,91.523412 " />
          <polygon
             id="Polygon"
             stroke="#394d54"
             stroke-width="4"
             stroke-linejoin="round"
             fill="#d8d8d8"
             points="21.5,32.223022 82.94873,1 144.39746,32.223022 144.39746,107 82.94873,141 21.5,107 " />
          <polygon
             id="polygon18"
             stroke="#394d54"
             stroke-width="1.87181"
             stroke-linejoin="round"
             fill="#0eacd1"
             fill-rule="nonzero"
             points="83,0 143.93795,31.666215 143.93795,106.38159 83,72.984293 " />
          <polygon
             id="polygon32"
             fill="#000000"
             fill-rule="nonzero"
             opacity="0.05"
             points="94.790079,77.69763 84,71.803492 84,1.9633027 142.27293,32.264352 142.27293,34.679429 " />
        </g>
        <polygon
           id="polygon10"
           stroke="#394d54"
           stroke-width="1.87181"
           stroke-linejoin="round"
           fill="#20c2ef"
           fill-rule="nonzero"
           points="83,0 22,31.666215 22,106.38159 83,72.984293 " />
        <g
           id="Group-5"
           transform="translate(0,2)">
          <polygon
             id="polygon5"
             stroke="#394d54"
             stroke-width="1.87181"
             stroke-linejoin="round"
             fill="#0da3c6"
             fill-rule="nonzero"
             points="143.87589,104.43581 82.937947,73.219512 22,104.43581 82.937947,138.66088 " />
          <polygon
             id="polygon14"
             fill="#20c2ef"
             fill-rule="nonzero"
             opacity="0.3"
             points="27.535019,106.31134 25,104.99406 82.782715,75.341463 140.57355,104.9393 138.09541,106.34481 82.782715,78.009497 " />
          <g
             id="Group"
             transform="translate(0,40)">
            <g
               id="Group-9"
               transform="translate(0,50)"
               fill-rule="nonzero">
              <polygon
                 id="polygon6"
                 stroke="#394d54"
                 stroke-width="1.87181"
                 stroke-linejoin="round"
                 fill="#bff2ff"
                 points="91.906411,24.578605 45.953206,0.91463415 0,24.578605 45.953206,50.523412 " />
              <polygon
                 id="polygon7"
                 fill="#ffffff"
                 opacity="0.3"
                 points="4.1739484,26.000378 2.2622951,25.001791 45.836146,2.5232101 89.416124,24.960279 87.54736,26.025746 45.836146,4.5457519 " />
            </g>
            <g
               id="g9"
               transform="translate(3,37)"
               fill-rule="nonzero">
              <polygon
                 id="polygon8"
                 stroke="#394d54"
                 stroke-width="1.87181"
                 stroke-linejoin="round"
                 fill="#bff2ff"
                 points="91.906411,24.578605 45.953206,0.91463415 0,24.578605 45.953206,50.523412 " />
              <polygon
                 id="polygon9"
                 fill="#ffffff"
                 opacity="0.3"
                 points="4.1739484,26.000378 2.2622951,25.001791 45.836146,2.5232101 89.416124,24.960279 87.54736,26.025746 45.836146,4.5457519 " />
            </g>
            <g
               id="Group-8"
               transform="translate(7,25)"
               fill-rule="nonzero">
              <polygon
                 id="polygon11"
                 stroke="#394d54"
                 stroke-width="1.87181"
                 stroke-linejoin="round"
                 fill="#bff2ff"
                 points="91.906411,24.273726 45.953206,0.6097561 0,24.273726 45.953206,50.218534 " />
              <polygon
                 id="polygon13"
                 fill="#ffffff"
                 opacity="0.3"
                 points="4.1739484,25.6955 2.2622951,24.696913 45.836146,2.218332 89.416124,24.655401 87.54736,25.720868 45.836146,4.2408739 " />
            </g>
            <g
               id="Group-7"
               transform="translate(10,13)"
               fill-rule="nonzero">
              <polygon
                 id="polygon15"
                 stroke="#394d54"
                 stroke-width="1.87181"
                 stroke-linejoin="round"
                 fill="#bff2ff"
                 points="91.906411,23.66397 45.953206,0 0,23.66397 45.953206,49.608778 " />
              <polygon
                 id="polygon16"
                 fill="#ffffff"
                 opacity="0.3"
                 points="4.1739484,25.085744 2.2622951,24.087157 45.836146,1.6085759 89.416124,24.045645 87.54736,25.111112 45.836146,3.6311178 " />
            </g>
            <g
               id="Group-6"
               transform="translate(14)"
               fill-rule="nonzero">
              <polygon
                 id="polygon17"
                 stroke="#394d54"
                 stroke-width="1.87181"
                 stroke-linejoin="round"
                 fill="#bff2ff"
                 points="91.906411,23.66397 45.953206,0 0,23.66397 45.953206,49.608778 " />
              <polygon
                 id="polygon19"
                 fill="#ffffff"
                 opacity="0.3"
                 points="4.1739484,25.085744 2.2622951,24.087157 45.836146,1.6085759 89.416124,24.045645 87.54736,25.111112 45.836146,3.6311178 " />
            </g>
            <g
               id="XMLID_7_"
               transform="rotate(12,-17.117202,146.95729)">
              <mask
                 id="mask-2"
                 fill="#ffffff">
                <path
                   d="m 27.775063,13.485848 c -1.070584,0.96973 -2.566851,1.448993 -3.984065,1.449743 -1.634064,1.332414 -4.044697,2.553234 -6.407243,2.931117 -2.375312,0.377882 -4.268444,0.150836 -5.750062,-0.689233 -0.51364,-0.329552 -1.018205,-0.500306 -1.536352,-0.577399 -0.2484888,-0.006 -1.3298804,0.120814 -1.5504264,0.133145 -0.1638484,0.777799 -0.6737842,1.541526 -1.5920564,2.254563 -1.9384178,1.483116 -4.6563186,1.901851 -6.1122837,0.949813 -1.43539362,-0.952039 -0.98676321,-2.872064 0.9649142,-4.35518 1.2553487,-0.96973 2.8614551,-1.477514 4.1711124,-1.43953 L 16.287807,5.443839 c -0.215562,-0.9506709 0.218934,-2.154175 1.26632,-3.1239049 1.570151,-1.48311634 3.835246,-1.92015951 5.223835,-0.9681214 1.409161,0.9520381 1.334185,2.8720637 -0.222778,4.35518 -1.069563,0.9982514 -2.496228,1.4775139 -3.743132,1.4395299 l -7.310047,6.3032444 c 1.152554,0.0401 2.200834,0.418226 3.339966,1.103733 0.71984,0.41088 1.63008,0.538664 2.822028,0.344616 1.159542,-0.212356 2.148814,-0.628222 2.968527,-1.294429 l 0.457424,-0.399301 c -0.261317,-0.950671 0.158548,-2.154175 1.237802,-3.123905 1.618893,-1.4831162 4.04118,-1.9018509 5.547169,-0.9498128 1.52656,0.9520378 1.505775,2.8720638 -0.09986,4.3551798 z M 21.744792,2.4437238 c -0.805598,-0.5492527 -2.275693,-0.2837136 -3.18467,0.5719304 -0.921749,0.8556441 -1.034291,2.0732213 -0.224087,2.622474 0.817051,0.5492528 2.335889,0.2837137 3.253032,-0.5719304 0.904371,-0.855644 0.995369,-2.0549128 0.155725,-2.622474 z M 2.3175941,18.872089 c 0.8361346,0.549253 2.4771976,0.293927 3.6574085,-0.57193 1.1019171,-0.855644 1.3203842,-2.073221 0.4888559,-2.622474 -0.8246813,-0.549253 -2.4825222,-0.283714 -3.5890457,0.57193 -1.1192959,0.855644 -1.4140314,2.054913 -0.5572187,2.622474 z M 23.23931,13.380367 c 0.884325,0.549253 2.485874,0.283714 3.431177,-0.571931 0.932532,-0.855644 0.962433,-2.073221 0.08271,-2.622473 -0.872872,-0.5492532 -2.425677,-0.2837141 -3.362815,0.57193 -0.94991,0.855644 -1.057685,2.054913 -0.151076,2.622474 z"
                   id="use19" />
              </mask>
              <path
                 d="m 27.775063,13.485848 c -1.070584,0.96973 -2.566851,1.448993 -3.984065,1.449743 -1.634064,1.332414 -4.044697,2.553234 -6.407243,2.931117 -2.375312,0.377882 -4.268444,0.150836 -5.750062,-0.689233 -0.51364,-0.329552 -1.018205,-0.500306 -1.536352,-0.577399 -0.2484888,-0.006 -1.3298804,0.120814 -1.5504264,0.133145 -0.1638484,0.777799 -0.6737842,1.541526 -1.5920564,2.254563 -1.9384178,1.483116 -4.6563186,1.901851 -6.1122837,0.949813 -1.43539362,-0.952039 -0.98676321,-2.872064 0.9649142,-4.35518 1.2553487,-0.96973 2.8614551,-1.477514 4.1711124,-1.43953 L 16.287807,5.443839 c -0.215562,-0.9506709 0.218934,-2.154175 1.26632,-3.1239049 1.570151,-1.48311634 3.835246,-1.92015951 5.223835,-0.9681214 1.409161,0.9520381 1.334185,2.8720637 -0.222778,4.35518 -1.069563,0.9982514 -2.496228,1.4775139 -3.743132,1.4395299 l -7.310047,6.3032444 c 1.152554,0.0401 2.200834,0.418226 3.339966,1.103733 0.71984,0.41088 1.63008,0.538664 2.822028,0.344616 1.159542,-0.212356 2.148814,-0.628222 2.968527,-1.294429 l 0.457424,-0.399301 c -0.261317,-0.950671 0.158548,-2.154175 1.237802,-3.123905 1.618893,-1.4831162 4.04118,-1.9018509 5.547169,-0.9498128 1.52656,0.9520378 1.505775,2.8720638 -0.09986,4.3551798 z M 21.744792,2.4437238 c -0.805598,-0.5492527 -2.275693,-0.2837136 -3.18467,0.5719304 -0.921749,0.8556441 -1.034291,2.0732213 -0.224087,2.622474 0.817051,0.5492528 2.335889,0.2837137 3.253032,-0.5719304 0.904371,-0.855644 0.995369,-2.0549128 0.155725,-2.622474 z M 2.3175941,18.872089 c 0.8361346,0.549253 2.4771976,0.293927 3.6574085,-0.57193 1.1019171,-0.855644 1.3203842,-2.073221 0.4888559,-2.622474 -0.8246813,-0.549253 -2.4825222,-0.283714 -3.5890457,0.57193 -1.1192959,0.855644 -1.4140314,2.054913 -0.5572187,2.622474 z M 23.23931,13.380367 c 0.884325,0.549253 2.485874,0.283714 3.431177,-0.571931 0.932532,-0.855644 0.962433,-2.073221 0.08271,-2.622473 -0.872872,-0.5492532 -2.425677,-0.2837141 -3.362815,0.57193 -0.94991,0.855644 -1.057685,2.054913 -0.151076,2.622474 z"
                 id="Mask"
                 style="fill:#384f57;fill-rule:nonzero;stroke:#394d54" />
            </g>
          </g>
          <polygon
             id="polygon20"
             stroke="#394d54"
             stroke-width="1.87181"
             stroke-linejoin="round"
             fill="#20c2ef"
             fill-rule="nonzero"
             points="143.87589,29.678876 82.937947,7.1054274e-15 22,29.678876 82.937947,62.218332 " />
          <polygon
             id="polygon21"
             fill="#20c2ef"
             fill-rule="nonzero"
             opacity="0.3"
             points="27.535019,31.311344 25,29.994059 82.782715,0.34146341 140.57355,29.939299 138.09541,31.344809 82.782715,3.0094974 " />
        </g>
        <g
           id="Group-2"
           transform="translate(83,32)"
           fill-rule="nonzero">
          <polygon
             id="polygon22"
             stroke="#394d54"
             stroke-width="1.87181"
             stroke-linejoin="round"
             fill="#20c2ef"
             points="60.937947,0 0,32.258107 0,108.37004 60.937947,74.348485 " />
          <polygon
             id="polygon23"
             stroke="#394d54"
             stroke-width="0.935907"
             stroke-linejoin="round"
             fill="#0eacd1"
             points="50.179844,71.093261 50.179844,17 43,21.01721 43,75.101869 " />
          <polygon
             id="polygon24"
             stroke="#394d54"
             stroke-width="0.935907"
             stroke-linejoin="round"
             fill="#0eacd1"
             points="36.179844,78.093261 36.179844,24 29,28.01721 29,82.101869 " />
          <polygon
             id="polygon25"
             stroke="#394d54"
             stroke-width="0.935907"
             stroke-linejoin="round"
             fill="#0eacd1"
             points="21.182553,87.093261 21.182553,33 14,37.01721 14,91.101869 " />
          <polygon
             id="polygon26"
             fill="#000000"
             opacity="0.12"
             points="49.814834,18 49.814834,70.441646 47.83232,71.554192 47.826903,21.518284 44,23.425097 44,21.222943 " />
          <polygon
             id="polygon28"
             fill="#000000"
             opacity="0.12"
             points="34.844626,26 34.844626,78.507596 32.927112,79.536988 32.921695,29.564162 29,31.516853 29,29.288893 " />
          <polygon
             id="polygon30"
             fill="#000000"
             opacity="0.12"
             points="15,37.288893 20.831084,34 20.831084,86.490392 18.918987,87.528386 18.91357,37.572765 18.91357,37.575632 15,39.525455 " />
        </g>
      </g>
    </g>
  </g>
</svg>
