<?xml version="1.0" encoding="UTF-8" standalone="no"?>
<svg
   xml:space="preserve"
   enable-background="new 0 0 212.118 65.883"
   viewBox="0 0 482.78882 120"
   height="120"
   width="482.78882"
   y="0px"
   x="0px"
   id="Layer_1"
   version="1.1"
   xmlns="http://www.w3.org/2000/svg"
   xmlns:svg="http://www.w3.org/2000/svg"
   xmlns:rdf="http://www.w3.org/1999/02/22-rdf-syntax-ns#"
   xmlns:cc="http://creativecommons.org/ns#"
   xmlns:dc="http://purl.org/dc/elements/1.1/"><metadata
     id="metadata35"><rdf:RDF><cc:Work
         rdf:about=""><dc:format>image/svg+xml</dc:format><dc:type
           rdf:resource="http://purl.org/dc/dcmitype/StillImage" /></cc:Work></rdf:RDF></metadata><defs
     id="defs33"><marker
       style="overflow:visible"
       id="DistanceEnd"
       refX="0"
       refY="0"
       orient="auto"><g
         id="g2301"
         style="fill:#000000;fill-opacity:1;stroke:#000000;stroke-opacity:1"><path
           style="fill:#000000;fill-opacity:1;stroke:#000000;stroke-width:1.15;stroke-linecap:square;stroke-opacity:1"
           d="M 0,0 H -2"
           id="path2316" /><path
           style="fill:#000000;fill-opacity:1;fill-rule:evenodd;stroke:#000000;stroke-opacity:1"
           d="m 0,0 -13,4 4,-4 -4,-4 z"
           id="path2312" /><path
           style="fill:#000000;fill-opacity:1;stroke:#000000;stroke-width:1;stroke-linecap:square;stroke-opacity:1"
           d="M 0,-4 V 40"
           id="path2314" /></g></marker><marker
       style="overflow:visible"
       id="DistanceStart"
       refX="0"
       refY="0"
       orient="auto"><g
         id="g2300"
         style="fill:#000000;fill-opacity:1;stroke:#000000;stroke-opacity:1"><path
           style="fill:#000000;fill-opacity:1;stroke:#000000;stroke-width:1.15;stroke-linecap:square;stroke-opacity:1"
           d="M 0,0 H 2"
           id="path2306" /><path
           style="fill:#000000;fill-opacity:1;fill-rule:evenodd;stroke:#000000;stroke-opacity:1"
           d="M 0,0 13,4 9,0 13,-4 Z"
           id="path2302" /><path
           style="fill:#000000;fill-opacity:1;stroke:#000000;stroke-width:1;stroke-linecap:square;stroke-opacity:1"
           d="M 0,-4 V 40"
           id="path2304" /></g></marker></defs><g
     id="layer1"
     transform="translate(0,10)"><g
       id="g2"><rect
         style="fill:#ffffff;fill-opacity:0;stroke-width:2.97328"
         id="rect1"
         width="120"
         height="120"
         x="0"
         y="-10" /><g
         id="g1"><circle
           stroke-miterlimit="10"
           cx="64.882332"
           cy="74.791245"
           r="19.925436"
           id="circle23"
           style="display:inline;fill:none;stroke:#579aca;stroke-width:10.0936;stroke-miterlimit:10"
           transform="translate(0.46509649,-4.8898232)" /><path
           d="M 48.991332,47.018559 A 19.925436,19.925436 0 0 1 49.10717,22.825382"
           stroke-miterlimit="10"
           id="circle4262"
           style="display:inline;fill:none;stroke:#f5a252;stroke-width:10.0936;stroke-miterlimit:10;stroke-opacity:1"
           transform="translate(0.46509649,-4.8898232)" /><circle
           stroke-miterlimit="10"
           cx="44.972252"
           cy="55.111023"
           r="19.925436"
           id="circle4138"
           style="display:inline;fill:none;stroke:#e66581;stroke-width:10.0936;stroke-miterlimit:10;stroke-opacity:1"
           transform="translate(0.46509649,-4.8898232)" /><circle
           style="display:inline;fill:none;stroke:#f5a252;stroke-width:10.0936;stroke-miterlimit:10;stroke-opacity:1"
           id="circle3361"
           r="19.925436"
           cy="34.99778"
           cx="64.882332"
           stroke-miterlimit="10"
           transform="translate(0.46509649,-4.8898232)" /><path
           d="m 52.058359,59.54104 a 19.925436,19.925436 0 0 1 27.719618,2.016054"
           style="display:inline;fill:none;stroke:#579aca;stroke-width:10.0936;stroke-miterlimit:10"
           id="circle4260"
           stroke-miterlimit="10"
           transform="translate(0.46509649,-4.8898232)" /></g></g><path
       style="font-size:124.827px;font-family:'Myriad Pro';-inkscape-font-specification:'Myriad Pro';fill:#4e4e4e;stroke-width:3.12067"
       d="m 150.49952,78.348506 c 0,5.367561 -0.24966,11.484084 -0.49931,15.603375 h 9.36202 l 0.62414,-9.861333 h 0.24965 c 4.6186,7.864101 11.60891,11.23443 20.34681,11.23443 13.48131,0 27.21228,-10.735122 27.21228,-32.330193 0,-18.224743 -10.48547,-30.707443 -25.58953,-30.707443 -9.73651,0 -16.72682,4.244118 -20.59646,10.984776 h -0.24965 V 5.3247089 H 150.49952 Z M 161.35947,59.00032 c 0,-1.747578 0.24965,-3.245502 0.62413,-4.618599 2.24689,-8.238582 9.2372,-13.481316 16.60199,-13.481316 11.85857,0 18.09992,10.360641 18.09992,22.468861 0,13.855797 -6.74066,23.217822 -18.34957,23.217822 -7.98893,0 -14.47993,-5.242734 -16.47717,-12.857181 -0.37448,-1.24827 -0.4993,-2.621367 -0.4993,-3.994464 z m 71.15142,34.951561 V 33.535612 H 221.52611 V 93.951881 Z M 227.0185,9.6936541 c -4.11929,0 -6.86548,3.1206749 -6.86548,6.8654849 0,3.74481 2.62136,6.740658 6.61583,6.740658 4.36894,0 6.99031,-2.995848 6.99031,-6.740658 0,-3.869637 -2.74619,-6.8654849 -6.74066,-6.8654849 z m 23.71704,84.2582269 h 10.98478 V 57.627223 c 0,-1.872405 0.24965,-3.74481 0.74896,-5.117907 1.99723,-6.116523 7.61445,-11.23443 14.72958,-11.23443 10.36065,0 13.98063,8.113755 13.98063,17.850261 v 34.826734 h 10.98478 V 58.001704 c 0,-20.721282 -12.98201,-25.714362 -21.34542,-25.714362 -9.98616,0 -16.97647,5.617215 -19.97232,11.23443 h -0.24966 l -0.62413,-9.98616 h -9.73651 c 0.37448,4.99308 0.49931,9.98616 0.49931,16.352337 z M 361.20747,5.3247089 V 41.399713 h -0.24965 c -2.74619,-4.743426 -8.86272,-9.112371 -18.22474,-9.112371 -14.60476,0 -27.21229,12.233046 -27.08746,32.330194 0,18.349569 11.35925,30.707442 25.96401,30.707442 9.86134,0 17.1013,-5.117907 20.34681,-11.858565 h 0.37448 l 0.4993,10.485468 h 9.73651 C 372.31708,89.83259 372.06742,83.716067 372.06742,78.348506 V 5.3247089 Z m 0,63.2872911 c 0,1.747578 -0.12482,3.245502 -0.4993,4.743426 -1.99724,8.113755 -8.73789,13.106835 -16.10269,13.106835 -11.73374,0 -17.85026,-10.110987 -17.85026,-22.344033 0,-13.231663 6.74066,-23.217823 18.09992,-23.217823 8.23858,0 14.23027,5.742042 15.85303,12.607527 0.37448,1.373097 0.4993,3.245502 0.4993,4.618599 z m 77.76713,-2.871021 c 0.24965,-1.24827 0.37448,-2.871021 0.37448,-5.117908 0,-11.109603 -5.11791,-28.335729 -24.9654,-28.335729 -17.60061,0 -28.33573,14.230278 -28.33573,32.455021 0,18.224742 11.1096,30.582615 29.70882,30.582615 9.61168,0 16.35234,-2.122059 20.22198,-3.869637 l -1.99723,-7.864101 c -3.99447,1.747578 -8.86272,3.120675 -16.72682,3.120675 -11.10961,0 -20.47163,-6.116523 -20.72129,-20.970936 z m -42.31636,-7.864102 c 0.87379,-7.614447 5.61722,-17.725434 16.85165,-17.725434 12.35787,0 15.35372,10.859949 15.22889,17.725434 z m 56.2969,36.075004 h 10.98478 V 61.746515 c 0,-1.747579 0.12483,-3.619984 0.37448,-5.117908 1.49793,-8.238582 6.99031,-13.980624 14.72959,-13.980624 1.49792,0 2.62137,0 3.74481,0.249654 V 32.536996 c -0.99862,-0.124827 -1.87241,-0.249654 -2.99585,-0.249654 -7.36479,0 -14.10545,5.117907 -16.85165,13.231662 h -0.37448 l -0.4993,-11.983392 h -9.61168 c 0.37448,5.617215 0.4993,11.733738 0.4993,18.848877 z"
       id="text2"
       aria-label="binder" /></g></svg>
