<svg xmlns="http://www.w3.org/2000/svg" viewBox="0 0 1024 1024"><defs><style>.cls-1{fill:#c6ddef;}</style></defs><title>mb-panel-b-1</title><g id="Ebene_2" data-name="Ebene 2"><path class="cls-1" d="M480.86,633.18c1.52-3.85.09-7.7-.15-11.52-.23-3.65-1-7.26-1.63-11.31a44.36,44.36,0,0,1,4.39,1.7c7.35,3.87,14.6,7.92,22,11.68a87.5,87.5,0,0,0,10.8,4.44c2,.7,5.5,1.8,6.11,1,2.24-2.91,3.47-.85,5.19.6l2-3.72c.62.51,1.31,1.15,2.07,1.69,1.94,1.38,4,1.47,6.4,1.28,3.36-.27,6.28-1.92,6.57-5.17.38-4.31.4-8.65.7-13,.17-2.51.58-5,.91-7.76,2.35,2.67,4.32,5,6.37,7.23,3.36,3.69,6,8.15,11.4,9.51,5.68,1.46,10.82,5.28,17.33,2.88,3.3-1.22,6.11-2.44,7.87-5.65,2.32-4.24,3.09-8.79,3.33-13.55.15-3,1.17-6,1.11-8.95-.11-5.25-.81-10.47-1.11-15.72a8.1,8.1,0,0,1,.88-3.51c1.37-3.1-.73-8.64-3.71-8.88-3.67-.3-7.39-.07-11.4-.07-.58,6.31-1.22,12.28-1.64,18.27-.38,5.38-.23,10.81-.87,16.16-.35,2.82-1.9,5.5-2.95,8.36-3.13-2.27-6.34-3.61-8-6-3.74-5.4-6.62-11.4-10.06-17-1.57-2.56-3.25-5.43-5.64-7s-2.53-3.29-2.63-5.62c-.09-2-.15-4.44-1.24-6-1.81-2.55-9.87-3.38-12.72-1.81-1.43.79-2.59,1.58-2.67,3.72-.21,5.69-.9,11.36-1.28,17-.65,9.55-1.21,19.1-1.78,28.65-.07,1.1,0,2.22,0,3.79l-22.6-11c1.63-1,2.51-1.52,3.28-2.12,2.78-2.16,5.92-4,8.16-6.64a31.91,31.91,0,0,0,5.27-9.14c2.43-6.13,2.37-12,1-18.16a22.11,22.11,0,0,0-7.1-12.14c-3.09-2.67-6.17-6-9.86-7.18-4.89-1.61-10.16-3.19-15.63-1.59-5.11,1.5-10.26,3.11-13.78,7.18-2.57,3-4.15,6.83-6.2,10.28-1,1.71-1.34,3.7-4.29,3.8-3.49.12-5.81,4.88-4.47,8.13.25.61,1.05,1.09,1.12,1.68.5,4.68,1.09,9.36,1.25,14.06.22,6.27,0,12.56.12,18.84,0,2.88.38,5.75.58,8.62l-.64,0c-1-1.33-2.08-2.64-3.09-4-2.4-3.21-5.1-6.25-7-9.72-1.16-2.08-3.91-3.67-2.16-7.26,1.88-3.87-.28-6.48-4.58-7.68a5.16,5.16,0,0,1-2.79-3.12c-2.71-8.5-6.11-16.67-11.22-24-1.37-2-3.66-2.72-6-3.7-3.95-1.64-7.13.61-10.65.44a2.88,2.88,0,0,0-2,1.36c-3.52,5.74-7,11.49-10.37,17.32-1.71,3-3,6.13-4.7,9.12-1.29,2.35-3,4.5-4.23,6.86-1.82,3.38-3.37,6.89-8.13,6.78a4.63,4.63,0,0,0-2.85,1.08A24.56,24.56,0,0,1,373,611.88a30.85,30.85,0,0,0-9.55,4.27,8,8,0,0,1-7.18,1.07c-1-.35-1.17-3.32-1.58-5.14a4.59,4.59,0,0,1,0-2.52c.87-2.26-.56-5.57,2.74-6.72a31.61,31.61,0,0,1,7.45-2A68.69,68.69,0,0,0,388.45,595c1.29-.6,3-2.26,2.95-3.31-.13-1.68-1.35-3.49-2.54-4.86-2.53-2.88-6.23-1.74-9.29-1.72-5.08,0-10.14,1.18-15.22,1.68-1.89.18-4.3,2.63-5.53.17-.81-1.64.23-4.24.57-6.38s.13-4.87,3.55-5.24c3.08-.33,6.12-1,9.17-1.56a68.08,68.08,0,0,1,7.52-1.51c3.76-.29,7.56-.13,11.34-.2,1.5,0,2.71-2.35,1.67-3.48-1.64-1.78-3.62-3.23-5.34-4.93s-4.46-1.46-6.45-2c-4.39-1.11-9.26-.26-13.92-.4a67.16,67.16,0,0,0-23.42,3.64c-6.3,2.1-7,4.15-2.53,9.2.65.74,1.56,1.77,1.47,2.57-.45,4.35-1.12,8.67-1.9,13a2.53,2.53,0,0,1-1.9,1.52c-2.21,0-4,.82-4.27,2.88-.35,2.29.24,4.55,2.82,5.73.63.28.94,1.29,1.39,2-.8.33-1.73,1.11-2.37.92-5.2-1.55-9.68,1.22-14.2,2.65-3.06,1-5.41,4-8.25,5.87-6.76,4.42-13.46,9-20.53,12.87-3.88,2.13-7.76-.91-7.36-5.43a98.32,98.32,0,0,1,2.2-14,186.23,186.23,0,0,1,5.51-20c1.42-4,1.55-8.64,5.13-11.89,1.06-1,1.94-3.28,1.52-4.52-.93-2.81-2.49-5.5-6.22-5.67a45.08,45.08,0,0,1-6.39-1c-2.56-.49-3.9,1.13-4.92,3-.52.93-.19,2.3-.58,3.35-1.26,3.37-2.9,6.62-4,10-1.88,6-3.61,12.07-5.06,18.19-.82,3.43-.21,7.35-1.57,10.48-2.45,5.68-1.88,11.25-.95,16.91a11,11,0,0,0,2.41,4.9c1.45,1.76,2.29,3.83,4.55,5.32,1.56,1,3.18,2.79,5.12,3.81,5.48,2.91,11.3,2.3,16.78.62,4.34-1.32,8.4-3.76,12.36-6.09a138.92,138.92,0,0,0,12.64-8.44c3.57-2.67,6.77-5.82,10.24-8.64,1-.79,2-1.18,2.81.76,2.06,5.14,5.38,9.13,9.66,12.95,5,4.43,9.75,3.73,15.07,2.72,3.32-.62,6.6-2.11,9.7-2.71,4.09-.79,6.59-3.73,10.48-4.54.41.46,1.08,1.23,1.78,2,2.37,2.53,5.53,1.82,8.47,2.27,2,.3,3.3,0,4.32-1.42,1.14-1.58,1.62-3.92,3.07-4.93,2.08-1.44,1.12-6.27,5.88-4.93,1.24.35,3.68-1.66,4.79-3.16,2.69-3.64,5.55-6.74,10.29-7.44,2.18-.32,4.35-.81,6.54-1,2.77-.24,6.25-2,7.06,2.83,0,.26.41.47.63.7,3.82,4.2,5.24,10.13,10.43,13.48,2.31,1.48,3.36,4.79,5.33,7,2.73,3,6.77,3.39,10.45,3.63,1.42.1,3-2.16,4.56-3.39.82,1,1.78,2.12,2.65,3.29,2.31,3.12,8.5,3.93,11.35,1.44A3.41,3.41,0,0,0,480.86,633.18ZM488.78,568c2.38-2.12,5.65-3.31,8.63-4.64.54-.24,1.69.89,2.57,1.37,5.92,3.2,7,8.56,5.59,14.36-.59,2.51.5,5.14-1.58,7.66-4.14,5-8.09,10-15.26,10.09-2.63,0-5.29-.86-7.88-1.55-.63-.17-1-1.22-1.33-1.6C481.47,584.32,481.33,574.66,488.78,568Zm-72.1,24.23,6.52-9.58,4.09,9.58Z"/><path class="cls-1" d="M518.75,445.13c-5,10.29-7.42,21.46-10.32,32.46a51.61,51.61,0,0,1-2.07,5.42,32,32,0,0,1-2.58-10.18c-.23-5,.29-10.07.2-15.1s-.37-10.17-.89-15.22a46.38,46.38,0,0,0-1.91-8,27,27,0,0,0-1.63-3.61c-.3-.66-.56-1.88-.89-1.89-3.25-.17-7-1.19-9.68.06-5.79,2.72-6.82,9.12-8.47,14.61-2.55,8.49-5.28,16.87-10.43,24.2-.75,1.07-1.79,2.22-3.62.83a21.36,21.36,0,0,1-7.3-8.81c-2-4.55-5.32-8.5-7.81-12.86-1.49-2.6-4.26-4.32-4.64-7.71a11.71,11.71,0,0,0-2.21-5.51c-2.94-3.94-6.9-2.34-10.57-1.3-3,.87-4.23,3.6-3.8,6.64,1.07,7.73,2.74,15.5,2.62,23.24a173.44,173.44,0,0,0,1.84,31.08c1,5.92,2.4,11.95,9.41,13.83,1.78.48,4.1.93,5.55.18a6.49,6.49,0,0,0,3.4-6.89c-.18-1.44-.51-2.88-.55-4.32-.08-3.52,0-7,0-10.56-.05-2.82-.25-5.64-.39-8.7,2.13,1.48,3.77,3.06,5.72,3.86,3.31,1.36,6.83,2.18,10.25,3.29,4.12,1.34,10.29-.86,12.9-4.5,2-2.74,4.11-5.34,6.13-7.94.91,4,1.56,7.94,2.7,11.7,1.88,6.15,4.41,12.05,9.39,16.43,1.34,1.19,3.71,1.53,4.54,2.9,1.8,3,4.58,3.58,7.49,4.4a6.4,6.4,0,0,0,8.26-7.07,10.55,10.55,0,0,1,.51-4.65c1.13-3.53,2.51-7,3.75-10.38,4.83-1.14,9.61-2.67,14.51-3.3a91.57,91.57,0,0,1,14.35-.33c1.45,0,3.66.75,4.16,1.79a50.44,50.44,0,0,1,4.09,11.34c.88,4.25,4.23,5.55,7.18,7.46a2.14,2.14,0,0,0,1.9.13c2.14-1.35,4.18-2.85,6.26-4.31.29-.47,1-.37,1.66-.13,7.36,2.68,14.52,6.43,22.78,4.31,1.3-.34,2.56-.85,3.87-1.16,3.52-.82,7.22-1.16,10.53-2.47,2.77-1.1,5.05-3.36,7.61-5,2.84-1.83,5.76-3.55,8.24-5.07,1.33,2.24,3.17,4.28,3.81,6.64,1.11,4.06,4.58,5.54,7.4,7.55,1.5,1.07,3.91,2.37,6,.53,1.47-1.26,2.86-2.61,4.5-4.12-1.54-1.75,1.21-6.16-3.8-6.26-.19,0-.46-.66-.55-1-1.49-6.12-2.68-12.27-1.66-18.91,4.79,0,9.58-.05,14.36.06a2.39,2.39,0,0,1,1.81,1.3,19.35,19.35,0,0,1,.74,4.3c.4,4,1.07,7.92,3.69,11.23,2.25,2.84,3.07,7.17,7.8,7.33,1.64.05,3.28,0,4.8,0,.44-2.84,2.49-4.56,2.08-7.94-.48-4-2.14-7.6-2.56-11.56-.26-2.5-.53-4.41,1.32-6.29.51-.51,1-1.81.69-2.26-3.05-4.79-.57-10-1.15-14.93a11.67,11.67,0,0,1,.83-5.85c2.2-4.88.79-9.14-1.67-13.31-1.26-2.13-5.49-2.88-7.66-1.85-4.78,2.29-5,7.22-6.05,11.22-1.48,5.46-1.65,11.28-2.36,16.88l-16.45-2.55c.34-5.93.63-11.74,1-17.54.22-3.12.56-6.24,1-9.34,1-6.46-4.78-9.12-10-7.86-2.46.6-5.16,1.46-5.42,5.23-.55,7.92-1.56,15.81-2.48,23.7-.26,2.15-.26,4.79-1.49,6.28-2.39,2.89-3.34,6.15-.79,9,3.52,3.92,1.31,8,1.45,11.42-2.53.39-4.54.53-6.45,1-4.19,1.09-8.5,2-12.48,3.64-6,2.54-12.2,4.53-18.74,3.89-8.07-.78-11.84-7.2-9.56-14.55a62.48,62.48,0,0,1,4.46-10.8,80.17,80.17,0,0,1,7.05-10.9c2.32-3.05,5.43-5.51,7.71-8.58,1.65-2.25,3.9-3.69,6-2.69s3.64,3.49,4.89,5.64c1.12,1.92,1.5,4.27,2.21,6.43l1.13.37c1.67-1.8,4.24-3.35,4.83-5.45,1.31-4.7,1.44-9.74-1.85-13.9-2.05-2.6-3.89-5.81-8.1-5.49-3.19.25-6.66-.46-9.53.56a51.89,51.89,0,0,0-13.11,6.81c-3.32,2.44-6,5.93-8.47,9.31a136.46,136.46,0,0,0-9,14c-2,3.62-3.35,7.61-5.18,11.87-3.18-4.79-6.29-9.12-9-13.67s-5.18-9.47-7.84-14.16c-1-1.8-2.41-3.39-3.49-5.16-3.77-6.22-14.65-8.4-19.64-3.34C522.84,437.25,520.64,441.25,518.75,445.13Zm15.85,4.55c4.1,6.51,7.91,12.57,11.79,18.75h-18C530.52,462.05,532.42,456.28,534.6,449.68Z"/><path class="cls-1" d="M837.36,427.61c-10,1.35-19.9,1.5-29.9,1.82-7,.22-13.9,1.4-20.81,2.43-4.09.61-5.4,3.77-4.07,7.64,1,2.87,3.83,2.93,5.6,4.53a2.94,2.94,0,0,1,.91,2.22c-.78,4.5-1.68,9-2.65,13.44-.57,2.62-.43,5.66-4,6.66-.6.17-.79,1.78-1.18,2.73-1.1,2.72-.43,5,1.42,7.22a3.68,3.68,0,0,1,.57,2.34c-.14,3.78-.43,7.55-.58,11.33a17.7,17.7,0,0,0,5.48,13.17c5.61,5.76,12.92,7.62,20.84,6.34a18.5,18.5,0,0,0,10.29-4.75c2.51-2.42,5.34-4.52,8-6.84s5.41-5.08,8.21-7.51a4.19,4.19,0,0,0,1.45-2.95q-.66-2.61-1.08-5.3a7.57,7.57,0,0,0-7-1.9c-3.77,1.18-5.54,4.9-9.5,6.16-3.74,1.18-6.7,4.72-10.1,7.09-3.75,2.6-8.41,2-9.94-1.44-.59-1.32-.1-3.14-.09-4.73,0-5.26-.46-10.64,2.91-15a28.6,28.6,0,0,0,3.84-.91c4.58-1.78,9.29-3.35,13.61-5.66,1.83-1,4.53-2.63,3.8-5.65-1.07-4.45-5.08-6.58-9.71-5.51-3.39.78-6.81,1.44-10.66,2.25a23.32,23.32,0,0,1,.39-4.57,31.63,31.63,0,0,1,2.64-7,5,5,0,0,1,3.54-2.36c6.13,0,12.16,0,18.25-1.29,3.85-.83,7.92-.65,11.92-.8a58.27,58.27,0,0,1-.89-7.88,35.52,35.52,0,0,1,.19-5.53C838.49,427.48,837.92,427.53,837.36,427.61Z"/><path class="cls-1" d="M177.88,363.78c1.7,3.43,5.17,4.25,8.06,5.91a14.51,14.51,0,0,0,5.71,2.11c6.78.55,13.19-1.37,19.14-4.39,6.3-3.21,10.69-8.55,14-14.74,1.76-3.32,3.22-6.81,4.74-10.06.53,2,1,4.09,1.65,6.11,1.16,3.38,1.57,7.67,3.91,9.86,6.29,5.9,12.74,12.75,23,8.92a3.7,3.7,0,0,1,.95,0c6.31-.42,11.14-3.61,15.11-8.27,2.45-2.89,4.73-5.92,7.12-8.86.83-1,2-1.83,2.63-3,2.16-3.91,4.14-7.81,4.15-12.56,0-5.55,1.47-11.19.85-16.63-.85-7.47-2.73-14.91-7.35-21.21-2.47-3.36-5.24-6.45-9.27-8.05-4.29-1.71-8.71-3.17-12.82-5.25s-7.73-.88-10.9,1.17c-7.75,5-10.18,13.64-13.49,21.51-1.49,3.55-1.89,7.56-3,12.32a38.75,38.75,0,0,0-1-5.06c-1.82-5.12-3.17-10.52-5.83-15.17-2.55-4.45-6.81-7.88-9.77-12.14-3.6-5.2-9.09-7.7-14.4-9.76a45,45,0,0,0-22.38-2.76c-6.75.93-13,3.24-18.24,7.86-.87.78-1.21,2.17-2.1,2.9a20.51,20.51,0,0,0-5,26.29c1,1.79,3,3,4.45,4.59s4.76,2.34,6.49,1.16c2-1.35,2.32-4.09.84-6.6-1.38-2.34-.81-10.39,1.07-12.46,4.25-4.69,8.72-8.93,15.5-9.85,4.36-.59,8.36.17,12.53,1.25A25.93,25.93,0,0,1,208.81,299c4,5.33,5.94,11.78,7.58,18.19a20.4,20.4,0,0,1,.41,7.47A72.47,72.47,0,0,1,214.47,336c-1.37,4.7-2.06,9.77-6.08,13.38-1.27-2.74-2.63-5.45-3.77-8.24-1.27-3.12-2.41-6.3-3.49-9.49-2.31-6.86-4.51-13.75-6.83-20.61-1.35-4-3.36-7.8-4.15-11.87s-3.51-5.73-6.77-6.19c-6.82-1-11.2,2.42-9.3,8.64,2.55,8.34,5.79,16.46,8.73,24.68,1.22,3.41,2.22,6.92,3.68,10.22,2.64,6,5.55,11.85,8.35,17.77.71,1.5.87,3.66,3.67,2.56-4.45,2.29-5,2.19-6.07-.4-1.73-.56-3.89-.58-4.46-1.55-3.33-5.57-6.15-11.39-7.34-17.91-.23-1.26-1.8-2.45-3-3.3a43.19,43.19,0,0,0-5.25-2.66,6.45,6.45,0,0,0-1,2.22c-.54,3.83-.91,7.69-1.29,11.54a4.77,4.77,0,0,0,.25,2.09c1.07,2.86,2.19,5.66,3,8.65S176.48,361,177.88,363.78Zm68.67-26.36c.38-5.65.55-11.45,2-16.88,1.76-6.8,4.64-13.31,7.14-19.9.32-.83,1.24-1.42,1.88-2.12.13.34.27.68.4,1a11.31,11.31,0,0,0,2.84.4,8.44,8.44,0,0,1,9.26,6.71c1.3,5.53,3.34,11.06,3.5,16.63.14,4.74-.35,10-3.68,14.15-2.39,3-4.3,6.41-6.81,9.3a42.72,42.72,0,0,1-7.16,6.39c-2.06,1.5-5.4.34-7-1.77C245.77,347.08,246.23,342.19,246.55,337.42Z"/><path class="cls-1" d="M278.08,455.16a108.78,108.78,0,0,0-3.62-11.37c-1.67-4.6-4-9.2-8.86-10.63-3.93-1.16-8.46-1-12.6-.53-6.46.78-12.23,3.22-15.05,9.88-2.65,6.27-5.52,12.46-8,18.8-1.62,4.12-5-.19-7,1.7-.3.28-1.71-.37-2.38-.89-.34-.27-.18-1.19-.23-1.82-.23-3.16-.4-6.31-.71-9.46-.33-3.42-1-6.81-1.16-10.24-.33-6.42-.55-12.82-2.51-19.05-1.25-3.94-4.19-6.33-7.63-5.6-4.9,1.05-6.91,3.82-6.5,8.41.75,8.26,1.25,16.54,2,24.8.41,4.76,1,9.51,1.6,14.65H190.75c-.15-1.51-.28-3.46-.55-5.39-.78-5.68-1.85-11.34-2.37-17-.66-7.33-.88-14.7-1.35-22.05-.17-2.76-2.75-4.69-5.22-5.43-3.39-1-5.23,1-7.84,2.23-2.78,1.32-2.37,3.18-2.36,4.95,0,4.19.49,8.38.74,12.57.31,5.28.44,10.57.92,15.84.3,3.34,1.08,6.64,1.67,9.95,1,5.83,2.05,11.65,3.14,17.46.25,1.28.9,2.47,1.19,3.74.75,3.35.88,6.95,2.23,10,2.41,5.55,5.54,10.79,7.93,15.34,2.5,1.44,4.27,2.63,6.18,3.52,2.11,1,4.45,2.19,6.62.35A6.54,6.54,0,0,0,203,502.1c-1-1.75-2.4-3.3-3.11-5.14-2.18-5.65-4.12-11.4-6.15-17.1,3.95-3.33,8-3.28,12.12-3.41,1.58-.05,2.39,0,3.05,1.87a142.52,142.52,0,0,0,6.36,15.53c2.23,4.56,5,9,10.08,11,1.74.68,3.61,2,5.46-.11.29-.33,1.67-.05,2.3.33,4.94,3,10,5.38,16,4,2.43-.57,5.48-.28,7.2-1.68a90.35,90.35,0,0,0,12.21-12c8.16-9.76,10.38-21.39,9.63-33.79C278.07,459.43,278.57,457.18,278.08,455.16Zm-52.25,27.2-.6.24c-.81-2.88-1.62-5.75-2.49-8.86h3.89C226.36,476.6,226.1,479.48,225.83,482.36Zm36.33-12.56c-.91,8.08-5,14.79-10.1,20.87-1.46,1.75-3.71,2.94-5.77,4s-3.41-.55-3.55-2.25c-.31-3.62-.71-7.41,0-10.92a221.65,221.65,0,0,1,5.67-21.62,48,48,0,0,1,5-10.33c1.23-2,3.28-3.57,5-5.34l1.27.24c.4,1.74.84,3.48,1.18,5.23a69.57,69.57,0,0,1,1.53,8.88A64.44,64.44,0,0,1,262.16,469.8Z"/><path class="cls-1" d="M418.65,357c2.78,4.55,6,8.64,12.17,9.8,8.54,1.62,15.46-1.43,22-5.95,3.1-2.14,5.36-5.47,8.23-8,5.75-5.07,9.78-11.37,13.54-18.75.17,6.07,3.06,10.29,6.53,13.79,5.1,5.14,10.81,8.12,18.77,4.83,3.51-1.45,5.62-3.56,8.24-5.81s2.6-8.71,8.64-6.74a3.35,3.35,0,0,1,.58.31c-.41,4.13,3.64,4.21,5.68,6.13,2.51,2.36,5.59,2.08,8.77,1.61.47-1.28,1.75-3.18,1.29-3.84-1.62-2.29-1.1-5.92-4.55-7.13-.75-.26-1.14-1.73-1.56-2.7-1.35-3.1-1.73-6.34-2.18-9.72-.9-6.94.44-13.54,1.13-20.28a131.3,131.3,0,0,0,1-14.13c0-2.77-1.21-5.42-4.93-5.18a2.71,2.71,0,0,1-1.22-.23c-3.36-1.47-8.27.66-9,4.05-1.16,5.69-2.15,11.42-3.26,17.12a100.12,100.12,0,0,1-9.73,27.68c-1.21,2.3-3.49,4-5.68,6.46-2.23-4-2.87-7.42-2.35-10.83a145.39,145.39,0,0,1,3.17-15.2,107.4,107.4,0,0,1,4.17-11.89c1.26-3.13.86-4.9-1.91-6.85-2.05-1.45-4.1-1.32-6.57-1.14-4.31.31-6.64,1-8.36,4.53-.92,1.89-1.64,3.87-2.7,6.38a16.35,16.35,0,0,1-1.26-3.18c-1-6.87-4.52-11.77-11.27-13.71-2.65-.76-5.61-.39-8.42-.67-3.93-.37-7.81,1.75-11.74.15-.08,0-.2.07-.3.1a23.23,23.23,0,0,0-15.44,14.63q-3.77,10.31-7.22,20.71c-2.13,6.48-4.19,13-6,19.56A17.8,17.8,0,0,0,418.65,357Zm15.45-17.14c1.72-6.68,3.88-13.26,6.23-19.74A96.1,96.1,0,0,1,446,307.74c1.33-2.51,2.36-2.55,4.74-1l10.93-7.05c2.76,6.24,3.63,12.28,1.91,18.53-1.15,4.21-2,8.63-4,12.48-2.38,4.76-5,10-8.92,13.23-3.5,2.85-7,5.85-10.69,8.5-1.71,1.22-4.63.75-7.93,1.17C432.78,348.74,433,344.15,434.1,339.81Z"/><path class="cls-1" d="M687.66,357.2c1,1.82,8.41,5,10.15,4.22a8.1,8.1,0,0,0,4.31-9.13,28.83,28.83,0,0,1-.43-5.73c0-4.47,0-8.95.11-13.42a8.24,8.24,0,0,1,.91-2.24c1.12,1.66,1.88,3,2.85,4.21,4,4.93,7.62,10.35,14.06,12.63,1.38.49,2.66,1.27,4,1.85,1.61.68,3.3,1.92,4.87,1.8,4-.3,8-1.22,11.52-1.81,2,3.12,4.18,6.87,6.81,10.25.94,1.21,3.27,1.25,4.56,2.32,5,4.17,10.59,3.56,16,1.62a20.62,20.62,0,0,0,7.37-5.26,59.25,59.25,0,0,0,8.53-10.61c2.16-3.68,5.3-7,5.19-11.93-.06-2.78,1.58-5.56,1.73-8.38a169.51,169.51,0,0,0,0-17c-.16-3.45-.12-7.22-3.73-9.45-1.7-1-3.21-2.5-5-3.24a11.64,11.64,0,0,0-4.8-.45c-2.08.11-4.14.65-6.22.77s-4.34-.77-5.92,0c-5.84,2.92-11.27,6.49-14,12.93-.45,1.09-1.14,2.08-2.13,3.86-.32-5.69-.48-10.49-.94-15.25a5.91,5.91,0,0,0-1.82-3.85c-1.59-1.22-3.94-1.46-5.52-2.7-2.51-2-3.36-.88-3.81,1.48l-4,.27c0,3.07-.07,5.93,0,8.79.1,3.26.66,6.54.43,9.77A102.42,102.42,0,0,1,731,325.14c-.52,2.83-1.2,5.64-1.9,8.44-.55,2.17-2.07,2.79-3.69,1.34-3-2.66-6.59-5.16-8.27-8.55-3.4-6.86-5.54-14.35-8.55-21.42-.84-2-3.14-4.95-4.44-4.8-5.32.65-10.57-2.18-16,.2-2.12.93-2.94,1.59-3.13,3.82-.48,5.4-1.34,10.77-1.88,16.16-.53,5.23-1.45,10.51-1.1,15.7C682.56,343.35,683.94,350.62,687.66,357.2Zm77.19-39.78a20.85,20.85,0,0,1,4.28-4.7c2.64-2.05,5.28-.79,5.89,2.53,1.91,10.42-1,19.8-6.67,28.34-1.72,2.57-4.5,4.53-7,6.43-2,1.52-4.42.57-5.18-1.8a34.22,34.22,0,0,1-.82-4.33A53.65,53.65,0,0,1,764.85,317.42Z"/><path class="cls-1" d="M779.4,594.32a71.53,71.53,0,0,0-7-3.62,1.11,1.11,0,0,0-.63,0c-4.42.67-8.89,1.11-13.23,2.1-3.56.81-6.93,1.34-10.43-.15a10,10,0,0,0-3.64-.68c-4.71-.08-9.42,0-14.35,0,3.35-3.77,5-8.73,9-12.17s7.84-6.34,12.91-7.62c1.85-.47,3.08-.11,4,1.77a12.19,12.19,0,0,0,2.46,2.72c2.07-1.31,3.69-2.22,5.17-3.32a3.18,3.18,0,0,0,1-1.82c.8-4.09-.9-6.71-4.62-9a22,22,0,0,0-19.13-2.21,35.48,35.48,0,0,0-15.69,10.31c-.81.95-1,2.37-1.68,3.86-.74.41-2.39.87-3.3,2a44.69,44.69,0,0,0-4.72,7,122.69,122.69,0,0,0-6.81,13.31,38.35,38.35,0,0,0-2.46,10.85c-.39,4.64-1.14,9.7.23,13.94a33.68,33.68,0,0,0,10.79,15.89,20.69,20.69,0,0,0,14.15,4.74c5.09-.18,10.16-1.16,15.23-1.86.56-.07,1-.63,1.55-1,2.72-2,5.2-4.46,8.2-5.8,4.21-1.88,6.81-4.75,8.76-9.61a9.09,9.09,0,0,1,2.5,3.2c1.35,2.87,3.89,3.38,6.66,3.72,3.45.43,5.22-1.17,4.93-4.73-.23-2.76-1-5.6-.61-8.27.72-4.9,2.39-9.65,3.13-14.54C782.18,600.16,782.77,596.51,779.4,594.32Zm-26.79,18a24.34,24.34,0,0,1-4.35,7.43,37.56,37.56,0,0,1-8.27,6.5c-4.07,2.42-8.84,3.17-13.11,1.15-2.76-1.31-4.6-4.45-4.92-7.82a37.66,37.66,0,0,1,2.09-15.42c.11-.33.57-.55,1-.94,4.12,5.5,9.23,7.6,15.75,6.63,3.21-.48,6.49-.53,9.75-.71C753,609,753.07,611.23,752.61,612.35Z"/><path class="cls-1" d="M349.49,499.18a55.76,55.76,0,0,0,10.25-25c1.14-7.78.91-15.78,1.07-23.68a31,31,0,0,0-.94-7.78c-.8-3.37-2-6.64-3.07-10-.64-2-1.86-2.24-3.52-1.06l-.09-.88c-1.76-.42-4.7-1.64-5.08-1.1-1.3,1.89-4.14,3.13-3.49,6.15.35,1.62.65,3.25.92,4.88s1.28,3,0,4.91c-.72,1.09,0,3.19.21,4.83.06.55.58,1.11.5,1.6-.49,3.05-1.37,6.06-1.59,9.11a80.48,80.48,0,0,1-4.84,22.8c-.87,2.32-2.88,4.21-4.41,6.37-3.81-3.47-6.79-8.91-7.32-11.62-1.36-6.94-3.05-13.81-4.47-20.74-1.36-6.7-6.62-6.84-11.6-6.55-1.74.1-3.69,2.25-4.9,3.92a21.38,21.38,0,0,0-2.66,6.28c-1.59,5.21-3,10.48-4.51,15.71a13.54,13.54,0,0,1-1.53,2.46c-.68-6.76-1.35-12.61-1.81-18.48-.34-4.44-.57-8.91-.51-13.36.05-3.4.28-6.72-1.85-9.67-1.78-2.46-4.37-2-6.84-2a6,6,0,0,1-.95-.07,5.72,5.72,0,0,0-6.87,5.74c.1,5.37.35,10.74.54,16.11.3,8.6.64,17.22,3.27,25.49,2.27,7.09,6,13,13.77,15.25a10.51,10.51,0,0,0,11.25-3.66c1.77-2.5,3.33-5.14,5.48-8.51.25.63.43,1.14.65,1.64,2.05,4.82,5.57,8.45,9.41,11.88a22.34,22.34,0,0,0,12.6,5.45C341.83,506.18,346.39,503.39,349.49,499.18Z"/><path class="cls-1" d="M518.46,765.27c-4.06-1.86-8.29-3.37-12.45-5-1.84-.73-4.15-1-5.42-2.34-4-4.11-7.64-8.6-11.61-13.16,9.41-4.58,13-12.23,15.26-21a54.91,54.91,0,0,1,3.59-9.65c1.3-2.8,1-10.05-1-12.19,2.41-1,2.16-2.45.74-4.13a5.53,5.53,0,0,1-.82-1.16,14.94,14.94,0,0,0-17.91-8.12c-.59.17-1.24.13-1.83.28-1.88.47-4,.56-5.57,1.56-5.64,3.64-8.18,9.79-11.64,15.18-1.9,3-2.9,6.67-7.76,6.41-2.27-.12-3.93,1.65-3.78,4.41a13.33,13.33,0,0,1-.47,2.74c-1.11,6.66-3,13.3-3.09,20s1.4,13.25,2.65,19.79a17.18,17.18,0,0,0,8,11.25c2.43,1.55,5.38,2.16,7.79.26,2.19-1.73,1.85-4.29,1.46-7.05-.57-4.12-.15-8.37-.15-12.75.67.17,1.31.14,1.43.38,3.14,6,7.94,10.54,13.36,14.35,7.41,5.21,15.07,9.93,24.86,8.24a60.13,60.13,0,0,1,6.67-.48c-.35-1.74-.55-3.19-.95-4.6C519.51,767.32,519.25,765.63,518.46,765.27Zm-41.14-33.1c2-10.95,5.13-21,14.15-29C491.53,717.9,483.86,730.28,477.32,732.17Z"/><path class="cls-1" d="M398.48,701.77c-1.16-3-2.92-3.65-5.74-2.87l-1.56-2.29c-2.78.21-5.33,1-5.92,3.81a59.57,59.57,0,0,0-.88,10c-.09,2.8.34,5.62.18,8.4a45.64,45.64,0,0,1-5.13,18.55,31,31,0,0,1-3.86,6.3c-3.16,3.61-4.92,4.08-8.44.74A32.73,32.73,0,0,1,360.22,734c-2.74-6.19-6.16-11.14-13.59-11.25a21,21,0,0,0-6.64,1.42c-.62.2-.84,1.53-1.31,2.3-.64,1-1.35,2.07-2.46,3.77a9.94,9.94,0,0,1-.35-1.78c.62-6.41,1.17-12.82,1.94-19.21.38-3.18,1.58-6.3,1.66-9.46.06-2.43-.27-5.71-1.8-7.19a11.35,11.35,0,0,0-13.11-2.19,3.8,3.8,0,0,0-2,2.48c-.79,6.64-1.49,13.31-2,20-.27,3.93.23,7.93-.17,11.83-.79,7.67-1.34,15.22,3.5,21.91,1.34,1.86,3.08,3.43,4.5,5.23,3.08,3.91,9.23,4.88,13.07,1.76,2.63-2.13,5-4.6,7.29-6.77,3.13,2.9,6.67,6.09,10.1,9.38a15.06,15.06,0,0,0,8.38,4.44,60.07,60.07,0,0,0,6,.43,33.38,33.38,0,0,0,4.9,0c4.73-.51,8.62-3,11.76-6.27,2.55-2.66,5.23-5.81,6.24-9.21a145.67,145.67,0,0,0,4.1-20.57C401.4,717.15,401.36,709.38,398.48,701.77Z"/><path class="cls-1" d="M875.2,322.76a103.67,103.67,0,0,0-5.8-17.38,16.11,16.11,0,0,0-5.21-6.57c-1.9-1.37-4.72-1.45-7.13-2.12-3.22-.91-4.5,2.21-6.76,3,0,.41-.06.53,0,.61a7,7,0,0,0,.52,1.11c3.49,5.47,8.19,10.07,8.72,17.36.66,9.09-.18,17.23-7.07,24-3.51,3.43-4.53,2.25-6.63-.59a21.64,21.64,0,0,1-3.17-7.4c-.93-3.6-1.13-7.4-2-11-1.05-4.11-5.89-6.47-9.93-5.14-2.55.84-4.6,2-5.73,4.89a173.29,173.29,0,0,1-7.35,16.12c-1.3,2.5-2.36,5.5-5.69,6.76-.67-1.7-1.59-3.17-1.78-4.73-.43-3.53-.3-7.13-.75-10.66a60.53,60.53,0,0,1,1.79-23c2-7.65-1.16-12.38-8.24-11.87a5.66,5.66,0,0,0-5.5,4.67c-1.11,7.43-1.89,14.92-2.62,22.4a70.65,70.65,0,0,0-.31,10.49c.2,4.08.18,8.38,1.48,12.17,1.93,5.68,4.45,10.75,10.45,14.31,7.09,4.2,15.76,2.23,19.12-3.89,1.64-3,3.61-5.81,5.74-9.2,3.72,7.08,10.16,9.55,16.52,11.76,5.77,2,11.82.83,15.89-3.54,5.35-5.74,9.93-12.4,11.28-20.44C875.65,330.89,876,326.6,875.2,322.76Z"/><path class="cls-1" d="M611.37,363.64a14.3,14.3,0,0,0,9.47,3.35c3.15.1,5.31-1.41,5.62-4.49s1.75-6.61-2.93-7.9c-.19-.05-.3-.54-.37-.84-1-4.55-1.51-9.11-.28-13.64,1.65.19,3.06.71,4.3.44,7.67-1.67,14,1.43,20,5.49,3.58,2.42,6.76,5.42,10.24,8a27,27,0,0,0,5.4,3.14c2.26,1,4.69,1.54,7,2.32a5.11,5.11,0,0,0,6.26-2.29c.73-1.4-.12-4.28-1.23-5.78-1.38-1.85-3.77-3-5.71-4.39s-4.44-2.7-6-4.58c-3.33-4-7.5-6.65-11.88-9.16-2.62-1.51-5.18-3.11-6.86-4.12,5.61-6,11.08-11.95,16.71-17.76,4.44-4.58,8.51-9.38,11.38-15.16,2.2-4.44,2.29-7.34.12-9.87a7.27,7.27,0,0,0-7.42-2.38c-3.3.71-7.3.84-8.14,5.46a6.13,6.13,0,0,1-.85,1.95c-5.76,9.68-13.83,17.4-21.58,25.39-.81.84-1.34,2.07-2.29,2.63-2.9,1.74-5.94,3.24-9.53,5.16,0-3-.18-5.85,0-8.63.44-5.84,1.38-11.66,1.57-17.5.16-4.93-5.63-8.5-10.33-6.81-3.9,1.41-5.11,3.32-4.88,7.68a32.54,32.54,0,0,1,.07,3.56c-.51,8.54-1.21,17.07-1.56,25.61-.32,8-.6,16-.29,24C607.59,356.44,607.86,360.63,611.37,363.64Z"/><path class="cls-1" d="M739.88,480.13c2.32,5.15,6.51,8.67,11.17,11.33,2.71,1.54,6.46,2.74,9.37,2.16A13.16,13.16,0,0,0,771.14,483c1.29-6.2,2.26-12.47,3.19-18.73a87.47,87.47,0,0,0,1-10.94c.14-7.1,4.14-14,1.16-21.2a19.76,19.76,0,0,0-3.16-1c-2.25-.33-4.86-1.23-6.71-.45a8,8,0,0,0-4.22,5.11,194.09,194.09,0,0,0-2.62,23c-.27,5.87-2.16,11.07-4.31,16.53-.57-.3-.83-.34-.92-.5a54.66,54.66,0,0,1-7.81-21.57c-.48-3.06-.63-6.21-1.46-9.17a83.8,83.8,0,0,0-3.86-10.32,3.72,3.72,0,0,0-2.16-1.88,31.93,31.93,0,0,0-6.7-1.26c-4.27-.26-6.67,2.17-6.7,6.43,0,2.44.19,4.91-.07,7.33-.73,6.74-1.67,13.47-2.47,20.2-.53,4.47-.69,9-1.47,13.42a65.65,65.65,0,0,0,.23,25c.84,4.09,10.6,8.84,14.35,7.14.18-.09.3-.3.47-.42a9,9,0,0,0,2.12-12.14,4.46,4.46,0,0,1-1-1.95c-.37-5.45-.81-10.92,1-16.47A5.37,5.37,0,0,1,739.88,480.13Z"/><path class="cls-1" d="M359.31,303.72c.39,4.16.41,8.45,1.53,12.42,2.78,9.94,7.65,18.68,16.67,24.42,2,1.26,4.18,2.88,6.34,3,3.44.16,6.93-.82,10.45-1.32-.05-.26.08,0,0,.15-2.81,7.67-5.86,15.26-8.37,23-1.91,5.89-2.79,7.49,3.67,10.53A5.81,5.81,0,0,1,390.8,377c2.12,1.9,5.58,1.72,7-.64s3.14-4.69,3.37-7.18c.55-5.77,4.23-10.3,5.44-15.81.78-3.56,3-6.79,4.24-10.27,1.73-4.74,3.21-9.57,4.75-14.38,1.63-5.09,3.29-10.17,4.76-15.3a40.49,40.49,0,0,0,1.35-7.32c.4-4.3.49-8.62.82-12.92s-1-6.8-3.78-7.9c-4.23-1.69-7.57.85-11.19,2-.5.16-.83,1.15-1.05,1.82-.28.88-.24,1.87-.56,2.72-2.1,5.58-4.17,11.18-6.42,16.7-2,4.9-3.83,10-6.54,14.46-1.67,2.78-4.85,4.64-7.56,7.11-2.06-1.85-4.44-3.15-5.55-5.16a38.5,38.5,0,0,1-4.53-11.39c-1-5.64-1.13-11.46-1.39-17.22-.36-8.27-5.64-11.66-12.5-8a4.67,4.67,0,0,0-2.85,5C358.94,296.79,359,300.27,359.31,303.72Z"/><path class="cls-1" d="M583.52,755.22c-6.93-2.94-13.8-6-20.71-9-2.2-1-2.41-2-.88-4,5.46-7.15,11-14.25,15.92-21.77,2.49-3.82,6.1-7.56,3.1-13.41-1.62-3.18-4.07-3-6.26-4-5.06-2.18-9,.56-11.24,4.25-5,8.38-10,16.82-15.26,25A30.49,30.49,0,0,1,533,744.75c-.79-10.67,1.19-21,3.55-31.14a14.35,14.35,0,0,0-.66-9.28c-.91-2.2-2.79-2.11-4.63-2.34-.32,0-.56-.58-.87-.86-1.86-1.71-8-.67-8.88,1.6a28.75,28.75,0,0,0-1.35,5.43c-1.12,7.2-2.29,14.4-3.17,21.64a112.22,112.22,0,0,0-.71,13.09,31.08,31.08,0,0,0,4.39,15.67c3,5.27,6.53,9.44,13,9.15,1.9-.08,4.78-1.66,5.39-3.25,1.84-4.78,1.11-6.25-1.81-8.11a20.61,20.61,0,0,1-2.6-2.36l.7-.78c1.05.73,2.39,1.25,3.09,2.23a4.82,4.82,0,0,0,6.48,1.45c3.53-1.85,6.58-2.54,10,0a24.3,24.3,0,0,0,4.94,2.55,74.06,74.06,0,0,0,9.41,3.6,43.19,43.19,0,0,0,9.74,1.39c2.56.08,5.15-.65,7.87-1C587.72,757.2,587.53,756.91,583.52,755.22Z"/><path class="cls-1" d="M694.42,581.46c.17-.26-.42-.91-.49-1.41-.61-4.41-1.19-8.84,1.21-13a6.28,6.28,0,0,0,.42-5.2,4.44,4.44,0,0,0-3.64-3.53c-1.65-.46-2.8-1.74-5.07-.61-1,.51-3.12.16-4.1,1.54s-2.07,3-2.19,4.52c-.8,10.55-1.2,21.15-2.09,31.7-.33,3.8-1.57,7.55-2.63,11.26-.32,1.1-1.35,2.38-2.88,1.08s-3.89-2.57-4.69-4.37c-3-6.76-5.39-13.79-8.27-20.61-1.3-3.09-2.39-6.78-6.22-7.71a101.12,101.12,0,0,0-13.18-2.27,3,3,0,0,0-3.49,2.79c-.33,3.33-.84,6.65-1,10a158.28,158.28,0,0,0-.2,16.15c.3,5.12-1.48,10.74,2.82,15.14.06.06,0,.18,0,.27.3,4.87,4.21,7.45,6.94,10.75.22.26,1.42-.29,1.79-.38,1,.44,2,1.24,2.68,1.07,6.33-1.47,8-5.13,5.65-11.46a27,27,0,0,1-.9-5.13l.85-.27c4.76,4.39,9.56,8.4,15.87,10.78,8,3,16.46.57,19.32-8a74.77,74.77,0,0,0,3.47-25.05C694.43,586.84,692.75,584.19,694.42,581.46Z"/><path class="cls-1" d="M653.16,743.9c-7-5.64-14.4-10.68-21.43-16.24-6.22-4.91-12.75-9.57-16.67-16.85-1.25-2.32-1.59-4.73,0-6.57,5.18-6.06,16.13-7.66,23-3.77,3.08,1.76,6.24,3.39,9.41,5,4,2,7,.47,7.17-3.89.06-1.6-.34-3.9-1.42-4.75a60.17,60.17,0,0,0-17.36-9.24c-5.4-1.91-11-1.41-16.64-1.46-10.57-.07-16.83,6.39-22.83,13.6a1.51,1.51,0,0,0-.26,1.18c1,3.35,1.9,6.76,3.24,10,3.16,7.52,9,13.18,14.83,18.4,7.54,6.69,16,12.4,24,18.55a18.43,18.43,0,0,1,1.88,1.87c-.87.75-1.72,2.11-2.63,2.16a130.4,130.4,0,0,1-13.41,0c-6.18-.33-10.93-3.61-15.12-7.93a14.69,14.69,0,0,0-3.1-1.92l-.24.58c-.64-.71-1.14-1.77-1.93-2.07-2.3-.86-7.95,3.38-7.44,5.75a12.89,12.89,0,0,0,2.83,6.09,49.56,49.56,0,0,0,15.24,10.48c6.63,3,13.5,3.25,20.41,3.5a75.8,75.8,0,0,0,12.27-1.08c5-.66,7.7-4.72,10.87-8,.22-.23.09-.82.11-1.24C658.08,751.29,656.83,746.86,653.16,743.9Z"/><path class="cls-1" d="M445.22,703.46c-2.63.13-5.27,0-7.91,0a1,1,0,0,1-.8-.41c-1.72-3.73-5.46-3.83-8.56-4a21.81,21.81,0,0,0-9.37,1.92c-4.52,2-6,7-8.57,10.71-2.39,3.43-3.86,7.61-5.19,11.64-1.74,5.27-3.12,10.69-4.35,16.11-1.61,7.08-1.48,13.7,3.88,19.74,4.13,4.64,8.63,7.49,15.82,7.43a21.33,21.33,0,0,0,14.75-7.09c4.23-4.7,8.55-9.47,10.6-15.74,1.56-4.8,3.82-9.42,5-14.3a58,58,0,0,0,1.41-18.68C451.55,707.35,447.84,703.33,445.22,703.46Zm-28.4,47.22c1-12.33,4.92-23.37,11.33-34.51a34.58,34.58,0,0,0,1.41,4.86,23.09,23.09,0,0,0,2.44,3.43l3-5.92C435,728,423.1,749.18,416.82,750.68Z"/><path class="cls-1" d="M721.94,672c-4.44-3-9.29-3.28-14.07-4.09-2.63-.45-5.51.76-8.29.94-10.36.69-19.16,4.53-25.41,13-1.94,2.64-2.85,6-4.18,9.13a2.13,2.13,0,0,0,.08,1.24c1.13,4.16,8.39,8.48,12.51,7.3.61-.18,1.06-1.32,1.36-2.1s.15-2.15.71-2.83a36.68,36.68,0,0,1,7.7-7.25c6.33-4.4,13-6.53,20.44-5.35L715,686.6a24.56,24.56,0,0,0-1,3.1,39.19,39.19,0,0,1-8.55,18c-4.42,5.23-9.38,10-14.18,14.9-1.53,1.57-3.36,2.86-4.93,4.4-.53.52-1.13,1.63-.91,2.12,3.05,6.93,7.43,12.6,15.25,14.39,2.52.58,5.57,1.31,7.7.4a16.79,16.79,0,0,1,6.26-1.33c3.58,0,3.85-2.76,4.12-4.5.21-1.37-1.41-3.69-2.83-4.52-2.4-1.39-5.29-1.94-8-2.85,1.93-2.55,3.79-4.93,5.58-7.37,3.56-4.86,7.23-9.66,10.59-14.67s4.7-11,6-16.89C731.79,683.56,728.69,676.52,721.94,672Z"/><path class="cls-1" d="M713.14,464.18c.71-7.9,1-15.86,2.18-23.69,1-6.74.34-9.36-5.17-12.39-3.66-2-10.54.47-11,4.06-.55,4.68-.91,9.38-1.32,14.07-.45,5.11-.65,10.26-1.36,15.34A117,117,0,0,0,696,488c.2,2.15.24,4.64,1.35,6.31,2.38,3.57,5.41,6.7,8.16,10,5.87-4.8,6.07-5.74,5.83-12.78a141,141,0,0,1,.56-14.52C712.17,472.69,712.75,468.45,713.14,464.18Z"/><path class="cls-1" d="M618,590.8c.46-4.77,1.33-9.5,1.83-14.26a7.61,7.61,0,0,0-3.56-7.69c-3.24-2.3-6.49-2-9.95-1.84-2.14.09-2.94,1.11-3.05,3.17-.37,7.05-.82,14.09-1.31,21.13-.35,5-.8,10-1.21,15-.21,2.61-.08,5.32-.77,7.8a5,5,0,0,0,.25,4.27c.16.28,0,.74,0,1.1.8,3.81,1.19,7.79,2.58,11.38.9,2.32,3.12,4.23,5,6,2.58,2.43,3.4,2.18,4.93-1l2.61,2.75c2.63-2.7,2.79-5.22,2.08-8.41a64.75,64.75,0,0,1-1.36-13.11c-.06-3.93.66-7.87.94-11.81C617.45,600.51,617.56,595.64,618,590.8Z"/><path class="cls-1" d="M713.44,761.38c-.48,0-.9-.72-1.37-1.06a9,9,0,0,0-1.48-.94c-2.65-1.25-4.5.69-6.6,1.65-2.63,1.21-2.91,2.76-2,5.48,1.06,3.08,3.59,4.51,5.79,6.38.76.65,7.2,1.6,8,1.06a2.74,2.74,0,0,0,1.08-1.14c.68-1.82,1.24-3.69,1.85-5.54C718.44,763.37,717,761.72,713.44,761.38Z"/></g><g id="Ebene_1" data-name="Ebene 1"><path d="M470.86,623.18c1.51-3.85.09-7.7-.15-11.52-.23-3.65-1-7.26-1.63-11.31a44.36,44.36,0,0,1,4.39,1.7c7.35,3.87,14.6,7.91,22,11.68a86.87,86.87,0,0,0,10.8,4.44c2,.7,5.5,1.8,6.11,1,2.24-2.91,3.47-.85,5.19.6l2-3.72c.62.51,1.31,1.15,2.07,1.69,1.94,1.38,4,1.47,6.4,1.28,3.36-.27,6.28-1.92,6.57-5.17.38-4.31.4-8.65.7-13,.17-2.51.58-5,.91-7.76,2.35,2.67,4.32,5,6.37,7.23,3.36,3.69,6,8.15,11.4,9.51,5.68,1.46,10.82,5.28,17.33,2.88,3.3-1.22,6.11-2.44,7.87-5.65,2.32-4.24,3.09-8.79,3.33-13.55.15-3,1.17-6,1.11-8.95-.11-5.25-.81-10.47-1.11-15.72a8.1,8.1,0,0,1,.88-3.51c1.36-3.1-.73-8.65-3.71-8.88-3.67-.3-7.39-.07-11.4-.07-.58,6.31-1.22,12.28-1.64,18.27-.38,5.38-.23,10.81-.88,16.15-.34,2.83-1.89,5.51-2.94,8.37-3.13-2.28-6.34-3.61-8-6-3.75-5.4-6.62-11.4-10.06-17-1.57-2.56-3.25-5.44-5.64-7s-2.53-3.28-2.63-5.61c-.09-2-.15-4.44-1.24-6-1.81-2.55-9.87-3.38-12.72-1.81-1.43.79-2.59,1.58-2.67,3.71-.21,5.7-.9,11.37-1.28,17-.65,9.55-1.21,19.1-1.78,28.65-.07,1.1,0,2.22,0,3.79l-22.6-11c1.63-1,2.51-1.52,3.28-2.12,2.78-2.16,5.92-4,8.16-6.64a31.91,31.91,0,0,0,5.27-9.14c2.43-6.13,2.37-12,1-18.16a22,22,0,0,0-7.09-12.14c-3.09-2.67-6.17-6-9.86-7.18-4.89-1.61-10.16-3.2-15.63-1.59-5.11,1.5-10.26,3.11-13.78,7.18-2.58,3-4.15,6.83-6.2,10.28-1,1.71-1.34,3.7-4.3,3.8-3.48.12-5.8,4.88-4.46,8.13.25.61,1.05,1.09,1.12,1.68.5,4.68,1.09,9.36,1.25,14.06.22,6.27,0,12.56.12,18.84,0,2.88.38,5.75.58,8.62l-.64,0c-1-1.33-2.08-2.64-3.09-4-2.4-3.21-5.1-6.25-7-9.72-1.16-2.08-3.91-3.67-2.16-7.26,1.88-3.87-.28-6.48-4.58-7.68a5.21,5.21,0,0,1-2.8-3.12c-2.7-8.5-6.1-16.67-11.21-24-1.37-2-3.66-2.71-6-3.69-3.95-1.64-7.13.61-10.65.44a2.88,2.88,0,0,0-2,1.36c-3.52,5.74-7,11.49-10.37,17.32-1.71,3-3,6.13-4.7,9.12-1.3,2.35-3,4.5-4.23,6.86-1.82,3.38-3.37,6.89-8.13,6.77a4.7,4.7,0,0,0-2.85,1.09A24.56,24.56,0,0,1,363,601.88a31,31,0,0,0-9.56,4.27,8,8,0,0,1-7.17,1.07c-1-.35-1.17-3.32-1.58-5.14a4.59,4.59,0,0,1,0-2.52c.87-2.26-.56-5.57,2.74-6.72a31.66,31.66,0,0,1,7.44-2A68.69,68.69,0,0,0,378.45,585c1.29-.6,3-2.26,2.95-3.31-.13-1.69-1.35-3.49-2.55-4.86-2.52-2.88-6.22-1.74-9.28-1.72-5.08,0-10.14,1.18-15.22,1.67-1.89.19-4.3,2.64-5.53.17-.81-1.63.23-4.23.57-6.37s.13-4.88,3.55-5.24c3.08-.33,6.12-1,9.17-1.56a68.08,68.08,0,0,1,7.52-1.51c3.76-.29,7.56-.13,11.34-.2,1.5,0,2.71-2.35,1.67-3.48-1.64-1.78-3.62-3.23-5.34-4.93s-4.46-1.46-6.45-2c-4.39-1.11-9.26-.26-13.92-.4a67.16,67.16,0,0,0-23.42,3.64c-6.3,2.1-7,4.15-2.53,9.19.65.75,1.56,1.78,1.47,2.58-.46,4.35-1.12,8.67-1.9,13a2.53,2.53,0,0,1-1.9,1.52c-2.21,0-4,.82-4.27,2.88-.35,2.29.24,4.55,2.82,5.73.63.28.94,1.29,1.39,2-.8.33-1.73,1.11-2.37.92-5.2-1.55-9.68,1.22-14.21,2.65-3.05,1-5.4,4-8.24,5.87-6.76,4.42-13.46,9-20.53,12.87-3.88,2.13-7.76-.91-7.36-5.43a98.32,98.32,0,0,1,2.2-14,186.23,186.23,0,0,1,5.51-20c1.42-4,1.55-8.64,5.12-11.89,1.07-1,2-3.28,1.53-4.52-.93-2.81-2.49-5.5-6.22-5.67a45.08,45.08,0,0,1-6.39-1c-2.56-.49-3.9,1.13-4.92,3-.52.94-.19,2.31-.58,3.36-1.26,3.37-2.9,6.62-4,10-1.88,6-3.61,12.07-5.07,18.19-.81,3.43-.2,7.35-1.56,10.48-2.45,5.68-1.88,11.25-.95,16.91a11,11,0,0,0,2.41,4.9c1.45,1.76,2.29,3.83,4.55,5.32,1.56,1,3.18,2.79,5.12,3.81,5.48,2.91,11.3,2.3,16.78.62,4.34-1.32,8.4-3.76,12.36-6.09a138.92,138.92,0,0,0,12.64-8.44c3.57-2.67,6.77-5.82,10.24-8.64,1-.79,2-1.18,2.81.76,2.06,5.14,5.38,9.13,9.66,12.95,5,4.42,9.75,3.73,15.07,2.72,3.32-.62,6.6-2.11,9.7-2.71,4.09-.79,6.59-3.74,10.48-4.54.41.46,1.08,1.23,1.78,2,2.37,2.53,5.53,1.82,8.47,2.27,2,.3,3.3,0,4.32-1.42,1.14-1.58,1.61-3.92,3.07-4.93,2.08-1.44,1.12-6.27,5.87-4.93,1.25.35,3.69-1.66,4.8-3.16,2.69-3.64,5.55-6.75,10.29-7.44,2.18-.32,4.35-.81,6.54-1,2.77-.25,6.25-2,7.06,2.83,0,.26.41.47.63.7,3.81,4.2,5.24,10.13,10.43,13.48,2.31,1.48,3.36,4.79,5.33,7,2.73,3,6.77,3.39,10.45,3.63,1.42.1,3-2.16,4.56-3.39.82,1,1.78,2.12,2.65,3.29,2.31,3.11,8.5,3.93,11.35,1.43A3.41,3.41,0,0,0,470.86,623.18ZM478.78,558c2.38-2.12,5.64-3.31,8.63-4.64.54-.25,1.69.89,2.57,1.37,5.92,3.2,7,8.56,5.59,14.36-.59,2.51.5,5.14-1.58,7.66-4.14,5-8.09,10-15.26,10.09-2.63,0-5.29-.86-7.88-1.55-.64-.17-1-1.23-1.33-1.6C471.47,574.32,471.33,564.66,478.78,558Zm-72.1,24.23c2.13-3.14,4-5.9,6.52-9.58l4.09,9.58Z"/><path d="M508.75,435.13c-5,10.29-7.42,21.46-10.32,32.46a51.61,51.61,0,0,1-2.07,5.42,32,32,0,0,1-2.58-10.18c-.23-5,.29-10.07.2-15.1s-.37-10.17-.89-15.22a46.38,46.38,0,0,0-1.91-8,27,27,0,0,0-1.63-3.61c-.3-.66-.56-1.88-.89-1.9-3.25-.16-7-1.18-9.68.07-5.79,2.72-6.82,9.12-8.47,14.61-2.55,8.49-5.28,16.86-10.43,24.2-.75,1.07-1.79,2.22-3.62.83a21.36,21.36,0,0,1-7.3-8.81c-2-4.55-5.32-8.5-7.81-12.86-1.49-2.6-4.26-4.32-4.64-7.71a11.71,11.71,0,0,0-2.21-5.51c-2.94-3.94-6.9-2.34-10.57-1.3-3,.87-4.23,3.6-3.81,6.64,1.08,7.72,2.75,15.5,2.63,23.24-.15,10.45.12,20.8,1.84,31.07,1,5.93,2.4,12,9.41,13.84,1.78.48,4.1.93,5.55.18a6.5,6.5,0,0,0,3.4-6.89c-.18-1.44-.51-2.88-.55-4.32-.08-3.52,0-7,0-10.56-.05-2.82-.25-5.64-.39-8.7,2.13,1.48,3.77,3.06,5.72,3.86,3.31,1.36,6.83,2.18,10.25,3.29,4.12,1.34,10.29-.86,12.9-4.5,2-2.74,4.11-5.34,6.13-7.94.91,4,1.56,7.94,2.7,11.7,1.88,6.15,4.41,12.05,9.39,16.43,1.34,1.19,3.71,1.52,4.54,2.9,1.8,3,4.58,3.58,7.49,4.4a6.41,6.41,0,0,0,8.26-7.08,10.52,10.52,0,0,1,.51-4.64c1.13-3.54,2.51-7,3.75-10.38,4.83-1.14,9.61-2.67,14.51-3.31a92.8,92.8,0,0,1,14.35-.32c1.45,0,3.66.75,4.16,1.79a50.44,50.44,0,0,1,4.09,11.34c.88,4.25,4.23,5.55,7.18,7.46a2.17,2.17,0,0,0,1.9.13c2.14-1.35,4.18-2.86,6.26-4.31.29-.47,1-.37,1.66-.13,7.36,2.68,14.52,6.43,22.78,4.31,1.3-.34,2.56-.86,3.87-1.16,3.52-.82,7.22-1.16,10.53-2.47,2.76-1.1,5.05-3.36,7.61-5,2.84-1.83,5.76-3.55,8.24-5.07,1.33,2.24,3.17,4.28,3.81,6.64,1.11,4.06,4.58,5.54,7.4,7.55,1.5,1.07,3.91,2.37,6,.53,1.47-1.26,2.86-2.61,4.5-4.12-1.54-1.75,1.21-6.16-3.8-6.26-.19,0-.46-.66-.55-1-1.49-6.12-2.68-12.27-1.66-18.91,4.79,0,9.58-.05,14.36.06a2.39,2.39,0,0,1,1.81,1.3,20,20,0,0,1,.74,4.3c.4,4,1.07,7.92,3.69,11.23,2.25,2.84,3.07,7.17,7.8,7.33,1.64.05,3.28,0,4.8,0,.44-2.84,2.49-4.56,2.08-7.94-.48-4-2.14-7.6-2.56-11.56-.26-2.5-.53-4.41,1.32-6.29.51-.51,1-1.81.69-2.26-3.05-4.79-.57-10-1.15-14.93a11.67,11.67,0,0,1,.83-5.85c2.2-4.88.79-9.14-1.67-13.31-1.26-2.13-5.49-2.88-7.66-1.85-4.78,2.28-5,7.22-6.05,11.22-1.48,5.46-1.65,11.28-2.37,16.88l-16.44-2.55c.34-5.93.63-11.74,1-17.54.22-3.12.56-6.24,1-9.34,1-6.46-4.78-9.12-10-7.86-2.47.59-5.16,1.46-5.42,5.23-.55,7.92-1.56,15.81-2.48,23.7-.26,2.15-.26,4.79-1.49,6.28-2.4,2.89-3.34,6.15-.79,9,3.52,3.92,1.31,8,1.45,11.42-2.53.39-4.54.53-6.45,1-4.19,1.09-8.51,2-12.48,3.64-6,2.54-12.2,4.53-18.74,3.89-8.07-.78-11.84-7.2-9.56-14.55a62.48,62.48,0,0,1,4.46-10.8,80.17,80.17,0,0,1,7.05-10.9c2.32-3.05,5.43-5.51,7.71-8.59,1.65-2.24,3.9-3.69,6-2.68s3.64,3.49,4.89,5.64c1.12,1.92,1.5,4.27,2.21,6.43l1.13.37c1.67-1.8,4.24-3.35,4.82-5.45,1.32-4.7,1.45-9.74-1.84-13.9-2.05-2.6-3.89-5.81-8.1-5.49-3.19.25-6.66-.46-9.53.56a51.89,51.89,0,0,0-13.11,6.81c-3.32,2.44-6,5.93-8.47,9.31a136.46,136.46,0,0,0-9,14c-2,3.61-3.35,7.61-5.18,11.87-3.18-4.79-6.29-9.12-9-13.67s-5.18-9.47-7.84-14.16c-1-1.8-2.41-3.39-3.49-5.16-3.77-6.22-14.65-8.4-19.64-3.34C512.84,427.25,510.64,431.25,508.75,435.13Zm15.85,4.55c4.1,6.51,7.9,12.57,11.79,18.75h-18C520.52,452.05,522.42,446.28,524.6,439.68Z"/><path d="M827.36,417.61c-10,1.35-19.9,1.5-29.9,1.82-7,.22-13.9,1.39-20.81,2.43-4.09.61-5.4,3.77-4.07,7.63,1,2.88,3.82,2.94,5.59,4.54a2.91,2.91,0,0,1,.92,2.22c-.78,4.5-1.68,9-2.65,13.44-.57,2.62-.43,5.66-4,6.66-.6.17-.79,1.78-1.18,2.73-1.1,2.72-.43,5,1.42,7.22a3.68,3.68,0,0,1,.57,2.34c-.14,3.77-.43,7.55-.58,11.33a17.7,17.7,0,0,0,5.48,13.17c5.61,5.76,12.92,7.62,20.84,6.34a18.5,18.5,0,0,0,10.29-4.75c2.51-2.42,5.34-4.52,8-6.84s5.41-5.08,8.2-7.51a4.17,4.17,0,0,0,1.46-2.95q-.66-2.61-1.08-5.3a7.55,7.55,0,0,0-7-1.9c-3.77,1.17-5.54,4.9-9.5,6.16-3.74,1.18-6.7,4.72-10.11,7.09-3.74,2.6-8.4,2-9.93-1.44-.59-1.33-.1-3.14-.09-4.73,0-5.26-.46-10.64,2.91-15a28.6,28.6,0,0,0,3.84-.91c4.58-1.79,9.29-3.35,13.61-5.66,1.83-1,4.53-2.63,3.8-5.65-1.07-4.45-5.08-6.58-9.71-5.51-3.39.78-6.81,1.44-10.66,2.25a23.32,23.32,0,0,1,.39-4.57,31.63,31.63,0,0,1,2.64-7,5,5,0,0,1,3.54-2.36c6.13,0,12.16,0,18.24-1.29,3.86-.83,7.93-.65,11.93-.8a56.88,56.88,0,0,1-.89-7.88,36.73,36.73,0,0,1,.18-5.53C828.49,417.48,827.92,417.53,827.36,417.61Z"/><path d="M167.87,353.78c1.71,3.43,5.18,4.25,8.07,5.91a14.68,14.68,0,0,0,5.7,2.11c6.79.55,13.2-1.37,19.14-4.39,6.31-3.21,10.7-8.55,14-14.74,1.76-3.32,3.22-6.81,4.74-10.06.53,2,1,4.09,1.65,6.11,1.16,3.38,1.57,7.67,3.91,9.86,6.29,5.9,12.74,12.75,23,8.92a3.7,3.7,0,0,1,.95,0c6.31-.42,11.14-3.61,15.11-8.27,2.45-2.89,4.73-5.92,7.12-8.86.83-1,2-1.83,2.63-3,2.15-3.91,4.14-7.81,4.15-12.56,0-5.55,1.47-11.19.85-16.63-.85-7.47-2.73-14.91-7.35-21.21-2.47-3.36-5.24-6.45-9.27-8.05-4.29-1.71-8.71-3.18-12.82-5.25s-7.73-.88-10.9,1.16c-7.75,5-10.18,13.65-13.49,21.52-1.49,3.55-1.89,7.56-3,12.32a37.36,37.36,0,0,0-1-5.06c-1.82-5.12-3.17-10.52-5.83-15.17-2.55-4.45-6.81-7.88-9.77-12.15-3.6-5.19-9.09-7.69-14.4-9.75a45,45,0,0,0-22.38-2.76c-6.75.93-13,3.24-18.24,7.86-.87.78-1.21,2.17-2.1,2.9a20.51,20.51,0,0,0-5,26.29c1,1.79,3,3,4.45,4.59s4.76,2.34,6.49,1.16c2-1.35,2.32-4.09.84-6.6-1.38-2.34-.82-10.39,1.06-12.46,4.26-4.69,8.73-8.93,15.51-9.85,4.36-.59,8.36.17,12.53,1.24A26,26,0,0,1,198.81,289c4,5.33,5.94,11.78,7.58,18.19a20.62,20.62,0,0,1,.41,7.47A72.47,72.47,0,0,1,204.47,326c-1.37,4.7-2.06,9.77-6.08,13.38-1.27-2.75-2.63-5.45-3.77-8.24-1.27-3.12-2.41-6.3-3.49-9.49-2.31-6.86-4.51-13.75-6.83-20.61-1.35-4-3.36-7.8-4.15-11.87s-3.51-5.73-6.78-6.19c-6.81-1-11.19,2.42-9.29,8.64,2.55,8.34,5.79,16.46,8.73,24.67,1.22,3.42,2.22,6.92,3.67,10.23,2.65,6,5.56,11.85,8.36,17.77.71,1.5.87,3.66,3.67,2.56-4.45,2.28-5,2.19-6.07-.4-1.73-.56-3.89-.58-4.46-1.55-3.33-5.57-6.15-11.39-7.34-17.91-.23-1.26-1.8-2.45-3-3.3a41.8,41.8,0,0,0-5.25-2.66,6.27,6.27,0,0,0-1,2.22c-.55,3.83-.91,7.69-1.29,11.54a4.77,4.77,0,0,0,.25,2.09c1.07,2.86,2.19,5.66,3,8.64S166.48,351,167.87,353.78Zm68.68-26.36c.38-5.66.55-11.45,2-16.88,1.76-6.8,4.64-13.31,7.14-19.9.31-.83,1.24-1.42,1.88-2.12.13.34.27.67.4,1a11.31,11.31,0,0,0,2.84.4,8.44,8.44,0,0,1,9.26,6.71c1.3,5.53,3.34,11.06,3.5,16.63.14,4.74-.35,10-3.68,14.15-2.39,3-4.3,6.41-6.81,9.3a42.72,42.72,0,0,1-7.16,6.39c-2.06,1.5-5.4.34-7-1.77C235.77,337.08,236.22,332.19,236.55,327.42Z"/><path d="M268.08,445.16a108.78,108.78,0,0,0-3.62-11.37c-1.67-4.6-4-9.2-8.86-10.63-3.93-1.16-8.46-1-12.6-.54-6.46.79-12.23,3.23-15.05,9.89-2.65,6.27-5.52,12.46-8,18.8-1.62,4.12-5-.19-7,1.7-.3.28-1.71-.37-2.38-.89-.34-.27-.18-1.19-.23-1.82-.23-3.16-.4-6.31-.71-9.46-.33-3.42-1-6.82-1.16-10.24-.34-6.42-.55-12.82-2.52-19.05-1.24-3.94-4.19-6.33-7.62-5.6-4.9,1.05-6.91,3.82-6.5,8.41.74,8.26,1.25,16.53,2,24.8.41,4.76,1,9.51,1.6,14.65H180.75c-.15-1.51-.28-3.46-.55-5.39-.78-5.68-1.85-11.34-2.37-17-.66-7.33-.88-14.7-1.35-22.05-.17-2.76-2.75-4.69-5.22-5.43-3.39-1-5.23,1-7.84,2.23-2.78,1.32-2.37,3.18-2.37,4.95,0,4.19.5,8.38.75,12.57.31,5.28.44,10.57.92,15.84.3,3.34,1.08,6.64,1.67,9.95,1,5.82,2.05,11.65,3.14,17.46.24,1.28.9,2.47,1.19,3.74.75,3.35.88,6.95,2.22,10,2.42,5.55,5.54,10.79,7.94,15.34,2.5,1.44,4.27,2.63,6.18,3.52,2.11,1,4.45,2.19,6.61.35A6.53,6.53,0,0,0,193,492.1c-1-1.75-2.4-3.3-3.11-5.14-2.18-5.65-4.12-11.4-6.15-17.1,3.95-3.33,8-3.28,12.12-3.41,1.58-.05,2.39,0,3.05,1.87a141.55,141.55,0,0,0,6.36,15.52c2.23,4.57,5,9,10.08,11,1.74.68,3.61,2,5.46-.11.29-.33,1.67-.06,2.3.33,4.94,3,10,5.38,16,4,2.43-.57,5.48-.28,7.2-1.68a90.35,90.35,0,0,0,12.21-12c8.16-9.76,10.38-21.39,9.63-33.79C268.07,449.43,268.57,447.18,268.08,445.16Zm-52.25,27.2-.6.24-2.49-8.86h3.88C216.36,466.6,216.1,469.48,215.83,472.36Zm36.33-12.56c-.91,8.08-5,14.79-10.1,20.87-1.46,1.75-3.71,2.94-5.77,4s-3.41-.55-3.55-2.25c-.31-3.62-.71-7.41,0-10.92a221.65,221.65,0,0,1,5.67-21.62,47.76,47.76,0,0,1,5-10.33c1.23-2,3.28-3.57,5-5.34l1.27.24c.4,1.74.84,3.47,1.18,5.23a69.57,69.57,0,0,1,1.53,8.88A64.44,64.44,0,0,1,252.16,459.8Z"/><path d="M408.65,347c2.78,4.55,6,8.64,12.17,9.8,8.54,1.62,15.46-1.43,22-5.95,3.1-2.14,5.36-5.47,8.23-8,5.75-5.07,9.78-11.37,13.54-18.75.17,6.07,3.06,10.29,6.53,13.79,5.1,5.14,10.8,8.12,18.77,4.83,3.51-1.45,5.62-3.56,8.24-5.81s2.6-8.71,8.64-6.74a3.35,3.35,0,0,1,.58.31c-.41,4.13,3.64,4.21,5.68,6.13,2.51,2.36,5.59,2.08,8.77,1.61.47-1.29,1.75-3.18,1.29-3.84-1.62-2.29-1.11-5.92-4.55-7.13-.75-.26-1.14-1.73-1.56-2.7a35,35,0,0,1-2.18-9.72c-.9-6.94.44-13.55,1.13-20.28a131.3,131.3,0,0,0,1-14.13c0-2.77-1.21-5.42-4.93-5.18a2.68,2.68,0,0,1-1.22-.23c-3.36-1.47-8.27.66-9,4.05-1.16,5.69-2.15,11.42-3.26,17.12a100.12,100.12,0,0,1-9.73,27.68c-1.21,2.3-3.49,4-5.68,6.46-2.23-4-2.87-7.42-2.35-10.83a145.39,145.39,0,0,1,3.17-15.2,105.39,105.39,0,0,1,4.17-11.89c1.26-3.13.86-4.91-1.91-6.85-2.05-1.46-4.1-1.32-6.58-1.14-4.3.31-6.63,1-8.35,4.53-.92,1.89-1.64,3.87-2.7,6.38a16.35,16.35,0,0,1-1.26-3.18c-1-6.87-4.52-11.77-11.27-13.71-2.65-.76-5.62-.39-8.42-.67-3.93-.38-7.81,1.75-11.75.14-.07,0-.19.08-.29.11a23.23,23.23,0,0,0-15.44,14.63q-3.77,10.31-7.22,20.71c-2.13,6.48-4.19,13-6,19.56A17.8,17.8,0,0,0,408.65,347Zm15.45-17.14c1.72-6.68,3.88-13.26,6.23-19.74A96.1,96.1,0,0,1,436,297.74c1.33-2.51,2.36-2.55,4.74-1l10.93-7.06c2.76,6.24,3.63,12.29,1.91,18.54-1.16,4.21-2,8.63-4,12.48-2.38,4.76-5,10-8.92,13.23-3.5,2.85-7,5.85-10.69,8.5-1.71,1.22-4.63.75-7.93,1.17C422.78,338.74,423,334.15,424.1,329.81Z"/><path d="M677.66,347.2c1,1.82,8.41,5,10.15,4.22a8.1,8.1,0,0,0,4.31-9.13,28.83,28.83,0,0,1-.43-5.73q0-6.71.11-13.42a8.24,8.24,0,0,1,.91-2.24c1.12,1.66,1.88,3,2.85,4.21,4,4.93,7.62,10.35,14.06,12.63,1.38.49,2.66,1.27,4,1.85,1.61.68,3.3,1.92,4.86,1.8,4-.3,8-1.22,11.53-1.81,2,3.12,4.18,6.87,6.8,10.25.95,1.21,3.28,1.25,4.57,2.32,5,4.17,10.59,3.56,16,1.62a20.65,20.65,0,0,0,7.37-5.27,58.83,58.83,0,0,0,8.53-10.6c2.16-3.68,5.3-7,5.19-11.93-.06-2.78,1.58-5.56,1.73-8.38a169.51,169.51,0,0,0,0-17c-.16-3.45-.12-7.23-3.74-9.45-1.7-1-3.2-2.5-5-3.24a11.64,11.64,0,0,0-4.8-.45c-2.08.11-4.14.65-6.22.77s-4.34-.77-5.92,0c-5.84,2.92-11.27,6.49-14,12.93-.45,1.09-1.14,2.08-2.13,3.86-.32-5.69-.48-10.49-.94-15.25a5.91,5.91,0,0,0-1.82-3.85c-1.59-1.22-3.94-1.46-5.52-2.7-2.51-2-3.36-.88-3.81,1.48l-4,.27c0,3.07-.07,5.93,0,8.79.1,3.26.66,6.54.43,9.77A102.42,102.42,0,0,1,721,315.14c-.52,2.83-1.2,5.64-1.9,8.44-.55,2.17-2.07,2.79-3.69,1.34-3-2.67-6.59-5.16-8.27-8.55-3.4-6.86-5.54-14.35-8.55-21.42-.84-2-3.14-4.95-4.44-4.8-5.32.65-10.57-2.18-16,.2-2.12.93-2.94,1.59-3.14,3.82-.47,5.4-1.33,10.77-1.88,16.16-.52,5.23-1.44,10.51-1.09,15.7C672.56,333.35,673.94,340.62,677.66,347.2Zm77.19-39.78a20.85,20.85,0,0,1,4.28-4.7c2.64-2.06,5.28-.79,5.89,2.53,1.91,10.42-1,19.8-6.67,28.34-1.72,2.57-4.5,4.52-7,6.43-2,1.52-4.42.57-5.18-1.8a34.22,34.22,0,0,1-.82-4.33A53.65,53.65,0,0,1,754.85,307.42Z"/><path d="M769.4,584.32a71.53,71.53,0,0,0-7-3.62,1.12,1.12,0,0,0-.63,0c-4.42.67-8.89,1.11-13.23,2.1-3.56.81-6.93,1.34-10.43-.15a10,10,0,0,0-3.64-.68c-4.71-.08-9.42,0-14.35,0,3.35-3.77,5-8.73,9-12.17s7.84-6.34,12.91-7.62c1.85-.47,3.08-.11,4,1.76a11.81,11.81,0,0,0,2.46,2.73c2.07-1.31,3.69-2.22,5.17-3.32a3.17,3.17,0,0,0,1-1.83c.8-4.08-.9-6.7-4.62-9a22.08,22.08,0,0,0-19.13-2.2,35.48,35.48,0,0,0-15.69,10.31c-.81.95-1,2.37-1.68,3.86-.74.41-2.4.87-3.3,2a44,44,0,0,0-4.72,7,122.69,122.69,0,0,0-6.81,13.31,38.35,38.35,0,0,0-2.46,10.85c-.39,4.64-1.14,9.69.23,13.94a33.68,33.68,0,0,0,10.79,15.89,20.67,20.67,0,0,0,14.15,4.74c5.09-.18,10.16-1.16,15.23-1.86.55-.07,1-.63,1.55-1,2.72-2,5.2-4.46,8.2-5.8,4.21-1.88,6.81-4.75,8.76-9.61a9.21,9.21,0,0,1,2.5,3.2c1.35,2.87,3.89,3.38,6.66,3.72,3.45.43,5.22-1.17,4.93-4.73-.23-2.76-1-5.6-.61-8.27.72-4.9,2.39-9.65,3.13-14.54C772.18,590.16,772.77,586.51,769.4,584.32Zm-26.79,18a24.34,24.34,0,0,1-4.35,7.43,37.86,37.86,0,0,1-8.27,6.5c-4.07,2.42-8.84,3.17-13.11,1.15-2.76-1.31-4.6-4.45-4.92-7.82a37.66,37.66,0,0,1,2.09-15.42c.11-.34.57-.55,1-.94,4.12,5.5,9.23,7.6,15.75,6.63,3.21-.48,6.49-.53,9.75-.71C743,599,743.07,601.23,742.61,602.35Z"/><path d="M339.49,489.18a55.76,55.76,0,0,0,10.25-25c1.14-7.78.91-15.78,1.07-23.68a31,31,0,0,0-.94-7.78c-.8-3.37-2-6.64-3.07-10-.64-2-1.86-2.24-3.52-1.06l-.09-.88c-1.76-.42-4.7-1.64-5.08-1.1-1.31,1.89-4.14,3.13-3.49,6.15.35,1.62.65,3.25.92,4.88s1.28,3,0,4.91c-.72,1.09,0,3.19.21,4.83.06.55.58,1.11.5,1.6-.49,3.05-1.37,6.06-1.59,9.11a80.48,80.48,0,0,1-4.84,22.8c-.87,2.32-2.88,4.21-4.41,6.37-3.81-3.47-6.79-8.91-7.32-11.62-1.36-6.94-3.05-13.81-4.47-20.74-1.36-6.7-6.62-6.84-11.6-6.55-1.74.1-3.7,2.25-4.9,3.92a21.38,21.38,0,0,0-2.66,6.28c-1.59,5.21-3,10.48-4.51,15.71a13.18,13.18,0,0,1-1.54,2.46c-.67-6.76-1.35-12.62-1.8-18.49-.34-4.43-.57-8.9-.51-13.35.05-3.4.27-6.72-1.86-9.67-1.77-2.46-4.36-2-6.83-2a6,6,0,0,1-.95-.07,5.72,5.72,0,0,0-6.87,5.74c.1,5.37.35,10.74.54,16.11.3,8.6.64,17.21,3.27,25.48,2.26,7.1,6,13,13.77,15.26,4,1.14,8.82-.21,11.25-3.66,1.77-2.5,3.32-5.14,5.48-8.51.25.63.43,1.14.65,1.64,2.05,4.82,5.57,8.45,9.41,11.87a22.35,22.35,0,0,0,12.6,5.46C331.83,496.18,336.39,493.39,339.49,489.18Z"/><path d="M508.46,755.27c-4.06-1.86-8.29-3.37-12.45-5-1.84-.73-4.15-1-5.42-2.34-4-4.11-7.64-8.6-11.61-13.16,9.41-4.58,13-12.23,15.26-21a54.91,54.91,0,0,1,3.59-9.65c1.3-2.8.95-10.05-1-12.19,2.41-1,2.16-2.45.74-4.13a5.53,5.53,0,0,1-.82-1.16,14.94,14.94,0,0,0-17.91-8.12c-.59.17-1.24.13-1.83.28-1.88.47-4,.56-5.57,1.56-5.64,3.64-8.18,9.79-11.64,15.18-1.9,3-2.9,6.66-7.76,6.41-2.27-.12-3.93,1.65-3.78,4.41a13.33,13.33,0,0,1-.47,2.74c-1.11,6.66-3,13.3-3.09,20s1.4,13.25,2.65,19.79a17.18,17.18,0,0,0,8,11.25c2.43,1.55,5.38,2.16,7.79.26,2.19-1.73,1.85-4.29,1.46-7.05-.57-4.12-.15-8.37-.15-12.75.67.17,1.31.14,1.43.38,3.14,6,7.93,10.54,13.35,14.35,7.42,5.21,15.08,9.93,24.87,8.23a62.33,62.33,0,0,1,6.67-.47c-.35-1.74-.55-3.2-.95-4.6C509.51,757.32,509.25,755.63,508.46,755.27Zm-41.14-33.1c2-10.95,5.13-21,14.15-29C481.53,707.9,473.86,720.28,467.32,722.17Z"/><path d="M388.48,691.77c-1.16-3-2.92-3.65-5.74-2.87l-1.56-2.29c-2.78.21-5.33,1-5.92,3.81a59.57,59.57,0,0,0-.88,10c-.09,2.8.34,5.62.18,8.4a45.64,45.64,0,0,1-5.13,18.55,31,31,0,0,1-3.86,6.3c-3.16,3.61-4.92,4.08-8.44.74A32.73,32.73,0,0,1,350.22,724c-2.74-6.19-6.16-11.14-13.59-11.25a21.27,21.27,0,0,0-6.64,1.41c-.62.21-.84,1.53-1.31,2.31-.64,1-1.35,2.07-2.46,3.77a9.06,9.06,0,0,1-.35-1.78c.62-6.41,1.17-12.83,1.94-19.21.38-3.18,1.58-6.3,1.66-9.46.06-2.44-.27-5.71-1.8-7.19a11.35,11.35,0,0,0-13.11-2.19,3.78,3.78,0,0,0-2,2.48c-.79,6.64-1.49,13.31-2,20-.28,3.93.23,7.93-.18,11.83-.78,7.67-1.33,15.22,3.51,21.91,1.34,1.86,3.08,3.42,4.5,5.23,3.08,3.9,9.23,4.88,13.07,1.76,2.63-2.13,5-4.6,7.29-6.77,3.13,2.9,6.67,6.09,10.1,9.38a15.06,15.06,0,0,0,8.38,4.44,60.07,60.07,0,0,0,6,.43,33.38,33.38,0,0,0,4.9,0c4.73-.51,8.62-3,11.76-6.27,2.55-2.66,5.23-5.81,6.24-9.21a145.67,145.67,0,0,0,4.1-20.57C391.4,707.15,391.36,699.37,388.48,691.77Z"/><path d="M865.2,312.76a103.67,103.67,0,0,0-5.8-17.38,16.11,16.11,0,0,0-5.21-6.57c-1.9-1.37-4.72-1.45-7.13-2.12-3.23-.91-4.5,2.21-6.76,3a3.07,3.07,0,0,0,0,.61,8.1,8.1,0,0,0,.53,1.11c3.49,5.47,8.19,10.07,8.72,17.36.65,9.09-.18,17.23-7.07,24-3.51,3.43-4.53,2.24-6.63-.59a21.72,21.72,0,0,1-3.17-7.4c-.93-3.61-1.13-7.4-2-11-1.05-4.1-5.89-6.46-9.93-5.13-2.55.84-4.6,2-5.73,4.89a173.29,173.29,0,0,1-7.35,16.12c-1.3,2.5-2.36,5.5-5.7,6.76-.66-1.7-1.58-3.17-1.77-4.73-.43-3.53-.3-7.13-.75-10.66a60.53,60.53,0,0,1,1.79-23c2-7.65-1.16-12.38-8.24-11.87a5.65,5.65,0,0,0-5.5,4.67c-1.11,7.43-1.89,14.92-2.62,22.4a70.55,70.55,0,0,0-.31,10.48c.2,4.09.18,8.39,1.48,12.18,1.93,5.68,4.45,10.75,10.45,14.31,7.09,4.2,15.76,2.23,19.12-3.89,1.64-3,3.61-5.81,5.74-9.2,3.72,7.07,10.16,9.55,16.52,11.76,5.77,2,11.82.83,15.89-3.54,5.35-5.74,9.92-12.4,11.28-20.44C865.65,320.89,866,316.6,865.2,312.76Z"/><path d="M601.37,353.64a14.3,14.3,0,0,0,9.47,3.35c3.15.1,5.31-1.41,5.62-4.49s1.75-6.61-2.93-7.9c-.19-.05-.3-.54-.37-.84-1-4.55-1.51-9.11-.28-13.64,1.65.19,3.06.71,4.3.44,7.67-1.67,14,1.43,20,5.49,3.58,2.42,6.76,5.42,10.24,8a26.2,26.2,0,0,0,5.4,3.13c2.26,1,4.69,1.55,7,2.33a5.11,5.11,0,0,0,6.26-2.29c.72-1.4-.12-4.28-1.23-5.78-1.38-1.85-3.77-3-5.71-4.39s-4.44-2.7-6-4.58c-3.33-4-7.5-6.65-11.88-9.16-2.62-1.51-5.18-3.11-6.86-4.12,5.61-6,11.08-11.95,16.7-17.76,4.45-4.58,8.52-9.38,11.38-15.16,2.21-4.44,2.3-7.34.13-9.88a7.29,7.29,0,0,0-7.42-2.37c-3.3.71-7.3.84-8.14,5.46a6.13,6.13,0,0,1-.85,1.95c-5.76,9.68-13.83,17.4-21.58,25.39-.81.84-1.34,2.07-2.29,2.63-2.9,1.74-5.94,3.24-9.53,5.16,0-3-.18-5.85,0-8.63.45-5.84,1.39-11.66,1.58-17.5.16-4.93-5.63-8.5-10.33-6.81-3.9,1.41-5.11,3.31-4.88,7.68a32.49,32.49,0,0,1,.07,3.56c-.51,8.54-1.21,17.07-1.56,25.61-.32,8-.6,16-.29,24C597.59,346.44,597.86,350.63,601.37,353.64Z"/><path d="M729.88,470.13c2.32,5.15,6.51,8.67,11.17,11.32,2.71,1.55,6.46,2.75,9.37,2.17A13.18,13.18,0,0,0,761.14,473c1.29-6.2,2.26-12.47,3.19-18.73a87.47,87.47,0,0,0,1-10.94c.14-7.1,4.14-14,1.16-21.2a18.8,18.8,0,0,0-3.16-1c-2.25-.33-4.86-1.23-6.71-.45a8,8,0,0,0-4.22,5.11,194.09,194.09,0,0,0-2.62,23c-.27,5.87-2.16,11.07-4.31,16.53-.57-.3-.83-.35-.92-.5a54.66,54.66,0,0,1-7.81-21.57,81.83,81.83,0,0,0-1.46-9.17,83.8,83.8,0,0,0-3.86-10.32,3.68,3.68,0,0,0-2.16-1.88,32.61,32.61,0,0,0-6.7-1.27c-4.27-.25-6.67,2.18-6.7,6.44,0,2.44.19,4.91-.07,7.33-.73,6.74-1.67,13.46-2.47,20.2-.53,4.47-.69,9-1.47,13.42a65.65,65.65,0,0,0,.23,25c.84,4.09,10.6,8.84,14.35,7.13.18-.08.3-.29.47-.41a9.05,9.05,0,0,0,2.12-12.14,4.35,4.35,0,0,1-1-1.95c-.37-5.45-.81-10.92,1-16.47A5.37,5.37,0,0,1,729.88,470.13Z"/><path d="M349.31,293.72c.39,4.16.41,8.45,1.53,12.42,2.78,9.94,7.65,18.68,16.67,24.42,2,1.26,4.18,2.88,6.34,3,3.44.16,6.93-.82,10.45-1.32-.05-.26.08,0,0,.14-2.81,7.68-5.86,15.27-8.37,23-1.91,5.89-2.79,7.49,3.67,10.53A5.81,5.81,0,0,1,380.8,367c2.12,1.9,5.58,1.72,7-.64s3.14-4.69,3.37-7.18c.55-5.77,4.23-10.3,5.44-15.81.78-3.56,3-6.79,4.24-10.27,1.73-4.74,3.21-9.57,4.75-14.38,1.63-5.09,3.29-10.17,4.76-15.3a40.49,40.49,0,0,0,1.35-7.32c.4-4.3.49-8.62.82-12.92s-1-6.8-3.78-7.9c-4.23-1.69-7.57.85-11.19,2-.5.16-.83,1.15-1.05,1.82-.28.88-.24,1.87-.56,2.72-2.1,5.58-4.17,11.18-6.42,16.7-2,4.9-3.83,10-6.54,14.46-1.67,2.78-4.85,4.64-7.56,7.11-2.06-1.85-4.44-3.15-5.55-5.16a38.5,38.5,0,0,1-4.53-11.39c-1-5.64-1.13-11.46-1.39-17.22-.37-8.28-5.64-11.66-12.5-8-2.16,1.15-3.07,2.62-2.85,5C348.94,286.79,349,290.27,349.31,293.72Z"/><path d="M573.52,745.21c-6.93-2.93-13.8-6-20.71-9-2.2-1-2.41-2-.88-4,5.46-7.15,11-14.25,15.92-21.78,2.49-3.81,6.09-7.55,3.1-13.4-1.62-3.18-4.07-3-6.26-4-5.06-2.18-9,.56-11.24,4.25-5,8.38-10,16.82-15.26,25A30.49,30.49,0,0,1,523,734.75c-.79-10.67,1.19-21,3.55-31.14a14.38,14.38,0,0,0-.66-9.29c-.91-2.19-2.79-2.1-4.63-2.33-.32,0-.56-.58-.87-.86-1.86-1.71-8-.67-8.88,1.6a28.75,28.75,0,0,0-1.35,5.43c-1.12,7.2-2.3,14.4-3.17,21.64a112.22,112.22,0,0,0-.71,13.09,31,31,0,0,0,4.39,15.67c3,5.27,6.52,9.43,13,9.15,1.91-.08,4.79-1.66,5.4-3.25,1.84-4.78,1.11-6.25-1.81-8.11a20.61,20.61,0,0,1-2.6-2.36l.7-.78c1.05.73,2.39,1.25,3.09,2.23a4.83,4.83,0,0,0,6.48,1.45c3.53-1.85,6.58-2.54,10,0a23.84,23.84,0,0,0,4.94,2.56,74.06,74.06,0,0,0,9.41,3.6,43.19,43.19,0,0,0,9.74,1.39c2.56.08,5.15-.65,7.87-1C577.72,747.2,577.52,746.91,573.52,745.21Z"/><path d="M684.42,571.46c.16-.27-.42-.91-.49-1.41-.61-4.41-1.19-8.84,1.2-13a6.24,6.24,0,0,0,.43-5.2,4.46,4.46,0,0,0-3.64-3.53c-1.65-.46-2.8-1.74-5.07-.61-1,.51-3.12.16-4.1,1.54s-2.07,3-2.19,4.51c-.8,10.56-1.2,21.16-2.09,31.71-.33,3.8-1.57,7.55-2.63,11.26-.32,1.1-1.35,2.38-2.88,1.08s-3.89-2.57-4.69-4.37c-3-6.76-5.39-13.79-8.27-20.61-1.3-3.09-2.39-6.78-6.22-7.71a101.12,101.12,0,0,0-13.18-2.27,3,3,0,0,0-3.49,2.79c-.33,3.33-.84,6.65-1,10a158.28,158.28,0,0,0-.2,16.15c.3,5.11-1.48,10.74,2.82,15.14a.47.47,0,0,1,0,.27c.29,4.87,4.21,7.45,6.94,10.75.22.26,1.42-.29,1.79-.38,1,.44,2,1.24,2.68,1.07,6.33-1.47,8-5.13,5.65-11.47a26.74,26.74,0,0,1-.9-5.12l.85-.27c4.76,4.39,9.56,8.4,15.87,10.78,8,3,16.46.57,19.32-8a74.8,74.8,0,0,0,3.47-25.05C684.43,576.84,682.75,574.19,684.42,571.46Z"/><path d="M643.16,733.9c-7-5.64-14.4-10.68-21.43-16.24-6.22-4.91-12.75-9.57-16.67-16.85-1.25-2.32-1.59-4.73,0-6.57,5.18-6.06,16.13-7.66,23-3.77,3.08,1.76,6.24,3.39,9.41,5,4,2,7,.47,7.17-3.89.06-1.6-.34-3.9-1.42-4.75a60.17,60.17,0,0,0-17.36-9.24c-5.4-1.91-11-1.42-16.64-1.46-10.57-.08-16.83,6.39-22.83,13.6a1.51,1.51,0,0,0-.26,1.18c1,3.34,1.9,6.76,3.24,10,3.16,7.52,9,13.18,14.83,18.4,7.53,6.69,16,12.4,24,18.55a18.43,18.43,0,0,1,1.88,1.87c-.88.75-1.72,2.11-2.63,2.16a130.4,130.4,0,0,1-13.41,0c-6.18-.33-10.93-3.61-15.12-7.93a14.69,14.69,0,0,0-3.1-1.92l-.24.58c-.64-.71-1.14-1.77-1.93-2.07-2.31-.86-7.95,3.38-7.44,5.75a12.8,12.8,0,0,0,2.83,6.09,49.56,49.56,0,0,0,15.24,10.48c6.63,3,13.5,3.25,20.41,3.49a74.67,74.67,0,0,0,12.27-1.07c5-.66,7.7-4.72,10.86-8,.23-.23.1-.82.12-1.24C648.08,741.29,646.83,736.86,643.16,733.9Z"/><path d="M435.22,693.46c-2.63.13-5.27,0-7.91,0a1,1,0,0,1-.8-.41c-1.72-3.73-5.46-3.83-8.56-4a21.81,21.81,0,0,0-9.37,1.92c-4.52,2-6,7-8.57,10.71-2.39,3.43-3.86,7.61-5.19,11.64-1.74,5.27-3.12,10.68-4.35,16.1-1.61,7.09-1.48,13.71,3.88,19.75,4.13,4.64,8.63,7.49,15.82,7.43a21.33,21.33,0,0,0,14.75-7.09c4.23-4.7,8.55-9.47,10.6-15.74,1.56-4.8,3.82-9.42,5-14.31a58.18,58.18,0,0,0,1.41-18.67C441.55,697.34,437.84,693.33,435.22,693.46Zm-28.4,47.22c1-12.33,4.92-23.37,11.32-34.51a35.77,35.77,0,0,0,1.42,4.86,23.09,23.09,0,0,0,2.44,3.43l3-5.92C425,718,413.1,739.18,406.82,740.68Z"/><path d="M711.94,662c-4.44-3-9.29-3.28-14.07-4.09-2.63-.45-5.51.76-8.29.94-10.36.69-19.17,4.53-25.41,13-1.94,2.63-2.85,6-4.18,9.13a2.13,2.13,0,0,0,.08,1.24c1.13,4.16,8.39,8.47,12.51,7.3.61-.18,1.06-1.32,1.36-2.1s.15-2.15.7-2.83a37.18,37.18,0,0,1,7.7-7.25c6.34-4.4,13-6.53,20.44-5.35.74,1.55,1.46,3.06,2.18,4.59a23,23,0,0,0-1,3.1,39.29,39.29,0,0,1-8.55,18c-4.42,5.23-9.38,10-14.18,14.9-1.53,1.57-3.36,2.86-4.93,4.4-.53.52-1.13,1.63-.91,2.12,3.05,6.93,7.43,12.6,15.25,14.39,2.52.58,5.57,1.31,7.7.4a16.75,16.75,0,0,1,6.26-1.33c3.58,0,3.85-2.76,4.12-4.5.21-1.37-1.41-3.69-2.83-4.52-2.4-1.39-5.29-1.94-8-2.85,1.93-2.55,3.79-4.93,5.58-7.37,3.56-4.86,7.23-9.66,10.59-14.67s4.7-11,6-16.89C721.79,673.56,718.68,666.52,711.94,662Z"/><path d="M703.14,454.18c.71-7.9,1-15.86,2.18-23.69,1-6.74.34-9.36-5.18-12.39-3.65-2-10.53.47-11,4.06-.55,4.68-.91,9.38-1.32,14.07-.45,5.11-.65,10.26-1.36,15.34A116.4,116.4,0,0,0,686,478c.19,2.15.24,4.64,1.35,6.31,2.38,3.57,5.41,6.7,8.16,10,5.87-4.79,6.07-5.73,5.83-12.77a141,141,0,0,1,.56-14.52C702.17,462.69,702.75,458.44,703.14,454.18Z"/><path d="M608,580.8c.46-4.77,1.33-9.5,1.83-14.26a7.63,7.63,0,0,0-3.56-7.7c-3.25-2.29-6.49-2-10-1.83-2.13.09-2.93,1.1-3,3.17-.37,7.05-.82,14.09-1.31,21.13-.35,5-.8,10-1.21,15-.22,2.61-.08,5.32-.77,7.8a5,5,0,0,0,.25,4.27c.16.28,0,.74,0,1.1.8,3.81,1.19,7.79,2.58,11.38.9,2.32,3.12,4.23,5,6,2.58,2.43,3.4,2.18,4.92-1l2.62,2.75c2.63-2.7,2.79-5.22,2.08-8.41a64.75,64.75,0,0,1-1.36-13.11c-.06-3.93.66-7.87.94-11.81C607.45,590.51,607.56,585.64,608,580.8Z"/><path d="M703.44,751.38c-.48,0-.9-.72-1.37-1.06a9,9,0,0,0-1.48-.94c-2.65-1.25-4.5.69-6.6,1.65-2.63,1.21-2.91,2.76-2,5.48,1.06,3.08,3.59,4.51,5.79,6.38.76.65,7.2,1.59,8,1.06a2.74,2.74,0,0,0,1.08-1.14c.68-1.82,1.24-3.69,1.85-5.54C708.44,753.37,707,751.71,703.44,751.38Z"/></g></svg>