<svg xmlns="http://www.w3.org/2000/svg" viewBox="0 0 1024 1024"><defs><style>.cls-1{fill:#c6ddef;}.cls-2{fill:#535353;}.cls-3{fill:none;}.cls-4{fill:#e36681;}.cls-5{fill:#f2a345;}</style></defs><title>mb-panel-b-4</title><g id="Ebene_2" data-name="Ebene 2"><path class="cls-1" d="M414.89,581.69c.24,2.65.24,2.65-2.44,6.31a19,19,0,0,1-3.72-.36,15.39,15.39,0,0,1-10.25-9,16.23,16.23,0,0,1-.81-3.21c-.41-2-.77-4-1.26-6.49-1.23,1.54-2.23,2.8-3.24,4.05a2.17,2.17,0,0,1-.48.52c-1.84,1.25-3.71,2.44-5.52,3.72-2,1.41-3.82,3-5.88,4.3-5.16,3.17-10.87,5.39-16.86,4.81-3.67-.35-7.78-1.45-10.08-5.35-1.26-2.14-2.91-2.33-5.07-1.2-4.37,2.27-8.58,5-13.16,6.66a84.09,84.09,0,0,1-14.84,3.6,24.46,24.46,0,0,1-13.35-1.89c-5.57-2.28-10.52-5.42-13.34-11-1.5-3-1.56-6.27-1.2-9.55.77-7.2,4.16-13.18,8.18-19.07,2.32-3.4,5.69-5.48,8.18-8.4,2.62-3.08,6.24-4.23,9.17-6.57,1.37-1.09,3.71-1.21,5.64-1.34,3.92-.28,7.95-.71,11.63,1a4,4,0,0,1,1.87,3.21,17.56,17.56,0,0,1-2.32,5.53,2.23,2.23,0,0,1-2.09.65c-4-2.24-7.47-.3-10.32,1.9a48.51,48.51,0,0,0-16.47,22.7c-1.85,5.3.92,9.3,6.47,11s10.95.82,16.28-1.34c2.85-1.15,5.94-1.67,8.82-2.76a33.51,33.51,0,0,0,4.74-2.72c1.82-1.05,3.69-2,5.45-3.14a2.76,2.76,0,0,0,1.14-1.75c.58-5.05.95-10.13,1.58-15.17.31-2.4,1.1-4.73,1.57-7.11.63-3.14,1.13-6.3,1.75-9.44.46-2.28,5.32-4.06,7.73-2.81,6.36,3.28,5.38,2.29,4.35,9.62-.64,4.58-2.07,9-2.82,13.61a74.67,74.67,0,0,0-.57,9.36q-.12,3.63,0,7.28c.08,2.54,1,3,3.43,2.6,4-.57,7.25-2.81,10.83-4.35s6.26-4,9.48-5.86q3.63-2.07,7.36-4c.47-.24,1.17,0,1.95,0,.24-2.28.6-4.69.73-7.11.24-4.55.62-9.13.42-13.66a6.06,6.06,0,0,1,8.22-5.67c3.67,1.23,4.83,3.42,4.49,7.32-.24,2.72.06,5.49-.1,8.23-.26,4.52-.94,9-1,13.54-.06,4.76-.53,9.63,2.3,14,1.09,1.7,1.19,4.06,3.5,4.91Z"/><path class="cls-1" d="M415,581.77c-.69-1.88-1.77-3.72-2-5.65a15.47,15.47,0,0,1,.64-6.67,80.42,80.42,0,0,1,4.77-10.12c1.82-3.41,3.45-7.06,6-9.91,2.78-3.17,5.65-6.61,10.14-7.77.94-.24,1.7-1.1,2.62-1.48a12.45,12.45,0,0,1,13.29,2.92c1.69,1.85,1.31,3.32.29,5.56-1.21,2.62-3.53,2.5-5.52,3.34-.51.22-1,.5-1.71.87-.3-1.15-.58-2.21-.89-3.38-9.12,6.87-14.19,15.89-16.95,26.69,3.62,1.17,6.45.14,9.27-.91,2.32-.86,4.69-1.61,6.94-2.63a37.43,37.43,0,0,0,5.49-3.08c2.75-1.86,5.79-1.77,8.76-1.58a55.14,55.14,0,0,1,0-5.61c.42-3.92,1.06-7.81,1.51-11.73.24-2,0-4.13.48-6,.85-3.16.07-6.9,3.23-9.32,1.67-1.27,3.27-1.72,5.23-.69,1.41.74,3.15.44,4.1,2.5a8.32,8.32,0,0,1,1,5.52c-1.06,5.74-1.73,11.54-2.54,17.32a11.72,11.72,0,0,0,.07,1.68c3.44-1,6-3.25,8.46-5.47,5.6-5,11-10.28,16.63-15.31a38.67,38.67,0,0,1,5.34-3.38,18.15,18.15,0,0,0,3.53,1.75c2.7.72,2.75,2.94,3.13,5a2.06,2.06,0,0,1-.38,1.55c-3,3.36-5.95,6.9-9.29,9.95-4.38,4-9.13,7.53-13.68,11.32a18.46,18.46,0,0,0-2,2.53c3.32,1.58,6.52,3.12,9.74,4.62a42.88,42.88,0,0,0,5.1,2.17c1.42.44,3,.44,4.43.74a27.09,27.09,0,0,1,3.85,1.06,1.55,1.55,0,0,1,.77,1.07c.51,2.78-1.85,5-3.89,4.38-1.12.87-1.91,2-2.74,2a29.48,29.48,0,0,1-6.63-.51,26.78,26.78,0,0,1-6.36-1.82c-4.47-2-8.82-4.31-13.2-6.53a5.65,5.65,0,0,1-1.22-1.13c-1.12.88-1.12.88,0,4.13,6.38.9,6.38.9,7.31,5.44-1.31,1.5-2.55,3.1-4,4.49a4.92,4.92,0,0,1-2.64,1.32c-2.6.3-4.69-.86-6.94-2.23-5.34-3.25-7-8.2-7.54-13.89,0-.19-.32-.35-.48-.52-2.27,2-4.41,4.14-6.84,5.9-2.18,1.58-4.79,2.55-7,4.1-3.94,2.75-8.59,3.24-13,4.43a4.31,4.31,0,0,1-1.5-.12,18.69,18.69,0,0,1-4.47-.63,27.38,27.38,0,0,1-5.64-3.09,21.73,21.73,0,0,1-3.12-3.23Z"/><path class="cls-1" d="M640.92,543.52c0,.66-.36,1.46-.1,2,.9,1.71.53,3-1.29,3.51-4,1.18-8.1,1.21-12.21,1.5-3.57.25-7.08,1.45-10.57,2.37-1.82.48-3.5,1.53-5.33,1.89-2.26.45-2.76,2-3.12,3.83-.28,1.37-.51,2.75-.79,4.28a2.45,2.45,0,0,0,1,.08c4.56-1.39,9.22-2.57,13.64-4.33,3.69-1.47,7.1-.67,10.62.09,1.14.25,1.85,3.08,1.12,4.14s-1.22,2-1.92,2.93a4.73,4.73,0,0,1-1.41,1.08c-.85.51-1.75.93-2.6,1.44-.4.24-.67.76-1.09.91-5.17,1.84-10.35,3.68-15.56,5.42-2.62.88-4.82,3.94-3.91,5.9.29.6,1.3,1.37,1.8,1.26a38.53,38.53,0,0,0,5.05-1.72,62,62,0,0,0,6.73-2.6,116,116,0,0,0,11.89-6.67c2.11-1.42,3.11,1,4.73.59a14.65,14.65,0,0,1,.69,3.13c0,3.5-2.79,5.4-4.72,7.78a.59.59,0,0,1-.44.16c-2.57-.25-3.12,2.38-4.82,3.36-2.27,1.32-4.5,2.71-6.82,3.92s-4.75,2.34-7.18,3.37a11.78,11.78,0,0,1-10-.61c-7.67-3.8-10.68-10.55-11-18.81-.18-4.43.9-8.56,2.21-12.76a128.51,128.51,0,0,0,3.08-13.52c.55-2.74,2.91-5.58,6.28-4.59s6.6-.23,9.77-.91c3.81-.82,7.63-2.18,11.48-1.89s7.79,1.62,11.67,2.53C638.82,542.78,639.83,543.18,640.92,543.52Z"/><path class="cls-1" d="M560.9,582.62c1,3.11,1.91,5.94,2.94,8.71a7.24,7.24,0,0,0,1.64,2.17c1.47,1.59,1.71,5.19.33,6.85a2.67,2.67,0,0,1-1.34.67,9.12,9.12,0,0,1-1.42.23l-2.61-.3c-.36,0-.78,0-1.05-.11a36.49,36.49,0,0,1-3.95-2.49,4.1,4.1,0,0,1-1-1.41c-1.05-1-1.89-1.44-2.19-2.12a49.92,49.92,0,0,1-4.43-17.28c-.34-6.62-1.19-13.22-1.88-19.82-.21-2-.72-4-.94-6.07-.59-5.7,3.36-7.51,7.9-6.93,2.46.31,4.53,3.36,4.69,5.86.21,3.48.64,6.95.95,10.42.21,2.4.35,4.79.54,7.37l6.17-2.68c1.07-.46,2.13-1,3.23-1.33,3.84-1.26,4-1.54,3.5-5.41-.54-4.48-1-9-1.34-13.46-.21-2.68.91-4.26,4.19-5.18a6.17,6.17,0,0,1,4.77.73c2.41,1.85,3.43,4.66,3.6,7.8.2,3.88.66,7.75,1,11.55,3,.25,6.17.07,7.39,3.27l-1.79,3.19c-.88.07-2.76-.31-2,2.24.08.31-1.55,1.11-2.72,1.92,1.51,6.39,3.16,12.91,4.53,19.49a12.73,12.73,0,0,1-.35,5.58c-.2.74-1.61,1.41-2.58,1.65s-2.32.45-2.58-1.29a1.68,1.68,0,0,0-1.11-1c-3.45-.73-4.57-2.14-5.17-5.53-.4-2.27-1.53-4.4-2.1-6.64a49.74,49.74,0,0,1-1.38-7.62c-.12-1.43-.27-1.9-1.59-1.08-2.57,1.62-5.15,3.21-7.66,4.9C563.62,580.42,562.3,581.55,560.9,582.62Z"/><path class="cls-1" d="M697.06,553.12c-2.88-.48-3.94-3-5-5.11-.37-.72.26-2.49,1-3.16,3.8-3.42,8.28-5.78,13.43-5.91a164.49,164.49,0,0,1,18,.59,49.72,49.72,0,0,1,9.74,2.29,64.19,64.19,0,0,1,7.51,2.94,2.15,2.15,0,0,1,.82,1.72c0,.68-.38,1.74-.87,1.93a29.41,29.41,0,0,1-6.92,2.18,86.24,86.24,0,0,1-9.92.31c-4.63,0-9.25,0-13.41,0-1.64,4.22-3.15,8.11-4.71,12.15,2.44-.8,5-1.73,7.59-2.47a34.77,34.77,0,0,1,6.42-1.35c1-.09,2.1.75,3,1.5,1.55-.27,3.08-.41,3.77,1.62.57,1.67,1.26,3.07-.69,4.79-3.68,3.25-8.25,4.24-12.54,6-.69.28-1.43.45-2.14.67l.15.82a46.69,46.69,0,0,0,4.87-1,41,41,0,0,0,7.49-3.2c2.78-1.52,7.05,2,6.78,5.22a3.52,3.52,0,0,1-.75,1.41c-.86,1.27-1.74,2.51-2.62,3.75-.27.39-.47.94-.84,1.11-4.71,2.24-9.08,5.35-14.78,4.83-3.55-.33-7.16-.52-10.29-2.14-2.13-1.09-3.72-3.23-5.55-4.89-.72-.65-1.47-1.26-2.2-1.9-1.51-1.33-3.35-2.45-4.4-4.07-.66-1-.73-3.48,0-4.14,2-1.83,1.85-4.33,2.78-6.46C694.23,559.88,695.6,556.58,697.06,553.12Z"/><path class="cls-1" d="M675.24,573.72c1.17.84,2.48,1.85,3.86,2.74,3.06,2,6.24,3.79,9.18,5.92a4.79,4.79,0,0,1,2,3.35c0,.84-1.61,1.83-2.69,2.39-4.12,2.16-7.77-.3-11.36-1.63a68.29,68.29,0,0,1-9.65-5.06c-2-1.15-3.91-2.54-5.86-3.83l-.77.48a18.71,18.71,0,0,0,.41,3.36c.83,2.84-1.14,6.66-4,7a7,7,0,0,1-3.8-.87c-1.06-.54-1.79-1.68-2.73-2.46-3.16-2.63-2.2-6.33-2.28-9.6-.16-5.75.56-11.54.17-17.26-.2-2.87.16-4.94,2.29-6.7.53-.45,1.33-1.15,1.79-1,2.63.78,3.1-1.57,4.28-2.79,4.77-4.88,9.75-9.17,17.23-8.93,6.64.2,11.7,4.06,14.39,10.19,2.5,5.7,1,10.36-2.27,14.93a48.32,48.32,0,0,1-4.78,6.1C679.16,571.5,677.18,572.43,675.24,573.72Zm.21-19.77c0-3-1.39-4.8-3.37-3.86-2.38,1.12-5,2.48-6.5,4.51-2,2.65-2.91,6-4.16,9.15-.16.39.52,1.6.81,1.6,2.63,0,5.29-.12,7.39-2.07.91-.85,1.73-1.8,2.66-2.62C674.3,558.86,675.73,556.82,675.45,554Z"/><g id="AyaUQE"><path class="cls-1" d="M238.3,380.75c2.15-1.16,3.76-1,6.22,0,3.21,1.28,4.09,3.18,5.16,5.89,1.84,4.69,6.39,5.19,9.72,1.22,2.84-3.38,5.56-6.87,8.26-10.37,2.25-2.9,4.47-5.73,7.88-7.47,1.52-.77,2.6-2.37,4-3.44,2.62-2,5.46-.76,8.18-.25a13,13,0,0,1,3,1.32c4,1.89,5.24,5.62,6,9.49,1.49,7.72-.86,14.64-4.7,21.25-1.41,2.42-2.32,5.11-3.68,7.56-2.63,4.75-5.42,9.42-8.15,14.13-.21.36-.67.71-.67,1.06,0,4.69-3.86,5.6-6.6,7.17a32.62,32.62,0,0,1-4.12-2c-2.22-1.48-3.26-5.5-1.92-8.14,2.16-4.29,4.67-8.4,6.85-12.68,1.29-2.55,2.26-5.27,3.31-7.93,1.91-4.82,3.78-9.64,5.66-14.47a3.24,3.24,0,0,0,.25-1.18c0-.2-.3-.4-.7-.89-3.52,4.51-6.73,9.06-10.42,13.18-2.49,2.79-5.35,5.58-8.63,7.21-2.05,1-4.05,2.88-7,2.45-6.54-.93-12-3.36-15.75-9a29.94,29.94,0,0,0-2.45-2.85c-3.35,6.43-7.16,12.44-14.87,15.52,2.86,1.34,5.63,2.46,8.23,3.89,3.69,2,7.29,4.23,10.84,6.5a2.56,2.56,0,0,1,1,2.23c-.51,1.12-1.39,2.6-2.4,2.86a19.84,19.84,0,0,1-11.06-.39c-4-1.26-8.23-2.09-11.79-4.12-2.69-1.53-5.74-2.32-8.22-4.24a34.37,34.37,0,0,0-4.5-2.77,13.65,13.65,0,0,0-2.49-.68c.64,3.62.85,6.9,1.83,9.93,1.25,3.89,0,6.86-2.38,9.67a2.43,2.43,0,0,1-1.62.55c-5.13.18-9.76-3.88-10.55-9.47-.94-6.69-1.17-13.48-1.67-20.22-.36-4.74-.65-9.48-1-14.21-.13-1.63-.4-3.25-.54-4.88-.1-1.22,3-4.68,4.23-4.29,3.1.95,3.55-1.85,4.33-3.17,2.42-4.12,6.09-6.59,10.1-8.61,7.08-3.55,13.61-1.9,20.39,1.7,5.35,2.84,8.84,6.93,11.77,11.86A11.72,11.72,0,0,0,238.3,380.75Zm-36.57,17.47,6-1.2c3.46-.72,7.49-.57,10.27-2.35,5.35-3.44,8.71-8.22,4.29-14.85-1.24-1.86-6.33-5.06-8-4.18-2.79,1.5-5.83,3.22-7.68,5.67C203.14,386,202.67,391.94,201.73,398.22Z"/><path class="cls-1" d="M601.38,424c.23-.74.24-1.68.71-2.19,9.1-9.87,13.91-22.22,19.9-33.9a63.29,63.29,0,0,1,6.27-9.17c1.47-1.93,6.37-2.46,8.92-1.27,2.21,1,3.92,4.51,3.6,7.12-.56,4.51-.91,9.06-1.61,13.56-.64,4.2-1.84,8.32-2.38,12.53-.75,5.82-2.48,11.69,0,17.53.52,1.23,1.31,2.57,1.21,3.79a6.49,6.49,0,0,1-1.79,4c-.68.61-2.47.47-3.56.1-8-2.71-9.82-9.28-10.23-16.69-.05-.87,0-1.74-.06-2.61,0-.14-.15-.27-.46-.81a39.13,39.13,0,0,1-3,5c-3.65,4.36-7.23,8.82-11.29,12.79-3.32,3.25-8.27,3.86-12.75.93-3.78-2.48-5.78-5.75-7.18-10a19.93,19.93,0,0,1-1.39-8c.2-2.3.72-4.57,1.07-6.86.3-2,.48-4,.85-6,.79-4.09,1.55-8.2,2.55-12.24a46.53,46.53,0,0,1,2.51-7.14c.71-1.66,1.25-3.07,3.74-3.75,3.58-1,5.52-1.46,7.2,1.5a8.42,8.42,0,0,1,.88,5.49c-1.38,6-3.63,11.86-4.72,17.92-.91,5-2.17,10.21-.47,15.4a8.76,8.76,0,0,1,.2,1.86Z"/><path class="cls-1" d="M508.08,406.41c6.12-1.55,10.44-4.82,14.2-9.17,2.85-3.3,6.35-6.05,9.09-9.43,2.22-2.74,3.67-6.11,5.6-9.1a24.85,24.85,0,0,1,4.31-5.65c3-2.59,8.66.27,9.46,4.18a6.78,6.78,0,0,1-1.68,6.33c-.47.57-.28,1.65-.6,2.41-1.94,4.51-3.89,9-5.94,13.46-2.13,4.6-4.35,9.17-6.61,13.71-1.24,2.5-2.66,4.91-4,7.37-2.49,4.65-5.22,9.2-7.35,14-1.25,2.83-1.39,6.12-2.28,9.13a25.61,25.61,0,0,1-2.14,4.29h-3.9a21.75,21.75,0,0,0-2.22-1.3c-3.35-1.62-4-2.87-3.79-6.6.33-5.67,2.49-10.75,4.81-15.8a40.75,40.75,0,0,0,2.44-7c-2.38,3.27-6,2.75-8.78,2.34s-5.85-2.25-8.24-4.15c-6.6-5.21-8.13-12.17-6.22-20.2,1.19-5,1.86-10.08,3-15.06.21-.9,1.56-1.76,2.58-2.22,4.7-2.16,6.48-1.51,9,2.88.36.61,1.16,1,1.88,1.53C508.93,390.11,505.71,397.77,508.08,406.41Z"/><path class="cls-1" d="M690.29,434.63c-5-2.28-10.26-4.06-14.8-7s-8.49-7.13-12.73-10.8a20,20,0,0,0-1.16,10,6.63,6.63,0,0,1-2.53,6.54c-2.14,1.85-4.4,1-6.4,0-4.44-2.09-5.25-5.95-5.17-10.19.14-7.69,3.16-14.47,5.77-21.42.38-1,.37-2.22.82-3.2,1.16-2.52,1.18-5.53,4.53-7,2-.87,3-3.63,4.9-5.06,3-2.33,6.07-5.11,9.58-6.2,5.85-1.82,11.83-2.81,17.74,1.47,3.18,2.3,5.88,4.45,6.73,8.21.9,3.95.86,7.94-1.48,11.56-1.85,2.87-3.37,6-5.59,8.56a43.34,43.34,0,0,1-7.42,6.08c-1.27.92-2.27,1.5-.23,2.51,3.32,1.64,6.66,3.24,10,4.85.15.07.43,0,.51.07.32.37.89.85.83,1.18-.51,2.46,3.72,4.14,1.09,6.87a3,3,0,0,1-1,.74c-1.23.45-2.49.83-3.73,1.23C690.43,434,690.36,434.3,690.29,434.63Zm-24-27.89c2.21.17,4.17.87,5.65.3a17.91,17.91,0,0,0,6.92-4.27c2.54-2.85,5.12-6,4.87-10.32-.06-1,.06-1.58-1.53-1.55-2.85.05-5.57,0-7.67,2.27-1.53,1.69-3,3.44-4.59,5.1C667.67,400.7,667.05,403.76,666.33,406.74Z"/><path class="cls-1" d="M792.29,382.89c-1.11.54-2.44,1.65-3.85,1.78-2.1.18-4.26-.38-6.41-.54-4.68-.34-9.37-.62-14.06-1-.84-.07-1.67-.31-2.58-.48-.64,5.17-1.27,10.29-1.94,15.67,4.34-.45,8.48-.92,12.64-1.29a28.41,28.41,0,0,1,6-.13,4.2,4.2,0,0,1,2.48,1.91c2.84,4.46.57,8.68-4.81,9.54s-10.39,2-15.6,3a31.44,31.44,0,0,1-3.6.24,36.1,36.1,0,0,0,1.77,6.17,3.63,3.63,0,0,0,3,1.48c5.27-.57,10.7-.82,15.71-2.36,3.42-1.06,5.32,1.09,7.87,1.48-.08,1.44-.15,2.75-.25,4.5-1.08.93-2.52,2.12-3.89,3.38a16,16,0,0,1-6.82,3.4c-3.45,1-6.87,1.72-10.35,2.49s-6-.73-8.72-1.63c-6.39-2.15-10.11-7.27-11.61-13.62-.88-3.71-1.51-7.31-3.53-10.69a3.12,3.12,0,0,1,2.2-4.51c2-.51,2.62-1.6,3-3.52,1.06-5,2.46-9.86,3.63-14.81a3.27,3.27,0,0,0-.56-2c-.57-1.05-1.37-2-1.94-3a3.81,3.81,0,0,1,1.93-5.46,35.65,35.65,0,0,1,19.63-1.8c2.95.51,6,.7,8.81,1.64,4.33,1.44,8.5,3.38,12.7,5.19a1.49,1.49,0,0,1,.54,1.34C793.31,380.51,792.77,381.65,792.29,382.89Z"/><path class="cls-1" d="M919.69,385c.36,1,.63,1.8.89,2.57a16.65,16.65,0,0,0-2.22.52c-.34.13-.52.66-.85.87a7.81,7.81,0,0,1-2.76,1.5c-1.72.24-3.74.57-5.2-.09-4.11-1.84-8.77-.31-12.76-2.44-.95-.51-2-.86-2.92-1.44-1.33-.83-2-.48-2,1s.24,2.9.42,4.79c2.06-.25,3.9-.57,5.75-.66,4.07-.2,8.09.6,12.11.79,2.68.12,3.1,1.81,4.07,3.21.72,1-1.45,2.48.13,3.69-1.06.85-2,2.12-3.21,2.46-3,.86-6.16,1.26-9.25,1.9-2.6.53-5.2,1.06-7.75,1.77a2.25,2.25,0,0,0-1.2,1.62c-.61,4.25-1,8.54-1.67,12.79-.3,2-1.08,3.92-1.53,5.9-.63,2.77-3.11,3.4-5.13,4.54a1.4,1.4,0,0,1-1.26,0A44.13,44.13,0,0,1,877,425c-.71-.81-.27-2.76-.12-4.16.4-3.81.93-7.6,1.38-11.13-1.7.66-3.65,1.39-5.57,2.19-3.1,1.29-4.38.77-7.22-1.84a12.85,12.85,0,0,1-2.24-2.37c-2.09-3.29-1-6.27,2.74-7.76q5.25-2.12,10.52-4.2c1.57-.62,2.28-1.27,1.91-3.41-.78-4.53-.81-9.19-1.29-13.77a11.9,11.9,0,0,0-1.23-4.6,5.26,5.26,0,0,1,0-6.05c1.4-2.15,3.7-2.22,5.89-2.56,2.74-.42,4.46,1,6.42,2.76a49.42,49.42,0,0,0,10.27,7.55c4.22,2.21,9.16,2.44,13.83,3.38,3,.59,6.36.34,8.29,3.71C921.53,384.36,921.06,384.69,919.69,385Z"/><path class="cls-1" d="M588.37,389.59c.17,4.72-1.66,8.77-3.65,13a30.68,30.68,0,0,1-5,7.89c-3,3.25-5.82,6.72-9.17,9.55a86,86,0,0,1-13.44,9.73c-5.33,2.94-10.68,5.35-16.69-.41-1.72-1.65-3.62-3.34-4.65-5.41a7.47,7.47,0,0,1-.07-5.43A97.06,97.06,0,0,1,542,404.86a157.8,157.8,0,0,1,10.26-15.27c3.08-4.12,7.26-7.17,11.64-9.87a1.29,1.29,0,0,1,1-.16c4.05,1.67,5.77-2.06,8-3.86,2.82-2.33,7-2.89,9.76,0a23.81,23.81,0,0,1,4.5,5.85c.92,1.92.89,4.3,1.24,6.48A10.28,10.28,0,0,1,588.37,389.59ZM549.8,417.74l.59.44c10.76-4.83,25.76-18.86,25.57-32.61l-3.08,4.63c-.46-.15-1.31-.7-1.62-.48a28.47,28.47,0,0,0-5.2,4.15,84,84,0,0,0-7,9C555.85,407.72,552.89,412.77,549.8,417.74Z"/><path class="cls-1" d="M822,385c-.67,2.09-1.21,4.24-2,6.27-2,4.81-4.48,9.44-6,14.39-1.21,4-1.43,8.39-1.72,12.62-.16,2.34,1.57,3.2,5.14,2.91,8.33-.68,16.1-3.25,23.66-6.74a71.62,71.62,0,0,1,9.75-3.4,3.66,3.66,0,0,1,4.77,2.36,5.19,5.19,0,0,1-2,6c-5.48,3.24-10.78,6.85-16.47,9.68-3.5,1.74-7.59,2.31-11.42,3.41a26.48,26.48,0,0,1-3.46.95,26.92,26.92,0,0,1-5.91.49,31,31,0,0,1-7.14-1.49c-4.5-1.53-7.34-4.82-9.63-9-4-7.23-1.24-14,.92-20.78,1.94-6.05,4.63-11.86,7-17.78.32-.79.64-1.59.92-2.39,1.12-3.2,2.72-4.28,6-4.57C818.27,377.58,821.54,379.59,822,385Z"/><path class="cls-1" d="M145.17,388.91c-3.17,1.47-6,2.87-8.86,4.1-2.48,1.06-6.69-.71-7.85-3.17-.11-.22-.15-.49-.26-.72-.76-1.46-2.53-3.52-2.08-4.27a11.78,11.78,0,0,1,5-4.52c3.67-1.67,7.66-2.64,11.46-4.05,2.36-.87,4.9-1.42,6.73-3.42.3-.33,1.19-.25,1.77-.15a51.65,51.65,0,0,0,6.19,1.13c2.85.13,5.72-.29,8.58-.26,2.37,0,4.73.35,7.1.53a13.88,13.88,0,0,1,3,.22c2.4.76,5,1.38,7,2.7,1.12.7,1.39,2.74,2.19,4.47-4.31,1.67-8.5,3.48-13.6,2L170.25,385c-2.29.42-4.47.81-6.65,1.22a41.83,41.83,0,0,0-4.47,1,1.81,1.81,0,0,0-.71,1.48c.44,5.58,1,11.16,1.43,16.74.41,5.37.77,10.75,1,16.13a39.28,39.28,0,0,1-.44,5.91,2.35,2.35,0,0,1-.64,1.33c-.91.88-1.92,1.66-3.2,2.74a34.59,34.59,0,0,1-5.55-3.29c-2.59-2.19-2.67-5.58-3.11-8.64-.83-5.77-1.58-11.56-2.05-17.37-.31-3.8-.07-7.64-.12-11.47A7.88,7.88,0,0,0,145.17,388.91Z"/><path class="cls-1" d="M722.18,422.36c-2.65-2.07-5.13-3.82-7.39-5.81-4.5-4-7.42-9.14-7.71-15a18.63,18.63,0,0,1,4.26-12.78,25.41,25.41,0,0,1,17.14-9.12c3.27-.4,6.77.69,10.1,1.41,2.45.53,5.17,5,4.93,7.42s-3.53,4.73-5.78,3.79c-6-2.5-10.85.53-15.3,3.64-3.81,2.68-2.32,10.16,2.18,13.69,3.42,2.68,6.83,5.37,10.12,8.21,2.66,2.3,4.39,5.11,4.1,8.88a6.14,6.14,0,0,1-4,5.27c-2.17.87-4.1,2.46-6.32,3a20.26,20.26,0,0,1-7.93.48,57.33,57.33,0,0,1-9.68-3c-4.75-1.71-6.16-6.22-7.93-10.23-.38-.87.71-3.35,1.59-3.62a9.17,9.17,0,0,1,5.81,0c3.31,1.33,5.94,4.33,9.93,4C720.83,422.6,721.36,422.49,722.18,422.36Z"/><path class="cls-1" d="M405.6,391.44c-4.09-.25-8.17-.54-12.25-.75a19.15,19.15,0,0,1-9.27-2.43c-2-1.25-4.34-4.48-4-6.18.58-2.54,3.66-5.12,6.43-5,3.45.17,6.88.68,10.33,1a38.7,38.7,0,0,0,4,0c9-.12,18-.58,26.94-.17,2.94.14,7-.56,8.89,3.4.23.47,1.29.54,2.83,1.12-2.12,1.57-3.81,2.87-5.55,4.1a14.86,14.86,0,0,1-3.31,2,19.64,19.64,0,0,1-5.9,1.42c-4.13.07-5.53,2.6-6.52,6-.85,2.9-2.3,5.64-3,8.57a57.42,57.42,0,0,0-.77,8.53c-.19,2.75-.4,5.5-.43,8.25,0,1.7.63,3.46.38,5.1a40.13,40.13,0,0,1-1.87,6.16c-3.35-.35-6.59-.23-8.42-2.91-1.44-2.12-2.93-4.69-3-7.13a89.32,89.32,0,0,1,.7-16.59C402.59,401,404.32,396.28,405.6,391.44Z"/><path class="cls-1" d="M354.09,415.57c.86-5.14,1.81-11.32,2.94-17.46s2.29-12.24,3.68-18.31c.54-2.37,1-5.14,3.92-6,1.74-.51,4.07-1.78,5.18-1.11,2.15,1.29,3.81,3.58,5.28,5.73.5.73-.1,2.3-.35,3.45-1,4.55-2.1,9.07-3.08,13.62s-2.11,8.83-2.66,13.31a117.79,117.79,0,0,0-.55,13c0,1.5.72,3.07.49,4.51-.27,1.66-.81,3.79-2,4.64s-3.32.48-4.81,0C355.28,428.59,355,422.49,354.09,415.57Z"/><path class="cls-1" d="M928.36,423.28c3.32,1.07,7.14.76,8.67,4.42a10.05,10.05,0,0,1,.17,5.18c-.17,1.09-1.19,2-1.8,3.06-1,1.63-2.08,2-4,1.34s-4.43-.35-6-2.43c-2.94-3.9-4.92-6,.41-10.32A12.29,12.29,0,0,1,928.36,423.28Z"/></g></g><g id="Ebene_1" data-name="Ebene 1"><path d="M404.89,571.69c.24,2.65.24,2.65-2.45,6.31a19.15,19.15,0,0,1-3.72-.36,15.39,15.39,0,0,1-10.24-9,16.41,16.41,0,0,1-.81-3.21c-.41-2-.77-4-1.26-6.49-1.23,1.54-2.23,2.8-3.24,4.05a2.42,2.42,0,0,1-.49.52c-1.83,1.25-3.7,2.44-5.51,3.72-2,1.4-3.82,3-5.88,4.3-5.16,3.16-10.87,5.39-16.86,4.81-3.67-.35-7.78-1.45-10.08-5.35-1.26-2.14-2.91-2.33-5.07-1.2-4.37,2.27-8.58,5-13.16,6.66a84.09,84.09,0,0,1-14.84,3.6,24.46,24.46,0,0,1-13.35-1.89c-5.57-2.28-10.52-5.42-13.34-11-1.5-3-1.56-6.27-1.2-9.55.77-7.2,4.16-13.18,8.18-19.07,2.32-3.4,5.69-5.48,8.18-8.41s6.24-4.22,9.17-6.56c1.37-1.1,3.71-1.21,5.64-1.35,3.92-.27,7.95-.7,11.63,1a4,4,0,0,1,1.87,3.21,17.56,17.56,0,0,1-2.32,5.53,2.24,2.24,0,0,1-2.09.65c-4-2.24-7.47-.3-10.32,1.9a48.54,48.54,0,0,0-16.47,22.69c-1.85,5.31.92,9.31,6.47,11s10.95.82,16.28-1.34c2.85-1.15,5.94-1.68,8.82-2.76a33.51,33.51,0,0,0,4.74-2.72c1.82-1.05,3.69-2,5.45-3.14a2.76,2.76,0,0,0,1.14-1.75c.58-5.05.95-10.13,1.58-15.17.31-2.4,1.09-4.73,1.57-7.11.63-3.14,1.13-6.3,1.75-9.44.46-2.29,5.32-4.06,7.73-2.81,6.36,3.28,5.38,2.29,4.35,9.62-.64,4.58-2.07,9-2.82,13.61a74.67,74.67,0,0,0-.57,9.36q-.12,3.63,0,7.28c.08,2.54,1,3,3.43,2.6,4-.57,7.25-2.81,10.83-4.35s6.26-4,9.48-5.86c2.42-1.38,4.87-2.72,7.36-4,.47-.24,1.17,0,1.95,0,.24-2.28.6-4.69.73-7.11.24-4.56.62-9.13.42-13.67a6,6,0,0,1,8.21-5.66c3.68,1.23,4.84,3.42,4.5,7.32-.24,2.72.06,5.49-.1,8.23-.26,4.52-.94,9-1,13.54-.06,4.76-.53,9.63,2.3,14,1.09,1.7,1.19,4.06,3.5,4.91Z"/><path d="M405,571.77c-.69-1.88-1.77-3.72-2-5.65a15.47,15.47,0,0,1,.64-6.67,80.42,80.42,0,0,1,4.77-10.12c1.82-3.41,3.45-7.06,6-9.91,2.78-3.17,5.64-6.61,10.14-7.77.94-.24,1.7-1.1,2.62-1.48a12.41,12.41,0,0,1,13.29,2.92c1.69,1.85,1.31,3.32.28,5.56-1.2,2.62-3.52,2.5-5.51,3.34-.51.22-1,.5-1.71.87-.3-1.15-.58-2.21-.89-3.38-9.12,6.87-14.19,15.89-16.95,26.69,3.62,1.17,6.44.14,9.26-.91,2.32-.86,4.7-1.61,7-2.63a37.43,37.43,0,0,0,5.49-3.08c2.75-1.86,5.79-1.77,8.76-1.58a55.14,55.14,0,0,1,0-5.61c.41-3.92,1.06-7.82,1.51-11.73.24-2,0-4.13.48-6,.85-3.16.07-6.9,3.23-9.32,1.67-1.27,3.27-1.72,5.23-.69,1.41.74,3.15.44,4.1,2.5a8.32,8.32,0,0,1,1,5.52c-1.06,5.74-1.73,11.54-2.54,17.32a11.72,11.72,0,0,0,.07,1.68c3.44-1,6-3.25,8.46-5.47,5.6-5,11-10.28,16.63-15.31a38.67,38.67,0,0,1,5.34-3.38,18.34,18.34,0,0,0,3.52,1.75c2.71.72,2.76,2.94,3.14,5a2,2,0,0,1-.38,1.54c-3.05,3.37-5.95,6.91-9.29,10-4.38,4-9.13,7.53-13.68,11.32a18.46,18.46,0,0,0-2,2.53c3.32,1.58,6.52,3.12,9.74,4.62a42.88,42.88,0,0,0,5.1,2.17c1.42.44,3,.44,4.43.74a28.45,28.45,0,0,1,3.85,1.05,1.59,1.59,0,0,1,.77,1.08c.51,2.78-1.85,5-3.89,4.38-1.13.87-1.91,2-2.75,2a29.44,29.44,0,0,1-6.62-.51,26.65,26.65,0,0,1-6.36-1.82c-4.47-2-8.82-4.31-13.2-6.53a5.65,5.65,0,0,1-1.22-1.13c-1.12.88-1.12.88,0,4.13,6.38.9,6.38.9,7.31,5.44-1.31,1.5-2.55,3.1-4,4.49a4.86,4.86,0,0,1-2.63,1.32c-2.6.3-4.69-.86-6.94-2.23-5.34-3.25-7-8.2-7.55-13.89,0-.19-.31-.35-.47-.52-2.27,2-4.42,4.14-6.84,5.9-2.18,1.58-4.8,2.55-7,4.1-3.94,2.75-8.59,3.24-13,4.43a4.31,4.31,0,0,1-1.5-.12,18.62,18.62,0,0,1-4.47-.63,27.72,27.72,0,0,1-5.65-3.09,22.7,22.7,0,0,1-3.11-3.23Z"/><path d="M630.92,533.52c0,.65-.36,1.45-.1,2,.9,1.71.53,3-1.29,3.51-4,1.18-8.1,1.21-12.21,1.5-3.57.25-7.08,1.45-10.57,2.37-1.82.48-3.5,1.53-5.33,1.89-2.26.45-2.76,2-3.12,3.82-.28,1.38-.51,2.76-.8,4.29a2.5,2.5,0,0,0,1,.08c4.56-1.4,9.22-2.57,13.64-4.33,3.69-1.47,7.1-.67,10.62.09,1.14.25,1.85,3.08,1.12,4.14s-1.22,2-1.92,2.93a4.86,4.86,0,0,1-1.41,1.08c-.85.51-1.75.93-2.6,1.44-.4.24-.67.76-1.09.91-5.18,1.84-10.35,3.68-15.56,5.42-2.62.87-4.82,3.94-3.91,5.9.28.6,1.3,1.37,1.8,1.26a38.53,38.53,0,0,0,5.05-1.72,62,62,0,0,0,6.73-2.6,114.26,114.26,0,0,0,11.89-6.68c2.11-1.41,3.11,1,4.73.6a14.65,14.65,0,0,1,.69,3.13c0,3.5-2.79,5.4-4.72,7.78a.59.59,0,0,1-.44.16c-2.57-.25-3.12,2.38-4.82,3.36-2.27,1.31-4.5,2.71-6.82,3.92s-4.75,2.34-7.18,3.37a11.78,11.78,0,0,1-10-.61c-7.67-3.8-10.68-10.55-11-18.81-.18-4.43.9-8.56,2.21-12.76a128.51,128.51,0,0,0,3.08-13.52c.55-2.75,2.91-5.58,6.28-4.59s6.6-.23,9.77-.92c3.81-.81,7.63-2.17,11.48-1.88s7.79,1.62,11.67,2.53C628.82,532.78,629.83,533.18,630.92,533.52Z"/><path d="M550.9,572.62c1,3.11,1.91,5.94,2.94,8.71a7.24,7.24,0,0,0,1.64,2.17c1.47,1.59,1.71,5.19.33,6.85a2.58,2.58,0,0,1-1.34.66,8.46,8.46,0,0,1-1.42.24l-2.61-.3c-.36,0-.78,0-1.05-.11a37.63,37.63,0,0,1-4-2.49,4.17,4.17,0,0,1-1-1.41c-1.05-1-1.89-1.44-2.19-2.12a49.92,49.92,0,0,1-4.43-17.28c-.34-6.62-1.19-13.22-1.88-19.82-.21-2-.72-4-.94-6.07-.59-5.71,3.36-7.51,7.9-6.93,2.45.31,4.53,3.36,4.69,5.86.21,3.48.64,6.95.95,10.42.21,2.4.35,4.79.54,7.37l6.17-2.68c1.07-.46,2.13-1,3.23-1.33,3.84-1.26,4-1.54,3.5-5.41-.54-4.48-1-9-1.34-13.46-.21-2.68.91-4.26,4.19-5.18a6.17,6.17,0,0,1,4.77.73c2.41,1.85,3.43,4.66,3.6,7.8.2,3.88.66,7.75,1,11.55,3,.25,6.17.07,7.39,3.27l-1.79,3.19c-.88.07-2.76-.31-2,2.24.09.31-1.54,1.11-2.71,1.92,1.51,6.39,3.16,12.91,4.53,19.49a12.73,12.73,0,0,1-.35,5.58c-.2.74-1.61,1.41-2.58,1.65s-2.32.45-2.58-1.29a1.7,1.7,0,0,0-1.11-1c-3.45-.73-4.57-2.14-5.17-5.54-.4-2.26-1.53-4.39-2.1-6.63a49.74,49.74,0,0,1-1.38-7.62c-.12-1.43-.28-1.9-1.59-1.08-2.57,1.61-5.15,3.21-7.66,4.9C553.62,570.42,552.3,571.54,550.9,572.62Z"/><path d="M687.06,543.12c-2.88-.48-3.94-3-5-5.11-.37-.72.26-2.49,1-3.16,3.8-3.42,8.28-5.78,13.43-5.91a164.49,164.49,0,0,1,18,.59,49.72,49.72,0,0,1,9.74,2.29,64.19,64.19,0,0,1,7.51,2.94,2.15,2.15,0,0,1,.82,1.72c0,.68-.38,1.74-.87,1.93a29.41,29.41,0,0,1-6.92,2.18,86.24,86.24,0,0,1-9.92.31c-4.63,0-9.25,0-13.41,0l-4.72,12.15c2.45-.8,5-1.74,7.6-2.47a34.77,34.77,0,0,1,6.42-1.35c1-.09,2.1.75,3,1.5,1.55-.27,3.08-.41,3.77,1.62.57,1.67,1.26,3.07-.7,4.79-3.67,3.24-8.24,4.24-12.53,6-.69.28-1.43.45-2.14.67l.15.81a47.19,47.19,0,0,0,4.87-1,41,41,0,0,0,7.49-3.2c2.78-1.52,7.05,2,6.77,5.22a3.38,3.38,0,0,1-.74,1.41c-.86,1.27-1.74,2.51-2.62,3.75-.27.39-.47.94-.84,1.11-4.71,2.24-9.08,5.35-14.78,4.83-3.55-.33-7.16-.52-10.3-2.14-2.12-1.1-3.71-3.23-5.55-4.89-.71-.65-1.47-1.26-2.19-1.9-1.51-1.33-3.35-2.45-4.4-4.07-.66-1-.73-3.48,0-4.14,2-1.83,1.85-4.33,2.78-6.46C684.23,549.88,685.6,546.58,687.06,543.12Z"/><path d="M665.24,563.72c1.17.84,2.48,1.85,3.86,2.74,3.06,2,6.24,3.79,9.18,5.92a4.77,4.77,0,0,1,2,3.35c0,.84-1.61,1.83-2.69,2.39-4.12,2.16-7.77-.3-11.36-1.63a68.29,68.29,0,0,1-9.65-5.06c-2-1.15-3.91-2.54-5.86-3.83l-.77.48a18.71,18.71,0,0,0,.41,3.36c.83,2.83-1.15,6.65-4,7a7,7,0,0,1-3.8-.87c-1.06-.54-1.79-1.68-2.73-2.46-3.16-2.63-2.2-6.33-2.28-9.6-.16-5.75.56-11.54.17-17.26-.2-2.87.16-4.94,2.29-6.71.53-.44,1.33-1.15,1.79-1,2.63.78,3.09-1.57,4.28-2.79,4.77-4.88,9.75-9.17,17.23-8.93,6.64.2,11.7,4.06,14.39,10.19,2.5,5.7,1,10.36-2.28,14.93a48,48,0,0,1-4.77,6.1C669.16,561.5,667.18,562.43,665.24,563.72Zm.21-19.77c0-3-1.39-4.8-3.37-3.86-2.38,1.12-5,2.48-6.51,4.51-1.94,2.65-2.9,6-4.15,9.14-.16.39.52,1.61.8,1.61,2.64,0,5.3-.12,7.4-2.07.91-.85,1.73-1.8,2.66-2.62C664.3,548.86,665.73,546.82,665.45,544Z"/><g id="AyaUQE-2" data-name="AyaUQE"><path d="M228.3,370.75c2.15-1.16,3.76-1,6.22,0,3.21,1.28,4.09,3.18,5.16,5.89,1.84,4.69,6.39,5.19,9.72,1.22,2.84-3.38,5.56-6.87,8.26-10.37,2.25-2.9,4.46-5.73,7.88-7.47,1.52-.77,2.6-2.37,4-3.44,2.62-2,5.45-.77,8.18-.25a13.16,13.16,0,0,1,3,1.32c4,1.89,5.24,5.62,6,9.49,1.49,7.72-.86,14.64-4.7,21.25-1.41,2.41-2.33,5.11-3.68,7.56-2.63,4.75-5.42,9.42-8.15,14.13-.21.36-.67.71-.67,1.06,0,4.69-3.86,5.6-6.6,7.17a32.62,32.62,0,0,1-4.12-2c-2.22-1.48-3.26-5.5-1.92-8.14,2.16-4.29,4.67-8.4,6.85-12.68,1.29-2.55,2.25-5.27,3.31-7.93,1.91-4.82,3.78-9.64,5.66-14.47a3.24,3.24,0,0,0,.25-1.18c0-.2-.3-.4-.7-.89-3.52,4.51-6.73,9.06-10.42,13.18-2.49,2.79-5.35,5.58-8.63,7.21-2,1-4,2.88-7,2.45-6.54-.93-12-3.36-15.75-9a31.08,31.08,0,0,0-2.45-2.84c-3.35,6.43-7.16,12.44-14.87,15.52,2.86,1.34,5.63,2.46,8.23,3.89,3.69,2,7.29,4.23,10.84,6.5a2.55,2.55,0,0,1,1,2.23c-.51,1.12-1.39,2.6-2.4,2.86a19.84,19.84,0,0,1-11.06-.39c-4-1.26-8.23-2.09-11.79-4.12-2.69-1.53-5.74-2.33-8.22-4.24a34.37,34.37,0,0,0-4.5-2.77,12.87,12.87,0,0,0-2.49-.68c.64,3.62.85,6.9,1.83,9.93,1.25,3.89,0,6.86-2.38,9.67a2.43,2.43,0,0,1-1.62.55c-5.13.18-9.76-3.88-10.55-9.47-.94-6.69-1.17-13.48-1.67-20.22-.36-4.74-.65-9.48-1-14.21-.12-1.63-.39-3.25-.53-4.88-.1-1.22,3-4.68,4.23-4.29,3.1.95,3.55-1.85,4.33-3.17,2.42-4.12,6.09-6.59,10.1-8.61,7.08-3.55,13.61-1.9,20.39,1.7,5.35,2.84,8.84,6.93,11.77,11.86C227.71,370.07,228,370.38,228.3,370.75Zm-36.57,17.47c2.27-.45,4.15-.82,6-1.21,3.46-.71,7.49-.56,10.27-2.34,5.35-3.44,8.71-8.23,4.29-14.85-1.24-1.86-6.33-5.07-8-4.18-2.79,1.5-5.83,3.22-7.68,5.66C193.14,376,192.67,381.94,191.73,388.22Z"/><path d="M591.38,414c.23-.74.24-1.68.71-2.19,9.1-9.87,13.91-22.22,19.9-33.9a62.5,62.5,0,0,1,6.27-9.17c1.47-1.93,6.36-2.46,8.92-1.27,2.21,1,3.92,4.51,3.6,7.11-.56,4.52-.92,9.07-1.61,13.57-.64,4.2-1.84,8.32-2.39,12.52-.74,5.83-2.48,11.7,0,17.54.52,1.23,1.31,2.57,1.2,3.79a6.42,6.42,0,0,1-1.78,4c-.68.61-2.47.47-3.56.1-8-2.71-9.82-9.29-10.23-16.69-.05-.87,0-1.74-.06-2.61,0-.14-.15-.27-.46-.81a39.13,39.13,0,0,1-3,5c-3.65,4.36-7.23,8.82-11.29,12.79-3.32,3.25-8.27,3.86-12.75.93-3.78-2.48-5.78-5.76-7.18-10a20,20,0,0,1-1.39-8c.2-2.3.72-4.57,1.07-6.87.3-2,.48-4,.85-6,.79-4.09,1.55-8.2,2.55-12.24a46.53,46.53,0,0,1,2.51-7.14c.71-1.66,1.25-3.07,3.74-3.75,3.58-1,5.52-1.46,7.2,1.5a8.42,8.42,0,0,1,.88,5.49c-1.38,6-3.63,11.86-4.72,17.92-.91,5-2.17,10.21-.47,15.4a8.76,8.76,0,0,1,.2,1.86Z"/><path d="M498.08,396.41c6.12-1.55,10.44-4.82,14.2-9.17,2.85-3.3,6.35-6.05,9.09-9.43,2.22-2.74,3.66-6.11,5.6-9.1a25.11,25.11,0,0,1,4.3-5.65c3-2.59,8.67.27,9.47,4.18a6.81,6.81,0,0,1-1.68,6.33c-.47.57-.28,1.65-.6,2.41-1.94,4.5-3.89,9-5.94,13.46-2.13,4.6-4.35,9.17-6.61,13.71-1.24,2.5-2.66,4.91-4,7.37-2.49,4.65-5.22,9.2-7.35,14-1.25,2.83-1.39,6.12-2.29,9.13a24.86,24.86,0,0,1-2.13,4.29h-3.9a21.75,21.75,0,0,0-2.22-1.3c-3.35-1.62-4-2.87-3.79-6.6.33-5.67,2.49-10.75,4.8-15.8a39.92,39.92,0,0,0,2.45-7c-2.38,3.27-6,2.75-8.78,2.34s-5.85-2.25-8.24-4.15c-6.6-5.22-8.13-12.17-6.22-20.2,1.18-5,1.86-10.08,3-15.06.21-.9,1.56-1.76,2.58-2.22,4.7-2.16,6.48-1.51,9,2.88.35.61,1.16,1,1.88,1.53C498.93,380.11,495.71,387.77,498.08,396.41Z"/><path d="M680.29,424.63c-5-2.28-10.26-4.06-14.8-7s-8.49-7.13-12.73-10.8a19.89,19.89,0,0,0-1.16,10,6.61,6.61,0,0,1-2.53,6.53c-2.14,1.86-4.41,1-6.4.05-4.44-2.09-5.25-5.95-5.17-10.19.14-7.69,3.16-14.47,5.77-21.42.38-1,.37-2.22.82-3.2,1.16-2.52,1.18-5.53,4.53-7,2-.87,3-3.63,4.89-5.06,3-2.33,6.08-5.11,9.58-6.2,5.86-1.82,11.84-2.81,17.75,1.47,3.18,2.3,5.88,4.45,6.73,8.21.9,3.95.86,7.94-1.48,11.56-1.85,2.87-3.37,6-5.59,8.56a43.72,43.72,0,0,1-7.42,6.08c-1.27.92-2.27,1.5-.23,2.51,3.32,1.64,6.66,3.24,10,4.85.15.07.42,0,.51.07.32.37.89.85.83,1.18-.51,2.45,3.72,4.14,1.09,6.87a3,3,0,0,1-1,.74c-1.23.45-2.49.83-3.74,1.23Zm-24-27.89c2.21.17,4.17.87,5.65.3a17.91,17.91,0,0,0,6.92-4.27c2.53-2.85,5.12-6,4.87-10.32-.06-1,.06-1.58-1.53-1.55-2.85.05-5.57,0-7.67,2.27-1.53,1.69-3,3.44-4.59,5.1C657.67,390.7,657.05,393.76,656.33,396.74Z"/><path d="M782.29,372.89c-1.11.54-2.44,1.65-3.85,1.77-2.1.19-4.26-.37-6.41-.53-4.68-.34-9.38-.62-14.06-1a24,24,0,0,1-2.58-.47c-.64,5.16-1.27,10.29-1.94,15.67,4.34-.45,8.48-.92,12.63-1.29a28.52,28.52,0,0,1,6-.13,4.2,4.2,0,0,1,2.48,1.91c2.84,4.46.57,8.67-4.81,9.54s-10.4,2-15.6,3a31.44,31.44,0,0,1-3.6.24,36.1,36.1,0,0,0,1.77,6.17,3.63,3.63,0,0,0,3,1.48c5.27-.57,10.7-.82,15.71-2.36,3.42-1.06,5.32,1.09,7.87,1.48-.08,1.44-.15,2.75-.25,4.5-1.08.93-2.52,2.12-3.89,3.38a16,16,0,0,1-6.82,3.4c-3.45,1-6.88,1.71-10.35,2.49s-6-.73-8.72-1.63c-6.39-2.15-10.11-7.27-11.61-13.62-.88-3.71-1.51-7.32-3.53-10.7a3.11,3.11,0,0,1,2.2-4.5c2-.51,2.62-1.6,3-3.52,1.05-5,2.46-9.86,3.62-14.81a3.19,3.19,0,0,0-.55-2c-.57-1.05-1.37-2-1.94-3a3.81,3.81,0,0,1,1.93-5.46,35.65,35.65,0,0,1,19.63-1.8c2.95.51,6,.7,8.81,1.64,4.33,1.44,8.5,3.38,12.7,5.19a1.49,1.49,0,0,1,.54,1.34C783.31,370.51,782.77,371.65,782.29,372.89Z"/><path d="M909.69,375c.36,1,.63,1.8.89,2.57a16.65,16.65,0,0,0-2.22.52c-.34.13-.52.66-.85.87a7.77,7.77,0,0,1-2.77,1.5c-1.71.23-3.73.57-5.19-.09-4.11-1.84-8.77-.31-12.76-2.44-.95-.51-2-.86-2.92-1.44-1.33-.83-2-.48-2,1s.24,2.9.42,4.79c2.06-.25,3.9-.57,5.75-.66,4.07-.2,8.09.6,12.11.78,2.68.13,3.1,1.82,4.07,3.22.72,1-1.45,2.48.13,3.69-1.06.85-2,2.12-3.21,2.46-3,.86-6.17,1.26-9.25,1.9-2.6.53-5.2,1.06-7.75,1.77a2.25,2.25,0,0,0-1.2,1.62c-.62,4.25-1,8.54-1.67,12.79-.3,2-1.08,3.92-1.53,5.9-.63,2.77-3.11,3.4-5.13,4.54a1.42,1.42,0,0,1-1.27,0A44,44,0,0,1,867,415c-.71-.81-.27-2.76-.13-4.16.41-3.81.94-7.6,1.39-11.13-1.7.66-3.65,1.39-5.57,2.19-3.1,1.29-4.38.77-7.22-1.84a12.85,12.85,0,0,1-2.24-2.37c-2.09-3.29-1-6.27,2.74-7.76q5.25-2.12,10.51-4.2c1.58-.62,2.29-1.27,1.92-3.42-.78-4.52-.81-9.18-1.29-13.76a11.9,11.9,0,0,0-1.23-4.6,5.26,5.26,0,0,1,0-6.05c1.4-2.15,3.7-2.23,5.89-2.56,2.74-.42,4.46.95,6.41,2.76a49.48,49.48,0,0,0,10.28,7.55c4.22,2.21,9.16,2.44,13.83,3.38,3,.59,6.36.34,8.29,3.71C911.53,374.36,911.06,374.69,909.69,375Z"/><path d="M578.37,379.59c.17,4.72-1.66,8.77-3.65,13a31,31,0,0,1-5,7.89c-3,3.25-5.82,6.72-9.17,9.55a85.33,85.33,0,0,1-13.44,9.72c-5.33,3-10.68,5.36-16.69-.4-1.72-1.65-3.62-3.34-4.65-5.41a7.42,7.42,0,0,1-.07-5.43A97.06,97.06,0,0,1,532,394.86a157.8,157.8,0,0,1,10.26-15.27c3.08-4.12,7.26-7.17,11.64-9.87a1.29,1.29,0,0,1,1-.16c4.05,1.67,5.77-2.06,8-3.86,2.82-2.33,7-2.89,9.76,0a23.81,23.81,0,0,1,4.5,5.85c.92,1.92.89,4.3,1.24,6.48A10.28,10.28,0,0,1,578.37,379.59ZM539.8,407.74l.59.44c10.76-4.83,25.76-18.86,25.57-32.61l-3.08,4.63c-.46-.15-1.31-.7-1.62-.48a28.47,28.47,0,0,0-5.2,4.15,84,84,0,0,0-7,9C545.85,397.72,542.89,402.77,539.8,407.74Z"/><path d="M812,375c-.67,2.09-1.21,4.24-2,6.27-2,4.81-4.48,9.44-6,14.39-1.21,4-1.43,8.38-1.72,12.62-.16,2.34,1.56,3.2,5.14,2.91,8.33-.68,16.1-3.25,23.66-6.74a70.28,70.28,0,0,1,9.75-3.4,3.65,3.65,0,0,1,4.77,2.36,5.19,5.19,0,0,1-2,6c-5.48,3.24-10.78,6.85-16.47,9.68-3.51,1.74-7.59,2.31-11.42,3.41a26.92,26.92,0,0,1-3.46.95,26.31,26.31,0,0,1-5.91.48,30.43,30.43,0,0,1-7.14-1.48c-4.5-1.53-7.34-4.82-9.63-9-4-7.23-1.24-14,.92-20.78,1.94-6.05,4.63-11.86,7-17.78.32-.8.64-1.59.92-2.39,1.12-3.2,2.72-4.28,6-4.57C808.27,367.58,811.54,369.59,812,375Z"/><path d="M135.17,378.91c-3.17,1.47-6,2.87-8.86,4.1-2.48,1.06-6.69-.71-7.85-3.17-.11-.23-.15-.49-.26-.72-.76-1.47-2.53-3.52-2.08-4.27a11.71,11.71,0,0,1,5-4.52c3.67-1.67,7.66-2.64,11.46-4.05,2.36-.87,4.9-1.43,6.73-3.42.3-.33,1.19-.25,1.77-.15a51.65,51.65,0,0,0,6.19,1.13c2.85.13,5.72-.29,8.58-.27,2.37,0,4.73.35,7.1.54a13.88,13.88,0,0,1,3,.22c2.4.76,5,1.38,7,2.7,1.12.7,1.39,2.74,2.18,4.47-4.3,1.67-8.49,3.48-13.59,2L160.25,375c-2.29.42-4.47.81-6.65,1.22a41.83,41.83,0,0,0-4.47,1,1.81,1.81,0,0,0-.71,1.48c.44,5.58,1,11.16,1.43,16.74.41,5.37.77,10.75,1,16.13a39.28,39.28,0,0,1-.44,5.91,2.29,2.29,0,0,1-.64,1.32c-.91.89-1.92,1.67-3.2,2.75a34.59,34.59,0,0,1-5.55-3.29c-2.59-2.19-2.67-5.59-3.11-8.65-.84-5.76-1.58-11.55-2.05-17.36-.31-3.8-.07-7.64-.12-11.47A7.88,7.88,0,0,0,135.17,378.91Z"/><path d="M712.18,412.36c-2.65-2.07-5.13-3.82-7.39-5.81-4.5-4-7.42-9.14-7.71-15a18.63,18.63,0,0,1,4.26-12.78,25.41,25.41,0,0,1,17.14-9.12c3.26-.4,6.77.69,10.1,1.41,2.45.53,5.17,5,4.93,7.41s-3.53,4.74-5.78,3.8c-6-2.51-10.85.52-15.3,3.64-3.81,2.68-2.32,10.16,2.18,13.69,3.42,2.68,6.83,5.37,10.12,8.21,2.66,2.3,4.39,5.11,4.09,8.88a6.09,6.09,0,0,1-4,5.26c-2.17.88-4.1,2.47-6.32,3a20.45,20.45,0,0,1-7.93.48,57.05,57.05,0,0,1-9.68-3c-4.75-1.71-6.16-6.22-7.93-10.23-.38-.87.71-3.35,1.58-3.62a9.2,9.2,0,0,1,5.82,0c3.31,1.33,5.94,4.33,9.93,4C710.83,412.6,711.36,412.49,712.18,412.36Z"/><path d="M395.6,381.44c-4.09-.25-8.17-.54-12.25-.75a19,19,0,0,1-9.27-2.44c-2-1.24-4.34-4.47-4-6.17.58-2.54,3.66-5.12,6.43-5,3.45.17,6.88.67,10.33,1,1.34.12,2.69.05,4,0,9-.12,18-.58,26.94-.17,2.94.14,7-.56,8.89,3.4.23.47,1.29.54,2.83,1.12-2.12,1.57-3.81,2.87-5.55,4.1a14.86,14.86,0,0,1-3.31,2A19.63,19.63,0,0,1,414.8,380c-4.12.07-5.52,2.6-6.51,6-.86,2.9-2.3,5.64-3,8.57a57.42,57.42,0,0,0-.77,8.53c-.19,2.75-.41,5.49-.43,8.24,0,1.71.63,3.47.38,5.11a40.13,40.13,0,0,1-1.87,6.16c-3.35-.35-6.59-.23-8.42-2.92-1.44-2.11-2.93-4.68-3-7.12a89.32,89.32,0,0,1,.7-16.59C392.59,391,394.32,386.28,395.6,381.44Z"/><path d="M344.09,405.57c.86-5.14,1.81-11.32,2.93-17.46s2.3-12.24,3.68-18.31c.55-2.37,1-5.14,3.93-6,1.74-.51,4.07-1.78,5.18-1.11,2.15,1.29,3.81,3.58,5.28,5.73.5.73-.1,2.3-.35,3.45-1,4.55-2.1,9.07-3.08,13.62s-2.11,8.83-2.66,13.31a120.28,120.28,0,0,0-.56,13c0,1.5.72,3.07.5,4.51-.27,1.66-.81,3.79-2,4.64s-3.32.48-4.81,0C345.28,418.59,345,412.49,344.09,405.57Z"/><path d="M918.36,413.28c3.32,1.07,7.14.75,8.67,4.42a10.05,10.05,0,0,1,.17,5.18c-.17,1.09-1.19,2-1.8,3.06-1,1.63-2.08,2-4,1.34s-4.43-.35-6-2.43c-2.94-3.9-4.92-6,.41-10.32A12.06,12.06,0,0,1,918.36,413.28Z"/></g><path d="M371.25,781a3.38,3.38,0,0,1-3,.26c-.05,0-.12-.05-.16,0-3.37,1.09-6.87.61-10.3.94-2.19.21-4.36.77-6.55.94s-4.39.05-6.58,0c-.62,0-2.17-1.91-2.25-2.54s-.22-1.14-.26-1.72a1.23,1.23,0,0,1,1.12-1.4c.61-.1.78-.42.81-1,0-1,.13-2,.25-3s.3-1.76.47-2.74c-1.09.18-2.24-.26-3.5-.2s-2.79.37-4-.76c-.32-.3-.91-.31-1.38-.46a2.41,2.41,0,0,1-1.28-3.38,4.36,4.36,0,0,0,.63-2.88,28.88,28.88,0,0,1-.29-5c.11-1.93.54-3.83.82-5.75.1-.7.15-1.41.25-2.12.15-1.08.3-2.17.51-3.25.28-1.44.68-2.85.9-4.3a26.7,26.7,0,0,0,.06-2.69c.07-1.34.16-2.68.29-4,.21-2.24.49-4.46.69-6.7.11-1.3,0-2.61.17-3.9.19-2,.46-3.93.72-5.89.37-2.68.71-5.37,1.17-8a18.54,18.54,0,0,1,1-2.91.55.55,0,0,0,.08-.29c-.53-3.08.53-6,1-8.93.26-1.7.28-3.44.52-5.14.21-1.42.6-2.81.88-4.22.13-.67.17-1.35.28-2,.45-2.77.93-5.54,1.35-8.32.23-1.55.31-3.11.53-4.66.17-1.27.49-2.53.65-3.8.21-1.73.29-3.47.48-5.2s.57-3.43.62-5.16c.09-2.77-.07-5.55-.05-8.32a14.21,14.21,0,0,1,.47-2,16.16,16.16,0,0,0,.08-1.81c1.8-.13,3.64-.3,5.49-.41s3.83-.22,5.75-.3c.94,0,1.89,0,2.83,0h7.25c1.9,0,3.79.07,5.69,0,1.53,0,3.08-.26,4.6-.14s3.09-.1,4.64-.12c2.3,0,4.59-.15,6.89-.16,1.1,0,2.2.21,3.31.25a14.69,14.69,0,0,0,1.56-.23c1.94-.16,3.88-.34,5.83-.44,2.21-.1,4.42-.11,6.63-.19,2.36-.09,4.73-.39,7.07-.27a39.27,39.27,0,0,0,5-.22c1.75-.13,3.51,0,5.27,0,1.34,0,2.68-.2,4-.27s2.47-.09,3.7-.11c1.63,0,3.26-.06,4.89,0,1.25,0,2.5,0,3.76-.06,2.61-.19,5.24-.31,7.86-.38,1.1,0,2.19.25,3.29.24,1.42,0,2.84-.19,4.27-.25,1.72-.06,3.45-.06,5.18-.09s3.52,0,5.28-.1a11.78,11.78,0,0,1,3.83.29c.32.09.73-.2,1.1-.21s1,.06,1.49.07c.67,0,1.34,0,2,0,1.94,0,3.88.07,5.81,0,.9,0,1.8-.18,2.7-.23a17.35,17.35,0,0,1,4.6-.08c1.31.3,2.43-.32,3.64-.13.49.08,1.17-.34,1.27.57.6-.1,1.17-.95,1.81,0a.85.85,0,0,0,.79.05c.74-.86,1.79-.05,2.58-.54.14-.09.41,0,.7,0l.05.71a4.79,4.79,0,0,1,1.63-.74c1.49-.06,3,.11,4.48.12,1.82,0,3.64,0,5.46,0,2.24,0,4.47,0,6.71.05a3.37,3.37,0,0,1,.87.31c.33.1.72.31,1,.21,2.05-.69,4.17-.34,6.26-.44,1.25-.05,2.5,0,3.75,0a3,3,0,0,1,.94,0c1.64.59,3.28.08,4.93.06a21.26,21.26,0,0,1,3.48,0,40.05,40.05,0,0,0,4.9,0c1.63,0,3.27,0,4.9,0s3.22.06,4.82.16a4.18,4.18,0,0,1,1.21.51c.78-.06,1.71-.17,2.63-.19,1.66,0,3.32-.06,5,0,1.46,0,2.92.16,4.38.25,1,.06,1.95.15,2.93.19,1.31.06,2.61.11,3.92.12,2.4,0,4.79,0,7.19,0,1.24,0,2.49.21,3.73.29s2.69.05,4,.19,2.83.44,4.25.63c.27,0,.56-.21.85-.21a22.45,22.45,0,0,1,4.57.1c3.07.66,6.2.18,9.27.66,2.14.34,4.31.54,6.47.8.71.08,1.43.09,2.14.2a1.78,1.78,0,0,1,1.05.38c.94,1.11,2.26.9,3.45,1,1.59.17,3.21.15,4.82.23s3.32.1,5,.26c3.09.29,6.17.74,9.27,1,1.92.15,3.86,0,5.79,0s4-.13,6,0a3.93,3.93,0,0,1,2.71,1.71c.14.17-.14.64-.09,1a47.77,47.77,0,0,0,.91,4.77c.12.45.57.86,1.48.79a17.17,17.17,0,0,1,5.38.54,13.49,13.49,0,0,1,3.93,1.95,2.28,2.28,0,0,1,.63,1.75c-.05,1.22-.41,2.44-.48,3.66-.09,1.65,0,3.31-.06,5-.3,4.16,1,8.14,1.36,12.23a10.56,10.56,0,0,0,.43,1.39,3.94,3.94,0,0,1,.14,1.23c-.1,1.51-.33,3-.36,4.52a49.56,49.56,0,0,0,.2,5,13.69,13.69,0,0,0,.63,2.2c.13.5.41,1.08.27,1.51-1,3.22-.16,6.51-.43,9.76,0,.69-.33,1.37-.34,2.06,0,1.88.08,3.77.1,5.65,0,.41-.27.82-.24,1.22.17,2.31.46,4.63.57,7a27.69,27.69,0,0,1-.27,3.62c-.19,2.25-.23,4.53-.62,6.75-.65,3.63-.2,7.26-.36,10.88a85,85,0,0,1-1,9.41c-.4,2.58-1.36,5.08-1.6,7.67a74.82,74.82,0,0,0,.06,8.6,29.81,29.81,0,0,0,.28,3.54c.15,1.06.6,2.08.65,3.13a4.49,4.49,0,0,1-.62,2.35,1.89,1.89,0,0,1-1.93.77c-1.07-.13-2.16-.08-3.24-.12l-1.52,0a6.3,6.3,0,0,1-3.85.29,28.58,28.58,0,0,0-7.44-.67,14.33,14.33,0,0,1-1.75-.36c-1.34-.1-2.69-.13-4-.19l-1,0c-2.1-.19-4.21-.39-6.32-.54a4.53,4.53,0,0,0-1.18.25c-1.5.3-3,.81-4.5.07-2.16-1.09-4.45-.69-6.7-.81-1.27-.06-2.53-.28-3.8-.37-.41,0-.84.19-1.26.16-2.63-.14-5.26-.28-7.88-.49-1.35-.11-2.68-.47-4-.51s-2.48.23-3.72.28a6,6,0,0,1-2.63-.15c-1.34-.59-2.5.38-3.74.12-.13,0-.28.07-.41.07-2.84-.1-5.68-.19-8.51-.33-.38,0-.75-.26-1.11-.25-.73,0-1.47.09-2.2.09a21.85,21.85,0,0,1-4.21-.11,9.23,9.23,0,0,0-3.89.17,12.94,12.94,0,0,1-4-.12c-1.83-.16-3.67-.05-5.51,0-.52,0-1,0-1.57,0-1.91-.08-3.83-.15-5.74-.29-2.27-.17-4.54-.46-6.81-.57-1.6-.08-3.2.06-4.8.07-.34,0-.68-.15-1-.17-1.35-.06-2.7-.1-4-.14-2.62-.09-5.3-.52-7.87-.17-2.9.39-5.75,0-8.62.16-2.29.11-4.6-.29-6.9-.3-3,0-6,.14-9,.18-.47,0-.94-.26-1.41-.26-1.65,0-3.3.1-4.94.06-2.38,0-4.77-.24-7.15-.26-1.86,0-3.73.18-5.59.2-2.46,0-4.92-.09-7.38-.05-1.85,0-3.71.21-5.56.25-1,0-2.06-.12-3.09-.16-.41,0-.83.08-1.24.08-2.6,0-5.2.06-7.8-.06-1.85-.08-3.69-.53-5.54-.6-.54,0-1.29-.41-1.87.3-.18.22-.88,0-1.34,0a13,13,0,0,1-1.39-.1,41.8,41.8,0,0,0-7.25,0c-1.67.05-3.35-.28-5-.38-.48,0-1,.27-1.44.27-2.48,0-4.95,0-7.43,0s-4.72.17-7.09.25c-1.78.06-3.57.07-5.35.15s-3.41.23-5.12.29c-1.86.06-3.73,0-5.59.06a2,2,0,0,0-.41.07c-1.28.19-2.57.46-3.86.56-1.11.09-2.23,0-3.35,0s-2.52,0-3.78.1-2.45.38-3.68.4c-1.5,0-3-.23-4.49-.23a8.14,8.14,0,0,0-1.95.47,3.06,3.06,0,0,1-.79.1c-1-.06-1.91-.17-2.88-.22-.12,0-.25.24-.4.33a.91.91,0,0,1-.51.15,9,9,0,0,0-1.58.14,7.43,7.43,0,0,1-1.34.07c-1.84,0-3.68,0-5.52,0-.44,0-.88.17-1.33.2a11.86,11.86,0,0,1-1.19,0c-.37,0-.73,0-1.1.06l-1.35.18Zm139-130.75a7.49,7.49,0,0,1-1.19.24c-.77,0-1.54,0-2.32,0s-1.81.28-2.36-.1c-1-.67-1.76.13-2.6-.06a1.31,1.31,0,0,0-.28,0,14.65,14.65,0,0,0-1.46-.13c-2.18.05-4.36.14-6.54.19-1.3,0-2.6,0-3.9,0s-2.6.11-3.89.07c-1.55-.05-3.1-.27-4.65-.27-2.16,0-4.33.17-6.5.2-1.74,0-3.47,0-5.21-.09-.33,0-.66-.15-1-.14-2.57.14-5.14.34-7.72.44-2.08.08-4.17.07-6.26.09-1.83,0-3.67,0-5.51,0a31.06,31.06,0,0,0-5.11.08c-2.38.42-4.74.18-7.11.34-1.68.11-3.39,0-5.08,0-2.87.1-5.73.27-8.6.39-2.12.08-4.25.13-6.37.19l-4.43.14c-.91,0-1.83,0-2.73,0-1.7.11-3.39.36-5.08.41s-3.25-.12-4.87-.08c-3.14.08-6.27.26-9.41.37-1.05,0-2.11,0-3.16,0-1.91.07-3.82.22-5.73.3-2.37.1-4.74.2-7.11.21-1.7,0-3.4-.14-5.1-.2-1,0-2.11-.09-3.16,0s-2.26.27-3.39.3c-2.73.08-5.47.12-8.2.11-.75,0-1,.27-1,1a46.53,46.53,0,0,1,0,4.87c-.33,3.86-.79,7.7-1.2,11.55-.06.57-.08,1.15-.17,1.71-.27,1.74-.57,3.47-.86,5.2s-.59,3.63-.91,5.44c-.17.93-.48,1.84-.6,2.77-.26,2.16-.4,4.34-.67,6.5s-.63,4-.93,6.07c-.23,1.59-.39,3.19-.65,4.78-.53,3.14-1.14,6.27-1.65,9.42-.21,1.3-.22,2.63-.39,3.94-.35,2.73-.74,5.44-1.12,8.16a34.43,34.43,0,0,0-.48,3.47c-.08,2.49,0,5-.08,7.47-.05,1.18-.5,2.33-.62,3.51a9.73,9.73,0,0,0,0,3.32,6.85,6.85,0,0,1,0,3.73,23.25,23.25,0,0,0-.81,3.68c-.26,2.1-.24,4.25-.64,6.31-.21,1.06,0,2.53-1.47,3l.28,6a3.09,3.09,0,0,0,.84.4,44.77,44.77,0,0,0,4.6.37c2.62,0,5.23-.22,7.84-.31,2-.07,4-.07,6-.13,2.21-.07,4.42-.18,6.63-.27,1.71-.06,3.41-.1,5.12-.2,1.45-.08,2.9-.22,4.35-.32s2.67-.18,4-.21c2,0,3.94,0,5.9-.08s3.78-.46,5.68-.61c1.05-.09,2.12.08,3.17,0,2.57-.13,5.14-.32,7.71-.48s5.41-.26,8.1-.49c1.88-.15,3.74-.49,5.61-.73a17.44,17.44,0,0,1,2.7-.21c2.05,0,4.11.32,6.15.26,3.31-.1,6.61-.4,9.91-.58,1.16-.06,2.32,0,3.48-.07,1.73-.11,3.45-.35,5.18-.45s3.63-.07,5.45-.15c1.29-.06,2.57-.24,3.86-.33,1.91-.13,3.83-.23,5.74-.34,1.56-.09,3.12-.2,4.68-.23s2.89,0,4.33,0c1.63.06,3.27-.68,4.89.11.09,0,.25-.05.37-.09a5.22,5.22,0,0,1,1.29-.37c1.42,0,2.85.11,4.27.07,1.78-.05,3.55-.25,5.33-.3s3.73.05,5.59,0c2.71,0,5.42-.13,8.13-.15,1.8,0,3.59.07,5.38.06,1,0,2.09-.14,3.13-.13,2,0,4,.07,6.06.09,1.55,0,3.1,0,4.65,0,3.05.05,6.1.17,9.16.22,2.91,0,5.82,0,8.72.05.25,0,.51-.12.73-.06.92.25,2.07-.77,2.62.22.92-.1,1.7-.26,2.48-.27,2.32-.05,4.64,0,7-.06l8.93-.06c1,0,2,0,3,0a34.83,34.83,0,0,1,3.68-.05c1.3.14,2.56-.58,3.9,0,.55.24,1.34-.07,2-.07,1.47,0,2.94,0,4.4.12,1.22.06,2.43.16,3.64.28s2.14.37,3.21.4c1.85.05,3.7,0,5.55-.06.72,0,1.44,0,2.14,0,1.94-.17,3.88-.49,5.82-.54s3.88.2,5.83.26c1.37,0,2.74,0,4.12,0s2.54,0,3.81.13a23.93,23.93,0,0,0,2.5.37c1.69,0,3.39-.38,5.08-.34,3,.08,5.91.31,8.86.55a24,24,0,0,1,2.84.62c.09,0,.2-.05.3-.05A11.42,11.42,0,0,1,629,761c1.78.28,3.52.78,5.3,1a31.53,31.53,0,0,0,3.89,0,10.64,10.64,0,0,1,2.83.09,1.59,1.59,0,0,0,1.38-.11,3.32,3.32,0,0,1,3.41.17,11.08,11.08,0,0,0,1.94.84c.07-.82.08-1.35.17-1.86.35-1.94.84-3.87,1-5.82q.71-6.69,1.18-13.41c.28-3.87.45-7.75.6-11.63.12-3.09.15-6.18.18-9.27,0-.94-.17-1.87-.16-2.81,0-1.73.19-3.46.2-5.19,0-2.92,0-5.84-.06-8.76,0-1.51.06-3,.08-4.52,0-3.34.08-6.68.13-10,.05-2.29.16-4.57.18-6.85s-.13-4.49,0-6.73.47-4.32.59-6.49.07-4.12,0-6.17a1.06,1.06,0,0,0-.66-.74c-1.17-.24-2.37-.37-3.55-.55a12.58,12.58,0,0,0-1.57-.27c-2.49-.06-5,.11-7.47-.14-3.56-.36-7.11-1-10.65-1.55a29.74,29.74,0,0,1-4.77-1.1c-.69-.23-1.2-1-1.78-1.52.33-.35.67-.7,1-1.06a.61.61,0,0,0,.09-.2c-.59-.34-1.14-.93-1.69-.92a55,55,0,0,1-6.42-.2c-1.57-.15-3-.35-3.81-1.64l-23.32-1.45-.12-.72c-.18,1-.85.64-1.4.63a13.6,13.6,0,0,1-1.56,0c-.75-.08-1.64.19-2-.62-.39.18-.77.51-1.14.49-1.34-.07-2.66-.34-4-.39-2.81-.11-5.62-.08-8.43-.19-1.65-.06-3.29-.35-4.94-.39-2.4-.07-4.8,0-7.2,0a3.37,3.37,0,0,1-.91-.23,4.53,4.53,0,0,1-1.21.26c-2.34-.1-4.68-.31-7-.37s-4.46,0-6.69,0c-.41,0-.83.1-1.24.08-1.89-.08-3.78-.24-5.67-.25-1.6,0-3.21.19-4.82.19-2.32,0-4.64-.14-7-.15-3,0-6.07.05-9.11,0A19.9,19.9,0,0,1,510.29,650.2Zm33.76,120.22.1.22a4.77,4.77,0,0,0,.75-.16c1-.37,1.94-.83,3-1.12a24.67,24.67,0,0,0,4.19-1c.67-.32,1.48-.34,2.17-.64a16.39,16.39,0,0,1,4.62-1.3c1.39-.16,2.52-1.38,4-1.16a1.48,1.48,0,0,0,.72-.08c3-1.22,5.24-.39,6.45,2.4l7.77-2.46c-.31-.17-.45-.31-.6-.32-2-.19-4-.44-6-.51s-3.89,0-5.83.08c-1.58,0-3.15.14-4.72.12s-3.08-.25-4.63-.26c-2.54,0-5.09.11-7.64.16-1,0-2.07,0-3.25,0a5.31,5.31,0,0,0,.78.79c.25.17.65.15.84.35a2.18,2.18,0,0,1-.59,3.42C545.45,769.4,544.76,769.93,544.05,770.42Zm105.4-1.94c-1-.14-2.24-.34-3.48-.47-.52-.06-1.22-.2-1.54.06-1.44,1.18-2.76,2.51-4.15,3.75s-2.74,2.34-4.1,3.53a1.83,1.83,0,0,0-.32.57l3.36-.59c0-.16-.17-1,.74-.41.08.05.27,0,.39-.11.65-.39,1.31-.78,1.94-1.21q1.89-1.3,3.77-2.66C647.26,770.08,648.46,769.2,649.45,768.48Zm-47.67-3.59a3.08,3.08,0,0,0-.63-.18c-2,0-4-.16-5.95,0-.68,0-1.45-.17-2.18.54-1.86,1.78-3.92,3.36-5.91,5a.92.92,0,0,1-.55.22c-.7,0-.7,0-.71.81a1,1,0,0,0,.3,0c1.1-.52,2.14-1.2,3.45-.92.1,0,.23-.2.36-.27a19.56,19.56,0,0,1,2.21-1.18c.92-.38,1.92-.55,2.84-.94,1.92-.81,3.8-1.7,5.71-2.56Zm60.61-9.19a10.07,10.07,0,0,0-1.52,1.47c-.67,1-1.18,2.06-1.78,3.09s-.64,1.37.4,2a1.91,1.91,0,0,1,.79,2.16,12.25,12.25,0,0,1-1.56,3.93c-.63,1.31-1.32,2.51-3,2.74-.27,0-.49.44-.87.81l5.65-1.56C660.08,765.44,661.38,760.56,662.39,755.7ZM477.77,773.56v.13l12.51-.12a5,5,0,0,1-.49-3.53Zm62.35-9-11.76-.15a3.42,3.42,0,0,1-2.18,3.76Zm24.61,10.28V775l2.19,0c1.2,0,2.4-.08,3.6-.15.15,0,.29-.17.44-.27,1.44-.95,2.87-1.92,4.33-2.85,1.07-.68,2.18-1.32,3.52-2.12Zm-167.29.07-.37-2.66-10.54,3.13Zm222.06-9.41c-.73-.07-1.36-.11-2-.18-1.46-.17-3-.57-4.07.88-.07.1-.26.1-.38.18l-5,3.35c.43.07.54.13.61.1,2.07-.8,4.14-1.6,6.19-2.42C616.38,766.8,617.85,766.16,619.5,765.48Zm-158.57,2.38a.64.64,0,0,0,.37,0c.4-.09.78-.27,1.18-.36a15.83,15.83,0,0,0,4.15-1.16,1.85,1.85,0,0,1,.84-.32c1.21.06,2-.82,3.08-1.16a37.05,37.05,0,0,0-4.07-.08c-1.28.05-2.56.18-3.5.25Zm55.12-3.46c-3.29-.63-7.86.72-8.79,2.58C510,765.6,513.19,766.17,516.05,764.4Zm141.52-92.71.32.11c.56-1.69,1.08-3.39,1.69-5.06.35-.94.08-1.45-.88-1.64-.1,0-.21,0-.47,0C657.51,667.21,657.93,669.49,657.57,671.69Zm6.36,60.89-3.86,5.22.22.12,3.3-1.43ZM419.58,772.17l-.08-.36c-.38.08-.77.14-1.14.24-.57.13-1.16.49-1.69.4-1.57-.24-2.74,1-4.2,1.06-.19,0-.36.38-.65.71l3.08-.16a3.57,3.57,0,0,0,1.19-.16c.7-.31,1.33-.74,2-1.09C418.57,772.57,419.08,772.38,419.58,772.17Zm188.28,3.09c1.61.14,2.93.27,4.26.36.2,0,.55,0,.6-.16.34-.84.62-1.71.84-2.34ZM460.12,773l6,.53-.59-2Zm194.5-20.19c.4,1.74-1,3.13-.27,5,.87-1.36,1.63-2.55,2.35-3.66Zm-215.28,15c2.43.48,4.24-1.49,6.51-1.82C443.58,766.21,441,765.32,439.34,767.75ZM657.1,684.86q1.13-1.87,2.26-3.75l-2.12-.66C656.58,681.8,657.3,683.38,657.1,684.86Zm2.35,23.68c-1.22,0-2,1.42-3.21.19,0,1.46,0,2.62.06,4Zm-29.23,65.07-6.15,2.47.14.36a13.82,13.82,0,0,0,3.25-.7A15.39,15.39,0,0,0,630.22,773.61ZM664,722.16l-2.29,3.15,2.55.22C664.15,724.55,664.06,723.49,664,722.16ZM589.27,775c1.63.06,2.93.14,4.22.13.17,0,.46-.42.48-.66a4.67,4.67,0,0,0-.15-1.13Zm67.19-76.37c.82-1.21,1.51-2.21,2.31-3.38l-2.19.13C656.54,696.42,656.5,697.4,656.46,698.62ZM351.94,776.35a13.72,13.72,0,0,0-1.78,0c-.27,0-.51.31-.77.48.25.26.47.7.75.73a7.59,7.59,0,0,0,1.71-.13Zm150.16-3.08,0,.36,3.05-.27.29-1.31Zm156.83,5v.24l2.26-.16c-.1-.68-.17-1.2-.26-1.87Zm4.68-80.75-2.08,3C663.47,699.69,663.93,699,663.61,697.49Zm-13.24-39.77.09-.58c-1.62-.39-3.28.09-4.92.15ZM366.83,776.2l.07.23,3.3-.1v-1.07Zm124.9-11.79,0-.26c-1.21.28-2.7-.47-3.75,1.07Zm-141.12,6.21-.06.71,2.57-.48-.06-.31ZM663.23,746l-.2-.08-1,1.56,1,.44Z"/><path class="cls-2" d="M449.55,683.85l.54.76.23-.12c-.18-.36-.35-.73-.55-1.07a8.82,8.82,0,0,1-.9-1.44c-.3-.79.47-1.51,1.51-1.58.87,0,1.73-.23,2.6-.31s1.79-.92,3-.63c.83.21,1.84-.48,2.77-.5a6.66,6.66,0,0,1,2.47.55,1.29,1.29,0,0,1,.64,2c-.86,1.07-.85,2.35-1.12,3.56a34.36,34.36,0,0,0-.78,4.12c-.18,1.72-.2,3.46-.24,5.19,0,1.43,0,2.87,0,4.3,0,1.13-.08,2.25-.06,3.38,0,.71.56.78,1.12.7a21.71,21.71,0,0,1,7,.2,11.31,11.31,0,0,0,2.1,0c1.3,0,2,1,2.69,1.79a41.19,41.19,0,0,1,3.1,4.53,17.67,17.67,0,0,1,1.41,3.21c.54,1.57-.09,3-.78,4.36a12.9,12.9,0,0,1-3.59,4c-1.51,1.28-3.12,2.45-4.75,3.58a2.9,2.9,0,0,1-1.69.41c-2-.1-3.94-.32-5.91-.46-.83-.06-1.68,0-2.52,0a6.34,6.34,0,0,1-1.69-.17,10.75,10.75,0,0,0-4.81-.39,3.51,3.51,0,0,1-2.87-2.2c0-.2-.1-.49-.24-.56-1.32-.68-.79-1.88-.67-2.8.24-1.85.7-3.62-.18-5.45a4.41,4.41,0,0,1-.23-2.32,80.39,80.39,0,0,1,1.15-8,18.16,18.16,0,0,0,.16-6.81,17.57,17.57,0,0,1,0-3.16,4.31,4.31,0,0,0-.26-2.08c-.29-.63,0-1.52,0-2.3a3.53,3.53,0,0,1,.92-2.94C449.44,685,449.41,684.39,449.55,683.85ZM458,715.78c-.21,2.83.48,3.15,1.9,3.05.44,0,.85-.46,1.29-.49,1.55-.1,2.56-1.14,3.52-2.12a7.41,7.41,0,0,0,1.72-2.7,1.58,1.58,0,0,0-.39-2c-.72-.47-1.39-1-2.07-1.51-.87-.65-1.88-.4-2.81-.35s-1.8.11-2.06,1.19C458.72,712.64,458.33,714.45,458,715.78Z"/><path class="cls-2" d="M559.26,727.18l-.3.75c-.65,0-1.14.08-1.62.09a.56.56,0,0,1-.38-.12,12.21,12.21,0,0,1-2.44-2.38c-1-1.42-.9-3.13-1.65-4.59-.31-.59-.54-.62-1-.21a39.92,39.92,0,0,1-4.87,4.53,7.15,7.15,0,0,1-6.73,1.12c-1.32-.51-2.6-1.12-3.88-1.69a1.21,1.21,0,0,1-.39-.36c-1.16-1.53-2.34-3.05-2.54-5.08-.11-1.14-.63-2.31-.48-3.39.25-1.73,1-3.38,1.36-5.11a14.47,14.47,0,0,1,2.23-5,11.74,11.74,0,0,1,4.38-4.33,3.41,3.41,0,0,1,2.12-.24c1.41.32,2.88.37,4.17,1.28a16.15,16.15,0,0,0,3.2,1.37,4.28,4.28,0,0,1-.12-.65c0-.51-.25-1.19,0-1.5,1-1.33.77-3,1.1-4.44.64-2.82,1-5.7,1.47-8.55.07-.37.09-1,.89-.8.09,0,.32-.42.5-.64s.55-.91.94-1.07c1.22-.48,2.51-.8,3.75-1.22.32-.11.59-.36.87-.27.54.1,1.08.24,1.63.29a3.53,3.53,0,0,1,2.61,2.8c-.08,1.62-.1,3.26-.23,4.88-.12,1.33-.45,2.64-.53,4-.13,2-.06,4.11-.2,6.16-.13,1.83-.41,3.65-.66,5.47a43.47,43.47,0,0,0-.84,5.84c0,2.3-.69,4.63.17,6.91.16.42.16,1,.45,1.24,1.18.91.86,2,.69,3.2a2.17,2.17,0,0,1-2.87,1.84A4.41,4.41,0,0,0,559.26,727.18Zm-13-17.5a7,7,0,0,0-2.15.69,4.74,4.74,0,0,0-1.81,2.12c-.3,1.16-.88,2.46,0,3.72a3.63,3.63,0,0,1,.53,1.44c.18,1.08,1,1.51,1.83,1.89a1.26,1.26,0,0,0,1-.27A14.62,14.62,0,0,0,548,716.5a25.17,25.17,0,0,0,2.09-2.85c.63-1.23.26-2-1.13-2.2a2.26,2.26,0,0,1-1-.43C547.39,710.61,546.86,710.14,546.29,709.68Z"/><path class="cls-2" d="M574.43,718.3c-.89,2.18.26,3.59,1.47,4.94a1.64,1.64,0,0,0,1,.3,33.5,33.5,0,0,1,5.8.83,4.39,4.39,0,0,0,3.27,0c.17-.06.42.06.62.13.49.16,1,.35,1.63.59a3.58,3.58,0,0,1-1.37,3.68c-1.46.85-2.61,2.32-4.58,2.43A14.93,14.93,0,0,0,580,732a5.62,5.62,0,0,1-3.94-.28c-.53-.22-1.12-.32-1.63-.58a11.72,11.72,0,0,1-6.27-8.48,17.48,17.48,0,0,1,0-3.47,5.36,5.36,0,0,0-.12-1.66,9.48,9.48,0,0,1,.06-5.28c.41-1.83.6-3.7,1.09-5.5.12-.47,1-.72,1.52-1.11a14.67,14.67,0,0,0,1.1-1c.61-.6,1-1.44,2-1.57.55-.07,1-.6,1.57-.87a3.66,3.66,0,0,1,3.67.42c1.39.87,2.63.49,4,.26a9.79,9.79,0,0,1,5.84.56,14.16,14.16,0,0,1,2.78,2.29c.16.13.34.24.49.38a22.41,22.41,0,0,1,3.28,3.25,3,3,0,0,1-.24,2.59c-1.11,1.78-2.25,3.64-4.32,4.5a12.46,12.46,0,0,1-5,1.28,19,19,0,0,0-3.54.59c-1.11.21-2.21.41-3.3.69a9.8,9.8,0,0,0-1.15.61,1.72,1.72,0,0,1-2-.18C575.45,719.06,574.93,718.71,574.43,718.3Zm8.45-8.21.06-.29a6.92,6.92,0,0,0-2.35-.83,21.43,21.43,0,0,0-4.24.87c-.32.09-.51.62-.76.95.35.17.72.52,1,.48a13.19,13.19,0,0,0,2.21-.54c.79-.22,1.81-.87,2.32-.59C581.93,710.57,582.32,710.11,582.88,710.09Z"/><path class="cls-2" d="M516.9,715.83l2.34.56c-.72-1.19-1-2.23-.2-3.38.23-.32.09-1,0-1.43-.18-1.17-.45-2.31-.6-3.48-.1-.79-.5-1.05-1.21-.82-2.77.9-5.68,1.69-7.2,4.5-.82,1.49-1.31,3.16-2,4.73s-1.23,3-2,4.39c-.22.4-.68,1.15-1.55.67-.24-.13-.71.11-1.06.23-.16.05-.26.29-.42.32-.38.08-1.08.24-1.13.12-.54-1.1-2.81,0-2.53-2.08a1.37,1.37,0,0,0-.1-.91c-.79-1-.4-2.09-.37-3.14.05-2.06.18-4.11.31-6.17.09-1.35.29-2.7.34-4.05.09-2.12.12-4.23.14-6.35a1.77,1.77,0,0,1,2.14-1.66,9.93,9.93,0,0,1,2.68.77,1.75,1.75,0,0,1,.68,1.32c.08,1.25,0,2.5,0,3.76,1.05-1.06,2-2.15,3.08-3.08a7.43,7.43,0,0,1,5.21-1.75,7.61,7.61,0,0,1,4.12.89c1.77,1.22,3.72.68,5.55,1.1a12.22,12.22,0,0,1,3.39,1.45c.38.23.52,1,.58,1.59.19,1.73.24,3.47.45,5.19a30.84,30.84,0,0,0,.68,3.11c.18.83.28,1.68.53,2.48a11.1,11.1,0,0,1,.33,2.74c.12,1.77-1.25,4.19-2.84,4.69a2.06,2.06,0,0,1-.6.12c-1.18,0-2.36,0-3.54.15-.68.06-1.3.31-1.9-.34-.22-.24-1,0-1.21-.19a21.58,21.58,0,0,1-2.11-2.56,2.73,2.73,0,0,1-.44-1.15,4.3,4.3,0,0,1,0-1.34A4,4,0,0,1,516.9,715.83Z"/><path class="cls-2" d="M612,709.69c.1,0,.24,0,.29-.05,1.31-1.55,3.14-1.58,4.93-1.59a8.22,8.22,0,0,1,6.22,2.62c.82.87,1.66,1.72,2.47,2.56-.13,1.5-.25,3-.39,4.41a6.39,6.39,0,0,1-1.87,3.84c-.72.75-2.85.07-3.45-1.11a23,23,0,0,1-.9-2.3c-1.47.48-2.9.91-4.31,1.41a1.62,1.62,0,0,0-.78.66,2.39,2.39,0,0,1-2.49,1.16c-.22,0-.62.39-.67.65-.44,2.06-.82,4.12-1.21,6.18a2.56,2.56,0,0,0-.07,1c.26,1.38-.58,2.25-1.38,3.13a1.66,1.66,0,0,1-1.79.38,2.72,2.72,0,0,0-1.28.24c-.57.18-1.25.75-1.65.58a4.75,4.75,0,0,1-2.69-2.34c-.83-1.63-.45-3.23-.36-4.83.16-3.08.45-6.16.8-9.22.15-1.38.86-2.75.75-4.08-.06-.8,1.18-1.57,0-2.36-.1-.07.18-.62.2-1,.09-1.49.15-3,.24-4.45a2,2,0,0,1,2.45-1.3c1.09.43,2.13,1,3.22,1.39a6.88,6.88,0,0,0,2.05.43,1.75,1.75,0,0,1,1.68,1.76C612.06,708.19,612,708.93,612,709.69Z"/><path class="cls-2" d="M490.09,698.78c1.52-.89,2.32.29,2.45,1.61.25,2.42.38,4.86.43,7.3,0,1.45-.28,2.9-.31,4.36s.2,3.08.08,4.6a32.87,32.87,0,0,1-.86,5.58c-.27,1.09-3.05,2.19-4.2,1.94-.65-.14-1.32-.18-2-.34-.25-.06-.63-.3-.64-.48-.06-1-.91-1-1.43-1.49a1.79,1.79,0,0,1-.53-1.09,21.58,21.58,0,0,1-.15-3.31c.19-3.2.5-6.4.7-9.6.14-2.21.21-4.43.26-6.65a4.9,4.9,0,0,0-.43-1.3c.73-.65,1.52-1.41,2.37-2.11A2.89,2.89,0,0,1,490.09,698.78Z"/><path class="cls-2" d="M488,681.37c.49.21,1,.43,1.48.63.13,0,.3,0,.44,0,.5.11,1.25.08,1.46.4a15,15,0,0,0,2.56,2.24,1.44,1.44,0,0,1,.42,1.93c-.19.29.1,1-.11,1.14-1.5,1.12-2.6,2.78-4.67,3.17a3,3,0,0,1-2.93-.67,14.6,14.6,0,0,1-1.83-2.93c-.09-.16.2-.5.19-.76a15.68,15.68,0,0,0,.1-2.4C484.79,682.41,485.47,681.33,488,681.37Z"/><path class="cls-3" d="M384.92,730.16v.07c.53-.19,1.06-.4,1.57-.63,1.64-.77,4.66-1.84,5.8-3.19,1.89-2.22,2.33-6.37,2.36-10.11C389.19,718.82,384.87,724.08,384.92,730.16Z"/><path class="cls-3" d="M386.51,710.6a21.92,21.92,0,0,1-7.05-8.66,21.35,21.35,0,0,1-1.8-7.64h-.14c-5.19,0-9.19,2.83-11.95,7.06a20.85,20.85,0,0,0-3.37,9.3,5.14,5.14,0,0,1,.35,1.51c.74,8.52,4.62,17.24,13.46,18.82a5.56,5.56,0,0,1-.08-.83C375.87,722.51,380.24,715.21,386.51,710.6Z"/><path class="cls-3" d="M392.59,704a18.46,18.46,0,0,0-5.08-6.15A10.2,10.2,0,0,0,392.59,704Z"/><path class="cls-3" d="M403.52,704.61a21.24,21.24,0,0,0,12.73-12.44c1.55-4.28,2.62-10.48.68-14.78-1.83-4-6.68-7.91-11.1-8.48-6.36-.81-15.6,1.43-18.14,7.7a4.47,4.47,0,0,1,.15,1.71c-.24,2.27-.67,5-1,7.86A28.44,28.44,0,0,1,403.52,704.61Z"/><path class="cls-3" d="M388.82,739.52a21.44,21.44,0,0,0,6.52,6.48c2.81,1.85,4.57,2,7.88,1.81a21.39,21.39,0,0,0,10.45-3c4.4-2.59,5.58-7,5.8-11.83.24-5-.06-9-3.85-12.69A19.67,19.67,0,0,0,404.5,715c-.09,6.36-.79,13.88-5,18.39C396.91,736.09,393,738.19,388.82,739.52Z"/><path class="cls-4" d="M392.59,704a11,11,0,0,0,1.25.56,14.31,14.31,0,0,0,9.68.05,28.44,28.44,0,0,0-16.64-18.43c-.41,4-.52,8.2.63,11.67A18.46,18.46,0,0,1,392.59,704Z"/><path class="cls-4" d="M388.17,738.39c.2.39.42.76.65,1.13,4.14-1.33,8.09-3.43,10.65-6.17,4.24-4.51,4.94-12,5-18.39-.59-.09-1.19-.16-1.79-.21a16.33,16.33,0,0,0-8.06,1.55c0,3.74-.47,7.89-2.36,10.11-1.14,1.35-4.16,2.42-5.8,3.19-.51.23-1,.44-1.57.63,0,5.43-8.06,5.67-8.91.76-8.84-1.58-12.72-10.3-13.46-18.82a5.14,5.14,0,0,0-.35-1.51,20.85,20.85,0,0,1,3.37-9.3c2.76-4.23,6.76-7.07,11.95-7.06h.14a54.24,54.24,0,0,1,.47-9.92,23.52,23.52,0,0,0-19.32,9.25c-5.13,6.71-6.66,13.57-6.87,21.86a4.41,4.41,0,0,0,1.68,3.76,29.6,29.6,0,0,0,7.07,14.19c4.33,4.82,11.64,7.68,18.07,7.75l.9,0a4.4,4.4,0,0,1-.14-.86Z"/><path class="cls-5" d="M386.88,686.18c.29-2.85.72-5.59,1-7.86a4.47,4.47,0,0,0-.15-1.71c2.54-6.27,11.78-8.51,18.14-7.7,4.42.57,9.27,4.45,11.1,8.48,1.94,4.3.87,10.5-.68,14.78a21.24,21.24,0,0,1-12.73,12.44c.11.42.22.84.32,1.27a33.53,33.53,0,0,1,10.3,2.84c5.52-4.71,9.89-9.72,11.6-17,1.62-6.9,1.93-14.75-2.21-20.84-3.93-5.79-10.63-10.45-17.7-10.92-12.75-.85-27.77,5.65-27.8,20.19a4.54,4.54,0,0,0,.39,1.9c-.1.78-.2,1.57-.29,2.36h.27A25.12,25.12,0,0,1,386.88,686.18Z"/><path class="cls-5" d="M386.51,710.6a25.91,25.91,0,0,1,7.24-3.77,17.89,17.89,0,0,0-1.16-2.83,10.2,10.2,0,0,1-5.08-6.15,16.3,16.3,0,0,0-9.85-3.55,21.35,21.35,0,0,0,1.8,7.64A21.92,21.92,0,0,0,386.51,710.6Z"/><path class="cls-5" d="M377.66,694.3a16.3,16.3,0,0,1,9.85,3.55c-1.15-3.47-1-7.68-.63-11.67a25.12,25.12,0,0,0-8.48-1.8h-.27A54.24,54.24,0,0,0,377.66,694.3Z"/><path class="cls-4" d="M393.84,704.56a11,11,0,0,1-1.25-.56,17.89,17.89,0,0,1,1.16,2.83,22,22,0,0,1,8.13-1.12c.66,0,1.31.09,2,.17-.1-.43-.21-.85-.32-1.27A14.31,14.31,0,0,1,393.84,704.56Z"/><path class="cls-1" d="M414.14,708.72c-.28.25-.57.49-.86.73a20.66,20.66,0,0,1-8.77,4.34c0,.39,0,.77,0,1.17a19.67,19.67,0,0,1,11.12,5.34c3.79,3.65,4.09,7.7,3.85,12.69-.22,4.82-1.4,9.24-5.8,11.83a21.39,21.39,0,0,1-10.45,3c-3.31.21-5.07,0-7.88-1.81a21.44,21.44,0,0,1-6.52-6.48,33.41,33.41,0,0,1-9.16,1.65,5.09,5.09,0,0,0,.3.85c2.39,5.23,6.92,9.42,11.81,12.34,4.7,2.82,8.57,2.55,13.87,2.31a27.11,27.11,0,0,0,17-7.39c5.09-5.17,5.86-12.7,5.87-19.57C428.51,719.74,422.35,712.52,414.14,708.72Z"/><path class="cls-1" d="M394.64,714l-.38-.05a18.79,18.79,0,0,1-7.75-3.32c-6.27,4.61-10.64,11.91-10.58,19.56a5.56,5.56,0,0,0,.08.83,17.14,17.14,0,0,0,2.75.25,18.59,18.59,0,0,0,6.16-1v-.07c-.05-6.08,4.27-11.34,9.73-13.86C394.66,715.5,394.66,714.71,394.64,714Z"/><path class="cls-4" d="M388.17,738.39l-8.65,1.92a4.4,4.4,0,0,0,.14.86,33.41,33.41,0,0,0,9.16-1.65C388.59,739.15,388.37,738.78,388.17,738.39Z"/><path class="cls-4" d="M376,731c.85,4.91,8.88,4.67,8.91-.76a18.59,18.59,0,0,1-6.16,1A17.14,17.14,0,0,1,376,731Z"/><path class="cls-1" d="M394.64,714c0,.74,0,1.53,0,2.33a16.33,16.33,0,0,1,8.06-1.55c.6,0,1.2.12,1.79.21,0-.4,0-.78,0-1.17A25.52,25.52,0,0,1,394.64,714Z"/><path class="cls-1" d="M394.26,713.92l.38.05c0-1-.06-1.84-.09-2.61a17.3,17.3,0,0,0-.8-4.53,25.91,25.91,0,0,0-7.24,3.77A18.79,18.79,0,0,0,394.26,713.92Z"/><path class="cls-1" d="M404.5,711.36c0,.78,0,1.59,0,2.43a20.66,20.66,0,0,0,8.77-4.34c.29-.24.58-.48.86-.73a33.53,33.53,0,0,0-10.3-2.84A25.59,25.59,0,0,1,404.5,711.36Z"/><path class="cls-1" d="M403.84,705.88c-.65-.08-1.3-.14-2-.17a22,22,0,0,0-8.13,1.12,17.3,17.3,0,0,1,.8,4.53c0,.77.06,1.66.09,2.61a25.52,25.52,0,0,0,9.87-.18c0-.84,0-1.65,0-2.43A25.59,25.59,0,0,0,403.84,705.88Z"/></g></svg>