<svg xmlns="http://www.w3.org/2000/svg" viewBox="0 0 1024 1024"><defs><style>.cls-1{fill:#c5dced;}</style></defs><title>mb-panel-a-3</title><g id="Ebene_2" data-name="Ebene 2"><path class="cls-1" d="M224.1,396.2c-9.89,30.88.46,65.1,17.93,92.42,2.75,4.31,5.77,8.74,6.33,13.83.55,4.89-1.25,9.7-2.73,14.39-7.26,23.06-6.4,50.36,9.11,68.91,12.55,15,33.74,23.6,39.72,42.23a15.45,15.45,0,0,1,.7,8.15c-1.66,7.07-9.91,10.17-17.09,11.25-8.88,1.34-18.11,1.34-26.69-1.32-11.24-3.48-20.74-11.36-27.84-20.75s-12-20.25-16.15-31.24A291.6,291.6,0,0,1,191.48,534c-2.3-15.16-3.31-30.48-4.32-45.78l-1.55-23.38c-.7-10.63-1.38-21.5,1.48-31.76,3.17-11.34,10.53-21.45,11.85-33.15.41-3.62.59-8,3.73-9.82,3.5-2.05,7.77.63,11,3.1s7.82,4.83,11,2.33"/><path class="cls-1" d="M175.61,301.26a1.8,1.8,0,0,1,.56,2.58,4.5,4.5,0,0,1-2.47,1.62c-3.21,1.11-6.63,1.47-9.91,2.34s-6.59,2.38-8.54,5.16-2.26,6.6-2.26,10.1a2.28,2.28,0,0,1-2.77-1,6.56,6.56,0,0,1-.82-3.09c-.31-3.23-.61-6.58.49-9.63a18.24,18.24,0,0,1,2.17-4,13.56,13.56,0,0,1,2.77-3.17c2.8-2.14,6.69-2.08,10.16-1.48s7,1.66,10.46,1.16"/><path class="cls-1" d="M195.71,252.28a70.38,70.38,0,0,0-16.11,34.3,8.51,8.51,0,0,0,.13,4.62c.87,2.19,3.22,3.33,5.15,4.69,4.82,3.41,7.71,10.15,5.09,15.44-1.18,2.37-3.31,4.2-4.37,6.64-1.78,4.11-.13,8.9,2.19,12.74s5.32,7.37,6.52,11.68c1.05,3.74.64,7.72,1,11.59.74,7.29,4.34,14.06,9,19.73s10.34,10.37,16,15.08c2,1.7,4.19,3.66,4.52,6.29-5.84,2.37-12.23-1.31-17.46-4.85l-12.69-8.6c-4.63-3.14-9.37-6.38-12.58-11-4-5.69-5.19-12.8-6.29-19.65a22,22,0,0,1-.29-7.95c.81-3.85,3.7-7.45,2.81-11.29-.75-3.25-3.92-5.23-6.44-7.42s-4.69-5.9-2.87-8.7,6.06-2.43,8.72-4.4A5.74,5.74,0,0,0,173.55,301c-1.45.19-3.35.74-4.05-.54a2.79,2.79,0,0,1-.23-1.25c-.38-15.71,8.27-30.37,19.07-41.79,2.47-2.61,5.61-5.3,9.17-4.82"/><path class="cls-1" d="M260,648c-4.08,2.75-5.83,7.8-7.31,12.5-3.16,9.94-6.34,20-6.92,30.44-.39,6.92.39,13.92-.76,20.76-2.34.55-4-2.2-4.74-4.49a76.57,76.57,0,0,1,5.07-58.14,4.71,4.71,0,0,1,1.46-1.89,4.57,4.57,0,0,1,2.51-.49,35.66,35.66,0,0,1,11.48,2"/><path class="cls-1" d="M320.27,631.48c.28,1.13.57,2.27.8,3.42,2.19,11-.31,22.54,2.59,33.33,1,3.73,2.65,7.47,2.08,11.28a2,2,0,0,1-.37,1,1.49,1.49,0,0,1-2.15-.25,4.58,4.58,0,0,1-.77-2.32c-1.36-8.92-5.87-17-9.81-25.09a34.61,34.61,0,0,1-3.51-9.88,4.33,4.33,0,0,1,.12-2.26,5,5,0,0,1,1.62-1.8q4.85-3.84,9.77-7.56"/><path class="cls-1" d="M259.11,795.24a61,61,0,0,0-15.45,1.08c-5,1.18-9.93,3.61-13.24,7.59a2,2,0,0,0-.55,1.05c-.15,1.84,3.39,1.09,4.39,2.64.9,1.38-.92,2.83-2,4a5.81,5.81,0,0,0,.35,8c1.54,1.38,4.09,2.37,3.92,4.43-.14,1.85-2.4,2.61-4.23,2.92-3.66.62-7.62,1.2-10.9-.51-2.43-1.26-4.1-3.6-5.58-5.91-2.17-3.39-4.19-7.19-3.93-11.22.38-5.75,5.24-10.11,10-13.4a48,48,0,0,1,7-4.17,30.67,30.67,0,0,1,30.32,3"/><path class="cls-1" d="M355.52,781.36a18.68,18.68,0,0,0-15.3,13.52c-.58,2.24-.47,5.1,1.54,6.23a10.4,10.4,0,0,1,2.08,1c1.69,1.6-.56,4.54.26,6.71.42,1.11,1.56,1.77,2.25,2.73,1.69,2.36,0,6-2.66,7.11s-5.8.32-8.36-1.05a20.34,20.34,0,0,1,4.17-37.54,34.77,34.77,0,0,1,8.81-1c2.44,0,5.15.13,6.87,1.86"/><path class="cls-1" d="M270.41,378.7a5.37,5.37,0,0,0-5.48,5.32,2.52,2.52,0,0,1-.15,1.42,2,2,0,0,1-1.59.7l-30,3.61c-.93.11-2,.16-2.62-.55s-.19-2.18.44-3.11a22.46,22.46,0,0,1,11.59-8.52,31.67,31.67,0,0,1,14.48-1.06c3.58.52,7.13,1.52,10.74,1.33,1.22-.07,3,.22,2.85,1.44l-1.47,0"/><path class="cls-1" d="M151.87,215.57c1.85,1.27,3.82,2.7,4.51,4.84a12,12,0,0,1,.2,4.48,37.2,37.2,0,0,0,0,4.09,3.75,3.75,0,0,0,.52,2,3.92,3.92,0,0,0,2,1.17l2.42.79a2.17,2.17,0,0,1,1,.56,2,2,0,0,1,.36,1,25.15,25.15,0,0,1,.45,5.61,7,7,0,0,0,.1,2,4.22,4.22,0,0,0,2,2.46c3,1.82,6.9.86,10.41.36,1.74-.25,3.59-.4,5-1.44a5.15,5.15,0,0,0,1.8-5.45,5.87,5.87,0,0,0-4.27-4c-1.46-.35-3.21-.24-4.22-1.36a4.49,4.49,0,0,1-.74-3.27,25.28,25.28,0,0,1,.83-5.41c1.14-4.09,3.63-7.71,4.75-11.81.83-3,.78-6.57-1.25-9a9.85,9.85,0,0,0-5.42-2.93,16.35,16.35,0,0,0-12.54,2,12.94,12.94,0,0,0-5.94,11,3.6,3.6,0,0,1-.2,1.88c-.29.57-1.14.89-1.58.43"/><path class="cls-1" d="M199.64,154.48c-1.73,2.34-3.5,4.79-4,7.65s.53,6.25,3.19,7.43c2.09.93,4.5.3,6.78.2a14.25,14.25,0,0,1,14.66,16.64C218.7,195.27,209.07,202,210,210.91a6.22,6.22,0,0,0,2.72,4.89c3.12,1.77,6.78-.85,10.21-1.87,2.86-.85,6-.57,8.79-1.63s5.12-4.48,3.48-7l-6.67-.21a2.89,2.89,0,0,1-2-.56,2.34,2.34,0,0,1-.6-1.42c-.6-4.34,3.22-7.82,5.91-11.27,6.72-8.65,6.89-21.89.1-30.48s-20-11.42-29.56-6a4.78,4.78,0,0,0-3.06-.5"/><path class="cls-1" d="M268.52,190.38a30.36,30.36,0,0,1,19.79.1,28.09,28.09,0,0,1,.34,21.09,17.26,17.26,0,0,1-3.52,5.79c-1.44,1.49-3.24,2.62-4.46,4.29s-1.65,4.22-.2,5.69c.46.47,1.09.8,1.4,1.39.6,1.14-.32,2.47-1.2,3.42a16.52,16.52,0,0,1-4.83,4,6.33,6.33,0,0,1-6,0c-2.4-1.53-2.93-4.78-2.95-7.62a10.26,10.26,0,0,1,.71-4.47,12.4,12.4,0,0,1,3.08-3.62c3.25-3,6.33-6.44,7.79-10.62s1-9.3-2.15-12.42c-2.8-2.78-7.69-4.32-7.94-8.26"/><path class="cls-1" d="M886.18,603.76c-2.37-15.54-7.46-30.6-9.45-46.19-3.3-25.93,2.11-52.09,3.34-78.2,1.14-24.32-1.34-48.66-3.81-72.89q-2.1-20.48-4.19-40.94c-.33-3.24-.94-6.93-3.71-8.64-2.07-1.27-4.71-1-7.12-.66l-7.2,1c2.68,12.22,5.64,24.4,5.78,36.87.15,13.85-3.2,27.52-3.91,41.36-.91,17.89,2.6,35.67,4.42,53.49,3.11,30.59,1.22,61.45-.68,92.14-22.74-13.74-51.54-10-77.73-5.53S727.1,584.2,704,571.13c-3.92-2.22-8.56-5-12.58-2.94-2.28,1.15-3.59,3.55-5.23,5.52-7.18,8.61-20.21,8.55-31.36,7.39a486.65,486.65,0,0,1-56-9.21c-17.1-3.85-36.29-8.31-51.12,1-3.59,2.26-6.74,5.25-10.62,7a12.38,12.38,0,0,1-8.72.64c-1.35,16.76,17.93,29.94,19.16,47.11,9.29-3.84,16.61-11.46,25.88-15.36s20-3.77,30.24-2.9a265,265,0,0,1,65.45,14c2.41.84,5,1.74,7.47,1,1.87-.58,3.31-2.06,4.67-3.48l17.92-18.72c3,4.94,9.13,7.21,14.91,7.49s11.5-1.08,17.26-1.69c28.08-3,55.41,11.83,83.63,11,18.18-.52,37-7.41,54-.93,3.71,1.41,7.63,3.46,11.41,2.28C886.48,618.45,887.15,610.1,886.18,603.76Z"/></g><g id="Ebene_1" data-name="Ebene 1"><path d="M380.28,788.54c.76,1.71,1.13,2.79,1.68,3.76,4.35,7.6,1.84,16.54-3,21.54-2,2-1.93,2.11-2.86,4.86,11.19,1.14,22.42.83,34.18,2.39-1.1.31-1.63.51-2.17.6-1.7.26-3.41.51-5.12.72-1.42.17-2.86.36-4.3.41-6.75.23-13.51.37-20.24,1.19a45.91,45.91,0,0,1-5.63.08c-6.34,0-12.67,0-19,1.12a21.75,21.75,0,0,1-4.27,0c-.72,0-1.43-.14-2.15-.15a54.58,54.58,0,0,1-9-.67c-3.67-.65-7.45-.63-11.17-1s-7.41-1-11.11-1.55a4.83,4.83,0,0,1-1.35-.65c0-.94.39-1.18,1-1.28a43.38,43.38,0,0,1,12.92.28c1.24.16,2.47.6,3.84-.16-2.48-3.06-4.78-6.14-7.33-9-3.42-3.8-3.75-8.22-3-12.92.28-1.84.72-3.65,1.07-5.39a7.09,7.09,0,0,0-4.4-.83c-7.06.12-14.13.43-21.18.22-5.17-.14-10.32-1-15.47-1.53a46.58,46.58,0,0,0-6.08-.59c.22,2.24.48,4.19.57,6.15s0,4,0,5.81c1.85,3.18,3.67,6.28,5.47,9.38a14.62,14.62,0,0,1,1,2c1.06,2.7,1.2,5.37-.69,7.77s-3.7,4.39-5.56,6.58c-.26.3-.5.61-1,1.25a13.72,13.72,0,0,0,2.22.41c7.5.06,15,0,22.51.15,8.22.16,16.43.41,24.64.83,3.27.16,6.52.89,10.6,1.48a162.56,162.56,0,0,1-19.51,1.19,116.34,116.34,0,0,0-17.69.69c-4,.54-8.05.27-12.08.37a9.93,9.93,0,0,0-2.57.21,14.6,14.6,0,0,1-8.13,0c-4.75-1.24-9.46-.63-14.2-.35-1.72.1-3.44.1-5.17.14a32.78,32.78,0,0,0-3.44.1,67.94,67.94,0,0,1-19.83-.49,20.29,20.29,0,0,1-2.9-.83c-2.62-.83-5.22-1.74-7.88,0a2.8,2.8,0,0,1-1.69.19c-3.58-.37-7.19.37-10.77-.31a15.31,15.31,0,0,0-2.14,0c-3.16-.13-6.31-.32-9.47-.42-5.47-.16-10.94-.19-16.41-.41-5-.21-10-.59-15.06-.87-1.29-.07-2.6,0-3.87-.12a15.64,15.64,0,0,1-3.73-1,381.93,381.93,0,0,1,58.18-2.83c.62-1.18-.11-1.59-.62-2A20.38,20.38,0,0,1,211.3,818c-2.27-4.66-2.73-9.4-.46-14.15a42,42,0,0,1,3.38-5.5c.89-1.3,2-2.46,2.95-3.63-.21-1.08-1-1-1.69-1-4.46,0-8.93,0-13.4,0-5.9,0-11.81.09-17.71.19a171,171,0,0,0-20.22,1.49c-2.45.33-4.83-.19-8.14-.9a70.13,70.13,0,0,1,9.24-2.33,307.41,307.41,0,0,1,36.56-3.84c7.2-.35,14.41-.28,21.62-.49,4-.11,8-.48,12.06-.6a42.2,42.2,0,0,1,6.45.28c4.14.48,8.26,1.13,12.63,1.75a16,16,0,0,0,.32-2.39,123,123,0,0,0-4.78-31.54c-2.87-10.56-5.56-21.17-8.35-31.76-.55-2.08-1.19-4.15-1.8-6.21-2.27-7.63-3.32-15.49-4.36-23.34a85.73,85.73,0,0,1-.57-18.53c.5-6,1.18-12,2.28-18,.62-3.37,1.63-6.64,2.42-10,.29-1.24.39-2.52.59-3.81-3-2.07-5.81-4-8.63-6a31.7,31.7,0,0,1-7.46-7.16c-2.47-3.37-5-6.69-7.4-10.13a45.75,45.75,0,0,1-5.75-11.11c-.94-2.71-2.24-5.3-3.39-7.94a22.67,22.67,0,0,1-1.05-2.38c-3.73-12.13-8.29-24-12.31-36a98.84,98.84,0,0,1-4.58-18.84c-.65-5.14-1.85-10.21-2.69-15.33-.54-3.27-.92-6.56-1.27-9.85-.72-6.87-1.22-13.78-2.08-20.63a156.69,156.69,0,0,1-.92-18.11c0-4-.37-8-.58-12.22-.37.27-.88.45-.9.68a37.88,37.88,0,0,1-3.63,12.35c-2,4.45-4.57,8.71-8.4,11.91-5,4.19-10.92,6-17.3,4.49-3.6-.87-6.75-3-8-7.1-1.39-4.46-2.38-8.91-1.8-13.61a14,14,0,0,0,.06-3,12,12,0,0,1,.91-5c.8-2.3,1.2-4.73,1.86-7.09,1.14-4.11,1.39-8.4,3-12.47,1.2-3,1.33-6.43,1.9-9.68a29.15,29.15,0,0,1,.46-3.41A127,127,0,0,0,154,419.63c0-.14.07-.28.08-.43.45-6,1.62-12,2-18a169.22,169.22,0,0,0-.16-20.76c-.23-4-1.38-7.93-2.15-11.88A4.11,4.11,0,0,0,150.5,365a12.09,12.09,0,0,1-6.38-5c-1.59-2.21-2-5-2.06-7.8-.08-3.11,1-6,2.11-8.76.93-2.27,1.9-4.52,3-6.72,2.72-5.51,3-11.35,2.3-17.29-.52-4.46-.95-8.86.49-13.27a11.64,11.64,0,0,1,4.13-5.9,7,7,0,0,1,6.51-1.32c1.92.53,3.88.91,6.1,1.41.35-1.78.74-3.28.94-4.8a88.89,88.89,0,0,1,7.79-26,23.15,23.15,0,0,1,3.62-5.3,88.68,88.68,0,0,1,7.46-7.8,40.2,40.2,0,0,1,5.74-3.8c7.07-4.49,14.86-5.82,23.13-5.72a79.49,79.49,0,0,1,15.79,2.23c5.36,1.17,9.69,4.23,13.55,8,2,2,4.29,3.82,6.42,5.75,4.06,3.67,7.87,7.67,12.21,11,5.19,4,9.61,8.69,14.37,13.09a40.66,40.66,0,0,1,5.11,5.84,81.93,81.93,0,0,0,6.77,8.32c2.42,2.51,3,5.9,4.06,9,1.2,3.38,1.83,7,2.84,10.41,1.37,4.69.92,9.39.32,14.11-.43,3.43-.82,6.85-1.19,10.29a5.24,5.24,0,0,0,.22,1.34c2.12.82,4.31,1.48,6.33,2.48,2.19,1.09,3,3.37,4.13,5.81-.58,1-1.21,2.28-2,3.44a9.74,9.74,0,0,0-1.24,8.66c.66,2.35,1.22,4.73,1.78,7.11.69,2.9.8,5.73-1.13,8.28a3.72,3.72,0,0,0-.41.76c-.64,1.4-.54,2.2.69,3a38.88,38.88,0,0,1,4.3,3.56,21.21,21.21,0,0,1,4.26,5.39c4.2,6.64,6.83,14,9,21.43a92.8,92.8,0,0,1,1.86,9.73c1,5.38,2.06,10.74,1.62,16.28a19.21,19.21,0,0,0,.36,3.43,25.44,25.44,0,0,1,.36,3.87c-.24,4.72-.29,9.42-.1,14.16.24,6-1.1,12-2.83,17.77a11.82,11.82,0,0,0-.71,2.48c-.24,3.13-2.35,5.19-4.17,7.36a5.91,5.91,0,0,1-7.46,1.36c-2.12-1.15-4.08-2.59-6.13-3.93-.51.63.13,1.2.38,1.8a64.74,64.74,0,0,0,4.85,9.58,70.39,70.39,0,0,1,5.61,10.66c3.18,7.91,7.14,15.42,11,23A62.64,62.64,0,0,1,332.16,549c1.21,5.46,3,10.81,4.1,16.29a73.9,73.9,0,0,1,.92,10.75,102,102,0,0,1-1.74,25.41,66.74,66.74,0,0,1-8.11,21.74c-1.48,2.43-2.62,5.08-5.18,6.77a98,98,0,0,1,10.3,20,119.56,119.56,0,0,1,6,22.92,92,92,0,0,1,1,11.63c.43,9.21,1.35,18.4,1.05,27.65-.18,5.62,0,11.25-.05,16.87,0,2.72-.44,5.44-.55,8.16-.15,3.6-.1,7.2-.25,10.8-.1,2.41-.44,4.82-.59,7.23a40.91,40.91,0,0,0-.1,5.19,73.1,73.1,0,0,1-.77,14.56,11.14,11.14,0,0,0,0,2.16,3.68,3.68,0,0,0,.47,1l3.23-.36c6.61-.69,13.21-1,19.79.41a28.64,28.64,0,0,1,8.79,3.5,17.53,17.53,0,0,0,9.09,2.3c6.63.11,13.27.34,19.9.21,9.8-.18,19.6-.6,29.39-1,13.41-.53,26.83-.52,40.25-.35,2.72,0,5.43.41,8.15.52,2.3.1,4.61,0,6.91.06a2.26,2.26,0,0,1,1.58.57,10.19,10.19,0,0,1-1.62.23,46.93,46.93,0,0,0-9,1.11,112.21,112.21,0,0,1-11.61,1c-6.18.39-12.36.71-18.54,1-1.58.08-3.17-.06-4.74.11-4.56.47-9.1,1.1-13.67,1.58-9.74,1-19.49,2-29.3.76-4.43-.54-8.89-.88-13.34-1.27C383,788.47,382,788.54,380.28,788.54ZM262.51,390.47a11.21,11.21,0,0,0-1.11,1,24.73,24.73,0,0,1-15.54,8.58,81.14,81.14,0,0,1-10.78.58,45.59,45.59,0,0,1-14.87-2.39c-5.49-1.67-11-3.48-15.83-6.74-.21-.14-.55-.09-1-.15-.87,2.18-2,4.36-2.62,6.65-1.41,4.84-2.66,9.73-3.84,14.63-.58,2.36-.47,5-1.38,7.16-1.16,2.77-1.21,5.59-1.53,8.44-.44,3.86-1.12,7.69-1.52,11.56-.67,6.45-1.2,12.91-1.78,19.37-.18,2-.48,4-.51,6-.12,7.64-.19,15.28-.17,22.92,0,4.47.1,8.94.37,13.39.3,5.18.85,10.34,1.26,15.5.26,3.16.46,6.32.71,9.47a19.41,19.41,0,0,0,.33,2.14c.84,4.37,1.67,8.75,2.55,13.11,1,4.8,1.72,9.66,3,14.35,1.87,6.66,4,13.23,6.35,19.75,3,8.55,6.11,17.09,9.52,25.49,2.25,5.57,4.3,11.24,7.74,16.34,5.39,8,11.45,15.14,19.5,20.51,1.08.72,2.05,1.54,3.51,1.4s2.37.78,3.48,1.48c3.06,1.92,6.23,3.6,10.07,3.14a3.75,3.75,0,0,1,3.48,1.24,5.4,5.4,0,0,0,3.05,1.34c2.7.36,5.55,1,8.14.55,3-.58,5.68.51,8.51.31a6.8,6.8,0,0,0,1.28-.17c5.29-1.42,10.66-2.63,15.49-5.34,3-1.69,5.88-3.6,8.86-5.32,5.09-2.94,8.79-7.36,12.29-11.87,4.26-5.47,7.78-11.41,8.83-18.47.1-.7.48-1.37.6-2.07,1-5.38,2.25-10.74,2.77-16.16a68.66,68.66,0,0,0-2.08-24.82c-.95-3.46-2-6.89-3-10.33a53.14,53.14,0,0,0-1.53-5.36c-1.53-3.81-3.2-7.58-4.77-11.37a43.23,43.23,0,0,0-3-6.16,48.91,48.91,0,0,1-2.87-5.75c-2.07-4.6-4-9.26-6.11-13.84-3.17-6.93-6.45-13.82-8.78-21.1a94.44,94.44,0,0,1-3.26-10.73c-.68-3.5-1.89-7-1.6-10.64a6.58,6.58,0,0,0-.58-2.07c-.95-3.46-1.76-7-2.9-10.39-1.75-5.25-2-10.74-2.75-16.15s-1.35-11.14-2.2-16.68c-.68-4.41-1.58-8.78-2.5-13.14-1.1-5.2-2.18-10.41-4.93-14.75-2.89-.89-5.48-1.75-8.11-2.46S265.22,391.12,262.51,390.47ZM293,346.94a6.38,6.38,0,0,1-.9-2c-.1-2.16-.05-4.32,0-6.48,0-3.17.19-6.34.07-9.51a20.07,20.07,0,0,0-.94-5.5c-1.65-5.05-3.58-10-5.23-15.05a21.15,21.15,0,0,0-3.91-7.15c-1.56-1.86-3.32-3.61-4-6.06a3.86,3.86,0,0,0-1-1.42c-2.93-3.15-5.33-6.82-9.06-9.2a6,6,0,0,1-1.59-1.45,39.76,39.76,0,0,0-9.59-8.66,22.41,22.41,0,0,1-2.64-2.23c-3.24-3.05-7-5.59-9.9-9a20.67,20.67,0,0,0-3.41-2.64c-1.61-1.21-3.18-2.48-4.85-3.58-2.28-1.49-4.32-3.39-7.11-4-5.36-1.15-10.74-2.1-16.27-1.75A35.88,35.88,0,0,0,198.55,255c-3.66,1.84-6.31,4.89-9.58,7.19a6.32,6.32,0,0,0-2.5,2.87c-.87,2.87-3,4.85-4.81,6.88-3.28,3.68-5,8-6.52,12.48-1.44,4.21-2.33,8.6-3.41,12.93a21.25,21.25,0,0,0-.27,2.83,6.84,6.84,0,0,0,1.84-.65c.66-.54,1.14-1.3,1.78-1.86a2.32,2.32,0,0,1,3.73.38,16.65,16.65,0,0,1,2.81,8.5,8.15,8.15,0,0,1-5.1,7.7c-1.44.6-2.87,1.21-4.39,1.86-.15,2-.87,3.74-.61,5.59a10.46,10.46,0,0,0,1.3.62,10.56,10.56,0,0,1,7,7.11c1.21,3.74,1.76,7.74.43,11.45a17,17,0,0,0-.59,10,41.64,41.64,0,0,0,3.67,10.55,73,73,0,0,0,5.3,8.38c2.37,3.25,4.62,6.58,7.81,9.2a75.18,75.18,0,0,0,12.4,8.53c4.71,2.51,9.36,5.09,14.65,6.23,1.54.33,3,1,4.56,1.33a31.83,31.83,0,0,0,5.09.93,53.19,53.19,0,0,0,18-1.45c2.71-.74,5.48-1.68,7.79-4.26a22.35,22.35,0,0,0-4.53-.77c-5,.28-10,.75-15,1.16-2.58.21-5.16.63-7.75.65s-4.66-3.63-3.4-5.73c1.56-2.58,3.24-5.15,5.81-6.88a24.91,24.91,0,0,1,19-3.88c4.54.76,9.13,1.31,13.68,2,3.08.48,6-.34,9-.74a4.66,4.66,0,0,0,1.91-1,12,12,0,0,0,4.54-5.64c1.58-4.48,3.28-8.93,4.67-13.47C288,352.36,289.22,348.77,293,346.94Zm12.21,296.3a95.8,95.8,0,0,1-15.82,6.42c-4,1.21-7.95,2.49-12.26,2.12-3.87-.33-7.76-.36-11.64-.54-2.11-.09-2.84.3-3.63,2.3-.68,1.75-1.23,3.54-1.8,5.32a74.19,74.19,0,0,0-2.28,12.28c-1.13,8.15-2.39,16.27-1.33,24.52.06.43,0,.87,0,1.3.23,6.92.48,13.83.7,20.75.27,8.39,2.06,16.58,3.31,24.84.58,3.82,2,7.53,2.59,11.35,1.28,7.88,3.95,15.34,6.72,22.75a53.94,53.94,0,0,0,4.64,10.14c16.47.21,32.72-.15,48.91-.93a18.86,18.86,0,0,0,1.47-6.77q.19-3,.62-6a62,62,0,0,0,.45-15.09c-.3-2.87-.76-5.73-.95-8.6-.51-8-.83-16.08-1.4-24.1-.89-12.49-1.95-25-3.77-37.36a137,137,0,0,0-4.21-20.73,171.93,171.93,0,0,0-7.16-18.05C307.6,647.21,307.22,645,305.25,643.24ZM245.35,827.6c3.84-.29,8.73-.64,13.61-1.06,1.57-.14,3.13-.48,4.69-.75,6.28-1.08,10.59-5,14.07-10a4.6,4.6,0,0,0,.28-5.28,29.72,29.72,0,0,1-1.78-3.46c-.78-1.91-2.49-2.72-4.14-3.51-2.07-1-4.31-1.63-6.35-2.67a69.15,69.15,0,0,0-14.52-5.41,42.5,42.5,0,0,0-5.5-1c-1.85-.23-3.72-.31-5.59-.38a35.58,35.58,0,0,0-14,1.78c-5.45,2-9.13,6-11.82,10.84-2.41,4.32-1.74,7.36,1.66,11a11.05,11.05,0,0,0,1.62,1.44c5.62,3.9,11.64,6.89,18.55,7.68C238.83,827.13,241.57,827.29,245.35,827.6Zm87.64-16a24.59,24.59,0,0,0,18.08,6.29c9.29-.86,17.59-4,24.34-10.75A15.07,15.07,0,0,0,379.7,798a3.42,3.42,0,0,0-.38-2.07,15.38,15.38,0,0,0-2.87-3.74,32.46,32.46,0,0,0-10.35-6.09,65.89,65.89,0,0,0-10.87-2.59,80.59,80.59,0,0,0-11.15-.91,14.51,14.51,0,0,0-11.43,5.1c-.95,1.07-2,2.2-1.9,3.75.12,2.88.25,5.76.59,8.62C331.78,803.91,332.42,807.72,333,811.64Zm-22.7-171c.61,1,1,1.55,1.38,2.19,3,5.9,5.58,12,8,18.11A63.22,63.22,0,0,1,323,671.63c1.75,9,3.46,18.08,4.46,27.25.65,6,1.36,12,1.88,18,.43,5,1.12,10,1.49,15,.37,4.87.07,9.76.47,14.64q.75,9.24,1.2,18.5a57.64,57.64,0,0,1-.28,7.31c-.24,3-.62,5.94-1,9.44l4.34-2.18c-1.8-10.49-1.08-20.88-1-31.25,0-9.22.24-18.44.31-27.67q.07-8.43,0-16.87c0-2.73-.2-5.47-.37-8.2-.24-3.74-.57-7.47-.83-11.21-.1-1.44,0-2.89-.17-4.32a98.45,98.45,0,0,0-5.29-23.5,190.09,190.09,0,0,0-8.17-20c-.36-.73-.86-1.4-1.38-2.23Zm-39.24,156a4.88,4.88,0,0,0,0-1.41c-1.43-4.22-2.55-8.59-4.43-12.61-6.29-13.43-9.65-27.71-12.7-42.1-.83-3.94-1.36-7.94-2-11.93a93.82,93.82,0,0,1-1.32-9.39c-.48-9.36-.9-18.73-1.08-28.09a169.73,169.73,0,0,1,1.81-25.86c.6-4.46,2-8.69,3.23-13a23.85,23.85,0,0,0,.43-2.71l-7.7-2.23a37.79,37.79,0,0,0-1.61,4.16c-1.4,5.43-3.06,10.81-3.57,16.43-.37,4-.47,8.05-.9,12.05s.41,8,.66,12a156.89,156.89,0,0,0,4.26,27.25c1.16,4.76,2.53,9.46,3.65,14.22,2.63,11.2,5.17,22.42,7.74,33.64a58.73,58.73,0,0,1,1.88,12.37,7.21,7.21,0,0,0,.32,2.12,23.27,23.27,0,0,1,1.4,10.11C264.53,793.27,267.42,795.46,271.05,796.64ZM175.93,304a4.68,4.68,0,0,0-1.18-.08,17.24,17.24,0,0,1-11-.65,7.68,7.68,0,0,0-1.26-.29c-3.59-.72-6.35.67-7.45,4.18a19.79,19.79,0,0,0-.74,5.95c0,2.88.37,5.75.52,8.63a23.61,23.61,0,0,1,0,5.11c-1.16,6.95-2.41,13.88-5.93,20.18a10.18,10.18,0,0,0-1.41,6.65c.94,4.88,5.46,8.56,10.85,6.85a11.08,11.08,0,0,0,3.85-1.89c2.12-1.81,4.48-3.27,6.23-5.65a25.41,25.41,0,0,0,4.5-8.26,13.44,13.44,0,0,1,.84-2c2.07-4.4,2.43-8.84.2-13.29a26,26,0,0,0-2-2.87l-2.35,1.62-2.22-1.92c-3.25,2.78-6.12,5.53-7,9.74l1.07,1.73c-.31.55-.9,1.18-.76,1.48a2.66,2.66,0,0,0,1.44,1.32,5.23,5.23,0,0,0,2.13.07c1.41-.12,2.8-.31,4.78-.54-.85,1-1.22,1.88-1.85,2.17-3,1.4-6.19,1.86-9-.35-3-2.35-3.21-5.61-2.29-9.05a6.68,6.68,0,0,1,.61-1.61c1.11-2,2.26-4,3.61-6.32-.41-1.18-1.07-2.78-1.53-4.43-1.28-4.5,1.21-8,5.88-8.44,2.15-.19,4.31-.34,6.46-.55a5.66,5.66,0,0,0,3.87-2.54C175.83,307.68,176.76,306.1,175.93,304Zm56.89,83.7a18.09,18.09,0,0,0,2.44,0c3.13-.4,6.27-.8,9.38-1.34a57.94,57.94,0,0,1,18.07.14c3.4.48,6.74,1.46,10.11,2.15,3.94.82,7.89,1.94,11.93.81a39.22,39.22,0,0,0,7.18-2.61c1.74-.87,3.49-2.07,3.78-4.38a1.93,1.93,0,0,1,.63-1.09c2.6-2.33,2.7-5.24,1.93-8.32a31.26,31.26,0,0,0-1.58-5.34,11.45,11.45,0,0,1,0-9.61c.61-1.45,1.37-2.84,2-4.3a2,2,0,0,0-1.09-2.84c-1.51-.75-2.72-.61-3.4.61-1.59,2.87-3.33,5.6-4,9A85.13,85.13,0,0,1,287,373.08c-1.2,3.34-3.74,5.36-6.48,7.27-3.55.44-7,1.56-10.69,1-4.13-.59-8.27-1.12-12.4-1.75a46.08,46.08,0,0,0-13.32-.16c-5.12.7-8.45,3.84-11.41,7.62C232.66,387.18,232.76,387.38,232.82,387.72Zm-56.65,28.1a118.75,118.75,0,0,1,10.37-19.23c1.88-2.77,4.15-4.72,7.53-5.3a21.87,21.87,0,0,0,5.53-1.67c-1.84-2.73-4.76-3.61-6.72-5.62s-4.41-3.72-6.37-5.8a50,50,0,0,1-5-6.48,84.35,84.35,0,0,1-4.32-7.42c-1.31-2.5-2.43-5.1-3.79-8-1.06,1.09-2,2-2.8,2.89s-1.63,1.93-2.22,2.65c1.66,5,3.25,9.59,4.73,14.25a77.62,77.62,0,0,1,3.54,20.76A79.66,79.66,0,0,1,176.2,412,25.73,25.73,0,0,0,176.17,415.82Zm-3.68,58.9c-.61.5-1.08.7-1.22,1-1.73,4-4.57,7.33-7.13,10.8-1.54,2.08-3.09,4.17-5.62,5.24a1.48,1.48,0,0,0-1.1,1.62c.12.1.23.28.34.27a3.44,3.44,0,0,0,1.21-.16,21.34,21.34,0,0,0,5.92-4.1c3.65-3.61,5.51-8.34,7.68-12.85C172.76,476.16,172.54,475.55,172.49,474.72Zm143.18.42c1.85-7.7,2-11.3.78-13.88-1.37,2.42-3.83,3.85-4.9,6.56l4.12,4.55Zm-154.45-24c.79-2.57,1.91-4.52,1.69-7.2a13.13,13.13,0,0,0-4.51,6Zm5.34-23.7c-1.52,0-2.06,1.09-2.72,1.95a2.66,2.66,0,0,0-.54,1.5,10,10,0,0,0,.46,2l2.67-.52C166.46,430.59,167.72,429.05,166.56,427.44Zm-1-111.35c-2.4,1.71-2.36,3.36.07,6.37a2.33,2.33,0,0,0,.34-.2c.1-.09.26-.22.25-.32C166,320,165.8,318.07,165.57,316.09Zm135.3,80.79a14,14,0,0,0-2.61-6.54l-1.76,1.38a15.6,15.6,0,0,1,2.23,2.25C299.3,394.89,299.24,396.19,300.87,396.88Zm4.47,31.19c0,2.2,0,3.61,0,5s-.68,3.06.82,4.62c.22-.6.63-1.15.49-1.47a13.58,13.58,0,0,1-.7-6.77C306,429.24,305.74,429,305.34,428.07Zm3.11-24.1c-1,3-1,3.17.66,4.69a1.19,1.19,0,0,0,1.9-.08A9,9,0,0,0,308.45,404Zm20.71,403.11c-.83-2.05-1.35-4.26-2.94-6.3C325.55,803.91,327.46,805.46,329.16,807.08Zm-180-321c1-2.63.78-3.15-1.33-4C147.28,483.63,147.82,484.78,149.18,486.1Zm10.18-26.63c-1.36.88-2.15,1.6-2.09,2.85,0,.15.43.43.61.4C159.61,462.42,159.32,461.1,159.36,459.47Zm126.39-61.56c.39-2.52.38-2.6-.79-2.77-.54-.08-1.15-.07-1.33.83Zm6.8,29.13c.44-2.87.44-2.87-.75-3.87C292,424.4,292.21,425.27,292.55,427ZM159.69,366.36c-.43-.4-.67-.82-1-.88-.78-.15-1,.53-1,1.09,0,.31.38.62.58.93Zm-1.26,109.77h-.26a7.1,7.1,0,0,0-.12,1.12c0,.14.24.27.36.41a1.22,1.22,0,0,0,.14-.39C158.53,476.89,158.47,476.51,158.43,476.13Zm158.25-26.82a3.8,3.8,0,0,0-.18.7c0,.1.17.21.26.31.14-.2.36-.39.4-.6S316.85,449.45,316.68,449.31ZM259.57,788.13c-.31.2-.65.31-.66.44a1,1,0,0,0,.31.68c.1.09.39,0,.6-.09Zm31.36-373.89-.2-.28c-.07.08-.2.17-.19.25s.11.2.18.31Zm-122-10.1-.24-.3a4.6,4.6,0,0,0-.37.64s.18.16.28.25Zm-18.53,86.63c0,.12-.13.26-.1.36s.17.18.26.27l.15-.61Z"/><path d="M690,324.36c2.05-4.61,5.61-7.57,9.28-10.31,7.71-5.75,16.45-9.48,25.64-12.14,3.9-1.13,8-1,12-1a104.83,104.83,0,0,1,16.76,1.76,18,18,0,0,1,5,1.33c4.57,2.25,9.62,3,14.35,4.71,7.72,2.83,15.8,4.43,23.64,6.84,4.68,1.44,9.47,2.44,14.21,3.61,4.18,1,8.37,2,12.58,2.95A80.43,80.43,0,0,0,842.31,324a6.13,6.13,0,0,0,1.29-.07c4.61-1.11,9.22-2.25,14.32-3.5,2,.09,2.48,2.86,4.28,3.52v7.78c.68.29,1.44.6,2.19,1s1.5.86,2.31,1.16a6.68,6.68,0,0,1,4.39,4.94l2.38,9.19c.83,3.27.43,6.59.16,9.86a77.2,77.2,0,0,0-.66,10.32c.14,3.14-.2,6.29-.32,9.44a8.43,8.43,0,0,0,0,.87c.35,5,.72,10,1.07,15a35.94,35.94,0,0,1,.19,3.87,72.82,72.82,0,0,0,1.62,19.31,22.77,22.77,0,0,1,.37,3.88c.35,6.19,1.13,12.32,2,18.47,1.09,8,2,16,1.66,24.09-.11,2.42.59,4.78.4,7.25-.09,1.25-.11,2.52-.23,3.8a107.37,107.37,0,0,0-.53,10.76c0,3.9-.79,7.71-1,11.57-.06,1.15-.42,2.28-.39,3.42a92,92,0,0,1-.82,13.78c-.27,2.14-.27,4.31-.33,6.47-.14,5.33-.32,10.67-.35,16,0,4.9.1,9.8.22,14.7.09,3.87.32,7.75.4,11.63a77.92,77.92,0,0,0,.64,9.88,45.27,45.27,0,0,1-1.38,18.83,12.76,12.76,0,0,1-7.69,8.7,19.14,19.14,0,0,1-12.67.74,32,32,0,0,0-8.54-1.08,16.5,16.5,0,0,1-5.08-.89A57.28,57.28,0,0,0,829,596.54a26.28,26.28,0,0,1-3.42-.47,38.3,38.3,0,0,0-11.21-.3c-2.44.22-4.86.59-7.31.79A82.73,82.73,0,0,0,796.83,598c-5.62,1.2-11.33,2-17,3-3.26.56-6.56,1-9.79,1.69-2.51.56-4.87,1.63-7.48,2-7.87,1-15.74,1.59-23.68.76A105.76,105.76,0,0,1,726,603.66c-4.89-1.13-9.31-2.93-12.94-6.47a25.59,25.59,0,0,0-2.13-1.7c-7.38,4.27-15.26,3.54-23.12,2.16-2.19-.38-4.22-1.7-6.81-2.79a50.32,50.32,0,0,0-6,3.79,8.14,8.14,0,0,1-5.91,2.15,86.26,86.26,0,0,1-10.3-1.12c-6.64-1.31-13.21-3-19.85-4.36-10.32-2.11-20.7-3.88-31.29-3.6a216.51,216.51,0,0,0-23.72,1.7,179.6,179.6,0,0,0-19.8,4.22c-4,1-8.13,2-12.18,3a23.25,23.25,0,0,0-3.29,1,12.69,12.69,0,0,1-11.63-.75c-2-1.13-4.11-2-5.59-3.92-2.08-2.69-3.71-5.5-3.55-9.05a3.51,3.51,0,0,0-.09-.85c0-.12-.18-.21-.28-.33-1,.17-2.06,1.41-3-.37.2-1,.43-2.07.64-3.06-.71-1.12-1.3-2.11-2-3a12.06,12.06,0,0,1-2-8.61c1.07-8.87,1.95-17.76,2.34-26.7.07-1.72.51-3.42.62-5.15a103.29,103.29,0,0,0-1.52-23.69c-1.56-9.38-3.37-18.72-5.09-28.08-.28-1.55-.61-3.11-1-4.63-2-7.1-2.93-14.41-4-21.67a14.91,14.91,0,0,1-.21-3.88c.64-5.62.25-11.24.27-16.85a15.41,15.41,0,0,1,.12-2.15c1-7.43,2-14.85,3.12-22.27a15.69,15.69,0,0,1,.9-2.85q.78-2.25,1.6-4.47a7.06,7.06,0,0,0,.26-3.79c-.5-3.12-.78-6.28-1.07-9.43-.43-4.59-.63-9.21-1.21-13.78-.7-5.57-1.46-11.16-2.62-16.65-1-4.76-.12-9.16,1.4-13.54.77-2.23,2.63-3.68,4.55-4.91-1.09-3.8-2.12-5.56-8.43-14.49A2.14,2.14,0,0,1,513.8,331a5.79,5.79,0,0,1,1.26.3c6.44,2.59,13.19,4,19.93,5.45a27.1,27.1,0,0,0,12-.17,63.92,63.92,0,0,0,6.69-1.77c7.23-2.45,14.42-5,21.65-7.49,2.73-.92,5.56-1.53,8.29-2.45,7-2.35,13.91-4.74,20.83-7.22a67,67,0,0,1,11.64-3.17c4.83-.79,9.63-1.9,14.49-2.46a86.09,86.09,0,0,1,27.55.84c3.81.79,7.61,1.66,11.42,2.45a34.23,34.23,0,0,1,13.33,5.85,45.45,45.45,0,0,0,5.63,3.16C688.84,324.51,689.34,324.36,690,324.36Zm13.24,250.71a4,4,0,0,0-.78,0c-.14,0-.24.22-.36.33a1.78,1.78,0,0,0,.41,0c.26-.09.5-.22.75-.32.62.31.79,1.5,1.86.94-.31.54-.47,1.1.23,1.43,4.9,2.33,9.42,5.28,15,6.2a56.8,56.8,0,0,0,19.72.1,17.82,17.82,0,0,0,2.19-.68,42.75,42.75,0,0,0-8.15-1.38c-4.59-.46-9.25-.53-13.74-1.42-5.19-1-10.24-2.8-15.4-4.22C704.29,576,703.44,576.16,703.26,575.07Zm-157.32,2.39a2.88,2.88,0,0,0-.83,0c-.12,0-.17.33-.25.51.14,0,.32,0,.41-.05a6.28,6.28,0,0,0,.56-.59c.27,0,.55-.05.82-.1a1.22,1.22,0,0,0,.35-.2c-.23-.09-.53-.32-.66-.24S546.07,577.23,545.94,577.46Zm11.76-3.19c8.12-2.9,16.62-4,25.12-5.19a31.61,31.61,0,0,0-5.9-.21,62.65,62.65,0,0,0-6.41.78,43.63,43.63,0,0,0-11.11,3.26,10.86,10.86,0,0,0-1.66,1.24,1,1,0,0,1-.39.13c-.1,0-.19-.14-.28-.22Zm112.31,12a12.29,12.29,0,0,0-2.53-.38,60.56,60.56,0,0,1-18.75-2.19,12.53,12.53,0,0,0-2.42-.15c2.05,1.83,4.29,1.83,6.37,2.25,2.39.48,4.9.51,7.2,1.23a12.78,12.78,0,0,0,10-.9c.22-.15.45-.3.66-.47a1.23,1.23,0,0,0-.13-.23Zm116.21-6.8c-10.58.35-19.92,4.86-29.44,8.84a11.69,11.69,0,0,0,3.44,0c8.73-1.39,16.95-4.49,25.16-7.62.37-.14.53-.85.82-1.27l1.78.41.07-.4Zm-176-4.31h3.25V575l-3.28.25c-.24-.34-.42-.89-.72-1a62.08,62.08,0,0,0-23.15-1.6c-3.7.46-7.42.86-11.13,1.3-3.15.37-6.29.73-9.43,1.17-4.84.66-9.45,2.56-14.44,2.49a11.33,11.33,0,0,0-4.1,1.27c-5,2.1-10.05,4.26-15.16,6.44a15.08,15.08,0,0,0,2.26,9.12,6.94,6.94,0,0,0,7.44,3.31,24.78,24.78,0,0,0,3-.65c3.62-1,7.23-2,10.84-3,4.84-1.35,9.66-2.84,14.54-4,3.21-.78,6.52-1.12,9.78-1.67a152.49,152.49,0,0,1,24.5-2.35l9.72,0a3.34,3.34,0,0,0-2-.81c-.84-.19-1.65-.48-2.49-.7a66,66,0,0,0-20.58-1.69,15.59,15.59,0,0,0-2.15.18c-4.26.73-8.53,1.38-12.75,2.27-7.34,1.55-14.63,3.31-22,4.88-2.48.53-5,.78-7.73,1.19.25-.54.3-.88.48-1a15.7,15.7,0,0,1,2-.89q3.42-1.34,6.86-2.61a35,35,0,0,1,4.49-1.54c7-1.59,14.09-3.08,21.13-4.63a72.38,72.38,0,0,1,29.21-.06c8.5,1.61,16.94,3.48,25.41,5.22,3.24.66,6.49,1.27,9.74,1.9a6.22,6.22,0,0,0,.46.56s.2-.08.31-.12l-.87-.32a4.28,4.28,0,0,0-.95-.78,166.87,166.87,0,0,0-16.4-5.33c-8.47-2.53-17.23-3.26-25.94-4.12a123.3,123.3,0,0,0-16-.25A66.27,66.27,0,0,0,567,580c-3.72,1.13-7.44,2.21-11.18,3.27a15.38,15.38,0,0,1-4.19.95c-3.12,0-5.9,1.14-8.79,2-1.24.36-2.48.73-3.73,1-.26.06-.58-.12-1.51-.35,2.06-.83,3.48-1.47,4.94-2,2.31-.8,4.66-1.5,7-2.27,3.82-1.27,7.68-2.43,11.43-3.87A69,69,0,0,1,584.47,574c8.19-.15,16.39.4,24.59.67A4.07,4.07,0,0,1,610.24,575.2Zm-82.21,3a9.43,9.43,0,0,0,4.86-1.59A81,81,0,0,1,551,568.68c6.12-1.69,12.13-3.62,18.45-4.51a89.71,89.71,0,0,1,17.68-.91,140.92,140.92,0,0,1,27.29,4.4c11.59,3,23.13,6.18,35,7.62,7.58.92,15.2,1.48,22.82,2.12a7.26,7.26,0,0,0,3.36-.5,32.69,32.69,0,0,0,15-12.55,10,10,0,0,1,2-2.79c2-1.51,2.39-3.49,2.31-5.74-.09-2.45-.22-4.9-.29-7.35-.16-5.62-.28-11.24-.46-16.85,0-1.15-.34-2.28-.48-3.43a89.4,89.4,0,0,1-1.12-10.29c0-6.77-.33-13.54.18-20.33a98.22,98.22,0,0,0-.23-11.24c-.35-8.35-.76-16.7-1.17-25-.09-1.87-.15-3.74-.34-5.59-.94-9.19-.77-18.41-.75-27.62,0-9.66.31-19.33.35-29,0-2.88-.43-5.75-.65-8.63-.44-5.45-1.23-10.87-1.15-16.39a80.9,80.9,0,0,0-1.47-16.32c-1.71-9-3.63-18.1-3-27.41a2.61,2.61,0,0,0-1.66-2.75c-.52-.24-1.06-.45-1.59-.66a128.58,128.58,0,0,0-16.5-5c-5.17-1.25-10.4-2.16-15.67-2.92a41.94,41.94,0,0,0-9-.45c-2.29.17-4.58.31-6.86.57-4,.46-8,.83-12,1.57-4.66.87-9.3,1.9-13.86,3.2-6.08,1.74-12.41,2.63-18.19,5.4-2.21,1.06-4.49,2-6.72,3-7.77,3.53-16,5.77-24,8.5-3.41,1.16-6.91,2.06-10.36,3.09a21,21,0,0,1-13.95-.4c-2.68-1-5.48-1.7-8.24-2.5-.62-.18-1.34-.63-2,.23,1.44,3.23,2.92,6.49,4.34,9.77a43.56,43.56,0,0,1,2,5.23c2.13,7.75,2.07,15.73,1.52,23.61-.39,5.71-1.78,11.37-2.88,17-.75,3.82-1.77,7.58-2.65,11.37-.65,2.8-1.13,5.65-2,8.4a70,70,0,0,0-2.77,13.05c-.28,2.84-.36,5.76-1.81,8.4a5.91,5.91,0,0,0-.23,2.55c-.08,5.19-.06,10.38-.21,15.56a51.73,51.73,0,0,0,1.15,13.76,46.14,46.14,0,0,1,.64,5.15,33.35,33.35,0,0,0,.55,3.85c1.51,6.15,3,12.3,4.22,18.54,1.46,7.64,3.23,15.2,4.11,23a141.79,141.79,0,0,1,1.37,19c-.07,3.31-.42,6.62-.76,9.92-.77,7.31-1.64,14.61-2.39,21.92C527.78,573.47,527.15,575.76,528,578.19ZM855.79,326.42l-10,1.62c-1.28.2-2.56.46-3.85.56a86.55,86.55,0,0,1-18.55-.91,224.93,224.93,0,0,1-27.86-6c-7.37-2-14.83-3.65-22.13-5.86-8.29-2.51-16.71-4.41-25.18-6.14a76.93,76.93,0,0,0-10.31-1c-2.29-.16-4.61,0-6.9-.12a18.62,18.62,0,0,0-6.41.56,92,92,0,0,0-14.54,5.48,38.64,38.64,0,0,0-9.7,6.39c-3.36,3.07-6.72,6.19-10.89,8.21a37.47,37.47,0,0,0,.3,11.63c.53,3.12.9,6.27,1.4,9.4s1,6.55,1.7,9.79a36.89,36.89,0,0,1,.71,10.74,52.2,52.2,0,0,0,.15,11.65,103.52,103.52,0,0,1,1,12.92c.12,11.83,0,23.65,0,35.48,0,8.34-.61,16.71.89,25a31.06,31.06,0,0,1,.36,4.31q.48,11,.93,22c.2,4.89.52,9.78.58,14.68.08,7.49-.07,15,0,22.47a43.49,43.49,0,0,0,.72,8.15,57.42,57.42,0,0,1,1,9.42c.14,4.31.57,8.62.93,12.93.42,4.86.67,9.7-1.44,14.25a15.44,15.44,0,0,0,7.69,5.63,149.4,149.4,0,0,0,18.65,5.4,77.7,77.7,0,0,0,13.75,1.25c6.05.18,12.1.11,18.15-.05a44.91,44.91,0,0,0,7.27-1c5.23-1,10.45-2.12,15.66-3.23,5.78-1.23,11.68-1.82,17.47-2.9,5.53-1,11.15-1.08,16.64-2.26,2.81-.61,5.73-.15,8.61,0,7.49.44,14.94,1,22.14,3.39a23.63,23.63,0,0,1,9.08,4.81c.52.49,1.13.89,1.68,1.35s1.2,1.06,2.19,1.94c0-1.66,0-2.78,0-3.9.11-3.6.11-7.22.4-10.81q.71-8.82,1.73-17.62a147.75,147.75,0,0,0,.64-22.85c-.29-8.07-.18-16.15-.25-24.22a23.33,23.33,0,0,0-.09-3c-1-7.85-1.86-15.72-4-23.38-1.07-3.72-1.36-7.66-2.18-11.46a41.85,41.85,0,0,1-1-11.59c.36-5.46.66-10.92.52-16.41a52.2,52.2,0,0,1,.78-9.9,58.94,58.94,0,0,0,.73-13.33,30.47,30.47,0,0,1,.33-7.33,69.77,69.77,0,0,0,.67-11.63c.07-3.89.25-7.78.24-11.67,0-3-.23-6-.42-9.06-.08-1.29-.46-2.56-.51-3.85A44.09,44.09,0,0,0,853.19,355a20.18,20.18,0,0,1-.72-9.81c.58-3.11,1.42-6.17,2.11-9.27.53-2.38,1.06-4.77,1.48-7.17A9,9,0,0,0,855.79,326.42Zm-5.57,263.93c-2-1-3.29-2-4.75-2.37a46.7,46.7,0,0,0-7.26-1.05c-8.24-.71-16.39.72-24.58,1.22-3.45.21-6.89.56-10.34.68-6,.21-12,.3-18,.42a50.48,50.48,0,0,1-8.61-.06,8.26,8.26,0,0,0-4.14.15,73.34,73.34,0,0,1-16.48,3.31,184,184,0,0,1-27.18.5c-4.3-.19-8.56-1.18-12.84-1.78a19.16,19.16,0,0,0-2.31,0,6.7,6.7,0,0,0,3.7,3.19,41.63,41.63,0,0,0,15.79,4.06c4,.21,8.06.25,12.09.44a62.21,62.21,0,0,0,15.87-1.32c4.93-1,9.89-2,14.84-2.91,3.39-.66,6.8-1.23,10.18-2a136.94,136.94,0,0,1,25.15-3.49c7.07-.17,14.14-.16,21.14,1.13,4.38.8,8.78,1.54,13.18,2.3a47.53,47.53,0,0,1,5.1.82A38.3,38.3,0,0,0,864.93,595c4.28-.38,4.47.06,5.86-4.8a28.13,28.13,0,0,0,.88-6.41,37.39,37.39,0,0,0-.3-6.43,213,213,0,0,1-1.42-25c-.08-7.64.27-15.28.14-22.91s.26-15.26.87-22.86c.38-4.73,1.11-9.43,1.41-14.16.57-9.06,1.26-18.1.93-27.2a185.57,185.57,0,0,0-2.65-27.95,85.41,85.41,0,0,1-1-11.62c-.16-3.16-.5-6.32-.86-9.47-.43-3.71-1.1-7.4-1.41-11.12-.5-5.89-.83-11.79-1.13-17.69-.31-6.32-.57-12.65-.72-19,0-2.44.34-4.88.44-7.33.17-3.88.5-7.77.33-11.65a58.42,58.42,0,0,0-1.45-8.94,5.61,5.61,0,0,0-4.11-4.66A21.49,21.49,0,0,0,859,350.52c.83,3.66,1.41,7.34,1.89,11.05.37,2.86.8,5.71,1.18,8.56a14,14,0,0,1,.2,2.58c-.18,4.86-.54,9.71-.48,14.61s-.74,10-1.06,15.07a48.23,48.23,0,0,0-.08,7.31,26.82,26.82,0,0,1-.12,6c-.47,3.43-1,6.87-1.15,10.32-.37,6.44-.58,12.9-.78,19.36a52.51,52.51,0,0,0,.23,6c.14,1.72.44,3.43.74,5.13,1,5.37,1.21,10.88,3.39,16a6.48,6.48,0,0,1,.41,1.67c.51,3.85.89,7.71,1.49,11.55,1.11,7.15.6,14.37,1.07,21.55.25,3.86.08,7.75.31,11.62a163.32,163.32,0,0,1-1,29.33c-.94,7.84-2.16,15.66-3,23.51a46.18,46.18,0,0,0,.44,14.22,7.34,7.34,0,0,1,0,1.55c-1.48.66-2.38-.07-3.23-.89a33.91,33.91,0,0,0-8.94-6c-11.22-5.58-23.22-7.5-35.62-7.4a11.08,11.08,0,0,0-5.38,1.44c6.17.34,11.6.72,17,.89a36,36,0,0,1,10.2,1.68,60.2,60.2,0,0,1,8.15,3.9c.31.16.43.69.66,1.07-2.31.32-2.29.27-4.08-.49a30.6,30.6,0,0,0-10.87-2.62c-5.31-.16-10.65-.39-15.94.72-2.67.56-5.4.82-8.1,1.25Q800.78,582,795,583a10.71,10.71,0,0,0-4.74,1.87c.44.21.68.43.91.42,5-.17,10.08-.34,15.12-.57,8.35-.39,16.69-1,25-1.16a109.09,109.09,0,0,1,12.49.8,7.6,7.6,0,0,1,6.53,4.33C850.58,589,850.31,589.63,850.22,590.35ZM696.73,578.21c1.36.62,2.16.92,2.89,1.33,2.5,1.41,5,2.87,7.46,4.28.69.39,1.46.91,2.3-.19a9.36,9.36,0,0,0-2.37-1.75c-4.59-1.48-8.38-4.34-12.38-6.86a4.49,4.49,0,0,0-1.12-.38c-1.85.77-2.41,2.45-3.27,3.93s-1.9,2.87-2.9,4.28-2,2.66-3,4a6.9,6.9,0,0,0,4.95,1.91c5.08.19,10.08-.15,15-2.65C701.82,583.55,697.34,583.23,696.73,578.21Zm-174-190.48h.46c.15-1.14.23-2.28.45-3.4a83.94,83.94,0,0,0,1.24-21,33.85,33.85,0,0,0-1.89-9.71c-.26-.74-.61-1.7-1.89-1.33a19.57,19.57,0,0,1-.86,2.8c-1.73,3.73-1.61,7.51-.57,11.37a40.38,40.38,0,0,1,.91,4.66C521.31,376.63,522,382.18,522.71,387.73Zm192.5,199c.75.87.9,1.23,1.11,1.27a68.84,68.84,0,0,0,8.49,1.47c4.73.27,9.47.46,14.22.52,4.06.06,7-1.76,11.11-3.92-1.55.24-2.11.32-2.66.42-8.22,1.58-16.45,3-24.85,1.21-1.4-.3-2.82-.52-4.24-.73C717.57,586.88,716.74,586.86,715.21,586.75Zm-41.72,5.37c-2.9.68-5.81,1.34-8.71,2-.66.16-1.28.46-2.88,1.05C666.84,595.7,670.5,595.3,673.49,592.12ZM553.64,575.21l-1.91-.37v.61Zm-11.07,3.6c0-.08,0-.21-.08-.24a1,1,0,0,0-.35-.07l.1.45Z"/><path d="M210.28,207.12c3.22.18,6.7-1.5,9.41,1.53,1,2.49.16,5-.57,7.47s-3,3.44-5.15,4.22c-1.61.58-3.33.85-5,1.35-3.37,1-5.91-.74-8.3-2.61-2-1.57-2.62-3.79-2.76-6.44-.32-6,1.52-11.36,3.72-16.68a95.33,95.33,0,0,0,3.72-12.35,12.27,12.27,0,0,0,.11-4.28c-.4-4-1.11-4.68-5.57-5.87-1.07,1.08-.74,2.38-.47,3.62a11.92,11.92,0,0,0,.91,2.41c.54,1.17,1.41,2.41.37,3.6s-2.49,2.59-4.35,2.52c-5.79-.25-10.82-3.2-12.33-9-1-3.79-1.47-7.59.33-11.4a15.14,15.14,0,0,1,2-3.23,22,22,0,0,1,13-7.87,7.14,7.14,0,0,1,2.54-.25c8.28,1.38,14.83,6.58,16.88,15.15a46,46,0,0,1,1.27,16.69A24,24,0,0,1,215.32,198a34,34,0,0,0-4.79,7.61A6.87,6.87,0,0,0,210.28,207.12Zm-14.15-26.38c-.45-1.15-1-2.31-1.37-3.53a5.42,5.42,0,0,1,4-7,37.08,37.08,0,0,1,3.8-.78,5.11,5.11,0,0,1,4.09.93c.8.6,1.78,1,2.59,1.54a3.7,3.7,0,0,1,1.44,1.53c.62,1.9,1.48,3.88,1.46,5.81a37.24,37.24,0,0,1-1.26,8.5,43,43,0,0,1-4.17,9.93,51.69,51.69,0,0,0-4.14,10.88c-.91,3.18.08,5.85,1.89,8.31,2.19-.52,4.17-.87,6.07-1.47a4.15,4.15,0,0,0,3.19-3.2,5.51,5.51,0,0,0-.34-1.83l-6.46,1.11a5.36,5.36,0,0,1-1.86-6,36,36,0,0,1,4.15-9.47,44.62,44.62,0,0,0,4.25-10.35A29.38,29.38,0,0,0,213.7,172a19.69,19.69,0,0,0-7-11.57c-2.7-2.29-5.62-2.91-8.78-1.2-4.59,2.51-8,5.92-9.13,11.37-.82,4,.41,7.36,2.7,10.45C192.43,182.28,193.93,182.14,196.13,180.74Z"/><path d="M168.28,237.51c1.86-.39,3.25-.69,4.65-1,5-.94,7.39.55,8.89,5.63a3.13,3.13,0,0,1,0,.43c-.76,3.45-3.49,5.48-5.91,8,.34.63.67,1.21,1,1.81,2,4.18-.52,10.26-4.84,11.81a4.07,4.07,0,0,1-.83.22c-2.3.23-6.43-3.1-6.41-5.43a51.09,51.09,0,0,1,.83-6.31,15.92,15.92,0,0,0-1.76-.9,9.62,9.62,0,0,1-6.15-10.31c.12-1.28.09-2.57.11-3.85,0-.11-.13-.23-.28-.48-1.72-.17-2.55,1.63-4.38,2.12-4.82-.42-7.69-3.73-9.06-8.2-2.13-7-1.24-13.8,3.16-19.72,3.77-5.06,8.7-8.39,15.48-7.5a9.3,9.3,0,0,1,7.15,4.27c.53.85,1.22,1.6,1.77,2.44a6.37,6.37,0,0,1,1.11,4.5c-.63,4.56-1.27,9.09-3.29,13.32A13.6,13.6,0,0,0,168.28,237.51ZM164,219.86c1.85-4.23.7-7.42-1.61-10.46-1.54-2-2.53-2.26-4.74-1-5.68,3.17-8.69,8.31-10,14.38-.82,3.64-.86,7.45,1.36,10.85.3.46.54,1,1.43.52-.07-.48-.19-1-.23-1.57-.21-3.15-.5-6.28.61-9.38a6.09,6.09,0,0,1,5.35-4.36,24.54,24.54,0,0,1,5.13.2A15.42,15.42,0,0,1,164,219.86Zm-.65,20.42c-2.08,3.35-.59,5.73,1.13,7.87,1.1,1.37,2.75,2.21,4.59,1.14a12.18,12.18,0,0,0,5.74-6.12c.66-1.71-.29-3-2-2.69C169.69,241.11,166.62,241.44,163.38,240.28Zm-5-7.47c.48-2.72.93-4.92,1.24-7.13a4.14,4.14,0,0,0-.27-2.09,1.8,1.8,0,0,0-2-1.31c-.62.13-1.51.62-1.65,1.13-.58,2-1.31,4.12.07,6.12C156.46,230.54,157.29,231.48,158.34,232.81Zm11.88,25.89a3.75,3.75,0,0,0,3-3c.22-.9-.23-2-1-2a2.45,2.45,0,0,0-1.85.64,6.18,6.18,0,0,0-1.08,2.73C169.26,257.57,169.91,258.18,170.22,258.7Zm-17.56-25-.37-.71c-.14.21-.39.42-.39.63s.22.46.34.69Zm18.65,25.89-.57.35c.08.09.19.27.24.26a4.1,4.1,0,0,0,.54-.3Z"/><path d="M270,225.61a32.74,32.74,0,0,1,3.72.32,4.66,4.66,0,0,1,4,4.85c0,3-.8,5.65-3.91,7.08a29.9,29.9,0,0,0-3.8,2.49c2,3.06,2.29,4.35,1.29,6.71a7.82,7.82,0,0,1-1.39,2.16c-1.55,1.72-2.93,1.93-5,.94a10.56,10.56,0,0,1-1.15-.61c-3.65-2.22-4.17-5.72-1.33-9,.27-.32.55-.63,1-1.13a13.93,13.93,0,0,0-2.77-2.56,6.4,6.4,0,0,1-2.39-4.89,17.93,17.93,0,0,1,4.53-13.55c2-2.29,3.95-4.59,6.06-6.75,1.79-1.84,1.5-4.3,2.21-6.45a3.62,3.62,0,0,0-.89-3.8,14.83,14.83,0,0,1-1.69,1.59,6.43,6.43,0,0,1-9.08-1.67c-2.35-3.11-2.36-6.26-.87-9.72a12.62,12.62,0,0,1,9.45-8,8.93,8.93,0,0,1,4.68.37c1.64.53,3.24,1.18,4.82,1.87a7.47,7.47,0,0,1,4,3.8c.6,1.3,1.43,2.51,1.95,3.84a18.29,18.29,0,0,1-.88,16.15A29.75,29.75,0,0,1,275,218.4a44.81,44.81,0,0,0-4,3.91,4.24,4.24,0,0,0-.79,1.52A9.7,9.7,0,0,0,270,225.61Zm-4.68-2.45a9.58,9.58,0,0,0-2.37,6.41c0,1.59-.61,3.22.7,4.77.93,1.11,1.79,2,3.06,1.46a22.84,22.84,0,0,0,4.54-2.38,3.85,3.85,0,0,0,1.58-4.24c-1.1-.11-2.09-.16-3.06-.32-2.14-.34-3.81-1.24-4.1-3.69a19.49,19.49,0,0,0-.45-2.09,7.65,7.65,0,0,0,.92-1.22,2.21,2.21,0,0,0,0-.93l-.56-.07Zm-1.6-22.5c1-.72,1.94-1.51,3-2.19a17.27,17.27,0,0,1,3-1.65,3.93,3.93,0,0,1,4.71,1.1c1.81,2.27,3.18,4.79,1.94,7.91A15.82,15.82,0,0,0,275,212.2c1.33-1.89,2.32-3.11,3.09-4.46a7,7,0,0,0,1.1-4.54c-.34-2.42-.52-4.88-1.08-7.25a12.44,12.44,0,0,0-4.83-7,4.81,4.81,0,0,0-6.35,0,15.32,15.32,0,0,0-4.24,5.38C261.46,196.58,261.52,198.69,263.75,200.66Zm2.52,46.75c.45-.2,1-.28,1.13-.55a5.45,5.45,0,0,0,.49-2,1.15,1.15,0,0,0-.7-.86,1.17,1.17,0,0,0-1,.46,5.45,5.45,0,0,0-.63,2C265.49,246.7,266,247,266.27,247.41Z"/><path d="M205.48,232.29c0-3.47,3.33-7.49,6.62-8a2.66,2.66,0,0,1,2.81,1.46c.62,1.1,1.25,2.2,1.93,3.27a4.1,4.1,0,0,1,.51,4.08,29.34,29.34,0,0,1-2.3,4.09,3.57,3.57,0,0,1-4.16,1.42A6.67,6.67,0,0,1,205.48,232.29Zm6.27,1.73a25.52,25.52,0,0,0,1.29-2.74c.08-.25-.29-.81-.6-1a1.2,1.2,0,0,0-1.12,0,4.78,4.78,0,0,0-1.24,1.63C209.6,233.06,210.16,233.73,211.75,234Z"/><path d="M227.25,849.05a51.2,51.2,0,0,1-10.12,1.26c-4.75-.07-9.51.07-14.24-.21a50.59,50.59,0,0,1-8-1.48,4.67,4.67,0,0,1-1.77-1.14,1.39,1.39,0,0,1,.57-2.13,13.12,13.12,0,0,1,3-.13c6.3.52,12.62,1,18.91,1.66A71.35,71.35,0,0,1,227.25,849.05Z"/><path d="M240.89,326.09A21.92,21.92,0,0,1,238.27,338c-1.06,1.84-1.6,3.91-3,5.62A11.09,11.09,0,0,1,225.9,348,21,21,0,0,1,210.65,341c-4.5-4.9-8-10.61-9-17.36a41.07,41.07,0,0,1-.28-8.15,31,31,0,0,1,6.21-18,9.29,9.29,0,0,1,3.2-2.82c5.61-2.72,11.32-3.24,16.9.07a19.22,19.22,0,0,1,5.68,5.75,39.82,39.82,0,0,1,6,13.24A54,54,0,0,1,240.89,326.09Zm-6.12-2.73c-1,.18-1.57.25-2.12.39-4,1.05-7.31-.78-10.55-2.7a5.24,5.24,0,0,1-2.28-3.54,9.32,9.32,0,0,1,4.61-10.65c.62-.36,1.28-.64,1.93-1l2.17-1.11a22.38,22.38,0,0,0-6.16-6.35,4.58,4.58,0,0,0-3.61-.87c-1.17.21-2.46-.26-3.77-.44a13.78,13.78,0,0,1-2,1.9c-3.28,2.09-4.54,5.56-5.76,8.87a34.08,34.08,0,0,0-1.54,8.45c-.43,4.31-.56,8.73,1.62,12.66a57.58,57.58,0,0,0,6.41,9.68c3.25,3.8,7.41,5.25,12.14,5.72a3.73,3.73,0,0,0,3.15-1.09,13.73,13.73,0,0,0,2.18-2.64A27.58,27.58,0,0,0,234.77,323.36Z"/><path d="M279.42,317.13a7.38,7.38,0,0,1-2.68,6.51c-1.49,1.3-2.56,3.06-4.39,4.05a7.71,7.71,0,0,1-7.8.3,26.44,26.44,0,0,1-3.88-2.67c-1.11-.9-2-2.09-3.14-2.94a11.58,11.58,0,0,1-4.09-6.43,31,31,0,0,1-1.25-11.49,10,10,0,0,1,7.37-9.08,4.44,4.44,0,0,1,4.13.39,5.34,5.34,0,0,0,3.67.87,6.56,6.56,0,0,1,4.65,1.9c3.18,2.7,5.46,5.83,5.93,10.14C278.25,311.52,278.91,314.32,279.42,317.13ZM260,300.1c-3.49,3.38-3.36,7.8-2.32,12.88,1.23,6,4.95,9.87,10.43,12.27a5,5,0,0,0,3.8-3.2,1.88,1.88,0,0,0-1.53-2.86c-.71-.09-1.44.05-2.15,0-3-.38-4.77-2.25-4.42-5.27s.92-6.3,3.48-8.61c.41-.37.75-.82,1.16-1.27C266.79,299.94,263.42,300.08,260,300.1Z"/><path d="M260.67,344.66c3.57-.16,7.14-.34,10.71-.45a1.28,1.28,0,0,1,.95.67,1.87,1.87,0,0,1-.07,1.18,1.49,1.49,0,0,1-.57.63,13.08,13.08,0,0,1-7.44,2.95c-2.29.11-4.57.24-6.85.47a15.19,15.19,0,0,0-10.47,5.23,9,9,0,0,1-1.86,1.78,1.84,1.84,0,0,1-1.57.1,1.72,1.72,0,0,1-.77-1.36,9,9,0,0,1,.79-3.26c2.71-5.14,7.15-7.66,12.85-8.1,1.42-.1,2.86,0,4.29,0Z"/><path d="M567.41,441.56c-1.19,3.88-2.1,7.5-3.4,11-2.34,6.24-6.68,10.24-13.5,11.25a12,12,0,0,1-5.89-.93,33.86,33.86,0,0,1-10.31-6.14c-.25-.2-.2-.77-.29-1.17,1.34-.92,2.52-.2,3.73.1,3.5.84,7,1.59,10.63.67a9.47,9.47,0,0,0,6.75-5.51c-2.38.54-4.19.83-5.92,1.38-3.49,1.1-6.49.56-9-2.22-.86-.95-1.94-1.71-2.78-2.67a1.55,1.55,0,0,1,1.05-2.58,9.61,9.61,0,0,1,2.14.07,16.5,16.5,0,0,0,9.56-2c3.19-1.62,6.38-3.27,9.57-4.91,1.92-1,3.62-.43,5.11.87A33.15,33.15,0,0,1,567.41,441.56Z"/><path d="M621.43,423.5l4.17-1.14c-.33-1.61-.6-3-.9-4.38-.75-3.43.17-6.54,1.81-9.51a2.07,2.07,0,0,1,2.56-1,8.24,8.24,0,0,1,5.11,4.43c-.52,1.31-1,2.64-1.57,3.95s-1.35,2.58-.4,4.37a12.49,12.49,0,0,0,1.79.4,4.85,4.85,0,0,1,3.42,2.38,2.73,2.73,0,0,1,.37,2.82c-.5,1.18-1.19,1.95-2.58,1.82a2.39,2.39,0,0,0-.81.27c-.39,1.76.58,3.72-.66,5.55-3.32.89-3.49-2.7-5.49-4-3.58.92-7.25,2.82-10.93.62a34.52,34.52,0,0,1-3.94,2.12,2.18,2.18,0,0,1-3-2.44,79.8,79.8,0,0,1,2-7.91c.36-1.24,1.09-2.37,1.45-3.6.72-2.53,1.09-5.05-1-7.26a11.64,11.64,0,0,1-1.41-2.16,2,2,0,0,1,.29-2.4,1.68,1.68,0,0,1,2.33-.37c2.83,1.94,6,3.66,6.36,7.65a3.1,3.1,0,0,0,.41,1.22,6.86,6.86,0,0,1,.59,6.21A10.11,10.11,0,0,0,621.43,423.5Z"/><path d="M649.65,523.4l3.77,2c-.38.62-.59,1.43-1.06,1.65-1.4.64-2.9,1-4.92,1.74a49.54,49.54,0,0,0-1.77,4.67,5,5,0,0,1-4.27,3.74,14.78,14.78,0,0,1-2.57.3c-4.18,0-8.35,0-12.53,0a4.37,4.37,0,0,1-4.26-2.36c-.76-1.39-1.64-2.72-2.32-4.14a1.55,1.55,0,0,1,1.39-2.17,19,19,0,0,1,2.12.19c3.16.25,6.31.54,9.47.72a12.46,12.46,0,0,0,6.14-1.12c1.63-3.17,3.41-6.46,5-9.82A39.24,39.24,0,0,1,652,507.63a18,18,0,0,1,4.22-2.93,6.78,6.78,0,0,1,5.84-.4c1.46.59,3,.94,4.56,1.4a1,1,0,0,1-1.32,1.15c-4.22-.84-6.85,1.88-9.29,4.43A22.93,22.93,0,0,0,649.65,523.4Zm9-17.51c-.23-.1-.46-.29-.69-.29a2.2,2.2,0,0,0-.73.28c.23.1.45.29.67.28A2.27,2.27,0,0,0,658.65,505.89Z"/><path d="M580.61,515c-.88,6.23-1.59,7.19-7.51,10.55,1.4,3.11,4.35,4.26,7.23,5.5-.2.59-.22,1.11-.49,1.35a5.42,5.42,0,0,1-6.67.51,27,27,0,0,1-4-3.26c-2.77-3.06-6.25-4.91-10-6.49a34,34,0,0,1-4.48-2.91c-1.05-.22-2.55.9-4.2,1.29a4.69,4.69,0,0,1-3.72-.37c-1.11-.66-2.31-1.15-3.42-1.8-1.76-1-1.81-3.38,0-4.12,4.1-1.65,8.18-3.81,12.85-2.13a.94.94,0,0,0,.4,0c2.06-2.14,2.18-2.21,4.23-.91,1.32.84,2.76,1.51,3.68,2.93,1.53,2.37,3.9,2.79,6.46,2.25,2.25-.47,4.47-1.11,6.7-1.67C578.53,515.51,579.34,515.33,580.61,515Z"/><path d="M638.12,514.28c-4,2.39-7.06,4.58-10.42,6.1-2.56,1.15-5.51,1.45-8.85,2.26-.78.72-2,1.89-3.3,3-3,2.63-6.44,2.89-10.09,1.71a7.27,7.27,0,0,1-2.4-1c-2.43-2-5.33-1.88-8.17-2.13a18.51,18.51,0,0,1-3.81-.53c-2.3-.7-4-2-4.5-4.66-.23-1.25-.93-2.4-1.28-3.64-.3-1.07,1-2.41,2.09-2a7.46,7.46,0,0,1,2.93,1.63,5,5,0,0,0,4.7,1.54,12.71,12.71,0,0,1,9.69,2.6c2,1.45,4.49,1.77,7.18,1.82-.22-2.25-3.4-3.23-2-6,2.86.06,5.84.24,8.82.15,3.16-.1,6.3-.53,9.46-.7C631.14,514.31,634.09,513.5,638.12,514.28Z"/><path d="M612,449c-.08-2.7-.82-5.43.26-8a3.43,3.43,0,0,1,3.77.34,6.76,6.76,0,0,1,3.1,4,10.18,10.18,0,0,1,.33,3.41c-.21,1.53.81,2.37,1.53,3.58-2.14,3.44-1.77,7.05-.21,10.64,1.19,2.75,2.45,5.47,3.81,8.49-.52,0-1.14.19-1.48,0a20,20,0,0,1-7-8c-.44-.87-.93-1.72-1.38-2.54-2.61.89-2.6.81-5.55.53a14.93,14.93,0,0,0-3.82.33c-3.26.6-5.28-1.55-4.32-4.76.65-2.21,1.47-4.37,2.19-6.56a13.45,13.45,0,0,0,.66-2.47,2.87,2.87,0,0,0-1.62-3.22c-.77-.39-1.55-.77-2.28-1.22a2.55,2.55,0,0,1-1.27-2.54,2.44,2.44,0,0,1,2.93-1.22,7.57,7.57,0,0,1,2.79,1.09c2.62,2,5.23,4.09,6.4,7.38.22.65.59.92,1.26.72-.63,1.35-1.73,2.53-1.59,4.37C612.14,452.23,612.14,452.23,612,449Z"/><path d="M637.64,382.47c-1.1.24-2.45.11-3,1.31-1.57,3.16-5,4.12-7.42,6.22-2,1.76-5,.8-7.54.84-1.73,0-2.82-1.28-4-2.27a24.1,24.1,0,0,1-5.45-7.18,4.1,4.1,0,0,1-.28-3.71c.55-1.43,1.6-1.9,3.08-2.13a55.57,55.57,0,0,1,3.72,5.69c1.46,2.91,3.92,3.59,6.79,3.61a17.45,17.45,0,0,0,2.82-.48l-1.48-3.68a5.43,5.43,0,0,1,2.91-4c2.61-1.62,5.29-2.93,8.44-2.9a12,12,0,0,1,3,.3c2.07.56,4.12,1.24,6.15,1.95a36.52,36.52,0,0,0,8.81,1.93,3.2,3.2,0,0,1,3,1.77c-1.4,1.27-2.8,2.57-4.95,2.7a15.09,15.09,0,0,1-6-.47,24.08,24.08,0,0,0-4.6-1.1c-1.61-.21-3.19,0-4.09,1.69Z"/><path d="M584.67,379.81a30,30,0,0,1,.44,3c.14,2.58.35,5.19-1.16,7.54a3.17,3.17,0,0,0-.61,1.59c.06,2.61-1.79,4-3.63,5a48.41,48.41,0,0,1-7.18,2.92c-.45.16-1.09-.21-1.9-.39.93-2.87,2.77-5.11,3.85-7.72s2.35-5.21,2.55-8.14c-1.6-1.72-5.34-1.11-4.84-4.74l2.36-2c-.82-1.38-1.78-2.66-1.35-4.38.38-1.55,1.3-2.36,2.8-1.92,2,.6,4,1.46,6.31,2.31,3.45-1.53,6.76-3.83,10.2-5.91a6.45,6.45,0,0,1,1.48-.84c.28-.07.68.34,1,.53-.53,3-2.88,4.68-4.46,6.83A72.15,72.15,0,0,1,584.67,379.81Z"/><path d="M603.89,421.74a21.13,21.13,0,0,1,3.51-.63c.51,0,1,.68,1.78,1.25-1.06,1-1.88,1.79-2.68,2.59-1,1-1.82,2.29-3,3-1.48.87-2.4-1.23-3.84-1.25-.42,0-.84-.05-1.22-.07a9,9,0,0,1-1.76-7.95c-.83-.93-1.49-.55-2.17-.34-1,.3-1.93.61-2.91.85a10.47,10.47,0,0,1-8.67-1.46c-1.34-.93-2.64-1.74-4.33-1.45l-1.41-3.61c1.41-2.38,2-2.9,3.5-2.09,5.16,2.68,9.49.59,13.77-2.08.86-.53,1.61-1.21,2.43-1.79,2.08-1.48,3.92-1.32,5.6.7a5,5,0,0,0,1.59,1.23c1.49.82,1.81,1.77,1.31,3.16a13.7,13.7,0,0,0-1.06,2.8C604.07,416.85,604,419.15,603.89,421.74Z"/><path d="M661.12,354.44c5.3,1.9,10.12-.53,15.17-.79a2.74,2.74,0,0,1-1.83,2.64,31.68,31.68,0,0,0-7.73,4.67,4.25,4.25,0,0,1-3.2.91,18,18,0,0,0-3-.18c-2.17.11-3.47-1.08-4.46-2.8-.72-1.25-1.42-2.5-2.13-3.74a7.06,7.06,0,0,1-.54-5.45c.53-2.08,1.24-4.11,1.93-6.32-1.79-1.79-3.64-3.56-5.38-5.43-.43-.46-.88-1.5-.66-1.83a2.94,2.94,0,0,1,2-1.32,8,8,0,0,1,3.69,1,63.25,63.25,0,0,1,6,4.18c3,2.21,4.46,7.12,1.94,10.36C662.09,351.39,661.78,352.88,661.12,354.44Z"/><path d="M656.67,407.52a23.6,23.6,0,0,0,2.43.77c2.53.5,5.13.75,7.61,1.45a75.52,75.52,0,0,0,10.52,2.17c.43.06.95,0,1.26.23a3.73,3.73,0,0,1,1.33,1.5,1.7,1.7,0,0,1-.68,1.42,7.61,7.61,0,0,1-6.32,1.63,106.78,106.78,0,0,0-13.28-1.26,13.1,13.1,0,0,0-8.58,2.29,11.67,11.67,0,0,1-2.27,1.25c-2.4,1-4.7,1.2-6.74-.93-1-1-2.47-1.55-2.73-3.2a3.93,3.93,0,0,1,2.41-2.8,29.19,29.19,0,0,1,10.09-3.57c1.71-.22,3.41-.55,5.11-.83Z"/><path d="M608.43,476.32c-.5,2.82-.84,5.07-1.3,7.3-.3,1.48-1.65,2-2.83,2.42a17.63,17.63,0,0,1-9.78,1c-4.35-.91-8.65-2.12-12.92-3.34-2.58-.73-3.34-2.15-3-5.24a2.08,2.08,0,0,0-.66-1.9c-.41-.39-1-.79-1.1-1.27a2.82,2.82,0,0,1,.34-2,2.08,2.08,0,0,1,1.8-.71,30,30,0,0,1,6.2,2.9c6.74,4.69,13.74,4.26,21,1.57C606.68,476.83,607.24,476.68,608.43,476.32Z"/><path d="M537.69,430.38c-.36-2.92,1.68-4.66,3.29-6.34,2.94-3.08,6.54-4.52,10.89-2.85a9.83,9.83,0,0,0,6.36-.05c1.65-.49,3.24-1.17,4.89-1.68s3.3-1,5-1.34a1.16,1.16,0,0,1,1.18,1.71c-.26.5-.69.93-.92,1.44-2.51,5.7-7.19,7.45-13,7.18-1-.05-2-.29-3-.37-1.84-.14-3.56.29-4.4,2.06-1.16,2.43-2.9,2.88-5.31,2.2C541,431.88,539.17,432.16,537.69,430.38Z"/><path d="M659.72,390.1a10.46,10.46,0,0,0,2.22.4c2-.1,2.81-1,2.7-3-.19-3.23-1.57-6.09-2.86-9-.75-1.67-1.68-3.26-2.46-4.75a1.62,1.62,0,0,1,2.36-.81c2.28,1.08,4.58,2,5.94,4.54,2.27,4.14,5,8,6.22,13-.82,1.28-1.63,2.81-2.68,4.15a7.69,7.69,0,0,1-11.06,1c-.22-.18-.42-.4-.63-.58-3.17-2.72-3.18-2.72-4.58-7.38,1-1.55,2.73-1.26,4.1-1.74C661.31,387,660,388.6,659.72,390.1Z"/><path d="M548.08,383.3a12.12,12.12,0,0,1,5.71,1.72,6.85,6.85,0,0,1,1.86,1.09c2.59,2.71,5.59,2.3,8.71,1.3a30.31,30.31,0,0,1,3.32-.92,1.3,1.3,0,0,1,1.05.52,1.4,1.4,0,0,1,.21,1.2,39.72,39.72,0,0,1-2.73,4.35c-1.85,2.46-5,3.08-8.13,1.56a20.79,20.79,0,0,1-4-2.58,4.35,4.35,0,0,0-5.19-.64c-1,.53-2,1-3,1.5-.63.34-1.17.86-1.82,1.14-2.92,1.28-5,1.12-7.38-2.26a2.23,2.23,0,0,1,.23-3.13A15.38,15.38,0,0,1,548.08,383.3Z"/><path d="M598.55,360.39a9.27,9.27,0,0,1-6.53-4.26c-1.65-.07-2.25,1.29-3.16,2.12a3,3,0,0,1-2.78.77,16.7,16.7,0,0,1-2.05-.63c-4.54-1.62-4.28-4.5-1.71-7.63a11.12,11.12,0,0,1,5.38-3.49q5.76-1.75,11.62-3.25c2-.51,2.86.32,3,2.49.2,3.77-.65,5-4.37,6.32a9.28,9.28,0,0,0-1.49.79c-.1.06-.13.25-.19.38,1.08,1.9,1.08,1.9,4,1.86-.3.84-.57,1.6-.86,2.35S598.91,359.52,598.55,360.39Z"/><path d="M575.9,455.27c-3.38-1.89-5.44-4.26-6.3-8,3.86-.76,7.08-3.07,11-1.89.55.16,1.3.11,1.65.46,2.72,2.72,6.82,3,9.86,5.61-.47,1.07-1,2.21-1.55,3.58-.06-.1,0,.17.16.31,2.27,1.87,2.51,2.54.95,4.5a16,16,0,0,1-3.26,2.74,2.23,2.23,0,0,1-1.64.34,45.55,45.55,0,0,1-5.24-1.79,1.77,1.77,0,0,1-.29-2.92,9.3,9.3,0,0,1,1.83-1.13c1.42-.7,2.86-1.33,4.36-2-4.34-2.05-4.37-2.16-5.75-1.76C579.76,453.83,577.89,454.58,575.9,455.27Z"/><path d="M662.72,440.63c0,.83.17,1.39,0,1.6-1.87,2-3.88,3.79-5.72,5.79a5.83,5.83,0,0,1-5.92,1.72,14.91,14.91,0,0,1-4.07-1.42,6.9,6.9,0,0,0-6.64-.05,32,32,0,0,0-5.68,3.08,7.45,7.45,0,0,1-5.74,1.21,2.38,2.38,0,0,1-1.42-4,29.78,29.78,0,0,1,9.84-6.92,9.89,9.89,0,0,1,6-.08,23.51,23.51,0,0,1,4.93,1.61,7.71,7.71,0,0,0,5.88.3C656.86,442.65,659.56,441.69,662.72,440.63Z"/><path d="M621.45,481.8c-.65-.94-1.16-1.59-1.57-2.3a11.13,11.13,0,0,1-1.06-2.3,1.66,1.66,0,0,1,2-2.07c2.67.44,5.33.94,8.08,1.43.9.82.52,1.86,0,2.66-1.05,1.52-2.3,2.9-3.56,4.46,3.12,2.2,3.4,6,4.55,9.29.12.36-.32,1.13-.71,1.37a1.81,1.81,0,0,1-1.54,0,4.42,4.42,0,0,1-2.1-2.62c-.54-1.88-2-2.24-3.72-2.11a8.12,8.12,0,0,0-4.66,2c-.75.62-1.54,1.21-2.19,1.71a5.2,5.2,0,0,1-3.25-2.37c-1.42-1.89-1.12-3.53.59-5.33a11.49,11.49,0,0,1,6.33-3.43C619.41,482,620.24,482,621.45,481.8Z"/><path d="M640,474.29c2,.11,3.08,1.33,4,2.93a5.22,5.22,0,0,1,.13,4.56c-.28.78-.64,1.54-1,2.35C645.93,486,649,486,652,486.35c1.13.15,2.3.07,3.44.19s1.82,1.42,1.23,2.22c-1.81,2.45-3.72,4.59-7.27,4.56a19.16,19.16,0,0,1-8.67-2.17,6.9,6.9,0,0,1-2.92-3,15.09,15.09,0,0,1-1.39-8.36A6.72,6.72,0,0,1,640,474.29Z"/><path d="M603.62,377.48c.76.33,1.56.64,2.32,1a5.85,5.85,0,0,1,3.52,5.49,9.41,9.41,0,0,0,2.13,6.36,11.47,11.47,0,0,0,9.49,4.21c.71,0,1.41-.3,2.12-.31a2.07,2.07,0,0,1,1.5.42,2.14,2.14,0,0,1,0,1.55c-.09.39-.51.69-.71,1.06-1.47,2.63-2.3,3.1-5.1,2.76a19.82,19.82,0,0,1-10.06-4.62c-.79-.63-1.52-1.33-2.31-2a10.92,10.92,0,0,1-3.76-5.66c-.48-1.66-1-3.3-1.37-5A4.75,4.75,0,0,1,603.62,377.48Z"/><path d="M588.12,390c.38-.43.6-.86,1-1.05a2.34,2.34,0,0,0,1.11-2.95c-.17-.68-.65-1.29-.86-2a2.46,2.46,0,0,1,2.36-3.26,7.15,7.15,0,0,1,7,6.27c.12,1.42.23,2.85.35,4.3.47.24.82.46,1.2.61,1.78.7,2,1,2,2.29a2.68,2.68,0,0,1-1.65,2.77,2,2,0,0,1-.81.26c-1.9-.14-3.15.94-4.54,2-1.79,1.38-4,1.45-6.21,1.16-.63-.08-1.2-.67-1.9-1.09l2.12-6.36C588.89,392,588.5,391,588.12,390Z"/><path d="M562.71,480.69c-1.07.79-2.13,1.51-3.13,2.32a6.77,6.77,0,0,1-4.35,1.59,13.9,13.9,0,0,0-3.41.41,3.08,3.08,0,0,0-2.43,2.18,15.71,15.71,0,0,1-1.68,3.45,3,3,0,0,1-4,1.38,5.68,5.68,0,0,1-3.54-7.35,9.14,9.14,0,0,1,5.73-6.09,24.63,24.63,0,0,1,14.86-.45A2.54,2.54,0,0,1,562.71,480.69Z"/><path d="M634.9,340.93l-3.41-3.09a2.94,2.94,0,0,1,3.77-1.15c1.8.58,3.53,1.46,4.37,3.3,1,2.22,1.9,4.49,2.76,6.77.7,1.89-.13,3.7-.57,5.49a2.14,2.14,0,0,1-1.13,1.22,11.88,11.88,0,0,1-3.23,1.15c-2.13.34-4.22.56-6.16,1.72a3.85,3.85,0,0,1-2.87,0,18.3,18.3,0,0,1-3.18-1.83c-.17-2.37.92-3.87,2.07-5.34a3.78,3.78,0,0,1,2.59-1.34C634.63,347.11,635.08,346.47,634.9,340.93Z"/><path d="M687,443.66l-6.53,1.72c-.3,2-.46,4.2-1.81,6.2a37.74,37.74,0,0,1-4.46,5.19,3,3,0,0,1-3.93.6,15.49,15.49,0,0,1-5.38-4.8,1.86,1.86,0,0,1,.51-2.64,23.94,23.94,0,0,0,7.59-8,2.82,2.82,0,0,1,3.72-1.29,19.45,19.45,0,0,0,8.34,1.67C685.54,442.24,686.07,443,687,443.66Z"/><path d="M536.94,363.28l7.08-4.55c.05-.58.24-1.06.1-1.41a6.64,6.64,0,0,1,.52-5.77,9.48,9.48,0,0,1,4.58-4.35,3.44,3.44,0,0,1,3.31,0c1.64.89,3.31,1.76,4.23,3.53.59,1.15.37,2.51-.87,2.89-1.77.54-2.88,1.85-4.21,2.91a3.23,3.23,0,0,0-1.12,3.85,20.19,20.19,0,0,1,.48,2.36,3.79,3.79,0,0,1-3.57,2.29c-2.87.08-5.75.18-8.62.23C537.69,365.28,537.6,365.16,536.94,363.28Z"/><path d="M575.77,486.2c3.44,2,4.34,5,4.43,8.2a5.83,5.83,0,0,1-1.9,3.72c-2.78,2.64-6.11,4.31-10.09,3.84-2.52-.3-4.71-1.17-5.39-4.1a7.27,7.27,0,0,0-1.46-2.51c-.67-.87-1.15-1.69-.39-2.69a1.83,1.83,0,0,1,2.31-.53c.27.1.55.16.82.27,3.13,1.26,5.91-.1,8.65-1.31C574.39,490.37,574.82,489.42,575.77,486.2Z"/><path d="M674.21,420.18c1.63.91,3.18,1.46,4.28,2.49s1.42,2.37,2.21,3.77c-.8.92-1.68,1.82-2.44,2.82s-1.13,2.39-3,2.32l-.83-2.23c-3.32-.15-6.61-.34-9.91-.41a4.43,4.43,0,0,1-2.74-1c-2.09-1.61-3.44-3.86-5-5.91-.36-.48.06-1.54.15-2.66,2.53.51,4.79.89,7,1.43A15.65,15.65,0,0,0,674.21,420.18Z"/><path d="M620.25,348.28c-2.53,1.1-6.09-.49-7.08,3.52.33.28.69.79,1.15.92.82.24,1.73.15,2.55.37a1.24,1.24,0,0,1,.92,1.67c-.39,1.07-.94,2.07-1.38,3-4.07,1-5.5.55-7.51-2.43a25.07,25.07,0,0,1-2.89-5.27,6.33,6.33,0,0,1,1.67-7.11c2-1.91,4.15-3,7-2.09a9.91,9.91,0,0,1,4.81,3.48C620.21,345.29,620.25,345.56,620.25,348.28Z"/><path d="M567.56,353.5c-2.76-.31-4.4-2.16-6-3.95a4.27,4.27,0,0,1-.84-1.9c-.25-1.15.34-2.26,1.4-2.26,2.88,0,5.1-1.82,7.69-2.57,2.07-.59,4.14-1.19,6.23-1.67.43-.09,1,.33,1.67.59-.6,2.07-1.15,3.95-1.71,5.91l-3.86,3.6c.28,1.07.48,2.18.85,3.22.75,2.08.1,4-.73,5.8a2.28,2.28,0,0,1-1.65,1.1,1.86,1.86,0,0,1-1.89-1.47c-.22-.83-.3-1.69-.44-2.54C568,356.1,567.79,354.84,567.56,353.5Z"/><path d="M673.36,468c1.66.67,1.56,1.78,1.67,2.75a65.1,65.1,0,0,1-.31,14.16,4.84,4.84,0,0,1-3.83,4.64,3.89,3.89,0,0,1-3.29-.51,24.47,24.47,0,0,1-6.22-6.49,2.8,2.8,0,0,1-.19-1.65,1.23,1.23,0,0,1,1.56-1.06c.92.38,1.78.89,2.67,1.34,2,1.05,3.12.74,4.21-1.26a23.71,23.71,0,0,0,2.12-4.13,52.42,52.42,0,0,0,1.23-5.88C673.08,469.32,673.19,468.78,673.36,468Z"/><path d="M647.59,340.31a12.77,12.77,0,0,1,2.12.88,5.27,5.27,0,0,1,2.36,6.35c-.37,1.23-.88,2.42-1.35,3.7l2.07,2.49c-.75.59-1.31,1.35-2,1.52a3.61,3.61,0,0,1-3.47-1.34c-2.5-3-4.18-6.18-2.69-10.29A5.18,5.18,0,0,1,647.59,340.31Z"/><path d="M647,461.29c-3.16-.54-4.75-3-6.54-5.2a1.69,1.69,0,0,1,1.22-2.61c2.51-.51,5.05-.93,7.55-1.47a3.4,3.4,0,0,1,3.69,1.56,3.77,3.77,0,0,1-.25,4.39C651.09,459.59,650.46,461,647,461.29Z"/><path d="M546,401.13c5-2.08,9.7-4.28,15.36-2.85-.13.74,0,1.55-.39,2a23.46,23.46,0,0,1-6.79,5.16c-2.59,1.37-6.69-.07-8.16-2.72C545.88,402.36,546,401.85,546,401.13Z"/><path d="M556.08,526.9a30.42,30.42,0,0,1,5,1c2.63,1,3,3.76.75,5.38a13.37,13.37,0,0,1-3.91,1.68,3.06,3.06,0,0,1-3.12-1.09c-1.18-1.25-2.28-2.6-3.34-4a1.66,1.66,0,0,1,1.14-2.62,32.87,32.87,0,0,1,3.44,0Z"/><path d="M675,370c.7,1,1.5,2,2.13,3.14a4.41,4.41,0,0,1,.41,3.7c-.54,1.73-.82,3.55-1.23,5.44-1.72.7-2.92-.34-3.81-1.68a10.16,10.16,0,0,1-1.46-7.81c.14-.69,1-1.35,1.6-1.82A11.12,11.12,0,0,1,675,370Z"/><path d="M597.53,493c.91.62,2.6,1.16,3.1,2.24a30.6,30.6,0,0,0,2.52,5.06c.18.25-.11.81-.18,1.22a4.9,4.9,0,0,1-4.94.42,17.54,17.54,0,0,1-4.9-3.79c-1.31-1.35-.73-2.92,1-3.71C595.05,494,595.94,493.67,597.53,493Z"/><path d="M659.47,476.59a6.38,6.38,0,0,1-.5,1.92,11.65,11.65,0,0,1-5.6,3.52L649,479.68c.08-1.11.16-2.07.24-3.15C652.57,474.69,655.79,475,659.47,476.59Z"/><path d="M581,423.14c-.48,1.56-.31,3.29-2,4.07s-3-.33-4.37-1.18a11.52,11.52,0,0,1-2.41-1.77,2.22,2.22,0,0,1-.53-1.91,5.14,5.14,0,0,1,1.91-1.51c.19-.12.56,0,.84,0A15,15,0,0,1,581,423.14Z"/><path d="M559.89,363.93a5.27,5.27,0,0,1-5.64-2.92,5.4,5.4,0,0,1-.55-2.45,1.35,1.35,0,0,1,1.42-1.32c2.83,0,5.64,3.17,5.33,6C560.42,363.49,560.1,363.69,559.89,363.93Z"/><path d="M673.39,532.76c-.28.46-.44,1.11-.84,1.33a36.82,36.82,0,0,1-4.22,2,2.43,2.43,0,0,1-3-1.05,1.5,1.5,0,0,1-.11-1.95,3.8,3.8,0,0,1,1.12-1.23,6.78,6.78,0,0,1,6.14-.17C672.84,531.81,673,532.29,673.39,532.76Z"/><path d="M642.49,427.88a35,35,0,0,1,.25,4.13,2,2,0,0,1-3.24,1.41,3.36,3.36,0,0,1-1.4-4.1C638.79,427.71,640.08,427.24,642.49,427.88Z"/><path d="M668,528.68a4.28,4.28,0,0,1-3.73-1.67,2.9,2.9,0,0,1-.34-3.21c.34-.95,1.22-1.08,2.08-1.18a2.48,2.48,0,0,1,2.62,1,2.44,2.44,0,0,1,.14.82C668.51,525.77,668.25,527.14,668,528.68Z"/><path d="M656.83,407.64c-.55-.63-1.1-1.25-1.64-1.89s-1.05-1.21-.46-1.87a2.68,2.68,0,0,1,1.79-.9c1.72,0,3.43.23,5.06.36a1.5,1.5,0,0,1-.58,2.31c-1.39.73-2.88,1.25-4.33,1.87Z"/><path d="M597.16,490.15l-2,1.38c-1.93,1.3-3.15,1-4-1.14a1.55,1.55,0,0,1,1.56-2.3A5.76,5.76,0,0,1,597.16,490.15Z"/><path d="M554.65,488.07a2.73,2.73,0,0,1-2,2.41,2.52,2.52,0,0,1-2.48-2.38c-.15-1,.58-1.66,1.92-1.68S554.61,487.07,554.65,488.07Z"/><path d="M627.53,439.13c-.58.69-.89,1.34-1.41,1.62s-1.46-.67-1.46-1.56a1.21,1.21,0,0,1,1.26-1.34C626.42,437.91,626.86,438.57,627.53,439.13Z"/><path d="M677.94,455.24c1-.1,1.69.56,1.57,1.26,0,.29-.58.76-.76.71a2.07,2.07,0,0,1-1.28-.84C677.34,456.09,677.81,455.53,677.94,455.24Z"/><path d="M678.78,419.17a19.29,19.29,0,0,1,1.9.76c.14.06.15.44.16.68a.53.53,0,0,1-.26.3c-.74-.28-1.47-.59-2.2-.9C678.5,419.77,678.61,419.53,678.78,419.17Z"/><path d="M672.17,367.58l.24-.36a10,10,0,0,1,.74.72s-.09.21-.15.32Z"/><path d="M552.75,380.72a4.85,4.85,0,0,1,.87,1,1,1,0,0,1-.25.67,6.76,6.76,0,0,1-1.14-.34Z"/><path d="M637.53,382.57a3.39,3.39,0,0,1,.85.05c.13,0,.19.32.27.48-.14,0-.32,0-.41,0a6.79,6.79,0,0,1-.6-.6Z"/><path d="M706.67,383.19a22.56,22.56,0,0,0,3.22,0,13.74,13.74,0,0,0,2.53-.91c4.71,3.27,10.29,3.92,15.89,4.38,8.33.68,16.66,1.29,25,1.9,1.15.08,2.3,0,3.45,0a33,33,0,0,1,13.47,2.61,4.33,4.33,0,0,1,3,3.47l2.66-.19a16.4,16.4,0,0,1,8,1.08c2.59,1.15,5.36,1.9,8.65,3-1.39-2.5-1.78-4.56-1-7a9.66,9.66,0,0,1,7.17,4.45,3.78,3.78,0,0,0,4.26,2c1.14-.15,2.27-.4,3.42-.53s2.24-.15,3.5-.23v3.11c1.92.93,3.8.35,5.65.29s3.43-.32,5.15-.34a6,6,0,0,1,1.9.63c-1,3.63-3.19,5.34-6.72,6.06a23.58,23.58,0,0,1-12.34-.92,18.78,18.78,0,0,0-6.33-1.06,24.73,24.73,0,0,1-10.77-2.73,6.9,6.9,0,0,0-4.14-.94,10.42,10.42,0,0,1-8.08-1.61,11,11,0,0,0-1.13,2.81c-.41,5-.83,10,.55,15a64.15,64.15,0,0,1,1.49,9.81c.29,2.58-.65,3.93-3.09,5.11a10.94,10.94,0,0,1-6.28,1.09c-4.32-.52-8.6-.08-12.91.21a102.74,102.74,0,0,1-11.64.11,12.82,12.82,0,0,1-8-2.9,11.76,11.76,0,0,0-8.87-2.61,42.83,42.83,0,0,1-8.62-.06,13.86,13.86,0,0,1-5.42-2.34c-2.37-1.44-2.58-2.6-1.7-5.48a41,41,0,0,0,1.06-20.06q-.92-4.66-2-9.29a6.64,6.64,0,0,0-1-2.81C705.2,386.75,705.86,385.25,706.67,383.19Zm10.09,39.74c1,1.07,2.19.65,3.31.52,5.43-.63,10.58-.17,15.24,3.15a10.84,10.84,0,0,0,6.93,1.87c3-.16,6-.3,9.07-.18,4.58.18,9.13-1,13.73-.22.84.13,1.8-.5,2.63-.75,0-2,.05-3.75,0-5.46a9.51,9.51,0,0,0-.48-2.53,36.35,36.35,0,0,1-1.44-14.07,35.87,35.87,0,0,0-.89-12c-1.9-.77-3.78-.53-5.63-.52a37.88,37.88,0,0,1-6,0A169.37,169.37,0,0,0,733.44,391c-5.79-.27-11.44-1.19-16.71-3.76-.73-.35-1.43-1-2.43-.25.56,2.3,1.26,4.62,1.65,7a131,131,0,0,1,1.93,14.51c.23,4.48.35,8.9-1.1,13.23A3.6,3.6,0,0,0,716.76,422.93Z"/><path d="M788.87,358.51a17.62,17.62,0,0,0,2.92-.67,35.28,35.28,0,0,1,13.48-2.37c3.59,0,7.18-.5,10.76-.36,4.3.18,8.59.85,12.89,1.2a16.64,16.64,0,0,1,8.44,3.59c1.86,7.71,1.13,15.24.26,22.87-2.2,1.44-4.42.7-6.59,0-1.91-.62-3.77-1.39-5.64-2.12a57.36,57.36,0,0,0-23.63-4c-3.3.13-6.6.34-9.89.59a10.37,10.37,0,0,0-2.49.59c-1.77.59-3.3.58-4.48-1.17a22.43,22.43,0,0,0-1.82-1.83,3.2,3.2,0,0,1-.84-1.45c-1-5.87-1.41-11.71,1-17.38a7,7,0,0,1,.37-.78,2.25,2.25,0,0,1,4.13,0A19.16,19.16,0,0,1,788.87,358.51Zm-.5,12a87,87,0,0,1,41.31,7.22,13.27,13.27,0,0,0,2.31-7.84c0-2.73,0-5.46-.16-8.18a8.08,8.08,0,0,0-.79-2.18c-3.25,0-6.22,0-9.2,0a14.39,14.39,0,0,0-4.27.37c-2.82,1-5.67.85-8.54.81-6.7-.1-13.39-1.07-20.29,0C787.9,363.75,788.09,366.84,788.37,370.55Z"/><path d="M759,338.71c-.85.66-1.5,1.23-2.21,1.71-1.55,1-3.57,1.15-4.69-.3-2.52-3.23-5.41-3.32-8.78-1.81-.64.29-1.43.26-2.05.58-5.25,2.71-10.85,2.59-16.35,1.49-3-.6-6.09-1.95-7.37-5.34a7.3,7.3,0,0,0-.6-1.14,2,2,0,0,0-.43-.34c-1.41-.64-2.7.26-4,.66s-2.69,1-3.94,1.47c-4.28-.59-6.27-3.28-7.2-7.42a10.17,10.17,0,0,1,2.69-1c7.46-.51,14.86-2.14,22.39-1.28a21.88,21.88,0,0,1,8.57.24,16.53,16.53,0,0,1,2.27.81c-2,2-3.88,3.61-6.61,3.77-1.86.12-3.72.34-5.57.6s-3.59.61-5.74,1A26.28,26.28,0,0,0,723,337c1.88-.16,3.6-.22,5.29-.47a11.34,11.34,0,0,0,3.73-1A18.58,18.58,0,0,1,746.24,334a14.19,14.19,0,0,0,1.66.25,4.89,4.89,0,0,0,1.19-.64c2.92-3,6.4-2.73,10-1.76,3,.83,6.12,1.6,9.16,2.48,1.62.46,3.42.64,4.79,2.39-.46.94-.93,1.94-1.35,2.81C768.58,340.68,769.66,340.7,759,338.71Z"/><path d="M836.12,561.8c-.15-2.4.92-4.47,1.82-6.58,1.24-2.92,2.56-5.8,3.76-8.73.59-1.45,1-3,1.56-4.67a16.41,16.41,0,0,0-2.63-1.56c-1.49-.54-3.08-.78-4.57-1.3a4.88,4.88,0,0,0-4.48.42,11.36,11.36,0,0,1-5,1.31c-4.73.25-9.48.18-14.21.36a9.86,9.86,0,0,1-7.47-2.74,16.49,16.49,0,0,0-5.84-4c-.56-2.38.78-3.45,2.38-4.28a3.12,3.12,0,0,1,3.93.76,25,25,0,0,1,2.33,2.5,2.9,2.9,0,0,0,3,1.32c3.89-1,7.74,0,11.6,0,.81,0,1.62-.11,2.67-.19-.21-1.52-1.21-2.13-1.94-2.92a12.6,12.6,0,0,1-1.43-1.59,1.87,1.87,0,0,1,.89-2.54c1.87-.55,4-.77,5.3.71,2.77,3.11,6.44,4.25,10.15,5.36a47.17,47.17,0,0,1,7.93,3.33,10.24,10.24,0,0,1,5.47,7.34c.1.41.24,1,0,1.25-1.31,1.64-.53,4.4-2.92,5.43-3.13,4.21-7.4,7.21-11.34,10.55a3.33,3.33,0,0,1-1.14.38Z"/><path d="M733.79,446.17a27.16,27.16,0,0,1,.42-3.41c.52-2.06,2.26-2.71,3.95-1.43s3.26,2.78,5.12,4.38c3.49.12,7.27-1.71,11.18-.29-.36,4.47-3.81,5.48-6.86,6.72-.19,1.21.68,1.39,1.28,1.37,2.87-.05,5.74-.2,8.6-.37,1.58-.09,3.14-.32,4.71-.43a.84.84,0,0,1,.65.46c.1.37.19,1,0,1.17a54.42,54.42,0,0,1-4.09,3.8,4.77,4.77,0,0,1-2.31,1.07c-5.41.63-10.75.46-15-3.5a14.41,14.41,0,0,0-6.82-3.2,15.17,15.17,0,0,1-3.64-1.16c-5.14-2.86-10-1.76-14.73.94-3.25,1.85-3.58,1.94-6.26-.5-.1-.1-.23-.17-.33-.27-2.62-2.53-2.34-4.2.88-5.93a23.26,23.26,0,0,1,14.22-2.46,15.85,15.85,0,0,1,3.24,1.09C729.83,444.89,731.51,446.11,733.79,446.17Z"/><path d="M800.77,454.3l2.58-3c-.68-.86-1.34-1.6-1.89-2.4a34.12,34.12,0,0,1-2.74-4.35c-1.1-2.34-.51-4.17,1.52-5.66a2.84,2.84,0,0,1,4.54,1.39,28.31,28.31,0,0,1,1,4.19c1,5.62,4.76,8.33,10.13,7.62l-2.6-5,2.3-2.32c1.95,2.11,3.53,4.44,5.68,6s4.88,2.31,7.51,3.48c.39.84-.22,1.46-1,1.87a6.42,6.42,0,0,1-6.2.13c-.77-.39-1.52-.81-2.21-1.19-4.61,2-4.61,2-9.56,1.14-.92.68-.6,1.6-.28,2.34a10.91,10.91,0,0,0,6.82,6.18,19.63,19.63,0,0,0,5.51.86c3.31.1,6.63-.05,9.94-.08.54,0,1.08.08,2.1.15a8.79,8.79,0,0,1-1.19,1.52c-1.64,1.17-3.29,2.33-5,3.38a4.71,4.71,0,0,1-2.42.8c-3.83-.05-7.71-.07-11.26-1.79C807.49,466.39,802.72,461.71,800.77,454.3Z"/><path d="M736.85,546h-5.08c-.32,2.08.05,4.22-1.45,5.84-1.1.29-1.56-.54-1.93-1.27-1.2-2.29-2.31-4.61-3.45-6.93-7.34-.17-13.05-2.69-15.87-9.76,1.8-1.91,2-2,3.54-1.11a29.9,29.9,0,0,1,3.12,2.27,7.35,7.35,0,0,0,6.32,1.63c0-1.85-.37-3.64-.56-5.43a18.68,18.68,0,0,1-.09-4.72c.28-1.94,2-2.45,3.54-1.22a9.93,9.93,0,0,1,1.52,1.52,11,11,0,0,1,.89,1.73c1.79-1.58.89-3.35,2.44-4.89,1.29-.84,2.92,0,4.51,1.11a4.39,4.39,0,0,1,2.08,4c-.27,3.41.17,7-2.12,10-.81,1.05-.36,2.22-.3,3.35a2.79,2.79,0,0,0,1.59,2.4C735.87,544.72,736.07,545.12,736.85,546Z"/><path d="M743,349c1.14,5.52-.61,10.19-4.7,13-1.18.8-2.32,1.66-3.47,2.51-.06,0,0,.27.07.55,1.81,0,3.64,0,5.47,0a3.81,3.81,0,0,1,3.54,2.09c.67,1.44,1.84,3,.71,4.94a5.87,5.87,0,0,1-1.61-.64,2.94,2.94,0,0,0-2.78-.68c-4.86,1.07-9.07-.29-12.85-3.79-1.39.36-2.89.78-4.41,1.12s-2.81.62-4.24.79c-3,.34-5.39-.44-6.89-3.28-.59-1.11-1.38-2.13-2.17-3.33l-2.76.94c-1-1.82-.94-2.34.2-2.8,1.31-.53,2.65-1,4.22-1.57,3,2.59,6.7,1.68,10.14.95,5.18-1.1,10.36-2.46,14.79-5.58C738.46,352.67,740.54,350.92,743,349Z"/><path d="M776,492.65c1.18.1,2.18-.1,2.73.31a12.34,12.34,0,0,1,3,3c2.64,3.86,2.58,3.89,2.43,9a51.78,51.78,0,0,1,5.67,4.63c2.61,2.79,3.68,6.1,2.15,9.9-.48,1.19-.81,2.45-1.36,4.17-.48-1.19-.84-1.9-1.05-2.65-.69-2.5-1.34-5-2-7.52a3,3,0,0,0-2.69-2.41,11.36,11.36,0,0,0-1.69-.31c-4.85.16-9.76-.54-14.49,1.17a32,32,0,0,1-5,1.33,8.41,8.41,0,0,1-9-5.16,1.85,1.85,0,0,1,1.29-2.36c.57-.1,1.15-.08,1.72-.15,2.28-.28,4.58-.5,6.85-.88s4.47-1.11,6.83-.66a2.21,2.21,0,0,0,1.62-.34c2.75-2.23,5-4.83,4.66-8.68C777.67,494.32,776.81,493.69,776,492.65Z"/><path d="M787.07,477.72c3.35-2.49,4.49-6.22,6.94-9.23,1.82-.77,3.11.65,4.32,1.76a5,5,0,0,1,1.26,5.12l-7.74,8.37c3.4,2.79,7.87,2.16,11.5,4.26-.17.57-.16,1.3-.5,1.55a9.75,9.75,0,0,1-8.89,1.88c-1.79-.51-3.62-.93-5.07-2.26a3.89,3.89,0,0,0-3.64-.72c-3.78.71-7.59,1.28-12.22,2,3.18-3.2,6.86-4.37,9.24-7.09-.83-2.33-1.48-4.53-2.4-6.61-.8-1.84-.29-3.69-.45-5.52a1.58,1.58,0,0,1,.09-.42c.34-1.48,1.41-2.63,2.5-2.62a2.77,2.77,0,0,1,2.57,2c.54,1.33.84,2.75,1.28,4.12C786.2,475.37,786.6,476.4,787.07,477.72Z"/><path d="M758,548.05c1.36-4.61,3.73-7.34,5.9-10.36a11.23,11.23,0,0,1-3.1-7,2.41,2.41,0,0,0-1.94-2.09,32.29,32.29,0,0,0-3.8-.74c-1-.15-2-.12-3-.34a1.4,1.4,0,0,1-1.24-1.51,1.37,1.37,0,0,1,1.5-1.27c2.57.27,5.19.55,7.4,2,2.85,1.91,5.59,4,8.64,6.21.59-.44,1.39-1,2.12-1.59,1.74-1.48,3.45-3,5-4.32a3.09,3.09,0,0,1,3,2.48,3.51,3.51,0,0,1-.61,3.25c-.91,1.4-2.56,2.27-3.19,4.25a30.11,30.11,0,0,0,14.92.81,12.08,12.08,0,0,1,6.93.51c-.8,1.58-2.54,1.79-3.68,2.73-2.93,2.43-6.38,3.12-10.1,2.92a42.54,42.54,0,0,1-13.45-2.66C764.72,542,762.19,545.42,758,548.05Z"/><path d="M755.05,487.61c-.16,2.82-2.52,2.07-3.75,3.08-2.53-2-5.29-3.45-5.31-7.09,0-.41-.73-.81-1.1-1.23-1.42-1.59-2.91-3.14-4.23-4.82a2.88,2.88,0,0,1-.26-3.81,10.16,10.16,0,0,1,5.23.8,43.62,43.62,0,0,0,8.6,2c.12-.78.26-1.55.34-2.33a16.72,16.72,0,0,1,.23-2.58,3.39,3.39,0,0,1,2.58-2.63c1.3-.21,2.11.78,2.67,1.83a18.4,18.4,0,0,1,1.37,3.16,22.35,22.35,0,0,1,.47,3.15c1.42.41,2.92.8,4.39,1.3a1.39,1.39,0,0,1,.56,2.16c-1,1-2,2-3.11,3,2.32,2.1,5.55,1.63,8.28,3.13a7.33,7.33,0,0,1-.87,1.84,9.71,9.71,0,0,1-1.75,1.25,5,5,0,0,1-5.3.48c-2-.93-3.86-1.87-5.2-3.73a21.06,21.06,0,0,0-2.55-2.53l-7-.56c.24.62.28,1.2.59,1.49C751.45,486.47,751.89,486.65,755.05,487.61Z"/><path d="M749.25,500.31c-1.2,1.72-2.65,1.9-4.29,2a29.93,29.93,0,0,0-11.3,2.4c-.63.29-1.19.69-2.15,1.26l4.23,2.91c-.09,1.38-.94,1.58-1.8,1.67-2.38.26-4.51-.67-6.56-1.55-1.79.17-2.93,1.33-4.2,2.25a20.57,20.57,0,0,1-1.65,1.34c-4.13,2.34-6.42.89-8.81-3-1.06-1.74-.35-3.18,1.53-4.17,2.54-1.33,5.06-2.7,7.58-4.06a39.07,39.07,0,0,1,13.46-4.38A19.87,19.87,0,0,1,749.25,500.31Z"/><path d="M724.19,477.58c-1.18.51-2.37,1-3.54,1.52s-2,1-3.11,1.51c-2,.89-3.89.94-5.57-.76a4.8,4.8,0,0,0-.94-.71c-1-2.12-1.71-3.78-2.52-5.55a2.14,2.14,0,0,1,1.51-1.73,6.63,6.63,0,0,0,2.6-1.33c1.17-1.09,2.26-1.63,3.87-1a4,4,0,0,0,2-.25c3.36-.79,6.69-1.75,10.08-2.35a37.45,37.45,0,0,1,6.87-.33,7.52,7.52,0,0,1,2.36,1c-.61,1.55-2.8,1.6-2.53,3.71l2.26-.23c-.11.46-.06,1-.3,1.19-1.26,1.14-2.71,2-2.66,4.14,0,.72-1.09,1.71-1.91,2.17-2,1.11-4.14,2-6.2,3-1.69.83-2.73.09-3.54-1.41l1.13-2.58a12.08,12.08,0,0,0,8-.79l.36-3.23C729.36,474.75,726.54,475.67,724.19,477.58Z"/><path d="M762.68,458.73a8.12,8.12,0,0,1,2-.73c2.15-.17,4.33,0,6.45-.37a28,28,0,0,0,5.78-1.63,4,4,0,0,0,2.68-4c0-1.15,0-2.31,0-3.45a8.87,8.87,0,0,1,3.39-6.7,4.14,4.14,0,0,1,4.72-.79c3.57,1.51,4.23,3.33,1.79,6.23a13.22,13.22,0,0,0-3.34,8.62c-.05,3.5-2.06,5.38-5.17,6.66-4,1.66-8.19,1.59-12.31,1C766.11,463.14,764.11,461.41,762.68,458.73Z"/><path d="M832.07,406.75c-2.64,3.2-2.88,6.38-1,9.76.41.76.93,1.47,1.29,2.25a4.66,4.66,0,0,1,.41,1.65,6.48,6.48,0,0,1-.28,1.54c-5.26,2-10.53,1.65-15.84-.23-4-1.41-4.62-1.81-6-4.45,5.33.27,10.6.81,16.06-.44-.34-1-.52-1.64-.82-2.27-2.15-4.48-1.07-8.72,1.08-12.8,1.15-2.17,5.3-3.22,7.24-2a5.92,5.92,0,0,1,2.22,7.53c-.82,1.58-1.71,1.64-3.33.24C832.86,407.32,832.62,407.16,832.07,406.75Z"/><path d="M776.27,339.88c-.33-1.93-2-3.52-1.44-5.68.07-.26.2-.51.35-.89.32,0,.78-.23,1.09-.1,5.11,2.24,9.65,1.51,13.89-2.2,3.3-2.9,5.68-2.33,8,1.54a9.06,9.06,0,0,1,.5,1.47l-3.5,5.22c2.91,1.47,6.19.09,9.21,2-.9.53-1.46,1.15-2,1.12a43.11,43.11,0,0,0-9,.48,2,2,0,0,1-1.24-.09c-2.13-1.5-4.36-.92-6.64-.54-2.92.5-5.67-.38-8.38-1.35Z"/><path d="M807.15,496.32a6.92,6.92,0,0,1,.69.52c2.8,2.68,3.38,5.77,1.89,9.36-1.23,2.95-.48,5.57,1.49,8a3.57,3.57,0,0,0,3.3,1.64c2.56-.33,5.1-.8,7.64-1.24.68-.12,1.34-.36,2.88-.78a30.81,30.81,0,0,1-2.19,2.42c-1.51,1.25-3.54,1.81-4.52,3.78a2.37,2.37,0,0,1-1.89.85c-2.38,0-4.91.37-6.8-1.76a10,10,0,0,0-2.35-1.89c-4-2.35-5.2-6.17-5.85-10.42-.5-3.21.85-5.94,1.95-8.7a3.63,3.63,0,0,1,3-2.18c.2,0,.45.3.68.46s.26.36.39.55l-.35,0C807.11,496.75,807.13,496.54,807.15,496.32Z"/><path d="M824.66,481.91c4.57-1.09,8-4.66,12.45-6.91a7.17,7.17,0,0,1,0,1.71c-.68,2.5-2.87,4.22-3.41,6.86-.16.8-1.37,1.38-2.08,2.08s-1.71.47-1.79,1.69c1.06.8,2.17.07,3.19-.08,2.41-.37,4.37,1,6.56,1.47.2,0,.43.76.36,1.1a1.42,1.42,0,0,1-.81.82c-1.55.58-2.71-.51-3.86-1.14-1.41.4-2.63.79-3.87,1.1-1.57.38-3,0-3.6-1.55a2.65,2.65,0,0,0-2.71-1.7c-3.3-.06-5.44-2.26-7.84-4-1.83-1.3-2.25-3.22-1.93-5.37a2.28,2.28,0,0,1,3.48-1.84c2.07,1.23,4.35,2.32,5.07,5C823.91,481.39,824.25,481.54,824.66,481.91Z"/><path d="M786.46,411.17a5.65,5.65,0,0,1,4.41,2.46c.92,1.33,1.52,2.61.57,4.36a2.22,2.22,0,0,0,1.64,3.25,37,37,0,0,0,4.72.29c1.57.05,3.16,0,4.72.11a1.92,1.92,0,0,1,1.49,2.9,4.81,4.81,0,0,1-4,3c-3.85.32-7.61.5-10.81-2.67-2.14-2.12-4.42-4-5.54-6.89-1.2-3.15-1-4.19,1.65-6.24A6.64,6.64,0,0,1,786.46,411.17Z"/><path d="M842.92,496.26c.92.88,1.48,1.16,1.62,1.59.74,2.16,1.45,4.34,2,6.56a3.63,3.63,0,0,1-.29,2.45,15.81,15.81,0,0,1-11.41,8.25,3.33,3.33,0,0,1-2.1-.2,11.91,11.91,0,0,1-4.73-4.23,1.77,1.77,0,0,1,1.13-2.7,6.71,6.71,0,0,1,2.08-.46c2.92.1,5.11-1.39,7.45-2.87a8.36,8.36,0,0,0,3.76-5.46C842.57,498.51,842.66,497.81,842.92,496.26Z"/><path d="M755.38,365.33,754.2,361c2.11-1.57,4.18-1.2,6.44-.08.26,1.89.51,3.73.76,5.62,4.2,1.2,4.2,1.2,5.19,3.58-4.22,1.22-8.41,1.68-12.66.41a4.72,4.72,0,0,1-2.21-1.2,50.13,50.13,0,0,1-3.54-4.88,3.68,3.68,0,0,1-.32-1.66,1.09,1.09,0,0,1,1.53-1c.7.48,1.28,1.14,2,1.6C752.53,364.12,753.42,365.4,755.38,365.33Z"/><path d="M835.58,344.78c-.54-.83-1-1.46-1.39-2.16a2.79,2.79,0,0,0-2.75-1.7c-2.43.06-4.84-.06-7.13,1.26a33.81,33.81,0,0,1-5.23,2,2.52,2.52,0,0,1-2.77-.67c-1.29-1.2-1.08-2.8.62-3.36a75,75,0,0,1,9.52-2.79c4-.74,6.67-.2,9,3.47A3.52,3.52,0,0,1,835.58,344.78Z"/><path d="M822,499.12c1.24,1.13,1.48,2.24.79,3a11.28,11.28,0,0,0-2,3.75,7.67,7.67,0,0,1-1.46,2.09c-1.18,1.42-2.52,2.31-4.48,1.38a19.67,19.67,0,0,0-2.08-.47c-1.61-.53-2.33-2.82-1-3.82C814.85,502.67,817.72,499.73,822,499.12Z"/><path d="M831.16,412.13c.68-.35,1.29-1,1.89-.95,3,.08,6,.21,9,.55,1.72.2,2.2,1.78,1.23,3.26-1.13,1.72-3,2-4.75,2.71-1.4.55-2.45-.34-3.48-1.18C833.67,415.37,831.66,414.83,831.16,412.13Z"/><path d="M734.21,460.24a12.3,12.3,0,0,1-7.82-5.54,1.36,1.36,0,0,1,1.22-2.12,7.1,7.1,0,0,1,2.52.37,20.4,20.4,0,0,1,4.26,2.05,8.39,8.39,0,0,1,2.54,2.79C737.72,459.19,736.78,460.4,734.21,460.24Z"/><path d="M752.91,535.12c0,.49.12.89,0,1a19.12,19.12,0,0,1-5.28,4.24,4.32,4.32,0,0,1-4.42-.48,1.34,1.34,0,0,1,.07-2.17,7.19,7.19,0,0,1,1.14-.58c2.27-.87,4.53-1.73,6.8-2.57C752,534.31,752.85,534.72,752.91,535.12Z"/><path d="M765.93,446.88c.51-1.92.79-3.44,1.33-4.86a2,2,0,0,1,3.47-.6,7.92,7.92,0,0,1,1.08,1.31,11.53,11.53,0,0,1,.7,1.52C770.49,446.17,770,446.38,765.93,446.88Z"/><path d="M763.77,500.19c.8-1,1.19-1.84,1.84-2.18a4,4,0,0,1,2.44-.19,8.87,8.87,0,0,1,2.73,1.15,2.11,2.11,0,0,1,1,3C769,502.93,766.6,502,763.77,500.19Z"/><path d="M818.75,548c-1.54-.45-2.92-.79-4.25-1.26a1.9,1.9,0,0,1-1.39-2.3,2.44,2.44,0,0,1,2.85-1.25,16.21,16.21,0,0,1,1.55.68,14.89,14.89,0,0,0,1.94.83,1.54,1.54,0,0,1,1.18,1.93C820.4,547.26,819.41,547.58,818.75,548Z"/><path d="M805.87,341c2.83-.19,5-.23,6.93.91a2,2,0,0,1,.68,1.4c0,.26-.44.75-.76.84a13.52,13.52,0,0,1-3.75.76,4.07,4.07,0,0,1-2.55-1.26C806,343.18,806.07,342.14,805.87,341Z"/><path d="M847,520.52c-.4.81-.51,1.5-.91,1.75a5.15,5.15,0,0,1-6.22-.9,1.64,1.64,0,0,1-.23-1.52c.36-.48,1.16-1,1.66-.94C843.07,519.26,844.78,519.86,847,520.52Z"/><path d="M857.68,558.52c-1.45-.46-2.54-.78-3.6-1.16-1.26-.46-1.6-1.53-1.73-2.73a1.43,1.43,0,0,1,1.84-1.66C856.57,553.57,857.49,554.91,857.68,558.52Z"/><path d="M848.43,518.74c-1.88-1.52-4.47-2.13-3.49-5.42a5.62,5.62,0,0,1,4.3,1.63C850.39,516.06,849.79,517.28,848.43,518.74Z"/><path d="M809.34,485.65a2,2,0,0,1-2.74-.72,11.23,11.23,0,0,1-1.21-3c0-.18.47-.67.81-.79a1.88,1.88,0,0,1,2.24.73A4.3,4.3,0,0,1,809.34,485.65Z"/><path d="M843.91,477.15a2.07,2.07,0,0,1-2.08,2.05,7.85,7.85,0,0,1-2.77-.73,1.2,1.2,0,0,1-.36-1.11,2,2,0,0,1,1-1.15C840.94,475.87,841.15,476,843.91,477.15Z"/><path d="M819.1,413.81a2.72,2.72,0,0,1-4.27-.33,1.33,1.33,0,0,1,.51-2.09,3.32,3.32,0,0,1,3.67,1.34C819.14,412.94,819.07,413.27,819.1,413.81Z"/><path d="M776.27,339.88l.81.95v2.53c-2.63.34-3.23-1.15-3.55-2.91A1.9,1.9,0,0,1,776.27,339.88Z"/><path d="M800.13,416c-.11.92-1.6,1.67-2.27,1a4.53,4.53,0,0,1-1.14-2.08c-.07-.3.54-1,.95-1.14A2.22,2.22,0,0,1,800.13,416Z"/><path d="M767.21,342.33c1.08.88,2.24,1.69,2,3.45a1.76,1.76,0,0,1-2.72-1C766.1,343.8,765.75,342.89,767.21,342.33Z"/><path d="M746.47,508.21a12.19,12.19,0,0,1-2.46,1.42c-.75.18-1.28-.41-1.48-1.15a1.19,1.19,0,0,1,1.26-1.3A15.48,15.48,0,0,1,746.47,508.21Z"/><path d="M752.05,505.33l-.53.46-.51-.93c.25-.09.55-.29.75-.22S752,505.09,752.05,505.33Z"/><polygon points="845.78 510.98 846.02 511.13 845.73 511.19 845.78 510.98"/><path d="M836,561.71l-.27,1-.3-.24.66-.64Z"/></g></svg>