<svg xmlns="http://www.w3.org/2000/svg" viewBox="0 0 1024 1024"><defs><style>.cls-1{fill:#c5dced;}.cls-2{fill:#545454;}.cls-3{fill:none;}.cls-4{fill:#e66581;}.cls-5{fill:#f5a252;}</style></defs><title>mb-panel-a-1</title><g id="Ebene_2" data-name="Ebene 2"><path class="cls-1" d="M412.89,578.69c.24,2.65.24,2.65-2.44,6.31a19,19,0,0,1-3.72-.36,15.39,15.39,0,0,1-10.25-9,16.23,16.23,0,0,1-.81-3.21c-.41-2-.77-4-1.26-6.49-1.23,1.54-2.23,2.8-3.24,4.05a2.39,2.39,0,0,1-.48.52c-1.84,1.25-3.71,2.44-5.52,3.72-2,1.41-3.82,3-5.88,4.3-5.16,3.17-10.87,5.39-16.86,4.81-3.67-.35-7.78-1.45-10.08-5.35-1.26-2.14-2.91-2.33-5.07-1.2-4.37,2.27-8.58,5-13.16,6.66a84.09,84.09,0,0,1-14.84,3.6,24.46,24.46,0,0,1-13.35-1.89c-5.57-2.28-10.52-5.42-13.34-11-1.5-3-1.56-6.27-1.2-9.55.77-7.2,4.16-13.18,8.18-19.07,2.32-3.4,5.69-5.48,8.18-8.41s6.24-4.22,9.17-6.56c1.37-1.1,3.71-1.21,5.64-1.34,3.92-.28,7.95-.71,11.63,1a4,4,0,0,1,1.87,3.21,17.56,17.56,0,0,1-2.32,5.53,2.23,2.23,0,0,1-2.09.65c-4-2.24-7.47-.3-10.32,1.9a48.51,48.51,0,0,0-16.47,22.7c-1.85,5.3.92,9.3,6.47,11s10.95.82,16.28-1.34c2.85-1.15,5.94-1.68,8.82-2.76a33.51,33.51,0,0,0,4.74-2.72c1.82-1.05,3.69-2,5.45-3.14a2.76,2.76,0,0,0,1.14-1.75c.58-5.05.95-10.13,1.58-15.17.31-2.4,1.09-4.73,1.57-7.11.63-3.14,1.13-6.3,1.75-9.44.46-2.28,5.32-4.06,7.73-2.81,6.36,3.28,5.38,2.29,4.35,9.62-.64,4.58-2.07,9-2.82,13.61a74.67,74.67,0,0,0-.57,9.36q-.12,3.63,0,7.28c.08,2.54,1,3,3.43,2.6,4-.57,7.25-2.81,10.83-4.35s6.26-4,9.48-5.86q3.63-2.07,7.36-4c.47-.24,1.17,0,1.95,0,.24-2.28.6-4.69.73-7.11.24-4.55.62-9.13.42-13.67a6.05,6.05,0,0,1,8.22-5.66c3.67,1.23,4.83,3.42,4.49,7.32-.24,2.72.06,5.49-.1,8.23-.26,4.52-.94,9-1,13.54-.06,4.76-.53,9.63,2.3,14,1.09,1.7,1.19,4.06,3.5,4.91Z"/><path class="cls-1" d="M413,578.77c-.69-1.88-1.77-3.72-2-5.65a15.47,15.47,0,0,1,.64-6.67,80.42,80.42,0,0,1,4.77-10.12c1.82-3.41,3.45-7.06,6-9.91,2.78-3.17,5.65-6.61,10.14-7.77.94-.24,1.7-1.1,2.62-1.48a12.43,12.43,0,0,1,13.29,2.92c1.69,1.85,1.31,3.32.28,5.56-1.2,2.62-3.52,2.5-5.51,3.34-.51.22-1,.5-1.71.87-.3-1.15-.58-2.21-.89-3.38-9.12,6.87-14.19,15.89-16.95,26.69,3.62,1.17,6.45.14,9.27-.91,2.32-.86,4.69-1.61,6.94-2.63a37.43,37.43,0,0,0,5.49-3.08c2.75-1.86,5.79-1.77,8.76-1.58a55.14,55.14,0,0,1,0-5.61c.42-3.92,1.06-7.81,1.51-11.73.24-2,0-4.13.48-6,.85-3.16.07-6.9,3.23-9.32,1.67-1.27,3.27-1.72,5.23-.69,1.41.74,3.15.44,4.1,2.5a8.32,8.32,0,0,1,1,5.52c-1.06,5.74-1.73,11.54-2.54,17.32a11.72,11.72,0,0,0,.07,1.68c3.44-1,6-3.25,8.46-5.47,5.6-5,11-10.28,16.63-15.31a38.67,38.67,0,0,1,5.34-3.38,18.15,18.15,0,0,0,3.53,1.75c2.7.72,2.75,2.94,3.13,5a2.06,2.06,0,0,1-.38,1.55c-3.05,3.36-5.95,6.9-9.29,9.95-4.38,4-9.13,7.53-13.68,11.32a18.46,18.46,0,0,0-2,2.53c3.32,1.58,6.52,3.12,9.74,4.62a42.88,42.88,0,0,0,5.1,2.17c1.42.44,3,.44,4.43.74a27.09,27.09,0,0,1,3.85,1.06,1.55,1.55,0,0,1,.77,1.07c.51,2.78-1.85,5-3.89,4.38-1.12.87-1.91,2-2.75,2a29.44,29.44,0,0,1-6.62-.51,26.78,26.78,0,0,1-6.36-1.82c-4.47-2-8.82-4.31-13.2-6.53a5.65,5.65,0,0,1-1.22-1.13c-1.12.88-1.12.88,0,4.13,6.38.9,6.38.9,7.31,5.44-1.31,1.5-2.55,3.1-4,4.49a4.92,4.92,0,0,1-2.64,1.32c-2.6.3-4.69-.86-6.94-2.23-5.34-3.25-7-8.2-7.54-13.89,0-.19-.32-.35-.48-.52-2.27,2-4.41,4.14-6.84,5.9-2.18,1.58-4.79,2.55-7,4.1-3.94,2.75-8.59,3.24-13,4.43a4.31,4.31,0,0,1-1.5-.12,18.62,18.62,0,0,1-4.47-.63,27.38,27.38,0,0,1-5.64-3.09,22.23,22.23,0,0,1-3.12-3.23Z"/><path class="cls-1" d="M638.92,540.52c0,.66-.36,1.46-.1,2,.9,1.71.53,3-1.29,3.51-4,1.18-8.1,1.21-12.21,1.5-3.57.25-7.08,1.45-10.57,2.37-1.82.48-3.5,1.53-5.33,1.89-2.26.45-2.76,2-3.12,3.82-.28,1.38-.51,2.76-.79,4.29a2.45,2.45,0,0,0,1,.08c4.56-1.39,9.22-2.57,13.64-4.33,3.69-1.47,7.1-.67,10.62.09,1.14.25,1.85,3.08,1.12,4.14s-1.22,2-1.92,2.93a4.73,4.73,0,0,1-1.41,1.08c-.85.51-1.75.93-2.6,1.44-.4.24-.67.76-1.09.91-5.17,1.84-10.35,3.68-15.56,5.42-2.62.88-4.82,3.94-3.91,5.9.28.6,1.3,1.37,1.8,1.26a38.53,38.53,0,0,0,5.05-1.72,62,62,0,0,0,6.73-2.6,116,116,0,0,0,11.89-6.67c2.11-1.42,3.11,1,4.73.59a14.65,14.65,0,0,1,.69,3.13c0,3.5-2.79,5.4-4.72,7.78a.59.59,0,0,1-.44.16c-2.57-.25-3.12,2.38-4.82,3.36-2.27,1.32-4.5,2.71-6.82,3.92s-4.75,2.34-7.18,3.37a11.78,11.78,0,0,1-10-.61c-7.67-3.8-10.68-10.55-11-18.81-.18-4.43.9-8.56,2.21-12.76a128.51,128.51,0,0,0,3.08-13.52c.55-2.74,2.91-5.58,6.28-4.59s6.6-.23,9.77-.92c3.81-.81,7.63-2.17,11.48-1.88s7.79,1.62,11.67,2.53C636.82,539.78,637.83,540.18,638.92,540.52Z"/><path class="cls-1" d="M558.9,579.62c1,3.11,1.91,5.94,2.94,8.71a7.24,7.24,0,0,0,1.64,2.17c1.47,1.59,1.71,5.19.33,6.85a2.67,2.67,0,0,1-1.34.67,9.12,9.12,0,0,1-1.42.23l-2.61-.3c-.36,0-.78,0-1.05-.11a36.49,36.49,0,0,1-3.95-2.49,4.1,4.1,0,0,1-1-1.41c-1.05-1-1.89-1.44-2.19-2.12a49.92,49.92,0,0,1-4.43-17.28c-.34-6.62-1.19-13.22-1.88-19.82-.21-2-.72-4-.94-6.07-.59-5.71,3.36-7.51,7.9-6.93,2.46.31,4.53,3.36,4.69,5.86.21,3.48.64,6.95.95,10.42.21,2.4.35,4.79.54,7.37l6.17-2.68c1.07-.46,2.13-1,3.23-1.33,3.84-1.26,4-1.54,3.5-5.41-.54-4.48-1-9-1.34-13.46-.21-2.68.91-4.26,4.19-5.18a6.17,6.17,0,0,1,4.77.73c2.41,1.85,3.43,4.66,3.6,7.8.2,3.88.66,7.75,1,11.55,3,.25,6.17.07,7.39,3.27l-1.79,3.19c-.88.07-2.76-.31-2,2.24.08.31-1.55,1.11-2.72,1.92,1.51,6.39,3.16,12.91,4.53,19.49a12.73,12.73,0,0,1-.35,5.58c-.2.74-1.61,1.41-2.58,1.65s-2.32.45-2.58-1.29a1.68,1.68,0,0,0-1.11-1c-3.45-.73-4.57-2.14-5.17-5.53-.4-2.27-1.53-4.4-2.1-6.64a49.74,49.74,0,0,1-1.38-7.62c-.12-1.43-.27-1.9-1.59-1.08-2.57,1.61-5.15,3.21-7.66,4.9C561.62,577.42,560.3,578.54,558.9,579.62Z"/><path class="cls-1" d="M695.06,550.12c-2.88-.48-3.94-3-5-5.11-.37-.72.26-2.49,1-3.16,3.8-3.42,8.28-5.78,13.43-5.91a164.49,164.49,0,0,1,18,.59,49.72,49.72,0,0,1,9.74,2.29,64.19,64.19,0,0,1,7.51,2.94,2.15,2.15,0,0,1,.82,1.72c0,.68-.38,1.74-.87,1.93a29.41,29.41,0,0,1-6.92,2.18,86.24,86.24,0,0,1-9.92.31c-4.63,0-9.25,0-13.41,0-1.64,4.22-3.15,8.11-4.71,12.15,2.44-.8,5-1.73,7.59-2.47a34.77,34.77,0,0,1,6.42-1.35c1-.09,2.1.75,3,1.5,1.55-.27,3.08-.41,3.77,1.62.57,1.67,1.26,3.07-.69,4.79-3.68,3.25-8.25,4.24-12.54,6-.69.28-1.43.45-2.14.67l.15.82a46.69,46.69,0,0,0,4.87-1,41,41,0,0,0,7.49-3.2c2.78-1.52,7.05,2,6.78,5.22a3.52,3.52,0,0,1-.75,1.41c-.86,1.27-1.74,2.51-2.62,3.75-.27.39-.47.94-.84,1.11-4.71,2.24-9.08,5.35-14.78,4.83-3.55-.33-7.16-.52-10.29-2.14-2.13-1.09-3.72-3.23-5.55-4.89-.72-.65-1.47-1.26-2.2-1.9-1.51-1.33-3.35-2.45-4.4-4.07-.66-1-.73-3.48,0-4.14,2-1.83,1.85-4.33,2.78-6.46C692.23,556.88,693.6,553.58,695.06,550.12Z"/><path class="cls-1" d="M673.24,570.72c1.17.84,2.48,1.85,3.86,2.74,3.06,2,6.24,3.79,9.18,5.92a4.79,4.79,0,0,1,2,3.35c0,.84-1.61,1.83-2.69,2.39-4.12,2.16-7.77-.3-11.36-1.63a68.29,68.29,0,0,1-9.65-5.06c-2-1.15-3.91-2.54-5.86-3.83l-.77.48a18.71,18.71,0,0,0,.41,3.36c.83,2.83-1.14,6.66-4,7a7,7,0,0,1-3.8-.87c-1.06-.54-1.79-1.68-2.73-2.46-3.16-2.63-2.2-6.33-2.28-9.6-.16-5.75.56-11.54.17-17.26-.2-2.87.16-4.94,2.29-6.7.53-.45,1.33-1.15,1.79-1,2.63.78,3.1-1.57,4.28-2.79,4.77-4.88,9.75-9.17,17.23-8.93,6.64.2,11.7,4.06,14.39,10.19,2.5,5.7,1,10.36-2.27,14.93a49,49,0,0,1-4.78,6.1C677.16,568.5,675.18,569.43,673.24,570.72Zm.21-19.77c0-3-1.39-4.8-3.37-3.86-2.38,1.12-5,2.48-6.51,4.51-1.94,2.65-2.9,6-4.15,9.15-.16.38.52,1.6.8,1.6,2.64,0,5.3-.12,7.4-2.07.91-.85,1.73-1.8,2.66-2.62C672.3,555.86,673.73,553.82,673.45,551Z"/><g id="tcFck9"><path class="cls-1" d="M142,296c-4.71,5.54-9.08,11.8-14.56,16.88-8.52,7.88-14,7.9-24.26,1.85-1.35-.79-2.66-1.65-5-3.11-2.1,8.17-3.84,16.11-6.27,23.83-.84,2.66-3.49,6.82-5.16,6.75C82.55,342,80.21,338.38,81,334c2.29-12.23,4.71-24.43,7.34-36.59.92-4.29,2.59-8.43,4.49-14.41-4.59,4.35-7.64,7.49-11,10.34-7.37,6.37-21.27,2.26-22.12-7.43-.74-8.45,1.26-17.28,3.2-25.67.32-1.4,6.55-1.73,10.06-1.78.57,0,1.84,4.13,1.66,6.26-.5,6.1-1.58,12.15-2.43,18.22l2.35,1c3.89-4.38,7.81-8.73,11.66-13.14C90.56,265.84,94.74,260.9,99,256c.15-.17.27-.43.46-.49q6-2.07,12.09-4.1c1.07,3.41,2.15,6.83,3,9.55,5.13-1,11-3.07,16.82-3.11,5.63,0,13.27-3.48,15.8,5.95,1.63-1.77,2.75-4.1,4.35-4.49,3.07-.76,6.61-1.09,9.51-.17,1,.33,1.36,4.84,1,7.3-1.46,10.16-3.55,20.23-4.87,30.4-.45,3.4.67,7,1.31,12.6,2.29-3.51,4-5.24,4.67-7.3,4.38-13.53,8.72-27.08,12.72-40.73,2.88-9.83,4.83-12,11.74-11.9,4.85.06,6.15,2.1,5.38,6.78-1.44,8.81-3.31,17.7-3.26,26.54,0,6.68,2.81,13.34,4.29,20,.38,1.71,1.08,4.83.66,5-2.07.88-4.87,1.92-6.64,1.14-2.63-1.16-4.67-3.74-6.82-5.84a24.94,24.94,0,0,1-2.5-3.33c-4.32,6.05-7.7,11.54-11.84,16.37-4.64,5.41-9.31,5.13-15.24,1.13C143.51,311.83,142,303.86,142,296Zm-27.17,13.4c14-12,18.33-27.14,19.25-44.44C121.44,269.32,109.23,297.8,114.85,309.39Z"/><path class="cls-1" d="M886,303c-6.32,6.85-8.17,6.52-13.35-1.27-3.92-5.91-8.29-11.53-12.55-17.4-7.46,1-11.15,15.78-22.11,5.19-1.83,3.62-2.84,6.92-4.9,9.3-1.58,1.81-5.6,4.09-6.64,3.38-9.57-6.52-21.79-10.17-26.15-22.72-.72-2.07-1.68-4.06-2.36-5.68-5,4.28-9.38,10.38-15.06,12.11-5.29,1.6-12-1.45-18.51-2.52a11.5,11.5,0,0,1,.48,4.52c-.62,3.15-2,6.16-3,9.22-3.3-2.35-8.72-4.16-9.48-7.16-2.25-8.83-2.73-18.12-3.66-27.25-.11-1.1,1.1-2.48,2-3.5,1.06-1.25,3.33-2.18,3.45-3.4.49-5,4.29-5.37,7.35-4.63a10.78,10.78,0,0,1,6.46,5.31c2.87,6.36,4.85,13.13,7.18,19.73l2.9.35c4.76-8.38,9.56-16.73,14.28-25.13,2.84-5.07,5-10.63,12.61-10,4.37.37,6.68,1.83,6.58,6.5-.14,6.31-.25,12.63.06,18.92a33.5,33.5,0,0,0,10.29,23.28c3.93-8.53,7.65-16.25,11-24.12,2.28-5.31,4-10.85,6.11-16.26,2.14-5.57,5.92-8.46,12.24-8.3,6.07.15,7.87,4.45,9.67,8.79,4.62,11.11,8.89,22.38,13.64,33.44a35.43,35.43,0,0,0,8.34,11.67c-.92-5.44-2.21-10.85-2.67-16.33-.71-8.27-.73-16.6-1.25-24.89-.27-4.19.84-6.26,5.56-6.06,4.5.19,8.19.46,8,6.33a89.61,89.61,0,0,0,.92,16.86,80.22,80.22,0,0,0,22.81-24.36c.69-1.15,1.29-2.36,1.89-3.56,2.16-4.32,6.25-4,9.22-2.35,1.55.85,2.78,5.74,1.79,7.24-6,9.09-12.68,17.71-19.11,26.51-1.33,1.83-2.55,3.74-3.83,5.61,2.21.94,4.34,2.3,6.64,2.7,1.88.33,4-.77,6-.7,2.89.1,5.78.68,10.22,1.26-11.38,12.63-22.42,7.64-34,3.37,6.43,3.81,5.83,9.17,4.4,14.61-.57,2.16-1.33,5.56-2.68,5.92-2.12.58-4.91-.69-7.24-1.62C888.14,305.36,887.13,304,886,303ZM842.07,280.6c14.28-6.26,15.32-8.75,7.61-17.48C847.19,268.84,844.78,274.39,842.07,280.6Z"/><path class="cls-1" d="M399,273.16l-12.88,11.27c3.25,5.54,6.73,10.93,9.61,16.63,1,2,.52,4.69.72,7.07-2.8-.29-6.6.48-8.2-1.05-5-4.84-9.26-10.54-14.63-16.89-3.74,2.45-8.49,5.16-12.76,8.49-3.53,2.76-7.29,3.61-10.16.51-1.45-1.57-1.41-5.72-.47-8.09,4.23-10.74,9.35-21.13,13.48-31.9,2-5.13,6.3-6.25,10-5.94,2.25.19,4.83,4.46,6,7.4,1.49,3.82,1.71,8.13,2.75,13.66l18.78-15.26c7.89-6.41,12.17-5.1,15.74,4.16,4,10.3,6.71,21.47,17.18,27.88,5.86,3.58,7.31,3,11-2.93,5.57-9,3.56-18.76,3.84-28.29.24-8.51,3.9-11.09,12.27-8.33a9.25,9.25,0,0,0,4.49.3c21.21-4.11,42.28-3.31,63.27,1.47.18,0,.3.32.44.49-1.92,3.33-1.91,3.42-12.77,4.77-5.1.63-10.26.8-15.39,1.17-4.54,10.77-6.21,21.71-3.75,33.36.64,3-.51,7.68-2.63,9.67-2.88,2.7-9.25-1.73-10.76-6.7-3.3-10.83-2.76-21.6.27-32.37.23-.83.44-1.67.61-2.52,0-.17-.16-.39-.21-.51H463.67c-.62,6.86-1.08,14.86-2.12,22.78-1,7.48-5.37,13.22-11.45,17.27-7.91,5.26-19.77,2.58-29.82-6.1-1.47-1.27-2.92-2.55-3.46-3-1.4,2.82-2.22,7.36-4.23,8-4.9,1.47-9.15-1.25-11.19-6.14a35.19,35.19,0,0,1-2.36-9C398.64,281.31,399,278.12,399,273.16Z"/><path class="cls-1" d="M362.3,390.6c-1.85,3.5-3.38,7.22-5.59,10.47-6.66,9.78-16,11.47-25.15,3.67-7-6-12.87-13.25-19.07-19.75,0,3.61.1,8.45,0,13.28-.1,3.76,1.58,8.77-4.89,9-4.65.15-10.07-4.87-10-9.8.2-8.95,1-17.87,1.59-26.8,0-.62,0-1.24,0-2.94-10,1.88-19.51,3.77-29.08,5.43-8.39,1.45-8.43,7.83-9.05,15.16l21.75-7,1.81,2.3c-1.51,2.27-2.53,5.26-4.62,6.65-4.81,3.18-9.86,6.47-15.3,8.08-7.09,2.1-7.86,6-5.33,13.17,4.83-3.32,9.23-6.51,13.81-9.43,3.94-2.52,8.7-8.14,12.71-3.21s-2.79,8-6,10.85a103,103,0,0,1-12.52,9.05c-8.76,5.75-21.94-.77-22.85-11.17-1.2-13.52,3.73-26,7.1-38.63.62-2.33,5.09-4.88,8-5.17,15.27-1.5,30.7-1.55,45.89-3.57,14.63-1.94,15.38-2,19.22,12.56,2.72,10.29,7,19.78,17.13,26.15,9-12.69,6.34-27.1,7.67-40.71,9.45-4.19,14.47-.92,13.94,9.12-.42,7.85-.92,15.7-1.39,23.55Z"/><path class="cls-1" d="M219.52,407.87c-9.24,7.21-18.26,13.25-29.6,14.8a10.9,10.9,0,0,0-5.75,2.92c-9.59,9.39-21,14.07-34.23,11.81-5.37-.92-10.74-4.37-15-8-1.84-1.58-.83-6.49-1.22-11.14l10,2.62c1.51,7.78,6.25,11,14.4,8,5.91-2.17,11.1-6.3,18.63-10.74-6.22-4.61-10.62-8.09-15.24-11.24-6.07-4.14-12.74-7.5-18.38-12.12-7.07-5.8-7.74-14.12-1.59-20.64,7.46-7.93,16.07-14.55,28.1-12.19,3.19.63,6.17,2.38,9.62,3.77-2.19,4.67-4,6.36-8.34,5.14-6.38-1.82-15.15,3.4-18.23,10.71-2.74,6.47,2,9.84,6.42,12.88,3.47,2.39,7.28,4.3,10.51,6.18,7.2-8.39,13.58-16.66,20.86-24,4.8-4.85,10.68-9.08,18.37-7.84,2.22.36,4.34,1.38,7.76,2.51-5.47,4.13-10.37,6.84-14,10.75a218.92,218.92,0,0,0-16.48,20.89c-1,1.47-1,5.21.13,6.41,1.58,1.68,4.93,3.12,7,2.61,5.54-1.35,10.72-4.08,16.22-5.69,3.21-.94,6.74-.78,11-1.21,1.62-10.77,4-22.93,5.1-35.21.6-6.48,5.45-5.42,8.7-6a5.41,5.41,0,0,1,6.43,5.93c-.35,5.32-1.26,10.61-2,15.9-1.51,10.58-2.91,21.18-4.75,31.71-.43,2.44-2.44,4.6-3.73,6.89-2.73-1.62-6.47-2.61-8-5C220.46,416.25,220.46,412.11,219.52,407.87Z"/><path class="cls-1" d="M362.07,390.83c5.12-7.77,9.6-16.08,15.52-23.17,8.55-10.23,20.84-9.14,28.83,1.86-2,4.14-4.85,3.92-8.72,2.24-1.77-.77-5.54-.62-6.28.51-4.72,7.19-9.53,14.48-13,22.33-3,6.74,2.28,12.37,9.41,10.48a240.17,240.17,0,0,0,24.55-8.3c1.33-.51,1.92-3.24,2.63-5,2.2-5.57,4.57-11.1,6.36-16.81,2.2-7,7.61-7.34,12.95-6,14.23,3.61,28.31,7.79,42.39,11.94,1.53.45,2.68,2.21,4,3.36-1.68.73-3.39,2.13-5,2.06-6.42-.25-12.82-1-19.14-1.51,1.67,5.27-2.36,6.84-6.73,8.36-5.89,2-11.78,4.15-17.51,6.61-1.43.61-2.24,2.67-3.33,4.06,1.56.92,3.42,2.91,4.63,2.57,6.19-1.72,12.19-4.1,18.3-6.12,3.54-1.17,7.15-2.94,10.72-2.94,4.12,0,5.88,3,2.29,6.18-9.16,8.16-19.68,14.39-32.11,14.85-8.61.33-14.66-5.66-19.14-12.81-6.43,3-12.52,6.1-18.78,8.79-10.21,4.38-24.28.61-29.74-8.94-2.36-4.13-2-9.84-2.85-14.82C362.3,390.6,362.07,390.83,362.07,390.83Zm70-4,20.41-3.75C444.49,381.39,437.62,380.07,432.1,386.83Z"/><path class="cls-1" d="M616.66,265.09c0,9.74-.06,19.27,0,28.8,0,4.23.26,8.49-5.53,8.85-5.62.34-7.51-3.71-8-8.14-1-9.33-1.41-18.72-2.1-28.66-6.83.45-15.46,6.91-20.24-6.27,8.47-1.55,16.58-3.49,24.81-4.41,8.88-1,18-.3,26.78-1.74,6.62-1.09,13.11-3.9,19.27-6.77,19-8.87,29.11,6.71,26.94,21.95-2.19,15.39-10.53,27.42-24.46,34.87-8.6,4.6-20.15,1.95-26.39-5.42-5.37-6.35-2.33-13.33-1.14-19.94.85-4.73,3.06-9.21,4.94-14.57Zm46.18-10.29L660,252.39c-2.54,3.67-4.31,8.54-7.77,10.77-10.32,6.64-11.47,17-12.43,27.38-.48,5.13,3.5,7,7.27,3.46,5.11-4.86,10.43-10,13.75-16.13C664.61,270.89,665.84,262.74,662.84,254.8Z"/><path class="cls-1" d="M802,410.85c-5.63,3.55-11.21,7.19-16.89,10.64-6.33,3.83-12.53,4-18.67-.73-6.76-5.24-10.88-12-8.93-20.4a125.35,125.35,0,0,1,8.29-23.1c2.55-5.63,8.34-7.23,13.39-4.13,1.13.7,1.22,4.39.61,6.35-2.26,7.36-5.49,14.45-7.36,21.9-.84,3.33.69,7.26,1.42,13.14,13.28-9.17,29.82-10.72,34.64-27.73.49-1.74.3-4.47-.77-5.7-3.49-4-1.87-5.58,2.28-7.11,14.63-5.4,29.47-4.55,44.43-2,4.15.7,8.31,1.3,12.47,2l.2,2.82c-3.89,1-7.72,2.47-11.66,2.86-7.57.74-15.23,1.52-22.78,1.08-9-.52-8.48,6-10.44,11.56,9.86-.41,18.7-8.08,30.48-1.3-4.23,2.66-7.05,4.89-10.21,6.34-7.12,3.25-14.5,5.92-21.56,9.28-1.6.76-2.3,3.39-3.41,5.16,2.1.5,4.46,1.87,6.26,1.33,4.69-1.41,9-4.06,13.71-5.44,4.09-1.2,8.5-1.34,12.76-2,.46,1.18.91,2.35,1.36,3.52-5.46,3.75-10.7,7.89-16.44,11.16C819.83,429.08,810.73,426.4,802,410.85Z"/><path class="cls-1" d="M736.52,401.74c5.72,1.94,10.13,3.42,14.52,4.94,6,2.11,7.72,7,3.71,12-7,8.68-17.16,11-27.4,12.17a53.06,53.06,0,0,1-18-1.45c-2.89-.7-7.08-4.22-7.23-6.68-.74-12.06-.34-24.2-.29-36.31a3.3,3.3,0,0,1,.65-1.86c3.94-5.2,7.71-10.56,12-15.5,7.6-8.85,17.74-12.34,29-10.9,12.76,1.63,18.5,15,11.09,26-3.68,5.44-9.3,9.57-14.07,14.26C739.61,399.23,738.62,400,736.52,401.74Zm-18.22-2.93c5.31-4,10.89-7.63,15.82-12a33.28,33.28,0,0,0,8.07-10.42c1.07-2.31.47-6.39-1-8.49-.8-1.14-5.43-.53-7.75.55C721,374.23,719.16,386.06,718.3,398.81ZM717,404.68c-.33,2-1.38,4.84-1.15,7.61s.89,6.71,2.85,8.37c4.08,3.45,21.21-2.5,24.93-9Z"/><path class="cls-1" d="M328.18,291.67c1.95-8.32,4-16.62,5.8-25,.8-3.71,1-7.54,1.58-11.29.79-4.78,4.9-5.06,8.32-5.13,4.05-.08,3.82,3.32,3.85,6.36.13,12-.78,23.63-5.77,34.86-6.2,14-16.51,14-27.26,4.7a27.26,27.26,0,0,1-2.91-3.67c-2.66,3.91-4.77,7.19-7.07,10.34-3,4.12-7,6.87-12.1,4.72-5.78-2.44-12-5.67-12.48-12.75-.71-11.46-.33-23-.23-34.5.06-6.86,5.3-5.45,9.34-5.21,4.61.28,3.58,3.24,3.42,6.74-.53,11-.2,22.12-.2,33.18l3.41.53c1.88-5.19,4.37-10.24,5.47-15.59s3.62-7.38,8.82-8.09c5.56-.76,7,3,8.78,6.54,2.21,4.29,4.18,8.72,6.25,13.09Z"/><path class="cls-1" d="M951.12,269.54c4.86-1.33,9.44-3.08,14.17-3.72,3.42-.47,9.17-.66,10.16,1.11,2.55,4.55-2.6,6.54-5.79,7.9-5.72,2.44-11.94,3.71-17.7,6.08-1.8.74-4.08,3.65-3.86,5.25.6,4.28,4.19,3.47,6.82,2.08,6.71-3.55,13.23-7.45,19.82-11.23.77-.45,1.42-1.4,2.2-1.48,3.69-.42,7.42-.62,11.13-.9-1.7,3.1-2.66,7.17-5.23,9.12a163.12,163.12,0,0,1-22,14.08c-6.81,3.6-13.77,2.75-20.18-2.14-5.74-4.37-8.47-9.94-7.27-16.95,1.35-7.9,3.15-15.73,5.16-23.49.31-1.22,2.62-2.2,4.2-2.79,14-5.19,28.64-4,43.16-3.62a83.55,83.55,0,0,1,11.41.88c1.67.28,3.14,1.78,4.71,2.73-1.39,1.26-2.61,3.28-4.21,3.64a91.5,91.5,0,0,1-13.33,1.82c-8.29.63-16.6,1-24.89,1.51C953.91,259.79,950.62,262.52,951.12,269.54Z"/><path class="cls-1" d="M652.66,414.86c-5-7.26-10-12.95-13.2-19.55-5.16-10.77,1.79-25.32,13.25-28,3.55-.83,8.31.74,11.61,2.71,1.79,1.07,1.68,5.32,2.43,8.13l-9.81,1.94c-8.85,6.78-8.39,15.55,1,22.83,13.16,10.23,12.39,16.4-2.92,23a57.94,57.94,0,0,1-9.49,3.29c-5.91,1.38-10.41-.53-15.91-3.94C608.4,412.09,616,392.4,616.66,374.35c.05-1.52,4.91-4.08,7.44-4,2.12.1,5.41,3.16,5.82,5.36.72,3.81-.72,8-.65,12,.16,8.49.39,17,1.21,25.45.47,4.86,6.58,8.09,11.95,6.46C646.16,418.5,649.58,416.34,652.66,414.86Z"/><path class="cls-1" d="M904.81,404.46c5,2,9,3.32,12.74,5.16,1.37.68,2.15,2.57,3.2,3.9-1.35.94-2.6,2.48-4.06,2.71-9,1.45-17.33-.14-23.8-7.2-3.14-3.44-4.46-7-.78-11.26,5.71-6.56,11.32-13.22,16.51-20.17a53.21,53.21,0,0,0,7-12.77c.88-2.33.58-6.07-.82-8-.93-1.24-5.08-1.07-7.24-.19-4.53,1.86-9.52,3.35-9.92,10.05-.31,5.19-4.91,3.75-7.89,2.93-4.81-1.33-7.51-6.91-4.37-10.6,4-4.72,9.18-9.23,14.79-11.6,5.06-2.14,11.46-2.07,17.14-1.55,13.06,1.18,18.53,15.73,10.45,28.65-5.08,8.1-11.55,15.33-17.41,22.94C908.77,399.58,907.1,401.6,904.81,404.46Z"/><path class="cls-1" d="M553.06,375.89c12.61-1.41,14.44.18,14.91,12.19.33,8.29,2.77,15.64,9.58,22.2,9.25-12.53,13.69-25.88,13.55-41.09a55.87,55.87,0,0,1,6.39-1.73c4.29-.65,6.91.94,7.11,5.68.7,16.64-4.86,31.26-14.75,44.27-4.4,5.8-13.75,5.63-20.76.6-10.44-7.48-15-18-16-30.39C552.81,383.86,553.06,380.07,553.06,375.89Z"/><path class="cls-1" d="M680.1,374.41c3.29,3.8,7.42,6.34,7.63,9.18.86,11.53.55,23.15.6,34.73,0,3.37,1.65,8.57-3.42,8.5-3.34-.05-8.44-3.18-9.59-6.15-4.88-12.56-4.29-25.88-2.46-39C673.17,379.49,676.64,377.75,680.1,374.41Z"/><path class="cls-1" d="M920.1,421.5c2.6,3.5,4.9,5.9,6.08,8.77.26.6-4.34,4.56-5.34,4.09-3.1-1.45-5.53-4.3-8.22-6.61Z"/></g></g><g id="Ebene_1" data-name="Ebene 1"><path d="M404.89,571.69c.24,2.65.24,2.65-2.45,6.31a19.15,19.15,0,0,1-3.72-.36,15.39,15.39,0,0,1-10.24-9,16.41,16.41,0,0,1-.81-3.21c-.41-2-.77-4-1.26-6.49-1.23,1.54-2.23,2.8-3.24,4.05a2.42,2.42,0,0,1-.49.52c-1.83,1.25-3.7,2.44-5.51,3.72-2,1.4-3.82,3-5.88,4.3-5.16,3.16-10.87,5.39-16.86,4.81-3.67-.35-7.78-1.45-10.08-5.35-1.26-2.14-2.91-2.33-5.07-1.2-4.37,2.27-8.58,5-13.16,6.66a84.09,84.09,0,0,1-14.84,3.6,24.46,24.46,0,0,1-13.35-1.89c-5.57-2.28-10.52-5.42-13.34-11-1.5-3-1.56-6.27-1.2-9.55.77-7.2,4.16-13.18,8.18-19.07,2.32-3.4,5.69-5.48,8.18-8.41s6.24-4.22,9.17-6.56c1.37-1.1,3.71-1.21,5.64-1.35,3.92-.27,7.95-.7,11.63,1a4,4,0,0,1,1.87,3.21,17.56,17.56,0,0,1-2.32,5.53,2.24,2.24,0,0,1-2.09.65c-4-2.24-7.47-.3-10.32,1.9a48.54,48.54,0,0,0-16.47,22.69c-1.85,5.31.92,9.31,6.47,11s10.95.82,16.28-1.34c2.85-1.15,5.94-1.68,8.82-2.76a33.51,33.51,0,0,0,4.74-2.72c1.82-1.05,3.69-2,5.45-3.14a2.76,2.76,0,0,0,1.14-1.75c.58-5.05.95-10.13,1.58-15.17.31-2.4,1.09-4.73,1.57-7.11.63-3.14,1.13-6.3,1.75-9.44.46-2.29,5.32-4.06,7.73-2.81,6.36,3.28,5.38,2.29,4.35,9.62-.64,4.58-2.07,9-2.82,13.61a74.67,74.67,0,0,0-.57,9.36q-.12,3.63,0,7.28c.08,2.54,1,3,3.43,2.6,4-.57,7.25-2.81,10.83-4.35s6.26-4,9.48-5.86c2.42-1.38,4.87-2.72,7.36-4,.47-.24,1.17,0,1.95,0,.24-2.28.6-4.69.73-7.11.24-4.56.62-9.13.42-13.67a6,6,0,0,1,8.21-5.66c3.68,1.23,4.84,3.42,4.5,7.32-.24,2.72.06,5.49-.1,8.23-.26,4.52-.94,9-1,13.54-.06,4.76-.53,9.63,2.3,14,1.09,1.7,1.19,4.06,3.5,4.91Z"/><path d="M405,571.77c-.69-1.88-1.77-3.72-2-5.65a15.47,15.47,0,0,1,.64-6.67,80.42,80.42,0,0,1,4.77-10.12c1.82-3.41,3.45-7.06,6-9.91,2.78-3.17,5.64-6.61,10.14-7.77.94-.24,1.7-1.1,2.62-1.48a12.41,12.41,0,0,1,13.29,2.92c1.69,1.85,1.31,3.32.28,5.56-1.2,2.62-3.52,2.5-5.51,3.34-.51.22-1,.5-1.71.87-.3-1.15-.58-2.21-.89-3.38-9.12,6.87-14.19,15.89-16.95,26.69,3.62,1.17,6.44.14,9.26-.91,2.32-.86,4.7-1.61,7-2.63a37.43,37.43,0,0,0,5.49-3.08c2.75-1.86,5.79-1.77,8.76-1.58a55.14,55.14,0,0,1,0-5.61c.41-3.92,1.06-7.82,1.51-11.73.24-2,0-4.13.48-6,.85-3.16.07-6.9,3.23-9.32,1.67-1.27,3.27-1.72,5.23-.69,1.41.74,3.15.44,4.1,2.5a8.32,8.32,0,0,1,1,5.52c-1.06,5.74-1.73,11.54-2.54,17.32a11.72,11.72,0,0,0,.07,1.68c3.44-1,6-3.25,8.46-5.47,5.6-5,11-10.28,16.63-15.31a38.67,38.67,0,0,1,5.34-3.38,18.34,18.34,0,0,0,3.52,1.75c2.71.72,2.76,2.94,3.14,5a2,2,0,0,1-.38,1.54c-3.05,3.37-5.95,6.91-9.29,10-4.38,4-9.13,7.53-13.68,11.32a18.46,18.46,0,0,0-2,2.53c3.32,1.58,6.52,3.12,9.74,4.62a42.88,42.88,0,0,0,5.1,2.17c1.42.44,3,.44,4.43.74a28.45,28.45,0,0,1,3.85,1.05,1.59,1.59,0,0,1,.77,1.08c.51,2.78-1.85,5-3.89,4.38-1.13.87-1.91,2-2.75,2a29.44,29.44,0,0,1-6.62-.51,26.65,26.65,0,0,1-6.36-1.82c-4.47-2-8.82-4.31-13.2-6.53a5.65,5.65,0,0,1-1.22-1.13c-1.12.88-1.12.88,0,4.13,6.38.9,6.38.9,7.31,5.44-1.31,1.5-2.55,3.1-4,4.49a4.86,4.86,0,0,1-2.63,1.32c-2.6.3-4.69-.86-6.94-2.23-5.34-3.25-7-8.2-7.55-13.89,0-.19-.31-.35-.47-.52-2.27,2-4.42,4.14-6.84,5.9-2.18,1.58-4.8,2.55-7,4.1-3.94,2.75-8.59,3.24-13,4.43a4.31,4.31,0,0,1-1.5-.12,18.62,18.62,0,0,1-4.47-.63,27.72,27.72,0,0,1-5.65-3.09,22.7,22.7,0,0,1-3.11-3.23Z"/><path d="M630.92,533.52c0,.65-.36,1.45-.1,2,.9,1.71.53,3-1.29,3.51-4,1.18-8.1,1.21-12.21,1.5-3.57.25-7.08,1.45-10.57,2.37-1.82.48-3.5,1.53-5.33,1.89-2.26.45-2.76,2-3.12,3.82-.28,1.38-.51,2.76-.8,4.29a2.5,2.5,0,0,0,1,.08c4.56-1.4,9.22-2.57,13.64-4.33,3.69-1.47,7.1-.67,10.62.09,1.14.25,1.85,3.08,1.12,4.14s-1.22,2-1.92,2.93a4.86,4.86,0,0,1-1.41,1.08c-.85.51-1.75.93-2.6,1.44-.4.24-.67.76-1.09.91-5.18,1.84-10.35,3.68-15.56,5.42-2.62.87-4.82,3.94-3.91,5.9.28.6,1.3,1.37,1.8,1.26a38.53,38.53,0,0,0,5.05-1.72,62,62,0,0,0,6.73-2.6,114.26,114.26,0,0,0,11.89-6.68c2.11-1.41,3.11,1,4.73.6a14.65,14.65,0,0,1,.69,3.13c0,3.5-2.79,5.4-4.72,7.78a.59.59,0,0,1-.44.16c-2.57-.25-3.12,2.38-4.82,3.36-2.27,1.31-4.5,2.71-6.82,3.92s-4.75,2.34-7.18,3.37a11.78,11.78,0,0,1-10-.61c-7.67-3.8-10.68-10.55-11-18.81-.18-4.43.9-8.56,2.21-12.76a128.51,128.51,0,0,0,3.08-13.52c.55-2.75,2.91-5.58,6.28-4.59s6.6-.23,9.77-.92c3.81-.81,7.63-2.17,11.48-1.88s7.79,1.62,11.67,2.53C628.82,532.78,629.83,533.18,630.92,533.52Z"/><path d="M550.9,572.62c1,3.11,1.91,5.94,2.94,8.71a7.24,7.24,0,0,0,1.64,2.17c1.47,1.59,1.71,5.19.33,6.85a2.58,2.58,0,0,1-1.34.66,8.46,8.46,0,0,1-1.42.24l-2.61-.3c-.36,0-.78,0-1.05-.11a37.63,37.63,0,0,1-4-2.49,4.17,4.17,0,0,1-1-1.41c-1.05-1-1.89-1.44-2.19-2.12a49.92,49.92,0,0,1-4.43-17.28c-.34-6.62-1.19-13.22-1.88-19.82-.21-2-.72-4-.94-6.07-.59-5.71,3.36-7.51,7.9-6.93,2.45.31,4.53,3.36,4.69,5.86.21,3.48.64,6.95.95,10.42.21,2.4.35,4.79.54,7.37l6.17-2.68c1.07-.46,2.13-1,3.23-1.33,3.84-1.26,4-1.54,3.5-5.41-.54-4.48-1-9-1.34-13.46-.21-2.68.91-4.26,4.19-5.18a6.17,6.17,0,0,1,4.77.73c2.41,1.85,3.43,4.66,3.6,7.8.2,3.88.66,7.75,1,11.55,3,.25,6.17.07,7.39,3.27l-1.79,3.19c-.88.07-2.76-.31-2,2.24.09.31-1.54,1.11-2.71,1.92,1.51,6.39,3.16,12.91,4.53,19.49a12.73,12.73,0,0,1-.35,5.58c-.2.74-1.61,1.41-2.58,1.65s-2.32.45-2.58-1.29a1.7,1.7,0,0,0-1.11-1c-3.45-.73-4.57-2.14-5.17-5.54-.4-2.26-1.53-4.39-2.1-6.63a49.74,49.74,0,0,1-1.38-7.62c-.12-1.43-.28-1.9-1.59-1.08-2.57,1.61-5.15,3.21-7.66,4.9C553.62,570.42,552.3,571.54,550.9,572.62Z"/><path d="M687.06,543.12c-2.88-.48-3.94-3-5-5.11-.37-.72.26-2.49,1-3.16,3.8-3.42,8.28-5.78,13.43-5.91a164.49,164.49,0,0,1,18,.59,49.72,49.72,0,0,1,9.74,2.29,64.19,64.19,0,0,1,7.51,2.94,2.15,2.15,0,0,1,.82,1.72c0,.68-.38,1.74-.87,1.93a29.41,29.41,0,0,1-6.92,2.18,86.24,86.24,0,0,1-9.92.31c-4.63,0-9.25,0-13.41,0l-4.72,12.15c2.45-.8,5-1.74,7.6-2.47a34.77,34.77,0,0,1,6.42-1.35c1-.09,2.1.75,3,1.5,1.55-.27,3.08-.41,3.77,1.62.57,1.67,1.26,3.07-.7,4.79-3.67,3.24-8.24,4.24-12.53,6-.69.28-1.43.45-2.14.67l.15.81a47.19,47.19,0,0,0,4.87-1,41,41,0,0,0,7.49-3.2c2.78-1.52,7.05,2,6.77,5.22a3.38,3.38,0,0,1-.74,1.41c-.86,1.27-1.74,2.51-2.62,3.75-.27.39-.47.94-.84,1.11-4.71,2.24-9.08,5.35-14.78,4.83-3.55-.33-7.16-.52-10.3-2.14-2.12-1.1-3.71-3.23-5.55-4.89-.71-.65-1.47-1.26-2.19-1.9-1.51-1.33-3.35-2.45-4.4-4.07-.66-1-.73-3.48,0-4.14,2-1.83,1.85-4.33,2.78-6.46C684.23,549.88,685.6,546.58,687.06,543.12Z"/><path d="M665.24,563.72c1.17.84,2.48,1.85,3.86,2.74,3.06,2,6.24,3.79,9.18,5.92a4.77,4.77,0,0,1,2,3.35c0,.84-1.61,1.83-2.69,2.39-4.12,2.16-7.77-.3-11.36-1.63a68.29,68.29,0,0,1-9.65-5.06c-2-1.15-3.91-2.54-5.86-3.83l-.77.48a18.71,18.71,0,0,0,.41,3.36c.83,2.83-1.15,6.65-4,7a7,7,0,0,1-3.8-.87c-1.06-.54-1.79-1.68-2.73-2.46-3.16-2.63-2.2-6.33-2.28-9.6-.16-5.75.56-11.54.17-17.26-.2-2.87.16-4.94,2.29-6.71.53-.44,1.33-1.15,1.79-1,2.63.78,3.09-1.57,4.28-2.79,4.77-4.88,9.75-9.17,17.23-8.93,6.64.2,11.7,4.06,14.39,10.19,2.5,5.7,1,10.36-2.28,14.93a48,48,0,0,1-4.77,6.1C669.16,561.5,667.18,562.43,665.24,563.72Zm.21-19.77c0-3-1.39-4.8-3.37-3.86-2.38,1.12-5,2.48-6.51,4.51-1.94,2.65-2.9,6-4.15,9.14-.16.39.52,1.61.8,1.61,2.64,0,5.3-.12,7.4-2.07.91-.85,1.73-1.8,2.66-2.62C664.3,548.86,665.73,546.82,665.45,544Z"/><path d="M368.25,779a3.38,3.38,0,0,1-3,.26.26.26,0,0,0-.17,0c-3.36,1.09-6.86.61-10.29.94-2.19.21-4.36.77-6.55.94s-4.39.05-6.58,0c-.62,0-2.17-1.91-2.25-2.54s-.22-1.14-.26-1.72a1.23,1.23,0,0,1,1.12-1.4c.61-.1.78-.42.81-1,0-1,.13-2,.25-3s.3-1.76.47-2.74c-1.09.18-2.24-.26-3.5-.2s-2.79.37-4-.76c-.32-.3-.91-.31-1.38-.46a2.41,2.41,0,0,1-1.28-3.38,4.36,4.36,0,0,0,.63-2.88,28.88,28.88,0,0,1-.29-5c.11-1.93.54-3.83.82-5.75.1-.7.15-1.41.25-2.12.15-1.08.3-2.17.51-3.25.28-1.44.68-2.85.9-4.3a26.7,26.7,0,0,0,.06-2.69c.07-1.34.16-2.68.29-4,.21-2.24.49-4.46.69-6.7.11-1.3,0-2.61.17-3.9.19-2,.46-3.93.72-5.89.37-2.68.71-5.37,1.17-8a18.54,18.54,0,0,1,1-2.91c0-.1.1-.2.08-.3-.53-3.07.53-6,1-8.92.26-1.7.28-3.44.52-5.14.21-1.42.6-2.81.88-4.22.13-.67.17-1.35.28-2,.45-2.77.93-5.54,1.35-8.32.23-1.55.31-3.11.53-4.66.17-1.27.49-2.53.65-3.8.21-1.73.29-3.47.48-5.2s.57-3.43.62-5.16c.08-2.77-.07-5.55-.05-8.32a14.21,14.21,0,0,1,.47-2,16.16,16.16,0,0,0,.08-1.81c1.8-.13,3.64-.3,5.49-.41s3.83-.22,5.75-.3c.94,0,1.89,0,2.83,0h7.25c1.89,0,3.79.07,5.69,0,1.53,0,3.08-.26,4.6-.14s3.09-.1,4.64-.12c2.3,0,4.59-.15,6.89-.16,1.1,0,2.2.21,3.31.25a14.69,14.69,0,0,0,1.56-.23c1.94-.16,3.88-.34,5.83-.44,2.21-.11,4.42-.11,6.63-.19,2.36-.09,4.73-.39,7.07-.27a39.27,39.27,0,0,0,5-.22c1.75-.13,3.51,0,5.27,0,1.34,0,2.68-.2,4-.27s2.47-.09,3.7-.11c1.63,0,3.26-.06,4.89,0,1.25,0,2.5,0,3.76-.06,2.61-.19,5.24-.31,7.86-.38,1.1,0,2.19.25,3.29.24,1.42,0,2.84-.19,4.27-.25,1.72-.06,3.45-.06,5.18-.09s3.52,0,5.28-.1a11.78,11.78,0,0,1,3.83.29c.32.09.73-.2,1.1-.21s1,.06,1.49.07c.67,0,1.34,0,2,0,1.94,0,3.88.07,5.81,0,.9,0,1.8-.18,2.7-.23a17.35,17.35,0,0,1,4.6-.08c1.31.3,2.43-.32,3.64-.13.49.08,1.17-.34,1.27.57.6-.1,1.17-.95,1.81,0a.85.85,0,0,0,.79.05c.74-.86,1.79-.05,2.58-.54.14-.09.41,0,.7,0l.05.71a4.79,4.79,0,0,1,1.63-.74c1.49-.06,3,.11,4.48.12,1.82,0,3.64,0,5.46,0,2.24,0,4.47,0,6.71.05a3.37,3.37,0,0,1,.87.31c.33.1.72.31,1,.21,2.05-.69,4.17-.34,6.26-.44,1.25-.06,2.5,0,3.75,0a3,3,0,0,1,.94,0c1.64.59,3.28.08,4.93.06a21.26,21.26,0,0,1,3.48,0,38.14,38.14,0,0,0,4.9,0c1.63,0,3.27,0,4.9.05s3.22.06,4.82.16a4.18,4.18,0,0,1,1.21.51c.78-.06,1.71-.17,2.63-.19,1.66,0,3.32-.06,5,0,1.46,0,2.92.16,4.38.25,1,.06,1.95.15,2.93.19,1.31.06,2.61.11,3.92.12,2.4,0,4.79,0,7.19,0,1.24,0,2.49.21,3.73.29s2.69.05,4,.19,2.83.44,4.25.63c.27,0,.56-.21.85-.21a21.76,21.76,0,0,1,4.57.1c3.07.66,6.2.18,9.27.66,2.14.34,4.31.54,6.47.8.71.08,1.43.09,2.14.2a1.78,1.78,0,0,1,1.05.38c.94,1.11,2.26.9,3.44,1,1.6.17,3.22.15,4.83.23s3.32.1,5,.26c3.09.29,6.17.74,9.27,1,1.92.15,3.86,0,5.79,0s4-.13,6,0a3.93,3.93,0,0,1,2.71,1.71c.14.17-.14.64-.09,1a47.77,47.77,0,0,0,.91,4.77c.12.45.57.86,1.48.79a17.46,17.46,0,0,1,5.38.53,13.78,13.78,0,0,1,3.93,2,2.28,2.28,0,0,1,.63,1.75c-.05,1.22-.41,2.44-.48,3.66-.09,1.65,0,3.31-.07,5-.29,4.16,1,8.14,1.37,12.23a10.56,10.56,0,0,0,.43,1.39,3.94,3.94,0,0,1,.14,1.23c-.1,1.51-.33,3-.36,4.52a49.56,49.56,0,0,0,.2,5,13.69,13.69,0,0,0,.63,2.2,3.26,3.26,0,0,1,.27,1.51c-1,3.22-.16,6.51-.43,9.76,0,.69-.33,1.37-.34,2.06,0,1.88.08,3.77.1,5.65,0,.41-.27.82-.24,1.22.17,2.31.46,4.63.57,7a27.69,27.69,0,0,1-.27,3.62c-.19,2.25-.23,4.53-.62,6.75-.65,3.63-.2,7.26-.36,10.88a82.72,82.72,0,0,1-1,9.41c-.39,2.58-1.35,5.08-1.59,7.67a74.82,74.82,0,0,0,.06,8.6,29.81,29.81,0,0,0,.28,3.54c.15,1.06.6,2.08.65,3.13a4.49,4.49,0,0,1-.62,2.35,1.89,1.89,0,0,1-1.93.77c-1.07-.13-2.16-.08-3.24-.12l-1.52,0a6.3,6.3,0,0,1-3.85.29,28.58,28.58,0,0,0-7.44-.67,14.33,14.33,0,0,1-1.75-.36c-1.34-.11-2.69-.13-4-.19l-1,0c-2.1-.19-4.21-.39-6.32-.54a4.53,4.53,0,0,0-1.18.25c-1.5.3-3,.81-4.5.07-2.16-1.09-4.45-.69-6.7-.81-1.27-.06-2.53-.28-3.8-.37-.41,0-.84.19-1.26.16-2.63-.14-5.26-.28-7.89-.49-1.34-.11-2.68-.47-4-.51s-2.48.22-3.72.28a6,6,0,0,1-2.63-.15c-1.34-.6-2.5.38-3.74.12-.13,0-.28.07-.41.07-2.84-.1-5.68-.19-8.51-.33-.38,0-.75-.26-1.11-.25-.73,0-1.47.09-2.2.09a21.85,21.85,0,0,1-4.21-.11,9.23,9.23,0,0,0-3.89.17,12.94,12.94,0,0,1-4-.12c-1.83-.16-3.67-.05-5.51,0-.52,0-1,0-1.57,0-1.91-.08-3.83-.15-5.74-.29-2.27-.17-4.54-.46-6.81-.57-1.6-.08-3.2.06-4.8.07-.34,0-.68-.15-1-.17-1.35-.06-2.7-.1-4-.14-2.62-.09-5.3-.52-7.87-.17-2.9.39-5.75,0-8.62.15-2.29.12-4.6-.28-6.9-.29-3,0-6,.14-9,.18-.47,0-.94-.26-1.41-.26-1.65,0-3.3.1-4.94.06-2.38,0-4.77-.24-7.15-.26-1.86,0-3.73.18-5.59.2-2.46,0-4.92-.09-7.38-.05-1.85,0-3.71.21-5.56.25-1,0-2.06-.12-3.09-.16-.41,0-.83.08-1.24.08-2.6,0-5.2.06-7.8-.06-1.85-.08-3.69-.53-5.54-.6-.54,0-1.29-.41-1.87.3-.18.21-.88,0-1.34,0a13,13,0,0,1-1.39-.1,41.8,41.8,0,0,0-7.25,0c-1.67.05-3.35-.28-5-.38-.48,0-1,.27-1.44.27-2.48,0-4.95,0-7.43,0s-4.73.17-7.09.25c-1.78.06-3.57.07-5.35.15s-3.41.23-5.12.29c-1.86.06-3.73,0-5.59.06a2,2,0,0,0-.41.07c-1.28.19-2.57.46-3.86.56-1.11.09-2.23,0-3.35,0s-2.52,0-3.78.1-2.45.38-3.68.4c-1.5,0-3-.23-4.49-.23a8.14,8.14,0,0,0-1.95.47,3.06,3.06,0,0,1-.79.1c-1-.06-1.92-.17-2.88-.22-.12,0-.25.24-.4.33a.91.91,0,0,1-.51.15,9,9,0,0,0-1.58.14,8.47,8.47,0,0,1-1.34.07c-1.84,0-3.68,0-5.52,0-.44,0-.88.17-1.33.2a11.86,11.86,0,0,1-1.19,0c-.37,0-.73,0-1.1.06l-1.35.18Zm139-130.75a7.49,7.49,0,0,1-1.19.24c-.77,0-1.54,0-2.32,0s-1.81.28-2.36-.1c-1-.67-1.76.13-2.6-.06a1.31,1.31,0,0,0-.28,0,14.65,14.65,0,0,0-1.46-.13c-2.18.05-4.36.14-6.54.19-1.3,0-2.6,0-3.9,0s-2.6.11-3.89.07c-1.55-.05-3.1-.28-4.65-.27-2.16,0-4.33.17-6.5.2-1.74,0-3.47,0-5.21-.09-.33,0-.66-.15-1-.14-2.57.14-5.14.34-7.72.44-2.08.08-4.17.07-6.26.09-1.83,0-3.67,0-5.51,0a31,31,0,0,0-5.11.08c-2.38.42-4.74.18-7.11.34-1.68.11-3.39,0-5.08,0-2.87.1-5.73.27-8.6.39-2.12.08-4.25.13-6.37.19l-4.44.14c-.9,0-1.82,0-2.72,0-1.7.11-3.39.36-5.08.41s-3.25-.12-4.87-.08c-3.14.08-6.27.26-9.41.37-1.05,0-2.11,0-3.16,0-1.91.07-3.82.22-5.73.3-2.37.1-4.74.2-7.11.21-1.7,0-3.4-.14-5.1-.2-1,0-2.11-.09-3.16,0s-2.26.27-3.39.3c-2.73.08-5.47.12-8.2.11-.75,0-1,.27-1,1a46.53,46.53,0,0,1,0,4.87c-.33,3.86-.79,7.7-1.2,11.55-.06.57-.08,1.15-.17,1.71-.27,1.74-.58,3.47-.86,5.2s-.59,3.63-.91,5.44c-.17.93-.48,1.84-.6,2.77-.26,2.16-.4,4.34-.67,6.5s-.63,4-.93,6.07c-.23,1.59-.39,3.19-.65,4.78-.53,3.14-1.14,6.27-1.65,9.42-.21,1.3-.22,2.63-.39,3.94-.35,2.73-.74,5.44-1.12,8.16a34.43,34.43,0,0,0-.48,3.47c-.08,2.49,0,5-.08,7.47-.05,1.18-.5,2.33-.62,3.51a9.73,9.73,0,0,0,0,3.32,6.85,6.85,0,0,1,0,3.73,23.25,23.25,0,0,0-.81,3.68c-.26,2.1-.24,4.25-.64,6.31-.21,1.06,0,2.53-1.47,3l.28,6a3.09,3.09,0,0,0,.84.4,44.77,44.77,0,0,0,4.6.37c2.62,0,5.23-.22,7.84-.31,2-.07,4-.07,6-.13,2.21-.07,4.42-.18,6.63-.27,1.7-.06,3.41-.1,5.12-.2,1.45-.08,2.9-.22,4.35-.32s2.67-.18,4-.21c2,0,3.94,0,5.9-.08s3.78-.46,5.68-.61c1.05-.09,2.12.08,3.17,0,2.57-.13,5.14-.32,7.71-.48s5.41-.26,8.1-.49c1.88-.15,3.74-.49,5.61-.73a18.79,18.79,0,0,1,2.7-.22c2.05.06,4.11.33,6.15.27,3.31-.1,6.61-.4,9.91-.58,1.16-.06,2.32,0,3.48-.07,1.73-.11,3.45-.35,5.18-.45s3.63-.07,5.45-.15c1.29-.06,2.57-.24,3.86-.33,1.91-.13,3.83-.23,5.74-.34,1.56-.09,3.12-.2,4.68-.23s2.89,0,4.33,0c1.63.06,3.27-.68,4.89.11.09,0,.25-.05.37-.09a5.22,5.22,0,0,1,1.29-.37c1.42,0,2.85.11,4.27.07,1.78-.05,3.55-.25,5.33-.3s3.73.05,5.59,0c2.71,0,5.42-.13,8.13-.15,1.79,0,3.59.07,5.38.06,1,0,2.09-.14,3.13-.13,2,0,4,.07,6.06.09,1.55,0,3.1,0,4.65,0,3.05.05,6.1.17,9.16.22,2.91,0,5.82,0,8.72.05.25,0,.51-.12.73-.06.92.25,2.07-.77,2.62.22.92-.1,1.7-.26,2.48-.27,2.32-.05,4.64,0,7-.06l8.93-.06c1,0,2,0,3,0a34.83,34.83,0,0,1,3.68-.05c1.3.14,2.56-.58,3.9,0,.55.24,1.34-.07,2-.07,1.47,0,2.94,0,4.4.12,1.22.06,2.43.16,3.64.28s2.14.37,3.21.4c1.85.05,3.7,0,5.55-.06.72,0,1.44,0,2.14,0,1.94-.17,3.88-.49,5.82-.54s3.88.2,5.82.26c1.38,0,2.75,0,4.13,0s2.54,0,3.81.13a23.93,23.93,0,0,0,2.5.37c1.69,0,3.39-.38,5.08-.34,3,.08,5.91.31,8.86.55a24,24,0,0,1,2.84.62c.09,0,.2-.05.3-.05A11.42,11.42,0,0,1,626,759c1.78.28,3.52.78,5.3,1a31.53,31.53,0,0,0,3.89,0,10.64,10.64,0,0,1,2.83.09,1.59,1.59,0,0,0,1.38-.11,3.32,3.32,0,0,1,3.41.17,11.08,11.08,0,0,0,1.94.84c.07-.82.08-1.35.17-1.86.35-1.94.84-3.87,1-5.82q.71-6.69,1.18-13.41c.28-3.87.45-7.75.6-11.63.12-3.09.15-6.18.18-9.27,0-.94-.17-1.87-.16-2.81,0-1.73.19-3.46.2-5.19,0-2.92,0-5.84-.06-8.76,0-1.51.06-3,.08-4.52,0-3.34.08-6.68.13-10,0-2.29.16-4.57.18-6.85s-.13-4.49,0-6.73.47-4.32.59-6.49.07-4.12,0-6.17a1.06,1.06,0,0,0-.66-.74c-1.17-.24-2.37-.37-3.55-.55a12.58,12.58,0,0,0-1.57-.27c-2.49-.06-5,.11-7.47-.14-3.57-.36-7.11-1-10.65-1.55a29.74,29.74,0,0,1-4.77-1.1c-.69-.23-1.2-1-1.78-1.52.33-.35.67-.7,1-1.06a.61.61,0,0,0,.09-.2c-.59-.34-1.14-.93-1.69-.92a55,55,0,0,1-6.42-.2c-1.57-.15-3-.35-3.81-1.64l-23.32-1.45-.12-.72c-.19,1-.85.64-1.4.63s-1,.1-1.56,0c-.75-.08-1.64.19-2-.62-.39.18-.77.51-1.14.49-1.34-.07-2.66-.34-4-.39-2.81-.11-5.62-.08-8.43-.19-1.65-.06-3.29-.35-4.94-.39-2.4-.07-4.8,0-7.2,0a3.37,3.37,0,0,1-.91-.23,4.53,4.53,0,0,1-1.21.26c-2.34-.11-4.68-.31-7-.37s-4.46,0-6.69,0c-.41,0-.83.1-1.24.08-1.89-.08-3.78-.24-5.67-.25-1.6,0-3.21.19-4.82.19-2.32,0-4.64-.14-7-.15-3,0-6.07.05-9.11,0A19.9,19.9,0,0,1,507.29,648.2Zm33.76,120.22.1.22a4.77,4.77,0,0,0,.75-.16c1-.37,1.94-.83,3-1.12a24.67,24.67,0,0,0,4.19-1c.67-.32,1.48-.34,2.17-.64a16.29,16.29,0,0,1,4.62-1.3c1.39-.16,2.52-1.38,4-1.16a1.48,1.48,0,0,0,.72-.08c3-1.22,5.24-.39,6.45,2.4l7.77-2.46c-.31-.17-.45-.31-.6-.32-2-.19-4-.44-6-.51s-3.89,0-5.83.08c-1.58,0-3.15.14-4.72.12s-3.08-.25-4.63-.26c-2.54,0-5.09.11-7.64.16-1,0-2.07,0-3.25,0a5.31,5.31,0,0,0,.78.79c.25.17.65.15.84.35a2.18,2.18,0,0,1-.59,3.42C542.45,767.4,541.76,767.93,541.05,768.42Zm105.4-1.94c-1-.14-2.24-.34-3.48-.47-.52-.06-1.22-.2-1.54.06-1.44,1.18-2.76,2.51-4.15,3.75s-2.74,2.34-4.1,3.53a1.83,1.83,0,0,0-.32.57l3.36-.59c0-.16-.17-1,.74-.41.08.05.27,0,.38-.11.66-.39,1.32-.78,1.95-1.21q1.89-1.3,3.77-2.66C644.26,768.08,645.46,767.2,646.45,766.48Zm-47.67-3.59a3.08,3.08,0,0,0-.63-.18c-2,0-4-.16-5.95,0-.68,0-1.45-.17-2.18.54-1.86,1.78-3.92,3.36-5.91,5a.92.92,0,0,1-.55.22c-.7,0-.7,0-.71.81a1,1,0,0,0,.3,0c1.1-.52,2.14-1.2,3.45-.92.1,0,.23-.2.36-.27a19.56,19.56,0,0,1,2.21-1.18c.92-.38,1.92-.55,2.84-.94,1.92-.81,3.8-1.7,5.7-2.56Zm60.61-9.19a10.07,10.07,0,0,0-1.52,1.47c-.67,1-1.18,2.06-1.78,3.09s-.64,1.37.4,2a1.91,1.91,0,0,1,.79,2.16,12.48,12.48,0,0,1-1.56,3.93c-.63,1.31-1.32,2.51-3,2.74-.27,0-.49.44-.87.81l5.65-1.56C657.08,763.44,658.38,758.56,659.39,753.7ZM474.77,771.56v.13l12.51-.12a5,5,0,0,1-.49-3.53Zm62.35-9-11.76-.15a3.42,3.42,0,0,1-2.18,3.76Zm24.61,10.28V773l2.19,0c1.2,0,2.4-.08,3.6-.15.15,0,.29-.17.44-.27,1.44-.95,2.87-1.92,4.33-2.85,1.07-.68,2.18-1.32,3.52-2.12Zm-167.29.07-.37-2.66-10.54,3.13Zm222.06-9.41c-.73-.07-1.36-.11-2-.18-1.46-.17-3-.57-4.07.88-.07.1-.26.1-.38.18l-5,3.34c.43.08.54.14.61.11,2.07-.8,4.14-1.6,6.19-2.42C613.38,764.8,614.85,764.16,616.5,763.48Zm-158.57,2.38a.64.64,0,0,0,.37,0c.4-.09.78-.27,1.18-.36a15.83,15.83,0,0,0,4.15-1.16,1.85,1.85,0,0,1,.84-.32c1.21.06,2-.82,3.08-1.16a37.05,37.05,0,0,0-4.07-.08c-1.28.05-2.56.18-3.5.25Zm55.12-3.46c-3.29-.63-7.86.72-8.79,2.58C507,763.6,510.19,764.17,513.05,762.4Zm141.52-92.71.32.11c.56-1.69,1.08-3.39,1.69-5.06.35-.94.08-1.45-.88-1.64-.1,0-.21,0-.47,0C654.51,665.21,654.93,667.49,654.57,669.69Zm6.36,60.89-3.86,5.22.22.12,3.3-1.43ZM416.58,770.17l-.08-.36c-.38.08-.77.14-1.14.24-.57.13-1.16.49-1.69.4-1.57-.24-2.74,1-4.2,1.06-.19,0-.36.38-.65.71l3.07-.16a3.59,3.59,0,0,0,1.2-.16c.7-.31,1.33-.74,2-1.09C415.57,770.57,416.08,770.38,416.58,770.17Zm188.28,3.09c1.61.14,2.93.27,4.26.36.2,0,.55,0,.6-.16.34-.84.62-1.71.84-2.34ZM457.12,771l6,.53-.59-2Zm194.5-20.19c.4,1.74-1,3.12-.27,5,.87-1.36,1.63-2.55,2.35-3.66Zm-215.28,15c2.42.48,4.24-1.49,6.51-1.82C440.58,764.21,438,763.32,436.34,765.75ZM654.1,682.86q1.13-1.87,2.26-3.75l-2.12-.66C653.58,679.8,654.3,681.38,654.1,682.86Zm2.35,23.68c-1.22,0-2,1.42-3.21.19,0,1.46,0,2.62.06,4Zm-29.23,65.07-6.15,2.47.14.36a13.82,13.82,0,0,0,3.25-.7A15.39,15.39,0,0,0,627.22,771.61ZM661,720.16l-2.29,3.15,2.55.22C661.15,722.55,661.06,721.49,661,720.16ZM586.27,773c1.63.06,2.93.14,4.22.13.17,0,.46-.42.48-.66a4.67,4.67,0,0,0-.15-1.13Zm67.18-76.37,2.32-3.38-2.19.13C653.54,694.42,653.5,695.4,653.45,696.62ZM348.94,774.35a13.72,13.72,0,0,0-1.78,0c-.27,0-.51.31-.77.48.25.26.47.7.75.73a7.59,7.59,0,0,0,1.71-.13Zm150.16-3.08,0,.36,3.05-.27.29-1.31Zm156.83,5v.24l2.26-.16c-.1-.68-.17-1.2-.27-1.87Zm4.68-80.75-2.09,3C660.47,697.69,660.93,697,660.61,695.49Zm-13.24-39.77.09-.58c-1.62-.39-3.28.09-4.92.15ZM363.83,774.2l.07.23,3.3-.1v-1.07Zm124.9-11.79,0-.26c-1.21.28-2.7-.47-3.75,1.07Zm-141.12,6.21-.06.71,2.57-.48-.06-.31ZM660.23,744l-.2-.08-1,1.56,1,.44Z"/><path class="cls-2" d="M446.55,681.85l.54.76.23-.12c-.18-.36-.35-.73-.55-1.07a8.82,8.82,0,0,1-.9-1.44c-.3-.79.47-1.51,1.51-1.58.87,0,1.73-.23,2.6-.31s1.79-.92,3-.63c.83.21,1.84-.48,2.77-.5a6.66,6.66,0,0,1,2.47.55,1.3,1.3,0,0,1,.64,2c-.86,1.07-.85,2.35-1.13,3.56a36.41,36.41,0,0,0-.77,4.12c-.18,1.72-.2,3.46-.24,5.19,0,1.43,0,2.87,0,4.3,0,1.13-.08,2.25-.06,3.38,0,.71.56.78,1.12.7a21.71,21.71,0,0,1,7,.2,11.31,11.31,0,0,0,2.1,0c1.3,0,2,1,2.69,1.79a41.19,41.19,0,0,1,3.1,4.53,17.67,17.67,0,0,1,1.41,3.21c.54,1.57-.09,3-.78,4.36a12.9,12.9,0,0,1-3.59,4c-1.51,1.28-3.12,2.45-4.75,3.58a3,3,0,0,1-1.69.41c-2-.1-3.94-.32-5.91-.46-.83-.06-1.68,0-2.52,0a6.34,6.34,0,0,1-1.69-.17,10.61,10.61,0,0,0-4.81-.39,3.51,3.51,0,0,1-2.87-2.2c0-.2-.1-.49-.24-.56-1.32-.68-.79-1.88-.67-2.8.24-1.85.7-3.62-.18-5.45a4.41,4.41,0,0,1-.23-2.32,80.39,80.39,0,0,1,1.15-8,18.16,18.16,0,0,0,.16-6.81,17.57,17.57,0,0,1,0-3.16,4.31,4.31,0,0,0-.26-2.08c-.29-.63,0-1.52,0-2.3a3.53,3.53,0,0,1,.92-2.94C446.44,683,446.41,682.39,446.55,681.85ZM455,713.78c-.21,2.83.48,3.15,1.9,3.05.44,0,.85-.46,1.29-.49,1.55-.1,2.55-1.14,3.52-2.12a7.41,7.41,0,0,0,1.72-2.7,1.58,1.58,0,0,0-.39-2c-.72-.47-1.39-1-2.07-1.51-.87-.65-1.88-.4-2.81-.35s-1.8.11-2.06,1.19C455.72,710.64,455.33,712.45,455,713.78Z"/><path class="cls-2" d="M556.26,725.18l-.3.75c-.66,0-1.14.08-1.62.09a.6.6,0,0,1-.39-.12,12.43,12.43,0,0,1-2.43-2.38c-1-1.42-.9-3.13-1.65-4.59-.31-.59-.54-.62-1-.21a39.92,39.92,0,0,1-4.87,4.53,7.15,7.15,0,0,1-6.73,1.12c-1.32-.51-2.6-1.12-3.88-1.69a1.12,1.12,0,0,1-.39-.36c-1.16-1.53-2.34-3.05-2.54-5.08-.11-1.14-.63-2.31-.48-3.39.25-1.73,1-3.38,1.36-5.11a14.47,14.47,0,0,1,2.23-5,11.74,11.74,0,0,1,4.38-4.33,3.41,3.41,0,0,1,2.12-.24c1.41.32,2.88.37,4.17,1.28a16.31,16.31,0,0,0,3.19,1.37c0-.1-.09-.37-.11-.65,0-.51-.25-1.19,0-1.5,1-1.33.77-3,1.1-4.44.64-2.82,1-5.7,1.47-8.55.07-.37.09-1,.88-.8.1,0,.33-.42.51-.64s.55-.91.94-1.07c1.22-.48,2.51-.8,3.75-1.22.32-.11.59-.36.87-.27.54.1,1.08.24,1.63.29a3.53,3.53,0,0,1,2.61,2.8c-.08,1.62-.1,3.26-.23,4.88-.12,1.33-.45,2.64-.53,4-.13,2-.06,4.11-.2,6.16-.13,1.83-.41,3.65-.66,5.47a43.47,43.47,0,0,0-.84,5.84c0,2.3-.69,4.63.17,6.91.16.42.16,1,.45,1.24,1.18.91.86,2,.69,3.2a2.17,2.17,0,0,1-2.87,1.84A4.41,4.41,0,0,0,556.26,725.18Zm-13-17.5a7,7,0,0,0-2.15.69,4.74,4.74,0,0,0-1.81,2.12c-.3,1.16-.88,2.46,0,3.72a3.63,3.63,0,0,1,.53,1.44c.18,1.08,1,1.51,1.83,1.89a1.26,1.26,0,0,0,1-.27A14.62,14.62,0,0,0,545,714.5a25.17,25.17,0,0,0,2.09-2.85c.63-1.23.26-2-1.13-2.2a2.26,2.26,0,0,1-1-.43C544.39,708.61,543.86,708.14,543.29,707.68Z"/><path class="cls-2" d="M571.43,716.3c-.89,2.18.26,3.59,1.47,4.94a1.71,1.71,0,0,0,1,.3,33.5,33.5,0,0,1,5.8.83,4.39,4.39,0,0,0,3.27,0c.17-.06.42.06.62.13.49.16,1,.35,1.63.59a3.58,3.58,0,0,1-1.37,3.68c-1.46.85-2.61,2.32-4.58,2.43a15.46,15.46,0,0,0-2.2.85,5.6,5.6,0,0,1-3.93-.28c-.53-.22-1.12-.32-1.63-.58a11.72,11.72,0,0,1-6.27-8.48,17.48,17.48,0,0,1,0-3.47,5.36,5.36,0,0,0-.12-1.66,9.48,9.48,0,0,1,.06-5.28c.4-1.83.6-3.7,1.09-5.5.12-.47,1-.72,1.52-1.11a14.67,14.67,0,0,0,1.1-1c.61-.6,1-1.44,2-1.57.55-.07,1-.6,1.57-.87a3.68,3.68,0,0,1,3.67.41c1.39.88,2.63.5,4,.27a9.79,9.79,0,0,1,5.84.56,14.16,14.16,0,0,1,2.78,2.29c.16.13.34.24.49.38a22.41,22.41,0,0,1,3.28,3.25,3,3,0,0,1-.24,2.59c-1.11,1.78-2.25,3.64-4.32,4.5a12.46,12.46,0,0,1-5,1.28,19,19,0,0,0-3.54.59c-1.11.21-2.21.41-3.3.69a9.8,9.8,0,0,0-1.15.61,1.72,1.72,0,0,1-2-.18C572.45,717.06,571.93,716.71,571.43,716.3Zm8.45-8.21.06-.29a6.92,6.92,0,0,0-2.35-.83,21.43,21.43,0,0,0-4.24.87c-.32.09-.51.62-.76.95.35.17.72.52,1,.48a13.19,13.19,0,0,0,2.21-.54c.79-.22,1.81-.87,2.32-.59C578.93,708.57,579.32,708.11,579.88,708.09Z"/><path class="cls-2" d="M513.9,713.83l2.34.56c-.72-1.19-1-2.23-.2-3.38.23-.32.09-1,0-1.43-.17-1.17-.44-2.31-.59-3.48-.1-.79-.51-1.05-1.21-.82-2.77.9-5.68,1.69-7.2,4.5-.82,1.49-1.31,3.16-2,4.73s-1.23,3-2,4.39c-.22.4-.68,1.15-1.55.67-.24-.13-.71.11-1.06.23-.16.05-.26.29-.42.32-.38.08-1.08.24-1.13.12-.54-1.1-2.81,0-2.53-2.08a1.37,1.37,0,0,0-.1-.91c-.79-1-.4-2.09-.37-3.14.05-2.06.18-4.11.31-6.17.09-1.35.28-2.7.34-4.05.09-2.12.12-4.23.14-6.35a1.77,1.77,0,0,1,2.14-1.66,9.93,9.93,0,0,1,2.68.77,1.75,1.75,0,0,1,.68,1.32c.08,1.25,0,2.5,0,3.76,1.05-1.06,2-2.15,3.08-3.08a7.43,7.43,0,0,1,5.21-1.75,7.61,7.61,0,0,1,4.12.89c1.77,1.22,3.72.68,5.55,1.1a12.22,12.22,0,0,1,3.39,1.45c.38.23.52,1,.58,1.59.19,1.73.24,3.47.44,5.19.13,1,.46,2.07.69,3.11.18.83.28,1.68.53,2.48a11.1,11.1,0,0,1,.33,2.74c.12,1.77-1.25,4.19-2.84,4.69a2.06,2.06,0,0,1-.6.12c-1.18,0-2.36,0-3.54.15-.68.06-1.3.31-1.9-.34-.22-.24-1,0-1.21-.19a21.58,21.58,0,0,1-2.11-2.56,2.73,2.73,0,0,1-.44-1.15,4.3,4.3,0,0,1,0-1.34A4,4,0,0,1,513.9,713.83Z"/><path class="cls-2" d="M609,707.69c.1,0,.24,0,.29-.05,1.31-1.55,3.14-1.58,4.93-1.6a8.26,8.26,0,0,1,6.22,2.63c.82.87,1.66,1.72,2.47,2.56-.13,1.5-.25,3-.39,4.41a6.39,6.39,0,0,1-1.87,3.84c-.72.75-2.85.07-3.45-1.11a23,23,0,0,1-.9-2.3c-1.47.48-2.9.91-4.31,1.41a1.62,1.62,0,0,0-.78.66,2.39,2.39,0,0,1-2.49,1.16c-.22,0-.62.39-.67.65-.44,2.06-.82,4.12-1.21,6.18a2.56,2.56,0,0,0-.07,1c.26,1.38-.58,2.25-1.38,3.13a1.66,1.66,0,0,1-1.79.38,2.7,2.7,0,0,0-1.28.24c-.57.18-1.25.74-1.65.58a4.75,4.75,0,0,1-2.69-2.34c-.83-1.63-.45-3.23-.36-4.83.15-3.08.45-6.16.8-9.22.15-1.38.86-2.75.75-4.08-.06-.8,1.18-1.57,0-2.36-.1-.07.18-.62.2-1,.09-1.49.15-3,.24-4.45a2,2,0,0,1,2.45-1.3c1.09.43,2.13,1,3.22,1.39a6.88,6.88,0,0,0,2.05.43,1.75,1.75,0,0,1,1.68,1.76C609.06,706.19,609,706.93,609,707.69Z"/><path class="cls-2" d="M487.09,696.78c1.52-.89,2.32.29,2.45,1.61.25,2.42.38,4.86.43,7.3,0,1.45-.28,2.9-.31,4.36s.2,3.08.08,4.6a33.9,33.9,0,0,1-.86,5.58c-.27,1.09-3.05,2.19-4.2,1.94-.65-.14-1.32-.18-2-.34-.25-.06-.63-.3-.64-.48-.06-1-.91-1-1.43-1.49a1.79,1.79,0,0,1-.53-1.09,21.58,21.58,0,0,1-.15-3.31c.19-3.2.5-6.4.7-9.6.14-2.21.21-4.43.26-6.65a4.9,4.9,0,0,0-.43-1.3c.73-.65,1.52-1.41,2.37-2.11A2.89,2.89,0,0,1,487.09,696.78Z"/><path class="cls-2" d="M485,679.37c.49.21,1,.43,1.48.63.13,0,.3,0,.44,0,.5.11,1.25.08,1.46.4a15,15,0,0,0,2.56,2.24,1.44,1.44,0,0,1,.42,1.93c-.19.29.1,1-.11,1.14-1.5,1.12-2.6,2.78-4.67,3.17a3,3,0,0,1-2.93-.67,14.6,14.6,0,0,1-1.83-2.93c-.09-.16.2-.5.19-.76a15.68,15.68,0,0,0,.1-2.4C481.79,680.41,482.47,679.33,485,679.37Z"/><path d="M837.32,400.5c2.53,0,5.37-.57,7.86.12,4.79,1.34,6,7.34,2.47,10.85-.17.17-.43.45-.58.41-2.68-.69-5.71,1.46-8.2-1.2A8.24,8.24,0,0,1,837,401.9C837,401.67,837.08,401.44,837.32,400.5Z"/><path class="cls-3" d="M381.92,728.16v.07c.53-.19,1.06-.4,1.57-.63,1.64-.77,4.66-1.84,5.8-3.19,1.89-2.22,2.33-6.37,2.36-10.11C386.19,716.82,381.87,722.08,381.92,728.16Z"/><path class="cls-3" d="M383.51,708.6a22,22,0,0,1-7.05-8.66,21.35,21.35,0,0,1-1.8-7.64h-.14c-5.19,0-9.19,2.83-11.95,7.06a20.85,20.85,0,0,0-3.37,9.3,5.47,5.47,0,0,1,.35,1.51c.74,8.52,4.62,17.24,13.46,18.82a4.49,4.49,0,0,1-.08-.83C372.87,720.51,377.24,713.21,383.51,708.6Z"/><path class="cls-3" d="M389.59,702a18.46,18.46,0,0,0-5.08-6.15A10.2,10.2,0,0,0,389.59,702Z"/><path class="cls-3" d="M400.52,702.61a21.24,21.24,0,0,0,12.73-12.44c1.55-4.28,2.62-10.48.68-14.78-1.83-4-6.68-7.91-11.1-8.48-6.36-.81-15.6,1.43-18.14,7.7a4.28,4.28,0,0,1,.14,1.71c-.23,2.27-.66,5-.95,7.86A28.44,28.44,0,0,1,400.52,702.61Z"/><path class="cls-3" d="M385.82,737.52a21.44,21.44,0,0,0,6.52,6.48c2.81,1.85,4.57,2,7.88,1.81a21.39,21.39,0,0,0,10.45-3c4.4-2.59,5.58-7,5.8-11.83.24-5-.06-9-3.85-12.69A19.67,19.67,0,0,0,401.5,713c-.09,6.36-.79,13.88-5,18.39C393.91,734.09,390,736.19,385.82,737.52Z"/><path class="cls-4" d="M389.59,702a11,11,0,0,0,1.25.56,14.31,14.31,0,0,0,9.68.05,28.44,28.44,0,0,0-16.64-18.43c-.41,4-.52,8.2.63,11.67A18.46,18.46,0,0,1,389.59,702Z"/><path class="cls-4" d="M385.17,736.39c.2.39.42.76.65,1.13,4.14-1.33,8.09-3.43,10.65-6.17,4.24-4.51,4.94-12,5-18.39-.59-.09-1.19-.16-1.79-.21a16.33,16.33,0,0,0-8.06,1.55c0,3.74-.47,7.89-2.36,10.11-1.14,1.35-4.16,2.42-5.8,3.19-.51.23-1,.44-1.57.63,0,5.43-8.06,5.67-8.91.76-8.84-1.58-12.72-10.3-13.46-18.82a5.47,5.47,0,0,0-.35-1.51,20.85,20.85,0,0,1,3.37-9.3c2.76-4.23,6.76-7.07,11.95-7.06h.14a54.24,54.24,0,0,1,.47-9.92,23.52,23.52,0,0,0-19.32,9.25c-5.13,6.71-6.66,13.57-6.87,21.86a4.41,4.41,0,0,0,1.68,3.76,29.6,29.6,0,0,0,7.07,14.19c4.33,4.82,11.64,7.68,18.07,7.75l.9,0a4.4,4.4,0,0,1-.14-.86Z"/><path class="cls-5" d="M383.88,684.18c.29-2.85.72-5.59.95-7.86a4.28,4.28,0,0,0-.14-1.71c2.54-6.27,11.78-8.51,18.14-7.7,4.42.57,9.27,4.45,11.1,8.48,1.94,4.3.87,10.5-.68,14.78a21.24,21.24,0,0,1-12.73,12.44c.11.42.22.84.32,1.27a33.53,33.53,0,0,1,10.3,2.84c5.52-4.71,9.89-9.72,11.6-17,1.62-6.9,1.93-14.75-2.21-20.84-3.93-5.79-10.63-10.45-17.7-10.92-12.75-.85-27.77,5.65-27.8,20.19a4.54,4.54,0,0,0,.39,1.9c-.1.78-.2,1.57-.29,2.36h.27A25.12,25.12,0,0,1,383.88,684.18Z"/><path class="cls-5" d="M383.51,708.6a25.91,25.91,0,0,1,7.24-3.77,18.89,18.89,0,0,0-1.16-2.83,10.2,10.2,0,0,1-5.08-6.15,16.3,16.3,0,0,0-9.85-3.55,21.35,21.35,0,0,0,1.8,7.64A22,22,0,0,0,383.51,708.6Z"/><path class="cls-5" d="M374.66,692.3a16.3,16.3,0,0,1,9.85,3.55c-1.15-3.47-1-7.68-.63-11.67a25.12,25.12,0,0,0-8.48-1.8h-.27A54.24,54.24,0,0,0,374.66,692.3Z"/><path class="cls-4" d="M390.84,702.56a11,11,0,0,1-1.25-.56,18.89,18.89,0,0,1,1.16,2.83,22,22,0,0,1,8.13-1.12c.66,0,1.31.09,2,.17-.1-.43-.21-.85-.32-1.27A14.31,14.31,0,0,1,390.84,702.56Z"/><path class="cls-1" d="M411.14,706.72c-.28.25-.57.49-.86.73a20.78,20.78,0,0,1-8.77,4.34c0,.39,0,.77,0,1.17a19.67,19.67,0,0,1,11.12,5.34c3.79,3.65,4.09,7.7,3.85,12.69-.22,4.82-1.4,9.24-5.8,11.83a21.39,21.39,0,0,1-10.45,3c-3.31.21-5.07,0-7.88-1.81a21.44,21.44,0,0,1-6.52-6.48,33.41,33.41,0,0,1-9.16,1.65,5.09,5.09,0,0,0,.3.85c2.39,5.23,6.92,9.42,11.81,12.34,4.7,2.82,8.57,2.55,13.87,2.31a27.11,27.11,0,0,0,17-7.39c5.09-5.17,5.86-12.7,5.87-19.57C425.51,717.74,419.35,710.52,411.14,706.72Z"/><path class="cls-1" d="M391.64,712l-.39-.05a18.74,18.74,0,0,1-7.74-3.32c-6.27,4.61-10.64,11.91-10.58,19.56a4.49,4.49,0,0,0,.08.83,17.14,17.14,0,0,0,2.75.25,18.59,18.59,0,0,0,6.16-1v-.07c-.05-6.08,4.27-11.34,9.73-13.86C391.66,713.5,391.66,712.71,391.64,712Z"/><path class="cls-4" d="M385.17,736.39l-8.65,1.92a4.4,4.4,0,0,0,.14.86,33.41,33.41,0,0,0,9.16-1.65C385.59,737.15,385.37,736.78,385.17,736.39Z"/><path class="cls-4" d="M373,729c.85,4.91,8.88,4.67,8.91-.76a18.59,18.59,0,0,1-6.16,1A17.14,17.14,0,0,1,373,729Z"/><path class="cls-1" d="M391.64,712c0,.74,0,1.53,0,2.33a16.33,16.33,0,0,1,8.06-1.55c.6,0,1.2.12,1.79.21,0-.4,0-.78,0-1.17A25.52,25.52,0,0,1,391.64,712Z"/><path class="cls-1" d="M391.25,711.92l.39.05c0-1-.06-1.84-.09-2.61a17.3,17.3,0,0,0-.8-4.53,25.91,25.91,0,0,0-7.24,3.77A18.74,18.74,0,0,0,391.25,711.92Z"/><path class="cls-1" d="M401.5,709.36c0,.78,0,1.59,0,2.43a20.78,20.78,0,0,0,8.77-4.34c.29-.24.58-.48.86-.73a33.53,33.53,0,0,0-10.3-2.84A25.59,25.59,0,0,1,401.5,709.36Z"/><path class="cls-1" d="M400.84,703.88c-.65-.08-1.3-.14-2-.17a22,22,0,0,0-8.13,1.12,17.3,17.3,0,0,1,.8,4.53c0,.77.06,1.66.09,2.61a25.52,25.52,0,0,0,9.87-.18c0-.84,0-1.65,0-2.43A25.59,25.59,0,0,0,400.84,703.88Z"/><g id="tcFck9-2" data-name="tcFck9"><path d="M136,291c-4.71,5.53-9.08,11.8-14.56,16.87-8.52,7.89-14,7.91-24.26,1.86-1.35-.79-2.66-1.65-5-3.11-2.1,8.17-3.84,16.11-6.27,23.83-.84,2.66-3.49,6.82-5.16,6.75C76.55,337,74.21,333.38,75,329c2.29-12.23,4.71-24.43,7.34-36.59.92-4.29,2.59-8.43,4.49-14.41-4.59,4.35-7.64,7.49-11,10.34-7.37,6.37-21.27,2.26-22.12-7.43-.74-8.45,1.26-17.28,3.2-25.67.32-1.4,6.55-1.73,10.06-1.78.57,0,1.84,4.13,1.66,6.26-.5,6.1-1.58,12.15-2.43,18.22l2.35,1c3.89-4.38,7.81-8.73,11.66-13.14C84.56,260.84,88.74,255.9,93,251c.15-.17.27-.43.46-.49q6-2.07,12.08-4.1l3,9.55c5.13-1,11-3.07,16.82-3.11,5.63,0,13.27-3.48,15.8,5.95,1.62-1.77,2.75-4.1,4.35-4.49,3.07-.76,6.61-1.09,9.5-.17,1,.33,1.37,4.84,1,7.3-1.46,10.16-3.55,20.23-4.88,30.4-.44,3.4.68,7,1.32,12.6,2.29-3.51,4-5.24,4.67-7.3,4.38-13.53,8.72-27.08,12.72-40.73,2.88-9.83,4.83-12,11.74-11.9,4.85.06,6.15,2.1,5.38,6.78-1.44,8.81-3.31,17.7-3.26,26.54,0,6.68,2.81,13.34,4.29,20,.38,1.71,1.08,4.83.66,5-2.07.88-4.87,1.92-6.64,1.14-2.63-1.16-4.67-3.74-6.82-5.84a24.94,24.94,0,0,1-2.5-3.33c-4.32,6.05-7.7,11.54-11.84,16.37-4.64,5.41-9.31,5.13-15.24,1.13C137.51,306.83,136,298.86,136,291Zm-27.17,13.4c14-12,18.33-27.14,19.25-44.44C115.44,264.32,103.23,292.8,108.85,304.39Z"/><path d="M880,298c-6.32,6.85-8.17,6.52-13.35-1.28-3.92-5.9-8.29-11.52-12.55-17.39-7.46,1-11.15,15.78-22.11,5.19-1.83,3.62-2.84,6.92-4.9,9.3-1.58,1.81-5.6,4.09-6.64,3.38-9.57-6.52-21.8-10.17-26.15-22.72-.73-2.07-1.68-4.06-2.36-5.68-5,4.28-9.38,10.38-15.06,12.11-5.29,1.6-12-1.45-18.52-2.52a11.26,11.26,0,0,1,.49,4.52c-.62,3.15-2,6.16-3,9.22-3.3-2.35-8.72-4.16-9.48-7.16-2.25-8.83-2.73-18.12-3.66-27.25-.11-1.1,1.1-2.48,2-3.5,1.06-1.25,3.33-2.18,3.45-3.4.49-5,4.29-5.37,7.35-4.63a10.78,10.78,0,0,1,6.46,5.31c2.87,6.36,4.85,13.13,7.18,19.73l2.9.35c4.76-8.38,9.56-16.73,14.28-25.13,2.84-5.07,5-10.63,12.61-10,4.37.37,6.68,1.83,6.58,6.5-.14,6.31-.25,12.63.06,18.92a33.46,33.46,0,0,0,10.29,23.28c3.93-8.53,7.65-16.25,11-24.12,2.29-5.31,4-10.85,6.12-16.26,2.14-5.57,5.92-8.46,12.24-8.3,6.07.15,7.87,4.45,9.67,8.79,4.62,11.11,8.89,22.38,13.64,33.44a35.43,35.43,0,0,0,8.34,11.67c-.92-5.44-2.21-10.85-2.67-16.33-.71-8.28-.73-16.6-1.25-24.89-.27-4.19.84-6.26,5.56-6.06,4.5.19,8.19.46,8,6.33a89.61,89.61,0,0,0,.92,16.86,80.22,80.22,0,0,0,22.81-24.36c.69-1.15,1.29-2.36,1.89-3.56,2.16-4.32,6.25-4,9.22-2.35,1.55.85,2.78,5.74,1.79,7.24-6,9.09-12.68,17.71-19.11,26.51-1.33,1.83-2.55,3.74-3.83,5.61,2.21.94,4.34,2.3,6.64,2.7,1.88.33,4-.77,6-.7,2.89.1,5.77.68,10.22,1.26-11.38,12.63-22.42,7.64-34,3.37,6.43,3.81,5.83,9.17,4.4,14.61-.57,2.16-1.33,5.56-2.68,5.92-2.12.58-4.91-.69-7.24-1.62C882.14,300.36,881.13,299,880,298ZM836.07,275.6c14.28-6.26,15.32-8.75,7.61-17.48Z"/><path d="M393,268.16l-12.88,11.27c3.25,5.54,6.73,10.93,9.61,16.63,1,2,.52,4.69.72,7.07-2.8-.29-6.6.48-8.2-1.05-5.05-4.84-9.26-10.54-14.63-16.89-3.74,2.45-8.49,5.16-12.76,8.49-3.53,2.76-7.29,3.61-10.16.51-1.45-1.57-1.41-5.72-.47-8.09,4.23-10.74,9.35-21.13,13.48-31.91,2-5.12,6.3-6.24,10-5.93,2.25.19,4.83,4.46,6,7.4,1.49,3.82,1.71,8.13,2.75,13.66l18.78-15.26c7.89-6.41,12.17-5.1,15.74,4.16,4,10.3,6.71,21.47,17.18,27.88,5.86,3.58,7.31,3,11-2.93,5.57-9,3.56-18.76,3.84-28.29.24-8.51,3.89-11.09,12.27-8.33a9.25,9.25,0,0,0,4.49.3c21.21-4.11,42.28-3.31,63.27,1.47.18,0,.3.32.44.49-1.92,3.32-1.91,3.42-12.77,4.77-5.1.63-10.26.8-15.39,1.17-4.54,10.77-6.21,21.71-3.75,33.36.63,3-.51,7.68-2.63,9.67-2.88,2.7-9.25-1.74-10.76-6.7-3.3-10.83-2.77-21.6.27-32.37.23-.83.44-1.67.61-2.52,0-.17-.16-.39-.21-.51H457.67c-.62,6.86-1.08,14.86-2.12,22.78-1,7.47-5.37,13.22-11.45,17.27-7.91,5.26-19.77,2.58-29.82-6.1-1.47-1.27-2.92-2.55-3.46-3-1.4,2.82-2.23,7.36-4.23,8-4.9,1.47-9.15-1.25-11.19-6.14a35.16,35.16,0,0,1-2.36-9C392.64,276.31,393,273.12,393,268.16Z"/><path d="M356.3,385.6c-1.85,3.5-3.38,7.22-5.59,10.46-6.66,9.79-16,11.48-25.15,3.68-7-6-12.87-13.25-19.07-19.75,0,3.61.1,8.45,0,13.28-.1,3.76,1.57,8.77-4.89,9-4.65.14-10.08-4.88-10-9.81.2-8.94,1-17.86,1.59-26.79,0-.62,0-1.24,0-2.94-10,1.88-19.51,3.77-29.08,5.43-8.39,1.45-8.43,7.83-9.05,15.16l21.75-7,1.81,2.3c-1.51,2.26-2.53,5.26-4.62,6.65-4.81,3.18-9.86,6.47-15.3,8.08-7.09,2.1-7.86,6-5.33,13.17,4.83-3.32,9.23-6.52,13.81-9.43,3.94-2.52,8.7-8.14,12.71-3.21s-2.79,8-6,10.85a103,103,0,0,1-12.52,9.05c-8.76,5.75-21.94-.77-22.86-11.17-1.19-13.52,3.74-26,7.11-38.63.62-2.33,5.09-4.88,8-5.17,15.27-1.5,30.7-1.55,45.88-3.57,14.64-1.94,15.39-2,19.23,12.56,2.72,10.28,7,19.78,17.13,26.15,9-12.69,6.34-27.1,7.67-40.71,9.45-4.19,14.47-.92,13.94,9.12-.42,7.85-.92,15.7-1.39,23.55Z"/><path d="M213.52,402.87c-9.24,7.21-18.26,13.25-29.6,14.8a10.9,10.9,0,0,0-5.75,2.92c-9.59,9.39-21,14.07-34.24,11.81-5.36-.92-10.73-4.37-15-8-1.84-1.58-.83-6.49-1.22-11.14l10,2.62c1.51,7.78,6.25,11,14.4,8,5.91-2.17,11.1-6.3,18.63-10.74-6.22-4.61-10.62-8.09-15.24-11.24-6.07-4.14-12.74-7.5-18.39-12.12-7.06-5.8-7.73-14.12-1.58-20.64,7.46-7.93,16.06-14.55,28.1-12.19,3.19.63,6.17,2.38,9.62,3.77-2.19,4.66-4,6.36-8.34,5.14-6.38-1.82-15.15,3.4-18.23,10.71-2.74,6.47,2,9.84,6.42,12.88,3.47,2.39,7.27,4.3,10.51,6.18,7.2-8.4,13.58-16.66,20.86-24,4.8-4.85,10.67-9.08,18.37-7.84,2.22.36,4.34,1.37,7.76,2.51-5.47,4.13-10.37,6.84-14,10.75a218.92,218.92,0,0,0-16.48,20.89c-1,1.47-1,5.21.13,6.41,1.58,1.68,4.93,3.11,7,2.61,5.54-1.35,10.72-4.08,16.22-5.69,3.21-.94,6.74-.79,11-1.21,1.62-10.77,4-22.93,5.1-35.21.6-6.48,5.45-5.42,8.7-6a5.41,5.41,0,0,1,6.43,5.93c-.35,5.32-1.26,10.61-2,15.9-1.51,10.58-2.91,21.18-4.75,31.71-.43,2.44-2.44,4.6-3.73,6.89-2.73-1.62-6.47-2.62-8-5C214.46,411.25,214.46,407.11,213.52,402.87Z"/><path d="M356.07,385.83c5.12-7.77,9.6-16.08,15.52-23.17,8.55-10.23,20.84-9.14,28.83,1.86-2,4.14-4.85,3.92-8.72,2.24-1.77-.77-5.54-.62-6.28.51-4.72,7.19-9.53,14.48-13,22.33-3,6.74,2.28,12.37,9.41,10.48a240.17,240.17,0,0,0,24.55-8.3c1.33-.51,1.92-3.24,2.63-5,2.2-5.57,4.57-11.1,6.36-16.81,2.2-7,7.61-7.34,12.95-6,14.23,3.61,28.31,7.78,42.39,11.94,1.53.45,2.68,2.21,4,3.36-1.68.73-3.39,2.13-5,2.06-6.42-.25-12.82-1-19.14-1.51,1.67,5.27-2.36,6.84-6.73,8.36-5.89,2-11.78,4.15-17.51,6.61-1.43.61-2.24,2.67-3.33,4.06,1.56.92,3.42,2.91,4.63,2.57,6.19-1.72,12.19-4.1,18.3-6.12,3.54-1.17,7.15-2.94,10.72-2.94,4.12,0,5.88,3,2.29,6.18-9.16,8.16-19.68,14.39-32.11,14.85-8.61.33-14.66-5.66-19.14-12.81-6.43,3-12.52,6.1-18.78,8.79-10.21,4.38-24.28.61-29.74-8.94-2.36-4.13-2-9.84-2.85-14.82C356.3,385.6,356.07,385.83,356.07,385.83Zm70-4,20.41-3.75C438.49,376.39,431.62,375.07,426.1,381.83Z"/><path d="M610.66,260.09c0,9.74-.07,19.27,0,28.8,0,4.23.26,8.49-5.53,8.85-5.62.34-7.51-3.71-8-8.14-1-9.33-1.41-18.72-2.1-28.66-6.83.45-15.46,6.9-20.24-6.27,8.47-1.55,16.58-3.49,24.81-4.41,8.88-1,18-.3,26.78-1.74,6.62-1.09,13.11-3.9,19.27-6.77,19-8.87,29.11,6.71,26.94,21.95-2.19,15.39-10.53,27.42-24.47,34.87-8.59,4.6-20.14,1.95-26.38-5.42-5.37-6.35-2.33-13.33-1.14-19.94.85-4.73,3.06-9.21,4.94-14.57Zm46.18-10.29L654,247.39c-2.54,3.67-4.31,8.54-7.77,10.77-10.32,6.64-11.47,17-12.43,27.38-.48,5.13,3.5,7,7.27,3.46,5.11-4.86,10.43-10,13.75-16.13C658.61,265.89,659.84,257.74,656.84,249.8Z"/><path d="M796,405.84c-5.63,3.56-11.21,7.2-16.89,10.65-6.33,3.83-12.53,4-18.68-.73-6.75-5.24-10.87-12-8.92-20.4a125.35,125.35,0,0,1,8.29-23.1c2.55-5.63,8.34-7.23,13.39-4.13,1.13.7,1.22,4.39.61,6.35-2.26,7.36-5.5,14.45-7.36,21.9-.84,3.33.69,7.26,1.42,13.14,13.28-9.17,29.82-10.72,34.64-27.73.49-1.74.3-4.47-.77-5.7-3.49-4-1.87-5.58,2.28-7.11,14.63-5.4,29.47-4.55,44.43-2,4.15.7,8.31,1.3,12.47,1.94l.2,2.83c-3.89,1-7.72,2.47-11.66,2.86-7.57.74-15.23,1.52-22.78,1.08-9-.52-8.48,6-10.44,11.56,9.86-.41,18.7-8.08,30.48-1.3-4.23,2.66-7.05,4.89-10.22,6.34-7.11,3.25-14.49,5.91-21.55,9.28-1.6.76-2.3,3.39-3.41,5.15,2.1.51,4.46,1.88,6.26,1.34,4.69-1.41,9-4.06,13.71-5.44,4.09-1.2,8.5-1.34,12.76-2,.46,1.18.91,2.35,1.36,3.52-5.46,3.75-10.7,7.89-16.44,11.16C813.83,424.08,804.73,421.4,796,405.84Z"/><path d="M730.52,396.74c5.72,1.94,10.13,3.42,14.52,4.94,6,2.11,7.72,7,3.71,12-7,8.68-17.16,11-27.4,12.17a53.06,53.06,0,0,1-18-1.45c-2.89-.7-7.08-4.22-7.23-6.68-.74-12.06-.34-24.2-.29-36.31a3.3,3.3,0,0,1,.65-1.86c3.94-5.2,7.71-10.56,12-15.5,7.6-8.86,17.74-12.34,29-10.9,12.76,1.63,18.5,15,11.09,26-3.68,5.44-9.3,9.57-14.07,14.26C733.61,394.23,732.62,395,730.52,396.74Zm-18.22-2.93c5.31-4,10.89-7.63,15.82-12a33.28,33.28,0,0,0,8.07-10.42c1.07-2.31.47-6.39-1-8.49-.8-1.14-5.43-.53-7.75.55C715,369.23,713.16,381.06,712.3,393.81ZM711,399.68c-.33,2-1.38,4.84-1.15,7.61s.89,6.71,2.85,8.37c4.08,3.45,21.21-2.5,24.93-9Z"/><path d="M322.18,286.67c1.95-8.32,4-16.62,5.8-25,.8-3.71,1-7.54,1.58-11.29.79-4.78,4.9-5.06,8.32-5.13,4.05-.08,3.82,3.32,3.85,6.36.13,12-.78,23.62-5.77,34.86-6.2,14-16.51,14-27.26,4.7a27.26,27.26,0,0,1-2.91-3.67c-2.66,3.91-4.77,7.19-7.07,10.34-3,4.12-7,6.87-12.1,4.72-5.78-2.44-12-5.67-12.48-12.75-.71-11.46-.33-23-.23-34.5.06-6.86,5.3-5.45,9.34-5.21,4.61.28,3.58,3.24,3.41,6.74-.52,11-.19,22.12-.19,33.18l3.41.53c1.88-5.19,4.37-10.24,5.47-15.59s3.62-7.38,8.82-8.09c5.56-.76,7,3,8.78,6.54,2.21,4.29,4.18,8.72,6.25,13.09Z"/><path d="M945.12,264.54c4.86-1.33,9.44-3.08,14.17-3.72,3.42-.47,9.17-.66,10.16,1.11,2.55,4.55-2.6,6.54-5.79,7.9-5.72,2.44-11.94,3.71-17.7,6.08-1.8.74-4.08,3.65-3.86,5.25.6,4.28,4.19,3.47,6.82,2.08,6.71-3.55,13.23-7.45,19.82-11.23.77-.45,1.42-1.4,2.2-1.49,3.69-.41,7.41-.62,11.13-.89-1.7,3.1-2.66,7.17-5.23,9.12a163.12,163.12,0,0,1-22,14.08c-6.81,3.6-13.77,2.75-20.18-2.14-5.74-4.37-8.47-9.94-7.27-16.95,1.35-7.9,3.15-15.73,5.16-23.49.31-1.23,2.62-2.2,4.2-2.79,14-5.19,28.64-4,43.16-3.62a82,82,0,0,1,11.41.88c1.67.28,3.14,1.78,4.71,2.73-1.39,1.26-2.61,3.28-4.21,3.64a91.5,91.5,0,0,1-13.33,1.82c-8.29.63-16.6,1-24.89,1.51C947.91,254.79,944.62,257.52,945.12,264.54Z"/><path d="M646.66,409.86c-5-7.26-10-12.95-13.2-19.55-5.16-10.77,1.79-25.32,13.25-28,3.55-.83,8.31.73,11.61,2.71,1.79,1.07,1.68,5.32,2.43,8.13l-9.81,1.94c-8.85,6.78-8.39,15.55,1,22.83,13.15,10.23,12.39,16.4-2.92,23a57.05,57.05,0,0,1-9.49,3.3c-5.91,1.38-10.41-.53-15.91-3.94C602.4,407.09,610,387.4,610.66,369.35c.05-1.52,4.91-4.08,7.44-4,2.12.1,5.41,3.16,5.82,5.36.72,3.81-.72,8-.65,12,.16,8.49.39,17,1.21,25.45.47,4.86,6.58,8.09,11.95,6.46C640.16,413.5,643.58,411.33,646.66,409.86Z"/><path d="M898.8,399.46c5,2,9,3.32,12.75,5.16,1.37.68,2.15,2.57,3.2,3.9-1.35.94-2.6,2.48-4.06,2.71-9,1.45-17.33-.14-23.8-7.2-3.14-3.44-4.46-7-.78-11.26,5.7-6.56,11.32-13.22,16.51-20.17a53.21,53.21,0,0,0,7-12.77c.88-2.33.58-6.07-.83-8-.92-1.24-5.07-1.07-7.23-.19-4.53,1.86-9.52,3.35-9.92,10.05-.31,5.19-4.91,3.75-7.89,2.93-4.81-1.33-7.51-6.91-4.37-10.6,4-4.72,9.18-9.23,14.79-11.6,5.06-2.14,11.46-2.07,17.14-1.55,13.06,1.18,18.53,15.73,10.45,28.65-5.08,8.1-11.55,15.33-17.41,22.94C902.77,394.58,901.1,396.6,898.8,399.46Z"/><path d="M547.06,370.89c12.61-1.41,14.44.18,14.91,12.19.33,8.29,2.77,15.64,9.58,22.2,9.24-12.53,13.69-25.88,13.55-41.09a55.87,55.87,0,0,1,6.39-1.73c4.29-.65,6.91.94,7.11,5.68.7,16.64-4.86,31.26-14.75,44.27-4.4,5.8-13.75,5.63-20.76.6-10.44-7.48-15-18-16-30.39C546.81,378.86,547.06,375.07,547.06,370.89Z"/><path d="M674.1,369.41c3.29,3.79,7.42,6.34,7.63,9.18.86,11.53.55,23.15.6,34.73,0,3.37,1.65,8.57-3.43,8.5-3.33-.05-8.43-3.18-9.58-6.15-4.88-12.56-4.29-25.88-2.46-39C667.17,374.49,670.64,372.75,674.1,369.41Z"/><path d="M914.1,416.5c2.6,3.5,4.9,5.9,6.08,8.76.26.61-4.34,4.57-5.34,4.1-3.1-1.45-5.53-4.3-8.22-6.61Z"/></g></g></svg>