<svg xmlns="http://www.w3.org/2000/svg" viewBox="0 0 1024 1024"><defs><style>.cls-1{fill:#c5dced;}</style></defs><title>mb-panel-a-2</title><g id="Ebene_2" data-name="Ebene 2"><path class="cls-1" d="M214.8,254.12c-9.3,2.4-11.8.63-20,5.55-5.63,3.36-11.56,8.6-10.75,15.1,1,8,10.89,11,16.16,17.08,5.78,6.66,5.5,16.8,2.5,25.09s-8.27,15.57-11.8,23.65c-4.52,10.35-6.08,21.73-7,33-2.06,25,.18,53.4,19.11,69.84,7.56,6.57,17.18,10.57,24.23,17.68,1.67,1.68,3.25,3.74,3.21,6.1-.1,5.26-7.29,6.8-12.49,6.05a64.13,64.13,0,0,1-42.31-25.63c-4.43-6.14-7.72-13-10.88-19.91-11-23.94-20.86-49-22.54-75.26-1.39-21.51,3-43.72,14.67-61.85s30.89-31.78,52.28-34.45"/><path class="cls-1" d="M298.73,457.18c2,6.29,4,12.86,2.91,19.37C299.39,490.24,285.27,497.94,274,506a109.84,109.84,0,0,0-37.27,46.48c-1.14,2.69-2.18,5.63-1.55,8.47,1.72,7.68,12.44,7.86,19.42,11.49,8.1,4.23,11.52,14.36,11,23.48s-4.22,17.71-6.89,26.45a124.84,124.84,0,0,0-2.37,63.8c3.87,17.1,11.3,33.17,19.29,48.77,14.11,27.54,31,55.07,57.05,71.85,15.88,10.25,36.38,18.13,41.7,36.27a12,12,0,0,1,.37,6.76c-1.71,5.73-9,7.28-15,7.36a114.7,114.7,0,0,1-63.49-18.39c-17.18-11.17-31-26.77-43.36-43.13A390.88,390.88,0,0,1,221,745.89c-8-14.81-15-30.27-18.67-46.69a72.07,72.07,0,0,1-2-18.49c.11-2.8.44-5.68-.42-8.35s-2.9-4.92-4.46-7.34c-3.59-5.54-4.72-12.28-5.63-18.82A494.39,494.39,0,0,1,196,475c.37-1.75.8-3.6,2.05-4.88,3.16-3.26,8.52-.82,12.61,1.14,14,6.68,30.61,5.3,45.5,1s28.85-11.47,43.65-16.14"/><path class="cls-1" d="M480.67,421.39l-9.42,4.38c-4.48,2.08-9.06,4.23-12.62,7.65s-6,8.44-5.08,13.3c.85,4.45,4.34,8.81,2.64,13-1.22,3-4.77,4.45-8,4.57-4.95.2-10.25-2.32-12.08-6.91-1.66-4.15-.16-9,2.67-12.49s6.81-5.76,10.74-7.89a274.72,274.72,0,0,1,28.94-13.52"/><path class="cls-1" d="M503.8,469a26.87,26.87,0,0,0,11.55,9.84c6.06,2.7,12.93,3,19.54,2.4,10.19-1,21.08-5,26-14-17.45-.84-35,2.91-52.34.49a39,39,0,0,1-4.93-1"/><path class="cls-1" d="M205.72,197c9.73-6.6,19.76-14.15,23.91-25.16,3.9-10.36,1.72-22.48-4.44-31.68a26.14,26.14,0,0,0-9.85-9.21c-3.76-1.83-8-2.37-12.18-2.54-7.72-.31-15.59.6-22.68,3.66a16.52,16.52,0,0,0-6.44,4.42,18.3,18.3,0,0,0-2.83,5.61,83,83,0,0,0-4.74,25.69,24.54,24.54,0,0,0,1.16,9.34c1.59,4.21,5,7.42,8.54,10.24,4.62,3.74,9.65,7.14,15.33,8.88s12.13,1.64,17.26-1.35"/><path class="cls-1" d="M607.2,616.26a10.51,10.51,0,0,0,3,5.6c5.68,5.54,15,3,22.67,1.07a95.45,95.45,0,0,1,44.68-.47c14.06,3.25,27.2,9.64,41.11,13.46s29.55,4.82,42.09-2.32c2.59-1.47,5-3.29,7.93-4s6.1-.31,9.13.14l46,6.89c9.23,1.38,18.57,2.76,27.86,1.86,13-1.27,25.32-7,38.33-8.48,10.17-1.17,20.44.26,30.57,1.69l35.26,5c3.81.54,7.82,1.06,11.39-.35,3.16-1.25,5.59-3.86,7.51-6.66,11.71-17.09,7-39.92,8.19-60.61,1.14-20.16,8.28-39.55,10.23-59.65,4.18-43.22-15.82-85.83-13.12-129.16.33-5.37.94-11.12-1.7-15.82-1.84-3.28-5-5.55-8.09-7.72-6.91-4.87-14.91-10-23.19-8.27a188.76,188.76,0,0,1,1.35,52.11c-1.23,10.83-3.39,21.58-3.83,32.47-.6,14.88,2,29.67,4,44.44a460.59,460.59,0,0,1-.69,123.12c-4.82-8.9-15.35-13.07-25.34-14.68C885.83,579.93,849.27,599,812.2,597a98.72,98.72,0,0,1-50.81-17.32,25,25,0,0,1-20.79,22c-13.4,1.86-25.44-7.36-37.79-12.88-17.65-7.91-37.6-8.48-56.94-8.91-15.39-.35-31.88-.39-44.7,8.13-1.82,1.21-3.62,2.69-4.32,4.76-2.85,8.35,13.57,15.83,8.63,23.14"/></g><g id="Ebene_1" data-name="Ebene 1"><path d="M408.17,529.08a21.09,21.09,0,0,0-4.42,9.17,18.73,18.73,0,0,1-1.09,3.1q-2.51,6.6-5,13.19c-.84,2.18-1.78,4.33-2.58,6.53-.68,1.89-1.92,3.62-1.73,5.8a3.32,3.32,0,0,1-.3,1.37c-2.76,7.34-4.77,15-8.3,22a42.18,42.18,0,0,1-5.1,8.39c-2.51,3-5.81,4.66-9,6.62a89.35,89.35,0,0,0,9.63,18.56,19.7,19.7,0,0,1,1.22,2l12,21.31,9.25,16.41c2.47,4.38,5,8.7,7.37,13.13,1.4,2.63,2.49,5.42,3.73,8.13,4.49,9.87,8.29,20,11.79,30.26,1.66,4.89,2.76,10,4,15a175.92,175.92,0,0,1,3.74,18.46c1.5,10.77,2.26,21.55,1,32.43-.54,4.68-.8,9.38-2.14,13.93-1.28,4.36-2.31,8.8-3.83,13.07a108.34,108.34,0,0,1-6.88,15.47,72.5,72.5,0,0,1-11.81,15.79,39.25,39.25,0,0,1-11.24,7.68c-6.2,3-12.63,5.55-19.06,8-2.46.94-5.22,1.05-7.83,1.6-8.66,1.83-17.48,2-26.26,2.21-6.05.17-11.77-1.77-17.35-3.93-5.41-2.1-10.77-4.34-16.1-6.65-10.69-4.64-21.14-9.73-30.28-17.09a72.91,72.91,0,0,1-7.51-7.09C268,817.43,261.8,811,256,804.18a162.39,162.39,0,0,1-15.53-21.29c-5.15-8.44-10.36-16.84-15.41-25.34a275.49,275.49,0,0,1-17.85-34.78,142.91,142.91,0,0,1-7-22.45c-2.68-11.48-5.39-23-8-34.46-.86-3.82-1.41-7.72-2.08-11.59-.85-4.95-1.9-9.88-2.46-14.86-.79-7-1.25-14.08-1.75-21.13q-.94-13.39-1.7-26.8c-.23-4.08-.25-8.18-.35-12.26-.19-8-.24-16-.57-24-.31-7.25.44-14.45.83-21.66.38-6.9,1-13.8,1.94-20.65,1.11-8.4,2.55-16.77,3.95-25.14.67-4,1.65-8,2.33-12a60.58,60.58,0,0,0,.43-6.11c-6.27-4-10.18-10-15.08-15.06a33.69,33.69,0,0,1-3.29-4.58c-1.52-2.19-2.94-4.46-4.55-6.59a35,35,0,0,1-4.74-8.1,32.17,32.17,0,0,0-3.28-6.19c-6.27-9.2-9.87-19.58-13.42-30-1.21-3.55-1.59-7.38-2.75-11a73.19,73.19,0,0,1-2.85-12.31c-1.58-11.21-3.09-22.42-2.31-33.8.34-5,.23-10.07.95-15a130.84,130.84,0,0,1,5.66-24.29c3.62-10.44,8.53-20.28,16.6-28.19.78-.77,1.58-1.53,2.29-2.37,6.49-7.62,14.91-12.49,23.92-16.36a65.63,65.63,0,0,1,18.72-4.52c4.84-.53,9.69-1.07,14.55-1.35,3.59-.22,7.2,0,10.81,0a11.1,11.1,0,0,0,2.8.12c3.41-1,6.48.15,9.63,1.21q6.91,2.33,13.92,4.39c7.44,2.18,13.84,6.5,20.63,10a10.36,10.36,0,0,1,2.58,2.05,29.42,29.42,0,0,0,7.11,5.38,8.09,8.09,0,0,1,1.89,1.39c4.14,4.27,9.07,7.74,12.73,12.5,7.65,6.57,12.25,15.45,17.72,23.63,3.32,5,5.22,10.7,6.69,16.51.84,3.35,1.79,6.67,2.47,10.05a149.19,149.19,0,0,1,2.4,21.51c.43,8.18-.46,16.27-1.32,24.35-.46,4.37-1.39,8.69-2.25,13-.27,1.36-1.08,2.61-1.48,3.95-.88,3-1.61,6.07-2.49,9.08a103.55,103.55,0,0,1-12.62,27.22,84.3,84.3,0,0,1-9.08,11.42c-2.73,2.93-3.42,6.32-3.17,10s.74,7.17,1.28,10.74c.59,3.85,1,7.73,1.67,11.59,1.05,5.9,3,11.53,4.38,17.33,1.16,5,3.58,9.36,5.85,13.84.34.68.81,1.31,1.27,2,3-.86,5.86-1.58,8.67-2.51A125.11,125.11,0,0,1,351,505.58c5.92-.65,11.88-.92,17.81-1.46,7.52-.7,15.06-.91,22.6-.86a6.65,6.65,0,0,0,5.53-2.79,165.41,165.41,0,0,1,14.5-15.42,73.38,73.38,0,0,1,20-13.13c3.18-1.35,6.41-2.58,9.6-3.89a9.63,9.63,0,0,0,1.4-.94c-.68-.6-1.18-1.12-1.76-1.54-6.14-4.38-8.36-10.33-7-17.65a11.62,11.62,0,0,1,3.07-6.27c3.65-3.67,7.27-7.37,11.05-10.9,2.1-2,4.86-2.85,7.51-3.85l5.26-2c0-1.37,0-2.45,0-3.53-.11-3.76-.4-7.53-.34-11.29.11-6.34-1.11-12.5-2-18.72a125.71,125.71,0,0,1-1.5-23c.28-6.73.75-13.47,1.28-20.19a105.94,105.94,0,0,0,.12-15.53c-.45-6.58-1-13.14-2-19.68-1.33-8.84-2.07-17.77-3-26.67a22.58,22.58,0,0,1,0-3.29,51.3,51.3,0,0,1,4-17.33,6.18,6.18,0,0,1,5.76-4.14,96,96,0,0,1,11.76-.33,99.9,99.9,0,0,0,13.16-.37c5-.28,10-.86,15-1.05,6.44-.25,12.89-.47,19.33-.31,11.65.3,23.26-.24,34.88-.81,8-.39,16-.6,24-.91q3.06-.12,6.11-.39c5.47-.47,10.89-1.28,16.42-1.21,4.69.07,9.39-.75,14.09-1.19,5.78-.55,11.57-1.15,17.36-1.66,1.87-.16,3.77-.09,5.65-.17,4.24-.18,8.48-.39,12.72-.59,3.3-.16,6.6-.51,9.89-.43,8.86.23,17.55-1.07,26.26-2.4,11-1.68,22.14-2.84,33.34-2.18a96.11,96.11,0,0,1,10.29,1.16,26,26,0,0,1,5.35,1.77c2,.83,3.93,2,6,2.7,6.35,2.07,9,7,10.13,13a12.28,12.28,0,0,1,.18,2.35c-.05,10.68.32,21.4-1.37,32-.48,3.07,1.43,6.17-.61,9.19-1.83,2.7-1.46,6-2,9.1a140.05,140.05,0,0,0-2.55,22.46c-.1,3.29-.66,6.57-1,9.86-.25,2.34-.63,4.67-.68,7-.21,9.9-.68,19.79,0,29.7.42,5.78.1,11.62.09,17.43,0,4.24.08,8.48-.1,12.71-.19,4.54-.47,9.09-1,13.6-.44,3.41-1.41,6.75-2.15,10.12a3,3,0,0,0,.2.9c2.68,4.63,2.28,8.1-1.56,11.75a44.19,44.19,0,0,1-4.47,3.44,18.44,18.44,0,0,0-2.38,1.5c-2.9,2.88-6.6,3.54-10.39,3.69-4.85.19-9.72.17-14.58,0-4.7-.12-9.39,0-14.09.09-8.51.07-16.86,1.65-25.32,2.09-3.91.2-7.79,1-11.7,1.41-2.65.29-5.31.46-8,.62-8.15.5-16.31,1-24.46,1.44a26.67,26.67,0,0,1-2.82.17c-7.22-.26-14.45-.52-21.67-.84a131.28,131.28,0,0,0-16,.6c-3.89.3-7.74,1.13-11.71.81a14.43,14.43,0,0,0-6.47.63c-2.24.94-4.15,2.74-6,4.36a30.82,30.82,0,0,0-3.81,4.17c-1.88,2.34-4.38,3.34-7.23,4a60.81,60.81,0,0,1-16.33,1.86c-2.37-.05-4.76-.12-6.56,1.86-7,3-13.24,7.66-20.45,10.41-3,1.15-5.56,3.46-8.38,5.15s-5.47,3-8.16,4.65c-3.64,2.16-7.21,4.46-10.86,6.6a98.26,98.26,0,0,1-31.56,11.74c-7,1.36-14,1.67-21,2.5-2,.24-4.07.1-6.11.16-.94,0-1.89,0-2.82.16C415.5,528.09,412.09,528.56,408.17,529.08Zm94-38.86-1.51-.2.07.61,1.31-.58,2-1.05,1.66-.22c-.71-.55-1.3-.63-1.56.32C503.4,489.31,502.2,488.72,502.19,490.22Zm71.88-225.54-1.51,1.14c1.17.28,1.63-.1,1.5-1.13l.94.41,0-.1Zm-95.7,237.48c-2.49.64-2.49.65-3.47,2.32,1.65-.41,3.08-.57,3.38-2.42,1.74-.26,1.74-.26,2.19-2Zm190.4-242.92-13.62.44c-.94,0-1.88,0-2.82.07a7.34,7.34,0,0,0-2.67.42c3.92,1.41,7.52.25,11.09.44a42.47,42.47,0,0,0,6.56-.38c.49-.06.92-.71,1.4-1.05.58.31,1.16.83,2-.26ZM310.51,307.68c-.33.81-.66,1.62-1.11,2.75l3.12-.19a12,12,0,0,0-1-1.89,3.36,3.36,0,0,0-1.13-.59,4.08,4.08,0,0,0-.37-1.34c-3.15-4.48-5.65-9.44-9.84-13.16-.94-.82-1.67-1.88-2.56-2.76-3.66-3.63-6.84-7.74-10.9-11-1.83-1.47-3.85-2.73-5.6-4.29-4-3.58-8.75-6.08-13.43-8.62-4.42-2.4-8.87-4.73-13.3-7.09-2.08-1.11-4.14-2.25-6.22-3.35-.24-.12-.6,0-.89,0l-1.89,1.45c-2.56-.82-4.77-2.1-7-2.13a129.39,129.39,0,0,0-16,.73c-5.61.6-11.17,1.65-16.73,2.65a37,37,0,0,0-8.19,2.05c-7.6,3.33-15.27,6.57-21.93,11.7a23.83,23.83,0,0,0-2.92,2.35A123.27,123.27,0,0,0,160.88,289a46,46,0,0,0-2.49,4c-4.66,8.48-7.31,17.67-9.39,27a88.17,88.17,0,0,0-1.94,12.51c-.48,6.57-.57,13.17-.76,19.76a45.13,45.13,0,0,0,.17,6.58c.76,6.86,1.53,13.72,2.52,20.54a150.14,150.14,0,0,0,6.66,26.93c2.14,6.21,5.27,12,8.34,17.85a118.16,118.16,0,0,0,22.14,29.67,31.41,31.41,0,0,0,13.81,7.7c.87.25,1.72.54,2.84.9l-1.37,2.65a121.64,121.64,0,0,0,28.64,7.2c8.69,1.15,17.18.32,25.75-.87,4-.56,7.49-2.27,11.24-3.37a31.84,31.84,0,0,0,9.68-4.74c6.49-4.7,12.86-9.54,19.26-14.35a6.16,6.16,0,0,0,1-1.37c-.71-.06-1-.19-1.3-.09-4.87,1.9-10,2.59-15.14,3.09a19.57,19.57,0,0,1-9.28-1.1c-6-2.46-11.53-5.73-15.78-10.81a18.65,18.65,0,0,0-3.19-3.43,8.72,8.72,0,0,1-2.62-3.22c-1.66-3-3.39-6-5.14-9-.89-.05-1.65-.12-2.42-.14a8,8,0,0,1-7.83-5.52,5.48,5.48,0,0,1,1.52-6.41c2.21-2,5.05-2.48,7.8-2.88,1.08-.15,2.39.63,3.43,1.25a7.92,7.92,0,0,1,1.88,2.09c.16.2.11.58.2,1.17l-2.83,2.73a22,22,0,0,0,5.2,4.88c4.26,3.27,8.86,6.05,14.15,7.2a72,72,0,0,0,10.29,1.18,30,30,0,0,0,16.29-3.91c6.94-3.74,13.31-8.55,17.91-15.06,5.32-7.54,10.79-15.1,13-24.35a9.61,9.61,0,0,1,.84-2.2c1-1.9,2.05-3.78,4.55-4.38.18-3.08.31-6,.53-9s-.4-5.72-.09-8.44c.53-4.68-.89-9-1.33-13.52-.06-.64-.65-1.24-1.12-2.11-.69.77-1.28,1.16-1.46,1.69-.93,2.66-3.17,3.76-5.48,4.79a23.11,23.11,0,0,0-2.2.82,5.24,5.24,0,0,1-4.54.08c-4.85-1.59-9-4.46-12.94-7.54a12.71,12.71,0,0,1-4.85-8.76,78.2,78.2,0,0,1-.5-11.25,23.23,23.23,0,0,1,5.37-14.71C303.07,306.93,305.78,306,310.51,307.68ZM200.06,473.86c-.36,1.86-.72,3.52-1,5.21-.35,2.15-.62,4.32-.92,6.49-1.38,9.95-3,19.88-4.06,29.87-1.38,13.42-2.89,26.84-2.7,40.39.16,11.13-.09,22.28,0,33.41,0,3.44.56,6.87.77,10.31.26,4.23.37,8.47.64,12.69.22,3.59.57,7.17.86,10.75.38,4.67.8,9.35,1.13,14,.61,8.5,3.2,16.64,4.51,25s3.69,16.54,5.37,24.84c1.09,5.38,2.52,10.69,3.93,16,.8,3,2,6,2.79,9a121.76,121.76,0,0,0,6.81,18.53c4.89,10.75,10.86,20.89,16.87,31q6.63,11.11,13.57,22.05a146.11,146.11,0,0,0,12.92,18c6.7,7.69,13.38,15.41,20.18,23a45.11,45.11,0,0,0,11.82,9.23c7.85,4.36,16.11,7.8,24.3,11.42,4,1.78,8.08,3.5,11.89,5.66a15.28,15.28,0,0,0,8.92,2.35c2-.15,4.11-.06,6.11-.39,7.29-1.18,14.7-.88,22-1.85a40.26,40.26,0,0,0,11.71-3.2c3.71-1.68,7.48-3.28,11.11-5.14s7.78-3.58,10.84-6.53a90.13,90.13,0,0,0,9.09-10.15c6.26-8.23,10.16-17.64,13.24-27.45,2.76-8.77,3.72-17.81,4.38-26.91a67.62,67.62,0,0,0-.53-16.45c-.78-4.48-1.39-9-2-13.5A149.47,149.47,0,0,0,419,717.18a269.46,269.46,0,0,0-11.64-30.32c-1.64-3.56-3-7.33-5.09-10.59-3.18-4.89-5.64-10.16-8.57-15.17-2.21-3.8-4.53-7.54-6.65-11.39-3.77-6.87-7.43-13.81-11.14-20.71-.37-.69-.83-1.34-1.25-2a132,132,0,0,1-10.78-19.83,11.9,11.9,0,0,0-6.4-6.54,56.44,56.44,0,0,1-6.7-3.44c-5.11-3.06-10-6.49-15.23-9.35a185.27,185.27,0,0,0-27.29-12.61,73.93,73.93,0,0,0-11.4-2.84c-3.84-.71-7.84-.64-11.63-1.53-3.49-.83-6.89-.46-10.29-.17a79,79,0,0,1-19.25-.5,18.86,18.86,0,0,1-9.84-5,10.52,10.52,0,0,1-3.44-7.48c-.37-5.1,1.81-9.25,5-12.81,7.4-8.24,16.75-11.46,27.62-9.25,7.82,1.59,15.47,4.08,23.31,5.59a46.65,46.65,0,0,1,12.85,4.35,78.83,78.83,0,0,1,6.94,3.93c7.24,4.69,15.08,8.45,21.92,13.77.22.17.77-.1,1.12-.15-3.23-5-6.38-9.84-9.57-14.69-1.72-2.62-3.1-5.7-5.41-7.65-2.88-2.44-4.35-5.67-6.47-8.51-1.6-2.14-3-4.44-4.68-6.5a37.43,37.43,0,0,1-5.51-9.26c-1.29-3-2.59-6-3.76-9.13s-2.19-6.2-3.26-9.31c-.46-1.34-.9-2.68-1.3-4-1.93-6.47-3.82-12.93-4.13-19.75-.22-4.86-.57-9.72-.89-14.57,0-.58.1-1.3-1-1.72-.83.48-1.93,1-2.91,1.69-4.51,3.13-9.06,6.23-13.46,9.51a57.89,57.89,0,0,1-11.94,6.52C257,480,246.68,481.5,236,481.42c-6.35-.05-12.45-1.48-18.66-2.36a44.43,44.43,0,0,1-10.42-2.83C204.78,475.36,202.53,474.7,200.06,473.86ZM737.93,266.72c-1.46-.28-2.68-.23-3.54-.75-2.35-1.41-4.88-1.13-7.36-1.09-5.49.1-11,.33-16.48.56-3.44.14-6.89.35-10.33.57s-6.89.54-10.34.68c-1.87.07-3.76-.32-5.63-.22-8.61.44-17.22,1.43-25.82,1.36-10.56-.08-21,1.41-31.47,1.91-6.28.3-12.54,1-18.82,1.21-5,.15-10,.29-15.06.61-5.64.35-11.31.38-17,.43-3.44,0-6.91-.43-10.34-.24a226.64,226.64,0,0,1-24.45.26c-7.37-.36-14.75-.83-22.08-1.62-6.51-.71-12.84-.53-19.09,1.56a10.82,10.82,0,0,0-6.79,6,32.46,32.46,0,0,0-2.57,13.29,194.87,194.87,0,0,0,1.67,23c.49,4.35,1,8.71.31,13.14a88.15,88.15,0,0,0-.95,11.25c-.23,10.67-.29,21.34-.43,32a44.11,44.11,0,0,1-.25,5.64c-1.19,8.16-.16,16.32-.1,24.48,0,3.76.4,7.52.55,11.28.08,1.84,0,3.68,0,5.59,1.43-.39,2.54-.82,3.51.53,2.2,3.05,4.55,6,6.78,9,2.87,3.91,2.87,8.18,1.14,12.48a34.66,34.66,0,0,1-2.92,4.81c-.53.86-1.05,1.73-1.61,2.65a16.42,16.42,0,0,0,8.66,3l28.74,1c2.67.1,5.35.13,8,.37,5.16.48,10.28,1.26,15.44,1.59,7,.45,14.1.8,21.15.8,6.75,0,13.47,1,20.23.3,3.89-.41,7.81-.6,11.73-.76a49.7,49.7,0,0,1,7,.15c2.12.22,4.36-1,6.39.5a.93.93,0,0,0,.86-.1c1.69-1.31,3.63-.65,5.47-.72,4.95-.17,9.91,0,14.86-.42,5.3-.48,10.6-1,15.91-1.3,9.1-.5,18.21-.86,27.31-1.23a27.66,27.66,0,0,1,3.74.26,8.18,8.18,0,0,0,5-.77,15.5,15.5,0,0,1,6.32-1.67,32.51,32.51,0,0,0,10-2.55c4.13-1.82,7.74-4.06,9.33-8.68a36,36,0,0,1,2.9-5.35l2.2.85c3-6.42,3.3-9.81,3.36-16,.08-8.68-1.9-17.15-2.63-25.75a19.28,19.28,0,0,0-.69-2.74c-.24-1.06-.45-2.14-.62-3.22a46.79,46.79,0,0,1,1.11-18.21,28.07,28.07,0,0,0,1-5.56c.14-6.12.11-12.24.05-18.37,0-1.71-.48-3.42-.56-5.14-.22-4.55-.36-9.11-.49-13.66-.12-4.11.08-8.14,1.92-12a29.62,29.62,0,0,0,2.26-8.14,113.09,113.09,0,0,1,2.67-11.45,42.85,42.85,0,0,0,1.78-13.95C738.7,274.56,738.29,270.82,737.93,266.72Zm-243.71,0c-2.36-.08-4-.19-5.67-.19-1.1,0-2.19.1-3.29.2-4.81.43-9.54,1.44-14.48,1-2.6-.23-5.8-.33-7.66,2.56a.48.48,0,0,1-.39.16c-2.39-.22-2.84,1.79-3.36,3.27A30.51,30.51,0,0,0,457.91,289c.83,5.1,2,10.15,3,15.22.43,2.15,1,4.29,1.25,6.46.67,5,1.08,10,1.84,14.95,1.32,8.58,1,17.23,1.23,25.85,0,.31-.07.62-.09.94-.32,4.38-.63,8.76-1,13.14a121.16,121.16,0,0,0,1.06,28.67c1.41,8.71,2.43,17.42,1.87,26.26a3.71,3.71,0,0,0,.39,1.27l17.32-3.34a36.66,36.66,0,0,0,.79-11.37,239.19,239.19,0,0,1-.54-31.56c.41-7.84.84-15.68.88-23.54,0-7.39.89-14.72,1.61-22.06a85.81,85.81,0,0,0,.09-19.29c-.3-2.33-.63-4.66-.86-7s-.41-4.69-.55-7c-.28-5.18-.6-10.36.56-15.48.75-3.34,1.52-6.68,2.2-9.67Zm16.65,212.87c-4.17-2-6.87-5-9.57-8a6,6,0,0,0-4.6-1.93c-6.65-.17-12.6-2.08-16.85-7.66-.17-.21-.55-.26-.92-.43-4.51,1.95-9.06,4-13.68,5.9-3.63,1.49-7.34,2.84-11.38,2.3a4.1,4.1,0,0,0-4.84,2.69,10.81,10.81,0,0,1-3.69,4.1c-3.53,2.76-7.26,5.37-9.8,9.21a3.88,3.88,0,0,1-1.39,1.25,9.42,9.42,0,0,0-3.29,3.23c-2.19,3.05-4.62,5.92-6.84,8.94-1.54,2.1-2.08,4.66-3.15,7,.61.2.91.41,1.19.38,7.16-.71,14.34-.86,21.47-2.33A134.12,134.12,0,0,0,468.25,497c5.49-2.27,10.75-5.09,16.08-7.74a67,67,0,0,1,20.48-6.71A9.89,9.89,0,0,0,510.87,479.61Zm-14.5-54.79c-3.33,0-6.14.15-8.94,0-6.11-.38-11.8,1.27-17.41,3.35-4,1.47-7.94,3-11.86,4.57a18,18,0,0,0-4.49,2.51c-3.17,2.55-6.21,5.26-9.24,8a21.69,21.69,0,0,0-3.2,3.44c-1.68,2.32-2.89,4.87-2.6,7.87a5.59,5.59,0,0,0,1.79,3.68c2.57,2.51,5.81,2.93,9.07,3.38,6.34.88,12.12-1.14,17.72-3.69a113.2,113.2,0,0,0,11.28-5.8,54.2,54.2,0,0,0,17-15.37C498.17,432.88,497.73,429.15,496.37,424.82Zm240.21,22.6c-1.9-2.84-.83-5.28.2-7.78.9-2.18,1.54-4.46,2.44-6.63a19.88,19.88,0,0,0,1.56-7.79c0-6.92.1-13.84.06-20.76,0-3.45-.22-6.91-.36-10.36-.19-4.55-.38-9.1-.6-13.65s-.78-9,.11-13.53c.54-2.72.09-5.64.15-8.47,0-1.72.17-3.45.25-5.17.09-1.88.14-3.76.27-5.64.51-7.35,1.05-14.7,1.57-22.06,0-.15.08-.3.1-.46,1.37-10.41,4.22-20.62,4.36-31.21a4.81,4.81,0,0,1,.1-.93c1.19-5.9,1-11.88,1.07-17.84,0-2.82.25-5.64.4-8.46,0-.79.17-1.56.21-2.35a4.49,4.49,0,0,0-3.07-4.76c-2.47-1-4.84-2.28-7.37-3.09a49.21,49.21,0,0,0-12.4-2.57c-5.86-.3-11.52,1.34-17.33,1.4a66.91,66.91,0,0,0-8,.75c-7.7,1-15.39,2.16-22.44,3.15a73.88,73.88,0,0,0,14.39-.1,136.12,136.12,0,0,1,18.84-.61,70.16,70.16,0,0,0,9.37-.58,31.38,31.38,0,0,1,14.39,1.63c3.7,1.41,6.6,3.69,6.66,8.15a4,4,0,0,0,1,3,3,3,0,0,1,.63,1.64q.54,3.72,1,7.47a16.4,16.4,0,0,1,.16,3.28c-.5,5.61-.49,11.3-2.48,16.71a12.7,12.7,0,0,0-.54,2.77,35.59,35.59,0,0,1-3.23,10.3,31.61,31.61,0,0,0-2.85,13.73,159.85,159.85,0,0,0,1,16.94c.9,8-.16,16,0,24a10,10,0,0,1-.28,1.86c-.42,2.32-.92,4.63-1.24,7A32.9,32.9,0,0,0,735,389a77.52,77.52,0,0,1,2.14,19.62c-.06,5-.2,10.07-.07,15.09a21.58,21.58,0,0,1-2.54,10.39c-1.54,3.08-2.79,6.29-4.13,9.46a7.16,7.16,0,0,1-2.84,3.65c-5.5,3.26-10.63,7.38-17.52,7.35-.48,0-1,.46-1.44.7,3.09.7,6,.6,9,.81C725.24,456.63,731.1,453.23,736.58,447.42Zm-402.28,93c5.32,8.86,11.28,17.23,17.27,25.92a18.74,18.74,0,0,0,11.68-6.11,47.22,47.22,0,0,0,7.67-11.8c2-4.45,3.76-9,5.65-13.47a22.51,22.51,0,0,0,1.72-5.3C371,529.24,345.07,535.59,334.3,540.45Zm334.31-81.93c-2.17-.91-4.36-.65-6.53-.56-6,.24-11.92.53-17.88.75-3.45.13-6.91.1-10.37.23-4.08.16-8.15.5-12.23.59-2.51.05-5-.4-7.52-.29-6.59.3-13.16.83-19.77.45-5.93-.33-11.94.68-17.79-1.08a7.8,7.8,0,0,0-1.88-.07l-25.92-.78c-.78,0-1.56-.18-2.34-.24-2.5-.21-5-.52-7.5-.59-5.18-.13-10.37,0-15.56-.22-4.7-.18-9.38-.61-14.07-1a12.42,12.42,0,0,1-3.23-.55c-3.24-1.17-6.44-2.46-10.22-3.92-.9.3-2.71.4-3.75,1.34-2.52,2.28-6,3.35-8,6.4a6.79,6.79,0,0,0,6.3,3.63l24.5.83c4.87.16,9.76.08,14.6.57a74.57,74.57,0,0,0,11.76.42c2.51-.15,5-.2,7.53-.35s5-.38,7.53-.54,5.3-.29,8-.44c2.45-2.05,4.75.48,7.14.24.15,0,.31,0,.47,0l12.67-.95c3.13-.23,6.27-.68,9.4-.65,8.17.08,16.35-.27,24.51.53a46.63,46.63,0,0,0,8-.13q15.51-1.12,31-2.42C661.18,459.41,664.89,458.93,668.61,458.52ZM322.14,404.15c-1.12,1.66-2.38,3.25-3.34,5A43.44,43.44,0,0,1,308,422c-6.34,5.17-12.79,10.1-21.05,11.94-5.73,1.27-11.5,1.12-17.28.82A13.74,13.74,0,0,1,267,434c-2.55-.73-5.1-1.49-7.67-2.12-.62-.15-1.5-.72-2.1.4,2.13,4.48,6.18,6.9,10.23,9.27a19.75,19.75,0,0,0,11.29,2.74c4.67-.29,9.4-.57,13.91-2.1a19.22,19.22,0,0,1,4.1-1c2.88-.29,5.4-1.53,8-2.62a8.29,8.29,0,0,0,3.55-3,106,106,0,0,0,9.27-14.7A40.55,40.55,0,0,0,322.14,404.15Zm-6.69-56c3.11-2,4.32-4,4.46-7.46-1.42.14-2.82.37-4.21.39a5.74,5.74,0,0,1-5.89-4.47,14.31,14.31,0,0,1,.17-7.46,4.89,4.89,0,0,1,3.75-3.82c1-.24,2.08-.55,3.24-.87,0-2.91-2.12-4.52-3.48-6.5a6.39,6.39,0,0,0-3.66-2.83c-1.56-.38-3.18-.6-4.48.56a6.88,6.88,0,0,0-2.56,4.39,71.47,71.47,0,0,0-.55,10.32,22.49,22.49,0,0,0,2.57,9.94C307.17,344.55,310.56,347.34,315.45,348.15Zm193.92,122c1,2.16,2.67,2.61,4.24,3.23,6.71,2.65,13.76,3.12,20.83,3.12,6.48,0,12.82-1,18.57-4.36.67-.39,1.47-.64,1.36-1.85-2.18.12-4.37.25-6.55.33-3.45.13-7,.64-10.34.21a140.28,140.28,0,0,0-15-.87C518.09,469.87,513.73,470.07,509.37,470.15Zm70.12-204.78a15.58,15.58,0,0,0,2.68.38c1.25,0,2.49-.32,3.73-.38,12.05-.63,24.12-.68,36.13-2,7.15-.81,14.34-1.37,21.51-2.1a5.46,5.46,0,0,0,1.7-.86C623.2,261,601.43,263.29,579.49,265.37ZM255.31,562.54a2.76,2.76,0,0,0-1.65-3.29c-1.24-.69-2.36-1.45-2.56-3.07a2.28,2.28,0,0,0-1.42-2.2c-.68-.21-1.58.7-2,2.18a5.64,5.64,0,0,0-.4,2.7c.24,1,.87,2.37,1.59,2.56C250.88,562,252.81,563.36,255.31,562.54Zm71.46-35c-.55.82-1.09,1.28-1,1.56A4.35,4.35,0,0,0,329,532.3l4-1.33a24.47,24.47,0,0,1-3.29-1.25A31.26,31.26,0,0,1,326.77,527.51ZM345,586c.48,1.53,1.24,2.19,2.42,2.17.81,0,1.12-.23,2.16-1.79ZM243,420.12c.19-.18.69-.42.74-.73.17-1.09-1-2.57-1.76-2.18a2.48,2.48,0,0,0-1.27,1.66C240.77,420.05,241.87,420.1,243,420.12ZM362.74,596.74c-1.45-2.85-1.46-2.88-3.34-2.29-.3.1-.48.54-.93,1.08Zm192.45-331v.15h4.52v-.15ZM371.6,510.74c2.4,2.27,2.68,2.25,3.92-.18ZM334,515.63c-.3.44-.55.8-.78,1.18,0,0,.27.29.32.27.38-.19.73-.42,1.09-.64Zm-31.73,50.48v-.43h-1.8v.43Zm18-44.68a5.11,5.11,0,0,0,.18-.75c0-.08-.26-.26-.31-.24a4.15,4.15,0,0,0-.52.42Zm94-1.75c-.26-.1-.65-.34-.73-.26a2.1,2.1,0,0,0-.36.8c.24.1.62.33.7.26A2.39,2.39,0,0,0,414.24,519.68Zm-24.84-9.25a5.29,5.29,0,0,0,.83-1c.07-.13-.14-.56-.32-.65-.51-.25-1.19.35-1.07.95C388.88,510,389.16,510.15,389.4,510.43Zm126.22-28.17.79-.32c-.22-.15-.45-.44-.64-.42a2.92,2.92,0,0,0-.92.42Zm25.09-215.73-.33.14.35.12ZM263.91,562.85l-.31.18.18.29.48-.32Zm48.92,6.9c-.1-.11-.21-.31-.28-.3a5,5,0,0,0-.75.24c.1.1.21.3.29.29A4.2,4.2,0,0,0,312.83,569.75Zm54.67,27.16a.76.76,0,0,0-.32-.11c-.05,0-.08.17-.13.27.11,0,.22.12.32.1S367.46,597,367.5,596.91Z"/><path d="M202.48,193.38a33.85,33.85,0,0,1,1.09,4.6,6.39,6.39,0,0,0,1.25,3.45c1.44,1.92,1.3,4.16.59,6.3a17,17,0,0,1-6.34,8.59,15.77,15.77,0,0,1-13.93,2.24,34.58,34.58,0,0,1-6.83-3.15,5.85,5.85,0,0,1-2.5-2.64c-1-2.45-1.57-5.08-2.49-7.57s-1.4-5.1-.35-7.84c-1.66-.63-3.14-1.11-4.56-1.74-4.88-2.14-8.53-5.82-11.81-9.86a31.6,31.6,0,0,1-4.83-8c-3.14-7.82-2.6-15.67-.26-23.51,1.22-4.09,2.82-8,6.18-10.93a3.6,3.6,0,0,0,.83-1.14c1.62-3.61,4.82-5.28,8.25-6.55,8.86-3.27,17.9-4.65,27.22-2.06a17.9,17.9,0,0,0,2.28.52,10.61,10.61,0,0,1,6.49,3.53c3.3,3.78,6.63,7.61,8.85,12.15a26.3,26.3,0,0,1,2.28,7.62,58.51,58.51,0,0,1,.85,11.72,40.89,40.89,0,0,1-4.17,15.83,20,20,0,0,1-3.87,4.69C205.41,190.94,203.92,192.11,202.48,193.38Zm-27.35-17.56c-1.22-.31-2.57-.67-3.93-1-.6-.16-1.24-.22-1.82-.43a2.21,2.21,0,0,1-1.66-2.06,2.35,2.35,0,0,1,2-2.25,12.87,12.87,0,0,1,1.87-.18c2.67-.11,5.33-.32,8-.27a9.58,9.58,0,0,0,7.09-3.11c1.12-1.09,2.05-2.37,3.13-3.52a19.78,19.78,0,0,1,1.93-1.56c-.86,8.09-2.85,10.23-12.58,13.84,0,.3,0,.69.18.88,2.55,2.77,3.58,6.14,4,9.79.27,2.46.67,4.9,1,7.31,2.43.51,4.24-.44,6.26-1.18a67.27,67.27,0,0,1-1.88-7.87c-.31-2.5-1.72-5-.79-7.8,2.36,1.89,2.59,2.09,3.23,3.56,1,2.3,2,4.6,2.9,6.92a4.58,4.58,0,0,0,2.45,3.08,16.94,16.94,0,0,0,2.86-2,22,22,0,0,0,6.46-15.67c.08-2.66-.16-5.33-.19-8-.13-8.61-5-15-10.08-21.23a8.57,8.57,0,0,0-2.24-1.69,23.39,23.39,0,0,0-13.46-3.55c-2.6.12-5.16,1.12-7.74,1.73-2.66,2.63-5.94,4.57-8.12,7.78a36.23,36.23,0,0,0-6.15,18.05,18.83,18.83,0,0,0,1.24,9.25,43.53,43.53,0,0,0,8.57,12.85,18.76,18.76,0,0,0,6.7,4.22,3.27,3.27,0,0,0,4.36-1.18C178.59,185.41,176.88,180.73,175.13,175.82Zm5.66,23.05c.8,1.66,1.44,3,2,4.13,5.46,1,9.58-1.84,13.79-3.65,1.73,1.6-.6,2.7-.09,4,.7.59,1.32,1.31,2.58.87.95-3.05,0-5.83-1.27-8.44-3,.82-5.67,1.73-8.42,2.24S183.88,198.58,180.79,198.87Zm10,14.47c4-1.05,5.72-3.36,7.15-6,.11-.2-.09-.57-.13-.78l-3.74-.51C194.5,208.8,191.93,210.25,190.76,213.34Zm.82-7.2-3.91.65c-1.33.21-2.85-.11-3.81,1.48a12.82,12.82,0,0,0,1.2,1.92,1.49,1.49,0,0,0,1.24.47C188.45,209.84,190.57,208.92,191.58,206.14Z"/><path d="M706.75,291.92c-2,1.58-3.9,1.05-5.68,1s-3.43-.47-5.15-.59a24.59,24.59,0,0,0-8.86.71,32.9,32.9,0,0,1-9.77,1.35,28.9,28.9,0,0,0-9.29,1.42,64.88,64.88,0,0,1-14.25,3,23,23,0,0,0-8.42,2.78,87.47,87.47,0,0,1-18.79,7.34c-4.13,1-8.27,1.94-12.31,3.23-3.86,1.23-7.6,2.85-11.38,4.33a45,45,0,0,1-4.36,1.74,56.39,56.39,0,0,0-10.27,3.38,9.19,9.19,0,0,1-3.18.84c-4.8.45-9.6,1-14.44.32-3.7-.53-6.14,1.7-7.64,5a4,4,0,0,0,.32,2.7,14.72,14.72,0,0,1,1.23,6.43,7.22,7.22,0,0,1-.5,1.69c-1.58-.2-1.13-1.42-1.44-2.17s-.54-1.8-.88-2.67-.77-1.67-1.23-2.65c-2.36.52-3.09,2.2-3.52,4a12.55,12.55,0,0,0,0,2.81c0,1.41.07,2.83,0,4.23-.22,4.39-.48,8.78-.75,13.16a50.31,50.31,0,0,0,.72,14.06,76,76,0,0,1,1.62,17.31c-.08,4.06.44,8.15.74,12.22a75.59,75.59,0,0,1-.09,14.11,75.26,75.26,0,0,0,.26,16.9c.57,5,1.44,9.94,1,15a10.62,10.62,0,0,1-.62,2.09c-1.47-.33-1.5-1.4-1.55-2.28-.24-4.7-.4-9.41-.59-14.12a13.09,13.09,0,0,0-.11-2.35c-1.55-6.7-.58-13.46-.65-20.2-.06-5-.58-10-.84-15-.16-3.13-.39-6.28-.27-9.4.24-6-1.08-11.88-1.93-17.78a19.57,19.57,0,0,1-.53-2.77c.06-6.28-.58-12.57.44-18.82.43-2.63.91-5.22.34-7.95a5.57,5.57,0,0,1,2.55-6.14,8.64,8.64,0,0,0,3.06-3.41,9.22,9.22,0,0,1,7.31-5.28c1.86-.23,3.7-.59,5.57-.8,3.73-.42,7.48-.73,11.21-1.19a17.74,17.74,0,0,0,3.64-.95c2.82-1,5.57-2.15,8.43-3a57.47,57.47,0,0,0,7.83-3.11A65.54,65.54,0,0,1,614,309c2.87-.76,5.87-1,8.77-1.68a45.83,45.83,0,0,0,7.16-2.27c3.89-1.64,7.69-3.53,11.52-5.32a13.24,13.24,0,0,0,2.54-1.22c3.42-2.64,7.45-3.11,11.53-3.38a43,43,0,0,0,13.28-2.87,24,24,0,0,1,6-1.06c4.36-.51,8.76-.81,13.11-1.4A41.78,41.78,0,0,1,705.53,291C705.81,291.12,706,291.4,706.75,291.92Z"/><path d="M562.4,377.56c-.16-3.59-.77-6.42-.32-9.35.51-3.38.91-6.78,1.23-10.18a11.8,11.8,0,0,0-.43-2.77,44.48,44.48,0,0,1-.17-14c1.48-.37,1.68.64,1.78,1.54.36,3.26.79,6.53.91,9.81.11,2.77,1.23,5.44.24,8.35-.88,2.62.25,5.58-1,8.31-.41.91-.06,2.16-.1,3.25A6.19,6.19,0,0,1,562.4,377.56Z"/><path d="M563.47,426.36a6.11,6.11,0,0,1,.72,2c-.06,4-.2,8.06-.39,12.09,0,.5-.52,1-1,1.78-1.3-3-.41-5.58-.28-8.15s0-5,0-7.45Z"/><path d="M564,419.56c-1-3.45-1.43-11.57-.76-14.85,1.37,2.4,1.33,4.81,1.41,7.07a29.27,29.27,0,0,0,.46,6.05A1.33,1.33,0,0,1,564,419.56Z"/><path d="M563.47,386.83c-1-1.06-1.69-1.48-1.71-1.92a47.22,47.22,0,0,1,.18-5.58c0-.25.73-.68,1-.61a1.24,1.24,0,0,1,.74,1C563.71,381.72,563.59,383.74,563.47,386.83Z"/><polygon points="581.63 343.29 581.82 343.05 581.96 343.37 581.63 343.29"/><path d="M587.44,342.28c.1.05.26.07.29.15a1.11,1.11,0,0,1,0,.41l-.5-.21Z"/><path d="M238.64,315.16l-5.5,1.11c-.71-1.24,0-1.66.68-2,3.87-2.23,8.19-3.17,12.48-4.12a37.85,37.85,0,0,1,6.55-.73,16.41,16.41,0,0,1,12.74,5.07,27.53,27.53,0,0,1,5.71,8c2.33,5,5.17,9.7,7.79,14.53a29.4,29.4,0,0,1,3.42,11.67c.4,4.86.76,9.68-.23,14.54-.47,2.29-.26,4.71-.63,7-.89,5.61-2.26,11-6.8,15-1.87,1.65-3.38,3.68-5.78,4.74-6.85,3-13.36,2.49-19.78-1.29C245,386.12,242,382.33,239,378.44c-4.94-6.55-7.47-14-8.45-22.11a127.5,127.5,0,0,1-1.37-20.19,36.94,36.94,0,0,1,4.57-15.68C234.71,318.62,236.63,317.29,238.64,315.16Zm31.17,23.59a134.34,134.34,0,0,0-9-17.31,12.3,12.3,0,0,0-5.44-5c-3.94-1.65-7.24-1.69-9.2.57s-4.44,4.49-5.48,7.57c-1.5,4.45-3,9-3.11,13.68a62.39,62.39,0,0,0,1.47,16.84,48.93,48.93,0,0,1,1.58,8.26,18.1,18.1,0,0,0,2,7.21,47.91,47.91,0,0,0,11.63,14.63c3.17,2.62,6.71,2.38,10.11,1,4.07-1.64,6.21-5.3,7.31-9.28a97,97,0,0,0,2.22-12.48,56.92,56.92,0,0,0,.38-7.5,9.72,9.72,0,0,0-.79-2.65c-.79.61-1.25,1-1.78,1.36a12.54,12.54,0,0,1-8.57,1.78,6.18,6.18,0,0,1-5.6-6.43,12,12,0,0,1,4.53-9.89A10.37,10.37,0,0,1,269.81,338.75Z"/><path d="M971.56,465.25c.41-9.15-.65-18.22-1.88-27.24-.94-6.95-1.82-13.89-2.21-20.89a26.53,26.53,0,0,0-.42-4.38,82.62,82.62,0,0,1-1.84-21.84,40.14,40.14,0,0,0-.21-4.38q-.6-8.5-1.22-17c0-.33,0-.66,0-1,.14-3.56.53-7.13.36-10.68-.18-4,.43-7.78.75-11.67.31-3.7.76-7.45-.18-11.15q-1.33-5.2-2.68-10.4a7.6,7.6,0,0,0-5-5.59c-.91-.33-1.73-.89-2.61-1.31s-1.71-.75-2.48-1.08v-8.8c-2-.75-2.56-3.88-4.83-4-5.77,1.41-11,2.7-16.2,4a7,7,0,0,1-1.46.08,90.59,90.59,0,0,1-21.27-2.09c-4.76-1-9.5-2.16-14.23-3.34-5.36-1.33-10.77-2.45-16.07-4.08-8.87-2.73-18-4.54-26.74-7.73-5.34-2-11-2.79-16.23-5.33a20.17,20.17,0,0,0-5.64-1.51c-6.28-1-12.56-2-19-2-4.56,0-9.19-.17-13.61,1.1-10.39,3-20.27,7.24-29,13.74-4.14,3.09-8.17,6.44-10.48,11.66-.77,0-1.34.17-1.72,0a50.74,50.74,0,0,1-6.37-3.57,40.32,40.32,0,0,0-3.42-2.19c-.16,2.57-.32,5.14-.55,7.7l0,.29c.64.23,1.28.46,1.92.71s1.21.47,1.8.74a3,3,0,0,1,1.88,3.11c-.67,10.53,1.51,20.77,3.44,31a91.88,91.88,0,0,1,1.66,18.46c-.1,6.24.81,12.36,1.3,18.54.25,3.25.75,6.5.74,9.75,0,10.93-.38,21.86-.4,32.79,0,10.41-.22,20.84.84,31.23.22,2.1.3,4.21.4,6.32.45,9.44.92,18.88,1.32,28.33a110.14,110.14,0,0,1,.25,12.71c-.57,7.67-.23,15.33-.2,23,0,3.88.81,7.76,1.27,11.64.15,1.29.5,2.58.54,3.87.21,6.35.34,12.71.52,19.06.08,2.77.23,5.54.33,8.31.09,2.55-.37,4.79-2.61,6.49a11.26,11.26,0,0,0-2.24,3.16c-4.11,6.58-10,11.09-17,14.19a8.17,8.17,0,0,1-3.8.57c-8.61-.72-17.23-1.36-25.81-2.4-13.46-1.63-26.52-5.23-39.62-8.62a159.12,159.12,0,0,0-30.86-5,101.7,101.7,0,0,0-20,1c-7.15,1-13.95,3.2-20.86,5.1a91.75,91.75,0,0,0-20.52,9,10.62,10.62,0,0,1-5.5,1.8c-1-2.75-.28-5.33,0-7.88.85-8.27,1.84-16.53,2.7-24.8.39-3.72.78-7.47.86-11.21.15-7.19-.73-14.31-1.54-21.46-1-8.78-3-17.33-4.66-26-1.35-7.06-3.06-14-4.76-21a39.62,39.62,0,0,1-.63-4.35,53.35,53.35,0,0,0-.72-5.83,47,47,0,0,1-1.18-7.87,20.53,20.53,0,0,1-7.41-.06c1.16,7.78,2.2,15.58,4.36,23.18.48,1.72.85,3.48,1.18,5.24,1.94,10.58,4,21.14,5.76,31.75a116.81,116.81,0,0,1,1.71,26.8c-.13,1.94-.62,3.87-.7,5.82-.44,10.11-1.44,20.16-2.64,30.2a13.6,13.6,0,0,0,2.31,9.73c.75,1.07,1.41,2.19,2.22,3.44-.24,1.13-.5,2.38-.73,3.47,1,2,2.25.61,3.36.42.12.14.28.24.31.38a3.09,3.09,0,0,1,.11,1c-.18,4,1.67,7.2,4,10.24,1.67,2.16,4.07,3.16,6.32,4.43a14.38,14.38,0,0,0,13.16.85,26.76,26.76,0,0,1,3.72-1.17c4.58-1.13,9.2-2.16,13.77-3.34a202.66,202.66,0,0,1,22.4-4.76,243.36,243.36,0,0,1,26.82-1.92c12-.33,23.72,1.68,35.39,4.07,7.51,1.53,14.94,3.45,22.45,4.92A98.39,98.39,0,0,0,733.58,621a9.17,9.17,0,0,0,6.69-2.43,57.07,57.07,0,0,1,6.78-4.29c2.93,1.24,5.22,2.73,7.7,3.16,8.88,1.56,17.8,2.39,26.15-2.44a29,29,0,0,1,2.41,1.92c4.1,4,9.09,6,14.63,7.32a119.3,119.3,0,0,0,14.52,1.93c9,.94,17.88.26,26.79-.86,2.94-.37,5.61-1.59,8.45-2.21,3.65-.81,7.38-1.29,11.08-1.91,6.41-1.09,12.87-2,19.23-3.35a93,93,0,0,1,11.58-1.63c2.76-.23,5.51-.65,8.27-.89a43.06,43.06,0,0,1,12.67.33,28.13,28.13,0,0,0,3.87.53,65.17,65.17,0,0,1,14.92,2.41,18.33,18.33,0,0,0,5.74,1,36.57,36.57,0,0,1,9.66,1.23c4.82,1.17,9.56,1.27,14.33-.84a14.43,14.43,0,0,0,8.7-9.84,51.12,51.12,0,0,0,1.56-21.29,87.17,87.17,0,0,1-.73-11.17c-.09-4.39-.35-8.77-.45-13.16-.13-5.54-.28-11.08-.25-16.62,0-6,.24-12.07.4-18.1.07-2.44.07-4.89.37-7.31a102.86,102.86,0,0,0,.93-15.59c0-1.28.37-2.57.44-3.86.24-4.38,1.17-8.68,1.13-13.09a120.65,120.65,0,0,1,.61-12.17c.13-1.45.15-2.88.26-4.29C972.22,470.66,971.44,468,971.56,465.25ZM735,603.63a2.21,2.21,0,0,1,.15.27l-.42.29Zm-64.39-11.9,0,.29H667Zm-63-.89a12.46,12.46,0,0,1,1.88-1.41,49.62,49.62,0,0,1,12.57-3.69,70.46,70.46,0,0,1,7.24-.88,35.55,35.55,0,0,1,6.67.24c-9.61,1.34-19.22,2.58-28.4,5.86l-.15,0Zm-6.79.77L603,592l-2.18.28Zm-6.1,2.22c.15-.09.49.16.75.27-.13.07-.25.2-.39.22a6,6,0,0,1-.74.1C594.45,594.18,594.54,593.93,594.72,593.83Zm-1.39.75a2,2,0,0,1,.7,0,3.88,3.88,0,0,1-.52.55c-.1.08-.31,0-.46,0C593.14,595,593.19,594.63,593.33,594.58Zm-3,1.25c.07,0,.07.18.09.28l-.36.16-.12-.51A1.18,1.18,0,0,1,590.36,595.83ZM693.91,604c-9.58-2-19.13-4.08-28.74-5.9a81.89,81.89,0,0,0-33,.07c-8,1.75-15.94,3.43-23.9,5.23a41,41,0,0,0-5.07,1.74c-2.59,1-5.18,2-7.76,3a19.34,19.34,0,0,0-2.22,1c-.2.11-.25.5-.54,1.1,3.05-.45,5.93-.73,8.75-1.34,8.28-1.78,16.53-3.76,24.82-5.51,4.78-1,9.61-1.74,14.43-2.58a21.91,21.91,0,0,1,2.43-.2c7.85-.4,15.63-.12,23.27,1.91.95.25,1.87.58,2.82.79a3.9,3.9,0,0,1,2.21.92l-11,.06a172.76,172.76,0,0,0-27.71,2.65c-3.69.62-7.43,1-11,1.89-5.53,1.34-11,3-16.46,4.55-4.08,1.14-8.16,2.28-12.25,3.39a29.4,29.4,0,0,1-3.35.73,7.83,7.83,0,0,1-8.41-3.74,17,17,0,0,1-2.55-10.32c5.77-2.46,11.44-4.9,17.14-7.28,1.49-.62,3.09-1.45,4.63-1.43,5.65.07,10.86-2.08,16.33-2.83,3.55-.49,7.11-.89,10.67-1.32,4.2-.49,8.4-.94,12.59-1.46a69.93,69.93,0,0,1,26.17,1.8c.34.09.54.69.8,1.07a3.65,3.65,0,0,0-1.27-.57c-9.27-.31-18.55-.92-27.81-.76A78.38,78.38,0,0,0,611.2,596c-4.24,1.62-8.61,2.94-12.93,4.37-2.62.88-5.28,1.67-7.89,2.58-1.65.57-3.26,1.29-5.59,2.23,1.05.26,1.41.47,1.7.4,1.42-.35,2.83-.77,4.23-1.18,3.26-.94,6.41-2.28,9.93-2.24a17.52,17.52,0,0,0,4.75-1.07c4.22-1.2,8.44-2.42,12.64-3.7a75.54,75.54,0,0,1,19.74-2.92,141.25,141.25,0,0,1,18.06.28c9.86,1,19.76,1.81,29.35,4.67,6.23,1.86,12.52,3.52,18.54,6a3.31,3.31,0,0,1,.87.69C701,605.44,697.46,604.77,693.91,604Zm11.53,2.78a3.09,3.09,0,0,1-.33-.39l.68.25C705.67,606.73,705.48,606.86,705.44,606.82Zm9.54-2.77c-2.35-.47-4.88-.47-7.2-2.55a15.59,15.59,0,0,1,2.74.18,68.08,68.08,0,0,0,21.21,2.47,10.44,10.44,0,0,1,2.51.37,14.41,14.41,0,0,1-11.11.93C720.53,604.63,717.69,604.59,715,604.05Zm10.43,10.6c1.81-.66,2.51-1,3.25-1.19,3.29-.79,6.58-1.54,9.86-2.31C735.13,614.75,731,615.2,725.41,614.65Zm37.18-185.91c-.05-13.37.14-26.74,0-40.11A113.57,113.57,0,0,0,761.43,374a59.31,59.31,0,0,1-.17-13.18,41.62,41.62,0,0,0-.8-12.14c-.77-3.66-1.34-7.38-1.93-11.08-.56-3.53-1-7.1-1.58-10.63a42.6,42.6,0,0,1-.34-13.15c4.72-2.28,8.52-5.81,12.32-9.29a44.15,44.15,0,0,1,11-7.22,103.75,103.75,0,0,1,16.44-6.2,21,21,0,0,1,7.26-.63c2.59.18,5.2,0,7.8.13a90.47,90.47,0,0,1,11.66,1.17c9.57,2,19.09,4.11,28.47,6.95,8.25,2.5,16.69,4.38,25,6.62a253.47,253.47,0,0,0,31.51,6.74,98.82,98.82,0,0,0,21,1c1.46-.12,2.9-.41,4.35-.64l11.28-1.83a9.71,9.71,0,0,1,.31,2.57c-.48,2.72-1.07,5.42-1.67,8.12-.78,3.5-1.74,7-2.39,10.48a22.94,22.94,0,0,0,.82,11.09,50.5,50.5,0,0,1,2.33,12.95c0,1.46.48,2.9.57,4.36.22,3.41.46,6.83.48,10.24,0,4.4-.19,8.8-.28,13.2s.07,8.78-.75,13.16a34.2,34.2,0,0,0-.37,8.28,66.82,66.82,0,0,1-.83,15.08,59.2,59.2,0,0,0-.88,11.19c.16,6.21-.18,12.38-.59,18.57a47.72,47.72,0,0,0,1.12,13.1c.92,4.3,1.26,8.75,2.46,13,2.48,8.67,3.41,17.57,4.59,26.44a27.85,27.85,0,0,1,.1,3.42c.08,9.13-.05,18.26.28,27.38a166.5,166.5,0,0,1-.73,25.85q-1.17,9.95-2,19.93c-.33,4.06-.33,8.15-.46,12.22,0,1.27,0,2.54,0,4.41-1.12-1-1.79-1.61-2.48-2.19s-1.31-1-1.9-1.53c-3-2.73-6.52-4.2-10.27-5.44-8.15-2.68-16.56-3.34-25-3.83-3.26-.19-6.55-.71-9.73,0-6.22,1.33-12.58,1.39-18.83,2.56-6.55,1.22-13.21,1.89-19.75,3.28-5.9,1.25-11.79,2.5-17.71,3.64a49.85,49.85,0,0,1-8.22,1.13c-6.84.18-13.69.27-20.53.06a86.84,86.84,0,0,1-15.56-1.41,168.13,168.13,0,0,1-21.08-6.11,17.41,17.41,0,0,1-8.7-6.37c2.38-5.14,2.1-10.61,1.63-16.12-.41-4.87-.89-9.74-1.06-14.61a63.68,63.68,0,0,0-1.08-10.66,49.68,49.68,0,0,1-.81-9.21c-.09-8.47.09-17,0-25.42-.07-5.54-.43-11.06-.66-16.6-.35-8.3-.68-16.61-1-24.91a35.81,35.81,0,0,0-.4-4.87C761.91,447.65,762.63,438.18,762.59,428.74ZM868.08,596.89c0,.15-.05.3-.08.45l-2-.45Zm-2.1,0c-.33.47-.51,1.27-.92,1.42-9.29,3.54-18.59,7-28.46,8.61a12.71,12.71,0,0,1-3.89,0C843.47,602.4,854,597.31,866,596.9Zm-40.78,7.44c-4.64,2.44-8,4.5-12.56,4.43-5.37-.07-10.73-.28-16.08-.59a75.78,75.78,0,0,1-9.61-1.67c-.23,0-.4-.44-1.24-1.43,1.72.13,2.66.14,3.59.28,1.6.23,3.21.48,4.8.82,9.49,2.05,18.8.41,28.1-1.36C822.82,604.7,823.45,604.61,825.2,604.34Zm-51-11.35a.88.88,0,0,1-1,0c.3,0,.64,0,1,0Zm-2-1.1a8.84,8.84,0,0,1-.84.36,1.75,1.75,0,0,1-.46,0c.13-.13.25-.33.41-.37a4.29,4.29,0,0,1,.88,0Zm4.31,9.88c-2.83-1.59-5.61-3.25-8.44-4.84-.83-.47-1.73-.81-3.27-1.51.69,5.68,5.76,6.05,8.49,9-5.5,2.81-11.15,3.2-16.91,3a7.84,7.84,0,0,1-5.59-2.16c1.15-1.55,2.3-3,3.39-4.56s2.3-3.16,3.28-4.84,1.61-3.58,3.7-4.44a5.12,5.12,0,0,1,1.27.42c4.52,2.85,8.81,6.09,14,7.76a10.89,10.89,0,0,1,2.68,2C778.16,602.8,777.29,602.21,776.51,601.77Zm-1.94-7.19c-.77-.36-.62-1-.29-1.57,5.81,1.61,11.49,3.58,17.33,4.75,5.09,1,10.36,1.09,15.54,1.61a48.45,48.45,0,0,1,9.22,1.56,22.24,22.24,0,0,1-2.48.78,64.5,64.5,0,0,1-22.3-.12C785.23,600.55,780.11,597.21,774.57,594.58Zm188.87-96.22c-.34,5.35-1.17,10.67-1.6,16-.68,8.6-1.12,17.21-1,25.85s-.24,17.28-.15,25.92a238.44,238.44,0,0,0,1.6,28.26,43.09,43.09,0,0,1,.34,7.27,31.91,31.91,0,0,1-1,7.24c-1.57,5.5-1.78,5-6.63,5.44a43.05,43.05,0,0,1-16-1.5,55,55,0,0,0-5.77-.93c-5-.85-9.95-1.69-14.91-2.6-7.92-1.45-15.91-1.47-23.9-1.27-9.62.25-19.06,1.93-28.44,3.94-3.83.82-7.69,1.46-11.53,2.21-5.59,1.08-11.2,2.12-16.78,3.29a70.64,70.64,0,0,1-17.94,1.5c-4.56-.22-9.12-.27-13.68-.51a46.91,46.91,0,0,1-17.85-4.59,7.55,7.55,0,0,1-4.19-3.61,21.84,21.84,0,0,1,2.62,0c4.84.67,9.65,1.8,14.51,2a207.52,207.52,0,0,0,30.74-.57A82.73,82.73,0,0,0,850.58,608a9.24,9.24,0,0,1,4.68-.16c3.18.48,6.49.12,9.74.06,6.77-.13,13.55-.24,20.31-.48,3.91-.14,7.8-.53,11.7-.77,9.26-.56,18.47-2.17,27.8-1.38a55.25,55.25,0,0,1,8.21,1.19c1.65.41,3.12,1.53,5.37,2.69.1-.82.4-1.51.19-1.94a8.6,8.6,0,0,0-7.39-4.9,123.94,123.94,0,0,0-14.12-.91c-9.44.22-18.88.88-28.32,1.32-5.69.26-11.39.45-17.09.65-.27,0-.54-.24-1-.48a12,12,0,0,1,5.36-2.11c4.33-.74,8.67-1.44,13-2.13,3-.48,6.14-.78,9.16-1.41,6-1.26,12-1,18-.82a34.29,34.29,0,0,1,12.29,3c2,.86,2,.91,4.61.55-.25-.44-.39-1-.74-1.21-3-1.54-6-3.36-9.22-4.41a40.58,40.58,0,0,0-11.53-1.91c-6.15-.18-12.29-.62-19.26-1a12.45,12.45,0,0,1,6.08-1.64c14-.11,27.59,2.07,40.29,8.37a38.71,38.71,0,0,1,10.11,6.78c1,.93,2,1.75,3.64,1a8.55,8.55,0,0,0,0-1.75,52,52,0,0,1-.5-16.08c.94-8.88,2.32-17.72,3.38-26.59a184.74,184.74,0,0,0,1.13-33.17c-.26-4.38-.07-8.78-.35-13.15-.53-8.11,0-16.28-1.21-24.37-.68-4.33-1.11-8.7-1.68-13.05a7.19,7.19,0,0,0-.48-1.89c-2.45-5.78-2.75-12-3.83-18.08-.34-1.92-.67-3.85-.83-5.8a57.18,57.18,0,0,1-.26-6.8c.23-7.3.46-14.6.88-21.89.22-3.9.77-7.79,1.3-11.67a30.3,30.3,0,0,0,.14-6.8,55.71,55.71,0,0,1,.08-8.27c.37-5.68,1.27-11.37,1.2-17s.35-11,.55-16.53a17.91,17.91,0,0,0-.22-2.91c-.44-3.23-.93-6.45-1.34-9.68-.54-4.2-1.2-8.36-2.14-12.49a24.39,24.39,0,0,1,2-16.68,6.34,6.34,0,0,1,4.65,5.27,63.88,63.88,0,0,1,1.64,10.12c.19,4.38-.18,8.78-.37,13.17-.12,2.77-.55,5.53-.49,8.29.16,7.16.45,14.32.81,21.47.33,6.67.71,13.34,1.27,20,.35,4.2,1.11,8.38,1.6,12.58.4,3.56.79,7.13,1,10.7A96.71,96.71,0,0,0,961.5,436c2,10.43,2.6,21,3,31.6C964.86,477.89,964.08,488.12,963.44,498.36Z"/><path d="M711.56,533.43l4.26,2.21c-.43.71-.66,1.62-1.2,1.87-1.58.73-3.28,1.18-5.57,2-.53,1.38-1.42,3.29-2,5.29a5.62,5.62,0,0,1-4.83,4.23,16.86,16.86,0,0,1-2.91.34c-4.72,0-9.45-.05-14.17,0a5,5,0,0,1-4.82-2.68c-.86-1.57-1.85-3.07-2.63-4.68a1.76,1.76,0,0,1,1.59-2.45,21.66,21.66,0,0,1,2.39.22c3.57.28,7.14.61,10.71.81a14,14,0,0,0,6.94-1.27c1.85-3.58,3.86-7.3,5.69-11.1a44.35,44.35,0,0,1,9.17-12.57,20.34,20.34,0,0,1,4.77-3.31,7.68,7.68,0,0,1,6.61-.45c1.65.66,3.41,1.06,5.15,1.58a1.18,1.18,0,0,1-1.49,1.3c-4.76-1-7.75,2.12-10.5,5A25.88,25.88,0,0,0,711.56,533.43Zm10.18-19.79a2.37,2.37,0,0,0-.79-.34,2.63,2.63,0,0,0-.82.32c.25.12.51.33.76.32A2.63,2.63,0,0,0,721.74,513.64Z"/><path d="M633.47,524c-1,7-1.79,8.13-8.49,11.94,1.59,3.51,4.93,4.81,8.18,6.22-.23.66-.25,1.25-.56,1.52a6.11,6.11,0,0,1-7.54.57,30,30,0,0,1-4.53-3.68c-3.14-3.46-7.07-5.55-11.28-7.34a39,39,0,0,1-5.06-3.29c-1.19-.25-2.89,1-4.75,1.46a5.28,5.28,0,0,1-4.21-.42c-1.25-.74-2.62-1.3-3.87-2-2-1.18-2.05-3.81,0-4.66,4.64-1.87,9.25-4.3,14.53-2.4.13,0,.3,0,.45-.05,2.33-2.42,2.47-2.5,4.79-1,1.49,1,3.11,1.71,4.15,3.31,1.74,2.68,4.41,3.16,7.32,2.55,2.54-.53,5.05-1.25,7.57-1.88C631.13,524.52,632.05,524.31,633.47,524Z"/><path d="M698.51,523.13c-4.53,2.7-8,5.18-11.78,6.89-2.89,1.3-6.22,1.64-10,2.56-.89.81-2.29,2.13-3.74,3.4-3.4,3-7.28,3.26-11.41,1.93a8.23,8.23,0,0,1-2.71-1.08c-2.75-2.21-6-2.13-9.24-2.41a20.54,20.54,0,0,1-4.31-.6c-2.61-.79-4.56-2.29-5.09-5.26-.26-1.42-1.06-2.72-1.45-4.12-.34-1.21,1.18-2.73,2.37-2.31a8.41,8.41,0,0,1,3.31,1.84,5.72,5.72,0,0,0,5.31,1.75,14.31,14.31,0,0,1,11,2.94c2.27,1.63,5.07,2,8.11,2.05-.24-2.54-3.84-3.65-2.23-6.75,3.23.07,6.6.28,10,.17,3.57-.11,7.13-.6,10.69-.79C690.62,523.16,694,522.25,698.51,523.13Z"/><path d="M678.48,464l-4.43.4-1,.09c.2.35.39.71.58,1.07a22.7,22.7,0,0,0,7.94,9.05c.39.25,1.08,0,1.68,0-1.54-3.41-3-6.49-4.31-9.59C678.73,464.72,678.61,464.37,678.48,464Z"/><path d="M664.93,480.19c-.55,3.19-.94,5.73-1.46,8.25-.34,1.68-1.87,2.26-3.2,2.75a20.18,20.18,0,0,1-11.07,1.12c-4.91-1-9.77-2.4-14.61-3.78-2.91-.83-3.77-2.43-3.41-5.92a2.31,2.31,0,0,0-.75-2.15c-.46-.45-1.14-.9-1.23-1.44a3.18,3.18,0,0,1,.38-2.28,2.37,2.37,0,0,1,2-.8,33.29,33.29,0,0,1,7,3.29c7.62,5.29,15.55,4.81,23.73,1.76C663,480.77,663.59,480.61,664.93,480.19Z"/><path d="M679.66,486.4c-.73-1.08-1.31-1.81-1.77-2.61a11.72,11.72,0,0,1-1.19-2.6,1.87,1.87,0,0,1,2.23-2.34c3,.5,6,1.06,9.13,1.61,1,.94.59,2.11,0,3-1.19,1.72-2.59,3.28-4,5,3.54,2.48,3.86,6.74,5.15,10.51.14.4-.36,1.28-.79,1.54a2,2,0,0,1-1.75-.05,5,5,0,0,1-2.38-3c-.61-2.13-2.23-2.53-4.21-2.39a9.25,9.25,0,0,0-5.26,2.3c-.86.71-1.74,1.37-2.47,1.94a5.88,5.88,0,0,1-3.68-2.68c-1.61-2.14-1.27-4,.67-6a12.94,12.94,0,0,1,7.15-3.88C677.35,486.63,678.3,486.57,679.66,486.4Z"/><path d="M700.68,477.9c2.24.12,3.48,1.5,4.47,3.31a5.89,5.89,0,0,1,.16,5.16c-.33.88-.73,1.74-1.12,2.66,3.16,2.13,6.65,2.07,10,2.51,1.28.17,2.6.08,3.89.21s2.06,1.6,1.39,2.51c-2.05,2.77-4.21,5.19-8.22,5.16a21.78,21.78,0,0,1-9.81-2.45,7.9,7.9,0,0,1-3.3-3.4,17.15,17.15,0,0,1-1.57-9.46A7.6,7.6,0,0,1,700.68,477.9Z"/><path d="M613.23,485.14c-1.2.89-2.41,1.71-3.53,2.62a7.7,7.7,0,0,1-4.92,1.8,16.05,16.05,0,0,0-3.86.46,3.49,3.49,0,0,0-2.75,2.46,18.1,18.1,0,0,1-1.9,3.91,3.35,3.35,0,0,1-4.55,1.55,6.4,6.4,0,0,1-4-8.31,10.32,10.32,0,0,1,6.48-6.88,27.84,27.84,0,0,1,16.8-.51A2.86,2.86,0,0,1,613.23,485.14Z"/><path d="M751.59,441.68a21.86,21.86,0,0,1-9.43-1.89,3.17,3.17,0,0,0-4.08,1.28A21.84,21.84,0,0,1,735.2,448a25.47,25.47,0,0,1-5.83,6.18,19.18,19.18,0,0,0,5.5,4.6,3.41,3.41,0,0,0,4.45-.68,43.06,43.06,0,0,0,5-5.87c1.53-2.26,1.72-4.74,2-7l7.39-1.95C752.74,442.47,752.14,441.66,751.59,441.68Z"/><path d="M628,491.37c3.88,2.28,4.9,5.69,5,9.27a6.51,6.51,0,0,1-2.15,4.2c-3.14,3-6.9,4.88-11.41,4.35-2.84-.34-5.32-1.33-6.09-4.64a8.15,8.15,0,0,0-1.66-2.84c-.75-1-1.29-1.9-.43-3a2.07,2.07,0,0,1,2.61-.6c.3.11.62.19.92.31,3.55,1.43,6.69-.12,9.78-1.48C626.44,496.08,626.93,495,628,491.37Z"/><path d="M738.37,470.73c1.88.76,1.77,2,1.89,3.1a74,74,0,0,1-.35,16c-.27,2.57-1.52,4.57-4.33,5.25a4.45,4.45,0,0,1-3.73-.58,27.89,27.89,0,0,1-7-7.34,3.27,3.27,0,0,1-.22-1.87,1.4,1.4,0,0,1,1.78-1.19c1,.43,2,1,3,1.52,2.29,1.18,3.53.83,4.77-1.43a28.25,28.25,0,0,0,2.4-4.67,61.74,61.74,0,0,0,1.38-6.65C738.06,472.28,738.18,471.67,738.37,470.73Z"/><path d="M605.73,537.39a34.92,34.92,0,0,1,5.65,1.15c3,1.11,3.4,4.25.85,6.08a15,15,0,0,1-4.43,1.91,3.47,3.47,0,0,1-3.52-1.24c-1.34-1.42-2.58-2.94-3.78-4.48a1.89,1.89,0,0,1,1.29-3,38.79,38.79,0,0,1,3.89,0Z"/><path d="M652.62,499.05c1,.7,2.93,1.3,3.5,2.53A34.28,34.28,0,0,0,659,507.3c.2.28-.12.92-.2,1.38a5.54,5.54,0,0,1-5.59.48,19.94,19.94,0,0,1-5.55-4.29c-1.47-1.53-.82-3.31,1.19-4.2C649.81,500.23,650.81,499.82,652.62,499.05Z"/><path d="M722.66,480.5a6.6,6.6,0,0,1-.57,2.17c-1.54,2-3.7,3-6.33,4L710.84,484c.1-1.25.18-2.33.28-3.56C714.86,478.35,718.5,478.7,722.66,480.5Z"/><path d="M738.41,544c-.32.53-.51,1.26-.95,1.5a42.32,42.32,0,0,1-4.77,2.25c-1.27.5-2.38,0-3.36-1.19a1.7,1.7,0,0,1-.12-2.2,4.28,4.28,0,0,1,1.26-1.4,7.67,7.67,0,0,1,6.95-.19C737.79,543,738,543.49,738.41,544Z"/><path d="M732.27,539.41c-2.17.19-3.23-.9-4.23-1.89s-.83-2.38-.38-3.63c.38-1.08,1.38-1.22,2.36-1.33a2.82,2.82,0,0,1,3,1.06,3.31,3.31,0,0,1,.16.94C732.89,536.11,732.59,537.66,732.27,539.41Z"/><path d="M652.19,495.83l-2.29,1.56c-2.19,1.47-3.57,1.08-4.56-1.29a1.75,1.75,0,0,1,1.77-2.59A6.51,6.51,0,0,1,652.19,495.83Z"/><path d="M604.12,493.49a3.07,3.07,0,0,1-2.26,2.72c-1.28.17-2.57-1.07-2.8-2.69-.16-1.16.66-1.88,2.17-1.9C602.9,491.6,604.07,492.35,604.12,493.49Z"/><path d="M743.55,456.35c1.1-.11,1.91.64,1.78,1.43-.06.33-.66.86-.87.8a2.43,2.43,0,0,1-1.44-.94C742.87,457.32,743.4,456.68,743.55,456.35Z"/><path d="M776,374.87a25.5,25.5,0,0,0,3.65,0,15.66,15.66,0,0,0,2.86-1c5.33,3.71,11.63,4.44,18,5,9.42.77,18.85,1.46,28.28,2.15,1.29.09,2.6,0,3.91,0a37.66,37.66,0,0,1,15.23,3,4.91,4.91,0,0,1,3.35,3.93l3-.22a18.52,18.52,0,0,1,9.08,1.23c2.93,1.3,6.06,2.14,9.77,3.42-1.57-2.82-2-5.15-1.14-7.87,3.61.58,6.41,2.22,8.1,5a4.27,4.27,0,0,0,4.82,2.31c1.29-.17,2.57-.45,3.86-.6s2.53-.17,4-.27v3.52c2.18,1,4.31.4,6.39.34s3.88-.37,5.83-.39a6.79,6.79,0,0,1,2.15.71c-1.15,4.11-3.61,6-7.6,6.85a26.5,26.5,0,0,1-13.95-1,21.14,21.14,0,0,0-7.16-1.19c-4.29.09-8.34-1.32-12.19-3.09-1.54-.71-3.17-1.39-4.68-1.06-3.25.72-6.1,0-9.14-1.82a12.23,12.23,0,0,0-1.27,3.17c-.47,5.68-.94,11.33.61,17a72.19,72.19,0,0,1,1.7,11.1c.32,2.91-.75,4.43-3.5,5.78a12.5,12.5,0,0,1-7.11,1.23c-4.88-.59-9.72-.09-14.59.23a115.59,115.59,0,0,1-13.16.13,14.49,14.49,0,0,1-9-3.28c-2.89-2.49-6.31-3.19-10-2.95a48.8,48.8,0,0,1-9.74-.07,15.66,15.66,0,0,1-6.14-2.65c-2.68-1.63-2.91-2.94-1.92-6.19a46.3,46.3,0,0,0,1.2-22.69q-1-5.28-2.24-10.51a7.52,7.52,0,0,0-1.18-3.17C774.38,378.9,775.12,377.2,776,374.87Zm11.42,44.94c1.17,1.22,2.47.74,3.74.59,6.14-.71,12-.19,17.24,3.56a12.18,12.18,0,0,0,7.83,2.12c3.41-.18,6.84-.34,10.25-.2,5.19.2,10.33-1.1,15.54-.25,1,.15,2-.57,3-.85,0-2.3.06-4.24,0-6.18a10.8,10.8,0,0,0-.55-2.86,41.11,41.11,0,0,1-1.62-15.91,40.75,40.75,0,0,0-1-13.54c-2.16-.87-4.28-.6-6.37-.59a41.92,41.92,0,0,1-6.82-.05,191.84,191.84,0,0,0-22.31-1.91c-6.55-.3-12.94-1.34-18.9-4.24-.82-.4-1.62-1.17-2.74-.29.62,2.6,1.41,5.22,1.85,7.9a145.65,145.65,0,0,1,2.19,16.41c.26,5.07.4,10.07-1.24,15A4,4,0,0,0,787.46,419.81Z"/><path d="M869,347a19.84,19.84,0,0,0,3.31-.76,39.88,39.88,0,0,1,15.24-2.68c4.06,0,8.13-.57,12.17-.4,4.87.19,9.71,1,14.58,1.35,3.73.31,6.76,2,9.54,4.06,2.11,8.72,1.29,17.24.3,25.86-2.49,1.63-5,.8-7.46,0-2.15-.71-4.26-1.58-6.37-2.41a65,65,0,0,0-26.73-4.56c-3.73.15-7.46.39-11.18.66a12.18,12.18,0,0,0-2.82.67c-2,.67-3.73.66-5.07-1.32a25.12,25.12,0,0,0-2.06-2.07,3.8,3.8,0,0,1-1-1.64c-1.16-6.64-1.58-13.25,1.17-19.66a8.89,8.89,0,0,1,.42-.88,2.55,2.55,0,0,1,4.68,0A22,22,0,0,1,869,347Zm-.57,13.61c16.6-1.22,31.91,1.85,46.73,8.17a14.93,14.93,0,0,0,2.61-8.86c0-3.09,0-6.18-.18-9.26a8.89,8.89,0,0,0-.89-2.46c-3.68,0-7,0-10.41,0a16.33,16.33,0,0,0-4.82.42c-3.19,1.08-6.42,1-9.67.91-7.57-.1-15.14-1.2-22.94,0C867.91,352.88,868.12,356.38,868.43,360.57Z"/><path d="M835.24,324.57c-1,.74-1.69,1.39-2.5,1.93-1.74,1.17-4,1.3-5.3-.34-2.84-3.65-6.11-3.76-9.93-2-.72.32-1.61.29-2.31.65-5.94,3.07-12.27,2.93-18.5,1.69-3.42-.69-6.88-2.21-8.33-6a8.28,8.28,0,0,0-.68-1.28c-.08-.13-.25-.2-.48-.39-1.6-.72-3.06.29-4.57.75s-3,1.12-4.46,1.66c-4.84-.66-7.09-3.71-8.15-8.39a11.6,11.6,0,0,1,3.05-1.15c8.44-.58,16.8-2.43,25.32-1.46,3.26-.73,6.48-.26,9.69.28a17.19,17.19,0,0,1,2.57.92c-2.3,2.3-4.39,4.07-7.48,4.26-2.1.13-4.2.39-6.29.68s-4.07.68-6.5,1.1c1.22,2.3,2.82,3.64,4.12,5.23,2.13-.18,4.07-.25,6-.53a13,13,0,0,0,4.22-1.1,21,21,0,0,1,16.08-1.78,13.86,13.86,0,0,0,1.87.28,5.17,5.17,0,0,0,1.35-.72c3.3-3.42,7.24-3.08,11.32-2,3.45.93,6.92,1.8,10.36,2.8,1.83.52,3.86.73,5.41,2.7l-1.52,3.18C846.05,326.79,847.28,326.81,835.24,324.57Z"/><path d="M922.45,576.86c-.18-2.71,1-5.05,2-7.44,1.4-3.3,2.89-6.56,4.25-9.87.67-1.64,1.14-3.36,1.77-5.28a18.91,18.91,0,0,0-3-1.76c-1.68-.61-3.48-.89-5.17-1.48a5.51,5.51,0,0,0-5.06.48A12.83,12.83,0,0,1,911.7,553c-5.34.28-10.71.21-16.06.4a11.09,11.09,0,0,1-8.45-3.1,18.94,18.94,0,0,0-6.61-4.52c-.62-2.69.89-3.89,2.69-4.83a3.53,3.53,0,0,1,4.45.85,28.18,28.18,0,0,1,2.64,2.83,3.28,3.28,0,0,0,3.39,1.5c4.4-1.09,8.75,0,13.12,0,.92,0,1.84-.13,3-.22-.24-1.72-1.37-2.41-2.2-3.3a15.23,15.23,0,0,1-1.61-1.8,2.12,2.12,0,0,1,1-2.88c2.1-.61,4.5-.86,6,.81,3.13,3.51,7.28,4.8,11.48,6.06a53.38,53.38,0,0,1,9,3.76,11.59,11.59,0,0,1,6.19,8.31c.11.46.28,1.13,0,1.41-1.49,1.85-.6,5-3.31,6.14-3.53,4.77-8.36,8.15-12.82,11.93a3.71,3.71,0,0,1-1.29.44Z"/><path d="M806.71,446.1a32,32,0,0,1,.48-3.86c.59-2.33,2.55-3.07,4.46-1.62s3.7,3.15,5.79,4.95c3.95.14,8.23-1.93,12.65-.33-.41,5.06-4.31,6.21-7.76,7.6-.22,1.38.77,1.57,1.45,1.56,3.25-.06,6.49-.23,9.73-.42,1.78-.11,3.55-.36,5.32-.49a1,1,0,0,1,.74.52c.11.42.21,1.09,0,1.32a58.63,58.63,0,0,1-4.62,4.3,5.37,5.37,0,0,1-2.61,1.22c-6.12.7-12.16.51-17-4-2.27-2.12-4.89-2.93-7.71-3.63a16.79,16.79,0,0,1-4.12-1.31c-5.81-3.23-11.33-2-16.66,1.06-3.67,2.11-4,2.2-7.07-.56-.12-.11-.26-.19-.38-.31-3-2.86-2.64-4.75,1-6.7a26.28,26.28,0,0,1,16.08-2.79,18.81,18.81,0,0,1,3.66,1.24C802.24,444.65,804.13,446,806.71,446.1Z"/><path d="M882.47,455.29l2.91-3.44c-.77-1-1.52-1.8-2.14-2.72a38.13,38.13,0,0,1-3.09-4.91c-1.25-2.65-.58-4.72,1.72-6.4a3.2,3.2,0,0,1,5.13,1.57,33,33,0,0,1,1.1,4.74c1.1,6.36,5.38,9.42,11.45,8.62l-2.94-5.62,2.6-2.62c2.21,2.38,4,5,6.42,6.75s5.52,2.61,8.5,3.94c.44.95-.25,1.65-1.15,2.12a7.28,7.28,0,0,1-7,.14c-.86-.44-1.71-.92-2.49-1.34-5.22,2.2-5.22,2.2-10.81,1.29-1,.76-.69,1.81-.33,2.64a12.33,12.33,0,0,0,7.72,7,21.79,21.79,0,0,0,6.23,1c3.74.12,7.5-.05,11.25-.08.61,0,1.22.08,2.36.16a9,9,0,0,1-1.34,1.72c-1.85,1.33-3.72,2.64-5.66,3.83a5.47,5.47,0,0,1-2.74.9c-4.33-.06-8.72-.08-12.73-2C890.07,469,884.67,463.67,882.47,455.29Z"/><path d="M810.18,559h-5.75c-.36,2.35.05,4.77-1.64,6.59-1.25.33-1.76-.61-2.19-1.43-1.35-2.59-2.6-5.22-3.9-7.84-8.3-.19-14.75-3-18-11,2-2.15,2.27-2.28,4-1.25a32.41,32.41,0,0,1,3.53,2.57,8.29,8.29,0,0,0,7.14,1.83c0-2.09-.41-4.1-.63-6.14a21.16,21.16,0,0,1-.1-5.33c.31-2.19,2.26-2.77,4-1.38a10.37,10.37,0,0,1,1.72,1.72,12,12,0,0,1,1,1.95c2-1.78,1-3.78,2.76-5.53,1.46-1,3.31,0,5.1,1.26a5,5,0,0,1,2.35,4.55c-.3,3.86.2,7.9-2.4,11.28-.91,1.18-.4,2.51-.34,3.78a3.16,3.16,0,0,0,1.8,2.71C809.07,557.55,809.29,558,810.18,559Z"/><path d="M817.11,336.24c1.29,6.24-.69,11.53-5.32,14.68-1.33.91-2.63,1.87-3.92,2.84-.07,0,0,.3.07.62,2,0,4.12,0,6.19,0a4.32,4.32,0,0,1,4,2.36c.76,1.64,2.08,3.36.8,5.59a6.39,6.39,0,0,1-1.82-.73,3.4,3.4,0,0,0-3.15-.77c-5.5,1.22-10.25-.32-14.52-4.28-1.58.4-3.28.88-5,1.26a46.09,46.09,0,0,1-4.8.9c-3.33.39-6.09-.5-7.79-3.7-.67-1.27-1.56-2.42-2.45-3.77l-3.13,1.06c-1.11-2.06-1.07-2.65.23-3.17,1.48-.6,3-1.12,4.77-1.77,3.43,2.92,7.58,1.9,11.47,1.07,5.86-1.24,11.71-2.78,16.72-6.31C812,340.36,814.35,338.38,817.11,336.24Z"/><path d="M854.5,498.66c1.33.12,2.46-.11,3.09.35a14,14,0,0,1,3.42,3.4c3,4.36,2.92,4.4,2.75,10.15,2.23,1.79,4.58,3.27,6.41,5.23,3,3.16,4.16,6.91,2.43,11.21-.54,1.34-.91,2.76-1.54,4.71a31.21,31.21,0,0,1-1.18-3c-.79-2.82-1.52-5.66-2.24-8.5a3.35,3.35,0,0,0-3-2.73,13.16,13.16,0,0,0-1.92-.35c-5.48.19-11-.61-16.38,1.32a35.67,35.67,0,0,1-5.65,1.51,9.53,9.53,0,0,1-10.22-5.84,2.09,2.09,0,0,1,1.46-2.66c.64-.12,1.3-.1,1.94-.18,2.59-.32,5.18-.56,7.75-1s5.06-1.25,7.72-.75a2.5,2.5,0,0,0,1.84-.38c3.11-2.53,5.65-5.46,5.27-9.81C856.34,500.55,855.37,499.84,854.5,498.66Z"/><path d="M867,481.78c3.79-2.82,5.07-7,7.85-10.45,2-.86,3.52.75,4.88,2a5.61,5.61,0,0,1,1.43,5.79l-8.75,9.46c3.84,3.16,8.9,2.44,13,4.82-.19.65-.18,1.47-.56,1.76a11.05,11.05,0,0,1-10.06,2.13c-2-.59-4.09-1.06-5.73-2.56a4.39,4.39,0,0,0-4.11-.82c-4.28.81-8.59,1.45-13.83,2.31,3.59-3.62,7.76-5,10.45-8-.94-2.64-1.68-5.12-2.71-7.48-.9-2.07-.33-4.17-.51-6.24a1.53,1.53,0,0,1,.11-.47c.37-1.68,1.58-3,2.81-3a3.15,3.15,0,0,1,2.91,2.25c.61,1.5,1,3.1,1.45,4.65C866,479.12,866.44,480.29,867,481.78Z"/><path d="M834.12,561.32c1.53-5.22,4.21-8.3,6.67-11.72a12.75,12.75,0,0,1-3.51-7.86,2.73,2.73,0,0,0-2.2-2.37,36.34,36.34,0,0,0-4.28-.83c-1.12-.17-2.28-.13-3.37-.38a1.59,1.59,0,0,1-1.41-1.72,1.55,1.55,0,0,1,1.69-1.43c2.91.31,5.88.62,8.37,2.28,3.23,2.16,6.32,4.53,9.78,7,.66-.49,1.57-1.09,2.39-1.79,2-1.67,3.9-3.39,5.61-4.89,2.19.17,2.87,1.31,3.4,2.81a3.92,3.92,0,0,1-.69,3.67c-1,1.59-2.89,2.57-3.6,4.81a34.16,34.16,0,0,0,16.87.92,13.66,13.66,0,0,1,7.84.57c-.9,1.79-2.87,2-4.16,3.09-3.31,2.75-7.21,3.53-11.42,3.31a48.12,48.12,0,0,1-15.22-3C841.69,554.46,838.83,558.34,834.12,561.32Z"/><path d="M830.76,493c-.19,3.19-2.85,2.34-4.24,3.49-2.86-2.25-6-3.91-6-8,0-.47-.82-.92-1.24-1.39-1.61-1.81-3.29-3.56-4.78-5.45-.91-1.16-1.54-2.54-.3-4.31a11.39,11.39,0,0,1,5.91.9,49.27,49.27,0,0,0,9.73,2.32c.13-.88.29-1.76.39-2.64a16.4,16.4,0,0,1,.26-2.91,3.82,3.82,0,0,1,2.91-3c1.47-.24,2.39.88,3,2.06a20.08,20.08,0,0,1,1.55,3.57,26.16,26.16,0,0,1,.54,3.57c1.6.46,3.3.9,5,1.47a1.57,1.57,0,0,1,.64,2.44c-1.09,1.15-2.27,2.21-3.51,3.41,2.62,2.37,6.27,1.83,9.36,3.54a8.56,8.56,0,0,1-1,2.08,10.69,10.69,0,0,1-2,1.41,5.58,5.58,0,0,1-6,.54c-2.22-1.05-4.38-2.12-5.89-4.21a23.08,23.08,0,0,0-2.89-2.87l-7.93-.63c.26.7.31,1.36.67,1.69C826.69,491.67,827.18,491.87,830.76,493Z"/><path d="M824.2,507.33c-1.36,1.94-3,2.14-4.85,2.22a33.76,33.76,0,0,0-12.79,2.72c-.7.32-1.34.78-2.42,1.42l4.78,3.3c-.1,1.55-1.06,1.77-2,1.88-2.69.29-5.1-.75-7.42-1.75-2,.19-3.31,1.51-4.75,2.54a22.06,22.06,0,0,1-1.86,1.52c-4.67,2.64-7.26,1-10-3.4-1.21-2-.4-3.6,1.73-4.72q4.3-2.26,8.57-4.6a44.18,44.18,0,0,1,15.22-4.94C814,502.76,819.06,504,824.2,507.33Z"/><path d="M795.86,481.62c-1.34.57-2.68,1.12-4,1.72s-2.33,1.18-3.52,1.7c-2.26,1-4.41,1.06-6.3-.85a6.1,6.1,0,0,0-1.06-.81l-2.85-6.27a2.4,2.4,0,0,1,1.7-2,7.59,7.59,0,0,0,2.95-1.51c1.31-1.23,2.55-1.84,4.37-1.16a4.61,4.61,0,0,0,2.3-.28c3.8-.89,7.57-2,11.41-2.66a41.91,41.91,0,0,1,7.77-.38,8.27,8.27,0,0,1,2.66,1.1c-.68,1.75-3.16,1.81-2.85,4.19l2.54-.26c-.11.52-.06,1.1-.33,1.34-1.43,1.29-3.06,2.27-3,4.69,0,.82-1.23,1.93-2.16,2.45-2.26,1.26-4.68,2.22-7,3.35-1.92.93-3.09.1-4-1.6.42-.95.85-1.94,1.29-2.91a13.77,13.77,0,0,0,9-.89l.4-3.66C801.7,478.42,798.51,479.46,795.86,481.62Z"/><path d="M839.39,460.3a9.77,9.77,0,0,1,2.29-.83c2.43-.19,4.9,0,7.3-.41a31.91,31.91,0,0,0,6.53-1.84,4.56,4.56,0,0,0,3-4.57c0-1.31,0-2.61.06-3.91a10,10,0,0,1,3.82-7.57,4.68,4.68,0,0,1,5.34-.89c4,1.7,4.79,3.76,2,7a15,15,0,0,0-3.78,9.74c-.06,4-2.33,6.09-5.84,7.54-4.58,1.88-9.27,1.79-13.93,1.12C843.27,465.29,841,463.33,839.39,460.3Z"/><path d="M917.86,401.51c-3,3.63-3.25,7.22-1.18,11.05.47.86,1.05,1.65,1.47,2.53a5.47,5.47,0,0,1,.46,1.87,7.53,7.53,0,0,1-.32,1.75c-5.95,2.28-11.91,1.86-17.91-.26-4.5-1.6-5.23-2.05-6.77-5,6,.3,12,.91,18.15-.5a27.2,27.2,0,0,0-.92-2.57c-2.43-5.07-1.21-9.86,1.22-14.48,1.3-2.46,6-3.64,8.18-2.3a6.7,6.7,0,0,1,2.52,8.52c-.93,1.78-1.94,1.85-3.77.27C918.75,402.15,918.49,402,917.86,401.51Z"/><path d="M854.76,325.89c-.37-2.19-2.29-4-1.63-6.42.08-.3.22-.58.39-1,.37,0,.88-.25,1.24-.1,5.78,2.53,10.91,1.71,15.7-2.5,3.73-3.27,6.43-2.62,9,1.75a10,10,0,0,1,.57,1.66l-4,5.91c3.3,1.65,7,.1,10.41,2.23-1,.59-1.64,1.29-2.23,1.26a48.23,48.23,0,0,0-10.19.54,2.18,2.18,0,0,1-1.4-.1c-2.41-1.7-4.94-1-7.51-.6-3.3.55-6.41-.44-9.47-1.53Z"/><path d="M889.68,502.81a7.59,7.59,0,0,1,.78.59c3.17,3,3.82,6.53,2.14,10.59-1.39,3.33-.55,6.29,1.69,9,1,1.26,2.16,2.06,3.73,1.86,2.89-.38,5.76-.91,8.63-1.41.77-.13,1.52-.4,3.26-.88a32.78,32.78,0,0,1-2.48,2.74c-1.7,1.41-4,2-5.1,4.27a2.71,2.71,0,0,1-2.15,1c-2.69-.05-5.55.41-7.69-2a11.46,11.46,0,0,0-2.65-2.15c-4.51-2.65-5.88-7-6.62-11.77-.56-3.63,1-6.72,2.21-9.85a4.09,4.09,0,0,1,3.35-2.46c.24,0,.51.34.78.52s.29.41.44.62l-.4.05C889.63,503.3,889.65,503.06,889.68,502.81Z"/><path d="M909.49,486.51c5.16-1.23,9-5.27,14.07-7.81a8.61,8.61,0,0,1,0,1.94c-.76,2.82-3.25,4.77-3.86,7.75-.18.91-1.55,1.56-2.34,2.36-.64.64-2,.53-2,1.9,1.2.92,2.46.09,3.61-.09,2.73-.41,5,1.15,7.42,1.67.23,0,.49.86.4,1.24a1.57,1.57,0,0,1-.91.93c-1.75.65-3.07-.58-4.37-1.29-1.58.45-3,.9-4.37,1.24-1.77.44-3.39,0-4.07-1.75a3,3,0,0,0-3.07-1.92c-3.72-.07-6.15-2.55-8.86-4.48-2.07-1.47-2.55-3.64-2.19-6.07.3-2,2.18-3.13,3.94-2.08,2.34,1.39,4.92,2.62,5.74,5.62C908.64,485.92,909,486.1,909.49,486.51Z"/><path d="M866.28,406.51a6.42,6.42,0,0,1,5,2.78c1,1.51,1.73,3,.65,4.93a2.52,2.52,0,0,0,1.86,3.69,43,43,0,0,0,5.33.32c1.78.06,3.58-.06,5.35.13a2.16,2.16,0,0,1,1.67,3.28,5.41,5.41,0,0,1-4.46,3.36c-4.35.36-8.61.57-12.22-3-2.42-2.4-5-4.47-6.27-7.8-1.35-3.56-1.16-4.74,1.86-7.06A7.64,7.64,0,0,1,866.28,406.51Z"/><path d="M930.14,502.74c1,1,1.67,1.32,1.83,1.8.83,2.45,1.63,4.91,2.24,7.42a4.23,4.23,0,0,1-.33,2.78A17.91,17.91,0,0,1,921,524.06a3.74,3.74,0,0,1-2.37-.23,13.43,13.43,0,0,1-5.36-4.78,2,2,0,0,1,1.28-3,8,8,0,0,1,2.36-.53c3.3.13,5.78-1.56,8.42-3.23a9.42,9.42,0,0,0,4.25-6.18C929.74,505.29,929.83,504.49,930.14,502.74Z"/><path d="M831.13,354.67c-.47-1.75-.88-3.25-1.34-4.94,2.39-1.78,4.73-1.36,7.29-.09l.86,6.36c4.75,1.35,4.75,1.35,5.87,4.05-4.77,1.37-9.51,1.89-14.32.45a5.29,5.29,0,0,1-2.5-1.35,56.86,56.86,0,0,1-4-5.51,4.11,4.11,0,0,1-.36-1.88c-.07-.81,1.06-1.55,1.72-1.09s1.46,1.29,2.26,1.8C827.91,353.3,828.92,354.75,831.13,354.67Z"/><path d="M921.83,331.43c-.61-.94-1.16-1.65-1.57-2.44a3.16,3.16,0,0,0-3.11-1.93c-2.75.07-5.48-.06-8.06,1.42a36.92,36.92,0,0,1-5.92,2.26A2.86,2.86,0,0,1,900,330c-1.46-1.37-1.22-3.18.7-3.81A83.84,83.84,0,0,1,911.51,323c4.49-.84,7.54-.22,10.13,3.92A4,4,0,0,1,921.83,331.43Z"/><path d="M906.43,506c1.4,1.27,1.67,2.54.89,3.43a12.66,12.66,0,0,0-2.23,4.23,8.62,8.62,0,0,1-1.66,2.37c-1.33,1.6-2.85,2.61-5.07,1.57A19.61,19.61,0,0,0,896,517c-1.82-.6-2.64-3.18-1.16-4.32C898.38,510,901.64,506.67,906.43,506Z"/><path d="M916.83,407.6c.77-.4,1.46-1.09,2.14-1.07,3.41.09,6.82.23,10.2.62,2,.22,2.49,2,1.39,3.69-1.27,1.93-3.45,2.3-5.37,3.06-1.58.62-2.77-.39-3.93-1.33C919.67,411.27,917.4,410.65,916.83,407.6Z"/><path d="M807.18,462a13.87,13.87,0,0,1-8.83-6.26,1.53,1.53,0,0,1,1.37-2.4,7.84,7.84,0,0,1,2.86.41,23,23,0,0,1,4.81,2.32,9.75,9.75,0,0,1,2.88,3.15C811.16,460.82,810.09,462.19,807.18,462Z"/><path d="M828.34,546.69c0,.55.14,1,0,1.16-1.83,1.79-3.55,3.67-6,4.8-1.92.88-3.43.39-5-.55a1.53,1.53,0,0,1,.08-2.46,7.89,7.89,0,0,1,1.3-.65c2.56-1,5.12-2,7.69-2.9C827.26,545.77,828.27,546.24,828.34,546.69Z"/><path d="M843.06,446.9c.58-2.17.9-3.89,1.5-5.5a2.28,2.28,0,0,1,3.93-.67,8.65,8.65,0,0,1,1.22,1.48,12.56,12.56,0,0,1,.79,1.71C848.22,446.1,847.67,446.33,843.06,446.9Z"/><path d="M840.62,507.19c.9-1.11,1.34-2.09,2.08-2.46a4.54,4.54,0,0,1,2.76-.22,10.34,10.34,0,0,1,3.09,1.29,2.4,2.4,0,0,1,1.09,3.37C846.52,510.29,843.82,509.22,840.62,507.19Z"/><path d="M902.79,561.29c-1.74-.51-3.3-.89-4.8-1.42a2.16,2.16,0,0,1-1.58-2.6,2.78,2.78,0,0,1,3.23-1.42,17.06,17.06,0,0,1,1.76.77,16.85,16.85,0,0,0,2.19,1,1.71,1.71,0,0,1,1.33,2.17C904.67,560.42,903.54,560.78,902.79,561.29Z"/><path d="M888.23,327.19c3.21-.21,5.64-.26,7.84,1a2.35,2.35,0,0,1,.77,1.59c0,.29-.5.84-.87.94a14.75,14.75,0,0,1-4.23.86,4.57,4.57,0,0,1-2.89-1.43C888.33,329.62,888.46,328.45,888.23,327.19Z"/><path d="M934.76,530.18c-.45.91-.58,1.7-1,2a5.8,5.8,0,0,1-7-1,1.84,1.84,0,0,1-.27-1.71c.42-.55,1.32-1.18,1.88-1.07C930.3,528.75,932.24,529.44,934.76,530.18Z"/><path d="M946.83,573.16c-1.65-.53-2.88-.89-4.08-1.32-1.42-.51-1.8-1.73-2-3.08a1.62,1.62,0,0,1,2.08-1.88C945.57,567.56,946.62,569.07,946.83,573.16Z"/><path d="M936.36,528.17c-2.12-1.73-5.05-2.42-4-6.13a6.38,6.38,0,0,1,4.87,1.84C938.58,525.14,937.91,526.51,936.36,528.17Z"/><path d="M892.15,490.75a2.28,2.28,0,0,1-3.09-.82,12.69,12.69,0,0,1-1.37-3.43c-.06-.21.53-.76.92-.9a2.11,2.11,0,0,1,2.52.82A4.85,4.85,0,0,1,892.15,490.75Z"/><path d="M931.25,481.13a2.35,2.35,0,0,1-2.35,2.32,8.67,8.67,0,0,1-3.14-.83,1.35,1.35,0,0,1-.4-1.26,2.24,2.24,0,0,1,1.15-1.29C927.89,479.69,928.13,479.83,931.25,481.13Z"/><path d="M903.2,409.5c-.37.24-.82.75-1.35.85a3.94,3.94,0,0,1-3.48-1.23,1.49,1.49,0,0,1,.57-2.36,3.77,3.77,0,0,1,4.15,1.51C903.24,408.51,903.15,408.89,903.2,409.5Z"/><path d="M854.76,325.89l.92,1.08v2.85c-3,.39-3.66-1.3-4-3.29A2.14,2.14,0,0,1,854.76,325.89Z"/><path d="M881.74,412c-.13,1-1.81,1.89-2.56,1.17a5,5,0,0,1-1.29-2.35c-.09-.34.61-1.19,1.06-1.29A2.52,2.52,0,0,1,881.74,412Z"/><path d="M844.51,328.66c1.22,1,2.53,1.92,2.31,3.9a2,2,0,0,1-3.08-1.14C843.25,330.32,842.85,329.29,844.51,328.66Z"/><path d="M821.05,516.25a12.79,12.79,0,0,1-2.78,1.61c-.85.2-1.44-.46-1.67-1.3A1.34,1.34,0,0,1,818,515.1,17,17,0,0,1,821.05,516.25Z"/><path d="M827.37,513l-.61.51-.57-1c.28-.1.62-.33.84-.25S827.26,512.73,827.37,513Z"/><polygon points="933.36 519.39 933.64 519.56 933.31 519.63 933.36 519.39"/><path d="M922.34,576.77l-.3,1.1-.34-.28.75-.73Z"/><path d="M664.9,394.45c-3.09.44-4,.8-4.28,4.87a13.26,13.26,0,0,1-3.09,8.07,6.21,6.21,0,0,1-1,.76c-1.71-2.91-.41-6.34-1.86-9.31a13.14,13.14,0,0,0-1.94.23,2.39,2.39,0,0,0-1.89,2.28,18.5,18.5,0,0,1-.44,2.78c-.38,1.42-1,1.94-2.16,1.9a2.68,2.68,0,0,1-2.68-1.89,11,11,0,0,1-.31-1.38c-.31-1.49-.65-3-.88-4.47a3.29,3.29,0,0,1,.21-1.7c1-2.24.66-4.57.92-7.1-1.68.14-2.27,1.52-3.38,2s-2.32,1.08-3.63,1.69a10.28,10.28,0,0,0,.45,1.73,4.78,4.78,0,0,1,.33,3.11c-.65,3-1.28,6-1.94,9a6.83,6.83,0,0,1-3.24,4.3,6.06,6.06,0,0,1-.85-1.88c-.12-2.94-.14-5.89-.14-8.83,0-1.39.1-2.79.15-4-1-.87-1.74-.18-2.51-.2s-1.62,0-2.52,0a33,33,0,0,0-1.9,4.61c-.69,2.76-2.08,5.23-3,7.88-1.18,3.39-3.17,6.28-5.07,9.24-.16.25-.56.34-1.08.63a7.4,7.4,0,0,1-.69-1.56,16.31,16.31,0,0,1,.57-6.29c.4-1.84.93-3.66,1.34-5.5a18,18,0,0,0,.2-2.23c-6.3.82-9.26-2.66-10.75-7.91-1.17-.28-1.67.56-2,1.19a17.13,17.13,0,0,1-9.95,7.91,6.08,6.08,0,0,0-.84,4.07c.18,2.62-.92,4.8-2.28,6.89-.1.17-.4.2-.62.31-1.11-.61-1.07-1.8-1.25-2.78-.69-3.83-1.29-7.67-1.88-11.52-.25-1.63-.27-3.3-.62-4.9a9.07,9.07,0,0,1,.61-5.86,8,8,0,0,1,1.4.1c2.77.68,4.93,1.63,4.5,5.5a6.29,6.29,0,0,0,.71,3.57c2.54-2,4.52-4,5.15-7a5.93,5.93,0,0,0,.09-1.4c-.07-1.74-.79-2.62-2.51-2.81a15.51,15.51,0,0,0-7.59,1,9.08,9.08,0,0,0-1.66,1.14A4.71,4.71,0,0,0,585.9,392a16.62,16.62,0,0,0-4.5,5.25c-2-.35-2.6-.92-2.38-2.34a6.87,6.87,0,0,1,1.74-3.77A18.74,18.74,0,0,1,596,385a30,30,0,0,1,4.19.62,10.43,10.43,0,0,1,6.32,3.47,5.2,5.2,0,0,0,.67-.26c.48-.27,1-.84,1.43-.79a3.11,3.11,0,0,1,1.83.89,10.61,10.61,0,0,1,2.68,5.29,33.48,33.48,0,0,0,1.1,4.07,6.39,6.39,0,0,0,1,1.45c2.46-.78,2.87-3.14,4.09-4.76s2.3-3.56,3.36-5.25c4-.82,4.18-.77,6.07,2.07,1-.35,2.15-.63,3.19-1.08a48.3,48.3,0,0,1,12.58-3.43c1.56-.21,2-1.39,2.56-2.37,1.55-.47,2.76-.39,3.8.66a4.66,4.66,0,0,1,1.65,4.09c-.16,1.16-.36,2.32-.48,3.49a1.29,1.29,0,0,0,1.28,1.38,1.31,1.31,0,0,0,1.39-1.29c0-1.65,0-3.3-.2-4.94-.15-1.35-.19-2.74,1-3.55,1.33-.94,2.75-.18,4,.53a2.86,2.86,0,0,1,1.21,1.6,24.9,24.9,0,0,1,.47,3.48c.09.79.18,1.58.29,2.57a22.51,22.51,0,0,1,2.81.2c.7.14.75.79.65,1.41Z"/><path d="M618.78,352.44l-4.37,2a12.83,12.83,0,0,0,.29,5.91,10.27,10.27,0,0,1-.27,5.22A.94.94,0,0,1,613,366a9.12,9.12,0,0,1-2.73-4,32.77,32.77,0,0,1-1.87-11.44c0-1.18-.09-2.36,0-3.53s.31-2.26.48-3.44c-2,.48-2,.48-4.06,2.43,0,.11-.12.23-.1.33.9,4.3.51,8.66.73,13,.1,1.76.27,3.52.48,5.27a4,4,0,0,1-1.55,3.73,1.59,1.59,0,0,1-2.74-.78,43.82,43.82,0,0,1-1.82-9.35c-.18-2.23-.32-4.46-.52-6.69a11.83,11.83,0,0,0-.5-1.78,7.1,7.1,0,0,0-1.42.6,6.4,6.4,0,0,1-4,1.28c-1,0-2.09.31-3.14.41a1.46,1.46,0,0,1-1.8-1.29,4.67,4.67,0,0,1,2.41-2.4c4.42-2.43,8.67-5.2,13.49-6.83a13.76,13.76,0,0,1,3.43-.64c.52,0,1.42.23,1.57.6.66,1.66,2.84,1.65,3.46,3.29s1.16,3.06,1.76,4.59c0,.1.15.17.42.46a3.51,3.51,0,0,0,3.44-1.18c0-.93-.11-2-.06-3a29.22,29.22,0,0,1,.39-3.84,1.35,1.35,0,0,1,.91-.9c.52,0,1.35.13,1.55.49a22.81,22.81,0,0,1,2,4.44,3.42,3.42,0,0,0,2,2.36,8.31,8.31,0,0,0-1.25,2,7.72,7.72,0,0,0,0,2.45,35.53,35.53,0,0,0,.39,3.86,10.92,10.92,0,0,1-.88,6.07,1,1,0,0,1-1.53-.59q-1.2-2.92-2.24-5.91C619.34,354.9,619.13,353.76,618.78,352.44Z"/><path d="M706.2,382c4-.24,4.62-1.15,4.9,3.82a48.69,48.69,0,0,1-.7,11.94,9.2,9.2,0,0,1-.54,2c-.83,1.89-2,2.51-4.2,2.26-.35,0-.8-.28-1-.14-2,1.28-3.21-.14-4.64-1.11a26.81,26.81,0,0,1-7.31-7.05,8.12,8.12,0,0,0-1.14-1.11,7.21,7.21,0,0,0-.72,3.54,38.63,38.63,0,0,1,0,3.88,33,33,0,0,1-.65,3.53,2.89,2.89,0,0,1-4.62-2.19c-.29-3.15-.57-6.31-.74-9.48-.12-2.22-.06-4.46-.08-6.7a7.28,7.28,0,0,1,0-1.4c.19-1,.07-2.32,1.29-2.7a3.14,3.14,0,0,1,3.28.8c2.88,3.22,6.33,5.93,8.33,9.95a15.88,15.88,0,0,0,4.69,5.66,1.33,1.33,0,0,0,2.22-.71,4.56,4.56,0,0,0,.29-1c.34-2.44.68-4.88,1-7.32C706,386.35,705.62,384.22,706.2,382Z"/><path d="M664.83,394.56c.95-1.88,1.92-3.75,2.86-5.63a13,13,0,0,1,4.31-5,5,5,0,0,1,3.69-.85,4.42,4.42,0,0,1,3.45,2.17,11.52,11.52,0,0,1,1.23,2.52c1.55,5.54,1.47,11-1.61,16a31.68,31.68,0,0,1-3.26,3.92,9.46,9.46,0,0,1-6.69-.48,6.58,6.58,0,0,1-3.42-3.84c-.76-2.25-1.33-4.49-.56-6.89a7.14,7.14,0,0,0,.07-2Zm11-7.27a66.34,66.34,0,0,0-4.12,7,17.73,17.73,0,0,0-1.73,7.44c0,1.14,0,2.34,1.16,3.21a7.73,7.73,0,0,0,4.27-2.93C678.07,398.33,678.36,391.93,675.79,387.29Z"/><path d="M690.7,350.53a10.1,10.1,0,0,1,1.25,1.25c.95,1.61,2.38,1.72,4,1.38,1.9-.39,2.15-.51,5-2.72l-1.45-1a15.61,15.61,0,0,1-5.15-5.23,6,6,0,0,1-.79-1.94,9.14,9.14,0,0,1,6.5-9.66,4.72,4.72,0,0,1,3.8.42,2.55,2.55,0,0,1-.64,2.85c-1.37,1.45-2.65,3-3.94,4.5a3.83,3.83,0,0,0-.23,4.88,9.66,9.66,0,0,0,3.35,3c1,.63,2.07,1.13,3,1.82a2.63,2.63,0,0,1,.4,4,3.88,3.88,0,0,1-1,.95c-3.7,2.14-7.52,2.53-11.4.56C691.65,354.78,690.62,353.33,690.7,350.53Z"/><path d="M637.25,353.86c.14.16.26.23.29.34,1.17,3.95,2.32,3.92,6.08,3.07a4.72,4.72,0,0,0,3.3-2.09c-.56-1.18-1.77-1.79-2.79-2.48a7.44,7.44,0,0,1-3.19-6c-.25-2.77,0-5.39,1.65-7.76a5.49,5.49,0,0,1,2.49-1.89,3.07,3.07,0,0,1,2.68.35,3.71,3.71,0,0,1,.26,3.38c-.45,1.09-.62,2.29-1.14,3.33a8.09,8.09,0,0,0-.35,5.86,4.24,4.24,0,0,0,2.43,3.28,4.14,4.14,0,0,1,1.18.77,2.94,2.94,0,0,1,.07,4.6,7.81,7.81,0,0,1-5.82,2.11,24.62,24.62,0,0,1-3.83-.6,5.23,5.23,0,0,1-3.95-5.56C636.62,354.33,637,354.1,637.25,353.86Z"/><path d="M720.49,394.87a1.82,1.82,0,0,1-1.12-2c-.4-6.28.54-12.47,1.24-18.67a4.36,4.36,0,0,1,.26-1,2.52,2.52,0,0,1,2.31-1.87c1.56,0,3.13.92,3.43,2a7.84,7.84,0,0,1,.15,4.19c-.9,3.29-1.64,6.63-2.66,9.88C723.27,390.09,721.49,392.29,720.49,394.87Z"/><path d="M632.38,363.27a4.33,4.33,0,0,1-2.77-3.46,32.74,32.74,0,0,1-.74-9.81c.14-2.46.52-4.9.82-7.34a5.35,5.35,0,0,1,1.49-3.13,1.81,1.81,0,0,1,3,.41,8.39,8.39,0,0,1,.8,3.74c-.77,6.05-.62,12.21-2.05,18.18C632.79,362.28,632.59,362.68,632.38,363.27Z"/><path d="M684.92,355.74A5.24,5.24,0,0,1,683,351.6c-.11-2.7-.12-5.4-.14-8.1,0-1.29.16-2.58.08-3.87a5.7,5.7,0,0,1,.78-3,1.62,1.62,0,0,1,2.41-.53c1.74,1.38,2.94,3.14,2.73,5.44a79.46,79.46,0,0,1-1.33,9.74C687.23,352.75,686,354,684.92,355.74Z"/><path d="M721.16,397.33a4.17,4.17,0,0,1,1,.13c1.07.44,2.12.91,3.16,1.42a2,2,0,0,1,1,2.06c0,.34-.57.94-.81.92a19.27,19.27,0,0,1-4.38-.82,1.89,1.89,0,0,1-.83-3.1A6.33,6.33,0,0,1,721.16,397.33Z"/><path d="M468.84,365.48c-1.62-4.1-.1-6.81,1.25-9.31s4.13-3,6.83-2.85c2.31.13,3.16,2,3.94,3.82.94,2.19,1.33,4.36-.35,6.38a5.94,5.94,0,0,1-1.72.84C475.62,364.78,472.43,365.09,468.84,365.48Z"/><path d="M506.42,278.94a1.32,1.32,0,0,1,.94-.26s.08,0,.11,0a1.64,1.64,0,0,1,.93,0l.68.14c.08,0,.16,0,.25,0a8.22,8.22,0,0,1,.86,0,2.67,2.67,0,0,1,1.18.61,2.76,2.76,0,0,1,.76.87,5.88,5.88,0,0,1,.44.77,2.15,2.15,0,0,1,.15.71,6,6,0,0,1-.31,2.42,5.67,5.67,0,0,1-1.16,2.09l-.44.49a.17.17,0,0,0,0,.07c.23.28.48.54.7.83s.15.38.27.53a8.75,8.75,0,0,1,.58,1.34,1.74,1.74,0,0,1,.21,1.05c0,.22-.12.43-.18.64h0a1.8,1.8,0,0,1-.1.4c-.19.41-.4.81-.61,1.2a2.27,2.27,0,0,1-.33.42,2.91,2.91,0,0,1-.48.45,10,10,0,0,1-1.26.81,2.9,2.9,0,0,1-1.35.29,3.88,3.88,0,0,1-1.52-.34,2.39,2.39,0,0,1-.47-.31,4.75,4.75,0,0,1-.58-.42,4.85,4.85,0,0,1-1.19-1.2c-.18-.33-.41-.63-.58-1-.09-.16-.21-.1-.32-.11a3.85,3.85,0,0,1-1.29-.3,4.3,4.3,0,0,1-.65-.3,2.21,2.21,0,0,1-.78-.85,2.21,2.21,0,0,0-.3-.45,3.32,3.32,0,0,1-.55-1.28,6.63,6.63,0,0,1-.2-2.08,1.7,1.7,0,0,1,.18-.58,8.07,8.07,0,0,1,1-1.58,2.91,2.91,0,0,1,1.36-1,11,11,0,0,1,1.17-.22.24.24,0,0,0,.14-.14,6.18,6.18,0,0,1,.51-1.63,5.37,5.37,0,0,1,.93-1.24,3.17,3.17,0,0,1,1-.7C506.19,279.07,506.3,279,506.42,278.94Zm2.09,8-.48-.05c0,.14.31.16.47,0l.79-.3,0-.06-.6-.29-.06,0c.14.18.18.35,0,.51Zm-.54-7.56c-1.68.53-3,1.39-3.21,3.29.12.11.37-.09.46.16.22-.1.38.05.52.14a4.36,4.36,0,0,1,.76.6,7,7,0,0,1,.86.94,2.93,2.93,0,0,1,.36.78c0,.09.07.15.18.12a1.47,1.47,0,0,1,.83,0,3.85,3.85,0,0,1,1.08.52.19.19,0,0,0,.15,0c.19-.17.38-.34.56-.52a2.43,2.43,0,0,0,.4-.51c.19-.38.35-.78.51-1.18a2.59,2.59,0,0,0,.12-.48c0-.24.09-.48.11-.73a3,3,0,0,0-.07-1.33,2.73,2.73,0,0,0-1-1.31,1.39,1.39,0,0,0-.89-.25.43.43,0,0,0-.47.35c-.15,0-.31.06-.36-.14l-.24.14,0-.18-.05,0,0,.08-.27-.06v-.13l-.13.09Zm-3,12.07a9.41,9.41,0,0,0,.79,1.06c.23.23.53.37.66.7,0,.08.18.11.27.17a1.66,1.66,0,0,0,1,.46c.28,0,.57,0,.85,0a.89.89,0,0,0,.43-.07,10.22,10.22,0,0,0,.87-.59,4,4,0,0,0,.67-.69,10,10,0,0,0,.8-1.33,1.48,1.48,0,0,0,.24-1,4.79,4.79,0,0,0-.29-.93,3.4,3.4,0,0,0-.64-1.29,4.49,4.49,0,0,1-.5-.67,3.24,3.24,0,0,1-2.15.8A3.66,3.66,0,0,1,505,291.48Zm.08-4.68c-.19-.22-.38-.42-.55-.63a1.89,1.89,0,0,1-.19-.3,6.18,6.18,0,0,1-.45-.79,2.93,2.93,0,0,1-.25-1.24c0-.15-.11-.22-.27-.18a3.27,3.27,0,0,0-1.26.71,5.32,5.32,0,0,0-.66.88,2.61,2.61,0,0,0-.51,1.72,8.24,8.24,0,0,0,.17,1.31,3,3,0,0,0,.54,1.21,1.9,1.9,0,0,0,.36.39,3.62,3.62,0,0,0,.53.42,3.32,3.32,0,0,0,.55.22,4.17,4.17,0,0,0,.51.08.09.09,0,0,0,.06-.07c0-.13,0-.27,0-.41a6.15,6.15,0,0,1,.06-.74,8.84,8.84,0,0,1,.37-1.24,4,4,0,0,1,.47-.83A4.77,4.77,0,0,1,505,286.8ZM506,290a5.26,5.26,0,0,0,.57-.73,2.3,2.3,0,0,0,.38-1,.72.72,0,0,1,0-.19c0-.12,0-.19-.15-.24a6.58,6.58,0,0,1-.72-.32s-.1-.07-.12-.06a1.67,1.67,0,0,0-.47.34,5.72,5.72,0,0,0-.75,1.8,2.87,2.87,0,0,0-.06,1,2.53,2.53,0,0,0,1.06-.53C505.8,290,505.88,290,506,290Zm-1.28-6.39c0,.15,0,.27,0,.38a5,5,0,0,0,.24,1.18,5.64,5.64,0,0,0,.74,1c.12.16.25.19.4,0a.51.51,0,0,1,.21-.1.65.65,0,0,0,.45-.24c.16-.19.1-.3,0-.46a2.06,2.06,0,0,0-.28-.6c-.3-.35-.64-.66-1-1A1,1,0,0,0,504.69,283.58Z"/><path d="M515.42,280.76l.11.13,0,0-.12-.18a2.07,2.07,0,0,1-.19-.25c-.07-.14.06-.29.25-.32s.32-.07.48-.1.31-.2.54-.17.33-.12.5-.14a1.27,1.27,0,0,1,.47.06.24.24,0,0,1,.15.37,1.45,1.45,0,0,0-.15.67,6.85,6.85,0,0,0-.07.78c0,.32,0,.64,0,1s.06.52.08.79,0,.41,0,.62.12.13.22.11a4.06,4.06,0,0,1,1.3-.08,2.56,2.56,0,0,0,.39,0,.67.67,0,0,1,.52.28,8.27,8.27,0,0,1,.65.79,3.06,3.06,0,0,1,.31.56,1,1,0,0,1-.07.82,2.45,2.45,0,0,1-.59.8c-.26.26-.53.5-.81.74a.55.55,0,0,1-.31.1c-.36,0-.73,0-1.09,0-.16,0-.31,0-.47,0a1.07,1.07,0,0,1-.31,0,2,2,0,0,0-.9,0,.64.64,0,0,1-.56-.36.21.21,0,0,0-.06-.1c-.25-.1-.17-.33-.17-.5a1.64,1.64,0,0,0-.12-1,.86.86,0,0,1-.09-.42c0-.51,0-1,.08-1.51a3.09,3.09,0,0,0-.09-1.25,3.81,3.81,0,0,1,0-.59.7.7,0,0,0-.09-.37,1.5,1.5,0,0,1,0-.43.67.67,0,0,1,.12-.56C515.42,281,515.4,280.86,515.42,280.76Zm2.1,5.74c0,.52.14.57.4.53.08,0,.15-.1.23-.11a1.07,1.07,0,0,0,.62-.45,1.57,1.57,0,0,0,.27-.53c0-.1.05-.28-.11-.36l-.41-.25a.72.72,0,0,0-.52,0c-.15,0-.33.05-.36.25S517.55,286.25,517.52,286.5Z"/><path d="M536.36,286.88l0,.14-.3.05-.07,0a2.54,2.54,0,0,1-.49-.39c-.21-.25-.22-.57-.38-.82s-.11-.11-.18,0a7.27,7.27,0,0,1-.82.92,1.3,1.3,0,0,1-1.22.32l-.75-.24s-.05,0-.07-.06a1.89,1.89,0,0,1-.56-.9,2.69,2.69,0,0,1-.14-.61c0-.33.13-.64.16-1a2.55,2.55,0,0,1,.33-1,2.06,2.06,0,0,1,.73-.87.58.58,0,0,1,.39-.08,2,2,0,0,1,.79.16,2.43,2.43,0,0,0,.61.2.25.25,0,0,1,0-.12c0-.09-.07-.21,0-.27.17-.27.09-.56.13-.84.07-.53.08-1.07.12-1.6,0-.07,0-.19.15-.16s0-.08.08-.13.09-.17.16-.21.45-.19.67-.29c.06,0,.1-.07.15-.06l.31,0a.67.67,0,0,1,.53.47c0,.31,0,.61,0,.91s0,.49,0,.74.06.76.07,1.14,0,.68,0,1a8,8,0,0,0-.06,1.09,3.36,3.36,0,0,0,.15,1.26c0,.08,0,.19.1.23.24.14.19.35.18.57a.39.39,0,0,1-.49.39Zm-2.68-3a1.31,1.31,0,0,0-.39.16,1,1,0,0,0-.3.42c0,.22-.12.47.06.69a.75.75,0,0,1,.13.25c.05.2.21.26.37.32a.19.19,0,0,0,.18-.07,2.69,2.69,0,0,0,.38-.55,4.34,4.34,0,0,0,.33-.56c.1-.23,0-.37-.24-.38a.53.53,0,0,1-.19-.06Z"/><path d="M539,285c-.13.41.1.65.35.88a.27.27,0,0,0,.18,0,6.52,6.52,0,0,1,1.09.06.82.82,0,0,0,.6-.06s.08,0,.11,0l.31.08a.65.65,0,0,1-.19.7c-.25.18-.44.47-.8.53-.11,0-.25.14-.39.19a1.08,1.08,0,0,1-.73,0c-.1,0-.21,0-.31-.08a2.18,2.18,0,0,1-1.3-1.46,3.31,3.31,0,0,1-.06-.64,1,1,0,0,0,0-.3,1.81,1.81,0,0,1-.08-1c0-.34,0-.69.11-1,0-.09.18-.15.26-.23a1.8,1.8,0,0,0,.19-.2c.1-.12.16-.28.35-.32s.18-.13.27-.19a.66.66,0,0,1,.68,0,1,1,0,0,0,.74,0,1.76,1.76,0,0,1,1.09,0,2.46,2.46,0,0,1,.55.38.53.53,0,0,1,.1.06,4.32,4.32,0,0,1,.66.54.57.57,0,0,1,0,.48,1.89,1.89,0,0,1-.72.9,2.26,2.26,0,0,1-.9.32,3.89,3.89,0,0,0-.65.17l-.59.19c-.08,0-.13.09-.2.13a.33.33,0,0,1-.38,0A2.9,2.9,0,0,0,539,285Zm1.41-1.66v-.05a1.31,1.31,0,0,0-.45-.12,3.53,3.53,0,0,0-.76.24c-.06,0-.09.12-.13.18s.14.09.2.08a2.7,2.7,0,0,0,.4-.14c.14-.06.32-.19.42-.15S540.32,283.34,540.42,283.33Z"/><path d="M528.37,285.51l.44.06a.51.51,0,0,1-.1-.62c0-.06,0-.18,0-.26s-.12-.42-.17-.63-.11-.19-.23-.13a2,2,0,0,0-1.25.95,9.43,9.43,0,0,0-.29.9,8.51,8.51,0,0,1-.29.85c0,.07-.11.22-.28.15s-.12,0-.19.06,0,.05-.07.06-.19.06-.21,0c-.11-.19-.51,0-.5-.34a.21.21,0,0,0,0-.16c-.16-.17-.11-.38-.12-.58,0-.38,0-.76,0-1.14s0-.5,0-.75,0-.78-.09-1.17a.33.33,0,0,1,.37-.34,1.76,1.76,0,0,1,.51.09.33.33,0,0,1,.14.24c0,.22,0,.46.07.69.17-.21.33-.43.51-.62a1.33,1.33,0,0,1,.93-.41,1.41,1.41,0,0,1,.77.09c.35.2.7.06,1,.11a2.09,2.09,0,0,1,.64.21c.08,0,.12.18.14.28.06.32.1.64.17.95a5.22,5.22,0,0,0,.18.56c.05.15.08.31.14.45a2.13,2.13,0,0,1,.11.5,1,1,0,0,1-.45.91.2.2,0,0,1-.11,0l-.65.09c-.12,0-.23.08-.35,0s-.18,0-.23,0a3.57,3.57,0,0,1-.43-.44.47.47,0,0,1-.1-.2,1.07,1.07,0,0,1,0-.25A.73.73,0,0,1,528.37,285.51Z"/><path d="M545.77,282.76h.06a1.09,1.09,0,0,1,.88-.38,1.53,1.53,0,0,1,1.19.38c.16.15.33.29.5.43V284a1.17,1.17,0,0,1-.28.74c-.12.15-.52.06-.66-.15s-.13-.26-.2-.41l-.77.34a.27.27,0,0,0-.13.13.45.45,0,0,1-.44.26s-.11.08-.11.13c0,.39-.08.77-.12,1.16a.54.54,0,0,0,0,.18.68.68,0,0,1-.2.6c-.08.11-.19.11-.32.09a.62.62,0,0,0-.23.07c-.11,0-.22.16-.3.14a.89.89,0,0,1-.53-.39A1.62,1.62,0,0,1,544,286c0-.57,0-1.15,0-1.72a5,5,0,0,0,.07-.76c0-.15.19-.31,0-.43,0,0,0-.12,0-.18,0-.28,0-.55,0-.83s.25-.33.43-.28.4.15.61.2a1.31,1.31,0,0,0,.39.05.32.32,0,0,1,.34.29A2.82,2.82,0,0,1,545.77,282.76Z"/><path d="M523.14,282.82c.26-.19.43,0,.48.26.08.44.15.89.2,1.33,0,.27,0,.54,0,.81s.09.57.09.85a6,6,0,0,1-.06,1c0,.21-.53.46-.75.43l-.36,0s-.12,0-.13-.08-.19-.17-.29-.25a.29.29,0,0,1-.11-.19,4.08,4.08,0,0,1-.09-.61c0-.59,0-1.18,0-1.78,0-.41,0-.82-.07-1.23,0-.07-.06-.13-.1-.23l.4-.43A.55.55,0,0,1,523.14,282.82Z"/><path d="M522.45,279.65l.29.09h.08c.09,0,.23,0,.28,0a2.15,2.15,0,0,0,.5.37.26.26,0,0,1,.11.35c0,.06,0,.18,0,.22-.25.23-.43.55-.8.66a.53.53,0,0,1-.55-.08,2.69,2.69,0,0,1-.39-.5s0-.1,0-.15a3.39,3.39,0,0,0,0-.44C521.88,279.9,522,279.69,522.45,279.65Z"/></g></svg>