<?xml version="1.0" encoding="UTF-8" standalone="no"?>
<!-- Generator: Adobe Illustrator 23.0.3, SVG Export Plug-In . SVG Version: 6.00 Build 0)  -->

<svg
   version="1.1"
   id="Layer_1"
   x="0px"
   y="0px"
   viewBox="0 0 512 512"
   xml:space="preserve"
   sodipodi:docname="hub-squarelogo-bare.svg"
   inkscape:version="1.4.2 (ebf0e940d0, 2025-05-08)"
   width="512"
   height="512"
   xmlns:inkscape="http://www.inkscape.org/namespaces/inkscape"
   xmlns:sodipodi="http://sodipodi.sourceforge.net/DTD/sodipodi-0.dtd"
   xmlns="http://www.w3.org/2000/svg"
   xmlns:svg="http://www.w3.org/2000/svg"><defs
   id="defs1">
	
	
	
	
	

	
	
	
	
	
	
	
</defs><sodipodi:namedview
   id="namedview1"
   pagecolor="#ffffff"
   bordercolor="#666666"
   borderopacity="1.0"
   inkscape:showpageshadow="2"
   inkscape:pageopacity="0.0"
   inkscape:pagecheckerboard="0"
   inkscape:deskcolor="#d1d1d1"
   inkscape:zoom="0.84182687"
   inkscape:cx="271.43348"
   inkscape:cy="264.90007"
   inkscape:window-width="1712"
   inkscape:window-height="902"
   inkscape:window-x="0"
   inkscape:window-y="0"
   inkscape:window-maximized="1"
   inkscape:current-layer="Layer_1" />
<style
   type="text/css"
   id="style1">
	.st0{fill:#4E4E4E;}
	.st1{fill:#767677;}
	.st2{fill:#F37726;}
	.st3{fill:#9E9E9E;}
	.st4{fill:#616262;}
</style>

<g
   id="g1"
   transform="matrix(1.125,0,0,1.125,-28.355059,-26.250001)"><path
     id="path8_fill"
     class="st2"
     d="m 255.33523,350.21308 c -63.56894,0 -119.98639,-23.04365 -148.59241,-56.41717 11.12456,30.1951 31.78448,56.41717 58.00666,74.69313 26.2222,18.27599 58.00667,28.60589 90.58575,28.60589 32.57909,0 63.56896,-9.53529 90.58576,-28.60589 26.22219,-18.27596 46.88209,-44.49803 58.00666,-74.69313 -28.60603,33.37352 -84.22885,56.41717 -148.59242,56.41717 z"
     style="stroke-width:7.94609" /><path
     id="path9_fill"
     class="st2"
     d="m 255.33523,130.90129 c 63.56896,0 119.98639,23.04362 148.59242,56.41717 -11.12457,-30.1951 -31.78447,-56.41717 -58.00666,-74.69316 -26.22219,-19.070592 -58.00667,-28.605889 -90.58576,-28.605889 -32.57908,0 -63.56894,9.535297 -90.58575,28.605889 -26.22218,18.27599 -46.8821,44.49806 -58.00666,74.69316 29.40064,-34.16814 85.02347,-56.41717 148.59241,-56.41717 z"
     style="stroke-width:7.94609" /></g>
<path
   d="m 149.01002,293.45708 h 12.35789 v -41.00553 c 0,-2.24688 0.14045,-4.07247 0.84258,-5.89807 2.38733,-6.6002 8.56626,-12.21741 16.57082,-12.21741 11.65575,0 15.72824,9.12794 15.72824,20.0815 v 39.03951 h 12.35788 v -40.44382 c 0,-23.31137 -14.60476,-28.92856 -23.73276,-28.92856 -4.63421,0 -8.98755,1.26387 -12.63874,3.37031 -3.79164,2.10646 -6.88111,5.33634 -8.84714,8.84709 h -0.28091 v -42.55028 h -12.3579 z m 134.81349,-67.9681 h -12.35789 v 41.56727 c 0,2.38731 -0.42124,4.63419 -1.12346,6.31935 -2.24688,5.6172 -8.00453,11.37482 -16.28994,11.37482 -11.09402,0 -15.16652,-8.84708 -15.16652,-21.76663 v -37.49481 h -12.35789 v 39.74169 c 0,23.73266 12.77918,29.77115 23.45192,29.77115 12.07703,0 19.37943,-7.16193 22.4689,-12.6387 h 0.28091 l 0.70212,11.09396 h 10.95358 c -0.42122,-5.33633 -0.56169,-11.51525 -0.56169,-18.67718 z m 20.50294,50.41436 c 0,6.03849 -0.28089,12.91956 -0.56167,17.55374 h 10.53228 l 0.70213,-11.09396 h 0.28091 c 5.19593,8.84708 13.06005,12.6387 22.89019,12.6387 15.16652,0 30.61389,-12.07698 30.61389,-36.37137 0,-20.50276 -11.79618,-34.54575 -28.78829,-34.54575 -10.95357,0 -18.81771,4.77461 -23.17106,12.35783 h -0.28089 v -42.69071 h -12.21745 z m 12.21748,-21.76664 c 0,-1.96602 0.28089,-3.65118 0.70213,-5.1959 2.52775,-9.26838 10.39187,-15.16644 18.67726,-15.16644 13.34093,0 20.36246,11.65568 20.36246,25.27738 0,15.58773 -7.58326,26.11997 -20.64332,26.11997 -8.98756,0 -16.28994,-5.89805 -18.53684,-14.46428 -0.42124,-1.40429 -0.56169,-2.94903 -0.56169,-4.49376 z"
   id="text1"
   style="font-size:13.2283px;line-height:1.25;font-family:'Myriad Pro';-inkscape-font-specification:'Myriad Pro';text-align:end;letter-spacing:0px;word-spacing:0px;text-anchor:end;fill:#4f4f4f;fill-opacity:1;stroke-width:10.6159"
   aria-label="jupyterhub"
   sodipodi:nodetypes="ccscssccssccccccccscssccssccccscsccccsssccccsscssscss" /><ellipse
   style="fill:#9e9e9e;fill-opacity:1;stroke:#4f4f4f;stroke-width:0;stroke-linecap:round;stroke-linejoin:round;stroke-dasharray:none;stroke-opacity:1"
   id="path36"
   cx="126.60583"
   cy="446.47748"
   rx="33.52269"
   ry="33.522522" /><ellipse
   style="fill:#616161;fill-opacity:1;stroke:#000000;stroke-width:0;stroke-linecap:round;stroke-linejoin:round;stroke-dasharray:none;stroke-opacity:1"
   id="path37"
   cx="99.398468"
   cy="92.885674"
   rx="19.398464"
   ry="19.398365" /><ellipse
   style="fill:#757575;fill-opacity:1;stroke:#000000;stroke-width:0;stroke-linecap:round;stroke-linejoin:round;stroke-dasharray:none;stroke-opacity:1"
   id="path38"
   cx="389.61398"
   cy="57.264984"
   rx="27.265121"
   ry="27.264984" /></svg>
