<?xml version="1.0" encoding="UTF-8" standalone="no"?>
<!-- Generator: Adobe Illustrator 23.0.3, SVG Export Plug-In . SVG Version: 6.00 Build 0)  -->

<svg
   version="1.1"
   id="Layer_1"
   x="0px"
   y="0px"
   viewBox="0 0 512 512"
   xml:space="preserve"
   sodipodi:docname="jupyterhub-squarelogo-bare.svg"
   inkscape:version="1.4.2 (ebf0e940d0, 2025-05-08)"
   width="512"
   height="512"
   xmlns:inkscape="http://www.inkscape.org/namespaces/inkscape"
   xmlns:sodipodi="http://sodipodi.sourceforge.net/DTD/sodipodi-0.dtd"
   xmlns="http://www.w3.org/2000/svg"
   xmlns:svg="http://www.w3.org/2000/svg"><defs
   id="defs1">
	
	
	
	
	

	
	
	
	
	
	
	
</defs><sodipodi:namedview
   id="namedview1"
   pagecolor="#ffffff"
   bordercolor="#666666"
   borderopacity="1.0"
   inkscape:showpageshadow="2"
   inkscape:pageopacity="0.0"
   inkscape:pagecheckerboard="0"
   inkscape:deskcolor="#d1d1d1"
   inkscape:zoom="0.84182687"
   inkscape:cx="271.43348"
   inkscape:cy="264.90007"
   inkscape:window-width="1712"
   inkscape:window-height="902"
   inkscape:window-x="0"
   inkscape:window-y="0"
   inkscape:window-maximized="1"
   inkscape:current-layer="Layer_1" />
<style
   type="text/css"
   id="style1">
	.st0{fill:#4E4E4E;}
	.st1{fill:#767677;}
	.st2{fill:#F37726;}
	.st3{fill:#9E9E9E;}
	.st4{fill:#616262;}
</style>

<path
   id="path8_fill"
   class="st2"
   d="m 255.33523,350.21308 c -63.56894,0 -119.98639,-23.04365 -148.59241,-56.41717 11.12456,30.1951 31.78448,56.41717 58.00666,74.69313 26.2222,18.27599 58.00667,28.60589 90.58575,28.60589 32.57909,0 63.56896,-9.53529 90.58576,-28.60589 26.22219,-18.27596 46.88209,-44.49803 58.00666,-74.69313 -28.60603,33.37352 -84.22885,56.41717 -148.59242,56.41717 z"
   style="stroke-width:7.94609" /><path
   id="path9_fill"
   class="st2"
   d="m 255.33523,130.90129 c 63.56896,0 119.98639,23.04362 148.59242,56.41717 -11.12457,-30.1951 -31.78447,-56.41717 -58.00666,-74.69316 -26.22219,-19.070592 -58.00667,-28.605889 -90.58576,-28.605889 -32.57908,0 -63.56894,9.535297 -90.58575,28.605889 -26.22218,18.27599 -46.8821,44.49806 -58.00666,74.69316 29.40064,-34.16814 85.02347,-56.41717 148.59241,-56.41717 z"
   style="stroke-width:7.94609" />
<g
   id="g38"
   transform="matrix(7.9461188,0,0,7.9460789,-7.8810637,-10.889844)"><path
     d="m 2.3825719,36.535347 c 0.6217302,0 1.4683414,-0.211653 1.9842451,-0.727557 0.5688168,-0.582045 0.7672413,-1.388971 0.7672413,-2.632432 v -5.83368 H 3.969968 v 5.383918 c 0,1.534483 -0.132283,2.037158 -0.4497622,2.394322 -0.2777943,0.31748 -0.7275565,0.462991 -1.2699168,0.502676 z M 12.396396,27.341678 h -1.164091 v 3.915577 c 0,0.224881 -0.03969,0.436534 -0.105826,0.595273 -0.211653,0.529132 -0.754013,1.071493 -1.534483,1.071493 -1.0450358,0 -1.4286565,-0.833383 -1.4286565,-2.050387 V 27.341678 H 6.9992491 v 3.743609 c 0,2.235583 1.2037753,2.8044 2.2091261,2.8044 1.1376338,0 1.8255058,-0.674644 2.1165278,-1.190547 h 0.02646 l 0.06614,1.045035 H 12.44931 C 12.40962,33.2415 12.3964,32.659455 12.3964,31.984811 Z m 1.93134,9.021701 h 1.150862 v -3.479043 h 0.02646 c 0.38362,0.634958 1.124405,1.005351 1.971016,1.005351 1.508026,0 2.923455,-1.137634 2.923455,-3.439359 0,-1.931331 -1.164091,-3.240933 -2.72503,-3.240933 -1.045036,0 -1.812277,0.449762 -2.275268,1.230232 h -0.02646 l -0.06614,-1.097949 h -1.031808 c 0.02646,0.608502 0.05291,1.269917 0.05291,2.090071 z m 1.150862,-6.336356 c 0,-0.145511 0.03969,-0.317479 0.07937,-0.462991 0.211652,-0.873067 0.965666,-1.428656 1.759363,-1.428656 1.230232,0 1.904876,1.097949 1.904876,2.367866 0,1.468341 -0.714328,2.473692 -1.94456,2.473692 -0.833383,0 -1.534483,-0.555589 -1.746136,-1.362515 -0.03969,-0.145511 -0.05291,-0.304251 -0.05291,-0.476219 z m 5.436833,-2.685345 2.354638,5.899822 c 0.06614,0.145511 0.0926,0.238109 0.0926,0.304251 0,0.06614 -0.03968,0.158739 -0.0926,0.277794 -0.277795,0.595274 -0.661415,1.045036 -0.978895,1.296373 -0.343935,0.291023 -0.727556,0.476219 -1.018579,0.568817 l 0.291023,0.965666 c 0.291023,-0.05291 0.846611,-0.251337 1.428656,-0.740785 0.793698,-0.701099 1.362515,-1.812277 2.195898,-4.008174 l 1.746136,-4.563764 h -1.230232 l -1.269917,3.756837 c -0.15874,0.462991 -0.291023,0.952438 -0.410077,1.336059 h -0.02646 C 23.891799,32.050953 23.733059,31.548277 23.57432,31.124972 l -1.388972,-3.783294 z m 7.341717,-1.190547 v 1.190547 h -0.992123 v 0.886296 h 0.992123 v 3.492271 c 0,0.754013 0.132283,1.32283 0.449762,1.679994 0.277794,0.304251 0.714328,0.489448 1.256688,0.489448 0.449763,0 0.806927,-0.07937 1.031808,-0.15874 l -0.05291,-0.886296 c -0.171968,0.05291 -0.357164,0.07937 -0.674644,0.07937 -0.648186,0 -0.873067,-0.449763 -0.873067,-1.243461 v -3.452586 h 1.666765 v -0.886296 h -1.666765 v -1.534483 z m 9.180425,4.603448 c 0.02646,-0.132283 0.03968,-0.304251 0.03968,-0.54236 0,-1.177319 -0.54236,-3.002824 -2.64566,-3.002824 -1.86519,0 -3.002824,1.508026 -3.002824,3.439358 0,1.931332 1.177319,3.240934 3.148336,3.240934 1.018579,0 1.732907,-0.224882 2.142984,-0.410078 l -0.211648,-0.833383 c -0.423305,0.185197 -0.939209,0.330708 -1.772592,0.330708 -1.177319,0 -2.169441,-0.648187 -2.195898,-2.222355 z M 32.95318,29.921196 c 0.0926,-0.806926 0.595273,-1.878418 1.78582,-1.878418 1.309602,0 1.627081,1.150862 1.613853,1.878418 z m 5.965954,3.822979 h 1.16409 v -3.412901 c 0,-0.185196 0.01323,-0.383621 0.03968,-0.542361 0.15874,-0.873067 0.740785,-1.481569 1.560939,-1.481569 0.15874,0 0.277795,0 0.396849,0.02646 v -1.097948 c -0.105826,-0.01323 -0.198424,-0.02646 -0.317479,-0.02646 -0.78047,0 -1.494798,0.54236 -1.78582,1.4022 h -0.03968 l -0.05291,-1.269917 h -1.01858 c 0.03968,0.595273 0.05291,1.24346 0.05291,1.997473 z"
     id="text1-9"
     style="font-size:13.2283px;line-height:1.25;font-family:'Myriad Pro';-inkscape-font-specification:'Myriad Pro';text-align:end;letter-spacing:0px;word-spacing:0px;text-anchor:end;fill:#4e4e4e"
     aria-label="jupyterhub"
     sodipodi:nodetypes="ccsccscccccscssccssccccscccccsssccccscscssscssccscccccccccccccccccccscsccsscccccccssssccscccsccccscsccsccccsc" /><path
     d="m 43.297693,33.744175 h 1.16409 v -3.862663 c 0,-0.211653 0.01323,-0.383621 0.07937,-0.555589 0.224881,-0.62173 0.806926,-1.150862 1.560939,-1.150862 1.097949,0 1.48157,0.859839 1.48157,1.891647 v 3.677467 h 1.16409 v -3.80975 c 0,-2.195898 -1.375743,-2.72503 -2.235582,-2.72503 -0.436534,0 -0.846612,0.119055 -1.190547,0.317479 -0.357164,0.198425 -0.648187,0.502676 -0.833383,0.833383 h -0.02646 v -4.008175 h -1.16409 z m 12.699174,-6.402497 h -1.16409 v 3.915577 c 0,0.224881 -0.03968,0.436534 -0.105827,0.595273 -0.211652,0.529132 -0.754013,1.071493 -1.534482,1.071493 -1.045036,0 -1.428657,-0.833383 -1.428657,-2.050387 v -3.531956 h -1.16409 v 3.743609 c 0,2.235583 1.203775,2.8044 2.209126,2.8044 1.137634,0 1.825505,-0.674644 2.116528,-1.190547 h 0.02646 l 0.06614,1.045035 h 1.031807 c -0.03968,-0.502675 -0.05291,-1.08472 -0.05291,-1.759364 z m 1.931338,4.74896 c 0,0.568817 -0.02646,1.217003 -0.05291,1.653537 h 0.992122 l 0.06614,-1.045035 h 0.02646 c 0.489447,0.833382 1.230232,1.190547 2.156213,1.190547 1.428657,0 2.88377,-1.137634 2.88377,-3.42613 0,-1.931332 -1.111178,-3.254162 -2.711802,-3.254162 -1.031807,0 -1.772592,0.449762 -2.182669,1.16409 h -0.02646 v -4.021403 h -1.150862 z m 1.150862,-2.050387 c 0,-0.185196 0.02646,-0.343936 0.06614,-0.489447 0.238109,-0.873068 0.978894,-1.428656 1.759363,-1.428656 1.256689,0 1.918104,1.097949 1.918104,2.381094 0,1.468341 -0.714328,2.460464 -1.94456,2.460464 -0.846611,0 -1.534483,-0.555589 -1.746136,-1.362515 -0.03968,-0.132283 -0.05291,-0.277795 -0.05291,-0.423306 z"
     id="text1"
     style="font-size:13.2283px;line-height:1.25;font-family:'Myriad Pro';-inkscape-font-specification:'Myriad Pro';text-align:end;letter-spacing:0px;word-spacing:0px;text-anchor:end;fill:#9e9e9e;fill-opacity:1"
     aria-label="jupyterhub"
     sodipodi:nodetypes="ccscssccssccccccccscssccssccccscsccccsssccccsscssscss" /></g><ellipse
   style="fill:#9e9e9e;fill-opacity:1;stroke:#4f4f4f;stroke-width:0;stroke-linecap:round;stroke-linejoin:round;stroke-dasharray:none;stroke-opacity:1"
   id="path36"
   cx="137.74301"
   cy="420.20221"
   rx="29.797947"
   ry="29.797796" /><ellipse
   style="fill:#616161;fill-opacity:1;stroke:#000000;stroke-width:0;stroke-linecap:round;stroke-linejoin:round;stroke-dasharray:none;stroke-opacity:1"
   id="path37"
   cx="113.55868"
   cy="105.89838"
   rx="17.243078"
   ry="17.242992" /><ellipse
   style="fill:#757575;fill-opacity:1;stroke:#000000;stroke-width:0;stroke-linecap:round;stroke-linejoin:round;stroke-dasharray:none;stroke-opacity:1"
   id="path38"
   cx="371.52805"
   cy="74.235542"
   rx="24.235662"
   ry="24.23554" /></svg>
