<svg xmlns="http://www.w3.org/2000/svg" viewBox="0 0 1024 1024"><defs><style>.cls-1{fill:#c6ddef;}</style></defs><title>mb-panel-c-1</title><g id="Ebene_2" data-name="Ebene 2"><path class="cls-1" d="M556.06,582.33c.29,3.88.31,7.8.94,11.61.68,4.11-1.53,6.87-5.59,7.12-3.54.22-4.92-1.6-6.76-4.19-2.42-3.41-2.37-7-2.5-10.68-.13-3.87.54-7.85-.17-11.59-1-5.33.89-10.13,1.39-15.18.2-1.91-.18-3.88-.15-5.82,0-3.87.89-7.43,5.17-8.69,1.88-.55,3.81-1,5.86.35,2.65,1.75,3.75,3.36,3.24,6.94-.39,2.7,1.32,5.89,2.62,8.61,2.26,4.74,4.92,9.28,7.82,14.65l2.88-6.7,1.54.93c.2-.21.39-.31.42-.44a71.41,71.41,0,0,0,1.41-8.29,82.23,82.23,0,0,0-.35-8.72c-.12-2.5-.41-5-.3-7.48.07-1.77,5-3.85,6.68-3,.93.47,1.9.88,2.86,1.29s1.91.75,3.11,1.22c.07.64.17,1.59.33,3a39.13,39.13,0,0,0,4.93-1.43c8.35-3.69,16.88-3.62,25.78-2.41a48,48,0,0,1,10.69,2.5,3.68,3.68,0,0,0,2.46-.62c2.78-1.45,5.52-2.7,8.77-1.52a4.26,4.26,0,0,1,3.2,4.34c0,2.3-.48,4.6-.46,6.89,0,4.38,1,8.45,5.19,11.86,1.86-2.36,3.73-4.7,5.58-7.06.32-.41.47-1.17.85-1.29,4.53-1.41,4.92-6,6.43-9.26a15,15,0,0,1,6.89-7.41c1.83-1,6.37.09,8,1.83,1.15,1.24,1.33,5.19.38,6.84q-2.59,4.54-5.14,9.11c-1,1.83-2,3.66-3,5.53-4,7.73-7.9,15.49-11.92,23.2-1.58,3-3.25,6-3.73,9.46-.13.88-.49,2.79-2.47,1.63-.16-.09-.73.37-1,.66-2.06,2-4.47,1.82-6.13-.39-1-1.31-2.27-2.45-2.93-3.89a6.12,6.12,0,0,1-.44-4c1-3.27,2.35-6.42,3.6-9.6.81-2.05.55-3.64-1.47-4.92-4.91-3.09-9-7-11.1-12.54a22.57,22.57,0,0,1-1.06-3.78c-.44-2.35-3.09-3.9-2.4-6.68a2.65,2.65,0,0,0-1.5-.74,44,44,0,0,0-7.26.08,3.29,3.29,0,0,0-2.23,2.26c-.54,5.73-1,11.48-1.1,17.23-.1,4.73.22,9.48.47,14.22.16,2.95-2.91,5.65-5.66,6.33a5.65,5.65,0,0,1-6.32-2.17,18.26,18.26,0,0,1-2.48-7.83,64.43,64.43,0,0,1-.09-9.73c.08-3.33.36-6.66.45-10,.08-2.68,0-5.38,0-8.52-4.09,1.58-8,3-11.78.18-1,6.65.1,13.33-3.58,19.49-1.61,2.71-2.14,6.12-4,8.94-3,4.45-7.8,7.11-12.66,5.44-3.37-1.16-6.34-3.56-9.39-5.56-.75-.49-1.1-1.58-1.63-2.39Z"/><path class="cls-1" d="M434.5,574.17c.82,3.58,1.49,6.53,2.16,9.48a5.38,5.38,0,0,1,.33,1.25c-.11,5-4.52,7.29-9.18,5.7-5.38-1.83-6.4-6.15-8.22-10.61-2.39-5.85-1.85-12.09-3.47-18a25.8,25.8,0,0,1-.52-9A21.94,21.94,0,0,1,418,545a15.49,15.49,0,0,1,4.65-4.72c1.79-1.33,3.81-2.51,6.27-1.2.58.31,1.45.09,2.18.11,4,.1,3.63,4,4.66,6.15,2,4.31,2.65,9.28,4.69,13.59,1.4,2.95,4.17,5.28,6.48,7.75.21.22,1.89-.37,2.3-1a31.75,31.75,0,0,1,6-6.62c3.28-2.75,4.93-6.9,6.15-11.1.5-1.72,1.43-3.32,2.09-5,.54-1.37.84-2.84,1.49-4.15,1.51-3.07,3.09-6.11,4.8-9.08,1.46-2.53,5.88-3.63,8.55-2.33a1.26,1.26,0,0,0,.76.18c3.82-.75,4.15,2.19,4.27,4.53.34,6.55.26,13.13.46,19.69.19,6.36-.35,12.84,2.31,18.9.69,1.57,1.46,3.11,2.39,5.06,1.1-3.9,1.76-7.49,3.12-10.8,1.86-4.54,3.73-9.25,6.58-13.16,2.23-3.06,6-5,9-7.47s6-1.71,9.57-1c2.84.55,5.77.53,8.37,2.09a9.43,9.43,0,0,1,4.71,6,31.43,31.43,0,0,1-.71,18.5,41.56,41.56,0,0,1-5.81,11.36c-2.95,3.93-5.51,8-10.15,10.27s-9.37,4.85-14.67,2.24c-1.9-.93-3.23-3-5.1-4.05-2.25-1.27-3.66-3.65-6.66-4.07a19.82,19.82,0,0,1-7-3c-2.71-1.64-4.37-4.28-5.87-7.09-.94-1.75-2.76-3-3.89-4.67a35.27,35.27,0,0,1-2.32-4.74s-.13,0-.32,0c-2.6,3.28-4.89,7-8,9.82-2.07,1.85-5.31,2.43-8.07,3.44C444.72,581.83,440.18,577.62,434.5,574.17Zm69.84,8.21c2.65-2.36,5.75-4.15,7.4-6.84A49.44,49.44,0,0,0,517.06,563c1-3.62.2-7.44-1.27-11C507.91,555.57,500.24,575.87,504.34,582.38Z"/><path class="cls-1" d="M633,334.5v-8.77c0-1,0-2,0-3,.09-3.69,3.47-7.24,7.07-6.92,1.52.14,2.94,1.4,4.41,2.16a5.28,5.28,0,0,1,2.78,3.55c1.59,4.94.14,9.68-.12,14.46-.18,3.23-.08,16.34,1.07,19.32l7.51-3.44,0,.42c.85-.14,1.9,0,2.53-.46,3.78-2.74,7.47-5.61,11.19-8.42a4.59,4.59,0,0,1,1.53-.95c2.88-.68,3.22-1.52,3-4.43-.3-3.49-.08-7-.08-10.54a21.3,21.3,0,0,0,0-4.59c-.56-2.4.3-3.22,2.42-4.47,3.46-2,5.92.05,8.72.93a2.7,2.7,0,0,1,1.45,1.87c.45,3.33.72,6.69,1,10a42.16,42.16,0,0,0,1.12,7.95c.34-4,1.1-8,.92-12-.23-4.89,4-7.47,8.87-6.87a29.5,29.5,0,0,1,4.59,1.11c1.84.54,3.55,4,3.27,6.17-1.08,8.39-2.1,16.79-3.16,25.19-.19,1.57-.45,3.13-.7,4.82,2.14-.66,4.28-.86,5.9-1.89,4-2.56,7.64-5.66,11.64-8.21a41.91,41.91,0,0,1,8.27-3.81c.77-.29,2,.65,3.54,1.23.23-3.84.43-7.26.63-10.55-4.08-2.56-4.48-3.46-3.36-7.92a42.18,42.18,0,0,1,2.33-7.48,5.66,5.66,0,0,1,3.32-2.44,114.33,114.33,0,0,1,13-3.16c3.95-.65,7.51,1.42,11.23,2.44,6.13,1.69,10.72,5.45,14.3,10.34,2.11,2.86,3.19,6.47,4.88,9.66s2,6.51,2.17,10a40.73,40.73,0,0,1-4.51,21,32.56,32.56,0,0,1-5.81,8.16,30.79,30.79,0,0,1-7.75,5.07,16.22,16.22,0,0,1-5.82,1.47c-4.57.41-9.24,1.47-13.36-1.89a22.13,22.13,0,0,1-8.66-16.08c-.34-4.34-1.11-8.65-1.71-13.14-1.9,2.19-3.46,4.22-5.28,6-2.21,2.17-4.67,4.09-6.94,6.19-1.73,1.6-3.09,3.79-5.07,4.9-4,2.24-7.39,5.8-12.38,6.25-10.25.93-14.6-1-16.53-11.62-.53-2.89-1.94-5.73-.65-8.79.08-.2-.67-1-1.14-1.12a23.4,23.4,0,0,0-3.38-.28c-2.89,4.54-8,6.78-12.73,9.62-4.88,3-9.72,6.23-15.63,6.71a55.68,55.68,0,0,1-8.05-.3c-5.84-.36-8.44-4.86-11-9.11-1-1.61-.87-3.87-1.85-5.85a16.25,16.25,0,0,1-1,3.51c-3.49,6.62-6,14-12.53,18.47a106.69,106.69,0,0,1-10.13,6.28c-1.25.67-3,.41-4.55.48-12.15.53-17.11-11.11-16-19.15a157.76,157.76,0,0,1,3.79-19.93c2.19-8,5.34-15.64,12-21.2a5.86,5.86,0,0,1,5.36-1.11c5.41,1.33,11,2.38,16.07,4.46,2.37,1,4,4,5.74,6.24A12.25,12.25,0,0,1,632,334.5Zm129.7,19.32c2.82-3.61,2.77-7.68,2.81-11.63,0-1.74-.81-3.5-1.32-5.24-1.2-4.11-4.51-6.49-7.77-8.66a27,27,0,0,0-8.14-3.44c-.67-.18-2,2-3,3.18a.4.4,0,0,0-.08.3,8.44,8.44,0,0,1,.92,2.28c.42,6.16.73,12.33,1.13,18.5.18,2.95.6,5.88.69,8.83.11,4,2.15,7.44,3.12,11.19.12.48.89,1.27,1.07,1.2a16.06,16.06,0,0,0,4.6-2.27,19.53,19.53,0,0,0,3.78-4.73c1.51-2.55,2.74-5.27,4.08-7.9Zm-153.61,9.81c7.82-8.32,11.28-17.58,8.88-28.31-1.36-.16-2.26-.2-3.14-.38-3.46-.69-5,0-6.1,3.37-1.72,5.14-3.37,10.32-4.76,15.56a30.45,30.45,0,0,0-.78,13.62l5-6.34Z"/><path class="cls-1" d="M534.86,357.61a24.41,24.41,0,0,0,1.83-3.89,9,9,0,0,0-.19-3c-.72-7.15-1.43-14.31-2.18-21.46-.29-2.72-.86-5.41-1-8.14a38.34,38.34,0,0,1,.52-5.7c3.41-1.54,6.72-2,10,0,2.19,1.36,3.87,2.83,4,5.83.38,6.81,1.15,13.6,1.77,20.51,2.5-.82,5.06-1.63,7.59-2.51,4-1.41,4.11-1.43,4-5.95-.09-4.72-.33-9.44-.51-14.16a5,5,0,0,1,6.32-4.74c1.33.41,2.83.49,4,1.16,3.23,1.84,4,5.14,4.17,8.49.2,5.11-.24,10.26.14,15.35a63.19,63.19,0,0,0,2.31,13.47c1.2,4,3.36,7.74,5.29,11.5,1.8,3.51,1.57,7.06-1.15,10-.42.44-1.44.39-2.19.42-1.45.06-2.9,0-4.92,0-7-5.81-9.62-14.78-12.7-23.55-2.66,0-8.35,3.59-8.88,6.21-.26,1.26.6,3.83,1.35,4,2.81.63,2.34,2.56,2.62,4.43s1,3.94,1.31,5.94c.18,1.16.36,2.92-.28,3.47-1.36,1.16-2.91,3.28-5.15,1.21-3.14,2.65-7.54.78-9-3.45a36.68,36.68,0,0,0-3.89-7.61c-.58-.91-2.06-1.26-3.53-2.09.17-.14-.44.14-.52.53-1.07,5.85-5.26,8.63-10.14,11.17-4.47,2.33-9,4.34-14,4.44-3.77.07-7.76,0-11.28-1.11-4.41-1.41-6.29-5.66-7.14-9.93a29.55,29.55,0,0,1-.05-8.35c.26-2.89,2.9-4.44,5.77-3.86a8.46,8.46,0,0,0-1.66-1.36c-7.4-3.46-12.71-13.31-11-21.41.94-4.44,2.91-8.79,7.07-11.74,2.54-1.81,4.49-4.43,6.84-6.54,2.89-2.59,6.59-2.61,10.18-3.32,4-.79,7.44.51,11,1.3,3.75.81,8,5.19,8.33,8.82,0,.48,0,1.3-.32,1.43-1.74.83-3.53,2-5.36,2.1-2.06.11-4.19-.71-6.25-1.28-2.49-.68-4.42-2.12-7.51-.11-4.73,3.1-7.37,7.28-9.21,12.24-.85,2.31-.34,4.13,1.39,6.4,4.25,5.57,10.43,6.05,16.28,7.83,4.91,1.49,9.66,3.53,14.43,5.43C534.08,356.28,534.47,357.15,534.86,357.61Zm-16.74,7c0-.57.1-1.13.16-1.7l-15.36-5.22c.72,3.32,1.16,6.07,2,8.69a3,3,0,0,0,2.42,1.54C511,367,514.53,365.78,518.12,364.64Z"/><path class="cls-1" d="M777.79,579c1.6-6.41,3-12.7,4.78-18.88,1.33-4.59,2.29-9.49,6.07-12.9.89-.8,2.4-1,3.66-1.26,6.24-1.28,8.72,3.36,11.41,7.47s4.93,8.27,7.63,12.25c.6.87,2.24,1.17,3.46,1.46,2.6.63,2.63,3.88,2.28,4.45-1.61,2.67.82,3.72,1.61,5.33A23.65,23.65,0,0,0,821,579.9c2.13,3,4.38,5.92,6.27,9.06a21.21,21.21,0,0,1,2.08,5.83c.33,1.4.14,2.57-1.82,3.19s-3.72,2.7-5.92,1.18a22.67,22.67,0,0,1-4.57-4.4c-3.3-4-6.42-8.2-9.65-12.28-.94-1.2-1.91-3.06-3.06-3.23s-2.28,1.7-3.51,2.56a46.78,46.78,0,0,1-5.42,3.45,4.24,4.24,0,0,1-2.9.08c-2.28-.73-3.18-.3-3.52,2.18-.27,2-.12,4.14-.71,6.05a6.11,6.11,0,0,1-2.73,3c-1.07.62-2.53.59-4,.88,1.43,2.64,1.27,5.42.51,8.25-.85,3.12-3.3,4.14-6.33,2.91s-4.52-3.58-5.52-6.23c-3.17-8.35-6.32-16.72-6.11-25.88,0-.21-.3-.42-.36-.49-2.67,1.15-5.25,2.31-7.86,3.38-1.87.78-5,5.66-5.19,7.79a66.2,66.2,0,0,1-1.7,10.12c-.24.88-2.19,1.43-3.45,1.83-.66.21-1.52-.26-2.3-.35-2.62-.27-3.93-2.15-4.34-6.58-.28-3.1.09-6.35-.68-9.32-1.55-6-.89-12.08-1.44-18.1a142.1,142.1,0,0,1-.5-15.85,14.86,14.86,0,0,1,1.92-6.69c1.51-2.67,7.61-1.94,9.2.76,2.16,3.67,2.56,7.47,2.06,11.68-.33,2.79.54,5.71.76,8.58.12,1.61,0,3.24,0,5.14l13.36-3.82c.28-9.54,1.33-19.05-.06-29.2a44.25,44.25,0,0,1,4.58-2.82c2.19-1.05,6.41.89,7.86,3.57a13.81,13.81,0,0,1,1.29,8.67c-.21,1.61.41,3.33.39,5-.11,5.9-.45,11.8-.47,17.7C777.16,571.29,777.56,575.08,777.79,579Zm17.1-15.78c-.85,3.09-1.51,5.48-2.29,8.27l6.28-2.73Z"/><path class="cls-1" d="M863.51,592.27c-2,1.11-4.07,1.84-5.56,3.19-4.24,3.82-9,4.42-14.52,4a16.45,16.45,0,0,1-14.07-9.15c-2.61-4.8-2.54-10.05-2.31-15.54.35-8.4,3.88-15.84,5.65-23.78a6.36,6.36,0,0,1,5.76-4.8c2.29-.25,5.25.43,5.94,3.32a12.69,12.69,0,0,1-.2,6.09c-2.35,8.48-3.83,17.07-3.44,25.89.29,6.7,4.32,7.09,9.39,4.91,2.83-1.22,5.18-3.7,8.06-4.66,4.69-1.56,3-5.25,3.6-8.28.7-3.79,1.54-7.55,2.36-11.31,1.15-5.21,2.36-10.4,3.5-15.61.41-1.84,4.55-4.22,6.37-4.21,3.89,0,5.7,2.22,6.4,5.57.27,1.31-.25,2.77-.36,4.17-.33,4.17-.74,8.31-3.07,12a2,2,0,0,0-.16.78l-2.1,19.76a2.44,2.44,0,0,0,0,.27c.2,2.54,6.19,6.08,8.26,4.64,4.12-2.87,8-6.06,12-9.12,1.59-1.22,3.13-2.52,4.78-3.66,1.15-.79,6.68-.3,7.42.65a2,2,0,0,1,.2,1.73c-1.21,2.8-2,6.13-4,8.15s-3,5.25-6,6.71c-1.86.91-3.29,2.83-4.72,4.46-2.49,2.83-6,3.79-9.29,4A33.88,33.88,0,0,1,873,600.9C869.68,600,864.61,595,863.51,592.27Z"/><path class="cls-1" d="M271,339.57l2.83-4.91,1.17,1.88c4.82-6,9.44-12,14.29-17.76,3-3.6,7.31-4.41,11.64-3.49,1.54.33,3.63,2.28,3.88,3.75.8,4.77,1.56,9.75,1.05,14.5a210.56,210.56,0,0,1-4.17,22.78c-1.13,5.11-2.89,10.08-4.33,15.12-1.52,5.3-3.54,10.53-4.34,15.94-.72,4.91-3,8.81-5.37,12.19l-5.83.93A11,11,0,0,1,278,388.34c2.92-11,5.53-22,8.27-33.07.82-3.3,1.71-6.59,2.5-9.9a2.78,2.78,0,0,0-.39-1.67c-2.41,6.41-7.34,9.91-13.44,11.94a9.54,9.54,0,0,1-4.31-.09c-9.64-1.5-11.49-9.89-14.59-17-1.89-4.32-2.83-9-4.51-13.45-1.25-3.27.14-5.74,4-5.7,1.89,0,3.92-.42,5.64.11,2.44.76,3.94,2.53,4.65,5.36,1.08,4.24,3,8.27,4.5,12.39C270.43,337.78,270.56,338.28,271,339.57Z"/><path class="cls-1" d="M388,359.22l-3,3.33c-1.62,1.8-3.18,3.65-4.87,5.38-3.41,3.46-7.45,4.16-12.21,3.34-2.54-.44-4.9-.73-6.57-2.74-2.68-3.23-5.51-6.41-6.29-10.78-1.66-9.29-.91-18.57,0-27.86a8.89,8.89,0,0,1,13.48-7.14c2,1.3,2.56,4,2,6.8a137.65,137.65,0,0,0-2.45,15.87c-.25,3.27.66,6.64,1.06,10.09,7.59-3.35,8.53-10.66,10.64-17.17,1.4-4.32,2.41-8.77,3.67-13.14.63-2.21,5.5-4.61,7.67-3.9a3.75,3.75,0,0,0,1.54.25c4.65-.56,6.37.78,6.54,5.35.15,3.82.2,7.65.19,11.47,0,5.57,0,11.16,1.79,16.51a53.29,53.29,0,0,0,2.62,5.51,45.32,45.32,0,0,1,2.2,5c.73,2.25-.15,3.57-2.56,3.93a38.94,38.94,0,0,1-4.95.32c-2.78.06-4.71-1.72-6.26-3.59A56,56,0,0,1,388,359.22Z"/><path class="cls-1" d="M326.7,382.74c.14-.92.27-1.84.33-2.23-3.84-.29-7.74.23-11-1-4.89-1.88-7.65-6.34-8.88-11.41a41.74,41.74,0,0,1,.08-18.64,115.22,115.22,0,0,1,4.9-15.22,61,61,0,0,1,3.56-7,13,13,0,0,1,8.77-6.56c2.47-.61,5.18-.21,7.78-.4a41.22,41.22,0,0,0,7.64-.91c2-.55,3,.48,4,1.63a19.92,19.92,0,0,1,4.75,10.85,68.09,68.09,0,0,0,1.85,7.07c.52,2,.77,4-.52,6a4.26,4.26,0,0,0-.51,3.55,11.63,11.63,0,0,1-1.64,9.4c-1.37,1.93-1.91,4.47-3.34,6.34-3,3.95-6.27,7.74-9.67,11.38-1.38,1.47-3.46,2.25-5.06,3.55a9.48,9.48,0,0,0-1.64,2.58c-.29.49-.57,1-.86,1.5Zm2-19.17a33.53,33.53,0,0,1,2-3.8c6.13-8.51,6.59-18.24,6-28.16-.14-2.39-1.93-3.25-3.93-1.93a15.8,15.8,0,0,0-6.17,7.78A111.9,111.9,0,0,0,322,353.55c-.89,4.49-.77,9.17-1.1,13.76l1.11.32,5.83-6.13Z"/><path class="cls-1" d="M373.38,679.74a58.47,58.47,0,0,1-.67-6.48c.09-7.51.36-15,.49-22.53.09-5.47,4.1-7.09,8.14-6.68,3.06.31,3.73,1.89,4.48,4.63,1.19,4.36.13,8.45-.08,12.67a68.62,68.62,0,0,0,.55,8.23c2.77.29,5.18-.07,7.41-2.21a32.17,32.17,0,0,0,6.45-9.28c2.13-4.32,4.58-8.49,6.84-12.75,1-1.93,2-3.91,2.87-5.91a4.91,4.91,0,0,1,5-3.1c2.05.13,4.53.11,6,1.24,2.39,1.84,2.18,5.24,1.12,7.55-3.39,7.44-7.23,14.67-11.12,21.86-1.29,2.37-3.25,4.38-5.23,7,4.46,3,9.41,6.14,14.82,7.84,5.18,1.62,10.61,4.58,16.6,1.2a13.31,13.31,0,0,0,.85,2.46c.84,1.41.31,4,3.07,3.87a.55.55,0,0,1,.39.34c1.16,4.94,5,3.25,8.06,3.09,1,0,2.7-1.32,2.79-2.17s-1-2.31-2-3.09c-2.32-1.94-5-3.46-7.21-5.5s-3.93-4.57-6-6.78c-5.27-5.68-8-12.23-7.25-20.07a3.44,3.44,0,0,1,.44-1.73c3-3.54,6.22-6.67,11-7.77,4.94-1.16,11.41,3.55,11.75,8.69.09,1.45,0,2.91,0,4.52a9.24,9.24,0,0,0-1.48-.12c-2.67.42-5.32.75-7.57-1.36,0,0-1.74,1.26-1.63,1.64a67.12,67.12,0,0,0,2.68,7.43,7.85,7.85,0,0,0,1.92,2.76c3.25,2.92,6.7,5.64,9.9,8.62a57.93,57.93,0,0,1,7.32,7.71c2.51,3.37,1.07,10-1.78,13a18.9,18.9,0,0,1-16.23,6c-5-.52-10.22-1.74-13.15-6.94a63.5,63.5,0,0,0-4.75-6.36c-2.82,3-6.16,1.07-9.47.67-6.09-.74-11.36-3.81-17-5.88-3-1.1-5.73-3-8.69-4.24a23.77,23.77,0,0,0-5.35-1.21c-.26,0-1,.8-.92,1,1.54,4.47.13,9.67,3.45,13.74.63.77.54,2.11.8,3.24a8.88,8.88,0,0,1-1.85,2.58,6.7,6.7,0,0,1-3.44,1c-4.84.16-7.6-1.69-9.34-6.14-.78-2-1.78-2.49-4.15-2.08a43.52,43.52,0,0,1-11.57.34c-3.18-.32-6.28-1.56-9.37-2.54a7.09,7.09,0,0,1-5.21-6c-.41-2.15.55-2.31,2.1-2.64,2.42-.53,4.79-1.29,7.65-2.08a93.44,93.44,0,0,1-7.44-6.31,62.86,62.86,0,0,1-7.46-8.93c-2.56-3.84-3-8.34-2.82-13a17.27,17.27,0,0,1,6.55-13.08c5-4.06,10.7-6.09,17.13-4.79a20.51,20.51,0,0,1,6.66,2.88,16.79,16.79,0,0,1,4.25,4.24c1.14,1.56.26,4.94-1.18,5.76-1,.59-6.17,0-7.2-.79-3.27-2.61-6.48-2-9.45,1.18a11,11,0,0,0-2.44,12.18,17,17,0,0,0,5.89,7.74C363.19,671.79,367.91,675.52,373.38,679.74Z"/><path class="cls-1" d="M313.28,682.79c-2.45,1.27-4.82,2.48-7.17,3.72-.46.24-1.13.48-1.26.87-1.18,3.4-4.32,2.75-6.88,3.68-.72,3.13-1.94,3.84-5.4,3.48-2.43-.25-4.56-.66-6.4-2.6a4.43,4.43,0,0,1-1.29-4.36,58,58,0,0,1,5.41-14.69c2.2-3.91,3.14-8.52,4.78-12.76a122.18,122.18,0,0,1,5.5-13c1-2,2.82-4,5.74-3.85,3.29.21,6.43.78,7.81,4.27,2,5,3.79,10.13,5.7,15.19.93,2.44,1.81,4.91,2.93,7.25.3.62,1.4.92,2.18,1.23a29,29,0,0,0,2.86.75l6.88-1.21c.26,1.53.51,3,.72,4.24a30.08,30.08,0,0,1-3.42,2.84c-1.06.65-2.41.81-3.52,1.38-.46.23-1,1.22-.89,1.47,1.9,3.22,4.09,6.28,5.88,9.56s6,5.76,5,10.57c-.17.83.71,1.82.73,2.74.06,1.72,0,3.5-2.69,2.84-.52-.13-1.19.42-1.75.35-1.26-.17-2.91-.12-3.68-.88a91.62,91.62,0,0,1-14.41-18.1C315.7,686.1,314.5,684.57,313.28,682.79Zm-6.42-15.36-.91.11L303.69,674l5.23-.73Z"/><path class="cls-1" d="M250,568.09c2.52-2.34,4.58-3.83,5.11-6.9.5-2.89,2-5.6,3-8.41,1.36-3.92,1.05-4.88-2.16-7.31,1.06-3.28,3.64-5.17,6.56-6.44a11.13,11.13,0,0,1,5.22-.55,79.72,79.72,0,0,1,8.23,1.35,43.41,43.41,0,0,1,5.86,1.39,24.91,24.91,0,0,1,4.67,2.21c1.74,1,3.38,2.23,5,3.39s.62,2.51,0,3.67-.7,2.12-2.76,2.42c-4.75.71-8.85-1.2-13.22-2-2.16-.4-3.62,0-4.06,2.49-.34,1.93-1,3.81-1.48,5.79a53.24,53.24,0,0,1,5.33-.8c2.53-.13,5.31-.68,7.52.17,1.94.75,3.66,3,4.59,5,.34.72-1.68,2.86-3,4-2.9,2.56-6.83,1.69-10.21,2.73-1.83.56-3.62,1.24-5.42,1.91a.81.81,0,0,0-.47.6c.16,2.94-1,6,1.14,8.77,1.67,2.13,4.88,2.54,5.52.14,1.19-4.4,5.19-4.41,7.91-6.38a8.7,8.7,0,0,1,1.64-.75,34.61,34.61,0,0,1,2.61,3.1c1.33,2,2,3.93.22,6.2-1.1,1.38-1.49,3.31-2.48,4.8a10.27,10.27,0,0,1-3.1,3.22c-4.53,2.72-9.29,5-14.69,2.59a31.24,31.24,0,0,1-7.47-4.09c-4.27-3.57-6.86-8.09-6.48-14,.1-1.63-1-3.33-1.43-4.88-4.58,3.87-1.27,7.51-.25,11.29a22.18,22.18,0,0,1,.95,7.55c-.27,2.89-3.47,3-5.51,3.93-.59.28-1.94-1.05-2.95-1.64-.75-.45-1.53-.86-2.25-1.35-.54-.36-1.26-.71-1.46-1.24-1.78-4.76-3.46-9.56-5.22-14.46-2.25.56-4.36,1.21-6.51,1.58-1.52.25-2.05,1-1.78,2.37a68.52,68.52,0,0,0,2.11,9.38c1.21,3.48.5,5.72-3,7.27a11.14,11.14,0,0,0-2,1.51c-2.45-1.26-5.71-1.81-6.69-5.34-5.32-2.77-3.78-8.37-4.89-12.7-1.15-4.51-.87-9.38-1.25-14.09-.42-5.25-.8-10.5-1.35-15.73-.31-2.95,4-6.79,7.26-6.23,4.71.82,5.72,1.72,6.48,6.61.79,5.14,1.37,10.32,2.05,15.58L236,563.92c0-4.38,0-9,0-13.66,0-3.07,2.82-6.89,5.51-7.58,3.36-.86,7,.83,7.44,4.25.46,3.23-.28,6.62-.28,10,0,3.15.25,6.3.48,9.44A5.64,5.64,0,0,0,250,568.09Z"/><path class="cls-1" d="M156,579.44c.52-1.37.88-2.42,1.33-3.43.23-.52.63-1.36,1-1.37,2.44-.12,2.27-1.84,2.22-3.43-.16-4.4,3-6.7,5.86-9.1.66-.56,2.15-.13,3.25-.17,1.69-.06,5.22,2.52,6,4q4.38,8.4,9,16.68c.37.66,1.81,1.51,2.05,1.32a4.46,4.46,0,0,0,1.8-2.48c.54-3.12.83-6.29,1.15-9.45.11-1.12,0-2.27,0-3.65l2.26,2c-.42-4-.69-7.47-1.17-10.9-.34-2.47.66-4.25,2.29-5.91a5,5,0,0,1,5.29-1.46c5.08,1.35,6.17,4.27,6.43,8.52.28,4.7.81,9.39.9,14.09a21.38,21.38,0,0,1-1,7.38c-1.93,5.46-3,11.51-8.62,14.88a11.18,11.18,0,0,1-11.54.55c-4.51-2.3-9.27-4.12-12.89-7.9-1.14-1.18-2.12-.44-2.69,1.13a14.74,14.74,0,0,1-2.77,4.63,19.32,19.32,0,0,1-4,3.05c-2.79,1.87-5.41-.1-8.05-.59a8.76,8.76,0,0,1-3.6-1.92,19.72,19.72,0,0,1-7.1-10.48,63.62,63.62,0,0,1-2.22-9.92c-.47-4.82-.39-9.69-.53-14.54a31.28,31.28,0,0,0-.13-4.34c-.64-3.64.8-6.06,3.82-8.15,2.49-1.73,5-1.11,7.34-.72,1.18.2,2.62,2.66,2.8,4.22.52,4.61.53,9.28.65,13.92.1,3.7,0,7.4.12,11.09A10.54,10.54,0,0,0,156,579.44Z"/><path class="cls-1" d="M302.67,574.3c.78,2.91.75,5.49,3.28,7.28s2.19,5.43-.6,7.33c-5.12,3.46-13.79,1-15.14-5-.84-3.73-3-7.39-1.66-11.79,1.27-4.13,1.06-8.7,2-13,.32-1.46,2-2.78,3.39-3.78a23.24,23.24,0,0,1,4.4-2.06c.25-3.11,3.84-6.53,7-6.71,2.31-.14,5.57,3.31,6.15,6.24.8,4.12,1.11,8.51,2.86,12.21s5,6.65,7.69,9.82a3.54,3.54,0,0,0,2.21-1.2,29.38,29.38,0,0,0,2.26-5.58,19.25,19.25,0,0,1,3-6c1.3-1.77.4-5,1.08-7.4,1.19-4.16-.16-8.8,2.71-12.65,1.24-1.66,2.38-1.89,4.08-1.08,1.41.67,2.95,1.11,4.28,1.91,1,.6,2.15,1.45,1,2.94-.2.26-.47.67-.39.92,2.25,7.38.8,14.79-.25,22.08-.73,5-3.35,9.59-6.78,13.52-.7.8-1.35,1.63-2,2.49-2.08,2.9-5.42,2.63-8.35,3.18-3.48.66-6.54-.81-9.47-2.63-3.85-2.4-7.31-5.11-9.53-9.23C305.48,575.29,304.07,575,302.67,574.3Z"/><path class="cls-1" d="M265,471.35c-9.52,9.94-20.74,12.72-33.42,8.38.61,2.35,1.55,4.3,1.51,6.23s-1.1,3.65-1.71,5.48l-.65-.66a13.58,13.58,0,0,1-3.17.5,6.61,6.61,0,0,1-3.17-.92,15,15,0,0,1-5.48-7c-1.1-2.74-2.49-5.36-3.7-8-1.91-4.28-3.9-8.53-5.6-12.89-.61-1.56-1-2-2.61-1.28-4.61,2.1-9.31,4-14,6.06-.81.36-1.37,1.27-2.18,1.65a35.57,35.57,0,0,1-6.28,2.6c-2.54.66-2.7,2.52-3.15,4.5-.69,3-.58,6.78-4.16,8a8.54,8.54,0,0,1-8.11-1.3,5.82,5.82,0,0,1-2.46-6.57c2-9.58,5.47-18.64,9-27.72,1.67-4.3,2.78-8.83,4.14-13.25,2.61-8.47,12.41-13.27,20.65-11.29,2.29.55,4.78.31,6.53,2.29,1.31,1.49,2.91,2.84,3.81,4.55a101.14,101.14,0,0,1,5.29,11.73,16.63,16.63,0,0,0,5.38,7.52c1.05.84,2.13,3.17,1.69,4.08-1.88,3.78.51,6.45,1.74,10.07,1.05-11,2-21.42,3-31.49,1.42-.24,2.36-.11,2.84-.52,1.79-1.54,3.55-1.17,5.53-.47s4.23.68,5.07,3.11a4.14,4.14,0,0,1,.44,1.46c-.31,4.7-.7,9.39-1,14.08-.1,1.44-.09,2.88-.13,4.32-.14,4.32-.34,8.64-.41,13,0,2.48,1.32,3.38,3.52,2.23,3.71-1.93,7.31-4.07,10.95-6.14.34-.19.83-.72.92-.65,2.46,1.86,4.26-1.31,6.58-.91.44.07,1.58-1.39,1.65-2.2.35-4.18.32-8.39.71-12.57.29-3.14,1-6.24,1.52-9.35.24-1.49.32-2.71,2.59-2.17,1.25.3,2.77-.83,4.2-1a20.35,20.35,0,0,1,4.93.13c2.4.34,4,3.32,3.27,6.06a66.68,66.68,0,0,0-2.56,21.8c.12,1.8.54,3.57.82,5.35l.83.09q3.51-9.57,7-19.17c2.28-.42,4.49-.9,6.72-1.23,1.49-.22,3,1.27,4.52,0,1.08,1.28,2.58,2.41,3.16,3.89,1,2.67,1.47,5.57,2.26,8.34.38,1.32,1,2.58,1.79,4.61,1.57-1.82,2.84-3.09,3.87-4.54a12,12,0,0,0,1.8-3.69c1-3.81,2-7.65,2.73-11.53.87-4.58,1.48-9.2,2.2-13.81.29-1.85,4.19-4.68,5.9-4.27a6.7,6.7,0,0,1,4.68,6.42,54,54,0,0,0,.26,7.62c.29,4.95.8,9.9-.67,14.79-.59,2-.83,4.07-1.61,6a45.91,45.91,0,0,1-4.42,8.94,16.89,16.89,0,0,1-6.27,5.6,15.41,15.41,0,0,1-8.18.86c-5.81-.85-8.72-2.4-11.41-5.05-1.58,2.6-3.43,5-4.6,7.75-1.58,3.68-9.46,6.48-12.82,4.86-5.31-2.56-9.2-6.3-11.22-11.9A7,7,0,0,0,265,471.35Zm-76.84-17.11a9.25,9.25,0,0,0,1.82,0c4-1.16,8-2.43,12.07-3.49,2.27-.59,3.4-1.35,1.53-3.59-.32-.38-.33-1-.55-1.45-1.27-2.66-2.45-5.37-3.9-7.92-.8-1.42-2-2-3.09,0-1.55,2.94-3.29,5.78-4.74,8.76C190.18,448.87,189.34,451.35,188.18,454.24Z"/><path class="cls-1" d="M399.19,464.77c-5,1.75-9.59,2.51-15-.64a26.06,26.06,0,0,1-10.45-11,20.1,20.1,0,0,1-1.85-7.07,74.47,74.47,0,0,1-.05-9.45c0-.58.53-1.52,1-1.64a21.07,21.07,0,0,1,6.11-1.08,11.45,11.45,0,0,1,5.92,1.73c1.12.79,1.48,2.92,1.77,4.52s-.3,3.62.23,5.2a68.41,68.41,0,0,0,3.69,7.72c6.05-4.7,9.1-10.75,12.73-16.41A94.73,94.73,0,0,1,412,424.77c1.26-1.41,3.91-1.57,5.93-2.3,3-1.1,5.73.34,8.33,1.3.89.33,1.51,2.73,1.42,4.13a42.05,42.05,0,0,1-1.58,9.34,80.26,80.26,0,0,1-4,9.46c-1.08,2.38-2.52,4.62-3.4,7.07-1.74,4.85-3.23,9.79-4.77,14.7s-3.41,9.61-3.51,14.9a26.09,26.09,0,0,1-2.16,8.62c-1.1,2.84-5.15,2.61-8.56.56-5.38-3.22-4.54-8.22-3.93-12.87C396.46,474.63,398,469.71,399.19,464.77Z"/><path class="cls-1" d="M434.36,470.86c3.14,1.46,6.48,2.2,6.07,5.58,1.21.9,2.2,1.33,2.71,2.08,3.89,5.72,9.48,7.5,15.86,4.79a10.69,10.69,0,0,0,2.54-2.12c1.45-1.28.45-2.42-.55-3-5.08-3-10.38-5.73-15.38-8.89A80.94,80.94,0,0,1,434.38,461c-3.94-3.58-4.89-8.6-4.33-13.67a37.69,37.69,0,0,1,6.39-17.61,47.49,47.49,0,0,1,6.57-7.95c1.62-1.5,4.09-2.07,6.19-3.05.78-.36,1.59-1,2.36-1,3.44.16,6.87.5,10.3.84a4.06,4.06,0,0,1,1.65.7c1.23.81,3.25,1.53,3.46,2.58.5,2.51-2.25,5.71-4.51,6a7,7,0,0,1-1.88,0c-4.77-.7-7.48,2.16-9.5,5.77a77.11,77.11,0,0,0-5.61,11.48,9.79,9.79,0,0,0,1.63,10c4.52,5.71,11.21,8,16.93,11.84,4.57,3.05,9.49,5.65,12.82,10.23a2.91,2.91,0,0,1,.53,1.16c1,5.7-2.11,11-7.68,13.18A30.67,30.67,0,0,0,465,493.9a17.13,17.13,0,0,1-10.63,2c-2.68-.26-5.7.35-8.33-1.19s-5.86-2.51-8.26-4.43c-1.81-1.45-2.78-4-4-6.09-.4-.66-.33-1.6-.74-2.23C430.39,477.9,432.77,474.56,434.36,470.86Z"/><path class="cls-1" d="M340.9,469.58c-.5,3-.84,6.05-1.54,9-.47,2-1.21,3.61-3.82,4.43-4.13,1.31-7-.09-9.22-3a8.08,8.08,0,0,1-1.05-5.73,66,66,0,0,1,3.3-12.06c2.07-5.39,4.59-10.61,7.06-15.84a83.13,83.13,0,0,1,4.8-8.92c2-3.19,10.7-4,14.12-2.49,5.12,2.19,7.58,6.43,10.54,10.59,2.63,3.69,6,6.86,9,10.27.29.33.81.73.77,1-.64,4.8,3.2,8.41,3.35,13,.15,4.44-.78,6.58-4.3,9.14-.93.68-3.86-.44-4.28-1.72s-.6-1.54-2-1.18c-.73.19-2.3-.87-2.71-1.73-1.66-3.53-3-7.21-4.53-10.8a2.36,2.36,0,0,0-1.46-1.2c-4.79-.8-8.51,1.48-11.82,4.52C345.45,468.45,343.81,469.73,340.9,469.58Zm12-17.47.26-1-3.35-1.68L348,453Z"/><path class="cls-1" d="M791.33,462.39c-3.51.66-6.48-.72-9.4-2.58-1.47-.94-1.8-1.91-1.15-3.43,1-2.39,3.38-3.83,6.8-5a156,156,0,0,0,15.07-5.78c3.19-1.44,6-.28,8.88.43.84.21,1.63,2.05,1.78,3.23a19.25,19.25,0,0,1-.41,4.75c-.19,1.61-.35,3.07-2.6,3.35-.5.06-.72,2.38-1.08,3.66l-1.16-1.53c-.47,3.61-.68,7.27-1.47,10.8a24,24,0,0,1-3.12,8.26c-3.44,5-6.74,10-13.32,12.11-7.6,2.45-13.93.77-19.25-4.28-4.91-4.65-6.82-10.8-6.76-17.79.08-9.56,3.49-18,7-26.61,2.24-5.52,5.32-10.31,9.89-13.85,2.69-2.09,6.29-4.14,9.49-4.16,4.44,0,8.77,2.29,12.3,5.27,1.9,1.61,1.12,7.41-1.08,8.77a3.68,3.68,0,0,1-3.08,0,19.59,19.59,0,0,1-4.18-3c-1.1-1-1.91-1.55-3.31-.35-4.41,3.76-6.91,8.66-8.57,14a131.65,131.65,0,0,0-4.11,15.22,35.9,35.9,0,0,0,0,11,5.54,5.54,0,0,0,4.7,5.05c3.29.42,4.75-2.25,6.27-4.35C791.78,472.36,792.47,466.55,791.33,462.39Z"/><path class="cls-1" d="M741.75,432.35c1.87-1.67,3.68-3.4,5.62-5,1.26-1,6.35.27,7,2,1.47,3.62,2.69,7.34,3.87,11.06a14.66,14.66,0,0,1,1,5.12c-.31,4.8-.35,9.75-1.64,14.32A16.32,16.32,0,0,1,748.25,470a15.48,15.48,0,0,1-12.13.1c-5.33-2.12-10.49-4.69-16-7.19-.17,2.11-.35,4.68-.59,7.23-.33,3.43-.68,6.86-1.1,10.27-.34,2.72-4.68,5.09-7.25,4.06-2.2-.87-4.88-1-5.65-4-.67-2.58-1.46-5.12-2.16-7.69-.25-.93-.11-2.06-.59-2.81-1.78-2.74-.87-5.72-1.08-8.61-.1-1.45-.93-2.87-1-4.31-.15-4.33,0-8.67-.13-13a5.22,5.22,0,0,0-1-2.37c-2.28-3.59-.83-6.09,3.11-7.54a7.43,7.43,0,0,1,6.11.24c.4.16,1.11.26,1.15.49.52,2.93,2.86,1.79,4.57,2.3A7.54,7.54,0,0,1,718.7,440c3.54,6.09,7.63,11.56,14,15a72.24,72.24,0,0,0,6.6,3.27c1.89.79,2.47-.42,3.6-2,2.92-4.09,2.09-8.48,1.89-12.77-.17-3.59-1.19-7.14-1.83-10.7Z"/><path class="cls-1" d="M624.47,460.77c-3.15.88-6.11,1.65-9,2.54a2.65,2.65,0,0,0-2,3.5c1,3.25,2.16,6.44,3.11,9.7.63,2.21,1.84,4.7-1.6,5.93-.48.18-.77.89-1.16,1.37-2.22-1-4.35-2.1-6.6-2.88-4.47-1.56-5.94-5.24-7.47-9.23-.56-1.45-2.82-2.26-4.33-3.31-1.34-.93-3.23-1.49-4-2.75-2-3.35-1.8-4.78,2.51-6.91,3.14-1.55,2.42-3.49,2.32-5.75-.07-1.42,0-2.84,0-3.45-.52-.9-1.06-1.42-1.11-2a77.63,77.63,0,0,1-.44-9.86c.08-1.53,1.17-3.08,2.06-4.46,2.4-3.71,9.12-3.41,12.08-.16,2.29,2.51,1.85,5.05,2,7.86a109,109,0,0,0,1.58,10.84c2.65-.52,5-1,7.42-1.43a5.6,5.6,0,0,1,2.62-.24c3,1.09,3.48-.87,3.76-3a83.12,83.12,0,0,0,.25-9.6c0-1.42,1-2.93,1.9-4.19a15.68,15.68,0,0,1,3-3.06,2.56,2.56,0,0,1,1.9-.59c4.5.95,6.85,4.45,6.55,9.15-.23,3.73-.24,7.48-.21,11.22,0,.89.7,1.76.89,2.68s.75,2.61.26,3.11c-2.58,2.73-1.19,5.78-.89,8.63a75.17,75.17,0,0,0,1.91,9.44c.87,3.66-.33,8.09-2.76,9.52-.57.33-1.49.75-1.92.52-3.36-1.83-7.23-3-8.24-7.6-.56-2.57-2.24-4.88-3-7.43A67.8,67.8,0,0,1,624.47,460.77Z"/><path class="cls-1" d="M831.09,452.84a19,19,0,0,1,4.31-1.37c4.16-.31,8.38-1.43,12.43.92,1.47.86,2,1.95,1.5,3.23-.53,1.45-1.28,3.35-2.48,3.93-4.29,2.07-8.81,3.65-13.24,5.43-.64.25-5.21,5.75-5.38,6.41a11.58,11.58,0,0,0,2.13,10.48c1.23,1.59,2.73,2.48,5,1.43,3.07-1.43,6.35-2.42,9.47-3.76,1.73-.74,3.23-2.13,5-2.61,1.24-.34,3.57-.05,4,.72.73,1.37,2.06,3.36,0,5-.39.32-.3,1.18-.62,1.65-.95,1.41-1.77,3.05-3.06,4.07a34.23,34.23,0,0,1-8.07,5.21,20.7,20.7,0,0,1-9.23,1.51A27.71,27.71,0,0,1,822.67,492c-5.37-2.87-9.16-7.78-9.65-13.71-.43-5.17,1-10.55,2-15.77s2.4-10.59,3.69-15.87a21.32,21.32,0,0,1,1.29-3c-.32-.21-.89-.58-1.42-1-1.14-.89-1.22-1.72-.16-2.88,1.79-1.93,3.26-4.16,5.1-6,1.63-1.65,4-3.15,6.11-1.88,3.24,1.94,6.27,1,9.43.46a58.48,58.48,0,0,1,6-1.07c3.53-.18,7.08-.13,10.61,0a5.08,5.08,0,0,1,4.53,5.59c-.07.39-.59.73-.95,1.05a24.35,24.35,0,0,1-12.77,5.75c-3.8.6-7.56,1.48-11.35,2.09-1.87.3-2.77,1.13-3,3.06A25.48,25.48,0,0,1,831.09,452.84Z"/><path class="cls-1" d="M674.89,422.59c1.6,1,3.52,1.73,4.77,3.07,3.69,4,5,9.18,6.92,14.06s3.58,9.79,5.55,14.62c.32.8,1.56,1.27,2.44,1.79,1.9,1.11,2.26,2.74,1.11,4.62a2.41,2.41,0,0,0-.3,2c1.47,3.07,3.35,6,4.57,9.12a32,32,0,0,1,2,8.79c.16,1.9-1.4,2.73-3.57,3-3.87.47-6.16-.4-7.66-3.79a4.06,4.06,0,0,0-.8-1.35c-4-3.76-6.08-8.62-8.27-13.46-.27-.61-1.27-1.44-1.74-1.33-4,.91-8,1.9-11.88,3.11-3.64,1.12-4.36,4.61-5.69,7.59a33.34,33.34,0,0,1-2.74,4.83,11.46,11.46,0,0,1-2.28,2.44,5.71,5.71,0,0,1-2.06,1c-2.22.63-6.52-1.45-7.94-3.22-2-2.47-.91-3.88.52-6.31,3.34-5.67,5.86-11.84,8.54-17.88,1.84-4.16,3.5-8.4,5.06-12.67,1.16-3.19,1.85-6.56,3.09-9.72a23,23,0,0,1,3.92-7.2C669.87,424.18,672.41,423.72,674.89,422.59Zm-1.7,23.93c-.68,1.66-1.22,3.13-1.9,4.54s-.09,2.45,1.35,2.68a24.89,24.89,0,0,0,4.05.05C677.05,450.31,675.52,447.19,673.19,446.52Z"/><path class="cls-1" d="M596.14,469.75a24.81,24.81,0,0,1,1.53,3c.86,2.44-.13,4.33-1.95,6a51.66,51.66,0,0,1-14.1,9.48c-6.73,2.91-13.47,3.62-20,1-4.48-1.82-9.17-3.71-12.62-7.85-1.66-2-3.7-3.54-4.16-6.19-.86-4.93-.81-9.83,1.56-14.41s4.56-9.57,7.55-13.86c2.37-3.39,5.76-6.1,8.85-9a28.27,28.27,0,0,1,5.15-3.63,63.91,63.91,0,0,1,7.89-4c3-1.2,10.54,3.3,10.92,6.62.14,1.17-.79,2.66-1.63,3.68a2.63,2.63,0,0,1-2.56.16c-2.45-1.83-4.95-2.91-7.66-.92a38.67,38.67,0,0,0-5.92,5.29,65.38,65.38,0,0,0-5.86,7.7,23.25,23.25,0,0,0-2.09,4.9,55.3,55.3,0,0,0-2.1,6.21c-1,4.18-.89,8.6,2,11.77,1.74,1.9,5,2.93,7.72,3.28a20.44,20.44,0,0,0,11.18-1.35c4.29-1.91,8-4.72,12.08-6.9C593.1,470.11,594.64,470.08,596.14,469.75Z"/><path class="cls-1" d="M651.61,686.34c-2.75,3.73-5.06,7.66-8.16,10.83s-7.39,6.38-12.13,5.48c-4.9-.93-9.94-2.8-12.35-8.13-.84-1.85-2.55-3.46-2.9-5.35-.73-4-.77-8.09-1.2-12.14-.62-5.89.83-11.5,2.16-17.13.61-2.57,1.13-5.17,1.74-7.74.27-1.14,4.59-3.66,5.72-3.3,1.56.51,3.56.74,4.49,1.84a9.49,9.49,0,0,1,1.88,8.12,160.35,160.35,0,0,0-2.39,17.25c-.28,4.21.45,8.49.79,13.5,1.06-.77,1.5-1.1,2-1.42,4.68-3.25,7.62-7.86,10.18-12.81,2.37-4.59,5.05-9,7.31-13.69,1.87-3.83,3.32-7.85,4.93-11.8a6.59,6.59,0,0,1,8.84-3.61,10.68,10.68,0,0,0,1.3.22,5.27,5.27,0,0,1,3.81,6.29c-.46,2.48-.54,5-1,7.49-.61,3.36-1.66,6.65-2.06,10a29.55,29.55,0,0,0,.12,8.71c.86,4.62,2.41,9.11,3.45,13.7.28,1.28.26,3.31-.51,4-1.44,1.26-2.94,2.45-5.66,1.55-5.33-1.76-7.15-6.08-9.3-10.36-.2-.38-.32-.8-.53-1.18C652,686.54,651.83,686.48,651.61,686.34Z"/><path class="cls-1" d="M536.6,685.32c-.62,0-1-.17-1.14-.05-4.5,2.84-8.18.41-12.37-1.29-6.63-2.7-9.65-8.2-11.92-14.05-1.89-4.9-2.42-10.34-3.54-15.54a9,9,0,0,1-.48-3.1c.28-1.64.27-3.6,3-3.53,1,0,2-1.55,3.17-1.8,4-.9,5.84,2.89,6.58,6.74.91,4.68,1.57,9.46,3.1,13.94.86,2.54,3.25,4.55,5.23,7.17,2.1-2.42,3.82-4.52,5.66-6.51,5.24-5.68,8.13-12.89,12.58-19.09a23.69,23.69,0,0,1,9.19-7.82c1.22-.57,3.54-.06,4.75.81,5,3.56,5.72,6.79,3.58,12.75-.9,2.52-1.44,5.2-2.58,7.6-.83,1.77-1,4.18-3.38,5-.37.12-.57.86-.75,1.36-2.76,7.84-5.53,15.68-8.25,23.54-1.48,4.27-3,8.54-4.28,12.88-1.12,3.8-3.72,5.5-7.57,4.57-3.18-.76-5.89-6.93-4.65-10,1.06-2.65,1.72-5.45,2.54-8.18C535.58,689,536.06,687.24,536.6,685.32Z"/><path class="cls-1" d="M584.7,705.73c-1.23,0-2.64-.32-3.82.06a9.12,9.12,0,0,1-7.34-.78c-3.66-1.85-7.53-3.35-9.31-7.6-1.41-3.35-2.79-6.56-1.75-10.37,1.6-5.88,2.53-12,4.56-17.71,2.54-7.18,4.77-14.72,10.81-20.05,3.91-3.46,11.9-5.48,16.62-1.69a2,2,0,0,0,1.82,0c4.62-2.51,7.64.71,9.4,4.21,2.14,4.27,1.93,8.85,2,13.59.07,6-1.51,11.36-3,16.88a2.81,2.81,0,0,1-.76,1.33c-3.25,2.69-4,6.89-6.28,10.16a26.15,26.15,0,0,1-3.89,4.67c-2.13,1.89-4.56,3.43-6.81,5.19A23.31,23.31,0,0,0,584.7,705.73Zm10.87-43.19-.8.21c-1.21-1.28-2.35-2.65-3.67-3.81-.63-.55-2-1.22-2.36-.94-1.65,1.27-3.63,2.59-4.45,4.37a108.31,108.31,0,0,0-4.94,13.23c-1.57,5-3.74,9.94-3.25,15.39,0,.62.27,1.6.64,1.73a2.67,2.67,0,0,0,2.09-.32c3.8-2.72,7.32-5.64,9.89-9.73A43.33,43.33,0,0,0,595.57,662.54Z"/><path class="cls-1" d="M691.49,671.5a85.11,85.11,0,0,1,6.75-26.26c1.7-4,3.37-8,5-12.08.81-1.92,5.21-2.74,7.12-2.29,3.49.83,4.37,3.54,5,6.18.4,1.63-.22,3.65-.82,5.34-1.43,4-3.3,7.79-4.66,11.79-1.51,4.46-2.62,9.05-4,13.56a81.54,81.54,0,0,1-2.82,8.42c-.52,1.23-1.77,2.15-2.74,3.18-.22.23-.69.51-.91.42-1.76-.68-4-1-5.11-2.3C693,675.89,692.42,673.53,691.49,671.5Z"/><path class="cls-1" d="M702.54,699.56c.07.93.18,1.86.19,2.8s.37,2.43-.15,3.07a4.85,4.85,0,0,1-5.13,1.66c-2.65-.73-5.16-1.35-6.48-4.56a5.27,5.27,0,0,1,1.17-6.18,4.47,4.47,0,0,1,5.71-.71c1.12.73,2.54,1,3.69,1.67.65.39,1,1.25,1.52,1.9Z"/></g><g id="Ebene_1" data-name="Ebene 1"><path d="M548.06,576.33c.29,3.87.31,7.8.94,11.61.68,4.11-1.53,6.87-5.59,7.12-3.54.22-4.92-1.6-6.76-4.19-2.42-3.41-2.37-7-2.5-10.68-.13-3.87.54-7.85-.17-11.59-1-5.33.89-10.13,1.39-15.18.19-1.91-.18-3.88-.15-5.82,0-3.87.89-7.43,5.17-8.69,1.88-.55,3.81-1,5.86.35,2.65,1.75,3.75,3.36,3.24,6.94-.39,2.7,1.32,5.89,2.62,8.61,2.26,4.74,4.92,9.28,7.82,14.65l2.88-6.7,1.54.93c.2-.21.39-.31.42-.44a69.65,69.65,0,0,0,1.4-8.29,79.64,79.64,0,0,0-.34-8.72c-.12-2.5-.41-5-.3-7.49.07-1.76,5-3.84,6.68-3,.93.47,1.9.88,2.86,1.29s1.91.75,3.11,1.22c.07.64.17,1.59.33,3a39.13,39.13,0,0,0,4.93-1.43c8.35-3.69,16.88-3.62,25.78-2.41a48,48,0,0,1,10.69,2.5,3.68,3.68,0,0,0,2.46-.62c2.78-1.45,5.52-2.7,8.77-1.52a4.26,4.26,0,0,1,3.2,4.34c0,2.3-.48,4.6-.46,6.89,0,4.37,1,8.45,5.19,11.86,1.86-2.36,3.73-4.7,5.58-7.06.32-.41.47-1.17.85-1.29,4.53-1.41,4.91-6,6.43-9.26a15,15,0,0,1,6.88-7.41c1.84-1,6.38.09,8,1.83,1.15,1.24,1.33,5.19.38,6.84-1.74,3-3.44,6.06-5.14,9.11-1,1.83-2,3.66-3,5.52-4,7.74-7.9,15.5-11.92,23.21-1.58,3-3.25,6-3.73,9.46-.13.88-.5,2.79-2.47,1.63-.16-.09-.73.37-1,.66-2.06,2-4.47,1.82-6.13-.39-1-1.31-2.27-2.45-2.93-3.89a6.12,6.12,0,0,1-.44-4c1-3.27,2.35-6.42,3.6-9.6.81-2.05.55-3.64-1.47-4.92-4.91-3.09-9-7-11.1-12.54a22.57,22.57,0,0,1-1.06-3.78c-.44-2.35-3.09-3.9-2.4-6.68a2.65,2.65,0,0,0-1.5-.74,44,44,0,0,0-7.26.08,3.32,3.32,0,0,0-2.24,2.26c-.53,5.73-1,11.48-1.09,17.23-.1,4.73.22,9.48.47,14.22.16,2.95-2.91,5.65-5.66,6.33a5.64,5.64,0,0,1-6.32-2.17,18.31,18.31,0,0,1-2.48-7.83,64.43,64.43,0,0,1-.09-9.73c.08-3.33.35-6.66.45-10,.08-2.69,0-5.38,0-8.52-4.09,1.58-8,3-11.78.18-1,6.65.1,13.33-3.58,19.49-1.61,2.71-2.14,6.12-4,8.94-3,4.45-7.8,7.11-12.66,5.44-3.38-1.16-6.34-3.56-9.39-5.56-.75-.49-1.1-1.58-1.63-2.39Z"/><path d="M426.5,568.17c.82,3.58,1.49,6.53,2.16,9.48a5.38,5.38,0,0,1,.33,1.25c-.11,5-4.52,7.29-9.18,5.7-5.38-1.83-6.4-6.16-8.22-10.61-2.39-5.85-1.85-12.09-3.47-18a25.8,25.8,0,0,1-.52-9A21.94,21.94,0,0,1,410,539a15.49,15.49,0,0,1,4.65-4.72c1.79-1.33,3.81-2.52,6.27-1.2.58.31,1.45.09,2.18.11,4,.1,3.63,4,4.66,6.15,2,4.31,2.65,9.28,4.69,13.58,1.4,3,4.17,5.29,6.48,7.76.21.22,1.89-.37,2.3-1a31.47,31.47,0,0,1,6-6.62c3.28-2.75,4.93-6.9,6.14-11.1.51-1.72,1.44-3.32,2.1-5,.54-1.37.84-2.84,1.49-4.15,1.51-3.07,3.09-6.12,4.8-9.08,1.46-2.53,5.88-3.63,8.55-2.33a1.26,1.26,0,0,0,.76.18c3.82-.75,4.15,2.19,4.27,4.53.34,6.55.26,13.13.46,19.69.19,6.36-.35,12.83,2.31,18.9.69,1.57,1.46,3.11,2.39,5.06,1.1-3.9,1.76-7.49,3.12-10.8,1.86-4.54,3.73-9.25,6.58-13.16,2.23-3.06,6-5,9-7.47s6-1.71,9.57-1c2.84.54,5.77.53,8.37,2.09a9.43,9.43,0,0,1,4.71,6,31.43,31.43,0,0,1-.71,18.5,41.56,41.56,0,0,1-5.81,11.36c-2.95,3.93-5.51,8-10.15,10.27s-9.37,4.85-14.67,2.24c-1.9-.93-3.23-3-5.1-4.05-2.25-1.28-3.66-3.65-6.66-4.07a19.82,19.82,0,0,1-7-3c-2.71-1.64-4.37-4.28-5.87-7.09-.94-1.75-2.76-3-3.9-4.67a35.22,35.22,0,0,1-2.31-4.74s-.13,0-.32,0c-2.6,3.28-4.89,7-8,9.82-2.07,1.85-5.31,2.43-8.07,3.44C436.72,575.83,432.18,571.62,426.5,568.17Zm69.84,8.21c2.65-2.36,5.75-4.15,7.4-6.84A49.44,49.44,0,0,0,509.06,557c1-3.62.2-7.44-1.27-11C499.91,549.57,492.24,569.87,496.34,576.38Z"/><path d="M625,328.5v-8.77c0-1,0-2,0-3,.09-3.69,3.47-7.24,7.07-6.92,1.52.14,2.94,1.4,4.41,2.16a5.28,5.28,0,0,1,2.78,3.55c1.59,4.94.14,9.68-.12,14.46-.18,3.23-.08,16.34,1.07,19.32l7.51-3.44,0,.42c.85-.14,1.9,0,2.53-.46,3.78-2.74,7.47-5.61,11.19-8.42a4.29,4.29,0,0,1,1.53-.95c2.88-.68,3.22-1.52,3-4.43-.3-3.49-.08-7-.08-10.54a21.3,21.3,0,0,0,0-4.59c-.56-2.41.3-3.22,2.42-4.47,3.46-2,5.92.05,8.72.93a2.68,2.68,0,0,1,1.45,1.87c.45,3.33.72,6.69,1,10a41.36,41.36,0,0,0,1.12,7.95c.34-4,1.1-8,.92-12-.23-4.89,4-7.47,8.87-6.87a29.5,29.5,0,0,1,4.59,1.11c1.84.54,3.55,4,3.27,6.17-1.08,8.39-2.1,16.79-3.16,25.19-.19,1.57-.45,3.13-.7,4.82,2.14-.66,4.28-.86,5.89-1.9,4-2.55,7.65-5.65,11.65-8.2a42.53,42.53,0,0,1,8.27-3.82c.77-.28,2,.66,3.54,1.24.23-3.84.43-7.26.62-10.55-4.07-2.56-4.47-3.46-3.35-7.92a41.37,41.37,0,0,1,2.33-7.48,5.66,5.66,0,0,1,3.32-2.44,114.33,114.33,0,0,1,13-3.16c3.95-.65,7.51,1.42,11.23,2.44,6.13,1.69,10.72,5.45,14.3,10.34,2.11,2.86,3.19,6.46,4.88,9.66s2,6.51,2.17,10a40.73,40.73,0,0,1-4.51,21,32.56,32.56,0,0,1-5.81,8.16,30.79,30.79,0,0,1-7.75,5.07,16.22,16.22,0,0,1-5.82,1.47c-4.57.41-9.24,1.47-13.36-1.89a22.13,22.13,0,0,1-8.66-16.08c-.34-4.34-1.11-8.65-1.71-13.14-1.9,2.18-3.46,4.22-5.28,6-2.21,2.17-4.67,4.09-6.94,6.19-1.73,1.6-3.09,3.79-5.07,4.9-4,2.24-7.39,5.8-12.38,6.25-10.25.93-14.6-1-16.53-11.62-.53-2.89-1.94-5.73-.65-8.79.08-.2-.68-1-1.14-1.12a23.4,23.4,0,0,0-3.38-.28c-2.89,4.54-8,6.78-12.73,9.62-4.88,3-9.72,6.23-15.63,6.71a55.68,55.68,0,0,1-8.05-.3c-5.84-.36-8.44-4.86-11-9.11-1-1.61-.87-3.87-1.85-5.86a16.18,16.18,0,0,1-1,3.52c-3.49,6.62-6,14-12.53,18.47a106.69,106.69,0,0,1-10.13,6.28c-1.25.67-3,.41-4.55.48-12.15.53-17.11-11.11-16-19.15a157.76,157.76,0,0,1,3.79-19.93c2.19-8,5.34-15.64,12-21.2a5.86,5.86,0,0,1,5.36-1.11c5.41,1.33,11,2.38,16.07,4.46,2.37,1,4,4,5.74,6.24a12.3,12.3,0,0,1,1.29,3.41Zm129.7,19.32c2.82-3.61,2.77-7.68,2.81-11.63,0-1.74-.81-3.5-1.32-5.24-1.2-4.11-4.51-6.49-7.77-8.66a27,27,0,0,0-8.14-3.44c-.67-.18-2,2-3,3.18a.4.4,0,0,0-.08.3,8.44,8.44,0,0,1,.92,2.28c.42,6.16.73,12.33,1.13,18.5.18,2.95.6,5.88.69,8.83.11,4,2.15,7.44,3.12,11.19.12.48.89,1.27,1.07,1.2a16.06,16.06,0,0,0,4.6-2.27,19.53,19.53,0,0,0,3.78-4.73c1.51-2.55,2.74-5.27,4.08-7.91Zm-153.61,9.81c7.82-8.32,11.28-17.58,8.88-28.31-1.36-.16-2.27-.2-3.14-.38-3.46-.69-5,0-6.1,3.37-1.72,5.14-3.37,10.32-4.76,15.56a30.45,30.45,0,0,0-.78,13.62l5-6.35Z"/><path d="M526.85,351.61a24.47,24.47,0,0,0,1.84-3.89,9,9,0,0,0-.19-3c-.72-7.15-1.43-14.31-2.18-21.46-.29-2.72-.86-5.42-1-8.14a38.34,38.34,0,0,1,.52-5.7c3.41-1.54,6.72-2,10,0,2.19,1.36,3.87,2.83,4,5.83.38,6.81,1.15,13.6,1.77,20.51,2.5-.83,5.06-1.63,7.59-2.51,4-1.41,4.11-1.43,4-5.95-.09-4.72-.34-9.44-.51-14.16a5,5,0,0,1,6.32-4.74c1.33.41,2.83.49,4,1.16,3.23,1.84,4,5.14,4.17,8.49.2,5.11-.24,10.26.14,15.35a63.81,63.81,0,0,0,2.3,13.47c1.21,4,3.37,7.74,5.3,11.5,1.8,3.51,1.57,7.06-1.15,10-.42.44-1.44.39-2.19.42-1.45.06-2.9,0-4.92,0-7-5.81-9.62-14.78-12.7-23.55-2.66,0-8.35,3.59-8.88,6.21-.26,1.26.6,3.83,1.35,4,2.81.63,2.34,2.56,2.61,4.43s1,3.94,1.32,5.94c.18,1.16.36,2.92-.28,3.47-1.36,1.16-2.91,3.28-5.15,1.21-3.14,2.65-7.54.78-9-3.45a36.68,36.68,0,0,0-3.89-7.61c-.58-.91-2.06-1.26-3.53-2.09.17-.14-.44.14-.52.53-1.07,5.84-5.26,8.63-10.14,11.17-4.47,2.33-9,4.34-14,4.44-3.77.07-7.76,0-11.29-1.11-4.4-1.41-6.28-5.66-7.13-9.93a29.55,29.55,0,0,1-.05-8.35c.26-2.89,2.9-4.44,5.77-3.86a8.89,8.89,0,0,0-1.66-1.37c-7.4-3.46-12.72-13.3-11-21.4.94-4.44,2.91-8.79,7.07-11.74,2.54-1.81,4.49-4.43,6.84-6.54,2.89-2.59,6.59-2.61,10.18-3.32,4-.79,7.44.51,11,1.3,3.75.81,8,5.19,8.33,8.82,0,.48,0,1.3-.32,1.43-1.74.83-3.54,2-5.36,2.1-2.06.11-4.19-.71-6.25-1.28-2.49-.68-4.43-2.12-7.51-.11-4.74,3.1-7.37,7.28-9.21,12.24-.85,2.31-.34,4.13,1.39,6.4,4.25,5.57,10.43,6.05,16.28,7.83,4.91,1.49,9.66,3.53,14.43,5.43C526.08,350.28,526.47,351.15,526.85,351.61Zm-16.73,7c.05-.57.1-1.13.16-1.7l-15.36-5.22c.72,3.32,1.16,6.07,2,8.69a3,3,0,0,0,2.42,1.54C503,361,506.53,359.78,510.12,358.64Z"/><path d="M769.79,573c1.6-6.41,3-12.7,4.78-18.88,1.33-4.59,2.29-9.49,6.07-12.9.89-.8,2.4-1,3.66-1.26,6.24-1.28,8.72,3.36,11.41,7.46s4.93,8.28,7.63,12.26c.6.87,2.24,1.17,3.46,1.46,2.6.63,2.62,3.88,2.28,4.45-1.61,2.67.82,3.72,1.61,5.33A23.65,23.65,0,0,0,813,573.9c2.13,3,4.38,5.92,6.27,9.06a20.87,20.87,0,0,1,2.07,5.83c.34,1.39.15,2.57-1.81,3.19s-3.72,2.7-5.92,1.18a22.67,22.67,0,0,1-4.57-4.4c-3.3-4-6.42-8.2-9.65-12.28-.95-1.2-1.91-3.06-3.06-3.23s-2.28,1.7-3.51,2.56a46.78,46.78,0,0,1-5.42,3.45,4.24,4.24,0,0,1-2.9.08c-2.28-.73-3.18-.31-3.52,2.18-.27,2-.12,4.14-.71,6.05a6.11,6.11,0,0,1-2.73,3c-1.07.62-2.53.59-4,.88,1.43,2.64,1.27,5.42.51,8.25-.85,3.12-3.3,4.14-6.33,2.91s-4.52-3.58-5.53-6.23c-3.16-8.35-6.31-16.72-6.1-25.88,0-.21-.3-.42-.36-.49-2.67,1.15-5.25,2.31-7.86,3.38-1.87.78-5,5.66-5.19,7.79a66.2,66.2,0,0,1-1.7,10.12c-.24.88-2.19,1.43-3.45,1.83-.66.21-1.52-.27-2.3-.35-2.62-.27-3.94-2.15-4.34-6.58-.28-3.1.09-6.35-.68-9.32-1.55-6-.89-12.08-1.44-18.1a142.1,142.1,0,0,1-.5-15.85,14.86,14.86,0,0,1,1.92-6.69c1.51-2.67,7.61-1.94,9.2.76,2.16,3.67,2.56,7.47,2.06,11.68-.33,2.79.54,5.71.76,8.58.12,1.61,0,3.24,0,5.14l13.36-3.82c.28-9.54,1.33-19.05-.06-29.2a44.25,44.25,0,0,1,4.58-2.82c2.19-1.05,6.41.89,7.86,3.57a13.81,13.81,0,0,1,1.29,8.67c-.21,1.61.41,3.32.38,5-.1,5.9-.44,11.8-.46,17.7C769.16,565.29,769.56,569.08,769.79,573Zm17.1-15.78c-.85,3.09-1.51,5.48-2.29,8.27l6.28-2.73Z"/><path d="M855.51,586.27c-2,1.11-4.07,1.84-5.56,3.19-4.24,3.82-9,4.42-14.52,4a16.45,16.45,0,0,1-14.07-9.15c-2.61-4.8-2.54-10.05-2.31-15.54.34-8.41,3.88-15.84,5.65-23.78a6.35,6.35,0,0,1,5.76-4.8c2.29-.25,5.25.43,5.94,3.32a12.69,12.69,0,0,1-.2,6.09c-2.35,8.48-3.83,17.07-3.44,25.89.29,6.69,4.32,7.09,9.39,4.91,2.83-1.22,5.18-3.7,8.06-4.66,4.69-1.56,3-5.25,3.6-8.28.7-3.79,1.54-7.55,2.36-11.31,1.15-5.21,2.36-10.4,3.5-15.61.41-1.84,4.55-4.22,6.37-4.21,3.89,0,5.7,2.22,6.4,5.57.27,1.31-.25,2.77-.36,4.17-.33,4.17-.74,8.31-3.07,12a2,2,0,0,0-.16.78l-2.1,19.76a1.22,1.22,0,0,0,0,.27c.2,2.54,6.19,6.08,8.26,4.64,4.12-2.87,8-6.06,12-9.12,1.6-1.22,3.14-2.52,4.79-3.66,1.15-.79,6.68-.3,7.42.65a2,2,0,0,1,.2,1.73c-1.21,2.8-2,6.13-4,8.15s-3,5.25-6,6.71c-1.86.91-3.29,2.82-4.72,4.46-2.49,2.83-6,3.79-9.29,4A33.88,33.88,0,0,1,865,594.9C861.68,594,856.61,589,855.51,586.27Z"/><path d="M263,333.57l2.83-4.91,1.17,1.88c4.82-6,9.44-12,14.29-17.76,3-3.6,7.31-4.41,11.64-3.49,1.54.33,3.63,2.27,3.88,3.75.8,4.77,1.56,9.75,1.05,14.5a210.56,210.56,0,0,1-4.17,22.78c-1.13,5.11-2.89,10.08-4.33,15.12-1.52,5.3-3.54,10.53-4.34,15.94-.73,4.91-3,8.81-5.37,12.19l-5.83.93A11,11,0,0,1,270,382.34c2.92-11,5.53-22,8.27-33.07.82-3.3,1.71-6.59,2.5-9.9a2.85,2.85,0,0,0-.39-1.67c-2.41,6.41-7.34,9.91-13.44,11.94a9.54,9.54,0,0,1-4.31-.09c-9.64-1.5-11.49-9.89-14.59-17-1.89-4.32-2.83-9-4.51-13.45-1.25-3.27.14-5.74,4-5.7,1.89,0,3.92-.42,5.64.11,2.44.76,3.94,2.53,4.65,5.36,1.08,4.24,3,8.27,4.5,12.39C262.43,331.78,262.56,332.28,263,333.57Z"/><path d="M380,353.22c-1,1.11-2,2.22-3,3.33-1.61,1.8-3.17,3.65-4.86,5.38-3.41,3.46-7.45,4.16-12.21,3.34-2.54-.44-4.9-.73-6.57-2.74-2.68-3.23-5.51-6.41-6.29-10.78-1.66-9.29-.91-18.57,0-27.86a8.89,8.89,0,0,1,13.48-7.14c2,1.3,2.56,4,2,6.8a135.51,135.51,0,0,0-2.45,15.87c-.25,3.27.65,6.63,1.06,10.09,7.59-3.35,8.52-10.66,10.64-17.17,1.4-4.32,2.41-8.77,3.67-13.14.63-2.21,5.5-4.61,7.67-3.9a3.75,3.75,0,0,0,1.54.25c4.65-.56,6.37.78,6.54,5.35.15,3.82.2,7.65.19,11.47,0,5.57,0,11.16,1.79,16.51a54.29,54.29,0,0,0,2.62,5.51,44.51,44.51,0,0,1,2.2,5c.73,2.25-.15,3.57-2.56,3.93a40.87,40.87,0,0,1-4.95.32c-2.78.06-4.72-1.72-6.26-3.59A56,56,0,0,1,380,353.22Z"/><path d="M318.7,376.74c.13-.92.27-1.84.33-2.23-3.84-.29-7.74.23-11-1-4.89-1.88-7.65-6.33-8.88-11.4a41.6,41.6,0,0,1,.08-18.64,115.22,115.22,0,0,1,4.9-15.22,61,61,0,0,1,3.56-7,13,13,0,0,1,8.77-6.56c2.47-.61,5.18-.21,7.78-.4a41.22,41.22,0,0,0,7.64-.91c2-.55,3,.48,4,1.63a19.92,19.92,0,0,1,4.75,10.85,68.09,68.09,0,0,0,1.85,7.07c.51,2,.77,4-.52,6a4.26,4.26,0,0,0-.51,3.55,11.63,11.63,0,0,1-1.64,9.4c-1.37,1.93-1.91,4.47-3.34,6.34-3,3.95-6.27,7.74-9.67,11.38-1.38,1.47-3.46,2.25-5.06,3.55a9.48,9.48,0,0,0-1.64,2.58c-.29.49-.57,1-.86,1.5Zm2-19.17a33.53,33.53,0,0,1,2-3.8c6.13-8.51,6.59-18.24,6-28.16-.14-2.39-1.93-3.25-3.93-1.93a15.8,15.8,0,0,0-6.17,7.78A111.9,111.9,0,0,0,314,347.55c-.89,4.49-.77,9.17-1.1,13.76l1.11.32,5.83-6.13Z"/><path d="M365.38,673.74a58.47,58.47,0,0,1-.67-6.48c.09-7.51.36-15,.49-22.53.09-5.47,4.1-7.09,8.14-6.68,3.06.31,3.73,1.89,4.48,4.63,1.19,4.36.13,8.45-.08,12.67a68.62,68.62,0,0,0,.55,8.23c2.77.29,5.18-.07,7.41-2.21a32.17,32.17,0,0,0,6.45-9.28c2.13-4.33,4.58-8.49,6.84-12.75,1-1.93,2-3.91,2.87-5.91a4.91,4.91,0,0,1,5-3.1c2.05.13,4.53.11,6,1.24,2.39,1.84,2.18,5.24,1.12,7.55-3.39,7.43-7.23,14.67-11.12,21.86-1.29,2.37-3.25,4.38-5.23,7,4.46,3,9.41,6.14,14.82,7.84,5.17,1.62,10.61,4.58,16.6,1.2a13.31,13.31,0,0,0,.85,2.46c.84,1.41.31,4,3.07,3.87a.57.57,0,0,1,.39.34c1.16,4.94,5,3.25,8.06,3.09,1,0,2.7-1.32,2.79-2.17s-1-2.31-2-3.09c-2.32-1.94-5-3.46-7.21-5.5s-3.93-4.57-6-6.78c-5.27-5.68-8-12.23-7.25-20.07a3.44,3.44,0,0,1,.44-1.73c3-3.54,6.22-6.67,10.95-7.77,5-1.16,11.42,3.55,11.76,8.69.09,1.45,0,2.91,0,4.52a9.24,9.24,0,0,0-1.48-.12c-2.67.42-5.32.75-7.57-1.36,0,0-1.74,1.26-1.63,1.64a67.12,67.12,0,0,0,2.68,7.43,7.85,7.85,0,0,0,1.92,2.76c3.25,2.92,6.7,5.64,9.9,8.62a58.46,58.46,0,0,1,7.32,7.7c2.51,3.38,1.07,10-1.78,13a18.9,18.9,0,0,1-16.23,6c-5-.52-10.22-1.74-13.15-6.94a62.37,62.37,0,0,0-4.75-6.36c-2.82,3-6.16,1.07-9.47.67-6.09-.74-11.36-3.81-17-5.88-3-1.1-5.73-3-8.69-4.24a23.9,23.9,0,0,0-5.35-1.21c-.26,0-1,.8-.92,1,1.54,4.47.13,9.67,3.45,13.74.63.77.54,2.11.8,3.24a8.88,8.88,0,0,1-1.85,2.58,6.7,6.7,0,0,1-3.44,1c-4.84.16-7.6-1.69-9.34-6.14-.78-2-1.78-2.49-4.15-2.08a43.52,43.52,0,0,1-11.57.34c-3.18-.32-6.28-1.56-9.37-2.54a7.09,7.09,0,0,1-5.21-6c-.41-2.15.55-2.31,2.1-2.64,2.42-.53,4.79-1.29,7.65-2.08a93.44,93.44,0,0,1-7.44-6.31,62.86,62.86,0,0,1-7.46-8.93c-2.56-3.84-3-8.34-2.82-13a17.27,17.27,0,0,1,6.55-13.08c5-4.06,10.7-6.09,17.13-4.79a20.51,20.51,0,0,1,6.66,2.88,16.79,16.79,0,0,1,4.25,4.24c1.14,1.56.26,4.94-1.18,5.76-1.05.59-6.17,0-7.2-.79-3.27-2.61-6.48-2-9.45,1.18a11,11,0,0,0-2.44,12.18,17,17,0,0,0,5.89,7.74C355.19,665.79,359.91,669.52,365.38,673.74Z"/><path d="M305.28,676.78c-2.45,1.28-4.82,2.49-7.17,3.73-.46.24-1.13.48-1.26.87-1.18,3.4-4.32,2.75-6.88,3.68-.72,3.13-1.94,3.84-5.4,3.48-2.43-.25-4.56-.66-6.4-2.6a4.43,4.43,0,0,1-1.29-4.36,58,58,0,0,1,5.41-14.69c2.2-3.91,3.14-8.52,4.78-12.76a120.15,120.15,0,0,1,5.5-13c1-2,2.82-4,5.74-3.85,3.29.21,6.43.78,7.81,4.27,2,5,3.79,10.13,5.7,15.19.93,2.44,1.81,4.91,2.93,7.25.3.62,1.4.92,2.18,1.23a29,29,0,0,0,2.86.75l6.88-1.21c.26,1.53.5,3,.72,4.24a29.31,29.31,0,0,1-3.43,2.84c-1,.65-2.4.81-3.51,1.38-.46.23-1,1.22-.89,1.47,1.9,3.22,4.09,6.28,5.88,9.56s6,5.76,5,10.57c-.17.83.71,1.81.73,2.74.06,1.72,0,3.5-2.69,2.84-.52-.13-1.19.42-1.75.35-1.26-.17-2.92-.12-3.68-.88a91.62,91.62,0,0,1-14.41-18.1C307.7,680.1,306.5,678.57,305.28,676.78Zm-6.42-15.35-.91.11L295.69,668l5.23-.73Z"/><path d="M242,562.09c2.52-2.34,4.58-3.83,5.11-6.9.5-2.89,2-5.6,3-8.41,1.36-3.92,1-4.88-2.16-7.31,1.06-3.28,3.64-5.17,6.55-6.44a11.19,11.19,0,0,1,5.23-.55,79.72,79.72,0,0,1,8.23,1.35,43.41,43.41,0,0,1,5.86,1.39,24.91,24.91,0,0,1,4.67,2.21c1.74,1,3.38,2.23,5,3.39s.62,2.51,0,3.67-.7,2.12-2.76,2.42c-4.75.71-8.85-1.2-13.22-2-2.16-.4-3.62,0-4.06,2.49-.34,1.93-1,3.81-1.48,5.79a52.82,52.82,0,0,1,5.33-.8c2.53-.14,5.31-.68,7.52.17,1.94.75,3.66,3,4.59,5,.34.72-1.68,2.86-3,4-2.9,2.56-6.83,1.69-10.21,2.73-1.83.56-3.62,1.24-5.42,1.91a.81.81,0,0,0-.47.59c.16,2.95-1,6,1.14,8.78,1.67,2.13,4.88,2.54,5.52.14,1.19-4.4,5.19-4.41,7.91-6.38a8.7,8.7,0,0,1,1.64-.75,34.61,34.61,0,0,1,2.61,3.1c1.33,2,2,3.93.22,6.2-1.1,1.38-1.49,3.31-2.48,4.8a10.37,10.37,0,0,1-3.1,3.22c-4.53,2.72-9.29,5-14.69,2.59a31,31,0,0,1-7.47-4.09c-4.27-3.57-6.86-8.09-6.49-14,.11-1.63-.94-3.33-1.42-4.88-4.58,3.87-1.27,7.51-.25,11.29a22.18,22.18,0,0,1,.95,7.55c-.27,2.89-3.47,3-5.51,3.93-.59.28-1.95-1.05-2.95-1.64-.75-.45-1.53-.86-2.25-1.35-.54-.36-1.26-.71-1.46-1.24-1.78-4.76-3.46-9.56-5.22-14.46-2.25.56-4.36,1.21-6.51,1.58-1.52.25-2.05,1-1.78,2.37a68.52,68.52,0,0,0,2.11,9.38c1.21,3.48.5,5.72-3,7.27a11.48,11.48,0,0,0-2,1.51c-2.45-1.26-5.71-1.81-6.69-5.34-5.32-2.77-3.78-8.37-4.89-12.7-1.15-4.51-.87-9.38-1.25-14.1-.42-5.24-.81-10.49-1.35-15.72-.31-2.95,4-6.79,7.26-6.23,4.71.82,5.72,1.72,6.48,6.61.79,5.14,1.36,10.32,2.05,15.58L228,557.92c0-4.38,0-9,0-13.66,0-3.07,2.82-6.89,5.51-7.58,3.36-.86,7,.83,7.44,4.25.46,3.23-.28,6.62-.28,10,0,3.15.25,6.3.48,9.44A5.64,5.64,0,0,0,242,562.09Z"/><path d="M148,573.44c.52-1.37.87-2.42,1.33-3.43.23-.52.63-1.36,1-1.37,2.44-.12,2.27-1.84,2.22-3.43-.17-4.4,3-6.7,5.86-9.1.66-.56,2.15-.13,3.25-.17,1.69-.06,5.22,2.52,6,4q4.38,8.4,9,16.68c.37.66,1.81,1.5,2.05,1.32a4.46,4.46,0,0,0,1.8-2.48c.54-3.12.83-6.29,1.15-9.45.11-1.13,0-2.27,0-3.65l2.26,2c-.42-4-.69-7.47-1.17-10.9-.34-2.47.66-4.25,2.29-5.91a5,5,0,0,1,5.29-1.46c5.08,1.35,6.17,4.27,6.43,8.52.28,4.7.81,9.39.9,14.08a21.41,21.41,0,0,1-1,7.39c-1.92,5.46-3,11.51-8.61,14.88a11.18,11.18,0,0,1-11.54.55c-4.51-2.3-9.27-4.12-12.89-7.9-1.14-1.18-2.12-.44-2.69,1.13a14.74,14.74,0,0,1-2.77,4.63,19.32,19.32,0,0,1-4,3.05c-2.79,1.87-5.41-.1-8.05-.59a8.76,8.76,0,0,1-3.6-1.92,19.72,19.72,0,0,1-7.1-10.48,63.62,63.62,0,0,1-2.22-9.92c-.47-4.82-.39-9.69-.53-14.54a31.28,31.28,0,0,0-.13-4.34c-.64-3.64.8-6.06,3.82-8.15,2.49-1.73,5-1.11,7.34-.72,1.18.2,2.62,2.66,2.8,4.22.52,4.61.53,9.28.65,13.92.1,3.7,0,7.4.12,11.09A10.69,10.69,0,0,0,148,573.44Z"/><path d="M294.67,568.3c.78,2.91.75,5.49,3.28,7.28s2.19,5.43-.6,7.33c-5.12,3.46-13.79,1-15.14-5-.84-3.73-3-7.39-1.66-11.79,1.27-4.13,1.06-8.7,2-13,.32-1.46,2-2.78,3.39-3.78a23.24,23.24,0,0,1,4.4-2.06c.24-3.11,3.84-6.53,7-6.71,2.31-.14,5.57,3.31,6.14,6.24.81,4.12,1.12,8.51,2.87,12.21s5,6.65,7.69,9.82a3.54,3.54,0,0,0,2.21-1.2,29.38,29.38,0,0,0,2.26-5.58,19.25,19.25,0,0,1,3-6c1.3-1.77.4-5,1.08-7.4,1.19-4.16-.16-8.8,2.71-12.65,1.24-1.66,2.38-1.89,4.08-1.08,1.41.67,2.95,1.11,4.28,1.91,1,.6,2.15,1.45,1,2.94-.2.26-.47.67-.39.92,2.25,7.38.8,14.79-.25,22.08-.73,5-3.35,9.59-6.78,13.52-.7.8-1.35,1.63-2,2.49-2.08,2.9-5.42,2.62-8.35,3.18-3.48.66-6.54-.81-9.47-2.63-3.85-2.4-7.31-5.11-9.53-9.23C297.48,569.29,296.07,569,294.67,568.3Z"/><path d="M257,465.35c-9.52,9.94-20.74,12.72-33.42,8.38.61,2.35,1.55,4.3,1.51,6.23s-1.1,3.65-1.71,5.48l-.65-.66a13.58,13.58,0,0,1-3.17.5,6.61,6.61,0,0,1-3.17-.92,15,15,0,0,1-5.48-7c-1.1-2.74-2.49-5.36-3.7-8-1.91-4.28-3.9-8.53-5.6-12.89-.61-1.56-1-2-2.61-1.28-4.61,2.1-9.32,4-14,6.06-.81.36-1.37,1.27-2.18,1.65a35.57,35.57,0,0,1-6.28,2.6c-2.54.66-2.7,2.52-3.15,4.5-.69,3-.58,6.78-4.16,8a8.54,8.54,0,0,1-8.11-1.3,5.82,5.82,0,0,1-2.46-6.57c2-9.58,5.47-18.64,9-27.72,1.67-4.3,2.78-8.83,4.14-13.25,2.6-8.47,12.41-13.27,20.65-11.29,2.29.55,4.78.31,6.53,2.29,1.31,1.49,2.91,2.84,3.81,4.55a101.14,101.14,0,0,1,5.29,11.73,16.63,16.63,0,0,0,5.38,7.52c1.05.84,2.13,3.17,1.69,4.08-1.88,3.78.51,6.45,1.74,10.07,1.05-11,2-21.42,3-31.49,1.42-.24,2.36-.11,2.84-.52,1.79-1.54,3.55-1.17,5.53-.47s4.23.68,5.07,3.11a4.14,4.14,0,0,1,.44,1.46c-.31,4.7-.7,9.39-1,14.08-.1,1.43-.09,2.88-.13,4.32-.14,4.32-.34,8.64-.41,13,0,2.48,1.32,3.38,3.52,2.23,3.71-1.93,7.31-4.07,10.95-6.14.34-.19.83-.72.92-.65,2.46,1.85,4.26-1.31,6.58-.91.44.07,1.58-1.39,1.64-2.2.36-4.18.33-8.39.71-12.57.29-3.14,1-6.24,1.53-9.36.24-1.48.32-2.7,2.59-2.16,1.25.3,2.77-.83,4.19-1a20.42,20.42,0,0,1,4.94.13c2.4.34,4,3.32,3.27,6.06a66.68,66.68,0,0,0-2.56,21.8c.12,1.8.54,3.57.82,5.35l.83.09,7-19.17c2.28-.42,4.49-.9,6.72-1.23,1.49-.22,3,1.27,4.52,0,1.08,1.28,2.58,2.41,3.16,3.89,1,2.67,1.47,5.57,2.26,8.34.38,1.32,1,2.58,1.79,4.61,1.57-1.82,2.84-3.09,3.87-4.54a12,12,0,0,0,1.8-3.69c1-3.81,2-7.65,2.73-11.53.87-4.58,1.48-9.2,2.2-13.81.29-1.86,4.19-4.68,5.9-4.27a6.7,6.7,0,0,1,4.68,6.42,54,54,0,0,0,.26,7.62c.29,4.95.8,9.9-.67,14.78a61.64,61.64,0,0,1-1.61,6,46.12,46.12,0,0,1-4.42,8.93,16.84,16.84,0,0,1-6.27,5.61,15.41,15.41,0,0,1-8.18.86c-5.81-.85-8.72-2.4-11.41-5.05-1.58,2.6-3.43,5-4.6,7.75-1.58,3.67-9.46,6.48-12.82,4.86-5.31-2.56-9.2-6.3-11.22-11.9A7,7,0,0,0,257,465.35Zm-76.84-17.11a9.25,9.25,0,0,0,1.82,0c4-1.16,8-2.43,12.07-3.49,2.27-.59,3.4-1.35,1.53-3.59-.32-.38-.33-1-.55-1.45-1.27-2.66-2.45-5.37-3.9-7.92-.8-1.42-2-2-3.09,0-1.55,2.94-3.29,5.78-4.74,8.76C182.18,442.87,181.34,445.34,180.18,448.24Z"/><path d="M391.19,458.77c-5,1.75-9.59,2.51-15-.64a26,26,0,0,1-10.45-11,19.89,19.89,0,0,1-1.85-7.07,74.48,74.48,0,0,1-.05-9.45c0-.58.53-1.52,1-1.64a21.07,21.07,0,0,1,6.11-1.08,11.45,11.45,0,0,1,5.92,1.73c1.12.79,1.48,2.92,1.77,4.52s-.3,3.62.23,5.2a68.41,68.41,0,0,0,3.69,7.72c6.05-4.7,9.1-10.75,12.73-16.41A94.73,94.73,0,0,1,404,418.77c1.26-1.41,3.91-1.57,5.93-2.3,3-1.1,5.73.34,8.33,1.3.89.33,1.51,2.73,1.42,4.13a42.64,42.64,0,0,1-1.58,9.34,80.26,80.26,0,0,1-4,9.46c-1.08,2.38-2.52,4.62-3.4,7.07-1.74,4.85-3.23,9.78-4.77,14.7s-3.41,9.61-3.51,14.9a26.09,26.09,0,0,1-2.16,8.62c-1.1,2.84-5.15,2.61-8.56.56-5.38-3.22-4.54-8.22-3.93-12.87C388.46,468.63,390,463.71,391.19,458.77Z"/><path d="M426.36,464.86c3.14,1.46,6.48,2.2,6.07,5.58,1.21.9,2.2,1.33,2.71,2.08,3.89,5.72,9.48,7.5,15.86,4.79a10.69,10.69,0,0,0,2.54-2.12c1.45-1.28.45-2.42-.55-3-5.09-3-10.38-5.73-15.38-8.89A80.94,80.94,0,0,1,426.38,455c-3.94-3.58-4.89-8.6-4.34-13.67a37.81,37.81,0,0,1,6.4-17.61,47.49,47.49,0,0,1,6.57-7.95c1.62-1.5,4.09-2.07,6.19-3.05.78-.36,1.59-1,2.36-1,3.44.16,6.87.5,10.3.84a4.06,4.06,0,0,1,1.65.7c1.23.81,3.25,1.53,3.46,2.58.5,2.51-2.25,5.71-4.51,6a7,7,0,0,1-1.88,0c-4.77-.7-7.48,2.16-9.5,5.77a77.11,77.11,0,0,0-5.61,11.48,9.79,9.79,0,0,0,1.63,10c4.52,5.71,11.21,8,16.93,11.84,4.57,3.05,9.48,5.65,12.82,10.23a2.91,2.91,0,0,1,.53,1.16c1,5.7-2.11,11-7.68,13.18A30.67,30.67,0,0,0,457,487.9a17.13,17.13,0,0,1-10.63,2c-2.68-.26-5.7.35-8.33-1.19s-5.86-2.51-8.26-4.43c-1.81-1.45-2.78-4-4-6.09-.39-.66-.32-1.6-.73-2.23C422.39,471.9,424.77,468.56,426.36,464.86Z"/><path d="M332.9,463.58c-.5,3-.84,6.05-1.54,9-.47,2-1.21,3.61-3.82,4.43-4.13,1.31-7.05-.09-9.22-3a8.08,8.08,0,0,1-1.05-5.73,66.8,66.8,0,0,1,3.29-12.06c2.08-5.39,4.6-10.61,7.07-15.84a83.13,83.13,0,0,1,4.8-8.92c2-3.19,10.7-4,14.12-2.49,5.12,2.19,7.58,6.43,10.54,10.59,2.63,3.69,6,6.86,9,10.27.29.33.81.73.77,1-.64,4.8,3.2,8.41,3.35,13,.15,4.44-.78,6.58-4.3,9.14-.93.68-3.86-.44-4.28-1.72s-.6-1.55-2-1.18c-.73.19-2.3-.87-2.71-1.73-1.66-3.53-3-7.21-4.53-10.8a2.36,2.36,0,0,0-1.46-1.2c-4.79-.8-8.51,1.48-11.82,4.52C337.45,462.45,335.81,463.73,332.9,463.58Zm12-17.47.26-1-3.35-1.68L340,447Z"/><path d="M783.33,456.39c-3.51.66-6.48-.73-9.4-2.59-1.47-.93-1.8-1.9-1.15-3.42,1-2.39,3.38-3.83,6.8-5a156,156,0,0,0,15.07-5.78c3.19-1.45,6-.28,8.88.43.84.21,1.63,2.05,1.78,3.23a19.25,19.25,0,0,1-.41,4.75c-.19,1.61-.35,3.07-2.6,3.35-.5.06-.72,2.38-1.08,3.66l-1.17-1.53c-.46,3.6-.67,7.27-1.46,10.8a24,24,0,0,1-3.12,8.26c-3.44,5-6.74,10-13.32,12.11-7.6,2.44-13.93.77-19.25-4.28-4.91-4.65-6.82-10.8-6.76-17.79.08-9.56,3.49-18,7-26.61,2.25-5.52,5.33-10.31,9.9-13.86,2.69-2.08,6.29-4.13,9.49-4.15,4.44,0,8.77,2.29,12.3,5.27,1.9,1.61,1.12,7.41-1.08,8.77a3.68,3.68,0,0,1-3.08,0,19.59,19.59,0,0,1-4.18-3c-1.1-1-1.91-1.55-3.31-.35-4.41,3.76-6.91,8.66-8.57,14a131.65,131.65,0,0,0-4.11,15.22,35.9,35.9,0,0,0,0,11,5.54,5.54,0,0,0,4.7,5.05c3.29.42,4.75-2.25,6.27-4.35C783.78,466.36,784.46,460.55,783.33,456.39Z"/><path d="M733.75,426.35c1.87-1.67,3.68-3.4,5.62-5,1.26-1,6.35.27,7,2,1.47,3.62,2.69,7.34,3.87,11.06a14.43,14.43,0,0,1,1,5.12c-.3,4.8-.34,9.75-1.63,14.32A16.32,16.32,0,0,1,740.25,464a15.48,15.48,0,0,1-12.13.1c-5.33-2.12-10.49-4.69-16-7.19-.17,2.11-.35,4.68-.59,7.23-.33,3.43-.68,6.86-1.1,10.27-.34,2.72-4.68,5.08-7.25,4.06-2.2-.87-4.88-1-5.65-4-.67-2.58-1.46-5.12-2.16-7.69-.25-.93-.11-2.06-.59-2.81-1.78-2.74-.87-5.72-1.08-8.61-.1-1.45-.93-2.87-1-4.32-.15-4.32,0-8.66-.13-13a5.22,5.22,0,0,0-1-2.37c-2.28-3.59-.83-6.09,3.1-7.54a7.45,7.45,0,0,1,6.12.24c.4.16,1.11.26,1.15.49.51,2.93,2.86,1.79,4.57,2.3A7.54,7.54,0,0,1,710.7,434c3.53,6.09,7.63,11.56,14,15a72.24,72.24,0,0,0,6.6,3.27c1.89.79,2.47-.42,3.6-2,2.92-4.1,2.09-8.48,1.89-12.77-.17-3.59-1.19-7.14-1.83-10.7Z"/><path d="M616.47,454.77c-3.15.88-6.11,1.65-9,2.54a2.65,2.65,0,0,0-2,3.5c1,3.25,2.16,6.44,3.11,9.7.63,2.21,1.84,4.7-1.6,5.93-.48.18-.77.89-1.16,1.37-2.22-1-4.35-2.1-6.6-2.88-4.47-1.56-5.94-5.24-7.47-9.23-.56-1.45-2.82-2.26-4.33-3.31-1.34-.94-3.24-1.49-4-2.75-2-3.35-1.8-4.78,2.51-6.91,3.14-1.55,2.42-3.49,2.32-5.75-.07-1.42,0-2.84,0-3.45-.52-.9-1.06-1.42-1.11-2a77.63,77.63,0,0,1-.44-9.86c.08-1.53,1.17-3.08,2.06-4.46,2.39-3.71,9.12-3.41,12.08-.16,2.29,2.51,1.85,5.05,2,7.86.19,3.56,1,7.08,1.59,10.84,2.65-.52,5-1,7.42-1.43a5.6,5.6,0,0,1,2.62-.24c3,1.09,3.48-.87,3.76-3a83.12,83.12,0,0,0,.25-9.6c0-1.42,1-2.93,1.9-4.2a15.63,15.63,0,0,1,3-3,2.56,2.56,0,0,1,1.9-.59c4.5.95,6.85,4.45,6.55,9.15-.23,3.73-.24,7.48-.21,11.22,0,.89.7,1.76.89,2.68s.75,2.61.26,3.11c-2.58,2.73-1.19,5.78-.89,8.63a73.42,73.42,0,0,0,1.91,9.44c.87,3.66-.33,8.09-2.76,9.52-.57.33-1.49.75-1.92.52-3.36-1.83-7.23-3-8.24-7.6-.56-2.57-2.24-4.88-3-7.43A67.8,67.8,0,0,1,616.47,454.77Z"/><path d="M823.09,446.84a19,19,0,0,1,4.31-1.37c4.16-.31,8.38-1.43,12.42.92q2.22,1.29,1.51,3.23c-.53,1.45-1.28,3.35-2.48,3.93-4.29,2.07-8.81,3.65-13.25,5.43-.63.25-5.2,5.75-5.38,6.41a11.61,11.61,0,0,0,2.14,10.48c1.23,1.59,2.73,2.48,5,1.43,3.07-1.43,6.35-2.42,9.47-3.76,1.73-.74,3.23-2.13,5-2.61,1.24-.34,3.57-.05,4,.72.73,1.37,2.05,3.36,0,5-.39.32-.3,1.17-.62,1.65-.95,1.41-1.77,3.05-3.06,4.07a34.23,34.23,0,0,1-8.07,5.21,20.7,20.7,0,0,1-9.23,1.51A27.71,27.71,0,0,1,814.67,486c-5.37-2.87-9.16-7.78-9.65-13.71-.43-5.17,1-10.55,2-15.77s2.4-10.59,3.69-15.87a21.32,21.32,0,0,1,1.29-3c-.32-.22-.89-.58-1.42-1-1.14-.89-1.22-1.72-.16-2.88,1.79-1.93,3.26-4.16,5.1-6,1.63-1.65,4-3.15,6.11-1.88,3.24,1.94,6.27,1,9.43.46a58.48,58.48,0,0,1,6-1.07c3.53-.18,7.08-.13,10.61,0a5.08,5.08,0,0,1,4.53,5.59c-.07.39-.59.73-.95,1.05a24.35,24.35,0,0,1-12.77,5.75c-3.8.6-7.56,1.48-11.35,2.09-1.88.3-2.77,1.13-3,3.06A26.58,26.58,0,0,1,823.09,446.84Z"/><path d="M666.89,416.59c1.6,1,3.52,1.73,4.77,3.07,3.69,4,5,9.18,6.92,14.06s3.58,9.79,5.55,14.62c.32.8,1.56,1.27,2.44,1.79,1.9,1.11,2.26,2.74,1.11,4.62a2.45,2.45,0,0,0-.31,2c1.48,3.07,3.36,6,4.58,9.12a32,32,0,0,1,2,8.79c.16,1.9-1.4,2.73-3.57,3-3.87.47-6.16-.4-7.66-3.79a4.06,4.06,0,0,0-.8-1.35c-4-3.76-6.08-8.62-8.27-13.46-.27-.62-1.27-1.44-1.74-1.33-4,.91-8,1.9-11.88,3.11-3.64,1.12-4.36,4.61-5.69,7.59a34.87,34.87,0,0,1-2.74,4.83,12,12,0,0,1-2.28,2.44,5.71,5.71,0,0,1-2.06,1c-2.22.63-6.52-1.45-7.94-3.22-2-2.47-.91-3.88.52-6.31,3.34-5.67,5.86-11.84,8.54-17.88,1.84-4.16,3.5-8.4,5.06-12.67,1.16-3.19,1.85-6.56,3.09-9.72a23,23,0,0,1,3.92-7.2C661.87,418.18,664.4,417.72,666.89,416.59Zm-1.7,23.93c-.68,1.66-1.22,3.13-1.9,4.54s-.09,2.45,1.35,2.68a26.05,26.05,0,0,0,4.05.05C669.05,444.31,667.52,441.19,665.19,440.52Z"/><path d="M588.14,463.75a24.81,24.81,0,0,1,1.53,3c.86,2.44-.13,4.33-1.95,6a51.66,51.66,0,0,1-14.1,9.48c-6.73,2.91-13.47,3.62-20,1-4.48-1.82-9.17-3.71-12.63-7.85-1.65-2-3.69-3.54-4.15-6.19-.86-4.93-.81-9.83,1.56-14.41s4.56-9.57,7.55-13.86c2.37-3.39,5.76-6.1,8.85-9a28.27,28.27,0,0,1,5.15-3.63,62.54,62.54,0,0,1,7.89-4c3-1.2,10.54,3.3,10.92,6.61.14,1.18-.79,2.66-1.63,3.69a2.63,2.63,0,0,1-2.56.16c-2.45-1.83-4.95-2.91-7.66-.92a38.67,38.67,0,0,0-5.92,5.29,65.38,65.38,0,0,0-5.86,7.7,23.25,23.25,0,0,0-2.09,4.9,55.3,55.3,0,0,0-2.1,6.21c-1,4.18-.89,8.6,2,11.77,1.74,1.9,5,2.93,7.72,3.28a20.44,20.44,0,0,0,11.18-1.35c4.29-1.91,8-4.72,12.08-6.9C585.1,464.11,586.64,464.08,588.14,463.75Z"/><path d="M643.61,680.34c-2.75,3.73-5.06,7.66-8.16,10.83s-7.39,6.38-12.13,5.48c-4.9-.94-9.94-2.8-12.36-8.13-.83-1.86-2.54-3.46-2.89-5.35-.73-4-.77-8.09-1.2-12.14-.62-5.89.83-11.5,2.16-17.13.61-2.57,1.13-5.17,1.74-7.74.27-1.14,4.59-3.66,5.72-3.3,1.55.51,3.56.74,4.49,1.84a9.49,9.49,0,0,1,1.88,8.12,160,160,0,0,0-2.39,17.25c-.28,4.21.45,8.49.79,13.5,1.06-.77,1.5-1.1,2-1.42,4.68-3.25,7.62-7.86,10.17-12.81,2.38-4.59,5.06-9,7.32-13.69,1.86-3.83,3.32-7.85,4.93-11.8a6.59,6.59,0,0,1,8.84-3.61,10.68,10.68,0,0,0,1.3.22,5.28,5.28,0,0,1,3.81,6.29c-.46,2.47-.54,5-1,7.49-.61,3.36-1.66,6.65-2.06,10a29.55,29.55,0,0,0,.12,8.71c.86,4.62,2.41,9.11,3.44,13.7.29,1.28.27,3.31-.5,4-1.44,1.26-2.94,2.45-5.66,1.55-5.33-1.76-7.15-6.08-9.3-10.36-.2-.38-.32-.8-.53-1.18C644,680.54,643.83,680.48,643.61,680.34Z"/><path d="M528.6,679.32c-.62,0-1-.17-1.14-.05-4.5,2.84-8.18.41-12.37-1.29-6.64-2.7-9.66-8.2-11.92-14.05-1.89-4.91-2.42-10.34-3.54-15.54a9,9,0,0,1-.48-3.1c.28-1.64.27-3.6,3-3.53,1,0,2-1.55,3.17-1.8,4-.9,5.84,2.89,6.58,6.74.91,4.68,1.57,9.46,3.1,13.94.86,2.54,3.25,4.55,5.23,7.17,2.09-2.42,3.82-4.52,5.66-6.51,5.23-5.68,8.13-12.89,12.58-19.09a23.69,23.69,0,0,1,9.19-7.82c1.22-.57,3.54-.06,4.74.8,5,3.57,5.73,6.8,3.59,12.76-.9,2.52-1.44,5.2-2.58,7.6-.84,1.77-1,4.18-3.38,5-.37.12-.58.86-.75,1.36-2.76,7.84-5.53,15.68-8.25,23.54-1.48,4.27-3,8.54-4.28,12.88-1.12,3.8-3.72,5.5-7.57,4.57-3.18-.76-5.89-6.93-4.65-10,1.06-2.64,1.72-5.44,2.54-8.17C527.58,683,528.06,681.24,528.6,679.32Z"/><path d="M576.7,699.73c-1.23,0-2.64-.32-3.83.06a9.11,9.11,0,0,1-7.33-.78c-3.66-1.85-7.53-3.35-9.31-7.6-1.41-3.35-2.79-6.56-1.75-10.37,1.6-5.88,2.53-12,4.55-17.71,2.55-7.18,4.78-14.72,10.82-20.05,3.91-3.46,11.9-5.48,16.62-1.69a2,2,0,0,0,1.82,0c4.61-2.51,7.64.71,9.4,4.21,2.14,4.27,1.93,8.85,2,13.59.07,6-1.51,11.36-3,16.88a2.81,2.81,0,0,1-.76,1.33c-3.25,2.69-4,6.89-6.29,10.16a25.68,25.68,0,0,1-3.88,4.67c-2.13,1.89-4.56,3.43-6.81,5.19A23.31,23.31,0,0,0,576.7,699.73Zm10.87-43.19-.8.21c-1.21-1.28-2.35-2.65-3.67-3.81-.63-.55-2-1.22-2.36-.94-1.65,1.27-3.63,2.59-4.45,4.37a106.69,106.69,0,0,0-4.94,13.23c-1.57,5-3.74,9.94-3.25,15.39,0,.62.27,1.6.64,1.73a2.67,2.67,0,0,0,2.09-.32c3.8-2.72,7.32-5.64,9.89-9.73A43.33,43.33,0,0,0,587.57,656.54Z"/><path d="M683.49,665.5a85.37,85.37,0,0,1,6.74-26.26c1.71-4,3.38-8,5.06-12.08.81-1.92,5.21-2.74,7.12-2.29,3.49.83,4.37,3.54,5,6.18.4,1.63-.22,3.65-.82,5.33-1.43,4-3.3,7.8-4.66,11.8-1.51,4.46-2.62,9.05-4,13.56a81.54,81.54,0,0,1-2.82,8.42c-.52,1.23-1.77,2.15-2.74,3.18-.22.23-.69.51-.91.42-1.76-.68-4-1-5.11-2.3C685,669.89,684.42,667.53,683.49,665.5Z"/><path d="M694.54,693.56c.07.93.18,1.86.19,2.8s.37,2.43-.15,3.07a4.85,4.85,0,0,1-5.13,1.66c-2.65-.73-5.16-1.35-6.48-4.56a5.27,5.27,0,0,1,1.17-6.18,4.47,4.47,0,0,1,5.71-.71c1.12.73,2.54,1,3.69,1.67.65.39,1,1.25,1.52,1.9Z"/></g></svg>