<svg xmlns="http://www.w3.org/2000/svg" viewBox="0 0 1024 1024"><defs><style>.cls-1{fill:#c6ddef;}.cls-2{fill:#535353;}.cls-3{fill:none;}.cls-4{fill:#e36681;}.cls-5{fill:#f2a345;}</style></defs><title>mb-panel-c-4</title><g id="Ebene_2" data-name="Ebene 2"><path class="cls-1" d="M417.89,711.16c.24,2.65.24,2.65-2.44,6.3a18.26,18.26,0,0,1-3.72-.35,15.39,15.39,0,0,1-10.25-9.05,16.41,16.41,0,0,1-.81-3.21c-.41-2-.77-4-1.25-6.49l-3.25,4a2.38,2.38,0,0,1-.48.52c-1.84,1.24-3.71,2.44-5.52,3.72-2,1.4-3.82,3-5.88,4.3-5.16,3.16-10.87,5.39-16.86,4.81-3.67-.35-7.78-1.45-10.08-5.36-1.26-2.13-2.91-2.32-5.07-1.19-4.37,2.27-8.58,5-13.16,6.66a84.09,84.09,0,0,1-14.84,3.6,24.46,24.46,0,0,1-13.35-1.89c-5.57-2.28-10.52-5.43-13.33-11-1.51-3-1.57-6.26-1.21-9.54.77-7.2,4.16-13.18,8.18-19.07,2.32-3.4,5.69-5.48,8.18-8.41s6.24-4.22,9.17-6.56c1.37-1.1,3.71-1.21,5.64-1.35,3.92-.27,7.95-.71,11.63,1a4,4,0,0,1,1.87,3.21,17.56,17.56,0,0,1-2.32,5.53,2.23,2.23,0,0,1-2.09.65c-4-2.24-7.47-.3-10.32,1.9a48.54,48.54,0,0,0-16.47,22.69c-1.85,5.31.92,9.31,6.47,11s10.95.82,16.28-1.34c2.85-1.15,5.94-1.68,8.82-2.76a32.63,32.63,0,0,0,4.74-2.73c1.82-1,3.69-2,5.45-3.13a2.76,2.76,0,0,0,1.14-1.75c.58-5,.95-10.13,1.58-15.18.31-2.39,1.1-4.72,1.57-7.1.63-3.14,1.13-6.3,1.75-9.44.46-2.29,5.32-4.06,7.73-2.81,6.36,3.28,5.38,2.28,4.35,9.62-.64,4.58-2.07,9-2.82,13.61a74.67,74.67,0,0,0-.57,9.36q-.12,3.63,0,7.28c.08,2.54,1,3,3.43,2.6,4-.57,7.25-2.81,10.83-4.36s6.26-4,9.48-5.85c2.42-1.38,4.87-2.72,7.36-4,.47-.24,1.17,0,1.95,0,.24-2.28.6-4.69.73-7.11.24-4.56.62-9.13.42-13.67a6.05,6.05,0,0,1,8.22-5.66c3.67,1.23,4.83,3.42,4.49,7.31-.24,2.73.06,5.5-.1,8.24-.26,4.52-.94,9-1,13.54-.06,4.76-.53,9.62,2.3,14,1.09,1.7,1.19,4.06,3.5,4.91Z"/><path class="cls-1" d="M418,711.24c-.69-1.88-1.77-3.72-2-5.65a15.47,15.47,0,0,1,.64-6.67,80.42,80.42,0,0,1,4.77-10.12c1.82-3.41,3.45-7.06,6-9.91,2.78-3.17,5.65-6.61,10.14-7.77.94-.24,1.7-1.1,2.62-1.48a12.41,12.41,0,0,1,13.29,2.92c1.69,1.85,1.31,3.32.29,5.56-1.21,2.62-3.53,2.5-5.52,3.34-.51.22-1,.5-1.71.87-.3-1.15-.58-2.21-.89-3.38-9.12,6.87-14.19,15.89-16.95,26.69,3.62,1.17,6.45.14,9.27-.91,2.32-.86,4.69-1.61,6.94-2.63a37.43,37.43,0,0,0,5.49-3.08c2.75-1.86,5.79-1.77,8.76-1.58a55.35,55.35,0,0,1,0-5.62c.42-3.91,1.06-7.81,1.51-11.72.24-2,0-4.13.48-6.05.85-3.16.07-6.91,3.23-9.32,1.67-1.27,3.27-1.72,5.23-.69,1.41.74,3.15.44,4.1,2.5a8.32,8.32,0,0,1,1,5.52c-1.06,5.74-1.73,11.54-2.54,17.32a11.72,11.72,0,0,0,.07,1.68c3.44-1,6-3.25,8.46-5.47,5.6-5,11-10.28,16.63-15.31a38.67,38.67,0,0,1,5.34-3.38,18.15,18.15,0,0,0,3.53,1.75c2.7.72,2.75,2.94,3.13,5a2,2,0,0,1-.38,1.54c-3,3.37-5.95,6.91-9.29,10-4.38,4-9.13,7.53-13.68,11.32a18.46,18.46,0,0,0-2,2.53c3.32,1.58,6.52,3.12,9.74,4.62a42.88,42.88,0,0,0,5.1,2.17c1.42.44,3,.44,4.43.74a28.45,28.45,0,0,1,3.85,1.05,1.59,1.59,0,0,1,.77,1.08c.51,2.78-1.85,5-3.89,4.38-1.12.87-1.91,2-2.74,2a29.48,29.48,0,0,1-6.63-.51,26.78,26.78,0,0,1-6.36-1.82c-4.47-2-8.82-4.31-13.2-6.53a5.65,5.65,0,0,1-1.22-1.13c-1.12.88-1.12.88,0,4.13,6.38.9,6.38.9,7.31,5.44-1.31,1.5-2.55,3.1-4,4.49a4.92,4.92,0,0,1-2.64,1.32c-2.6.3-4.69-.86-6.94-2.23-5.34-3.25-7-8.2-7.54-13.89,0-.19-.32-.35-.48-.52-2.27,2-4.41,4.14-6.84,5.9-2.18,1.58-4.79,2.55-7,4.1-3.94,2.75-8.59,3.24-13,4.43a4.31,4.31,0,0,1-1.5-.12,18.69,18.69,0,0,1-4.47-.63A27.38,27.38,0,0,1,421,714.4a22.23,22.23,0,0,1-3.12-3.23Z"/><path class="cls-1" d="M560.14,284.84c4.64-4.64,10.69-6.43,16.42-8.66a10.54,10.54,0,0,1,9.23.64c.16.09.33.24.49.24,4.63,0,5.43,3.56,6.49,6.93.36,1.13,1.2,2.12,1.47,3.25,1.6,6.72,2,13.52-.54,20.05-1.69,4.36-3.52,8.89-6.35,12.51-3.91,5-7.69,10.64-14.36,12.53a21.47,21.47,0,0,1-7.88.79c-3-.31-6.23-.9-8.68-2.46a15.21,15.21,0,0,1-5.24-6.57c-3.48-8-2.19-15.91,1.15-23.62,1-2.21,2.3-4.25,3.36-6.42a14.41,14.41,0,0,0,.7-2.76c-4.68.16-9,.79-13.42.36-4.6-.44-9.34.5-13.29.79-.18,5-.35,9.18-.46,13.39,0,.88.24,1.77.27,2.66.21,6.91.43,13.81.56,20.72.08,4.14-1.89,5.9-6,5.64s-7.29-2.22-7.84-6.48c-.77-5.86-.73-11.83-.93-17.76-.1-3-.06-6.09.08-9.13s.5-5.94.78-9.11a24.34,24.34,0,0,0-10.74-.07c-3.84.92-8.17,1.79-12.47-.43-2.83-1.47-3.71-3.83-4.75-6.14s2.36-6.33,5.33-6.46q10.69-.47,21.39-.72c4.21-.1,8.67-.83,12.56.29,4.35,1.24,8.59-.25,12.82.93,2.49.69,5.31.08,7.88.59a111.59,111.59,0,0,1,10.84,3C559.44,283.5,559.72,284.29,560.14,284.84ZM563,314.59c.8,1.94,1.06,4.24,2.17,4.78s3.49-.19,4.64-1.15c5.84-4.9,10.57-10.59,11.41-18.63.2-1.87.82-3.71.85-5.57a16.22,16.22,0,0,0-.88-4.29c-.22-.83-.5-2.18-1-2.28a5,5,0,0,0-3.29.43,7.22,7.22,0,0,0-2.27,2.61c-2.46,4.06-5.08,8-7.16,12.29C565.68,306.56,564.49,310.66,563,314.59Z"/><path class="cls-1" d="M417.69,448c-2.71,2.19-5.6,4.19-8.08,6.61-3.95,3.86-10,3.27-14,.16-4.22-3.25-5.73-7.91-7-12.68-2.36-9.05-2.15-18.36-2.58-27.6-.16-3.41-.71-6.81-.82-10.22a5.91,5.91,0,0,1,8-5.68,10.91,10.91,0,0,0,2.07.74c3.5.46,4.21,3.49,4.5,5.92.76,6.22.8,12.52,1.3,18.78a91.88,91.88,0,0,0,2.15,14.2c1.17-2.76,2.26-5.57,3.54-8.28s2.8-5.37,4.12-7.86c1.36,0,2.51,0,3.67,0,6.11.23,8.78,2.54,10.36,8.71a25.17,25.17,0,0,0,7.28,12.7,3.68,3.68,0,0,0,3.35.46c5.23-2.82,8.12-7.35,10-13a34.64,34.64,0,0,0,1.49-13.2c-.25-3.87-1.09-7.71-1.64-11.56a5.34,5.34,0,0,1,6.1-6.31c7.65,1,7.41,2.07,9.14,9.5a56.29,56.29,0,0,1,1.67,13.34,36.37,36.37,0,0,1-2.19,11.91,66.12,66.12,0,0,1-6.91,14.1c-4.09,6.1-9.56,9.75-17.74,9.24-6.3-.39-10.56-4.09-15.49-6.83-1.44-.79-2.31-2.61-3.44-3.95Z"/><path class="cls-1" d="M485.75,420.21c3.7-.66,7.05-1.32,10.42-1.83,2-.3,4-.38,6-.54,1.17-.1,1.87-.27,1.42-1.87-.4-1.41-.13-3-.23-4.5-.36-5.71-.87-11.41-1.08-17.12a5.4,5.4,0,0,1,6.55-5.51c1.62.29,4,.12,4.69,1.1a20.64,20.64,0,0,1,3.36,8c.8,5.06.91,10.24,1.25,15.37.1,1.59-.56,3.63.21,4.67s2.91.78,4.37,1.33,2.83,1.47,4.3,2a11.06,11.06,0,0,0,2.75.3c.89,1.72.38,4.37-1.52,5.2a73.69,73.69,0,0,1-7.94,2.88c-1.23.38-1.67.62-1.18,2.09,1.5,4.45,2.87,8.95,4.08,13.48a38.23,38.23,0,0,1,1.15,7.14c.19,2.83-2.7,4.91-5.49,5.24-6.82.8-8.61-4.37-10.22-8.86-2.17-6.05-3.34-12.47-4.95-18.82a85.93,85.93,0,0,0-9.89,2.74c-1.95.78-3.48,2.56-5.93,2.06-.21,0-1,1.12-.92,1.61.59,3.1,1.32,6,4.11,8.23,1.4,1.1,1.94,3.28,2.57,4.45-.71,1.73-.93,3.15-1.74,4s-2.43,1.91-3.47,1.71a68.28,68.28,0,0,1-10.65-3c-1-.36-1.67-1.89-2.31-3a31.31,31.31,0,0,1-3.84-14.35c-.45-8.85-.43-17.73-.66-26.59,0-1.87-.31-3.74-.54-5.59-.51-4.05,4.13-7.87,8.06-6.59a26.18,26.18,0,0,1,3.87,1.48c3.09,1.61,3.33,4.62,3.38,7.58C485.81,409.77,485.75,414.77,485.75,420.21Z"/><path class="cls-1" d="M564.42,427.31c1.72-1.83,3.74-3.47,5.12-5.53,3.69-5.51,7.07-11.22,10.65-16.79,2-3.09,4-6.19,6.29-9.06,1.6-2,6.55-2.15,9.59-.06,1.78,1.22,3.19,3.05,2.29,5.91-1.61,5.06-2.4,10.4-4.22,15.37-1.41,3.87-4.1,7.25-5.79,11-1.61,3.61-2.7,7.46-4,11.23-2.29,6.79-4.65,13.56-6.73,20.41-.59,1.93-.17,4.14-.52,6.17a36,36,0,0,1-1.75,6.63c-.48,1.29-5.75,1.35-7.1.22-.78-.65-1.33-2-2.61-.68-.87-.94-2.16-1.73-2.56-2.84-2.28-6.37-1.12-12.64,1.1-18.76,1.17-3.22,2.65-6.34,4.18-10-2.76,0-5.2.16-7.61-.06a7.9,7.9,0,0,1-3.48-1.46c-1.85-1.27-3.57-2.74-5.32-4.15-4.67-3.76-6.35-9.07-7.07-14.66a126.94,126.94,0,0,1-1.12-15.94,80.35,80.35,0,0,1,1.16-14c.86-4.84,5.44-6.48,9.62-4.6,4.78,2.14,5.26,5.39,4.58,10a61.1,61.1,0,0,0,.56,22.07c.68,3.12,2.35,6,3.57,9Z"/><path class="cls-1" d="M355.09,275.62c2.26-4.47,5-5.51,9.12-4.79a83.76,83.76,0,0,0,10.75.86c6.41.27,12.92-.19,19.19.84,3.14.52,5.59-1.44,8.59-.63,2.44.66,5.17.13,7.71.56,2.83.48,5.58,1.45,8.69,2.29l.12,2.58c-10.32,7.25-22.15,6.51-34.09,7.5,0,4.89.14,9.94-.07,15-.09,2.09-1,4.15-1.41,6.23a3.22,3.22,0,0,0,.12,1c.64,5.17,1.37,10.34,1.89,15.53a5.37,5.37,0,0,1-5.2,6c-1,.09-2.06.68-3,.58-3.24-.33-4.36-3.33-5.14-5.57a48.65,48.65,0,0,1-2.66-21.92c.7-5.67,1.23-11.37,1.8-16.73l-15.07-2.62a50.43,50.43,0,0,0-1.58,11.5c-.39,7.21-1.37,14.61-6.08,20.68-.87,1.13-1.55,2.83-3.65,2.28-.35-.09-.93.73-1.42,1.11-.65.5-1.3,1.36-2,1.4a67.37,67.37,0,0,1-9.94.12c-6.8-.64-11.76-4.85-16.39-9.34-1.69-1.63-2.82-3.84-4.83-5.53,1.56,5.29,3.18,10.58,4.68,15.9a30.56,30.56,0,0,1,1.15,6c.17,2.23-2.08,4.27-4.28,4.45-4.4.34-7.24-1.47-9.45-5.36a41.66,41.66,0,0,1-5.46-20.17c-.14-8.34.29-16.71.52-25.06a16.71,16.71,0,0,1,.62-4.41c.4-1.28.45-2.74,2.48-3.25s4-2.35,6.14-3.05c3.15-1,7.73,1.61,9.09,4.91,1,2.4,1.8,4.87,2.69,7.31,1.9,5.22,3.6,10.52,5.76,15.64a15.74,15.74,0,0,0,7.09,7.93c3.06,1.63,4.35,1.35,5.58-1.92a51.28,51.28,0,0,0,2.52-10.17c.63-4.06.75-8.19,1.22-12.28.39-3.45,3.14-5.21,5.57-7.12a2.41,2.41,0,0,1,1.77-.09C350.49,274.31,352.75,275,355.09,275.62Z"/><path class="cls-1" d="M168,321.58c2.9-3.11,3.23-6.77,4-10.2.39-1.71.22-3.55.51-5.3.84-5,2.36-6.27,7.38-6.53,5.5-.28,5.18,0,8,4.58,1.89,3.07,5.27,5.18,7.58,8.05s4.51,2.05,7,1a2.8,2.8,0,0,0,1.3-.94,36.43,36.43,0,0,0,5.25-26.31,80.35,80.35,0,0,1-1.14-9.14,11.8,11.8,0,0,1,.73-4.85c.74-1.91,2.46-1.9,4.39-1.77,1.45.11,3-.8,3.72-1,1.6,1.73,2.72,2.92,3.81,4.13.34.37.81.76.88,1.2.81,4.65,1.86,9.3,2.22,14a70.35,70.35,0,0,1-.09,14.51c-.68,5.18-2.07,10.39-5.27,14.72a57.3,57.3,0,0,1-6.07,6.31c-2.24,2.21-5.24,2.68-8.14,3.31a2.55,2.55,0,0,1-1.13,0c-4.89-1.14-9.79-2.24-14.64-3.52a11,11,0,0,1-2.88-1.81c-1.44,2.64-2.78,5.39-4.39,8-2.52,4.06-6.43,5.49-11,4.73-3.93-.65-8.52-.66-11.15-3.94a41.22,41.22,0,0,1-7.15-12.38,72.73,72.73,0,0,1-2.92-16.64c-.47-5.48-.16-11-.08-16.54a58.48,58.48,0,0,1,.62-7.83,3.69,3.69,0,0,1,1.73-2.24c1.93-1.08,4-1.87,6.51-3,1.14,1.41,2.08,3.69,3.7,4.38,3.9,1.68,1.44,4.34,1.64,6.61.48,5.55.06,11.13.22,16.68a80.24,80.24,0,0,0,3.21,19.22A11.57,11.57,0,0,0,168,321.58Z"/><path class="cls-1" d="M279.89,308.22a30.37,30.37,0,0,0,1.37,5.17q3.18,6.67,6.72,13.2c.85,1.57,2.41,2.77,3.14,4.37a17.78,17.78,0,0,1,1.37,5.5c.39,3.6-1.48,4.76-5.5,4.52-3.61-.22-6.13-2-8.49-5-4.82-6-7.85-12.8-10.58-19.83-.35-.91-.58-1.88-.91-2.95a9.16,9.16,0,0,1-7.85,2.82c-.46-.06-1.12-.16-1.38.08-2.37,2.25-5.44,2.22-8.35,2.88-1.11.24-2.22,1.52-2.88,2.6-1.28,2.11-2.2,4.42-3.36,6.61a2.9,2.9,0,0,1-1.35,1.24c-4,1.64-11.62-2.61-11.64-6.94,0-2.4,1.51-4.84,2.51-7.19,3-7,6.28-13.95,9-21.08,2.26-5.94,3.74-12.18,5.84-18.18a23.19,23.19,0,0,1,6.08-8.82c2.89-2.85,5.39-.92,7.88-1,2.79-.12,4.88,2.22,6,4.85,2,4.7,4.2,9.38,5.84,14.22,1.75,5.15,2.9,10.5,4.44,15.72a10.31,10.31,0,0,0,1.94,3.58C281,306.11,281.59,307.36,279.89,308.22Zm-25.37-4.78,8.7-.68c-1.22-4.91-2.39-9.6-3.6-14.44C257.87,293.51,256.24,298.33,254.52,303.44Z"/><path class="cls-1" d="M643.92,673c0,.65-.36,1.45-.1,2,.9,1.71.53,3-1.29,3.51-4,1.18-8.1,1.21-12.21,1.5-3.57.25-7.08,1.45-10.57,2.37-1.82.48-3.5,1.53-5.33,1.89-2.26.45-2.76,2-3.12,3.82-.28,1.38-.51,2.76-.79,4.28a2.27,2.27,0,0,0,1,.09c4.56-1.4,9.22-2.57,13.64-4.34,3.69-1.46,7.1-.66,10.62.1,1.14.25,1.85,3.08,1.12,4.14s-1.22,2-1.92,2.93a4.73,4.73,0,0,1-1.41,1.08c-.85.51-1.75.93-2.6,1.44-.4.24-.67.76-1.09.91-5.17,1.84-10.35,3.68-15.56,5.42-2.62.87-4.82,3.93-3.91,5.9.29.6,1.3,1.37,1.8,1.26a38.53,38.53,0,0,0,5.05-1.72,62,62,0,0,0,6.73-2.6,114.26,114.26,0,0,0,11.89-6.68c2.11-1.41,3.11,1,4.73.6a14.65,14.65,0,0,1,.69,3.13c0,3.5-2.79,5.4-4.72,7.78a.59.59,0,0,1-.44.16c-2.57-.25-3.12,2.38-4.82,3.36-2.27,1.31-4.5,2.71-6.82,3.92s-4.75,2.34-7.18,3.37a11.78,11.78,0,0,1-10-.61c-7.67-3.8-10.68-10.55-11-18.81-.18-4.43.9-8.56,2.21-12.76a128.51,128.51,0,0,0,3.08-13.52c.55-2.75,2.91-5.58,6.28-4.59s6.6-.24,9.77-.92c3.81-.81,7.63-2.17,11.48-1.88s7.79,1.62,11.67,2.53C641.82,672.25,642.83,672.64,643.92,673Z"/><path class="cls-1" d="M563.9,712.09c1,3.11,1.91,5.94,2.94,8.71a7.24,7.24,0,0,0,1.64,2.17c1.47,1.59,1.72,5.19.33,6.85a2.54,2.54,0,0,1-1.34.66,8.46,8.46,0,0,1-1.42.24l-2.61-.3c-.36,0-.77.05-1.05-.11a36.49,36.49,0,0,1-3.95-2.49,4.1,4.1,0,0,1-1-1.41c-1.05-1-1.89-1.44-2.19-2.12A49.92,49.92,0,0,1,550.82,707c-.34-6.62-1.19-13.22-1.88-19.82-.21-2-.72-4-.94-6.07-.59-5.71,3.36-7.51,7.9-6.93,2.46.31,4.53,3.36,4.69,5.85.21,3.49.64,7,.95,10.43.21,2.39.35,4.79.54,7.37l6.17-2.68c1.07-.46,2.13-1,3.23-1.33,3.84-1.27,4-1.54,3.5-5.41-.54-4.48-1-9-1.34-13.47-.21-2.68.91-4.25,4.19-5.17a6.17,6.17,0,0,1,4.77.73c2.41,1.85,3.43,4.66,3.6,7.8.2,3.88.66,7.75,1,11.55,3,.25,6.17.06,7.39,3.27l-1.79,3.19c-.88.07-2.76-.32-2,2.24.08.31-1.55,1.11-2.72,1.92,1.51,6.39,3.16,12.91,4.53,19.49a12.73,12.73,0,0,1-.35,5.58c-.2.74-1.61,1.41-2.58,1.65s-2.32.45-2.58-1.29a1.66,1.66,0,0,0-1.11-1c-3.45-.73-4.57-2.14-5.17-5.54-.4-2.26-1.53-4.39-2.1-6.63a49.74,49.74,0,0,1-1.38-7.62c-.12-1.43-.27-1.9-1.59-1.08-2.57,1.61-5.15,3.21-7.66,4.9C566.62,709.89,565.3,711,563.9,712.09Z"/><path class="cls-1" d="M700.06,682.59c-2.88-.48-3.94-3-5-5.11-.37-.72.26-2.49,1-3.16,3.8-3.42,8.28-5.78,13.43-5.91a164.49,164.49,0,0,1,18,.59,49.72,49.72,0,0,1,9.74,2.29,64.19,64.19,0,0,1,7.51,2.94,2.15,2.15,0,0,1,.82,1.72c0,.68-.38,1.74-.87,1.93a29.41,29.41,0,0,1-6.92,2.18,86.16,86.16,0,0,1-9.92.31c-4.63,0-9.25,0-13.41,0-1.64,4.22-3.15,8.11-4.71,12.15,2.44-.8,5-1.74,7.59-2.47a34.77,34.77,0,0,1,6.42-1.35c1-.09,2.1.75,3,1.5,1.55-.27,3.08-.41,3.77,1.62.57,1.67,1.26,3.07-.69,4.79-3.68,3.24-8.25,4.24-12.54,6-.69.28-1.43.45-2.14.66l.15.82a46.66,46.66,0,0,0,4.87-1,41,41,0,0,0,7.49-3.2c2.78-1.52,7.05,2,6.78,5.22a3.52,3.52,0,0,1-.75,1.41c-.86,1.26-1.74,2.51-2.62,3.75-.27.38-.47.94-.84,1.11-4.71,2.24-9.08,5.34-14.78,4.83-3.55-.33-7.16-.52-10.29-2.14-2.13-1.1-3.72-3.23-5.55-4.89-.72-.65-1.47-1.26-2.2-1.9-1.51-1.33-3.35-2.45-4.4-4.08-.66-1-.73-3.48,0-4.13,2-1.83,1.85-4.33,2.78-6.46C697.23,689.35,698.6,686.05,700.06,682.59Z"/><path class="cls-1" d="M678.24,703.19c1.17.84,2.48,1.85,3.86,2.74,3.06,2,6.24,3.78,9.18,5.92a4.77,4.77,0,0,1,2,3.35c0,.84-1.61,1.83-2.69,2.39-4.12,2.16-7.77-.3-11.36-1.63a68.29,68.29,0,0,1-9.65-5.06c-2-1.15-3.91-2.54-5.86-3.83l-.77.48a18.71,18.71,0,0,0,.41,3.36c.83,2.83-1.14,6.65-4,7a6.94,6.94,0,0,1-3.8-.86c-1.06-.54-1.79-1.68-2.73-2.46-3.16-2.63-2.2-6.33-2.28-9.6-.16-5.75.56-11.54.17-17.26-.2-2.87.16-4.94,2.29-6.71.53-.44,1.33-1.15,1.79-1,2.63.78,3.1-1.57,4.28-2.79,4.77-4.88,9.75-9.17,17.23-8.94,6.64.21,11.7,4.07,14.39,10.2,2.5,5.7,1,10.36-2.27,14.92a48.42,48.42,0,0,1-4.78,6.11C682.16,701,680.18,701.9,678.24,703.19Zm.21-19.77c0-3-1.39-4.8-3.37-3.86-2.37,1.12-5,2.48-6.5,4.51-2,2.65-2.91,6-4.16,9.14-.16.39.52,1.61.81,1.61,2.63,0,5.29-.12,7.39-2.07.91-.85,1.73-1.8,2.66-2.62C677.3,688.33,678.73,686.29,678.45,683.42Z"/><path class="cls-1" d="M677.77,300.92c.59,5.63,1.42,11.24,1.68,16.88.2,4.23,1,8.67-1.66,12.57-.38.57-1.15,1.55-1.34,1.46a9.43,9.43,0,0,1-2-1.66c-1.75.94-4.07.13-5-3a158.77,158.77,0,0,1-4-16.85,44.64,44.64,0,0,1-.58-9.87c.18-4.75.75-9.49,1.21-14.23.28-2.78.72-5.53,1-8.31.38-3.9,5.89-5.39,8.53-3.69,3.92,2.54,5.73,7.71,4.36,13.28-.36,1.48-.65,3-1,4.46,4.09-.77,8-1.09,11.69-2.32a26.52,26.52,0,0,0,10.71-6.43c4.28-4.39,8.91-8.43,13.14-12.87,1.78-1.87,2.65-4.54,5.32-5.69,1.93-.83,6.42-.07,7.94,1.59,2.29,2.5,2.57,5.66.59,8.08-3.67,4.5-7.17,9.19-11.21,13.36-3.61,3.72-7.84,6.83-11.8,10.2-.27.23-.73.58-.94.49-1.91-.78-2.58.88-3.77,1.68a24.91,24.91,0,0,1-4.18,1.91c3.46,6,8.53,9.82,13.69,13.38,3.54,2.44,7.75,3.88,11.58,5.9a24.86,24.86,0,0,1,5.36,3.59c.68.63,1,2.65.55,3.28-1.06,1.35-2.65,2.91-4.19,3.13a19.5,19.5,0,0,1-13.49-2.69c-2.67-1.67-6-2.43-8.55-4.19a87.75,87.75,0,0,1-11.4-9.09,112.58,112.58,0,0,1-8.92-10.52,43.78,43.78,0,0,1-2.62-4.05Z"/><path class="cls-1" d="M891,276.73c1.55-.33,2.43-.56,3.32-.7.71-.11,1.74-.44,2.1-.11,3.27,3,7,5.35,6.17,11.2-.59,4.39,1.13,9.08,1.71,13.66A7.51,7.51,0,0,1,904,304c-1,2.91-2.14,5.75-3.11,8.67-1.55,4.66-8.53,10.6-13,10.07-5.86-.7-11.84-1.81-16.2-6.43a30.09,30.09,0,0,1-3-4.54c-2.65,4.66-4.72,9.47-9.16,13a27.69,27.69,0,0,1-6.46,3.92c-2.29,1-3.71-.14-5.31-1.76-1.72.8-4.31,0-5.62-2.32-4.88-8.61-6.52-17.71-4.28-27.48a99.22,99.22,0,0,0,1.51-10.47c.43-3.64,2.69-6.66,5.92-6.19,2.26.33,5.31.79,6.66,3.24a9.8,9.8,0,0,1,1.36,5.47c-.53,4.49-1.87,8.88-2.4,13.36-.41,3.46-.08,7-.08,10.51l1.05.24c1.85-3.1,3.75-6.17,5.56-9.29,2.12-3.66,3.58-7.69,7.22-10.4,1.29-1,2-.49,3.2-.46,4.31.14,7.72,1.36,9.62,5.62,1,2.36,2.49,4.55,3.77,6.82a3.36,3.36,0,0,0,.72,1.16c1.27.87,3.17,2.62,3.8,2.26,1.46-.84,3.08-2.64,3.26-4.21a81.88,81.88,0,0,0,.34-13.38C889.09,286.21,889.18,281.16,891,276.73Z"/><path class="cls-1" d="M744.87,313c-.52,2.4-1.16,5.15-1.67,7.92-.42,2.28-.94,4.33-3,5.91-1.37,1.05-2.15.5-3.55.32-8.64-1.09-8.68-8.06-9.85-14a48.91,48.91,0,0,1-.6-11.79c.28-5.49,1-11,1.73-16.4a4,4,0,0,1,2-2.83c3.17-1,6.46-2.24,9.72-2.3,4.84-.08,7,3.37,8.81,7.64,2.52,5.78,3.76,12.43,9.19,16.66,2.66,2.07,5.32,4.16,8,6.24l1.1-.52a89.88,89.88,0,0,0,1.39-9.15c.23-4.64.06-9.31.06-14,0-2.66-.14-5.34,0-8,.15-2.13,2.35-5.62,5.31-5.34,2.61.24,5.48-.51,7.32,2.14a9.62,9.62,0,0,1,2.19,6.28c-.22,4.27.3,8.58.28,12.86a100,100,0,0,1-.61,11.49,65.61,65.61,0,0,1-2,9.15c-1.18,4.32-4.84,6.29-8.59,7.13A20.24,20.24,0,0,1,758.85,321C754.18,318.67,749.79,315.83,744.87,313Z"/><path class="cls-1" d="M792,312.43c1.4-5.73,2.62-11.51,4.28-17.16.69-2.37,3-4.35,3.38-6.71,1-5.56,4.88-9.24,7.87-13.47a5.91,5.91,0,0,1,6.43-2.52c5.24,1,7.45,4.23,8.87,8.81a4.94,4.94,0,0,0,2.65,2.74c3,1.18,4.37,2.51,5.07,6.27,1.12,6.1-.07,12,0,17.91,0,3.8-1.75,7.73-3.26,11.38s-3.31,7.7-5.93,10.74c-2,2.31-5.29,3.91-8.31,4.8-4.91,1.44-9.52-.84-13.59-3.24-3.81-2.25-5.24-6.56-6.12-10.72-.59-2.81-.48-5.77-.69-8.67Zm17.47,10.16c1.53-1.66,3-2.81,3.88-4.3,3.44-5.63,4.48-12,4.66-18.4.1-3.2-.38-6.42-.61-9.71-4.67.68-6.47,3.94-7.61,7.63a64.56,64.56,0,0,0-2.26,9.69C806.8,312.27,806.36,317.11,809.43,322.59Z"/><path class="cls-1" d="M637.94,396.81a41.86,41.86,0,0,0-5-2.19c-2-.61-2.92-1.7-2.91-3.81,0-7,3.11-12.57,8.16-17.11a53.74,53.74,0,0,1,8.19-6.25,11.5,11.5,0,0,1,6.24-1.75c7.57.51,14.52,2,18,10.33,1.73,4.07,2.44,7.86,1.43,12s-1.63,8.56-3.52,12.3c-2.89,5.72-6.65,11-10.19,16.39-1.81,2.74-4,5.23-5.94,7.89-.4.56-.81,1.69-.55,2a2.67,2.67,0,0,0,2.15.82c5.13-.76,9.66,1.3,14.45,2.64-.27,1.43-.45,2.6-.7,3.74-.69,3.19-3.93,2.77-5.94,3.69a24.1,24.1,0,0,1-10.29,2.3,16,16,0,0,1-13-7.35c-2.7-3.9-2.13-7.83.06-11.49,2.32-3.87,5.16-7.42,7.71-11.15,1.31-1.9,2.41-3.94,3.74-5.83a53.26,53.26,0,0,0,7.41-15.32,14.42,14.42,0,0,0-.52-9.51c-4.45,0-8.07,1.64-10.3,5.55a42.49,42.49,0,0,0-3.33,7.78C642.41,395.34,641,397.33,637.94,396.81Z"/><path class="cls-1" d="M653.85,457.18a14.11,14.11,0,0,1,.06-3.76c1.09-4.43,5.94-6.15,10.43-3.85,4.06,2.09,5.43,4.81,4.29,9.42-.25,1.05-1.56,1.94-2.55,2.67-2.46,1.84-7.51.63-9.17-1.93C656.35,458.87,655.28,458.34,653.85,457.18Z"/></g><g id="Ebene_1" data-name="Ebene 1"><path d="M409.89,705.16c.24,2.65.24,2.65-2.45,6.3a18.4,18.4,0,0,1-3.72-.35,15.39,15.39,0,0,1-10.24-9.05,16.41,16.41,0,0,1-.81-3.21c-.41-2-.77-4-1.26-6.49-1.23,1.54-2.23,2.8-3.24,4a2.42,2.42,0,0,1-.49.52c-1.83,1.24-3.7,2.44-5.51,3.72-2,1.4-3.82,3-5.88,4.3-5.16,3.16-10.87,5.39-16.86,4.81-3.67-.35-7.78-1.45-10.08-5.36-1.26-2.13-2.91-2.32-5.07-1.19-4.37,2.27-8.58,5-13.16,6.66a84.09,84.09,0,0,1-14.84,3.6,24.46,24.46,0,0,1-13.35-1.89c-5.57-2.28-10.52-5.43-13.34-11-1.5-3-1.56-6.26-1.2-9.54.77-7.2,4.16-13.18,8.18-19.07,2.32-3.4,5.69-5.48,8.18-8.41s6.24-4.22,9.17-6.56c1.37-1.1,3.71-1.21,5.64-1.35,3.92-.27,7.95-.71,11.63,1a3.93,3.93,0,0,1,1.87,3.21,17.56,17.56,0,0,1-2.32,5.53,2.23,2.23,0,0,1-2.09.65c-4-2.24-7.47-.3-10.32,1.9a48.54,48.54,0,0,0-16.47,22.69c-1.85,5.31.92,9.31,6.47,11s10.95.82,16.28-1.34c2.85-1.15,5.94-1.68,8.82-2.76a32.63,32.63,0,0,0,4.74-2.73c1.82-1,3.69-2,5.45-3.13a2.76,2.76,0,0,0,1.14-1.75c.58-5,.95-10.13,1.58-15.18.31-2.39,1.09-4.72,1.57-7.1.63-3.14,1.13-6.3,1.75-9.44.46-2.29,5.32-4.06,7.73-2.81,6.36,3.28,5.38,2.28,4.35,9.62-.64,4.58-2.07,9-2.82,13.61a74.67,74.67,0,0,0-.57,9.36q-.12,3.63,0,7.28c.08,2.53,1,3,3.43,2.6,4-.57,7.25-2.81,10.83-4.36s6.26-4,9.48-5.85c2.42-1.38,4.87-2.72,7.36-4,.47-.24,1.17,0,1.95,0,.24-2.28.6-4.69.73-7.11.24-4.56.62-9.13.42-13.67a6.05,6.05,0,0,1,8.22-5.66c3.67,1.23,4.83,3.42,4.49,7.31-.24,2.73.06,5.5-.1,8.24-.26,4.52-.94,9-1,13.54-.06,4.76-.53,9.62,2.3,14,1.09,1.71,1.19,4.07,3.5,4.92Z"/><path d="M410,705.24c-.69-1.88-1.77-3.72-2-5.65a15.47,15.47,0,0,1,.64-6.67,80.42,80.42,0,0,1,4.77-10.12c1.82-3.41,3.45-7.06,6-9.91,2.78-3.17,5.65-6.61,10.14-7.77.94-.24,1.7-1.1,2.62-1.48a12.41,12.41,0,0,1,13.29,2.92c1.69,1.85,1.31,3.32.28,5.56-1.2,2.62-3.52,2.5-5.51,3.34-.51.22-1,.5-1.71.87-.3-1.15-.58-2.21-.89-3.38-9.12,6.87-14.19,15.89-16.95,26.69,3.62,1.17,6.45.14,9.26-.91,2.32-.86,4.7-1.61,7-2.63a37.43,37.43,0,0,0,5.49-3.08c2.75-1.86,5.79-1.77,8.76-1.58a55.35,55.35,0,0,1,0-5.62c.41-3.91,1.06-7.81,1.51-11.72.24-2,0-4.13.48-6.05.85-3.16.07-6.91,3.23-9.32,1.67-1.27,3.27-1.72,5.23-.69,1.41.74,3.15.44,4.1,2.5a8.32,8.32,0,0,1,1,5.52c-1.06,5.74-1.73,11.54-2.54,17.32a11.72,11.72,0,0,0,.07,1.68c3.44-1,6-3.25,8.46-5.47,5.6-5,11-10.28,16.63-15.31a38.67,38.67,0,0,1,5.34-3.38,18.34,18.34,0,0,0,3.52,1.75c2.71.72,2.76,2.94,3.14,5a2,2,0,0,1-.38,1.54c-3.05,3.37-5.95,6.91-9.29,10-4.38,4-9.13,7.53-13.68,11.32a18.46,18.46,0,0,0-2,2.53c3.32,1.58,6.52,3.12,9.74,4.62a42.88,42.88,0,0,0,5.1,2.17c1.42.44,3,.44,4.43.74a28.45,28.45,0,0,1,3.85,1.05,1.59,1.59,0,0,1,.77,1.08c.51,2.78-1.85,5-3.89,4.38-1.12.87-1.91,2-2.75,2a29.44,29.44,0,0,1-6.62-.51,26.65,26.65,0,0,1-6.36-1.82c-4.47-2-8.82-4.31-13.2-6.53a5.65,5.65,0,0,1-1.22-1.13c-1.12.88-1.12.88,0,4.13,6.38.89,6.38.89,7.31,5.44-1.31,1.5-2.55,3.1-4,4.49a4.86,4.86,0,0,1-2.63,1.32c-2.6.3-4.69-.86-6.94-2.23-5.34-3.25-7-8.2-7.54-13.89,0-.19-.32-.35-.48-.52-2.27,2-4.42,4.14-6.84,5.9-2.18,1.58-4.8,2.55-7,4.09-3.94,2.76-8.59,3.25-13,4.43a4.07,4.07,0,0,1-1.5-.11,18.62,18.62,0,0,1-4.47-.63A27.38,27.38,0,0,1,413,708.4a22.23,22.23,0,0,1-3.12-3.23Z"/><path d="M552.14,278.84c4.64-4.64,10.69-6.43,16.42-8.66a10.54,10.54,0,0,1,9.23.64c.16.09.33.24.49.24,4.63,0,5.43,3.56,6.49,6.93.36,1.13,1.2,2.12,1.47,3.25,1.6,6.72,2,13.52-.54,20.05-1.69,4.36-3.52,8.89-6.35,12.51-3.91,5-7.69,10.64-14.36,12.53a21.47,21.47,0,0,1-7.88.79c-3-.31-6.23-.9-8.68-2.46a15.21,15.21,0,0,1-5.24-6.57c-3.48-8-2.19-15.91,1.15-23.62,1-2.21,2.3-4.25,3.36-6.42a14.41,14.41,0,0,0,.7-2.76c-4.68.16-9,.79-13.42.36-4.6-.44-9.34.5-13.29.79-.18,5-.35,9.18-.46,13.39,0,.88.24,1.77.27,2.66.2,6.91.43,13.81.56,20.72.08,4.14-1.89,5.9-6,5.64s-7.29-2.22-7.84-6.48c-.77-5.86-.73-11.83-.93-17.76-.1-3-.06-6.09.08-9.13s.5-6,.78-9.11a24.34,24.34,0,0,0-10.74-.07c-3.84.92-8.17,1.79-12.47-.43-2.83-1.47-3.71-3.83-4.75-6.14s2.36-6.33,5.33-6.46q10.69-.47,21.39-.72c4.21-.1,8.67-.83,12.56.28,4.35,1.25,8.59-.24,12.82.94,2.49.69,5.31.08,7.88.59a111.59,111.59,0,0,1,10.84,3C551.44,277.5,551.72,278.29,552.14,278.84ZM555,308.59c.8,1.93,1.06,4.24,2.17,4.78s3.49-.19,4.64-1.15c5.84-4.9,10.57-10.59,11.41-18.63.2-1.87.82-3.71.85-5.57a15.85,15.85,0,0,0-.89-4.29c-.21-.83-.49-2.18-1-2.28a5,5,0,0,0-3.29.43,7.34,7.34,0,0,0-2.28,2.61c-2.45,4.06-5.07,8-7.15,12.29C557.68,300.56,556.49,304.65,555,308.59Z"/><path d="M409.69,442c-2.71,2.19-5.6,4.18-8.08,6.61-3.95,3.86-10,3.27-14,.16-4.22-3.25-5.73-7.91-7-12.68-2.36-9.05-2.15-18.36-2.58-27.6-.16-3.41-.71-6.81-.83-10.22a5.92,5.92,0,0,1,8-5.68,10.91,10.91,0,0,0,2.07.74c3.5.46,4.21,3.49,4.5,5.92.76,6.22.8,12.52,1.3,18.78a92.07,92.07,0,0,0,2.15,14.2c1.17-2.76,2.26-5.57,3.54-8.28s2.8-5.37,4.12-7.86c1.36,0,2.51,0,3.67,0,6.11.23,8.78,2.54,10.36,8.71a25.17,25.17,0,0,0,7.28,12.7,3.68,3.68,0,0,0,3.35.46c5.23-2.82,8.12-7.35,10-13a34.64,34.64,0,0,0,1.49-13.2c-.25-3.87-1.09-7.71-1.64-11.56a5.34,5.34,0,0,1,6.1-6.31c7.65,1,7.41,2.07,9.14,9.5a56.29,56.29,0,0,1,1.67,13.34,36.69,36.69,0,0,1-2.19,11.91,66.83,66.83,0,0,1-6.91,14.1c-4.09,6.1-9.56,9.75-17.74,9.24-6.3-.39-10.57-4.09-15.49-6.83-1.44-.79-2.31-2.61-3.44-4Z"/><path d="M477.75,414.21c3.7-.66,7.05-1.32,10.42-1.83,2-.3,4-.38,6-.54,1.17-.1,1.87-.27,1.42-1.87-.4-1.41-.13-3-.23-4.5-.36-5.71-.87-11.41-1.08-17.12a5.39,5.39,0,0,1,6.54-5.51c1.63.29,4,.12,4.7,1.09a20.75,20.75,0,0,1,3.36,8.05c.8,5.06.91,10.24,1.25,15.37.1,1.59-.56,3.63.2,4.67s2.92.78,4.38,1.33,2.82,1.47,4.3,2a10.64,10.64,0,0,0,2.75.29c.89,1.73.38,4.38-1.52,5.21a75.9,75.9,0,0,1-7.94,2.88c-1.23.38-1.67.62-1.18,2.09,1.5,4.45,2.87,8.95,4.08,13.48a38.23,38.23,0,0,1,1.15,7.14c.19,2.83-2.7,4.91-5.49,5.24-6.83.8-8.61-4.37-10.22-8.86-2.17-6.05-3.34-12.47-4.95-18.82a85.93,85.93,0,0,0-9.89,2.74c-1.95.78-3.48,2.56-5.94,2.06-.2,0-1,1.12-.91,1.61.58,3.1,1.32,6,4.11,8.23,1.4,1.1,1.94,3.28,2.57,4.45-.71,1.73-.93,3.15-1.74,4s-2.43,1.91-3.47,1.71a68.28,68.28,0,0,1-10.65-3c-1-.37-1.67-1.89-2.31-3a31.32,31.32,0,0,1-3.84-14.36c-.45-8.85-.43-17.72-.66-26.58,0-1.87-.31-3.74-.54-5.59-.51-4.05,4.13-7.87,8.06-6.59a26.18,26.18,0,0,1,3.87,1.48c3.09,1.6,3.33,4.62,3.38,7.58C477.81,403.77,477.75,408.77,477.75,414.21Z"/><path d="M556.42,421.31c1.72-1.83,3.74-3.47,5.12-5.54,3.69-5.5,7.06-11.21,10.65-16.78,2-3.09,4-6.19,6.29-9.06,1.6-2,6.55-2.15,9.59-.06,1.78,1.22,3.19,3.05,2.29,5.91-1.61,5.06-2.4,10.4-4.22,15.37-1.41,3.87-4.1,7.25-5.79,11-1.62,3.61-2.7,7.46-4,11.23-2.28,6.79-4.64,13.56-6.72,20.41-.59,1.93-.17,4.14-.52,6.17a36,36,0,0,1-1.75,6.63c-.49,1.29-5.75,1.35-7.1.22-.78-.65-1.33-2-2.61-.68-.87-.94-2.16-1.73-2.56-2.84-2.28-6.37-1.12-12.64,1.1-18.76,1.17-3.23,2.65-6.34,4.18-10-2.76,0-5.21.16-7.61-.06a7.85,7.85,0,0,1-3.48-1.46c-1.86-1.27-3.57-2.74-5.32-4.15-4.67-3.76-6.35-9.07-7.07-14.66a126.94,126.94,0,0,1-1.12-15.94,80.35,80.35,0,0,1,1.16-14c.86-4.84,5.44-6.48,9.62-4.6,4.78,2.14,5.26,5.39,4.58,10a61.1,61.1,0,0,0,.56,22.07c.68,3.12,2.35,6,3.57,9Z"/><path d="M347.08,269.62c2.27-4.47,5-5.51,9.13-4.79a83.76,83.76,0,0,0,10.75.86c6.41.27,12.92-.19,19.19.84,3.14.52,5.59-1.44,8.59-.63,2.44.66,5.17.13,7.7.56,2.84.48,5.59,1.45,8.7,2.29l.12,2.58c-10.32,7.25-22.15,6.51-34.09,7.5,0,4.89.14,9.94-.07,15-.09,2.09-1,4.15-1.41,6.23a3.22,3.22,0,0,0,.12,1c.64,5.17,1.37,10.34,1.89,15.53a5.37,5.37,0,0,1-5.2,6c-1,.09-2.06.68-3,.58-3.24-.33-4.36-3.34-5.14-5.57a48.51,48.51,0,0,1-2.66-21.92c.7-5.67,1.23-11.37,1.8-16.73l-15.07-2.62a50.43,50.43,0,0,0-1.58,11.5c-.4,7.21-1.37,14.61-6.08,20.68-.87,1.13-1.55,2.83-3.65,2.28-.36-.09-.93.73-1.43,1.11s-1.29,1.36-2,1.4a67.37,67.37,0,0,1-9.94.12c-6.8-.64-11.76-4.85-16.39-9.34-1.69-1.63-2.82-3.84-4.83-5.53,1.56,5.29,3.18,10.58,4.68,15.9a31.32,31.32,0,0,1,1.15,6c.17,2.23-2.08,4.27-4.28,4.45-4.4.34-7.24-1.47-9.45-5.37a41.59,41.59,0,0,1-5.46-20.16c-.14-8.35.28-16.71.52-25.06a16.71,16.71,0,0,1,.62-4.41c.4-1.28.45-2.74,2.48-3.25s4-2.35,6.14-3.05c3.15-1,7.73,1.61,9.09,4.91,1,2.4,1.8,4.87,2.69,7.31,1.9,5.22,3.6,10.52,5.76,15.64a15.74,15.74,0,0,0,7.09,7.93c3.06,1.63,4.35,1.35,5.58-1.92a51.28,51.28,0,0,0,2.52-10.17c.63-4.06.74-8.19,1.22-12.28.39-3.45,3.14-5.21,5.57-7.12a2.41,2.41,0,0,1,1.77-.09C342.49,268.31,344.75,269,347.08,269.62Z"/><path d="M160,315.58c2.9-3.11,3.23-6.77,4-10.2.39-1.72.22-3.55.51-5.3.84-5,2.36-6.27,7.38-6.53,5.5-.28,5.18,0,8,4.58,1.89,3.07,5.27,5.18,7.58,8.05s4.5,2.05,7,1a2.8,2.8,0,0,0,1.3-.94,36.43,36.43,0,0,0,5.25-26.31,80.35,80.35,0,0,1-1.14-9.14,11.8,11.8,0,0,1,.73-4.85c.74-1.91,2.46-1.91,4.39-1.77,1.45.11,3-.8,3.72-1,1.6,1.74,2.72,2.93,3.81,4.14.34.37.81.76.88,1.19.81,4.66,1.86,9.31,2.22,14a70.35,70.35,0,0,1-.09,14.51c-.68,5.18-2.07,10.39-5.27,14.72a57.3,57.3,0,0,1-6.07,6.31c-2.25,2.21-5.24,2.68-8.14,3.31a2.55,2.55,0,0,1-1.13,0c-4.89-1.14-9.79-2.24-14.64-3.52a11,11,0,0,1-2.88-1.81c-1.44,2.64-2.78,5.39-4.39,8-2.53,4.06-6.43,5.48-11,4.73-3.94-.65-8.52-.66-11.15-3.94a41.22,41.22,0,0,1-7.15-12.38,72.73,72.73,0,0,1-2.92-16.64c-.47-5.48-.16-11-.08-16.54a58.48,58.48,0,0,1,.62-7.83,3.69,3.69,0,0,1,1.73-2.24c1.93-1.08,4-1.87,6.51-3,1.14,1.41,2.08,3.69,3.7,4.38,3.9,1.68,1.44,4.34,1.64,6.61.48,5.55.06,11.13.22,16.68a80.24,80.24,0,0,0,3.21,19.22A11.57,11.57,0,0,0,160,315.58Z"/><path d="M271.89,302.22a30,30,0,0,0,1.37,5.16q3.18,6.69,6.72,13.21c.85,1.57,2.41,2.77,3.14,4.37a17.78,17.78,0,0,1,1.37,5.5c.39,3.6-1.48,4.76-5.5,4.52-3.61-.22-6.13-2-8.49-5-4.82-6-7.85-12.8-10.58-19.83-.35-.91-.58-1.88-.91-2.95a9.16,9.16,0,0,1-7.85,2.82c-.46-.06-1.12-.16-1.38.08-2.37,2.25-5.44,2.22-8.35,2.87a5.65,5.65,0,0,0-2.88,2.61c-1.28,2.11-2.2,4.42-3.36,6.61a2.9,2.9,0,0,1-1.35,1.24c-4,1.64-11.62-2.61-11.64-6.94,0-2.4,1.51-4.84,2.51-7.19,3-7,6.28-13.95,9-21.08,2.26-5.94,3.74-12.18,5.84-18.18a23.19,23.19,0,0,1,6.08-8.82c2.89-2.85,5.39-.92,7.88-1,2.79-.12,4.88,2.22,6,4.85,2,4.7,4.2,9.38,5.84,14.22,1.75,5.15,2.9,10.5,4.44,15.72a10.31,10.31,0,0,0,1.94,3.58C273,300.11,273.59,301.36,271.89,302.22Zm-25.37-4.78,8.7-.68c-1.22-4.91-2.39-9.6-3.6-14.44C249.87,287.51,248.24,292.33,246.52,297.44Z"/><path d="M635.92,667c0,.65-.36,1.45-.1,2,.9,1.71.53,3-1.29,3.51-4,1.18-8.1,1.21-12.21,1.5-3.57.25-7.08,1.44-10.57,2.37-1.82.48-3.5,1.53-5.33,1.89-2.26.45-2.76,2-3.12,3.82-.28,1.38-.51,2.76-.79,4.28a2.25,2.25,0,0,0,1,.09c4.56-1.4,9.22-2.57,13.64-4.34,3.69-1.47,7.1-.66,10.62.1,1.14.25,1.85,3.08,1.12,4.14s-1.22,2-1.92,2.93a4.86,4.86,0,0,1-1.41,1.08c-.85.51-1.75.93-2.6,1.44-.4.24-.67.76-1.09.91-5.18,1.84-10.35,3.68-15.56,5.42-2.62.87-4.82,3.93-3.91,5.9.28.6,1.3,1.37,1.8,1.26a38.53,38.53,0,0,0,5.05-1.72,62,62,0,0,0,6.73-2.6,114.26,114.26,0,0,0,11.89-6.68c2.11-1.41,3.11,1,4.73.6a14.65,14.65,0,0,1,.69,3.13c0,3.5-2.79,5.4-4.72,7.78a.59.59,0,0,1-.44.16c-2.57-.25-3.12,2.38-4.82,3.36-2.27,1.31-4.5,2.71-6.82,3.92s-4.75,2.34-7.18,3.37a11.78,11.78,0,0,1-10-.61c-7.67-3.8-10.68-10.55-11-18.81-.18-4.43.9-8.56,2.21-12.76a128.51,128.51,0,0,0,3.08-13.52c.55-2.75,2.91-5.58,6.28-4.59s6.6-.24,9.77-.92c3.81-.81,7.63-2.17,11.48-1.88s7.79,1.62,11.67,2.53C633.82,666.25,634.83,666.64,635.92,667Z"/><path d="M555.9,706.09c1,3.11,1.91,5.94,2.94,8.71a7.24,7.24,0,0,0,1.64,2.17c1.47,1.59,1.71,5.19.33,6.85a2.58,2.58,0,0,1-1.34.66,8.46,8.46,0,0,1-1.42.24l-2.61-.3c-.36,0-.78.05-1.05-.11a38.11,38.11,0,0,1-3.95-2.49,4.1,4.1,0,0,1-1-1.41c-1.05-1-1.89-1.44-2.19-2.12A49.92,49.92,0,0,1,542.82,701c-.34-6.62-1.19-13.22-1.88-19.82-.21-2-.72-4-.94-6.08-.59-5.7,3.36-7.5,7.9-6.92,2.46.31,4.53,3.36,4.69,5.85.21,3.49.64,7,.95,10.43.21,2.39.35,4.79.54,7.37l6.17-2.68c1.07-.46,2.13-1,3.23-1.33,3.84-1.27,4-1.54,3.5-5.41-.54-4.48-1-9-1.34-13.47-.21-2.68.91-4.25,4.19-5.17a6.17,6.17,0,0,1,4.77.73c2.41,1.85,3.43,4.66,3.6,7.8.2,3.88.66,7.75,1,11.55,3,.25,6.17.06,7.39,3.27l-1.79,3.19c-.88.07-2.76-.32-2,2.24.08.31-1.55,1.11-2.72,1.92,1.51,6.39,3.16,12.91,4.53,19.49a12.73,12.73,0,0,1-.35,5.58c-.2.74-1.61,1.41-2.58,1.65s-2.32.45-2.58-1.29a1.68,1.68,0,0,0-1.11-1c-3.45-.74-4.57-2.14-5.17-5.54-.4-2.26-1.53-4.39-2.1-6.63a49.74,49.74,0,0,1-1.38-7.62c-.12-1.43-.27-1.9-1.59-1.08-2.57,1.61-5.15,3.21-7.66,4.9C558.62,703.89,557.3,705,555.9,706.09Z"/><path d="M692.06,676.59c-2.88-.48-3.94-3-5-5.11-.37-.73.26-2.5,1-3.16,3.8-3.42,8.28-5.78,13.43-5.91a164.49,164.49,0,0,1,18,.59,49,49,0,0,1,9.74,2.29,64.19,64.19,0,0,1,7.51,2.94,2.15,2.15,0,0,1,.82,1.72c0,.68-.38,1.74-.87,1.93a29.41,29.41,0,0,1-6.92,2.18,86.24,86.24,0,0,1-9.92.31c-4.63,0-9.25,0-13.41,0-1.64,4.22-3.15,8.11-4.71,12.15,2.44-.8,5-1.74,7.59-2.47a34.77,34.77,0,0,1,6.42-1.35c1-.09,2.1.75,3,1.5,1.55-.27,3.08-.41,3.77,1.62.57,1.66,1.26,3.07-.7,4.79-3.67,3.24-8.24,4.24-12.53,6-.69.28-1.43.45-2.14.66l.15.82a46.66,46.66,0,0,0,4.87-1,41,41,0,0,0,7.49-3.2c2.78-1.52,7.05,2,6.77,5.22a3.38,3.38,0,0,1-.74,1.41c-.86,1.26-1.74,2.5-2.62,3.75-.27.38-.47.94-.84,1.11-4.71,2.24-9.08,5.34-14.78,4.83-3.55-.33-7.16-.52-10.29-2.14-2.13-1.1-3.72-3.23-5.55-4.89-.72-.65-1.48-1.26-2.2-1.9-1.51-1.33-3.35-2.45-4.4-4.08-.66-1-.73-3.48,0-4.13,2-1.83,1.85-4.33,2.78-6.46C689.23,683.35,690.6,680.05,692.06,676.59Z"/><path d="M670.24,697.19c1.17.84,2.48,1.85,3.86,2.74,3.06,2,6.24,3.78,9.18,5.92a4.77,4.77,0,0,1,2,3.34c0,.85-1.61,1.84-2.69,2.4-4.12,2.16-7.77-.3-11.36-1.64a67.21,67.21,0,0,1-9.65-5.05c-2-1.15-3.91-2.54-5.86-3.83l-.77.48a18.71,18.71,0,0,0,.41,3.36c.83,2.83-1.14,6.65-4,7a6.94,6.94,0,0,1-3.8-.86c-1.06-.54-1.79-1.68-2.73-2.46-3.16-2.63-2.2-6.33-2.28-9.6-.16-5.75.56-11.54.17-17.26-.2-2.87.16-4.94,2.29-6.71.53-.44,1.33-1.15,1.79-1,2.63.78,3.1-1.57,4.28-2.79,4.77-4.88,9.75-9.17,17.23-8.94,6.64.21,11.7,4.07,14.39,10.2,2.5,5.7,1,10.35-2.28,14.92a47.45,47.45,0,0,1-4.77,6.11C674.16,695,672.18,695.9,670.24,697.19Zm.21-19.77c0-3-1.39-4.8-3.37-3.86-2.38,1.12-5,2.48-6.51,4.51-1.94,2.65-2.9,6-4.15,9.14-.16.39.52,1.61.8,1.61,2.64,0,5.3-.12,7.4-2.07.91-.85,1.73-1.8,2.66-2.62C669.3,682.33,670.73,680.29,670.45,677.42Z"/><path d="M669.77,294.92c.59,5.63,1.42,11.24,1.68,16.88.2,4.23,1,8.67-1.66,12.57-.38.57-1.15,1.55-1.34,1.46a9.21,9.21,0,0,1-2-1.67c-1.75.95-4.07.14-5-3a158.77,158.77,0,0,1-4-16.85,44.64,44.64,0,0,1-.58-9.87c.18-4.75.75-9.49,1.21-14.23.28-2.78.72-5.53,1-8.31.38-3.9,5.89-5.4,8.53-3.69,3.92,2.54,5.73,7.7,4.36,13.28-.36,1.48-.65,3-1,4.46,4.1-.77,8.06-1.09,11.7-2.32a26.52,26.52,0,0,0,10.71-6.43c4.28-4.39,8.91-8.43,13.14-12.87,1.78-1.87,2.65-4.54,5.32-5.69,1.93-.83,6.42-.07,7.94,1.59,2.29,2.5,2.57,5.66.59,8.08-3.67,4.5-7.17,9.19-11.21,13.36-3.61,3.72-7.84,6.83-11.8,10.2-.27.23-.73.58-.94.49-1.91-.78-2.59.88-3.77,1.68a24.91,24.91,0,0,1-4.18,1.91c3.46,6,8.53,9.82,13.69,13.38,3.54,2.44,7.75,3.88,11.58,5.9a24.86,24.86,0,0,1,5.36,3.59c.68.63,1,2.65.55,3.28-1.06,1.35-2.65,2.91-4.19,3.13a19.5,19.5,0,0,1-13.49-2.69c-2.68-1.68-6-2.43-8.55-4.2a86.18,86.18,0,0,1-11.4-9.08,112.58,112.58,0,0,1-8.92-10.52,43.78,43.78,0,0,1-2.62-4.05Z"/><path d="M883,270.73c1.54-.33,2.43-.56,3.32-.7.71-.11,1.74-.44,2.1-.11,3.27,3,7,5.35,6.17,11.2-.59,4.39,1.13,9.08,1.71,13.65A7.54,7.54,0,0,1,896,298c-1,2.91-2.14,5.75-3.11,8.66-1.55,4.67-8.53,10.61-13,10.08-5.86-.7-11.84-1.81-16.2-6.43a30.6,30.6,0,0,1-3-4.54c-2.65,4.66-4.72,9.47-9.16,13a27.69,27.69,0,0,1-6.46,3.92c-2.29,1-3.71-.14-5.31-1.77-1.72.81-4.31,0-5.62-2.31-4.88-8.61-6.52-17.71-4.28-27.48a99,99,0,0,0,1.51-10.48c.43-3.63,2.69-6.65,5.92-6.18,2.26.33,5.31.79,6.66,3.24a9.8,9.8,0,0,1,1.36,5.47c-.53,4.49-1.87,8.88-2.4,13.36-.41,3.46-.08,7-.08,10.51l1,.24c1.86-3.1,3.76-6.17,5.57-9.29,2.12-3.66,3.58-7.69,7.22-10.4,1.29-1,2-.49,3.2-.46,4.31.14,7.72,1.36,9.62,5.62,1,2.36,2.49,4.55,3.77,6.82a3.36,3.36,0,0,0,.72,1.16c1.27.87,3.17,2.62,3.8,2.26,1.46-.84,3.08-2.64,3.26-4.21a81.88,81.88,0,0,0,.34-13.38C881.09,280.21,881.18,275.16,883,270.73Z"/><path d="M736.87,307c-.52,2.4-1.16,5.15-1.67,7.92-.42,2.28-.94,4.33-3,5.91-1.37,1.05-2.15.5-3.56.32-8.63-1.09-8.67-8.06-9.84-14a48.91,48.91,0,0,1-.6-11.79c.28-5.49,1-11,1.73-16.4a4,4,0,0,1,2-2.83c3.16-1,6.46-2.24,9.72-2.3,4.84-.08,7,3.37,8.81,7.64,2.52,5.78,3.76,12.43,9.19,16.66,2.66,2.07,5.32,4.16,8,6.24l1.1-.52a87.13,87.13,0,0,0,1.38-9.15c.24-4.64.07-9.31.07-14,0-2.66-.14-5.34,0-8,.15-2.13,2.35-5.62,5.31-5.34,2.61.24,5.48-.51,7.32,2.14a9.62,9.62,0,0,1,2.19,6.28c-.22,4.27.3,8.58.28,12.86a100,100,0,0,1-.61,11.49,65.61,65.61,0,0,1-2,9.15c-1.18,4.32-4.84,6.29-8.59,7.13A20.28,20.28,0,0,1,750.84,315C746.18,312.67,741.79,309.83,736.87,307Z"/><path d="M784,306.43c1.4-5.73,2.62-11.51,4.27-17.17.7-2.36,3-4.34,3.39-6.7,1-5.56,4.88-9.24,7.87-13.47a5.91,5.91,0,0,1,6.43-2.52c5.23,1,7.45,4.23,8.87,8.81a4.94,4.94,0,0,0,2.65,2.74c3,1.18,4.37,2.5,5.07,6.27,1.12,6.1-.07,12,0,17.91,0,3.8-1.75,7.73-3.27,11.38s-3.31,7.7-5.92,10.74c-2,2.31-5.29,3.91-8.32,4.8-4.9,1.43-9.51-.84-13.58-3.24-3.81-2.25-5.24-6.56-6.12-10.72-.59-2.81-.48-5.77-.69-8.67Zm17.47,10.16c1.53-1.66,3-2.81,3.88-4.3,3.44-5.63,4.48-12,4.66-18.4.1-3.21-.38-6.42-.61-9.71-4.68.68-6.48,3.94-7.61,7.63a63.36,63.36,0,0,0-2.26,9.69C798.8,306.27,798.36,311.11,801.43,316.59Z"/><path d="M629.94,390.81a41.86,41.86,0,0,0-5-2.19c-2-.61-2.92-1.7-2.91-3.81,0-7,3.11-12.57,8.16-17.11a53.26,53.26,0,0,1,8.19-6.25,11.42,11.42,0,0,1,6.24-1.75c7.57.51,14.52,2,18,10.33,1.73,4.07,2.44,7.86,1.43,12s-1.63,8.56-3.52,12.3c-2.89,5.72-6.65,11-10.19,16.39-1.81,2.74-4,5.23-5.94,7.89-.4.56-.81,1.69-.55,2a2.66,2.66,0,0,0,2.15.82c5.13-.76,9.66,1.29,14.45,2.64-.27,1.43-.45,2.6-.7,3.74-.69,3.19-3.94,2.77-5.94,3.69a24.1,24.1,0,0,1-10.29,2.3,16,16,0,0,1-13-7.35c-2.7-3.9-2.13-7.83.06-11.49,2.32-3.87,5.16-7.42,7.71-11.15,1.31-1.9,2.41-3.94,3.74-5.83a53.26,53.26,0,0,0,7.41-15.32,14.45,14.45,0,0,0-.52-9.52c-4.45,0-8.07,1.65-10.3,5.56a42.49,42.49,0,0,0-3.33,7.78C634.41,389.34,633,391.33,629.94,390.81Z"/><path d="M645.85,451.18a14.11,14.11,0,0,1,.06-3.76c1.09-4.43,5.94-6.15,10.43-3.85,4.06,2.09,5.43,4.81,4.29,9.42-.26,1.05-1.56,1.93-2.55,2.67-2.46,1.84-7.51.63-9.17-1.93C648.35,452.87,647.27,452.34,645.85,451.18Z"/><path d="M368.25,919a3.41,3.41,0,0,1-3,.26.26.26,0,0,0-.17,0c-3.36,1.09-6.86.61-10.29.94-2.19.21-4.36.77-6.55.93a65.64,65.64,0,0,1-6.58,0c-.62,0-2.17-1.91-2.25-2.54s-.22-1.14-.26-1.72a1.23,1.23,0,0,1,1.12-1.4c.61-.1.78-.43.81-1,0-1,.13-2,.25-3s.3-1.77.47-2.74c-1.09.18-2.24-.26-3.5-.2s-2.79.37-4-.76c-.32-.3-.91-.31-1.38-.47a2.41,2.41,0,0,1-1.28-3.38,4.34,4.34,0,0,0,.63-2.88,28.71,28.71,0,0,1-.29-5c.11-1.93.54-3.83.82-5.75.1-.7.15-1.41.25-2.12.15-1.08.3-2.17.51-3.25.28-1.44.68-2.85.9-4.3a26.7,26.7,0,0,0,.06-2.69c.07-1.34.16-2.68.29-4,.21-2.23.49-4.46.69-6.69.11-1.3,0-2.61.17-3.9.19-2,.46-3.93.72-5.89.37-2.68.71-5.37,1.17-8a18.54,18.54,0,0,1,1-2.91c0-.1.1-.21.08-.3-.53-3.07.53-6,1-8.92.26-1.7.28-3.44.52-5.14.21-1.42.6-2.81.88-4.22.13-.67.17-1.35.28-2,.45-2.77.93-5.54,1.35-8.33.23-1.54.31-3.1.53-4.65.17-1.27.49-2.53.65-3.8.21-1.73.29-3.47.48-5.2s.57-3.44.62-5.16c.08-2.77-.07-5.55-.05-8.32a14.34,14.34,0,0,1,.47-2,15.86,15.86,0,0,0,.08-1.8c1.8-.14,3.64-.3,5.49-.42s3.83-.21,5.75-.29c.94,0,1.89,0,2.83,0,2.42,0,4.83,0,7.25,0,1.89,0,3.79.07,5.69.05,1.53,0,3.08-.26,4.6-.15s3.09-.09,4.64-.11c2.3,0,4.59-.15,6.89-.16,1.1,0,2.2.21,3.31.25a14.69,14.69,0,0,0,1.56-.23c1.94-.16,3.88-.35,5.83-.44,2.21-.11,4.42-.11,6.63-.19,2.36-.09,4.73-.39,7.07-.27a41.22,41.22,0,0,0,5-.22c1.75-.13,3.51,0,5.27,0,1.34,0,2.68-.19,4-.26s2.47-.09,3.7-.11c1.63,0,3.26-.06,4.89,0,1.25,0,2.5,0,3.76-.06,2.61-.19,5.24-.31,7.86-.38,1.1,0,2.19.25,3.29.24,1.42,0,2.84-.19,4.27-.25,1.72-.06,3.45-.06,5.18-.09s3.52,0,5.28-.1a12.06,12.06,0,0,1,3.83.28c.32.1.73-.19,1.1-.2s1,.06,1.49.07c.67,0,1.34,0,2,0,1.94,0,3.88.07,5.81,0,.9,0,1.8-.18,2.7-.23a17.35,17.35,0,0,1,4.6-.08c1.31.3,2.43-.32,3.64-.13.49.08,1.17-.34,1.27.57.6-.1,1.17-1,1.81,0a.83.83,0,0,0,.79.06c.74-.86,1.79,0,2.58-.54.14-.09.41,0,.7,0l.05.72a4.79,4.79,0,0,1,1.63-.74c1.49-.06,3,.1,4.48.12,1.82,0,3.64,0,5.46,0,2.24,0,4.47,0,6.71,0a3.37,3.37,0,0,1,.87.31c.33.1.72.3,1,.21,2.05-.69,4.17-.34,6.26-.44,1.25-.06,2.5,0,3.75,0a3,3,0,0,1,.94,0c1.64.6,3.28.09,4.93.07a20.2,20.2,0,0,1,3.48,0,38.14,38.14,0,0,0,4.9,0c1.63,0,3.27,0,4.9.05s3.22.06,4.82.16a4.14,4.14,0,0,1,1.21.5c.78,0,1.71-.16,2.63-.18,1.66,0,3.32-.06,5,0,1.46,0,2.92.17,4.38.26,1,.06,1.95.14,2.93.19,1.31.06,2.61.11,3.92.12,2.4,0,4.79,0,7.19,0,1.24,0,2.49.21,3.73.28s2.69.06,4,.2,2.83.44,4.25.63c.27,0,.56-.21.85-.21a21.76,21.76,0,0,1,4.57.1c3.07.66,6.2.18,9.27.66,2.14.34,4.31.54,6.47.79.71.09,1.43.1,2.14.21a1.78,1.78,0,0,1,1.05.38c.94,1.1,2.26.9,3.44,1,1.6.17,3.22.15,4.83.22s3.32.11,5,.26c3.09.3,6.17.75,9.27,1,1.92.15,3.86,0,5.79,0s4-.13,6,0a4,4,0,0,1,2.71,1.7c.14.18-.14.65-.09,1a48,48,0,0,0,.91,4.78c.12.45.57.86,1.48.79a17.46,17.46,0,0,1,5.38.53,13.78,13.78,0,0,1,3.93,2,2.28,2.28,0,0,1,.63,1.75c-.05,1.22-.41,2.43-.48,3.66-.09,1.64,0,3.3-.07,4.95-.29,4.16,1,8.14,1.37,12.23a10.56,10.56,0,0,0,.43,1.39,3.94,3.94,0,0,1,.14,1.23c-.1,1.51-.33,3-.36,4.52a49.56,49.56,0,0,0,.2,5,14,14,0,0,0,.63,2.2,3.23,3.23,0,0,1,.27,1.51c-1,3.22-.16,6.51-.43,9.75,0,.7-.33,1.38-.34,2.07,0,1.88.08,3.77.1,5.65,0,.41-.27.82-.24,1.21.17,2.32.46,4.63.57,7a27.71,27.71,0,0,1-.27,3.63c-.19,2.25-.23,4.53-.62,6.75-.65,3.63-.2,7.26-.36,10.88a82.72,82.72,0,0,1-1,9.41c-.39,2.58-1.35,5.08-1.59,7.67a74.82,74.82,0,0,0,.06,8.6,30,30,0,0,0,.28,3.54c.15,1.06.6,2.08.65,3.13a4.52,4.52,0,0,1-.62,2.35,1.89,1.89,0,0,1-1.93.77c-1.07-.13-2.16-.09-3.24-.12l-1.52,0a6.38,6.38,0,0,1-3.85.29,28.15,28.15,0,0,0-7.44-.67,14.33,14.33,0,0,1-1.75-.36c-1.34-.11-2.69-.13-4-.19l-1,0c-2.1-.19-4.21-.39-6.32-.54a4.5,4.5,0,0,0-1.18.24c-1.5.31-3,.82-4.5.08-2.16-1.09-4.45-.69-6.7-.81-1.27-.06-2.53-.28-3.8-.37-.41,0-.84.19-1.26.16-2.63-.14-5.26-.28-7.89-.49-1.34-.11-2.68-.47-4-.51s-2.48.22-3.72.28a6.19,6.19,0,0,1-2.63-.15c-1.34-.6-2.5.38-3.74.11-.13,0-.28.08-.41.08-2.84-.1-5.68-.19-8.51-.33-.38,0-.75-.26-1.11-.25-.73,0-1.47.09-2.2.09a21.85,21.85,0,0,1-4.21-.11,9.07,9.07,0,0,0-3.89.17,12.64,12.64,0,0,1-4-.13c-1.83-.15-3.67,0-5.51,0-.52,0-1,0-1.57,0-1.91-.08-3.83-.16-5.74-.29-2.27-.17-4.54-.46-6.81-.57-1.6-.08-3.2.06-4.8.07-.34,0-.68-.15-1-.17l-4-.15c-2.62-.08-5.3-.51-7.87-.17-2.9.4-5.75,0-8.62.16-2.29.12-4.6-.28-6.9-.3-3,0-6,.15-9,.19-.47,0-.94-.26-1.41-.26-1.65,0-3.3.1-4.94.06-2.38,0-4.77-.24-7.15-.26-1.86,0-3.73.18-5.59.2-2.46,0-4.92-.09-7.38-.06-1.85,0-3.71.22-5.56.26-1,0-2.06-.12-3.09-.16-.41,0-.83.08-1.24.08-2.6,0-5.2.06-7.8-.06-1.85-.09-3.69-.53-5.54-.6-.54,0-1.29-.41-1.87.3-.18.21-.88,0-1.34,0s-.93,0-1.39-.1a41.8,41.8,0,0,0-7.25,0c-1.67,0-3.35-.28-5-.38-.48,0-1,.26-1.44.27-2.48,0-4.95,0-7.43,0s-4.73.17-7.09.25c-1.78.06-3.57.07-5.35.15s-3.41.23-5.12.29c-1.86.06-3.73,0-5.59.06a2.9,2.9,0,0,0-.41.06c-1.28.2-2.57.47-3.86.57-1.11.09-2.23,0-3.35,0s-2.52,0-3.78.1-2.45.38-3.68.39c-1.5,0-3-.22-4.49-.22a8.14,8.14,0,0,0-1.95.47,3.06,3.06,0,0,1-.79.1c-1-.06-1.92-.17-2.88-.22-.12,0-.25.24-.4.33a.91.91,0,0,1-.51.15,10.11,10.11,0,0,0-1.58.13,8.46,8.46,0,0,1-1.34.08c-1.84,0-3.68,0-5.52.05-.44,0-.88.17-1.33.2a11.86,11.86,0,0,1-1.19,0c-.37,0-.73,0-1.1.06l-1.35.18Zm139-130.75a7.49,7.49,0,0,1-1.19.24c-.77,0-1.54,0-2.32,0s-1.81.28-2.36-.1c-1-.67-1.76.13-2.6-.07a1.32,1.32,0,0,0-.28,0,14.65,14.65,0,0,0-1.46-.13c-2.18,0-4.36.14-6.54.19-1.3,0-2.6,0-3.9,0s-2.6.1-3.89.07c-1.55,0-3.1-.28-4.65-.28-2.16,0-4.33.18-6.5.21-1.74,0-3.47,0-5.21-.09-.33,0-.66-.16-1-.14-2.57.14-5.14.33-7.72.44-2.08.08-4.17.07-6.26.09-1.83,0-3.67,0-5.51,0a31,31,0,0,0-5.11.08c-2.38.42-4.74.18-7.11.33-1.68.12-3.39,0-5.08,0-2.87.09-5.73.27-8.6.39-2.12.08-4.25.13-6.37.19l-4.44.14c-.9,0-1.82,0-2.72,0-1.7.12-3.39.37-5.08.42s-3.25-.12-4.87-.08c-3.14.08-6.27.26-9.41.37-1.05,0-2.11,0-3.16,0-1.91.07-3.82.22-5.73.3-2.37.1-4.74.2-7.11.21-1.7,0-3.4-.14-5.1-.2-1,0-2.11-.09-3.16,0s-2.26.27-3.39.3c-2.73.08-5.47.12-8.2.11-.75,0-1,.27-1,1a46.71,46.71,0,0,1,0,4.88c-.33,3.86-.79,7.7-1.2,11.55-.06.57-.08,1.15-.17,1.71-.27,1.74-.58,3.47-.86,5.2s-.59,3.63-.91,5.44c-.17.93-.48,1.84-.6,2.77-.26,2.16-.4,4.34-.67,6.5s-.63,4-.93,6.07c-.23,1.59-.39,3.19-.65,4.77-.53,3.15-1.14,6.28-1.65,9.43-.21,1.3-.22,2.63-.39,3.94-.35,2.72-.74,5.44-1.12,8.16a34.43,34.43,0,0,0-.48,3.47c-.08,2.49,0,5-.08,7.47-.05,1.18-.5,2.33-.62,3.51a9.73,9.73,0,0,0,0,3.32,6.85,6.85,0,0,1,0,3.73,23.25,23.25,0,0,0-.81,3.68c-.26,2.1-.24,4.24-.64,6.31-.21,1,0,2.53-1.47,3l.28,6a3.09,3.09,0,0,0,.84.4,42.1,42.1,0,0,0,4.6.36c2.62,0,5.23-.21,7.84-.3,2-.07,4-.07,6-.13,2.21-.07,4.42-.18,6.63-.27,1.7-.07,3.41-.11,5.12-.2,1.45-.08,2.9-.22,4.35-.32s2.67-.18,4-.21c2,0,3.94,0,5.9-.08s3.78-.46,5.68-.61c1.05-.09,2.12.08,3.17,0,2.57-.13,5.14-.32,7.71-.48s5.41-.26,8.1-.49c1.88-.15,3.74-.49,5.61-.73a18.79,18.79,0,0,1,2.7-.22c2.05,0,4.11.32,6.15.27,3.31-.1,6.61-.4,9.91-.58,1.16-.07,2.32,0,3.48-.07,1.73-.11,3.45-.35,5.18-.45s3.63-.07,5.45-.15c1.29-.06,2.57-.24,3.86-.33,1.91-.13,3.83-.23,5.74-.34,1.56-.09,3.12-.2,4.68-.24s2.89,0,4.33,0c1.63.06,3.27-.68,4.89.11.09,0,.25-.05.37-.09a5.22,5.22,0,0,1,1.29-.37c1.42,0,2.85.11,4.27.07,1.78-.05,3.55-.26,5.33-.3s3.73.05,5.59,0c2.71,0,5.42-.13,8.13-.15,1.79,0,3.59.06,5.38.06,1,0,2.09-.14,3.13-.13,2,0,4,.07,6.06.09,1.55,0,3.1,0,4.65,0,3.05.05,6.1.16,9.16.21,2.91.05,5.82.05,8.72.06.25,0,.51-.12.73-.06.92.25,2.07-.77,2.62.22.92-.1,1.7-.26,2.48-.27,2.32-.05,4.64,0,7-.06l8.93-.06c1,0,2,0,3,0a32.34,32.34,0,0,1,3.68,0c1.3.14,2.56-.58,3.9,0,.55.24,1.34-.07,2-.07,1.47,0,2.94,0,4.4.12,1.22.06,2.43.16,3.64.28s2.14.37,3.21.4c1.85,0,3.7,0,5.55-.06.72,0,1.44,0,2.14,0,1.94-.17,3.88-.49,5.82-.54s3.88.2,5.82.26c1.38,0,2.75-.05,4.13,0s2.54,0,3.81.13c.83.06,1.67.39,2.5.37,1.69,0,3.39-.38,5.08-.34,3,.08,5.91.31,8.86.55a24,24,0,0,1,2.84.62c.09,0,.2-.05.3-.05A11.42,11.42,0,0,1,626,899c1.78.28,3.52.78,5.3,1a29.67,29.67,0,0,0,3.89,0,10.24,10.24,0,0,1,2.83.09,1.59,1.59,0,0,0,1.38-.11,3.32,3.32,0,0,1,3.41.17,11.08,11.08,0,0,0,1.94.84c.07-.82.08-1.35.17-1.87.35-1.94.84-3.86,1-5.81q.71-6.69,1.18-13.41c.28-3.87.45-7.75.6-11.63.12-3.09.15-6.18.18-9.27,0-.94-.17-1.88-.16-2.81,0-1.73.19-3.46.2-5.19,0-2.92,0-5.84-.06-8.76,0-1.51.06-3,.08-4.53,0-3.33.08-6.67.13-10,0-2.29.16-4.57.18-6.85s-.13-4.49,0-6.73.47-4.32.59-6.49.07-4.12,0-6.17a1,1,0,0,0-.66-.74c-1.17-.24-2.37-.37-3.55-.56a12.53,12.53,0,0,0-1.57-.26c-2.49-.06-5,.11-7.47-.14-3.57-.36-7.11-1-10.65-1.55a30.85,30.85,0,0,1-4.77-1.1c-.69-.23-1.2-1-1.78-1.52.33-.35.67-.7,1-1.06a.61.61,0,0,0,.09-.2c-.59-.34-1.14-.93-1.69-.92a55,55,0,0,1-6.42-.2c-1.57-.16-3-.35-3.81-1.64l-23.32-1.45-.12-.72c-.19,1-.85.63-1.4.63s-1,.09-1.56,0c-.75-.08-1.64.19-2-.62-.39.18-.77.51-1.14.49-1.34-.07-2.66-.34-4-.39-2.81-.11-5.62-.08-8.43-.19-1.65-.06-3.29-.35-4.94-.4-2.4-.07-4.8,0-7.2,0a3.37,3.37,0,0,1-.91-.23,5,5,0,0,1-1.21.26c-2.34-.11-4.68-.31-7-.37s-4.46,0-6.69,0c-.41,0-.83.1-1.24.08-1.89-.08-3.78-.24-5.67-.25-1.6,0-3.21.19-4.82.19-2.32,0-4.64-.14-7-.15-3,0-6.07.05-9.11,0A21.82,21.82,0,0,1,507.29,788.21Zm33.76,120.22.1.22a4.77,4.77,0,0,0,.75-.16c1-.37,1.94-.84,3-1.12,1.38-.4,2.85-.4,4.19-1,.67-.32,1.48-.34,2.17-.64a16.29,16.29,0,0,1,4.62-1.3c1.39-.17,2.52-1.38,4-1.16a1.48,1.48,0,0,0,.72-.08c3-1.22,5.24-.4,6.45,2.4l7.77-2.46c-.31-.17-.45-.31-.6-.33-2-.18-4-.43-6-.5s-3.89,0-5.83.08c-1.58,0-3.15.14-4.72.12s-3.08-.25-4.63-.26c-2.54,0-5.09.11-7.64.16-1,0-2.07,0-3.25,0a5.84,5.84,0,0,0,.78.79c.25.17.65.15.84.35a2.18,2.18,0,0,1-.59,3.42C542.45,907.41,541.76,907.94,541.05,908.43Zm105.4-1.94c-1-.14-2.24-.34-3.48-.48-.52,0-1.22-.19-1.54.07-1.44,1.18-2.76,2.51-4.15,3.75s-2.74,2.34-4.1,3.53a1.83,1.83,0,0,0-.32.57l3.36-.59c0-.16-.17-1,.74-.41.08.05.27,0,.38-.11.66-.4,1.32-.78,1.95-1.21q1.89-1.3,3.77-2.66C644.26,908.09,645.46,907.21,646.45,906.49Zm-47.67-3.59a3.08,3.08,0,0,0-.63-.18c-2,0-4-.16-5.95,0-.68,0-1.45-.17-2.18.54-1.86,1.78-3.92,3.36-5.91,5a.92.92,0,0,1-.55.22c-.7,0-.7,0-.71.81a1,1,0,0,0,.3,0c1.1-.52,2.14-1.2,3.45-.92.1,0,.23-.2.36-.27a21.4,21.4,0,0,1,2.21-1.19c.92-.37,1.92-.54,2.84-.93,1.92-.81,3.8-1.7,5.7-2.56Zm60.61-9.19a10.52,10.52,0,0,0-1.52,1.46c-.67,1-1.18,2.07-1.78,3.1s-.64,1.37.4,2.05a1.91,1.91,0,0,1,.79,2.16,12.58,12.58,0,0,1-1.56,3.93c-.63,1.31-1.32,2.51-3,2.74-.27,0-.49.44-.87.81l5.65-1.56C657.08,903.45,658.38,898.57,659.39,893.71ZM474.77,911.57v.13l12.51-.12a5,5,0,0,1-.49-3.53Zm62.35-9-11.76-.15a3.42,3.42,0,0,1-2.18,3.76Zm24.61,10.28V913c.73,0,1.46,0,2.19,0,1.2,0,2.4-.08,3.6-.15.15,0,.29-.17.44-.27,1.44-.95,2.87-1.92,4.33-2.85,1.07-.68,2.18-1.32,3.52-2.12Zm-167.29.07-.37-2.66-10.54,3.13Zm222.06-9.42c-.73-.06-1.36-.1-2-.17-1.46-.17-3-.57-4.07.88-.07.1-.26.1-.38.18l-5,3.34c.43.08.54.13.61.1,2.07-.79,4.14-1.59,6.19-2.41C613.38,904.81,614.85,904.17,616.5,903.48Zm-158.57,2.39a.6.6,0,0,0,.37,0c.4-.08.78-.26,1.18-.35a16.22,16.22,0,0,0,4.15-1.16,1.85,1.85,0,0,1,.84-.32c1.21.06,2-.82,3.08-1.16a34.73,34.73,0,0,0-4.07-.08c-1.28,0-2.56.18-3.5.25Zm55.12-3.46c-3.29-.63-7.86.72-8.79,2.58C507,903.61,510.19,904.18,513.05,902.41ZM654.57,809.7l.32.1c.56-1.68,1.08-3.38,1.69-5,.35-.94.08-1.45-.88-1.64l-.47-.05C654.51,805.22,654.93,807.5,654.57,809.7Zm6.36,60.89-3.86,5.22.22.12,3.3-1.43ZM416.58,910.18l-.08-.36c-.38.08-.77.14-1.14.23a5,5,0,0,1-1.69.41c-1.57-.24-2.74,1-4.2,1.06-.19,0-.36.38-.65.7,1.14-.05,2.11-.09,3.07-.15a3.59,3.59,0,0,0,1.2-.16c.7-.31,1.33-.74,2-1.09C415.57,910.58,416.08,910.39,416.58,910.18Zm188.28,3.09c1.61.14,2.93.27,4.26.36.2,0,.55,0,.6-.16.34-.84.62-1.71.84-2.35ZM457.12,911l6,.53-.59-2Zm194.5-20.19c.4,1.74-1,3.12-.27,5,.87-1.36,1.63-2.55,2.35-3.66Zm-215.28,15c2.42.48,4.24-1.49,6.51-1.82C440.58,904.21,438,903.33,436.34,905.76ZM654.1,822.87q1.13-1.87,2.26-3.75l-2.12-.66C653.58,819.81,654.3,821.38,654.1,822.87Zm2.35,23.68c-1.22,0-2,1.42-3.21.19,0,1.46,0,2.62.06,4Zm-29.23,65.07-6.15,2.46.14.37a14.34,14.34,0,0,0,3.25-.7A15.39,15.39,0,0,0,627.22,911.62ZM661,860.16c-.84,1.16-1.55,2.15-2.29,3.16l2.55.22C661.15,862.56,661.06,861.5,661,860.16ZM586.27,913c1.63.06,2.93.14,4.22.13.17,0,.46-.42.48-.66a4.6,4.6,0,0,0-.15-1.13Zm67.18-76.37,2.32-3.38-2.19.13C653.54,834.43,653.5,835.41,653.45,836.63ZM348.94,914.36a12.14,12.14,0,0,0-1.78,0c-.27,0-.51.31-.77.48.25.26.47.7.75.73a7.59,7.59,0,0,0,1.71-.13Zm150.16-3.08,0,.36,3.05-.27.29-1.31Zm156.83,5v.23l2.26-.15c-.1-.69-.17-1.2-.27-1.87Zm4.68-80.76-2.09,3C660.47,837.7,660.93,837,660.61,835.49Zm-13.24-39.76.09-.58c-1.62-.39-3.28.08-4.92.15ZM363.83,914.21l.07.23,3.3-.1v-1.07Zm124.9-11.8,0-.26c-1.21.29-2.7-.46-3.75,1.08Zm-141.12,6.22-.06.7,2.57-.47-.06-.31ZM660.23,884l-.2-.08-1,1.55,1,.44Z"/><path class="cls-2" d="M446.55,821.86l.54.76.23-.12c-.18-.36-.35-.73-.55-1.07a8.82,8.82,0,0,1-.9-1.44c-.3-.79.47-1.51,1.51-1.58.87,0,1.73-.23,2.6-.31s1.79-.93,3-.63c.83.21,1.84-.48,2.77-.51a6.88,6.88,0,0,1,2.47.56,1.3,1.3,0,0,1,.64,2.05c-.86,1.07-.85,2.35-1.13,3.56a36.41,36.41,0,0,0-.77,4.12c-.18,1.72-.2,3.46-.24,5.19,0,1.43,0,2.87,0,4.3,0,1.13-.08,2.25-.06,3.37,0,.72.56.79,1.12.71a21.71,21.71,0,0,1,7,.2,11.31,11.31,0,0,0,2.1,0c1.3,0,2,1,2.69,1.79a41.19,41.19,0,0,1,3.1,4.53,17.67,17.67,0,0,1,1.41,3.21c.54,1.57-.09,3-.78,4.36a13,13,0,0,1-3.59,4c-1.51,1.27-3.12,2.45-4.75,3.57a3,3,0,0,1-1.69.42c-2-.1-3.94-.32-5.91-.46-.83-.06-1.68,0-2.52,0a6.34,6.34,0,0,1-1.69-.17,10.61,10.61,0,0,0-4.81-.39,3.52,3.52,0,0,1-2.87-2.2c0-.2-.1-.49-.24-.56-1.32-.68-.79-1.88-.67-2.81.24-1.84.7-3.61-.18-5.44a4.41,4.41,0,0,1-.23-2.32,80.59,80.59,0,0,1,1.15-8.06,18.1,18.1,0,0,0,.16-6.8,17.57,17.57,0,0,1,0-3.16,4.31,4.31,0,0,0-.26-2.08c-.29-.64,0-1.53,0-2.3a3.53,3.53,0,0,1,.92-2.94C446.44,823,446.41,822.4,446.55,821.86ZM455,853.79c-.21,2.83.48,3.15,1.9,3.05.44,0,.85-.46,1.29-.49,1.55-.1,2.55-1.14,3.52-2.12a7.41,7.41,0,0,0,1.72-2.7,1.58,1.58,0,0,0-.39-2c-.72-.47-1.39-1-2.07-1.52-.87-.64-1.88-.39-2.81-.34s-1.8.11-2.06,1.18C455.72,850.65,455.33,852.46,455,853.79Z"/><path class="cls-2" d="M556.26,865.19l-.3.75c-.66,0-1.14.08-1.62.09a.56.56,0,0,1-.39-.13,12.1,12.1,0,0,1-2.43-2.37c-1-1.42-.9-3.13-1.65-4.59-.31-.59-.54-.62-1-.22a39.24,39.24,0,0,1-4.87,4.54,7.18,7.18,0,0,1-6.73,1.12c-1.32-.51-2.6-1.12-3.88-1.69a1.12,1.12,0,0,1-.39-.36c-1.16-1.53-2.34-3.05-2.54-5.09-.11-1.13-.63-2.3-.48-3.38.25-1.73,1-3.38,1.36-5.11a14.47,14.47,0,0,1,2.23-5A11.74,11.74,0,0,1,538,839.4a3.34,3.34,0,0,1,2.12-.24c1.41.31,2.88.37,4.17,1.28a16.31,16.31,0,0,0,3.19,1.37c0-.1-.09-.38-.11-.65,0-.51-.25-1.19,0-1.5,1-1.34.77-3,1.1-4.44.64-2.82,1-5.71,1.47-8.55.07-.37.09-1,.88-.8.1,0,.33-.42.51-.64s.55-.91.94-1.07c1.22-.48,2.51-.8,3.75-1.23.32-.1.59-.35.87-.26.54.1,1.08.24,1.63.29a3.53,3.53,0,0,1,2.61,2.8c-.08,1.62-.1,3.25-.23,4.88-.12,1.33-.45,2.64-.53,4-.13,2-.06,4.11-.2,6.15-.13,1.84-.41,3.66-.66,5.48a43.47,43.47,0,0,0-.84,5.84c0,2.3-.69,4.63.17,6.91.16.41.16,1,.45,1.24,1.18.91.86,2,.69,3.2a2.17,2.17,0,0,1-2.87,1.84A4.41,4.41,0,0,0,556.26,865.19Zm-13-17.5a7,7,0,0,0-2.15.69,4.74,4.74,0,0,0-1.81,2.12c-.3,1.16-.88,2.46,0,3.72a3.63,3.63,0,0,1,.53,1.44c.18,1.08,1,1.51,1.83,1.89a1.26,1.26,0,0,0,1-.27,14.94,14.94,0,0,0,2.29-2.77,25.17,25.17,0,0,0,2.09-2.85c.63-1.24.26-2-1.13-2.2a2.26,2.26,0,0,1-1-.43C544.39,848.62,543.86,848.15,543.29,847.69Z"/><path class="cls-2" d="M571.43,856.31c-.89,2.18.26,3.59,1.47,4.94a1.71,1.71,0,0,0,1,.3,33.5,33.5,0,0,1,5.8.83,4.39,4.39,0,0,0,3.27,0c.17-.07.42.06.62.13.49.16,1,.35,1.63.59a3.58,3.58,0,0,1-1.37,3.68c-1.46.85-2.61,2.32-4.58,2.43a15.46,15.46,0,0,0-2.2.85,5.6,5.6,0,0,1-3.93-.28c-.53-.22-1.12-.32-1.63-.58a11.72,11.72,0,0,1-6.27-8.49,17.38,17.38,0,0,1,0-3.46,5.36,5.36,0,0,0-.12-1.66,9.48,9.48,0,0,1,.06-5.28c.4-1.83.6-3.7,1.09-5.5.12-.47,1-.72,1.52-1.11a12.89,12.89,0,0,0,1.1-1c.61-.59,1-1.43,2-1.56.55-.07,1-.6,1.57-.87a3.68,3.68,0,0,1,3.67.41c1.39.88,2.63.5,4,.27a9.79,9.79,0,0,1,5.84.56,14.16,14.16,0,0,1,2.78,2.29c.16.13.34.24.49.38a22.41,22.41,0,0,1,3.28,3.25,3,3,0,0,1-.24,2.59c-1.11,1.78-2.25,3.64-4.32,4.5a12.46,12.46,0,0,1-5,1.28,19,19,0,0,0-3.54.59c-1.11.21-2.21.41-3.3.69a9.8,9.8,0,0,0-1.15.61,1.72,1.72,0,0,1-2-.18C572.45,857.07,571.93,856.71,571.43,856.31Zm8.45-8.21.06-.29a6.52,6.52,0,0,0-2.35-.83,21.43,21.43,0,0,0-4.24.87c-.32.09-.51.62-.76.95.35.17.72.52,1,.48a13.19,13.19,0,0,0,2.21-.54c.79-.22,1.81-.87,2.32-.59C578.93,848.58,579.32,848.12,579.88,848.1Z"/><path class="cls-2" d="M513.9,853.84l2.34.56c-.72-1.19-1-2.23-.2-3.38.23-.32.09-1,0-1.43-.17-1.17-.44-2.31-.59-3.48-.1-.8-.51-1.05-1.21-.82-2.77.9-5.68,1.69-7.2,4.5-.82,1.49-1.31,3.16-2,4.73s-1.23,3-2,4.39c-.22.4-.68,1.15-1.55.67-.24-.14-.71.11-1.06.23-.16.05-.26.28-.42.32-.38.08-1.08.24-1.13.11-.54-1.09-2.81,0-2.53-2.07a1.37,1.37,0,0,0-.1-.91c-.79-1-.4-2.1-.37-3.15.05-2.05.18-4.1.31-6.16.09-1.35.28-2.7.34-4.05.09-2.12.12-4.24.14-6.35a1.76,1.76,0,0,1,2.14-1.66,10.28,10.28,0,0,1,2.68.76,1.79,1.79,0,0,1,.68,1.33c.08,1.24,0,2.5,0,3.76,1.05-1.06,2-2.15,3.08-3.08a7.43,7.43,0,0,1,5.21-1.75,7.61,7.61,0,0,1,4.12.89c1.77,1.22,3.72.68,5.55,1.1a11.93,11.93,0,0,1,3.39,1.45c.38.23.52,1,.58,1.59.19,1.73.24,3.47.44,5.19.13,1,.46,2.07.69,3.11.18.83.28,1.68.53,2.48a11.1,11.1,0,0,1,.33,2.74c.12,1.77-1.25,4.18-2.84,4.69a2.46,2.46,0,0,1-.6.12c-1.18.05-2.36.05-3.54.15-.68.06-1.3.31-1.9-.34-.22-.24-1,0-1.21-.2a21.48,21.48,0,0,1-2.11-2.55,2.73,2.73,0,0,1-.44-1.15,4.3,4.3,0,0,1,0-1.34A4,4,0,0,1,513.9,853.84Z"/><path class="cls-2" d="M609,847.7c.1,0,.24,0,.29-.05,1.31-1.55,3.14-1.58,4.93-1.6a8.23,8.23,0,0,1,6.22,2.63c.82.86,1.66,1.72,2.47,2.56-.13,1.5-.25,3-.39,4.41a6.42,6.42,0,0,1-1.87,3.84c-.72.75-2.85.07-3.45-1.11a23,23,0,0,1-.9-2.3c-1.47.47-2.9.91-4.31,1.41a1.62,1.62,0,0,0-.78.66,2.38,2.38,0,0,1-2.49,1.15c-.22,0-.62.4-.67.66-.44,2-.82,4.12-1.21,6.18a2.56,2.56,0,0,0-.07,1c.26,1.38-.58,2.25-1.38,3.13a1.68,1.68,0,0,1-1.79.38,2.7,2.7,0,0,0-1.28.24c-.57.18-1.25.74-1.65.58a4.75,4.75,0,0,1-2.69-2.34c-.83-1.63-.45-3.23-.36-4.83.15-3.08.45-6.16.8-9.22.15-1.38.86-2.75.75-4.08-.06-.8,1.18-1.57,0-2.36-.1-.07.18-.62.2-1,.09-1.49.15-3,.24-4.46a2,2,0,0,1,2.45-1.3c1.09.44,2.13,1,3.22,1.4a6.88,6.88,0,0,0,2.05.43,1.73,1.73,0,0,1,1.68,1.76C609.06,846.2,609,846.94,609,847.7Z"/><path class="cls-2" d="M487.09,836.79c1.52-.89,2.32.29,2.45,1.61.25,2.42.38,4.86.43,7.29,0,1.46-.28,2.91-.31,4.37s.2,3.07.08,4.59a33.85,33.85,0,0,1-.86,5.59c-.27,1.08-3.05,2.18-4.2,1.94-.65-.14-1.32-.18-2-.34-.25-.06-.63-.3-.64-.48-.06-1-.91-1-1.43-1.49a1.79,1.79,0,0,1-.53-1.09,21.64,21.64,0,0,1-.15-3.31c.19-3.2.5-6.4.7-9.6.14-2.21.21-4.43.26-6.65a4.78,4.78,0,0,0-.43-1.3c.73-.65,1.52-1.41,2.37-2.11A2.89,2.89,0,0,1,487.09,836.79Z"/><path class="cls-2" d="M485,819.38c.49.21,1,.43,1.48.63.13,0,.3,0,.44,0,.5.11,1.25.08,1.46.39a14.65,14.65,0,0,0,2.56,2.25,1.44,1.44,0,0,1,.42,1.93c-.19.29.1,1-.11,1.14-1.5,1.12-2.6,2.78-4.67,3.17a3,3,0,0,1-2.93-.67,14.6,14.6,0,0,1-1.83-2.93c-.09-.16.2-.51.19-.76a15.68,15.68,0,0,0,.1-2.4C481.79,820.42,482.47,819.34,485,819.38Z"/><path class="cls-3" d="M381.92,868.17v.07c.53-.19,1.06-.4,1.57-.64,1.64-.76,4.66-1.83,5.8-3.18,1.89-2.22,2.33-6.37,2.36-10.11C386.19,856.82,381.87,862.09,381.92,868.17Z"/><path class="cls-3" d="M383.51,848.61a22,22,0,0,1-7.05-8.66,21.4,21.4,0,0,1-1.8-7.64h-.14c-5.19,0-9.19,2.84-11.95,7.07a20.85,20.85,0,0,0-3.37,9.3,5.39,5.39,0,0,1,.35,1.51c.74,8.52,4.62,17.24,13.46,18.81a4.3,4.3,0,0,1-.08-.82C372.87,860.51,377.24,853.22,383.51,848.61Z"/><path class="cls-3" d="M389.59,842a18.46,18.46,0,0,0-5.08-6.15A10.23,10.23,0,0,0,389.59,842Z"/><path class="cls-3" d="M400.52,842.62a21.24,21.24,0,0,0,12.73-12.44c1.55-4.28,2.62-10.48.68-14.78-1.83-4-6.68-7.91-11.1-8.48-6.36-.81-15.6,1.43-18.14,7.7a4.28,4.28,0,0,1,.14,1.71c-.23,2.27-.66,5-.95,7.85A28.48,28.48,0,0,1,400.52,842.62Z"/><path class="cls-3" d="M385.82,877.53a21.41,21.41,0,0,0,6.52,6.47c2.81,1.86,4.57,2,7.88,1.82a21.39,21.39,0,0,0,10.45-3c4.4-2.59,5.58-7,5.8-11.83.24-5-.06-9-3.85-12.7A19.8,19.8,0,0,0,401.5,853c-.09,6.37-.79,13.89-5,18.4C393.91,874.1,390,876.2,385.82,877.53Z"/><path class="cls-4" d="M389.59,842a11,11,0,0,0,1.25.56,14.31,14.31,0,0,0,9.68,0,28.48,28.48,0,0,0-16.64-18.44c-.41,4-.52,8.2.63,11.68A18.46,18.46,0,0,1,389.59,842Z"/><path class="cls-4" d="M385.17,876.4c.2.39.42.76.65,1.13,4.14-1.33,8.09-3.43,10.65-6.17,4.24-4.51,4.94-12,5-18.4-.59-.08-1.19-.15-1.79-.2a16.33,16.33,0,0,0-8.06,1.55c0,3.74-.47,7.89-2.36,10.11-1.14,1.35-4.16,2.42-5.8,3.18-.51.24-1,.45-1.57.64,0,5.43-8.06,5.67-8.91.75-8.84-1.57-12.72-10.29-13.46-18.81a5.39,5.39,0,0,0-.35-1.51,20.85,20.85,0,0,1,3.37-9.3c2.76-4.23,6.76-7.07,11.95-7.07h.14a54.19,54.19,0,0,1,.47-9.92,23.52,23.52,0,0,0-19.32,9.25c-5.13,6.71-6.66,13.57-6.87,21.85a4.43,4.43,0,0,0,1.68,3.77,29.53,29.53,0,0,0,7.07,14.18c4.33,4.83,11.64,7.69,18.07,7.75.29,0,.6,0,.9,0a4.4,4.4,0,0,1-.14-.86Z"/><path class="cls-5" d="M383.88,824.18c.29-2.85.72-5.58.95-7.85a4.28,4.28,0,0,0-.14-1.71c2.54-6.27,11.78-8.51,18.14-7.7,4.42.57,9.27,4.45,11.1,8.48,1.94,4.3.87,10.5-.68,14.78a21.24,21.24,0,0,1-12.73,12.44c.11.42.22.84.32,1.26a33.83,33.83,0,0,1,10.3,2.85c5.52-4.71,9.89-9.72,11.6-17,1.62-6.9,1.93-14.76-2.21-20.85-3.93-5.78-10.63-10.44-17.7-10.91-12.75-.85-27.77,5.65-27.8,20.19a4.54,4.54,0,0,0,.39,1.9c-.1.78-.2,1.57-.29,2.36h.27A25.35,25.35,0,0,1,383.88,824.18Z"/><path class="cls-5" d="M383.51,848.61a25.91,25.91,0,0,1,7.24-3.77,18.89,18.89,0,0,0-1.16-2.83,10.23,10.23,0,0,1-5.08-6.15,16.3,16.3,0,0,0-9.85-3.55,21.4,21.4,0,0,0,1.8,7.64A22,22,0,0,0,383.51,848.61Z"/><path class="cls-5" d="M374.66,832.31a16.3,16.3,0,0,1,9.85,3.55c-1.15-3.48-1-7.69-.63-11.68a25.35,25.35,0,0,0-8.48-1.79h-.27A54.19,54.19,0,0,0,374.66,832.31Z"/><path class="cls-4" d="M390.84,842.57a11,11,0,0,1-1.25-.56,18.89,18.89,0,0,1,1.16,2.83,22.22,22.22,0,0,1,8.13-1.13c.66,0,1.31.1,2,.17-.1-.42-.21-.84-.32-1.26A14.31,14.31,0,0,1,390.84,842.57Z"/><path class="cls-1" d="M411.14,846.73l-.86.73a20.78,20.78,0,0,1-8.77,4.34c0,.38,0,.77,0,1.16a19.8,19.8,0,0,1,11.12,5.34c3.79,3.66,4.09,7.71,3.85,12.7-.22,4.82-1.4,9.24-5.8,11.83a21.39,21.39,0,0,1-10.45,3c-3.31.2-5.07,0-7.88-1.82a21.41,21.41,0,0,1-6.52-6.47,33.79,33.79,0,0,1-9.16,1.65,5.09,5.09,0,0,0,.3.85c2.39,5.23,6.92,9.42,11.81,12.34,4.7,2.82,8.57,2.55,13.87,2.3a27,27,0,0,0,17-7.39c5.09-5.16,5.86-12.69,5.87-19.56C425.51,857.75,419.35,850.53,411.14,846.73Z"/><path class="cls-1" d="M391.64,852c-.13,0-.26,0-.39-.06a18.6,18.6,0,0,1-7.74-3.31c-6.27,4.61-10.64,11.9-10.58,19.56a4.3,4.3,0,0,0,.08.82,16,16,0,0,0,2.75.26,18.59,18.59,0,0,0,6.16-1v-.07c-.05-6.08,4.27-11.35,9.73-13.86C391.66,853.51,391.66,852.72,391.64,852Z"/><path class="cls-4" d="M385.17,876.4l-8.65,1.92a4.4,4.4,0,0,0,.14.86,33.79,33.79,0,0,0,9.16-1.65C385.59,877.16,385.37,876.79,385.17,876.4Z"/><path class="cls-4" d="M373,869c.85,4.92,8.88,4.68,8.91-.75a18.59,18.59,0,0,1-6.16,1A16,16,0,0,1,373,869Z"/><path class="cls-1" d="M391.64,852c0,.74,0,1.53,0,2.33a16.33,16.33,0,0,1,8.06-1.55c.6,0,1.2.12,1.79.2,0-.39,0-.78,0-1.16A25.72,25.72,0,0,1,391.64,852Z"/><path class="cls-1" d="M391.25,851.92c.13,0,.26,0,.39.06,0-1-.06-1.84-.09-2.61a17.3,17.3,0,0,0-.8-4.53,25.91,25.91,0,0,0-7.24,3.77A18.6,18.6,0,0,0,391.25,851.92Z"/><path class="cls-1" d="M401.5,849.37c0,.77,0,1.59,0,2.43a20.78,20.78,0,0,0,8.77-4.34l.86-.73a33.83,33.83,0,0,0-10.3-2.85A25.76,25.76,0,0,1,401.5,849.37Z"/><path class="cls-1" d="M400.84,843.88c-.65-.07-1.3-.13-2-.17a22.22,22.22,0,0,0-8.13,1.13,17.3,17.3,0,0,1,.8,4.53c0,.77.06,1.66.09,2.61a25.72,25.72,0,0,0,9.87-.18c0-.84,0-1.66,0-2.43A25.76,25.76,0,0,0,400.84,843.88Z"/></g></svg>