<svg xmlns="http://www.w3.org/2000/svg" viewBox="0 0 1024 1024"><defs><style>.cls-1{fill:#c6ddef;}</style></defs><title>mb-panel-c-2</title><g id="Ebene_2" data-name="Ebene 2"><path class="cls-1" d="M210.94,392.31c-6.81,3.45-11.35,10.19-14.5,17.14-4.71,10.42-6.85,22.7-2.45,33.26a49.34,49.34,0,0,0,6.08,10.12c2,2.69,4.1,5.53,4.3,8.86.19,3.06-1.32,5.94-2.1,8.91a19.6,19.6,0,0,0,4.27,17.74c2.23,2.49,5.09,4.38,7.26,6.93.7.81,1.34,2,.75,2.89a2.33,2.33,0,0,1-1.63.86c-3.38.6-6.76-.94-9.71-2.71a56.2,56.2,0,0,1-23.73-29c-3.5-9.77-4.19-20.3-4.64-30.67a41.35,41.35,0,0,1,.45-10.55,43,43,0,0,1,4-10.12l4.61-9.19a16.07,16.07,0,0,1,3.06-4.67,16.38,16.38,0,0,1,3.67-2.35l13.07-6.8c2.14-1.11,4.68-2.24,6.84-1.18"/><path class="cls-1" d="M237.39,499.17c-11.77,4.38-21,14.25-26.3,25.63s-7,24.16-6.82,36.72a130.83,130.83,0,0,0,15.29,59.23c5.23,9.81,11.69,18.89,17.68,28.25a24.27,24.27,0,0,1,3.51,7.17,25.34,25.34,0,0,1,.17,8.11L240,674.45c-.17,1.9-.52,4.1-2.19,5s-3.8,0-5.42-1a56.66,56.66,0,0,1-10.71-9.64,70.65,70.65,0,0,1-9.26-12.25,90.8,90.8,0,0,1-4.92-10.64l-6.3-15.31A103.58,103.58,0,0,1,197,618.93a97.26,97.26,0,0,1-2.12-10.59q-3.27-20.48-5.44-41.1c-.69-6.56-1.29-13.14-1.43-19.74a164.84,164.84,0,0,1,7.19-50.08c.37-1.23,1-2.68,2.28-2.78a3.47,3.47,0,0,1,1.82.58,31.13,31.13,0,0,0,29.29-.26c2.11-1.18,4.37-2.66,6.74-2.18s3.59,4.39,1.31,5.19"/><path class="cls-1" d="M238.07,403q7.56-2.1,15.06-4.41c1.4-.43,3-.84,4.24-.07s1.62,2.71,1.46,4.3-.57,3.24-.06,4.75,1.72,2.54,1.77,4c.08,1.93-1.84,3.25-2.86,4.89a5.86,5.86,0,0,0-.27,5.61c.48,1,1.24,2,.86,3a2.21,2.21,0,0,1-1.49,1.18c-2.92.88-6-1.56-6.93-4.46s-.29-6,.41-9a1.63,1.63,0,0,0,0-1.15A1.58,1.58,0,0,0,249,411a22,22,0,0,0-5.25-.16,7.74,7.74,0,0,1-2.8,0c-2.11-.57-3.11-2.93-3.81-5a4.36,4.36,0,0,1-.31-2.74c.29-.89,1.47-1.52,2.2-.93"/><path class="cls-1" d="M253,669.86a3.55,3.55,0,0,0-4.59-1,5.79,5.79,0,0,0-2.74,4.19,16.94,16.94,0,0,0,.13,5.17,3.44,3.44,0,0,0,.48,1.61,1.17,1.17,0,0,0,1.48.43c.23-.14.43-.39.69-.38a.74.74,0,0,1,.51.42c1.49,2.51.61,5.68.81,8.59s1.41,5.43,2.35,8.09a5.85,5.85,0,0,1,.44,2.21,2.14,2.14,0,0,1-1.12,1.84,3,3,0,0,1-2.63-.5,22.15,22.15,0,0,1-9.18-11.8,44.62,44.62,0,0,1-2.17-15,24.46,24.46,0,0,1,1.06-8.22,9.91,9.91,0,0,1,5.37-6,4,4,0,0,1,3.4,0,4.86,4.86,0,0,1,1.45,1.51,37.73,37.73,0,0,1,4.25,7.82,1.44,1.44,0,0,1,.16.73c-.08.75-1,1-1.78,1"/><path class="cls-1" d="M204.9,808.1c.11.2.43-.12.28-.3s-.42-.15-.64-.1A8.56,8.56,0,0,1,196.3,805c-1.89-2.38-1.76-6.31.65-8.15a7.1,7.1,0,0,1,5.45-1,40.56,40.56,0,0,1,5.45,1.63,28.67,28.67,0,0,0,9.87,1.26,6.54,6.54,0,0,0,2.77-.6,2.57,2.57,0,0,0,1.44-2.3c-.11-1.59-2-2.34-3.44-2.94-3.7-1.51-6.76-4.22-10.15-6.35S200.83,782.88,197,784c-2.91.87-5.15,3.16-7.22,5.39-1.89,2-3.81,4.18-4.51,6.86a17.22,17.22,0,0,0-.37,4.36,21.38,21.38,0,0,0,.46,5.48,7.25,7.25,0,0,0,3,4.44c2.68,1.64,6.13.68,9-.5s6-2.58,9-1.69"/><path class="cls-1" d="M313.15,777.65c-1.64,0-2.81,1.59-3.51,3.07a20,20,0,0,0-1.88,7.29,7.57,7.57,0,0,0,.8,4.46c1.25,2,3.89,2.84,5.14,4.86a2.13,2.13,0,0,1,.18,2.3,2.52,2.52,0,0,1-2.22.73c-2.21-.06-4.52-.57-6.57.29-1.28.54-2.34,1.58-3.68,2-2,.59-4.21-.48-5.78-1.92-3.06-2.81-4.6-7-5.19-11.06a10.18,10.18,0,0,1,.23-4.85,4.46,4.46,0,0,1,3.51-3.06,25.14,25.14,0,0,1,3.42.42c2.29.1,4.27-1.45,6.32-2.48a15.06,15.06,0,0,1,9.15-1.37"/><path class="cls-1" d="M345.21,488.12c-7.88-35,21.05-69.7,16.09-105.25-.85-6.05-2.58-12.64.44-18,3.45-6.09,11.46-7.57,18.44-8-2.86-9.61-1.29-19.93.53-29.8q5.6-30.48,14-60.38c1.29-4.6,2.74-9.38,6.05-12.83,2.81-2.93,6.68-4.58,10.55-5.81a67,67,0,0,1,25.63-2.88c3.39.28,6.85.81,10.17.08s6.57-3.14,7.06-6.51c-11.76-2.06-20.43-7.21-32.19-9.26-6.4-1.12-20.49-9.65-26.82-8.16-9,2.1-12,20.25-13.78,29.26-1.21,6-.11,12.3-1.37,18.3-1.13,5.41-4.1,10.23-6.47,15.23-3.81,8.06-6.08,16.75-8.34,25.38l-8.34,31.9C345,386.71,333.17,432,322,477.45a3.22,3.22,0,0,0,2.72,4.77L345,488.16"/><path class="cls-1" d="M367.92,484.44c-1-5.93.85-12,3.15-17.52a114.36,114.36,0,0,1,10.87-20.29,61.47,61.47,0,0,1,9.94-11.8c9.08-8.07,21.28-11.87,33.36-13.18,2.67-.29,5.77-.73,7.09-3.07s.09-5.18-1.89-6.81-4.55-2.28-7-3c-14.38-4.23-27.52-12.4-42.24-15.22a3.1,3.1,0,0,0-1.57,0c-1,.37-1.35,1.63-1.53,2.71-1.25,7.57-2.57,15.26-5.92,22.16-1.66,3.41-3.81,6.61-4.84,10.25-1.43,5.05-.6,10.56-2.21,15.55-1.76,5.45-6.29,9.84-7.21,15.49-.37,2.2-.15,4.46-.4,6.68-.54,4.6-3.11,8.91-2.94,13.54l13.3,4"/><path class="cls-1" d="M403,332.59a77.17,77.17,0,0,1,20.06-44.92c4.72-5.1,10.55-9.73,17.44-10.64,2.26-.3,4.59-.19,6.77-.86s4.27-2.39,4.4-4.67c.13-2.51-2.06-4.47-4.06-6a43.76,43.76,0,0,0-9.62-6.17c-6.34-2.64-13.69-2.22-19.84-5.26-2.6-1.29-5.7-3.17-8.12-1.56-1.7,1.14-2,3.45-2.26,5.48a87.09,87.09,0,0,1-6.35,23.77,37.76,37.76,0,0,0-2.25,6,36.75,36.75,0,0,0-.67,5.93c-.57,7.89-2.28,15.65-4,23.38a21.25,21.25,0,0,1-1.42,4.7c-.8,1.66-2.07,3.39-1.54,5.15.46,1.55,2.11,2.36,3.6,3l8.26,3.54"/><path class="cls-1" d="M694.68,307.2a55.81,55.81,0,0,1-32.32,1.17c-10.34-2.74-19.94-8.48-30.6-9.36a34.9,34.9,0,0,0-27.39,10.23c-7.6,7.77-11,18.58-14.26,29l-11.24,36.41c-2.26,7.31-4.53,14.71-4.91,22.35s1.33,15.66,6.25,21.51a12.34,12.34,0,0,0-15.06,18.41c1.57,2.23,3.91,4,4.84,6.55,1.54,4.23-1.26,8.67-3.69,12.47-8.88,13.89-14.2,29.8-17.5,45.95-3.55,17.41-4.25,37.33,7.11,51a130.29,130.29,0,0,1-27.11-10.43,11.55,11.55,0,0,1-4-2.89c-2.45-3.15-1.21-7.68.11-11.44q10.41-29.52,19.69-59.43c7-22.5,13.49-45.18,18.31-68.24,1.44-6.93,2.74-13.88,4.14-20.81a688.24,688.24,0,0,1,28.47-100.8c4,.07,7.91,1.24,11.76,2.4l86.44,26.11"/><path class="cls-1" d="M578.93,549.33c-1-8.68,0-17.49,2-26a37.15,37.15,0,0,1,3.39-9.88,75.91,75.91,0,0,1,4.67-6.76c5.49-7.79,9.08-17.36,16.91-22.8,10.92-7.58,25.86-4.39,38.68-7.94.2-1.67-2-2.46-3.61-2.72-16.55-2.63-31.67-11-48-14.83a3.26,3.26,0,0,0-1.88-.05c-1.25.51-1.33,2.2-1.37,3.54-.12,5.15-2.44,9.94-4.42,14.7a245.77,245.77,0,0,0-8.11,24l-3.65,12.16c-3,9.85-5.92,19.72-8,29.79-.26,1.26-.46,2.7.34,3.7s2.45,1.09,3.83,1.15a23,23,0,0,1,11.13,3.43"/><path class="cls-1" d="M616.69,394.85c-2.5-13.11-4.85-27.33,1.08-39.29a47,47,0,0,1,8.47-11.43,37.72,37.72,0,0,1,9.57-7.75c4.84-2.54,10.38-3.3,15.8-4,7.79-1,15.93-2,23.32.63,2.45.88,6,1.68,6.94-.76l-7.13-2.57-58-20.92A379.68,379.68,0,0,0,603.58,356a118.93,118.93,0,0,1-3.24,13.21c-1.19,3.54-2.8,7.1-2.54,10.83.33,4.62,3.57,8.64,7.5,11.1s8.51,3.62,13,4.75"/><path class="cls-1" d="M744.18,609a344.11,344.11,0,0,0,14-53.87c1.92-11,3.31-22.09,5.7-33,1.4-6.41,3.83-13.55,9.86-16.14-4.53-9.91,2.83-23.19,13.63-24.6-4.28-12.78-8.58-26.66-4.4-39.48,1.24-3.8,3.19-7.33,4.58-11.07,2.48-6.63,3.19-13.78,5.14-20.58A59.32,59.32,0,0,1,822.81,374c13.28-6.63,28.6-8,43.43-7.25s29.49,3.41,44.3,4.36c-5.94-2.39-12-4.56-18-6.72l-77-27.66c-4.38-1.58-9.54-3.07-13.41-.49-3.44,2.29-4.37,6.85-5.07,10.93a359.67,359.67,0,0,1-16.74,62.63c-3.12,8.49-6.56,16.87-9.06,25.56-2.78,9.64-4.38,19.57-6.54,29.36-7.66,34.69-22.33,67.83-26.43,103.11-1.06,9.15-1.57,18.88-6.76,26.48-2.1,3.06-4.88,7.31-2.23,9.91a6.87,6.87,0,0,0,2.66,1.4l14.48,5.07"/><path class="cls-1" d="M785.55,605.13a50.54,50.54,0,0,1,42-49.09,13.23,13.23,0,0,0,5.19-1.56c.72-.48,1.34-1.13,2.1-1.56a10.26,10.26,0,0,1,4.55-.85,30.57,30.57,0,0,0,11.64-3c0-.61-.69-1-1.26-1.17l-33.3-12.14q-10.08-3.68-20.17-7.34c-2-.71-4.38-1.37-6.05-.09a5.52,5.52,0,0,0-1.71,4c-.24,2.55,0,5.11-.1,7.67a53.39,53.39,0,0,1-2.21,11.49c-2.86,10.58-5.81,21.18-7.51,32-1.13,7.17-1.7,14.41-2.28,21.64l6.74,1.76a2.74,2.74,0,0,0,2.28-.08c.64-.46.42-1.79-.36-1.69"/><path class="cls-1" d="M824.6,440.9a76.61,76.61,0,0,1,18.33-35.65c3.17-3.47,6.69-6.69,9.18-10.68A11.05,11.05,0,0,1,854,392a8.73,8.73,0,0,1,4.43-1.68,120,120,0,0,1,25.81-1.72C865.09,386.3,847,379,828.41,374a3.47,3.47,0,0,0-2.13-.11c-1.47.56-1.48,2.59-1.45,4.16.13,7.71-5.05,14.39-7.3,21.77-1.4,4.59-1.65,9.44-2.61,14.14-1.4,6.81-4.33,13.41-4.21,20.36a2.55,2.55,0,0,0,.41,1.59,2.71,2.71,0,0,0,1.15.67l13,4.87-1.43.29"/></g><g id="Ebene_1" data-name="Ebene 1"><path d="M244.39,523.26a18.8,18.8,0,0,0,.33,2.44c1.51,5.35,2.86,10.74,4.64,16A115.43,115.43,0,0,0,254,552.34c.57,1.26,1.39,2.42,1.87,3.72,2.68,7.19,6.64,13.74,10.27,20.45a61.44,61.44,0,0,0,4.73,7.33,84.88,84.88,0,0,1,11.81,22.35,252.54,252.54,0,0,1,7.75,26.36c.7,3,1,6,1.55,9,.39,2.33.92,4.64,1.14,7,.88,9.58-1.52,18.13-8.21,25.28-.56.61-1.11,1.23-1.62,1.88s-.76,1.13-1.22,1.83a55.58,55.58,0,0,1,5.22,7.49A55,55,0,0,1,293,700.62c.94,4.48,1.93,9,2.89,13.43a35,35,0,0,1,.85,7c0,2.62-.15,5.29.78,7.84a2.09,2.09,0,0,1,.05.83c-.28,4.84-.49,9.69-.89,14.53-.32,4-1,8-1.3,12-.53,6.78-.91,13.57-1.35,20.36a3.58,3.58,0,0,0,.08,1.64c.27.57.76,1.3,1.3,1.44a7.45,7.45,0,0,0,3.28.22c2.72-.53,5.41-1.22,8.07-2,1.6-.45,3.15-1.1,4.71-1.69,3.73-1.43,7.62-1.42,11.51-1.21a11.09,11.09,0,0,1,3.14,1c.38.14.68.5,1,.66,4.59,1.95,6.65,5.64,7.21,10.39.19,1.64.4,3.29.64,4.94a11.21,11.21,0,0,1-1.71,8.36,8.68,8.68,0,0,0-.68,2.57c1.06.14,1.83.28,2.61.33,3.89.23,7.77.43,11.65.67.73,0,1.5.4,1.46,1.17,0,.59-.47,1.53-.93,1.67a10,10,0,0,1-3.65.46c-11.49-.86-23-1.52-34.52-1.29-6,.12-11.91.55-17.85.54-4.16,0-8.32-.48-12.47-.84a7.2,7.2,0,0,1-2.78-.85,2,2,0,0,1-1-1.53,2,2,0,0,1,1.43-1.21,19.25,19.25,0,0,1,3.72,0c2.78.12,5.55.3,8.32.42a18.75,18.75,0,0,0,2.36-.22,6.15,6.15,0,0,0-.68-1.93,10.22,10.22,0,0,1-2.5-6.07c-.63-6.77-1.23-13.55-1.63-20.34a72.45,72.45,0,0,1,.43-7.48c.1-2.22.13-4.44.12-6.66s-.23-4.17-.18-6.25c.24-9.48-.89-18.85-2-28.23-.58-5.11-1.08-10.23-1.88-15.3a91.14,91.14,0,0,0-8.28-25.25,13.17,13.17,0,0,0-.95-1.44c-2.24-.51-4,1-5.94,1.49s-4,1.18-6.09,1.82c-.33,1.35-.58,2.71-1,4q-1.26,3.95-2.68,7.85c-2.16,5.82-9.55,6.09-13.22,2.68a22,22,0,0,1-3.41-4.16,33.64,33.64,0,0,1-4.41-12.49,17.8,17.8,0,0,0-.73-2.32c0-.09-.24-.13-.44-.23a4,4,0,0,0-.23,1.13c.19,2.21.39,4.42.67,6.62,1,7.85-.39,15.52-2.06,23.12-1,4.6-2.52,9.09-3.92,13.59a63.48,63.48,0,0,0-2.52,14.71c-.29,4.43-.28,8.89-.63,13.32-.84,10.72.76,21.35,1.13,32,0,1,.07,1.93,0,2.9-.13,3.74-.26,7.49-.44,11.23-.06,1.23-.25,2.46-.39,3.69-.29,2.55-1.12,4.84-3.25,6.26.23,1.21,1,1.08,1.66,1.1,1.8.05,3.61,0,5.42.09a14.88,14.88,0,0,1,6.46,1.42,3.8,3.8,0,0,1,1.14,1.12c.12.16,0,.51,0,.83-15.61-1.75-31.26-.55-46.89-.62-3.45,0-6.9.22-10.34.41-6,.34-11.92-.59-17.88-.91a14.88,14.88,0,0,1-4.07-.83c-.68-.23-1.16-1-1.75-1.56,1.7-1.45,3.38-1.94,5.1-.73,1.37,1,2.91.92,4.39,1a99.8,99.8,0,0,0,17.88-.08c1.32-.13,2.64-.18,5-.34-2.19-1.16-3.5-1.82-4.79-2.53-4.36-2.41-5.82-6-4.46-10.88a16.77,16.77,0,0,1,7.92-10.3,16,16,0,0,0,1.82-1c6-4.58,12.69-4.29,19.49-2.58a24.89,24.89,0,0,1,4.46,2.19c1.58.77,2.88,2.09,4.81,2.57a6,6,0,0,0,.53-1.72c-.15-3.05-.38-6.09-.6-9.34-.89-.07-1.68-.18-2.46-.21-4-.13-8.07,0-12.07-.43-5.54-.56-11.09-.73-16.65-.78-7.63-.07-15.27-.26-22.91-.16-9.71.13-19.42.49-29.14.75-7.77.22-15.54.42-23.32.68q-14.36.48-28.72,1a30.25,30.25,0,0,1-10.35-.93c2.18-.1,4.38-.08,6.55-.33a65.9,65.9,0,0,1,7-.52c3.57-.06,7.14-.56,10.71-.9,1.08-.1,2.16-.35,2.69,1,0,.07,1,0,1.06-.21a2,2,0,0,1,2.45-1.09,9.3,9.3,0,0,0,5.49-.56A7.48,7.48,0,0,1,112,775q11.24-.54,22.47-1.06c9.3-.43,18.59-.92,27.89-1.24,4.44-.15,8.89,0,13.34.07,4.86,0,9.72.09,14.58,0a121.12,121.12,0,0,1,17.45.93,49,49,0,0,0,11,.24c.36-1.76-.18-3.38-.23-5a27.71,27.71,0,0,0-.41-4.56A74.1,74.1,0,0,1,217,745.38a71,71,0,0,1,1.67-13.61c.69-2.83,1-5.75,1.39-8.64,1.1-7.7,2.27-15.39,3.21-23.12a94.58,94.58,0,0,0,0-24.93,4.24,4.24,0,0,0-1.18-2.57l-.3-.29c-8.12-7.39-12.72-17.07-17.41-26.69a151.09,151.09,0,0,1-9.53-26.19c-3.48-12.6-6.17-25.35-6.61-38.5-.18-5.27-.93-10.52-1.21-15.79-.24-4.29-.2-8.61-.23-12.91,0-4.73-.13-9.46,0-14.18.17-5.13.52-10.27.94-15.38.52-6.37,1.07-12.74,1.84-19.08.47-3.84,1.39-7.62,2.16-11.71a7.44,7.44,0,0,0-.74-1.13,65.65,65.65,0,0,1-11.45-19.24c-3.05-7.62-6.16-15.26-6.67-23.55-.36-5.81-.79-11.73-.13-17.47a57.59,57.59,0,0,1,6.69-20.91,6.61,6.61,0,0,0,1.23-3,4.39,4.39,0,0,1,1.32-2.48c4.11-4.36,8.37-8.48,14.27-10.51,3.27-1.12,6.41-2.6,9.84-3.3a16.58,16.58,0,0,1,9.41.67,51.15,51.15,0,0,1,12.19,6.27c1.22.88,2.49,1.69,3.88,2.62a27.1,27.1,0,0,1,1.94-2.34,7.69,7.69,0,0,1,2-1.43,2.06,2.06,0,0,1,2.83,1c.61,1.22,1.09,2.49,1.63,3.74,2.68,0,4.74-1.08,6.81-2.24a29.68,29.68,0,0,1,13.49-3.85A11.32,11.32,0,0,1,272,403.2a18.19,18.19,0,0,1,.57,7,32.17,32.17,0,0,1-3.12,10.31,15.19,15.19,0,0,1-6,6.78,6.13,6.13,0,0,0-3.12,5.06,2.9,2.9,0,0,0-.06.41c-.12,6.24-.31,12.48-.35,18.72,0,5.86,1.28,11.58,2.08,17.35q2.1,15.06,4.19,30.12c.4,2.89.8,5.77,1.23,8.64a50.9,50.9,0,0,1,.2,11.24c-.21,3.12-1.47,5.92-2.7,8.71-1,2.15-3.08,2.69-5.19,2.86a12.35,12.35,0,0,1-7.95-2c-1.74-1.14-3.35-2.47-5-3.68C246.13,524.3,245.44,523.92,244.39,523.26Zm-8.47,154.65c0-2.24,0-3.6,0-4.95.15-5.21.93-10.31,3.86-14.71a6.21,6.21,0,0,0,1.09-5.44c-1.27-4.55-2.44-9.13-4-13.58-2.36-6.82-5-13.55-7.55-20.29a72.66,72.66,0,0,1-3.24-11.19c-.46-2.16-1.22-4.27-1.82-6.4-.82-2.94-1.64-5.88-2.42-8.83-.36-1.34-.56-2.72-.91-4.06-1.93-7.24-4.23-14.4-5-21.91a18.6,18.6,0,0,0-.5-2c-1.86-8.46-2.88-17-1.82-25.66a27.58,27.58,0,0,1,2.33-9.22,6.92,6.92,0,0,1,3.39-3.5c1.84-.82,2.81-.76,4.05.69a14.44,14.44,0,0,1,3.32,7.53,63.13,63.13,0,0,1,.47,13.68,85.59,85.59,0,0,0,.47,20.79c.9,5.75,2.15,11.46,3.39,17.16.58,2.71,1.53,5.34,2.24,8a181.57,181.57,0,0,0,6.49,20.22c2,5,4.08,10.07,4.89,15.46.7,4.67,2,9.2,2.7,13.86s2.12,9.23.39,14c.58.4,1,.75,1.45,1a11.06,11.06,0,0,1,4.27,4.31c.2.37.42.73.65,1.07,2.91,4.3,5.29,8.8,5.48,14.17a14.86,14.86,0,0,0,.66,3.26,11.49,11.49,0,0,0,.87,1.82,48.26,48.26,0,0,0,12.11-4.86c4.4-2.33,7.39-6,9.8-10a32.52,32.52,0,0,0,4.88-17.85,36.11,36.11,0,0,1,.21-4.16,39.44,39.44,0,0,0-1.71-15.23,213.13,213.13,0,0,0-8.25-23.58A123.27,123.27,0,0,0,268,588.07c-4.51-6.82-9.19-13.55-12.85-20.91-4.15-8.33-8.41-16.63-11.57-25.39a173.14,173.14,0,0,1-8.38-33.91,44.57,44.57,0,0,1-.62-10.38,15.81,15.81,0,0,0-.26-2.6,26.62,26.62,0,0,0-5.52,2.32,16.92,16.92,0,0,1-3.81,1.6c-1.87.52-3.8.82-5.71,1.2-7.2,1.42-14.07.66-20.51-3.07-.71-.41-1.47-.71-2.28-1.1a18.09,18.09,0,0,0-1.94,7.29c-.21,1.94-.24,3.89-.52,5.82a245.18,245.18,0,0,0-2.12,29.89c-.39,15.84.61,31.65,1.76,47.44a137.32,137.32,0,0,0,4.06,23.78,206.4,206.4,0,0,0,9.84,30.49,141.54,141.54,0,0,0,12.4,23.08c2.79,4.2,6.53,7.56,10.25,10.89C231.58,675.76,233.46,676.48,235.92,677.91Zm7.94-244.11c-.7.51-1.32,1-2,1.44a4.79,4.79,0,0,1-1.86.81c-5.47.38-8.87-1.46-10.51-6.23a24.67,24.67,0,0,1-1.08-10.27c.31-3.5,2.29-5.51,5.31-6.79.59-.24,1.43-.05,1.53-1.1a19.59,19.59,0,0,0-5.2-5.8c-3-2.23-6.13-4.34-9.23-6.45a40.39,40.39,0,0,0-10.13-4.8c-5.72-1.89-11-.79-15.84,2.57a36,36,0,0,0-9.4,9.92,59.29,59.29,0,0,0-8.89,24,60.77,60.77,0,0,0,2.36,28.41,137.14,137.14,0,0,0,6.72,16.57c2.38,5,5.91,9,9.54,13.06a14.11,14.11,0,0,0,2.9,2.37c2.34,1.48,4.72,2.91,7.15,4.24a13,13,0,0,0,8.83,1.64c5.9-1.11,11.58-2.7,16.81-5.83a26.86,26.86,0,0,0,10.75-11.27,55.9,55.9,0,0,0,5.31-20.85,5,5,0,0,0-.31-1.35,71.37,71.37,0,0,0-7.64,1.71,57,57,0,0,0-7.15,3.3,23.05,23.05,0,0,0-6.71,4.87c-1.73,1.9-3.43,3.84-5.51,6.16a9,9,0,0,1,1.26-5.68c4.91-8.18,11.79-13.52,21.49-14.75,1.48-.19,2.95-.48,4.34-.71C247.21,448.45,245.79,438.9,243.86,433.8Zm83.21,368c1.9-2.57,3.5-5,3.5-8.07a26.66,26.66,0,0,0-1.21-8.61,4.55,4.55,0,0,0-1.17-2.14c-2.08-1.6-4.19-3.49-6.82-3.81-4.25-.51-8.55-.7-12.63,1.38a23.12,23.12,0,0,1-5.91,1.86c-2.81.57-5.68.86-8.63,1.28a10.92,10.92,0,0,0-.27,5.35c.42,2,1,4.05,1.31,6.1a8.09,8.09,0,0,0,2.13,4,3.5,3.5,0,0,0,4.39,1.22,55.33,55.33,0,0,1,8.4-2.27,16.2,16.2,0,0,1,11.23,1.7A16.59,16.59,0,0,0,327.07,801.81Zm-104.62-6.93a14.79,14.79,0,0,0-2.56-.58,10.12,10.12,0,0,1-4.72-1.45,73.81,73.81,0,0,1-7.56-4.31c-3.82-2.7-7.69-2.57-11.72-.87a26.23,26.23,0,0,0-3.69,1.9c-4.06,2.54-6.91,6-7.48,10.89-.3,2.59.23,5,2.95,6.25a16.86,16.86,0,0,0,2.58,1.3,5.85,5.85,0,0,0,2.79,0c6.52-1.61,13-2.53,19.46.27.38.17.82.19,1.2.34,2.24.91,4,.11,5.67-1.4a7.41,7.41,0,0,0,2.46-4.67C222.12,800.14,222.23,797.66,222.45,794.88Zm19.1-385.28c2.5,0,4.65.22,6.86-.56a7.22,7.22,0,0,1,6,.42c1,.53,2.11.68,3.12,1.12.38.16.61.68,1.24,1.42-1.5,0-2.45,0-3.4,0a3.34,3.34,0,0,0-3.31,2.06c-1.54,2.91-1.2,5.92-.45,8.92a3.22,3.22,0,0,0,1.3,1.55,7.29,7.29,0,0,0,8.15-.57c5-4.55,6.7-10.43,6.37-16.93-.11-2.14-1.1-4.26-1.81-6.35a4.39,4.39,0,0,0-1.26-1.58,5.77,5.77,0,0,0-5-1.39,27.19,27.19,0,0,0-9,3,28.61,28.61,0,0,1-7,2.6c-1.71.41-3.4.94-5.36,1.49C239.27,406.53,240.34,408,241.55,409.6Zm2.2,250.86c-2.29,5.4-3.66,10.53-3.15,16,.07.82.06,1.64.11,2.46a43.45,43.45,0,0,0,2.64,13.35c1.41,3.59,3.5,6.56,7.64,7.74.45-.39,1.14-.74,1.43-1.3,2-3.88,3.4-8,2.48-12.36-.66-3.13-.88-6.28-1.34-9.4a16.12,16.12,0,0,0-2.47-7c-2-2.84-4-5.65-6-8.45A8.94,8.94,0,0,0,243.75,660.46ZM254,513.68c1.5-1.44,1.25-2.88,1.22-4.23a166.91,166.91,0,0,0-1.95-21.52c-.26-1.64-.36-3.3-.56-4.95-.43-3.58-.85-7.15-1.33-10.72a9.65,9.65,0,0,0-.63-1.85c-1.59,3.84-3.1,7.38-4.52,11-1.51,3.8-4.37,6.66-6.56,9.44.17,4.14.33,7.82.49,11.46a15.81,15.81,0,0,1,3.61,1.66,25.35,25.35,0,0,1,2.56,3.19A34.17,34.17,0,0,0,254,513.68ZM238.7,418.4a12.78,12.78,0,0,0-.67-1.92,2.4,2.4,0,0,0-3.49-.94,3.67,3.67,0,0,0-1.3,1.55c-1.88,4.81-1,9.49,1,14a4.07,4.07,0,0,0,2.14,1.77,4.91,4.91,0,0,0,2.16-.1l3.3-6.35-2.08.47a3.17,3.17,0,0,1-4-1.9,3.87,3.87,0,0,1,.5-4.28A28.12,28.12,0,0,1,238.7,418.4ZM253,427.68c-6.41-3.51-5.81-8.83-4.57-14.49a8,8,0,0,0-5.08.42c3.37,8.95,5.38,18.1,7.61,27.28A113.42,113.42,0,0,0,253,427.68ZM210.54,811.54c-1.88-1.58-1.88-1.74-2.83-1.7-2.74.1-5.48.31-8.22.57-.31,0-.57.6-1.05,1.13ZM259.41,518a8.56,8.56,0,0,0,1.45.09,1,1,0,0,0,.65-.41c.82-1.39.58-3.94-.75-6.25C260.27,513.73,259.5,515.59,259.41,518Zm55.48,284.44c-1.71-1.51-3.26-.87-4.81,0ZM216.8,542.56l.43,0V540l-.15,0ZM114,776.1l-.44.22a1.9,1.9,0,0,0,.41,0,1.78,1.78,0,0,0,.44-.21ZM258.11,526.93a1,1,0,0,0,.25.25,1.15,1.15,0,0,0,1.69-.3.81.81,0,0,0-.2-.67,4.17,4.17,0,0,0-1.41.1C258.28,526.34,258.21,526.72,258.11,526.93Zm2.58-20.11.1-.28-.33.16Z"/><path d="M482.43,528.69c1.37.41,2.55.76,3.72,1.13,2.65.83,5.3,1.64,7.93,2.53.3.1.71.7.63.93-.15.44-.58,1.12-.92,1.13-2.21.11-4.5.45-6.61,0-7.85-1.7-15.64-3.66-23.45-5.54-.68-.16-1.35-.34-2-.56q-13.25-4.35-26.5-8.73c-3.56-1.18-7.09-2.43-10.65-3.59q-14.65-4.77-29.33-9.48c-8.33-2.65-16.69-5.21-25-7.81a13.52,13.52,0,0,1-2-.69c-7.06-3.34-14.67-5.13-22-7.72-8.12-2.88-16.29-5.56-24.62-7.75-2.67-.71-5.21-1.91-7.81-2.89l-7-2.65c-4.14-1.57-8.29-3.13-12.43-4.73-.17-.06-.23-.43-.46-.9a9.94,9.94,0,0,1,2.37-.17,41.08,41.08,0,0,1,5.26,1.26c5.68,1.82,11.33,3.77,17,5.59q4,1.27,8,2.27c12.7,3.1,25.07,7.23,37.39,11.55,8.91,3.12,17.8,6.24,26.92,8.74,6.55,1.79,13,4,19.45,6.13q12.09,3.92,24.15,7.89c7.78,2.56,15.5,5.3,23.34,7.67,6.11,1.85,12.35,3.25,18.54,4.83a5.44,5.44,0,0,0,1.29,0,46.36,46.36,0,0,0,3.38-9c2.07-6.48,4-13,6-19.5,1.88-6,4-11.85,5.8-17.83,2.9-9.57,5.55-19.22,8.47-28.78,3.45-11.29,6.26-22.76,10.36-33.85,2.22-6,4-12.14,6.22-18.11,5.59-15,11.14-29.93,17.11-44.74,4-9.95,7.26-20.11,10.3-30.36,1.07-3.58,1.63-7.31,2.47-11s1.73-7.58,2.7-11.34c2.06-8.07,3.76-16.23,6.48-24.13a76.28,76.28,0,0,0,1.84-7.95,7,7,0,0,0-1.84-1.3c-9.52-3-18.94-6.46-28.7-8.61-13.71-3-27.1-7.14-40.52-11.17-6.64-2-13.13-4.47-19.76-6.5-5.57-1.7-11.24-3.1-16.88-4.57-10.34-2.69-20.68-5.41-31.06-8a200.36,200.36,0,0,1-20-5.9c-2.06-.74-4.11-1.52-6.42-2.38-1.21,3.1-2.62,6.11-3.59,9.26-2.17,7-4.26,14.06-6.13,21.16-1.37,5.23-2.36,10.56-3.49,15.86A250,250,0,0,1,372,298.13c-3.62,10.51-6.81,21.15-9.43,31.95-4.64,19-9.31,38-13.66,57.12-3.39,14.9-7.42,29.63-11.18,44.43q-4.47,17.56-9,35.11-1.08,4.23-2.24,8.45c-.18.65-.48,1.27-.76,2-1.82.1-3.5,1.2-5.42-.29.16-1,.26-2.08.53-3.12q6.68-25.59,13.38-51.17c2.15-8.2,4.44-16.36,6.44-24.59,3.84-15.79,7.47-31.62,11.25-47.42,2.46-10.27,4.84-20.55,7.59-30.74,2.05-7.64,4.48-15.19,7-22.69,3.45-10.28,6.36-20.7,8.91-31.23,1.6-6.62,3.14-13.25,5-19.79,2.06-7.35,4.41-14.62,6.65-21.92.28-.93.62-1.84,1-2.74.67-1.66,1.56-3,3.72-2.3,2.36-1.15,4.59-.3,6.81.48,10.89,3.81,22.12,6.42,33.31,9.12,1.89.45,3.76,1,5.64,1.51,8.45,2.26,16.92,4.46,25.35,6.8,3.47,1,6.86,2.22,10.31,3.3,10.85,3.4,21.69,6.89,32.59,10.13,6.92,2.06,14,3.71,20.92,5.57,9.53,2.53,19.13,4.79,28.42,8.14,2.08.75,4.1,1.68,6.12,2.6a6.63,6.63,0,0,1,1.67,1.19c1.66,1.52,2.19,3,1.25,5.45-2.33,6.08-4.23,12.33-6.06,18.58-1.21,4.13-1.9,8.39-3,12.56-1.92,7.39-3.37,14.88-5,22.35-.94,4.46-2.56,8.78-3.85,13.18-2.86,9.72-6.85,19-10.42,28.51-2.35,6.24-4.78,12.44-7.09,18.7-3.41,9.24-6.83,18.48-10.09,27.78q-4.05,11.57-7.73,23.27c-2,6.49-3.56,13.13-5.66,19.59-3.27,10-5.64,20.33-9.2,30.28C493,497,490.37,506,487.64,514.85,486.21,519.48,485.06,524.2,482.43,528.69Z"/><path d="M895.91,652.09a13.16,13.16,0,0,0,2,1c4,1.26,8,2.44,11.92,3.73a25.72,25.72,0,0,1,4.59,1.92,3.28,3.28,0,0,1,1.3,2c.12.51-.45,1.18-.8,2-4.64-1.37-9.15-2.68-13.64-4-8.37-2.53-16.71-5.15-25.1-7.61A213.12,213.12,0,0,1,847.43,640a188.06,188.06,0,0,0-25.89-9.14c-9.6-2.8-19.15-5.75-28.7-8.68-8.64-2.65-17.41-4.76-26.26-6.54-13.35-2.7-26.58-5.86-39.76-9.26a41.91,41.91,0,0,1-11.71-4.8c.38-.31.68-.74,1.08-.86a4.56,4.56,0,0,1,3.23.34c1.9.8,3.88,1.43,5.86,2.14,1.51-1,1.7-2.74,1.86-4.08.51-4.18,2.07-8.07,3-12.11,1.45-6.08,3-12.14,4.44-18.21q2.7-11.13,5.35-22.28c2.49-10.53,4.88-21.09,7.45-31.6,1.44-5.94,3.15-11.81,4.73-17.71,1.47-5.5,2.89-11,4.38-16.5,1.71-6.3,3.49-12.58,5.18-18.88s3.23-12.64,5-18.93c2-7.22,4.14-14.4,6.2-21.61,1-3.47,1.92-6.95,3-10.41a72.39,72.39,0,0,1,2.56-7.92c3.58-8.47,5.85-17.36,8.39-26.15,2.07-7.21,3.68-14.54,5.57-21.8,1.34-5.1,2.79-10.16,4.22-15.24.56-2,1.19-4,1.72-5.68a3.82,3.82,0,0,1,3.47-.52c3.64.92,7.29,1.76,10.91,2.74,5.36,1.45,10.72,2.87,16.2,3.86A72.91,72.91,0,0,1,849,346.58a68.49,68.49,0,0,0,6.92,2.86c5.58,2.11,11.16,4.23,16.78,6.22,5.1,1.81,10.26,3.48,15.4,5.18,2.37.78,4.85,1.3,7.13,2.28,5.78,2.49,11.86,3.91,17.89,5.55a26.8,26.8,0,0,1,5.85,2.09A67.39,67.39,0,0,0,933,376c5.19,1.49,10.37,3,15.66,4.18,3.63.79,7.06,2.44,10.57,3.73q2.93,1.08,5.82,2.26c1.39.56,2.74,1.21,4.17,1.84a9.39,9.39,0,0,1,0,1.86c-1.59,6.33-3.23,12.64-4.82,19a405.27,405.27,0,0,1-13.17,43.83c-1.5,4-2.6,8.19-3.92,12.28-1.83,5.68-3.73,11.35-5.54,17-.88,2.78-1.65,5.59-2.45,8.39-1.78,6.27-3.53,12.55-5.34,18.82-1.22,4.27-2.64,8.48-3.75,12.78-3,11.42-5.9,22.85-8.63,34.33-1.6,6.75-2.72,13.61-4.17,20.39-1,4.75-2.27,9.45-3.36,14.19-1.67,7.3-3.24,14.63-5,21.92-1.63,6.88-3.4,13.74-5.11,20.6-1,4-2,8.07-3,12.11-.21.8-.39,1.61-.6,2.42a4,4,0,0,1-3.29,3.33C896.73,651.36,896.43,651.73,895.91,652.09ZM802.77,337.74c-.66,2.4-1.31,4.63-1.89,6.88-3.65,14.25-7.26,28.51-11,42.75a100.41,100.41,0,0,1-3.49,11.55c-1.92,4.91-3.77,9.83-5.26,14.89-2.31,7.85-4.77,15.66-7,23.54-2.91,10.42-5.62,20.89-8.43,31.32-.47,1.74-1.12,3.44-1.57,5.18-1.34,5.24-2.54,10.52-4,15.73s-3.18,10.07-4.43,15.18c-3.62,14.82-7,29.69-10.55,44.54-.64,2.7-1.22,5.42-1.87,8.12q-2.91,11.93-5.85,23.85c-.07.27-.07.55-.14.82-.86,3.36-1.59,6.75-2.63,10-.72,2.31-.85,5.06-3.54,6.31-.2.1-.31.47-.37.73-.36,1.59-.7,3.18-1.08,4.89a14.32,14.32,0,0,0,1.66.68c2.83.69,5.67,1.37,8.51,2,8.4,1.9,16.79,3.81,25.2,5.65,9,2,17.92,3.8,26.7,6.48,9.29,2.85,18.59,5.69,28,8.22a244.28,244.28,0,0,1,35.79,12.31A139,139,0,0,0,874.47,646c5.47,1.53,10.91,3.19,16.37,4.77.76.21,1.49.84,2.73,0,.6-2.18,1.35-4.68,2-7.21,1.11-4.45,2.16-8.91,3.23-13.36,1.68-7,3.39-14,5-21.05,1.4-5.95,2.67-11.92,4.1-17.85s2.79-11.61,4.45-17.34c3.07-10.69,5.35-21.55,7.54-32.44,1.12-5.57,2.21-11.17,3.7-16.65,2.78-10.18,5.88-20.27,8.77-30.41,1.26-4.4,2.18-8.91,3.56-13.28,3.59-11.38,7.22-22.76,11.1-34.05,3.3-9.59,6.12-19.33,8.78-29.1,2.38-8.7,4.39-17.5,6.52-26.27a10.66,10.66,0,0,0,0-2.4c-4.14-2-8.14-4-12.49-4.87-7-1.43-13.61-3.83-20.41-5.78a72,72,0,0,1-9.32-3.54,62.24,62.24,0,0,0-9.38-3.33c-4.68-1.26-9.31-2.74-14-4.17-2.52-.77-5-1.64-7.51-2.48-5.79-1.94-11.6-3.83-17.36-5.85s-11.23-4-16.82-6.12c-3-1.12-6-2.26-8.88-3.55a78.59,78.59,0,0,0-17.89-5.34c-3.53-.64-7-1.63-10.5-2.54C812.9,340.51,808,339.14,802.77,337.74Z"/><path d="M775.51,327.74c-2,7.75-6,14.12-7.51,21.38-.37,1.77-.87,3.5-1.29,5.26-2,8.37-3.75,16.8-6.05,25.09-2.44,8.81-5.46,17.47-8.09,26.24-1.44,4.79-2.57,9.67-3.9,14.49-.86,3.07-1.88,6.09-2.75,9.16s-1.87,6.4-2.54,9.65c-1.12,5.44-2.59,10.78-4.17,16.09-.75,2.52-1,5.17-1.68,7.73-1.13,4.43-2.21,8.89-3.62,13.24a144.81,144.81,0,0,0-4.12,15.69c-.41,2-1,4-1.64,6-2.11,7.18-4.3,14.35-6.35,21.56-2,6.94-3.46,14-5.76,20.86-3.43,10.12-6.13,20.45-9.44,30.6-2.39,7.37-4.46,14.86-6.65,22.3a9.7,9.7,0,0,0-.18,1.88c1.56,1.49,3.85,1.46,5.11,3.39l-1.41,2.23c-1.59.44-2.86-.29-4.08-.85-7.5-3.39-15.43-5.41-23.37-7.41-7.14-1.8-14.13-4.05-21.11-6.38a130.64,130.64,0,0,0-16.38-4.76c-2.17-.42-4.28-1.17-6.42-1.76-3.48-1-6.93-2-10.43-2.84-5.38-1.31-10.8-2.49-16.2-3.76-4.32-1-8.64-2.06-12.93-3.2-2.68-.7-5.32-1.54-7.94-2.42-3.82-1.27-7.59-2.67-11.41-3.94-4.47-1.5-9-3-13.47-4.35-5.47-1.62-10.61-4-15.85-6.2-5-2.09-10-4.13-14.81-6.62-2.58-1.33-5.4-2.18-8.06-3.37s-5.51-2.63-8.24-4c-.71-.36-1.71-.78-1.26-1.8s1.46-.59,2.22-.43a23.6,23.6,0,0,1,3.17,1c.91.33,1.78.75,2.8,1.19,1.47-1.11,1.75-2.8,2.24-4.32q1.81-5.75,3.49-11.55c2-6.94,3.88-13.91,5.88-20.84,2.12-7.34,4-14.74,6.32-22,3.2-9.89,5.66-20,8.5-30.05,1.67-5.88,3.46-11.71,5.2-17.57,1-3.32,2.11-6.61,3-10,1.74-6.86,3.42-13.74,5-20.65,2.25-10,4.22-20.1,6.58-30.1,2-8.5,4.4-16.92,6.64-25.37.72-2.68,1.57-5.33,2.26-8a194.92,194.92,0,0,1,5.66-18.73,123.85,123.85,0,0,0,6-23.79c.44-2.86,1.39-5.65,2.08-8.48.62-2.56,1.2-5.14,1.79-7.7-1.1-1.54.57-2.7.58-4.12,0-.89,1.37-1.66,2.24-1.36,4.43,1.56,9.25,2,13.32,4.58a13.27,13.27,0,0,0,3,1.39c7.39,2.42,14.72,5,22.34,6.69a155.79,155.79,0,0,1,17.55,5.24c5.24,1.83,10.54,3.48,15.8,5.25,2.5.85,4.92,2,7.46,2.64,9.14,2.36,18.31,4.56,27.48,6.83,10.87.92,21.15,4.47,31.64,7.09,3.36.84,6.61,2.12,9.9,3.24A176.74,176.74,0,0,0,760,322.19a130.85,130.85,0,0,1,12.74,3.92A14.46,14.46,0,0,1,775.51,327.74Zm-7.31.92c-1.9-.6-3.46-1.16-5.05-1.59-5.36-1.44-10.78-2.68-16.08-4.29-5.58-1.68-11-3.91-16.59-5.53a250.94,250.94,0,0,0-24.69-5.87c-4.9-.89-9.88-1.42-14.7-2.78q-5-1.41-10-2.76c-3.48-.92-7-1.66-10.45-2.73-5.43-1.68-10.8-3.57-16.19-5.37-1.85-.62-3.68-1.26-5.53-1.87-4.22-1.38-8.4-2.87-12.67-4.09-5.74-1.63-11.58-2.91-17.3-4.61-6-1.77-12-3.4-17.65-6.21a12.65,12.65,0,0,0-5.24-1.34c-1,4-2,7.91-3,11.81-.79,3.23-1.7,6.45-2.29,9.72a107.66,107.66,0,0,1-4.09,16.13c-2.48,7.22-5.17,14.38-6.79,21.87a20.58,20.58,0,0,1-.79,2.37c-2.79,8.14-5.07,16.43-7.08,24.8-1.9,8-3.68,16-5.49,23.94-.44,1.89-.81,3.8-1.2,5.71-.67,3.26-1.23,6.54-2,9.77-.72,3-1.75,5.85-2.52,8.8-1.28,5-2.15,10.07-3.75,14.93-3,9.23-5.58,18.61-8.17,28-2.85,10.3-5.35,20.71-9,30.8-.61,1.69-.95,3.48-1.42,5.22-2.64,9.64-5.22,19.3-7.93,28.92-1.46,5.2-3.15,10.34-4.7,15.52-.27.89-.38,1.84-.59,2.9,1,.46,1.9.87,2.78,1.24,5.5,2.31,11.11,4.38,16.47,7a138.09,138.09,0,0,0,19,7.42q10.14,3.17,20.15,6.71a86.3,86.3,0,0,0,10,3c3.52.78,7,1.66,10.52,2.52,3.92,1,7.81,2,11.74,2.85a148.23,148.23,0,0,1,14.9,3.88,79.23,79.23,0,0,0,8.07,2,156.07,156.07,0,0,1,18,5.11c4.06,1.43,8.18,2.7,12.32,3.88,7.48,2.12,15,4.12,22.49,6.15,1.17.32,2.37.52,3.71.82.39-1,.75-1.75,1-2.53.79-2.81,1.54-5.63,2.3-8.44q4.71-17.28,9.42-34.54c.22-.8.56-1.57.82-2.36,1.11-3.43,2.25-6.86,3.28-10.31.59-2,.91-4.07,1.47-6.08,4.32-15.64,9.53-31,13.08-46.91,1.57-7,3.58-14,5.42-20.95,1.67-6.3,3.68-12.53,5-18.91,2.55-12.25,6.35-24.16,9.59-36.22,4-14.74,9-29.18,12.3-44.11.66-3,1.51-5.92,2.1-8.91a77,77,0,0,1,4.72-15.94A29.51,29.51,0,0,0,768.2,328.66Z"/><path d="M546.45,276.66a5,5,0,0,0-1-.53C537,275,529.19,271.39,521,269.34s-16.09-4.35-24.07-6.74c-6.24-1.86-12.39-4.07-18.61-6-3.84-1.21-7.72-2.28-11.62-3.28a136.27,136.27,0,0,1-15.42-5.07,84.71,84.71,0,0,0-13.6-3.88c-12-2.48-23.89-5.21-35.21-10-1-.41-2.19-.52-2.56-1.76.11-.89.85-.77,1.27-.7a32,32,0,0,1,5.26,1.16,90.16,90.16,0,0,0,11.63,3.2c7.74,1.64,15.47,3.36,23.16,5.24,3.36.82,6.6,2.12,9.9,3.19,4.35,1.42,8.66,3,13.07,4.22,8.05,2.17,16,4.5,23.88,7.33,8.89,3.21,18,5.65,27.17,8,5.78,1.49,11.52,3.05,17.17,5A111.07,111.07,0,0,0,543.29,272c1.08.26,2.21.34,3.26.69,2.49.81,3.27,2.29,2.5,4.79-1.22,4-2.61,7.91-3.79,11.9-3.6,12.12-7.13,24.25-10.71,36.37-1.06,3.6-2.33,7.13-3.27,10.76s-1.63,7.31-2.36,11A181.64,181.64,0,0,1,520,377.37c-1.05,2.72-1.78,5.55-2.57,8.36a197.6,197.6,0,0,1-7.62,20.67c-2.35,5.79-4.65,11.6-6.63,17.52-3.61,10.8-6.87,21.72-10.45,32.52-2.4,7.25-5.22,14.36-7.6,21.61-2,6.19-3.66,12.52-5.57,18.76-.73,2.38-1.74,4.67-2.63,7-.75,1.94-1.5,3.88-2.27,5.82-.43,1.06-.46,1.05-2.45,2.64a22,22,0,0,1,.48-2.54c1.34-3.94,2.86-7.82,4.06-11.81,1.79-6,3.23-12.07,5-18,2.15-7,4.57-14,6.8-21,3.52-11.11,6.79-22.32,10.53-33.36,3.52-10.38,7.53-20.6,11.28-30.91,1.28-3.52,2.43-7.09,3.62-10.65,1.32-3.95,2.45-8,4-11.84,3.84-9.86,6.41-20.08,9-30.31,1.45-5.63,3.6-11.08,5.37-16.63,1.36-4.23,2.65-8.48,3.9-12.74q5.06-17.18,10.05-34.38A8.35,8.35,0,0,0,546.45,276.66Z"/><path d="M503.64,362.42a29,29,0,0,0,2.55-8.33,97,97,0,0,1,4.35-14.77c1.31-3.51,2.43-7.1,3.52-10.68,2.26-7.44,4.42-14.91,6.66-22.36.68-2.25,1.41-4.51,2.3-6.69,1.71-4.2,2.12-8.59,2.35-13-.87-1.6-2.39-2-3.84-2.4l-20.33-6.17c-7.17-2.17-14.34-4.36-21.53-6.5-3.06-.91-6.13-1.81-9.24-2.53-9.61-2.22-19-5.15-28.45-8-6.78-2-13.56-4-20.17-6.61a21.13,21.13,0,0,0-7.69-1.66,4.71,4.71,0,0,1-3.93-1.63c.52-.32.92-.79,1.33-.8a25,25,0,0,1,10.87,2c9.3,4.06,19.08,6.82,28.84,9.55,10.16,2.85,20.36,5.55,30.52,8.41,4.13,1.17,8.19,2.61,12.3,3.91,1.32.41,2.66.76,4,1.15q12.57,3.69,25.15,7.38a15.22,15.22,0,0,1,5.21,2.54,3.32,3.32,0,0,1,1.45,2.84c-.11,3.31-.1,6.56-1.27,9.83-1.91,5.35-3.21,10.91-4.86,16.36-2.37,7.81-4.77,15.62-7.29,23.39-.68,2.09-2,4-2.71,6.06-1.14,3.13-2.07,6.34-3.06,9.52-1.07,3.44-2.1,6.9-3.19,10.34-.46,1.45-1,1.72-2.46,1.55a42.6,42.6,0,0,1-9.67-2.38c-4.57-1.64-9.15-3.26-13.77-4.75-2.24-.72-4.59-1.06-6.85-1.72a51.42,51.42,0,0,1-6.3-2.16A122.29,122.29,0,0,0,452,348.24c-5.61-1.57-11.11-3.53-16.72-5.09-6.15-1.71-12.43-2.95-18.55-4.76a172.31,172.31,0,0,1-28-10.86,9.56,9.56,0,0,1,.26-2.47c3.56-9,5.56-18.33,7.35-27.74a309.82,309.82,0,0,1,8.74-35.58c.75-2.38,1.67-4.72,2.58-7A4,4,0,0,1,408.8,253c.25-.19,1,.06,1.38.32a1.42,1.42,0,0,1,.34,1.14,23.39,23.39,0,0,1-.75,3.65c-2.92,8.84-5.24,17.85-7.36,26.9-1.17,5-2.07,10.07-2.79,15.15-1.13,8-3.46,15.71-5.56,23.47l-.72,2.7c.53,1.51,1.85,1.84,3,2.23a374.43,374.43,0,0,0,39.94,11.74c3,.67,5.9,1.56,8.82,2.46q8.75,2.73,17.43,5.62c1.84.61,3.58,1.51,5.41,2.19,3,1.1,6,2.23,9,3.17,6.23,1.92,12.52,3.66,18.51,6.31A28.13,28.13,0,0,0,503.64,362.42Z"/><path d="M353,480.37c-.53-2,.46-3.82,1.11-5.58a21.17,21.17,0,0,0,1.37-8.14,27.27,27.27,0,0,1,2.08-10.14c2.09-5.73,4.3-11.42,6.3-17.19,1.46-4.19,2.63-8.48,4-12.71,3.15-9.92,5.29-20.12,7.83-30.2.34-1.32.51-2.68.8-4.23a7.33,7.33,0,0,1,2.31-.36A24.53,24.53,0,0,1,384,393c6.73,2.6,13.4,5.37,20.11,8,4.65,1.85,9.33,3.58,14,5.43,11,4.35,21.91,8.77,33.26,12,7.35,2.09,14.58,4.49,21.84,6.86a64.76,64.76,0,0,1,8.45,3.49c2.31,1.13,2.71,2.26,2.28,4.77-1.63,9.57-3.43,19.1-6.69,28.29-1.62,4.57-3.36,9.11-4.93,13.7-3.49,10.25-6.91,20.51-10.35,30.77a9.76,9.76,0,0,1-5.31,6,11.33,11.33,0,0,1-8.83.43c-7.44-2.25-14.84-4.59-22.27-6.86-2.79-.86-5.57-1.78-8.41-2.42a94.31,94.31,0,0,1-17.65-6.13,114.65,114.65,0,0,0-16.82-6.1c-5.79-1.56-11.31-3.81-16.9-5.88-3-1.1-6-2.15-9-3.21C355.43,481.71,354,481.46,353,480.37Zm26.88-85.81c-.56,2.64-1.06,5.05-1.58,7.47-1.85,8.68-4.23,17.23-6.86,25.7-1.81,5.81-3.65,11.61-5.6,17.38-1.33,3.94-2.88,7.81-4.29,11.72a30.49,30.49,0,0,0-2.17,11.78,20.64,20.64,0,0,1-.85,5.3c-.42,1.85-1.19,3.63-1.28,5.62.84.34,1.47.61,2.11.84q5.08,1.83,10.19,3.63c4.7,1.67,9.38,3.42,14.13,4.94,6.61,2.13,13.27,4.08,19.55,7.1a80.51,80.51,0,0,0,12.5,4.55c5.72,1.68,11.42,3.42,17.14,5.13,1.59.48,3.18,1,4.78,1.43,3.07.87,6.14,1.75,9.22,2.56a26.4,26.4,0,0,0,4.47.89c4,.32,5.89-1.06,7.1-4.78,4.74-14.65,9.52-29.3,14.23-44a103.27,103.27,0,0,0,4.1-16.56c.56-3.84,1.35-7.64,2-11.47a27.15,27.15,0,0,0,.18-3.21c-2.15-2-4.7-2.72-7.2-3.52C460.45,423.51,449.2,420,438,416.32c-3.3-1.07-6.53-2.35-9.76-3.6-11.38-4.42-22.93-8.43-34.12-13.34-4.06-1.79-8.3-3.16-12.46-4.7A9.28,9.28,0,0,0,379.84,394.56Z"/><path d="M870.34,320.07l-1.07,2.17c-1.16,2.3-1,4,.71,5.61A22.14,22.14,0,0,0,886.25,334a12.65,12.65,0,0,0,4.73-1.37c3.19-1.48,3.15-1.56,4.89-3.72-.48-2.55-2.71-3.32-4.65-4.26s-3.51-2.32-5.72-1.82c-1.26-2-2.15-3.78-.89-6.11,3.24-1.89,7.38-2.54,10.56-5.66-5.62-3.59-12-3.66-18-6.1a2.41,2.41,0,0,1,.25-3.05,2.94,2.94,0,0,1,3-.92c5.3.62,10.18,2.61,15,4.72a34.7,34.7,0,0,1,4,2.18c2.63,1.6,3.1,2.33,4.06,5.92a7.89,7.89,0,0,1-5.76,4.87,5.9,5.9,0,0,0-3.51,1.8c1.66,2.22,3.36,4.25,4.76,6.46a8.18,8.18,0,0,1,1.47,6.29,5.92,5.92,0,0,1-3,4.26,26.44,26.44,0,0,1-6.46,2.78c-6.77,1.55-17.24-.72-22-7.54a13.31,13.31,0,0,1-2.44-9C866.66,322,867.19,321.48,870.34,320.07Z"/><path d="M679.15,268.48a20.73,20.73,0,0,0,2.48.94c3.38.75,6.76,1.5,10.17,2.13a13.16,13.16,0,0,1,5.3,2.28,4.89,4.89,0,0,1,1.59,1.85,1.89,1.89,0,0,1-1.79,2.78,48.25,48.25,0,0,1-4.87-1c-4.2-.94-8.4-1.87-12.58-2.86a34.16,34.16,0,0,1-3.94-1.28c-2.85-1.06-3.88-3.4-4-6.18a3.46,3.46,0,0,1,.83-2.24,46.59,46.59,0,0,1,4.2-4c2.33-2,4.77-3.8,7.12-5.73a20,20,0,0,0,5.43-7.51,18,18,0,0,0-3.75-4.85c-2.67.15-4.61,1.8-6.78,3s-3.28,3.45-5.76,3.69a2.43,2.43,0,0,1-1.19-2.59,8.45,8.45,0,0,1,1.07-3.11,18.39,18.39,0,0,1,9.47-6.43,3.46,3.46,0,0,1,3.15.67,27,27,0,0,1,8.14,8.78c1.53,2.79.84,5.79-.52,8.38a16.83,16.83,0,0,1-5.59,6.56A39.23,39.23,0,0,0,679.15,268.48Z"/><path d="M193.2,359.37l4.9-3.27c.84,3.52.67,4.49-.61,6.36a4.32,4.32,0,0,1-3.6,1.76,6.83,6.83,0,0,1-7-6.35,16.27,16.27,0,0,1,.58-5.33c1.24-4.24,2.69-8.43,4.14-12.62,1.09-3.15,2.21-6.28,1.78-9.71,0-.41-.19-.8-.35-1.48a7.81,7.81,0,0,0-2.23.45,8.13,8.13,0,0,0-3.48,4,42,42,0,0,0-1.93,5,8.17,8.17,0,0,0,.14,2.72,1.66,1.66,0,0,1-2.27-.07c-1-.7-2.12-1.48-2.23-2.85a10.09,10.09,0,0,1,.2-3.29,17.85,17.85,0,0,1,3.39-6.61c3.25-4,8.58-4.51,12.89-3.58a3.93,3.93,0,0,1,3.29,3.75,23.46,23.46,0,0,1-1.57,12.59c-2,4.56-3.53,9.31-5.18,14A36.93,36.93,0,0,0,193.2,359.37Z"/><path d="M468.46,206.16c-1.64-.76-3.17-1.4-4.63-2.17a1.39,1.39,0,0,1-.14-2.42,29.28,29.28,0,0,1,2.82-1.74c5.05-2.91,10.14-5.75,15.13-8.75,2.48-1.5,4.77-3.3,7.54-5.25a12.44,12.44,0,0,1,2.63,1c2,1.24,2.32,2.24,1.45,4.55-1.85,4.93-3.87,9.79-5.65,14.75-1.41,3.91-2.56,7.91-3.82,11.87-.37,1.18-.68,2.4-1.13,3.55-.56,1.42-1.73,1.46-2.9.32a6.17,6.17,0,0,1-2-6.34,70.3,70.3,0,0,1,2.29-8c.88-2.48,1.88-4.92,2.78-7.39a20.48,20.48,0,0,0,.55-2.47Z"/><path d="M358.61,393.51a18,18,0,0,1-.39,2.21c-3.65,13.79-7.15,27.62-11,41.34-2.19,7.73-4.57,15.4-6.48,23.2a52.19,52.19,0,0,0-1.32,8.62,43.75,43.75,0,0,1-1.51,6.87,1.52,1.52,0,0,1-.67,1,2.15,2.15,0,0,1-1.54.16,1.89,1.89,0,0,1-1-1.17,4.12,4.12,0,0,1,.28-1.61,28.1,28.1,0,0,0,1.07-5.28c.05-4.37,1.24-8.49,2.36-12.63,2.28-8.42,4.71-16.8,6.94-25.24,3.14-11.93,6.15-23.89,9.23-35.84.38-1.47.81-2.94,1.25-4.39.22-.73.76-1.33,1.51-1a3,3,0,0,1,1.26,1.46A7.49,7.49,0,0,1,358.61,393.51Z"/><path d="M164.77,385.1l4.46-4.38c2,2.89,2.12,3.56,1.23,5.27a5.15,5.15,0,0,1-5.12,2.87c-5.43-.1-9.05-4.17-8.35-9.56.24-1.77.78-3.51,1.12-5.28.45-2.31.93-4.62,1.21-6.95a4.16,4.16,0,0,0-1.85-4,2,2,0,0,0-2.68.05,17.52,17.52,0,0,0-3.71,8.84c1.3,1.45,2.81,1.51,4.35,1.6a1.84,1.84,0,0,1,1.2.85c.27.49-.48,1.18-1.37,1.14a14.61,14.61,0,0,1-3.69-.42,5,5,0,0,1-3.92-5.64c.22-3.74,1.45-7.06,4.59-9.41a4.81,4.81,0,0,1,3.89-1,22,22,0,0,1,5.93,1.86,6.7,6.7,0,0,1,3.89,5.95,16,16,0,0,1-.8,6.15,27.34,27.34,0,0,0-1.73,8.53A3.73,3.73,0,0,0,164.77,385.1Z"/><path d="M235.78,367.36c1,1.68,1.16,3.17-.17,4.67-1.63,1.85-3.39,2.25-5.51,1.07s-3-3-2.22-5.19a54.27,54.27,0,0,1,2.69-5.6c1-2.11,2.16-4.17,3.15-6.3a6.71,6.71,0,0,0,.32-5.26c-3,1.06-4.39,4-6.89,5.4a4,4,0,0,1-1-4.33c1.6-4.81,6.78-7.57,11.61-4.59l.7.45c3.13,2,4,3.73,3,7.32a61.78,61.78,0,0,1-3.19,8.07A47.15,47.15,0,0,1,235.78,367.36Z"/><path d="M376.44,356.27c.46.54,1.28,1.08,1.39,1.74a18.69,18.69,0,0,1,.25,4.95c-.5,4.67-1.5,9.28-1.72,14-.2,4.38-5.18,6.25-8.76,5.06-6.36-2.13-10.68-10.39-5.76-16.88,2.89-3.82,6.32-7,11.5-7.44C374.33,357.62,375.25,356.84,376.44,356.27Zm-1.61,6.51a15.2,15.2,0,0,0-5.77,2.72,11.78,11.78,0,0,0-5,7.41c-.68,2.77.59,4.6,3.39,5.13,2.23.43,3.64-.27,4.51-2.64A61.51,61.51,0,0,0,374.83,362.78Z"/><path d="M377.44,770.64c-4-.15-8-.35-12-.41-2.21,0-4.42.24-6.64.27-4.85.08-9.7.16-14.55.11-6.81-.07-13.54,1-20.32,1.41q-11.2.71-22.41,1.35a22.18,22.18,0,0,1-3.73-.16,2.34,2.34,0,0,1-1.41-.74A2,2,0,0,1,296,771a1.63,1.63,0,0,1,1-1.05,33.54,33.54,0,0,1,4.14-.4q8.71-.43,17.44-.8c6-.23,11.92-.55,17.88-.59,8.6,0,17.2.06,25.8.25,4.44.1,8.86.49,13.29.84a6.5,6.5,0,0,1,2,1Z"/><path d="M384.08,278.26a10.47,10.47,0,0,1,.2,2.05c-.34,2.05-.84,4.08-1.12,6.13-1,7.34-3.5,14.28-5.62,21.31a107.88,107.88,0,0,0-3.29,12.9c-.46,2.73-1.25,5.41-1.95,8.09q-2.24,8.67-4.54,17.32a14.31,14.31,0,0,1-1,2.73c-.19.4-.76.61-1.35,1.06a10,10,0,0,1,.26-5.21c.84-3.65,1.85-7.26,2.75-10.9,1.17-4.71,2.31-9.43,3.46-14.15.91-3.78,1.73-7.58,2.72-11.33.82-3.08,1.76-6.14,2.8-9.16a119.1,119.1,0,0,0,3.67-13.66,52.4,52.4,0,0,1,1.68-5.57C382.92,279.43,383.39,279.1,384.08,278.26Z"/><path d="M385.4,273.84a197.74,197.74,0,0,1,10.82-41.08,15.71,15.71,0,0,1,1.55-2.5,2.29,2.29,0,0,1,.82,2.77c-.42,1.46-1.07,2.86-1.53,4.31a308.26,308.26,0,0,0-8.71,31.27C388,270.54,387.78,272.7,385.4,273.84Z"/><path d="M252,777.8a29,29,0,0,1-4.35,1.15c-3.05.22-6.1.29-9.15.35a4.18,4.18,0,0,1-2-.39,2,2,0,0,1-.65-1.38c0-.28.38-.72.69-.9a2.49,2.49,0,0,1,1.22-.22c4.16.09,8.33.19,12.49.34C250.59,776.76,250.91,777.11,252,777.8Z"/><path d="M254.49,797A2.16,2.16,0,0,1,252.2,799c-2.95.13-5.68,2.35-8.81,1,.92-2.17.88-2.28,1.66-2.52C248.09,796.5,251.15,795.72,254.49,797Z"/><path d="M197.06,377.49a10.46,10.46,0,0,1-2,0,1.94,1.94,0,0,1-1.19-2.67,4.17,4.17,0,0,1,3.77-2.16,3.3,3.3,0,0,1,3.33,2,1.7,1.7,0,0,1-1.06,2.61,18.71,18.71,0,0,1-2.8.41Z"/><path d="M234,379a2.76,2.76,0,0,1,.53,5.48,4.63,4.63,0,0,1-3.82-1.17,2.23,2.23,0,0,1,.5-3.51A20.55,20.55,0,0,1,234,379Z"/><path d="M294.16,810.69a3.14,3.14,0,0,1,.93-.52,43.07,43.07,0,0,1,11.45.4c-.18.35-.31.92-.51.94-3,.34-6,.67-9,.86A2.65,2.65,0,0,1,294.16,810.69Z"/><path d="M200,831.21c3.35-1.73,6.46-1.12,9.72-1-.22.56-.31,1.2-.51,1.23-2.44.42-4.89.82-7.35,1C201.38,832.54,200.84,831.82,200,831.21Z"/><path d="M170.5,395.32c-1.52-.08-2-.81-1.84-1.69a4.42,4.42,0,0,1,3.85-3.77,1.64,1.64,0,0,1,1.38.6c.21.38,0,1-.11,1.54-.05.24-.33.59-.51.6C171.52,392.65,171.24,394.21,170.5,395.32Z"/><path d="M199.41,430.7c.44-2.44.92-4.87,1.32-7.32a9.94,9.94,0,0,1,2.78-5,5.94,5.94,0,0,1,3.88-2.17,24.57,24.57,0,0,0,4.79-1.22,8.16,8.16,0,0,1,8.16,1.62,15.78,15.78,0,0,1,4.7,6.25c1.32,3.35,2.55,6.73,3.76,10.12a27.63,27.63,0,0,1,1.59,10.2,7.58,7.58,0,0,0,.16,2.48,7.4,7.4,0,0,1-1.31,6.66c-.39.57-.78,1.14-1.14,1.74-2.32,3.91-5.56,5.35-10.07,4.62-4.91-.8-8.63-3.57-12-7a16.42,16.42,0,0,1-4.46-7.83C200.64,439.53,199.54,435.23,199.41,430.7Zm4.89,1.6c.3,2.61.49,5.23.92,7.82,1.22,7.41,6,12,12.45,15.08,2.68,1.27,4.51.65,6-1.81a14.1,14.1,0,0,0,2.17-6.24c.68-8-1.16-15.46-4.54-22.59a17.88,17.88,0,0,0-3.14-4.39,7.08,7.08,0,0,0-10-.37,10.34,10.34,0,0,0-1.66,2.36C204.69,425.3,204.64,428.79,204.3,432.3Z"/><path d="M945.6,396.9c-2.27-1.49-4.94-2.26-7.51-3.26-3.48-1.37-7.05-2.58-10.43-4.17-3.68-1.72-7.62-2.58-11.44-3.84-3.41-1.13-6.9-2.05-10.33-3.13S898.83,380,895.21,379a110,110,0,0,1-20-7.13,53.94,53.94,0,0,0-12.69-4,90.11,90.11,0,0,1-16.34-4.84c-8.11-3.27-16.35-6.19-25.12-7.34a62,62,0,0,1-7.24-1.86,17,17,0,0,0-2.44-.47,1.75,1.75,0,0,0-1.91,1.28c-.18.52-.23,1.08-.36,1.62-2.29,9.44-4.4,18.93-6.94,28.3-1.78,6.55-4,13-6.28,19.4-4.19,11.62-8.07,23.33-11.3,35.25-.65,2.4-.93,4.89-1.39,7.34a10,10,0,0,1-.24,1.21c-.16.56-1.44.8-1.74.29a3.52,3.52,0,0,1-.72-1.85,34.24,34.24,0,0,1,1-6.56c4.89-15.77,9.29-31.7,14.81-47.29,2.46-6.92,4.12-14.13,6.07-21.22,1.54-5.63,2.95-11.29,4.45-16.92a29.35,29.35,0,0,1,1.07-2.76,20.4,20.4,0,0,1,8.7.4,70,70,0,0,0,8.14,1.69,79.12,79.12,0,0,1,15.12,4.49c8.15,3.16,16.3,6.36,25.08,7.42a14.17,14.17,0,0,1,3.6,1c4.77,1.9,9.46,4,14.25,5.8a78,78,0,0,0,10.7,3.36A113.67,113.67,0,0,1,907,379.93c1.7.6,3.35,1.32,5,1.94a14.91,14.91,0,0,0,2.78.78,48.78,48.78,0,0,1,14.61,4.69,56.59,56.59,0,0,0,7.34,2.91c3.8,1.29,7.52,2.86,11.26,4.33a9.66,9.66,0,0,1,1.07.63,3.14,3.14,0,0,1,1.75,3.84c-.88,3.06-2,6.06-3,9.08-.68,1.95-1.48,3.87-2.11,5.83-1.61,5-3.22,10-4.69,15.1-1.23,4.24-3.18,8.24-4.22,12.54s-2.14,8.63-3.23,12.93c-.71,2.82-1.41,5.65-2.2,8.45-2.93,10.39-5.48,20.88-7.87,31.42-.77,3.37-1.81,6.69-2.53,10.08-1.45,6.78-2.73,13.59-4.14,20.38-.81,3.94-1.7,7.86-2.6,11.78-1.68,7.3-3.36,14.61-5.11,21.9-1.11,4.58-2.33,9.14-3.53,13.71-1,3.89-2.11,7.76-3.1,11.66-1.29,5.1-2.51,10.23-3.76,15.35l-5.25,21.44a13.61,13.61,0,0,1-3.89,7.22,5,5,0,0,1-1.31.63c-.18-.52-.39-.8-.34-1,1.76-6.85,3.57-13.69,5.3-20.55,2.11-8.35,3.94-16.77,6.25-25.06,5.31-19,9.65-38.23,14.27-57.4,1.56-6.47,2.81-13,4.4-19.5,3.11-12.67,5-25.62,8.41-38.22,3.77-13.8,7.19-27.69,11-41.46,2.08-7.49,4.74-14.81,7-22.24C945.29,401.17,946.31,399.23,945.6,396.9Z"/><path d="M876.58,628.67c-2.69,1-4.94.31-7.25-.26-8.91-2.17-17.46-5.53-26.26-8.07a135.73,135.73,0,0,0-19.55-4.07,123.74,123.74,0,0,1-23.1-5.29,127.71,127.71,0,0,0-23.93-5.34,4.46,4.46,0,0,1-3.35-2.38c2.06-3.88,1.81-8.29,2.46-12.5q1.64-10.74,4.2-21.25c2.81-11.46,5.76-22.88,8.66-34.32.61-2.4,1.27-4.79,1.86-7-1.41-1.81-4.07-.68-5.14-2.88a3.36,3.36,0,0,1,3.2-.66,7.14,7.14,0,0,0,5-.85c1.22,2.32,3.27,3.33,5.38,4.36,6.77,3.28,13.88,5.65,21,8.09s14.18,4.86,21.29,7.23c9.47,3.17,18.93,6.4,28.67,8.75,4.72,1.14,9.38,2.52,14.09,3.68,2.69.67,5.42,1.21,8.16,1.62,2.16.32,2.18.2,4.39,2.28C889.45,582.57,884.14,605.85,876.58,628.67Zm-2.87-2a12.93,12.93,0,0,0,.71-1.59c1.93-6.52,3.92-13,5.75-19.57,2.16-7.75,4.19-15.54,6.29-23.31,1.91-7.08,3.85-14.15,5.83-21.43a21.92,21.92,0,0,0-2.4-.91c-2-.5-4.08-.85-6.09-1.39q-11.26-3-22.51-6.08c-2.28-.62-4.56-1.21-6.79-2-12.11-4-24.19-8.19-36.31-12.21a187.45,187.45,0,0,1-21-7.95c-.86-.41-1.79-.68-2.71-1a4.92,4.92,0,0,0-.71,1.13Q791,541,788.25,551.69c-1,4-2.17,8-3.12,12.07s-1.69,7.87-2.47,11.82c-.53,2.72-.83,5.49-1.5,8.16a62.26,62.26,0,0,0-2.09,19.17c1.7.36,3.43.76,5.18,1.09A95.7,95.7,0,0,1,798,607.33a132.45,132.45,0,0,0,19.73,5.15c5.33.93,10.68,1.76,16,2.77,7.38,1.41,14.49,3.79,21.62,6.1q7.93,2.55,15.88,5A12.75,12.75,0,0,0,873.71,626.63Z"/><path d="M915.21,465.94a5.21,5.21,0,0,1-3.75,0c-4-1.32-8-2.42-11.85-3.89a164.29,164.29,0,0,0-22.23-6.9c-5.81-1.3-11.52-3.08-17.19-4.92a155.68,155.68,0,0,0-17.4-4.07q-14.07-2.86-28.08-5.94c-2-.44-4.11-.93-5.5-3.36.77-3.44,1.58-7.22,2.48-11q5.77-24.3,11.61-48.6a40.12,40.12,0,0,1,1.89-5.5c.22-.55.83-.95,1.58-1.74a6.88,6.88,0,0,1,.69,1.76,8,8,0,0,1-.34,2c-3.58,13.85-6.6,27.83-9.34,41.86-.9,4.62-2.31,9.14-3.47,13.71-.61,2.4-1.41,4.78-.95,7.56a20.55,20.55,0,0,0,2.64.92c7.61,1.59,15.19,3.34,22.85,4.64a180,180,0,0,1,25.48,6.14c5.94,1.91,12,3.52,18.07,4.95a137.91,137.91,0,0,1,18.23,5.79c3.35,1.3,6.65,2.78,10.54,3.39a21.61,21.61,0,0,0,1.18-2.93c2-8.22,4-16.47,6-24.67a194.28,194.28,0,0,1,6.32-20.69,22.52,22.52,0,0,0,1.71-9.36c-.07-1.1-.28-2.18-.45-3.46-5.17-1.7-10.29-3.37-15.42-5-5.8-1.9-11.55-4-17.41-5.66-5.33-1.54-10.78-2.67-16.16-4-4.71-1.18-9.46-2.23-14.1-3.64a128.4,128.4,0,0,0-17.53-3.65,62,62,0,0,1-16-5.24c-.29-1.23.47-1.5,1.11-1.42a10.1,10.1,0,0,1,3.17.83,41.64,41.64,0,0,0,11.48,3.57,183.34,183.34,0,0,1,23.54,5.35c4.1,1.25,8.34,2.12,12.56,3,9,1.84,17.66,4.8,26.34,7.73,1.18.39,2.4.69,3.59,1.05,2.52.77,5.08,1.44,7.55,2.37a43.76,43.76,0,0,0,8.75,2.59c2.17.35,2.25.78,2.59,3,.83,5.59-.75,10.77-2.78,15.77a136.71,136.71,0,0,0-6.13,17.63c-1.23,4.82-2.13,9.74-3.13,14.62-.58,2.85-1.09,5.72-1.61,8.58C916,461.3,915.65,463.47,915.21,465.94Z"/><path d="M743.81,604c.21-1,.39-2.26.7-3.47q5.29-21,10.63-42c3-11.7,5.89-23.42,8.88-35.12.75-3,1.64-5.89,2.48-8.83a5.08,5.08,0,0,1,.65-1.51c.21-.28.78-.61,1-.51.45.21,1,.66,1.07,1.07a7.57,7.57,0,0,1-.32,2.43c-.75,3-1.63,5.89-2.32,8.86-2.23,9.6-4.31,19.24-6.63,28.82-1.54,6.34-3.46,12.59-5.13,18.9q-2.22,8.46-4.25,17c-.94,3.91-1.67,7.87-2.61,11.78a24.36,24.36,0,0,1-1.61,4.26,1.17,1.17,0,0,1-1.69.7,2.86,2.86,0,0,1-.82-1.31A3.34,3.34,0,0,1,743.81,604Z"/><path d="M789.31,489.79c.51.4,1.17.9,1.79,1.44,3.54,3.12,3.8,7.46.69,11a17.87,17.87,0,0,1-8.68,5.45,10,10,0,0,1-11.25-4.26,7,7,0,0,1-1.09-5.18,24.47,24.47,0,0,1,8.36-14.91c2-1.65,4.32-2.54,6.92-1.14a5.5,5.5,0,0,1,3.25,4.51C789.38,487.67,789.31,488.62,789.31,489.79Zm-4.06-5.13a36.72,36.72,0,0,0-4,3.46,25.37,25.37,0,0,0-5.65,10.48,6.8,6.8,0,0,0,.42,4.84,3.11,3.11,0,0,0,3.35,1.93,18,18,0,0,0,9.69-4.34,5,5,0,0,0,1.79-3.18,6.53,6.53,0,0,0-3.86-7.1c-.57-.29-1.19-.47-2.28-.9,1.33-.76,2.43-1.28,2.16-2.62S786.39,484.76,785.25,484.66Z"/><path d="M587.39,457.43c1.65-.81,3.19-.44,4.67-.21a29.75,29.75,0,0,1,4.45,1.08c13.32,4.34,26.86,8,40.29,11.94,5.85,1.74,11.87,2.88,17.75,4.51,4,1.1,7.88,2.66,11.85,3.87s8.26,2.43,12.42,3.5c4.7,1.21,9.45,2.27,14.17,3.41.68.16,1.33.41,2,.6,3.11.91,3.65,1.86,3.14,4.81a21.63,21.63,0,0,0,0,3.32,18.73,18.73,0,0,1-.85,6.16,37.67,37.67,0,0,0-1.12,4.86c-1.75,9-4.34,17.78-6.67,26.63-1.24,4.69-2.25,9.45-3.45,14.15-.92,3.63-1.93,7.24-3,10.84-1.34,4.67-2.76,9.31-4.09,14-1,3.56-3,5.33-6.61,4.8a127.85,127.85,0,0,1-13.84-2.9,106.55,106.55,0,0,1-10.64-3.61,47.59,47.59,0,0,0-10.06-2.55,62.81,62.81,0,0,1-11.32-2.7c-2.89-1-5.88-1.65-8.82-2.48-4.94-1.41-9.91-2.71-14.8-4.28a162.44,162.44,0,0,0-19.34-4.89,144.44,144.44,0,0,1-14-3.91,14.82,14.82,0,0,1-6.6-4.38,10.22,10.22,0,0,1,0-2.41c1-3.9,1.41-7.92,3-11.66a32.3,32.3,0,0,0,1.8-5.54c1.69-7.17,3.81-14.2,6-21.23,1.6-5.17,2.64-10.5,4.08-15.72,1.7-6.16,3.48-12.29,5.39-18.38C584.49,465.09,586,461.22,587.39,457.43Zm-19.15,87.29a30.53,30.53,0,0,0,4.45,1.9c5.23,1.37,10.47,2.74,15.76,3.8a104.56,104.56,0,0,1,11.32,2.68c6.34,2,12.62,4.22,19.17,5.54,2.16.44,4.29,1.08,6.42,1.65,5.22,1.41,10.3,3.31,15.75,3.85a31.7,31.7,0,0,1,6.48,1.49c3,1,6,2.25,9,3.17,4.25,1.28,8.54,2.46,12.86,3.45,3,.68,3.77.2,4.66-2.63,2.28-7.28,4.8-14.51,6.53-21.93,3.65-15.69,8-31.19,12.23-46.71,1.14-4.12.92-8.17,1-12.46-1.22-.35-2.26-.68-3.31-.94-6.06-1.51-12.14-3-18.18-4.53-2.15-.55-4.26-1.28-6.37-2-4.74-1.55-9.4-3.43-14.22-4.65-18.7-4.76-37.16-10.28-55.65-15.77-1.63-.48-3.36-1.32-5.11-.69l-6.3,20c-.42,1.32-1,2.59-1.33,3.93-.73,3.25-1.3,6.54-2,9.79a41,41,0,0,1-2.27,7.1,46.34,46.34,0,0,0-3.28,10.27c-.64,4-1.9,7.8-2.6,11.74-1,5.49-3.77,10.42-4.7,15.94A18,18,0,0,0,568.24,544.72Z"/><path d="M613.3,310.8a6.56,6.56,0,0,1,.89-.58c4.13-1.64,4.14-1.67,8.64-.19,3,1,5.95,2.34,9,3.08,10.42,2.49,20.44,6.17,30.54,9.66,10.62,3.68,21.3,7.2,32,10.69q9.11,3,18.3,5.61c4.66,1.34,9.41,2.4,14.09,3.67a23.4,23.4,0,0,1,9.69,4.93,15.38,15.38,0,0,1,0,3.18,103.23,103.23,0,0,1-2.65,10.91,101.12,101.12,0,0,0-3,11.66,79.79,79.79,0,0,1-3.93,14.41,21.23,21.23,0,0,0-1,3.61c-.65,3.11-1.23,6.24-1.86,9.36-1,5.21-3.37,10-5.14,14.94a33,33,0,0,1-1.3,3.06,4.43,4.43,0,0,1-3.77,2.89,21.12,21.12,0,0,1-4.11.22c-6.21-.75-12.39-1.63-18.28-3.89a24.92,24.92,0,0,0-3.18-1,182.58,182.58,0,0,1-22.53-7.4,93.8,93.8,0,0,0-9.53-3q-20.55-5.37-41.12-10.6a43.53,43.53,0,0,1-12.95-5.56,22.24,22.24,0,0,1-4-3.6,5.82,5.82,0,0,1-1.34-4.24,66,66,0,0,1,3.33-20c3-9.23,5.14-18.72,7.27-28.21C609.16,326.44,611.34,318.55,613.3,310.8Zm2.86.45c-1.33,6.41-2.55,12.38-3.82,18.35-.83,3.93-2.06,7.82-2.49,11.8a89,89,0,0,1-2.63,13c-.55,2.12-1.59,4.11-2.34,6.19-1.55,4.34-2.14,8.89-2.82,13.4-.43,2.87-.38,5.81-.62,8.71a4.7,4.7,0,0,0,1.58,4.1,20,20,0,0,0,2.89,2.32c4.56,2.79,9.65,4.18,14.79,5.4,7.29,1.74,14.64,3.24,21.88,5.17,8.85,2.37,17.62,5,26.39,7.66,3,.92,5.93,2.38,9,3.34,7.41,2.32,14.84,4.6,22.33,6.67a73.27,73.27,0,0,0,9,1.48,3.25,3.25,0,0,0,3.67-2.1c.18-.37.33-.76.5-1.14,3.13-7.13,6.12-14.3,7.42-22,.25-1.5.76-3,1.14-4.44,2.74-10.62,5.5-21.23,8.19-31.86.58-2.28.88-4.64,1.41-6.93a3.22,3.22,0,0,0-2.08-4,28.44,28.44,0,0,0-4.26-1.61c-6.43-1.75-12.92-3.28-19.31-5.16-8.38-2.48-16.73-5.08-25-7.86-9.87-3.3-19.64-6.91-29.5-10.26-5.39-1.83-10.82-3.57-16.31-5a91.49,91.49,0,0,1-10.75-3.2A24.79,24.79,0,0,0,616.16,311.25Z"/><path d="M602.61,293.22c-2.36,10.56-4.66,21-7,31.36-.74,3.25-1.46,6.51-2.48,9.67-2,6.24-2.81,12.73-4.14,19.1-1,4.89-2,9.78-3,14.66-1.86,8.68-3.75,17.36-5.61,26-.58,2.71-1.09,5.44-1.65,8.16a4.07,4.07,0,0,1-2.81,3.45,25.9,25.9,0,0,1,0-3.31,283.42,283.42,0,0,1,5.83-29.82c2.2-9,4.63-18,5.91-27.25.42-3,1.28-6,2-8.94,2-8.37,3.94-16.74,6-25.1.68-2.83,1.56-5.62,2.3-8.43,1.08-4.15,2.13-8.3,3.25-12.69,3.72,1.93,8,2.23,12.16,3.08,2.57.52,5.07,1.42,7.63,2.07q9.68,2.49,19.37,4.92c11.17,2.82,22.32,5.7,33.5,8.45,7.14,1.75,14.33,3.27,21.48,5,9.72,2.32,19.41,4.72,29.11,7.1,3.64.9,7.28,1.8,10.89,2.77a38.84,38.84,0,0,1,6.33,2A171.12,171.12,0,0,0,759,332.39a18.3,18.3,0,0,1,3,1.33c.41.22.64.78,1,1.25-1.39,1-2.63.44-3.72.07-3.93-1.35-7.92-2.62-11.7-4.34a84.84,84.84,0,0,0-16.94-5.63c-5.68-1.25-11.27-2.95-16.94-4.3-8.09-1.92-16.24-3.63-24.32-5.58-8.77-2.12-17.5-4.4-26.24-6.63q-12.71-3.22-25.39-6.49c-6.18-1.59-12.34-3.26-18.53-4.82-2.95-.75-5.95-1.31-8.91-2C607.83,294.62,605.3,293.92,602.61,293.22Z"/><path d="M753.63,335.88a6,6,0,0,1,.14,1.87c-.6,2.57-1.36,5.1-2,7.67s-1.34,5.4-1.71,8.15a184.68,184.68,0,0,1-6,26.38c-.81,2.8-1.55,5.62-2.34,8.43-1.23,4.41-2.43,8.83-3.74,13.21-1.95,6.52-4,13-6,19.51-2.38,7.83-4.78,15.66-7,23.54-1.07,3.73-1.83,7.55-2.73,11.33-1.75,7.29-3.64,14.55-5.22,21.88-2.25,10.45-4.22,21-6.41,31.43-1.09,5.16-2.48,10.25-3.61,15.41-2.08,9.49-4.29,18.95-6.81,28.34-1.4,5.23-2.61,10.5-4.31,15.64a48.76,48.76,0,0,0-1.63,9.42c-.47,3.69-2.19,6.84-3.92,10a1.3,1.3,0,0,1-.58.58,1.77,1.77,0,0,1-1.16.13,1.16,1.16,0,0,1-.63-.9,13.67,13.67,0,0,1,.62-2.82c1.39-4.07,3-8.08,3.22-12.46a19.14,19.14,0,0,1,.92-3.63c3-11.26,6.22-22.47,9-33.79,3-12.55,5.74-25.19,8.46-37.81,1.91-8.82,3.46-17.71,5.42-26.52,1.88-8.4,4-16.74,6.16-25.08.8-3.08,2-6.05,3-9.1,1.88-6.1,3.65-12.24,5.55-18.34,1.16-3.7,2.34-7.42,3.76-11a136.49,136.49,0,0,0,5.46-17.47c1.74-7.15,3.72-14.24,5.75-21.31a118.06,118.06,0,0,0,2.9-15.13,96.44,96.44,0,0,1,4.55-17.62Z"/><path d="M560.51,451.8a13.2,13.2,0,0,1-.49,5.31c-2.71,9.91-5.54,19.79-7.89,29.79-1.94,8.26-4.89,16.2-7,24.38-1.63,6.18-3,12.41-4.66,18.59a54.67,54.67,0,0,1-2.55,7.46,25.73,25.73,0,0,1-2.58,4c-1.31-.05-1.39-.65-1.19-1.42a1.87,1.87,0,0,1,.13-.4c3.59-7.47,4.93-15.62,6.84-23.55s4.18-15.56,6.47-23.28c3.39-11.45,6.59-22.95,9.9-34.43.5-1.73,1.08-3.44,1.71-5.13C559.32,452.72,559.84,452.44,560.51,451.8Z"/><path d="M563.81,434.24a29.44,29.44,0,0,1,3.37-11.88,11.91,11.91,0,0,1,6.2-5.34,6.37,6.37,0,0,1,5.63,0c1.61.81,3.24,1.58,4.81,2.46a6.81,6.81,0,0,1,3.58,5.74,17,17,0,0,1-.68,5.74c-1.64,6.15-6,9.77-11.36,12.46-2.4,1.2-4.86.92-7.27.14a4.88,4.88,0,0,1-1.88-1.56A10.5,10.5,0,0,1,563.81,434.24Zm13.61-15.43a19.48,19.48,0,0,0-9,13.37,13.54,13.54,0,0,0,.31,7.36c.78,2.14,2.16,2.84,4.13,1.9a36.92,36.92,0,0,0,4.36-2.39,17.33,17.33,0,0,0,7.37-11.12c.52-2.28.79-4.69-2.36-5.66-.69-.21-1.14-1.17-1.75-1.72C579.58,419.72,578.68,418.82,577.42,418.81Z"/><path d="M221.9,432.47a5.37,5.37,0,0,1-1.05,3.87,3.5,3.5,0,0,1-3.53,1.61c-1.59-.27-2.9-1-3.22-2.74a25.94,25.94,0,0,1-.55-4.86,4,4,0,0,1,2.48-3.53,3.69,3.69,0,0,1,5.52,2.38A22.1,22.1,0,0,1,221.9,432.47Z"/></g></svg>