<svg id="Layer_1" data-name="Layer 1" xmlns="http://www.w3.org/2000/svg" viewBox="0 0 35 43.67"><defs><style>.cls-1,.cls-2,.cls-3{fill:none;stroke-miterlimit:10;stroke-width:4.83px;}.cls-1{stroke:#f5a252;}.cls-2{stroke:#579aca;}.cls-3{stroke:#e66581;}</style></defs><title>logo</title><path class="cls-1" d="M30.64,8.11a9.54,9.54,0,1,1-13-3.51A9.54,9.54,0,0,1,30.64,8.11Z"/><path class="cls-2" d="M30.64,26.67a9.54,9.54,0,1,1-13-3.51A9.54,9.54,0,0,1,30.64,26.67Z"/><path class="cls-3" d="M21.31,17.46A9.54,9.54,0,1,1,8.28,14,9.54,9.54,0,0,1,21.31,17.46Z"/><path class="cls-2" d="M14.69,25.77a9.54,9.54,0,0,1,16,.9"/><path class="cls-1" d="M14.1,17.63A9.54,9.54,0,0,1,30.64,8.11"/></svg>