<svg id="Layer_1" data-name="Layer 1" xmlns="http://www.w3.org/2000/svg" viewBox="0 0 188.58 43.67"><defs><style>.cls-1{fill:#545454;}.cls-2,.cls-3,.cls-4{fill:none;stroke-miterlimit:10;stroke-width:4.83px;}.cls-2{stroke:#f5a252;}.cls-3{stroke:#579aca;}.cls-4{stroke:#e66581;}</style></defs><title>logo</title><path class="cls-1" d="M46,37.92V1.67h7.25V19.21a8.91,8.91,0,0,1,7.3-3.09c6,0,10.58,5.27,10.58,11.17S66.61,38.41,60.57,38.41c-2.76,0-5.85-.87-7.3-3v2.56Zm12.32-5.31a5.33,5.33,0,1,0-5.07-5.32A5.23,5.23,0,0,0,58.34,32.61Z"/><path class="cls-1" d="M79.61,5.05a4.26,4.26,0,1,1-4.25,4.26A4.27,4.27,0,0,1,79.61,5.05ZM76,37.92V16.6h7.25V37.92Z"/><path class="cls-1" d="M111.08,37.92h-7.25V25.84c0-2.52-1-3.87-3.24-3.87s-4.06,2.42-4.06,5.32V37.92H89.28V16.6h7.25v2.61a8.2,8.2,0,0,1,6.53-3.09c5.7,0,8,3.92,8,9.72Z"/><path class="cls-1" d="M140.09,37.92h-7.25V35.36c-1.45,2.18-4.59,3-7.3,3-6,0-10.59-5.22-10.59-11.12s4.55-11.17,10.59-11.17a9,9,0,0,1,7.3,3.09V1.67h7.25ZM127.76,22a5.33,5.33,0,1,0,5.08,5.32A5.22,5.22,0,0,0,127.76,22Z"/><path class="cls-1" d="M168.9,28.16H152.37c0,2.46,1.74,5.07,4.59,5.07,2.57,0,4.16-1.69,4.21-3.24h7.39c-1.25,5.61-5.8,8.42-11.45,8.42-7.35,0-12.42-4.35-12.42-11.12S150,16.12,157.11,16.12C163.59,16.12,169,20,169,26.8,169,27.24,168.9,27.72,168.9,28.16ZM162,24.73a4.47,4.47,0,0,0-4.74-4,4.39,4.39,0,0,0-4.78,4Z"/><path class="cls-1" d="M180.8,27.29V37.92h-7.25V16.6h7.25v2.61a6.76,6.76,0,0,1,5.6-3.09,5.71,5.71,0,0,1,2.18.48v6.58h-.1a3.63,3.63,0,0,0-2.9-1.21C182.88,22,180.8,24.73,180.8,27.29Z"/><path class="cls-2" d="M31.41,8.37a9.54,9.54,0,1,1-13-3.51A9.54,9.54,0,0,1,31.41,8.37Z"/><path class="cls-3" d="M31.41,26.93a9.54,9.54,0,1,1-13-3.51A9.54,9.54,0,0,1,31.41,26.93Z"/><path class="cls-4" d="M22.09,17.72a9.54,9.54,0,1,1-13-3.5A9.54,9.54,0,0,1,22.09,17.72Z"/><path class="cls-3" d="M15.46,26a9.54,9.54,0,0,1,16,.9"/><path class="cls-2" d="M14.88,17.9A9.54,9.54,0,1,1,31.41,8.37"/></svg>